<svg width="158" height="103" viewBox="0 0 158 103" fill="none" xmlns="http://www.w3.org/2000/svg">
<path d="M0.289062 51.5859C0.289062 42.1641 1.57812 34.0781 4.15625 27.3281C6.78125 20.5781 10.4844 15.3047 15.2656 11.5078C24.3594 4.24219 36.2188 0.609375 50.8438 0.609375H55.7656C70.3906 0.609375 82.25 4.24219 91.3438 11.5078C101.328 19.4766 106.32 32.8359 106.32 51.5859C106.32 70.4297 101.328 83.8125 91.3438 91.7344C82.25 98.9531 70.3906 102.562 55.7656 102.562H50.8438C36.2188 102.562 24.3594 98.9531 15.2656 91.7344C5.28125 83.8125 0.289062 70.4297 0.289062 51.5859ZM53.3047 20.5078C35.6328 20.5078 26.7969 30.8906 26.7969 51.6562C26.7969 72.375 35.6328 82.7344 53.3047 82.7344C70.9766 82.7344 79.8125 72.375 79.8125 51.6562C79.8125 30.8906 70.9766 20.5078 53.3047 20.5078ZM111.594 25.7109C111.031 24.9141 110.75 23.9766 110.75 22.8984C110.75 21.8203 111.523 20.625 113.07 19.3125L130.227 4.54688C132.711 2.34375 136.156 1.21875 140.562 1.17188H150.898C152.82 1.17188 154.438 1.82812 155.75 3.14062C157.062 4.45313 157.719 6.02344 157.719 7.85156V95.3906C157.719 97.2188 157.039 98.7891 155.68 100.102C154.32 101.367 152.727 102 150.898 102H137.82C135.992 102 134.422 101.391 133.109 100.172C131.844 98.9062 131.211 97.3594 131.211 95.5312V27.5391L123.125 33.4453C122.188 34.1016 121.109 34.3125 119.891 34.0781C118.672 33.8438 117.688 33.3047 116.938 32.4609L111.594 25.7109Z" fill="white" fill-opacity="0.1"/>
</svg>
