<svg width="165" height="165" viewBox="0 0 165 165" fill="none" xmlns="http://www.w3.org/2000/svg">
<path d="M155.768 70.5105C135.892 48.4291 107.092 19.4011 105.796 16.6041L30.0576 30.1454L20.2326 139.571L128.09 155.651L155.768 70.5105Z" fill="#DFA46D"/>
<g clip-path="url(#clip0_1450_63837)">
<path d="M83.8194 43.9855C82.5813 49.5832 77.0633 53.1024 71.4656 51.8643C69.6109 51.4541 67.7578 52.6359 67.3476 54.4906L60.6034 52.9989C61.8415 47.4012 67.3596 43.882 72.9573 45.1201C74.8119 45.5303 76.665 44.3485 77.0752 42.4939L83.8194 43.9855ZM89.072 52.2214L65.4233 63.1906L66.6018 57.8627L59.8576 56.371L57.538 66.8583L45.7137 72.3429L48.608 78.607L55.6659 75.3223L48.6699 106.953L102.624 118.886L109.62 87.2558L114.641 93.1769L119.9 88.7514L89.072 52.2214ZM92.6305 67.1568L79.513 64.2555L87.1924 60.7192L92.6305 67.1568ZM69.2201 69.053L99.9737 75.8551L104.009 80.6385L103.338 83.6734L62.8726 74.7232L63.5438 71.6884L69.2201 69.053ZM101.846 90.4176L100.354 97.1618L59.8892 88.2117L61.3809 81.4675L101.846 90.4176ZM56.9058 101.7L58.3975 94.9559L98.8628 103.906L97.3711 110.65L56.9058 101.7Z" fill="white"/>
</g>
<defs>
<clipPath id="clip0_1450_63837">
<rect width="82.8866" height="82.8866" fill="white" transform="translate(50.8438 33.1553) rotate(12.4719)"/>
</clipPath>
</defs>
</svg>
