<svg width="44" height="44" viewBox="0 0 44 44" fill="none" xmlns="http://www.w3.org/2000/svg">
<path d="M14.9507 32.8299C14.7928 32.6153 14.7417 32.3217 14.8765 32.0564C17.9984 26.4349 16.0296 19.275 10.4188 16.1328C10.0751 15.8899 10.024 15.5963 10.1866 15.1447C10.2935 15.0657 10.2935 15.0657 10.4003 14.9867C10.614 14.8288 10.9066 14.7781 11.1714 14.9138C16.7822 18.0559 23.9172 16.0951 27.0392 10.4736C27.146 10.3946 27.146 10.3946 27.2528 10.3156C27.5734 10.0786 27.945 10.1353 28.1818 10.4573C28.3397 10.6719 28.3908 10.9655 28.2561 11.2308C25.1341 16.8523 27.1029 24.0122 32.7138 27.1544C33.0575 27.3973 33.1085 27.6909 32.9459 28.1425C32.8391 28.2215 32.8391 28.2215 32.7322 28.3005C32.5185 28.4584 32.2259 28.5091 31.9612 28.3734C26.3503 25.2313 19.2154 27.1921 16.0934 32.8136C15.9865 32.8926 15.9865 32.8926 15.8797 32.9716C15.666 33.1296 15.3734 33.1802 15.1086 33.0446C15.1086 33.0446 15.0297 32.9373 14.9507 32.8299ZM15.1564 18.7607C17.2882 21.6582 18.1658 25.3171 17.5291 28.9358C20.4975 26.2443 24.6781 24.9763 28.6309 25.8649C25.9417 22.8824 24.6694 18.6869 25.5477 14.724C22.3935 17.3871 18.3197 18.5761 14.3669 17.6876C14.6037 18.0095 14.9196 18.4388 15.1564 18.7607Z" fill="#00164C"/>
</svg>
