<svg width="64" height="64" viewBox="0 0 64 64" fill="none" xmlns="http://www.w3.org/2000/svg">
<g clip-path="url(#clip0_1328_59559)">
<path d="M64 19.2001C52.8 11.2001 36.8681 0.950718 36.0016 -0.184769L3.09623 13.5183L9.60003 64.0001L59.9983 60.4826L64 19.2001Z" fill="#CF9259"/>
<g clip-path="url(#clip1_1328_59559)">
<path d="M28.8001 14.3999C28.8001 17.0559 26.6561 19.1999 24.0001 19.1999C23.1201 19.1999 22.4001 19.9199 22.4001 20.7999H19.2001C19.2001 18.1439 21.3441 15.9999 24.0001 15.9999C24.8801 15.9999 25.6001 15.2799 25.6001 14.3999H28.8001ZM32.0001 17.5999L22.4001 24.9279V22.3999H19.2001V27.3759L14.4001 31.0399L16.3361 33.5839L19.2001 31.3919V46.3999H44.8001V31.3919L47.6642 33.5679L49.6001 31.0399L32.0001 17.5999ZM35.1041 23.9999H28.8801L32.0001 21.6319L35.1041 23.9999ZM24.7041 27.1999H39.2961L41.6001 28.9599V30.3999H22.4001V28.9599L24.7041 27.1999ZM41.6001 33.5999V36.7999H22.4001V33.5999H41.6001ZM22.4001 43.1999V39.9999H41.6001V43.1999H22.4001Z" fill="white"/>
</g>
</g>
<defs>
<clipPath id="clip0_1328_59559">
<rect width="64" height="64" fill="white"/>
</clipPath>
<clipPath id="clip1_1328_59559">
<rect width="38.4" height="38.4" fill="white" transform="translate(12.8 12.8)"/>
</clipPath>
</defs>
</svg>
