<svg width="20" height="20" viewBox="0 0 20 20" fill="none" xmlns="http://www.w3.org/2000/svg">
<path d="M19.1667 10.8161H0.833333C0.373332 10.8161 0 10.4427 0 9.98275C0 9.52275 0.373332 9.14941 0.833333 9.14941H19.1667C19.6267 9.14941 20 9.52275 20 9.98275C20 10.4427 19.6267 10.8161 19.1667 10.8161Z" fill="#00164C"/>
<path d="M19.1667 4.42741H0.833333C0.373332 4.42741 0 4.05408 0 3.59408C0 3.13407 0.373332 2.76074 0.833333 2.76074H19.1667C19.6267 2.76074 20 3.13407 20 3.59408C20 4.05408 19.6267 4.42741 19.1667 4.42741Z" fill="#00164C"/>
<path d="M19.1667 17.2048H0.833333C0.373332 17.2048 0 16.8314 0 16.3714C0 15.9114 0.373332 15.5381 0.833333 15.5381H19.1667C19.6267 15.5381 20 15.9114 20 16.3714C20 16.8314 19.6267 17.2048 19.1667 17.2048Z" fill="#00164C"/>
</svg>
