<svg width="140" height="140" viewBox="0 0 140 140" fill="none" xmlns="http://www.w3.org/2000/svg">
<circle cx="70" cy="70" r="70" fill="white"/>
<g clip-path="url(#clip0_720_1612)">
<path d="M47.2722 64.9023C44.3832 64.9023 42.0412 67.2444 42.0412 70.1333L40.1582 81.4559L42.0412 91.8484C42.0412 94.7374 44.3832 97.0793 47.2722 97.0793C50.1613 97.0793 52.5033 94.7372 52.5033 91.8484V70.1333C52.5033 67.2442 50.1613 64.9023 47.2722 64.9023Z" fill="#163788"/>
<path d="M49.6868 96.4887C48.9641 96.8669 48.1432 97.0794 47.2723 97.0794C44.383 97.0794 42.0426 94.7374 42.0426 91.848L38.9258 79.2916L42.0426 70.1337C42.0426 67.2444 44.383 64.9023 47.2723 64.9023C48.1432 64.9023 48.9641 65.1148 49.6868 65.4931C48.0128 66.3639 46.8715 68.1152 46.8715 70.1337V91.848C46.8715 93.8665 48.0128 95.6179 49.6868 96.4887Z" fill="#2C4A93"/>
<path d="M98.2303 107.111V107.111L98.2227 107.111L74.3204 107.842C72.9479 107.841 71.7795 106.786 71.7158 105.433L71.4661 105.444L71.7158 105.433C71.6472 103.978 72.8062 102.777 74.2455 102.777H95.1742C96.0083 102.777 96.9387 102.413 97.6594 101.855C98.3772 101.299 98.936 100.511 98.936 99.6347H98.9364L98.9357 99.6213L98.2068 86.0627C98.2102 84.6914 99.2647 83.5246 100.617 83.4609L100.605 83.2112L100.617 83.4609C102.071 83.3923 103.272 84.5513 103.272 85.9906V102.875C103.272 104.238 102.705 105.288 101.802 106.003C100.892 106.722 99.6274 107.111 98.2303 107.111Z" fill="white" stroke="#163788" stroke-width="0.5"/>
<path d="M106.361 71.3968L104.248 70.3611C103.944 70.2121 103.753 69.9008 103.756 69.5621C103.776 67.5296 103.745 65.8897 103.758 65.6057C103.758 60.497 102.62 55.6492 100.585 51.3023C95.2103 39.8232 81.0842 32.187 67.6111 32.1113C67.6111 32.1113 36.7472 47.2867 36.8505 65.8328V69.4845C36.8505 69.8734 36.6374 70.2304 36.2945 70.4143C35.6302 70.7705 35.1436 71.5334 34.9753 71.6398C33.7704 72.2306 33.0066 73.4555 33.0066 74.7973L32.5957 85.5119C32.5957 86.8538 33.3593 88.0786 34.5643 88.6694L42.0407 92.9469C42.0407 90.2212 42.0407 67.989 42.0407 65.8768C42.0407 50.3774 54.4998 37.6085 69.998 37.5607C85.4963 37.6085 97.9554 50.3776 97.9554 65.8768V92.9469L105.311 88.9628C106.516 88.3721 107.722 87.2909 107.722 85.9491L108.329 84.646V74.5543C108.33 73.2125 107.566 71.9875 106.361 71.3968Z" fill="#2C4A93"/>
<path d="M92.7252 64.9023C95.6142 64.9023 97.9563 67.2444 97.9563 70.1333L99.3478 81.6752L97.9563 91.8484C97.9563 94.7374 95.6142 97.0793 92.7252 97.0793C89.8362 97.0793 87.4941 94.7372 87.4941 91.8484V70.1333C87.4943 67.2442 89.8362 64.9023 92.7252 64.9023Z" fill="#2C4A93"/>
<path d="M93.8555 95.547C94.2306 95.9221 94.6636 96.2408 95.14 96.4887C94.4173 96.8669 93.5964 97.0794 92.7255 97.0794C91.2817 97.0794 89.973 96.4935 89.0265 95.547C88.0801 94.6005 87.4941 93.2919 87.4941 91.848V70.1337C87.4941 67.2444 89.8362 64.9023 92.7255 64.9023C93.5964 64.9023 94.4173 65.1148 95.14 65.4931C93.466 66.3639 92.3231 68.1152 92.3231 70.1337V91.848C92.3231 93.2919 92.909 94.6005 93.8555 95.547Z" fill="#163788"/>
<path d="M100.585 51.3023C95.2108 39.8239 83.5762 31.8367 70.1034 31.7611V31.7579C56.8446 31.6098 45.0925 39.642 39.5086 51.011C37.2808 55.5454 36.0334 60.611 36.0639 65.8987V69.5494C36.0639 69.939 35.8499 70.2963 35.507 70.4798C34.8438 70.8355 33.804 71.2911 33.6366 71.3973C32.4309 71.9881 31.668 73.213 31.668 74.5538V85.6685C31.668 87.011 32.4309 88.2359 33.6366 88.8267L42.0422 92.9474V89.6492L34.8406 86.3687C34.575 86.24 34.4044 85.9647 34.4044 85.6685V74.5538C34.444 73.6217 36.1132 73.4017 36.8012 72.8911C38.0342 72.2295 38.8004 70.9498 38.8004 69.5494V65.8987C38.7732 61.7943 39.5851 57.7501 41.1794 53.9422C41.3555 53.5214 41.9057 53.4139 42.2275 53.7371C42.8044 54.3167 43.4561 54.9218 44.1219 55.1864C48.2893 44.9152 58.274 37.5977 69.9987 37.5607C81.7734 37.5977 91.7935 44.9764 95.9271 55.3168C97.2358 58.5877 97.9553 62.153 97.9553 65.8778V92.9474L106.361 88.8267C107.567 88.2359 108.33 87.011 108.33 85.6685V84.6464L102.098 87.8379C101.455 88.167 100.692 87.7002 100.692 86.9783V65.8778C100.692 61.6595 99.8519 57.6341 98.331 53.9626C98.2271 53.712 98.2878 53.4235 98.4871 53.2396L100.585 51.3023Z" fill="#163788"/>
<path d="M44.9534 51.9015C45.7438 52.6918 47.0705 52.5564 47.6672 51.6113C49.014 49.4781 50.659 47.5511 52.5433 45.8894C57.1782 41.8018 63.2601 39.3189 69.9112 39.3189C76.2526 39.3189 82.0768 41.576 86.6225 45.3291C88.8273 47.1495 90.7313 49.3217 92.2478 51.759C92.8329 52.6995 94.1213 52.8879 94.9353 52.1367L99.2677 48.1389C99.9025 47.553 100.016 46.5919 99.5365 45.8735C97.0698 42.1824 93.9324 38.9759 90.2999 36.4299C84.5208 32.3792 77.4887 30 69.9112 30C61.2319 30 53.268 33.1214 47.0832 38.3008C44.598 40.3818 42.4002 42.795 40.5584 45.4715C40.0781 46.1695 40.1625 47.1108 40.7616 47.7098L44.9534 51.9015Z" fill="#FFAA00"/>
<path d="M95.734 51.3984L94.9357 52.1356C94.1212 52.8874 92.8318 52.699 92.2475 51.759C90.7312 49.322 88.827 47.1489 86.6218 45.3284C82.0761 41.5763 76.2524 39.3179 69.9103 39.3179C63.2592 39.3179 57.1779 41.8016 52.5437 45.8886C50.6588 47.5513 49.0137 49.4781 47.6665 51.6109C47.0709 52.5558 45.7429 52.691 44.9526 51.9006L43.998 50.9461C45.7445 48.6797 49.0057 44.7167 50.4141 43.4741C55.8065 38.7192 62.7312 36.0986 69.9103 36.0986C76.7401 36.0986 83.4025 38.4954 88.6725 42.8463C90.5429 44.3916 94.0117 48.9984 95.734 51.3984Z" fill="#DD9E20"/>
<path d="M77.3928 109.457L69.3925 109.484C68.5035 109.484 67.7829 108.764 67.7829 107.875L67.4746 102.772C67.4746 101.883 68.1953 101.162 69.0843 101.162L69.878 100.608H72.2699L73.6119 101.594L74.6844 100.608H78.0412C78.9302 100.608 79.6509 101.329 79.6509 102.218V107.263L79.0025 107.847C79.0025 108.736 78.2818 109.457 77.3928 109.457Z" fill="#FFAA00"/>
<path d="M79.6504 107.264V108.39C79.6504 109.279 78.9309 110 78.0408 110H68.9124C68.0239 110 67.3027 109.279 67.3027 108.39V102.219C67.3027 101.329 68.0239 100.609 68.9124 100.609H69.8782V105.654C69.8782 106.543 70.5993 107.264 71.4878 107.264H79.6504Z" fill="#DD9E20"/>
<path d="M72.2695 100.609H74.684V110H72.2695V100.609Z" fill="#DD9E20"/>
</g>
<defs>
<clipPath id="clip0_720_1612">
<rect width="80" height="80" fill="white" transform="translate(30 30)"/>
</clipPath>
</defs>
</svg>
