<svg width="34" height="34" viewBox="0 0 34 34" fill="none" xmlns="http://www.w3.org/2000/svg">
<path d="M17.0755 0C17.0664 0 17.0482 0 17.0208 0C7.8019 0 0.304688 7.49721 0.304688 16.7161C0.304688 20.4784 1.58914 24.1313 3.93942 27.0737L1.50716 32.7308C1.30675 33.1954 1.52538 33.7329 1.98086 33.9242C2.14483 33.997 2.32702 34.0153 2.50011 33.9879L11.4184 32.4211C13.2039 33.0679 15.0805 33.3958 16.9753 33.3867C26.1942 33.3867 33.6914 25.8895 33.6914 16.6706C33.7097 7.47899 26.2671 0.00910961 17.0755 0ZM11.3547 13.3547H16.2738C16.7749 13.3547 17.1848 13.7646 17.1848 14.2656C17.1848 14.7667 16.7749 15.1766 16.2738 15.1766H11.3547C10.8536 15.1766 10.4437 14.7667 10.4437 14.2656C10.4437 13.7646 10.8536 13.3547 11.3547 13.3547ZM22.6506 19.7314H11.3547C10.8536 19.7314 10.4437 19.3215 10.4437 18.8204C10.4437 18.3194 10.8536 17.9095 11.3547 17.9095H22.6506C23.1516 17.9095 23.5615 18.3194 23.5615 18.8204C23.5615 19.3215 23.1516 19.7314 22.6506 19.7314Z" fill="#183989"/>
</svg>
