<svg width="182" height="183" viewBox="0 0 182 183" fill="none" xmlns="http://www.w3.org/2000/svg">
<circle cx="91" cy="91.4297" r="91" fill="white"/>
<circle cx="91" cy="91.4297" r="77" fill="#8FD2FF"/>
<g clip-path="url(#clip0_54_1870)">
<path d="M33.0635 154.656L38.0155 168.318H47.6443L56.756 149.104L33.0635 154.656Z" fill="#E9E5EA"/>
<path d="M47.6445 168.43H38.0158C37.9929 168.43 37.9705 168.423 37.9518 168.41C37.933 168.396 37.9188 168.378 37.9109 168.356L32.9594 154.694C32.954 154.679 32.9518 154.664 32.9529 154.648C32.9541 154.632 32.9586 154.617 32.9661 154.603C32.9736 154.589 32.9839 154.577 32.9965 154.567C33.009 154.557 33.0234 154.551 33.0388 154.547L56.7311 148.995C56.7515 148.991 56.7728 148.992 56.7925 148.999C56.8123 149.006 56.8297 149.018 56.8428 149.034C56.8559 149.051 56.8642 149.07 56.8667 149.091C56.8692 149.112 56.8658 149.133 56.8569 149.152L47.7456 168.366C47.7366 168.385 47.7223 168.401 47.7044 168.412C47.6865 168.424 47.6657 168.43 47.6445 168.43V168.43ZM38.0938 168.206H47.5732L56.5558 149.265L33.2114 154.736L38.0938 168.206Z" fill="#00257D"/>
<path d="M131.129 153.274H137.421L143.601 135.625L133.692 115.234L116.777 120.118L131.129 153.274Z" fill="#E9E5EA"/>
<path d="M137.42 153.386H131.129C131.107 153.386 131.086 153.38 131.068 153.368C131.049 153.356 131.035 153.339 131.026 153.319L116.675 120.163C116.668 120.148 116.665 120.132 116.666 120.116C116.666 120.101 116.669 120.085 116.676 120.071C116.683 120.056 116.693 120.043 116.705 120.033C116.717 120.023 116.731 120.015 116.746 120.011L133.661 115.127C133.686 115.12 133.713 115.122 133.737 115.133C133.761 115.143 133.78 115.162 133.792 115.186L143.701 135.576C143.707 135.59 143.711 135.604 143.712 135.619C143.713 135.634 143.71 135.649 143.706 135.663L137.526 153.311C137.518 153.333 137.504 153.352 137.485 153.365C137.466 153.379 137.444 153.386 137.42 153.386V153.386ZM131.202 153.162H137.341L143.48 135.632L133.633 115.368L116.931 120.19L131.202 153.162Z" fill="#00257D"/>
<path d="M67.5327 73.7104L69.117 87.3759L61.8105 87.6233L81.8198 108.413L91.9368 82.5468L84.9531 85.3626L83.7237 73.1398L67.5327 73.7104Z" fill="#FFD6B5"/>
<path d="M38.0439 136.139L34.8642 159.624L28.1113 141.451L48.3275 88.08L64.2602 108.413L65.2978 134.254L38.0439 136.139Z" fill="white"/>
<path d="M34.8644 159.735C34.8416 159.735 34.8194 159.728 34.8007 159.715C34.782 159.702 34.7677 159.684 34.7598 159.662L28.0071 141.49C27.9976 141.465 27.9976 141.437 28.0071 141.411L48.2233 88.0405L48.4321 88.1199L28.2308 141.452L34.8135 159.167L37.9337 136.124L38.1545 136.155L34.9748 159.639C34.9715 159.664 34.96 159.687 34.9422 159.704C34.9244 159.722 34.9014 159.733 34.8766 159.735C34.8726 159.735 34.8685 159.735 34.8644 159.735V159.735Z" fill="#00257D"/>
<path d="M133.692 115.234L144.184 75.0038L158.77 67.8193L158.692 72.3232L151.288 77.2619L162.45 74.013L176.915 62.8041L181.888 81.2172L169.773 91.1712L155.958 95.9865L152.313 132.092L131.579 146.591L119.512 127.572L133.692 115.234Z" fill="#FFD6B5"/>
<path d="M131.579 146.703C131.572 146.703 131.564 146.702 131.557 146.701C131.542 146.698 131.528 146.692 131.516 146.683C131.503 146.675 131.493 146.664 131.484 146.651L119.418 127.632C119.403 127.609 119.398 127.582 119.402 127.555C119.405 127.529 119.419 127.505 119.439 127.487L133.592 115.173L144.075 74.9753C144.079 74.9597 144.087 74.9453 144.097 74.9328C144.107 74.9204 144.12 74.9103 144.134 74.9032L158.721 67.7187C158.738 67.7102 158.757 67.7063 158.776 67.7074C158.795 67.7084 158.814 67.7143 158.83 67.7246C158.846 67.7349 158.859 67.7492 158.869 67.7661C158.878 67.783 158.882 67.802 158.882 67.8212L158.803 72.325C158.802 72.3431 158.798 72.3608 158.789 72.3767C158.78 72.3926 158.768 72.4061 158.753 72.4161L151.955 76.951L162.398 73.9111L176.846 62.7156C176.861 62.7044 176.878 62.6969 176.896 62.6939C176.914 62.6908 176.932 62.6922 176.95 62.6979C176.967 62.7038 176.983 62.7138 176.995 62.7272C177.008 62.7406 177.017 62.7569 177.022 62.7746L181.996 81.188C182.001 81.2088 182.001 81.2308 181.994 81.2513C181.988 81.2718 181.975 81.29 181.959 81.3037L169.843 91.2585C169.833 91.267 169.822 91.2736 169.809 91.2778L156.062 96.0682L152.424 132.103C152.422 132.119 152.417 132.134 152.409 132.148C152.401 132.162 152.39 132.174 152.377 132.183L131.643 146.683C131.624 146.696 131.602 146.703 131.579 146.703V146.703ZM119.657 127.593L131.611 146.433L152.207 132.029L155.848 95.9749C155.85 95.9537 155.858 95.9336 155.872 95.917C155.885 95.9003 155.902 95.8877 155.922 95.8807L169.718 91.0711L181.763 81.1757L176.851 62.9941L162.517 74.1004C162.506 74.1088 162.493 74.1153 162.48 74.1194L151.32 77.3694C151.295 77.3776 151.267 77.376 151.242 77.3651C151.217 77.3541 151.197 77.3344 151.186 77.3097C151.174 77.2851 151.172 77.257 151.18 77.231C151.187 77.2049 151.204 77.1825 151.227 77.168L158.582 72.2615L158.657 67.9997L144.28 75.0809L133.799 115.262C133.794 115.284 133.782 115.303 133.765 115.318L119.657 127.593Z" fill="#00257D"/>
<path d="M166.463 76.0516L178.027 67.0878L178.164 67.2649L166.599 76.2286L166.463 76.0516Z" fill="#00257D"/>
<path d="M167.354 81.1467L179.3 71.8878L179.436 72.0648L167.491 81.3237L167.354 81.1467Z" fill="#00257D"/>
<path d="M168.338 86.1187L180.638 76.5851L180.774 76.7621L168.475 86.2957L168.338 86.1187Z" fill="#00257D"/>
<path d="M133.692 115.235L104.253 77.5808L99.8628 112.836L110.97 134.806L131.129 153.274L133.692 115.235Z" fill="white"/>
<path d="M106.903 82.2222C106.786 82.6014 106.503 83.7859 107.27 84.4268C107.482 84.6037 107.75 84.6983 108.025 84.6932C108.525 84.6545 109.004 84.4737 109.406 84.1718L106.053 79.8824C105.989 79.9841 105.939 80.0945 105.907 80.2102C105.616 81.226 106.575 81.9942 106.903 82.2222V82.2222Z" fill="#FFAA00"/>
<path d="M126.259 116.188C126.122 115.812 125.612 114.615 124.661 114.615C123.714 114.615 123.205 115.801 123.065 116.182C123.033 116.182 122.996 116.18 122.955 116.18C122.479 116.18 121.345 116.283 121.073 117.233C120.783 118.249 121.743 119.017 122.07 119.245C121.953 119.625 121.67 120.809 122.437 121.45C122.648 121.627 122.916 121.721 123.192 121.716C123.816 121.716 124.441 121.297 124.669 121.126C124.91 121.277 125.564 121.648 126.192 121.648C126.432 121.654 126.668 121.589 126.871 121.461C127.65 120.954 127.355 119.631 127.247 119.241C127.553 119.003 128.505 118.172 128.249 117.235C127.994 116.298 126.722 116.195 126.259 116.188V116.188ZM125.314 118.529C125.314 118.529 126.144 119.323 125.666 119.71C125.188 120.097 124.656 119.005 124.656 119.005C124.656 119.005 124.079 120.085 123.645 119.71C123.211 119.335 123.987 118.49 123.987 118.49C123.987 118.49 122.805 118.356 123.021 117.782C123.236 117.207 124.262 117.737 124.262 117.737C124.262 117.737 124.051 116.591 124.656 116.591C125.261 116.591 125.063 117.747 125.063 117.747C125.063 117.747 126.067 117.21 126.29 117.783C126.513 118.355 125.314 118.529 125.314 118.529V118.529Z" fill="#FFAA00"/>
<path d="M124.656 104.196C124.656 104.196 124.079 105.276 123.645 104.901C123.211 104.525 123.987 103.681 123.987 103.681C123.987 103.681 122.805 103.547 123.021 102.972C123.162 102.593 123.655 102.694 123.976 102.807L122.854 101.373C122.336 101.388 121.327 101.535 121.073 102.424C120.783 103.44 121.743 104.208 122.07 104.436C121.953 104.815 121.67 106 122.437 106.641C122.648 106.818 122.916 106.912 123.192 106.907C123.816 106.907 124.441 106.488 124.669 106.316C124.91 106.468 125.564 106.839 126.192 106.839C126.432 106.845 126.668 106.78 126.871 106.652C126.896 106.636 126.917 106.616 126.94 106.598L125.63 104.923C125.161 105.229 124.656 104.196 124.656 104.196V104.196Z" fill="#FFAA00"/>
<path d="M106.903 111.841C106.786 112.22 106.503 113.405 107.27 114.046C107.482 114.223 107.75 114.317 108.025 114.312C108.65 114.312 109.274 113.893 109.502 113.721C109.744 113.873 110.397 114.244 111.026 114.244C111.265 114.249 111.501 114.184 111.704 114.057C112.483 113.55 112.188 112.227 112.08 111.837C112.386 111.598 113.338 110.768 113.082 109.831C112.827 108.894 111.555 108.79 111.092 108.784C110.956 108.408 110.445 107.211 109.494 107.211C108.548 107.211 108.038 108.396 107.898 108.778C107.866 108.778 107.829 108.776 107.788 108.776C107.313 108.776 106.178 108.879 105.907 109.829C105.616 110.845 106.575 111.613 106.903 111.841V111.841ZM107.854 110.377C108.068 109.802 109.095 110.333 109.095 110.333C109.095 110.333 108.884 109.187 109.489 109.187C110.094 109.187 109.896 110.342 109.896 110.342C109.896 110.342 110.9 109.805 111.123 110.378C111.346 110.951 110.146 111.126 110.146 111.126C110.146 111.126 110.977 111.919 110.499 112.306C110.021 112.693 109.489 111.601 109.489 111.601C109.489 111.601 108.912 112.681 108.478 112.306C108.043 111.931 108.82 111.087 108.82 111.087C108.82 111.087 107.639 110.953 107.854 110.377V110.377Z" fill="#FFAA00"/>
<path d="M113.082 95.0214C112.827 94.0865 111.555 93.9812 111.092 93.9747C110.955 93.5989 110.445 92.4014 109.494 92.4014C108.547 92.4014 108.038 93.587 107.898 93.9686C107.866 93.9686 107.829 93.9668 107.788 93.9668C107.312 93.9668 106.178 94.0693 105.906 95.0198C105.616 96.0357 106.576 96.8039 106.903 97.0318C106.786 97.4121 106.503 98.5953 107.27 99.2364C107.481 99.4133 107.749 99.5079 108.025 99.5029C108.649 99.5029 109.274 99.0836 109.502 98.9121C109.743 99.064 110.397 99.4349 111.025 99.4349C111.265 99.4403 111.501 99.3751 111.704 99.2474C112.483 98.7409 112.188 97.4177 112.08 97.0276C112.386 96.7891 113.338 95.9585 113.082 95.0214V95.0214ZM110.147 96.316C110.147 96.316 110.977 97.1092 110.499 97.4962C110.021 97.8832 109.489 96.7911 109.489 96.7911C109.489 96.7911 108.912 97.8714 108.478 97.4962C108.044 97.1211 108.82 96.2768 108.82 96.2768C108.82 96.2768 107.638 96.1426 107.854 95.5681C108.069 94.9937 109.095 95.5234 109.095 95.5234C109.095 95.5234 108.884 94.3776 109.489 94.3776C110.094 94.3776 109.896 95.533 109.896 95.533C109.896 95.533 110.9 94.9961 111.123 95.569C111.346 96.1419 110.147 96.316 110.147 96.316V96.316Z" fill="#FFAA00"/>
<path d="M127.247 148.861C127.553 148.622 128.505 147.791 128.249 146.854C127.994 145.917 126.722 145.814 126.259 145.807C126.122 145.432 125.612 144.234 124.661 144.234C123.715 144.234 123.205 145.42 123.065 145.8C123.038 145.8 123.005 145.799 122.97 145.799L124.227 146.95C124.224 146.62 124.294 146.208 124.656 146.208C125.261 146.208 125.063 147.364 125.063 147.364C125.063 147.364 126.067 146.827 126.29 147.4C126.458 147.831 125.822 148.037 125.495 148.112L127.391 149.848C127.384 149.514 127.336 149.183 127.247 148.861V148.861Z" fill="#FFAA00"/>
<path d="M128.249 132.045C127.994 131.11 126.722 131.005 126.259 130.998C126.122 130.623 125.612 129.425 124.661 129.425C123.714 129.425 123.205 130.611 123.065 130.992C123.033 130.991 122.996 130.99 122.955 130.99C122.479 130.99 121.345 131.093 121.073 132.043C120.783 133.059 121.743 133.828 122.07 134.055C121.953 134.435 121.67 135.619 122.437 136.26C122.648 136.437 122.916 136.531 123.192 136.526C123.816 136.526 124.441 136.107 124.669 135.936C124.91 136.087 125.564 136.458 126.192 136.458C126.432 136.464 126.668 136.399 126.871 136.271C127.65 135.765 127.355 134.441 127.247 134.051C127.553 133.813 128.505 132.982 128.249 132.045V132.045ZM125.314 133.34C125.314 133.34 126.144 134.133 125.666 134.52C125.188 134.906 124.656 133.815 124.656 133.815C124.656 133.815 124.079 134.895 123.645 134.52C123.211 134.145 123.987 133.3 123.987 133.3C123.987 133.3 122.805 133.166 123.021 132.592C123.236 132.017 124.262 132.547 124.262 132.547C124.262 132.547 124.051 131.401 124.656 131.401C125.261 131.401 125.063 132.556 125.063 132.556C125.063 132.556 126.067 132.02 126.29 132.593C126.513 133.166 125.314 133.34 125.314 133.34V133.34Z" fill="#FFAA00"/>
<path d="M131.129 153.386C131.101 153.386 131.075 153.375 131.054 153.356L110.895 134.889C110.885 134.88 110.876 134.869 110.87 134.857L99.7627 112.886L99.9619 112.785L111.06 134.737L131.033 153.035L133.578 115.269L104.166 77.6496L104.341 77.5116L133.779 115.165C133.797 115.187 133.805 115.214 133.803 115.242L131.24 153.281C131.239 153.302 131.232 153.323 131.219 153.34C131.207 153.357 131.19 153.37 131.171 153.378C131.157 153.383 131.143 153.386 131.129 153.386V153.386Z" fill="#00257D"/>
<path d="M104.253 77.5808L106.201 112.436L110.353 128.152L65.7536 138.595L59.2162 106.953L48.3276 88.0802L63.3572 87.5712L80.6453 102.127L91.9368 82.5471L104.253 77.5808Z" fill="white"/>
<path d="M65.7236 138.464L110.333 128.063L110.383 128.281L65.7742 138.682L65.7236 138.464Z" fill="#00257D"/>
<path d="M64.8948 31.7702C71.8409 31.7702 77.4718 26.1226 77.4718 19.1559C77.4718 12.1892 71.8409 6.54163 64.8948 6.54163C57.9488 6.54163 52.3179 12.1892 52.3179 19.1559C52.3179 26.1226 57.9488 31.7702 64.8948 31.7702Z" fill="#00257D"/>
<path d="M68.9614 31.208C68.9461 31.208 68.9309 31.2048 68.9168 31.1986C66.1788 29.8795 63.6619 28.1415 61.4562 26.0469C58.1753 22.8992 54.5087 17.6376 55.6712 10.4451L55.8911 10.4811C54.7444 17.5772 58.3682 22.7748 61.6101 25.8852C63.6864 27.8495 66.0353 29.5021 68.5836 30.7915C61.1591 20.978 65.5825 6.68168 65.6271 6.5365L65.8397 6.60361C65.7933 6.74947 61.2939 21.301 69.0475 31.0253C69.0607 31.0417 69.0689 31.0615 69.0713 31.0825C69.0737 31.1034 69.0702 31.1246 69.0611 31.1437C69.052 31.1627 69.0377 31.1787 69.0199 31.1899C69.0021 31.2012 68.9816 31.2071 68.9605 31.2071L68.9614 31.208Z" fill="white"/>
<path d="M68.8632 31.149C63.5581 21.1046 68.6348 7.23873 68.6868 7.10071L68.8955 7.17945C68.844 7.31725 63.8028 21.0908 69.0602 31.0454L68.8632 31.149Z" fill="white"/>
<path d="M64.8947 31.882C62.385 31.8822 59.9317 31.136 57.8449 29.7377C55.7582 28.3394 54.1317 26.3518 53.1712 24.0264C52.2107 21.701 51.9593 19.1421 52.4488 16.6734C52.9383 14.2046 54.1467 11.9369 55.9213 10.157C57.6958 8.37713 59.9567 7.16499 62.4182 6.6739C64.8796 6.1828 67.4309 6.43481 69.7495 7.39804C72.0681 8.36128 74.0498 9.99248 75.4441 12.0854C76.8384 14.1783 77.5825 16.6388 77.5825 19.1559C77.5787 22.5298 76.2407 25.7644 73.8621 28.1501C71.4836 30.5359 68.2586 31.878 64.8947 31.882V31.882ZM64.8947 6.65326C62.4292 6.65308 60.019 7.3862 57.9689 8.7599C55.9188 10.1336 54.3209 12.0862 53.3773 14.3707C52.4336 16.6553 52.1867 19.1692 52.6675 21.5945C53.1484 24.0198 54.3356 26.2477 56.0789 27.9963C57.8222 29.7449 60.0434 30.9358 62.4615 31.4182C64.8797 31.9007 67.3861 31.6532 69.664 30.7069C71.9418 29.7607 73.8888 28.1582 75.2586 26.1021C76.6283 24.046 77.3595 21.6287 77.3595 19.1559C77.3558 15.8413 76.0414 12.6634 73.7046 10.3196C71.3678 7.97569 68.1995 6.65716 64.8947 6.65326V6.65326Z" fill="#00257D"/>
<path d="M110.472 43.8711C117.418 43.8711 123.049 38.2235 123.049 31.2569C123.049 24.2902 117.418 18.6426 110.472 18.6426C103.526 18.6426 97.895 24.2902 97.895 31.2569C97.895 38.2235 103.526 43.8711 110.472 43.8711Z" fill="#00257D"/>
<path d="M102.961 39.8036C101.782 39.8036 101.057 39.7318 101.04 39.7302C101.015 39.7277 100.992 39.7169 100.974 39.6995C100.956 39.6822 100.944 39.6593 100.941 39.6345C100.938 39.6097 100.942 39.5844 100.955 39.5627C100.968 39.5411 100.987 39.5243 101.01 39.515C112.546 34.9047 115.805 20.0265 115.836 19.8768L116.055 19.9231C116.023 20.0721 112.821 34.6921 101.53 39.5421C104.383 39.6848 107.242 39.4122 110.017 38.7329C114.366 37.6368 120.074 34.9147 122.574 28.1801L122.783 28.2582C120.248 35.0863 114.468 37.8419 110.064 38.9513C107.739 39.5208 105.354 39.807 102.961 39.8036V39.8036Z" fill="white"/>
<path d="M101.111 39.7133L100.992 39.5247C110.468 33.4784 112.875 19.006 112.898 18.8606L113.119 18.8959C113.095 19.0422 110.674 33.6126 101.111 39.7133Z" fill="white"/>
<path d="M110.45 43.9809C108.232 43.9776 106.053 43.3908 104.132 42.2793C102.21 41.1677 100.612 39.5702 99.4986 37.6461C98.3846 35.722 97.7932 33.5385 97.7833 31.3136C97.7734 29.0886 98.3454 26.9 99.4422 24.966L99.5392 25.0213L99.4422 24.966C100.545 23.0199 102.14 21.4001 104.067 20.2699C105.993 19.1397 108.183 18.5391 110.415 18.5288C112.647 18.5185 114.842 19.0989 116.778 20.2113C118.715 21.3236 120.325 22.9287 121.446 24.8646C122.567 26.8004 123.158 28.9984 123.162 31.2369C123.165 33.4754 122.579 35.6751 121.464 37.6141C120.349 39.5531 118.743 41.1627 116.809 42.2806C114.876 43.3984 112.682 43.9849 110.45 43.9809V43.9809ZM110.493 18.756C108.288 18.7529 106.121 19.3361 104.214 20.4462C102.307 21.5563 100.727 23.1536 99.636 25.0754C98.2795 27.4648 97.7458 30.2359 98.1174 32.9601C98.489 35.6843 99.7452 38.2098 101.692 40.146C103.638 42.0822 106.166 43.3212 108.886 43.6714C111.605 44.0216 114.363 43.4635 116.734 42.0833C119.105 40.7032 120.957 38.5779 122.003 36.0363C123.048 33.4946 123.23 30.6782 122.519 28.0225C121.809 25.3669 120.246 23.0201 118.072 21.345C115.898 19.67 113.234 18.7601 110.493 18.756V18.756Z" fill="#00257D"/>
<path d="M97.1287 23.9337L106.474 22.5641L112.525 37.5C108.611 60.56 101.462 70.1124 90.3703 73.9015C74.0511 77.0068 61.1739 66.1569 61.1739 66.1569C53.7872 57.4662 51.7225 45.193 59.9193 23.546L89.5872 11.2104L97.1287 23.9337Z" fill="#00257D"/>
<path d="M83.9535 74.6642C77.9824 74.6642 72.8743 72.9839 69.3136 71.3475C64.2439 69.017 61.1304 66.2679 61.0996 66.2403C57.3683 62.1224 55.2748 57.242 54.6902 51.3116C53.9542 43.8399 55.6779 34.4834 59.8144 23.5062C59.8198 23.4919 59.8281 23.4789 59.8387 23.4679C59.8492 23.457 59.8619 23.4483 59.876 23.4425L89.545 11.1069C89.5698 11.0966 89.5974 11.0956 89.6228 11.1041C89.6482 11.1125 89.6698 11.1299 89.6835 11.153L97.1869 23.8113L106.459 22.4526C106.483 22.449 106.508 22.4538 106.53 22.4662C106.552 22.4787 106.569 22.4981 106.578 22.5212L112.629 37.4573C112.637 37.4767 112.639 37.4978 112.636 37.5184C108.822 59.8569 102.424 70.1169 89.8196 74.1121C87.8858 74.4801 85.9218 74.665 83.9535 74.6642V74.6642ZM60.0069 23.6306C52.5555 43.4262 52.9534 56.915 61.256 66.0815C61.2783 66.1003 64.3719 68.8311 69.4133 71.1471C74.0622 73.2832 81.3671 75.4934 89.7651 73.8957C102.258 69.9362 108.612 59.7316 112.41 37.5124L106.404 22.6874L97.1452 24.0442C97.1234 24.0473 97.1012 24.0439 97.0814 24.0344C97.0615 24.0249 97.0449 24.0097 97.0337 23.9908L89.541 11.351L60.0069 23.6306Z" fill="#00257D"/>
<path d="M100.318 56.3246C104.452 40.6486 99.0438 25.6173 88.239 22.7513C77.4342 19.8852 65.3242 30.2697 61.1906 45.9456C57.057 61.6216 62.4651 76.6529 73.2699 79.5189C84.0747 82.385 96.1847 72.0005 100.318 56.3246Z" fill="#FFD6B5"/>
<path d="M76.954 80.1091C75.7009 80.1102 74.4531 79.948 73.2417 79.6266C62.3946 76.7495 56.9403 61.6271 61.0831 45.9167C65.2259 30.2064 77.4222 19.7656 88.2676 22.6429C93.5299 24.0386 97.6912 28.3192 99.9857 34.6959C102.275 41.0583 102.431 48.7495 100.426 56.3528L100.318 56.3242L100.426 56.3528C98.4215 63.9563 94.4932 70.5643 89.3686 74.9597C85.4192 78.3463 81.1211 80.1091 76.954 80.1091V80.1091ZM84.5863 22.389C74.8897 22.389 64.9509 32.1202 61.2977 45.974C57.1866 61.5651 62.569 76.5648 73.2974 79.4105C78.4856 80.7872 84.1418 79.1456 89.2227 74.7894C94.3143 70.4234 98.2163 63.8554 100.21 56.2955C102.203 48.7356 102.051 41.0919 99.7756 34.772C97.5068 28.4662 93.3996 24.2355 88.2105 22.8592C87.0278 22.5459 85.8096 22.3878 84.5863 22.389V22.389Z" fill="#00257D"/>
<path d="M59.8469 55.3574C54.5552 55.3377 54.0448 49.4789 54.5567 46.6479C55.2638 42.738 59.9664 41.3338 61.4305 45.1531L64.2604 45.6783L62.3757 56.0726L59.8469 55.3574Z" fill="#FFD6B5"/>
<path d="M59.9397 55.6756L59.7166 55.6619L59.7282 55.4678C58.0985 55.4351 56.799 54.8474 55.864 53.7204C54.1145 51.6109 54.1502 48.2696 54.447 46.6289C54.8226 44.5507 56.3652 42.9785 58.1971 42.8056C59.5781 42.6761 60.7542 43.4148 61.4004 44.7966L61.4089 44.7617L61.6257 44.8131L61.5391 45.1789C61.5337 45.2022 61.5209 45.2231 61.5027 45.2386C61.4845 45.2541 61.4618 45.2634 61.438 45.265C61.4142 45.2666 61.3905 45.2605 61.3704 45.2475C61.3503 45.2346 61.3349 45.2156 61.3264 45.1932C60.7569 43.7074 59.5958 42.898 58.218 43.0275C56.8001 43.1617 55.0843 44.3574 54.6665 46.6676C54.3765 48.2714 54.3386 51.5312 56.0355 53.5772C56.9485 54.6781 58.231 55.2396 59.8474 55.2454C59.8626 55.2454 59.8776 55.2485 59.8916 55.2545C59.9056 55.2605 59.9182 55.2694 59.9287 55.2805C59.9391 55.2916 59.9472 55.3047 59.9524 55.3191C59.9576 55.3334 59.9598 55.3487 59.9589 55.364L59.9397 55.6756Z" fill="#00257D"/>
<path d="M96.857 65.1745C101.466 67.7812 104.797 62.9417 105.748 60.2269C107.061 56.4776 103.665 52.9251 100.51 55.5192L97.7905 54.5723L94.3052 64.5421L96.857 65.1745Z" fill="#FFD6B5"/>
<path d="M99.4716 66.0343C98.5707 66.0195 97.688 65.777 96.9053 65.3292L96.8199 65.5039L96.6191 65.4052L96.7561 65.1252C96.7628 65.1115 96.7722 65.0994 96.7837 65.0895C96.7953 65.0796 96.8087 65.0722 96.8232 65.0677C96.8376 65.0632 96.8529 65.0617 96.868 65.0633C96.8831 65.0649 96.8977 65.0696 96.9109 65.0771C98.3185 65.8732 99.7096 66.0213 101.047 65.5171C103.53 64.58 105.104 61.7277 105.643 60.19C106.418 57.9753 105.516 56.0839 104.349 55.2647C103.216 54.4685 101.806 54.5965 100.579 55.6058C100.562 55.6209 100.539 55.6298 100.516 55.6313C100.493 55.6328 100.47 55.6269 100.45 55.6143C100.43 55.6021 100.415 55.5839 100.406 55.5624C100.397 55.5409 100.395 55.5171 100.4 55.4944L100.486 55.1128L100.704 55.1627L100.686 55.2419C101.935 54.3432 103.333 54.2781 104.478 55.0815C105.985 56.14 106.551 58.2713 105.853 60.2643C105.302 61.8385 103.686 64.7607 101.124 65.7265C100.597 65.9286 100.037 66.0329 99.4716 66.0343V66.0343Z" fill="#00257D"/>
<path d="M73.8536 54.8181C73.1816 48.2967 69.1108 45.512 63.3574 44.6357C63.6017 50.2123 67.3865 53.4146 73.8536 54.8181Z" fill="white"/>
<path d="M69.2328 52.6987C69.8907 53.0637 70.6583 53.1774 71.3934 53.0186C72.1284 52.8598 72.7813 52.4393 73.2311 51.835C72.6212 49.8947 71.4048 48.2028 69.7618 47.0096C69.1874 47.1997 68.6808 47.5536 68.304 48.0281C67.9272 48.5026 67.6965 49.077 67.6404 49.681C67.5842 50.285 67.705 50.8924 67.9878 51.4286C68.2707 51.9648 68.7033 52.4065 69.2328 52.6998V52.6987Z" fill="#00257D"/>
<path d="M73.8533 54.9302C73.8458 54.9301 73.8383 54.9292 73.831 54.9275C67.0422 53.4544 63.4818 49.9937 63.2467 44.6409C63.246 44.6244 63.2489 44.6079 63.2553 44.5927C63.2617 44.5774 63.2714 44.5638 63.2836 44.5528C63.2959 44.5417 63.3104 44.5336 63.3262 44.5288C63.342 44.5241 63.3587 44.523 63.3749 44.5255C69.8905 45.5171 73.3548 48.8801 73.9655 54.8067C73.9671 54.8223 73.9654 54.8381 73.9606 54.8531C73.9557 54.868 73.9477 54.8818 73.9372 54.8934C73.9267 54.9051 73.9138 54.9144 73.8995 54.9207C73.8852 54.927 73.8696 54.9303 73.854 54.9302H73.8533ZM63.4751 44.7675C63.7581 49.9601 67.1129 53.2032 73.7259 54.6758C73.0878 49.0009 69.733 45.7583 63.4751 44.7675Z" fill="#00257D"/>
<path d="M84.9531 57.3763C88.5116 51.8765 93.4002 51.2553 98.9203 53.1022C96.1718 57.9561 91.3484 59.0794 84.9531 57.3763V57.3763Z" fill="white"/>
<path d="M90.5099 52.6954C90.1886 53.1856 90.0114 53.7566 89.9988 54.3431C89.9861 54.9296 90.1385 55.5078 90.4383 56.0115C90.7382 56.5151 91.1736 56.9238 91.6944 57.1908C92.2152 57.4577 92.8005 57.5721 93.3831 57.5208C93.9658 57.4694 94.5222 57.2545 94.9887 56.9006C95.4552 56.5467 95.8128 56.0682 96.0206 55.5198C96.2284 54.9714 96.2779 54.3754 96.1635 53.8001C96.0491 53.2248 95.7755 52.6935 95.3738 52.267C93.7412 52.0338 92.077 52.1804 90.5099 52.6954V52.6954Z" fill="#00257D"/>
<path d="M90.0307 58.224C88.304 58.1993 86.5878 57.9507 84.9247 57.4844C84.9077 57.4799 84.892 57.4714 84.8788 57.4595C84.8657 57.4477 84.8556 57.433 84.8492 57.4165C84.8429 57.4 84.8406 57.3822 84.8424 57.3646C84.8443 57.347 84.8502 57.3301 84.8598 57.3153C88.094 52.3168 92.7047 50.9037 98.9562 52.9958C98.9719 53.0012 98.9862 53.01 98.9981 53.0216C99.01 53.0332 99.0192 53.0473 99.0251 53.0629C99.031 53.0783 99.0334 53.0949 99.0322 53.1113C99.031 53.1278 99.0261 53.1438 99.018 53.1582C97.1076 56.5299 94.0949 58.224 90.0307 58.224V58.224ZM85.1315 57.3068C91.689 59.0145 96.1474 57.6584 98.7557 53.1642C92.7342 51.1903 88.2753 52.5459 85.1315 57.3077V57.3068Z" fill="#00257D"/>
<path d="M74.7642 59.5596L74.9488 59.4345L76.3846 61.568L76.1999 61.693L74.7642 59.5596Z" fill="#00257D"/>
<path d="M79.4224 62.422L81.7717 61.2872L81.8684 61.4886L79.519 62.6234L79.4224 62.422Z" fill="#00257D"/>
<path d="M72.8062 67.2731L74.9692 65.5833L76.4781 67.2915L78.7192 66.5778L79.7903 69.0856L75.3881 71.4255L72.8062 67.2731Z" fill="#CC1D37"/>
<path d="M80.0644 69.1947C76.1141 69.1947 72.6125 67.8164 69.4375 65.0277L69.5843 64.8595C73.7137 68.4862 78.2013 69.6763 83.7029 68.6034L83.7455 68.8231C82.5332 69.065 81.3005 69.1895 80.0644 69.1947V69.1947Z" fill="#00257D"/>
<path d="M75.388 71.5371C75.3691 71.5371 75.3506 71.5322 75.3341 71.523C75.3176 71.5138 75.3037 71.5006 75.2937 71.4845L72.7117 67.3319C72.6971 67.3084 72.6917 67.2804 72.6965 67.2532C72.7014 67.2259 72.7161 67.2015 72.7378 67.1845L74.9013 65.4946C74.9237 65.4772 74.9518 65.4689 74.9801 65.4715C75.0083 65.4742 75.0344 65.4875 75.0532 65.5087L76.5139 67.1626L78.6861 66.4711C78.7125 66.4627 78.7411 66.4644 78.7663 66.4759C78.7915 66.4875 78.8115 66.508 78.8224 66.5335L79.893 69.0412C79.9041 69.0671 79.905 69.0961 79.8957 69.1226C79.8863 69.1491 79.8674 69.1711 79.8426 69.1842L75.4415 71.5241C75.4251 71.5329 75.4067 71.5373 75.388 71.5371V71.5371ZM72.9542 67.2997L75.4277 71.2783L79.6475 69.0354L78.6567 66.7158L76.5119 67.3983C76.4914 67.4049 76.4694 67.4053 76.4486 67.3996C76.4278 67.3939 76.4092 67.3823 76.3948 67.3661L74.9553 65.7364L72.9542 67.2997Z" fill="#00257D"/>
<path d="M90.2127 42.0688L87.7354 45.496L97.9289 51.4361L98.7546 49.0086L90.2127 42.0688Z" fill="#00257D"/>
<path d="M97.929 51.5475C97.9093 51.5475 97.89 51.5422 97.873 51.5323L87.6799 45.5925C87.6663 45.5847 87.6546 45.5741 87.6454 45.5614C87.6362 45.5487 87.6297 45.5342 87.6265 45.5189C87.6232 45.5036 87.6232 45.4877 87.6264 45.4724C87.6297 45.457 87.6361 45.4425 87.6453 45.4298L90.1226 42.0029C90.1315 41.9906 90.1428 41.9802 90.1559 41.9724C90.1689 41.9647 90.1833 41.9596 90.1984 41.9576C90.2134 41.9556 90.2287 41.9567 90.2433 41.9609C90.2579 41.965 90.2715 41.9721 90.2832 41.9817L98.8258 48.9214C98.8436 48.9358 98.8565 48.9553 98.8629 48.9772C98.8693 48.9992 98.8688 49.0226 98.8615 49.0442L98.0358 51.4717C98.0304 51.4874 98.0216 51.5017 98.01 51.5136C97.9984 51.5255 97.9844 51.5347 97.9689 51.5406C97.9561 51.5452 97.9426 51.5475 97.929 51.5475V51.5475ZM87.898 45.4612L97.8681 51.2703L98.6246 49.046L90.2344 42.2298L87.898 45.4612Z" fill="#00257D"/>
<path d="M100.51 55.6308C100.501 55.6308 100.491 55.6296 100.482 55.6272C100.456 55.6205 100.433 55.6043 100.418 55.5817C100.402 55.5591 100.396 55.5316 100.399 55.5044C101.848 44.4107 93.6424 37.3537 93.5594 37.2837C93.5432 37.27 93.5311 37.252 93.5247 37.2318C93.5183 37.2115 93.5178 37.1899 93.5232 37.1693L96.7438 24.9551C96.7489 24.9357 96.7591 24.9181 96.7733 24.904C96.7875 24.89 96.8052 24.88 96.8246 24.8752C96.844 24.8703 96.8643 24.8708 96.8834 24.8765C96.9025 24.8822 96.9198 24.8929 96.9334 24.9076L107.825 36.6866C107.839 36.702 107.848 36.721 107.852 36.7417C107.856 36.7623 107.854 36.7836 107.847 36.8031L100.614 55.5588C100.606 55.5799 100.592 55.5981 100.573 55.611C100.554 55.6239 100.532 55.6308 100.51 55.6308V55.6308ZM93.7566 37.1593C94.4551 37.7794 101.624 44.4225 100.714 54.6792L107.614 36.7879L96.9077 25.209L93.7566 37.1593Z" fill="#00257D"/>
<path d="M85.8563 15.5464L72.4487 23.3394C63.8212 28.2229 58.9521 41.074 58.9521 41.074L62.5113 41.6313C64.8742 39.86 66.1179 39.0213 68.3737 37.023C67.232 39.7298 66.83 40.7277 65.9294 42.1682L72.0339 43.1238C74.3844 41.2084 76.6347 39.1724 78.7758 37.0241C77.6128 39.5381 76.4758 41.7834 75.3746 43.6448L77.5604 43.9871C82.5974 41.4592 85.2795 37.2829 89.3228 32.8142L93.6309 37.1988L97.0098 24.3832L85.8563 15.5464Z" fill="#00257D"/>
<path d="M77.5602 44.0992C77.5544 44.0992 77.5486 44.0987 77.5428 44.0978L75.357 43.7556C75.339 43.7527 75.322 43.7455 75.3074 43.7346C75.2928 43.7236 75.2811 43.7093 75.2733 43.6927C75.2656 43.6762 75.262 43.658 75.2628 43.6398C75.2637 43.6215 75.269 43.6037 75.2783 43.588C76.2505 41.9438 77.2783 39.96 78.4125 37.537C76.168 39.7423 74.0997 41.6015 72.103 43.2091C72.0909 43.2188 72.0769 43.2259 72.0619 43.2299C72.0469 43.2339 72.0312 43.2348 72.0158 43.2325L65.9114 42.2769C65.8931 42.274 65.8759 42.2667 65.8612 42.2555C65.8465 42.2443 65.8348 42.2297 65.8271 42.2129C65.8195 42.196 65.8161 42.1776 65.8173 42.1591C65.8185 42.1406 65.8242 42.1228 65.834 42.1071C66.6762 40.7613 67.0852 39.7906 68.0731 37.446L68.0809 37.4281C66.4797 38.826 65.3749 39.6443 63.8859 40.7472C63.4833 41.0456 63.0531 41.3642 62.5773 41.721C62.5654 41.7299 62.5518 41.7364 62.5374 41.74C62.5229 41.7436 62.5079 41.7443 62.4932 41.742L58.9343 41.185C58.9179 41.1824 58.9023 41.1762 58.8885 41.1668C58.8748 41.1574 58.8633 41.1451 58.855 41.1307C58.8466 41.1163 58.8416 41.1002 58.8402 41.0836C58.8389 41.0669 58.8412 41.0502 58.8471 41.0346C58.8962 40.9058 63.8297 28.0893 72.3932 23.2423L85.8004 15.4497C85.8203 15.4381 85.8434 15.4329 85.8664 15.435C85.8895 15.4371 85.9113 15.4463 85.9288 15.4614L96.9249 24.8997C96.9408 24.9134 96.9526 24.9313 96.9588 24.9514C96.965 24.9715 96.9655 24.993 96.9601 25.0133L93.7396 37.2276C93.7346 37.2467 93.7246 37.2642 93.7107 37.2781C93.6968 37.2921 93.6794 37.3021 93.6604 37.3072C93.6413 37.3123 93.6213 37.3122 93.6023 37.307C93.5833 37.3018 93.566 37.2916 93.5522 37.2775L89.3271 32.9777C88.4332 33.9691 87.6041 34.9463 86.8016 35.8935C83.9649 39.2394 81.5155 42.129 77.6109 44.0878C77.5951 44.0955 77.5778 44.0994 77.5602 44.0992V44.0992ZM75.5529 43.56L77.5408 43.8712C81.3863 41.9333 83.8166 39.0665 86.6299 35.7483C87.4571 34.7725 88.3123 33.7636 89.2395 32.7394C89.2496 32.7281 89.2619 32.719 89.2757 32.7127C89.2895 32.7064 89.3044 32.703 89.3195 32.7027C89.3348 32.7014 89.3502 32.7038 89.3644 32.7096C89.3787 32.7154 89.3913 32.7245 89.4014 32.7361L93.5748 36.9804L96.7272 25.0239L85.845 15.6831L72.5047 23.4364C64.4712 27.9837 59.6472 39.6282 59.1068 40.9854L62.4825 41.5136C62.9438 41.168 63.3624 40.8579 63.7539 40.5675C65.3292 39.4353 66.8464 38.224 68.2997 36.9382C68.3186 36.9213 68.3427 36.9115 68.368 36.9102C68.3932 36.9089 68.4182 36.9163 68.4387 36.9311C68.4592 36.9459 68.4742 36.9672 68.481 36.9916C68.4878 37.0161 68.4862 37.0421 68.4764 37.0654L68.2792 37.533C67.3217 39.8058 66.9052 40.7937 66.113 42.0818L72.0025 43.0037C74.3366 41.1003 76.5713 39.0775 78.6978 36.9433C78.7163 36.9248 78.7408 36.9134 78.7669 36.9112C78.7929 36.909 78.8189 36.916 78.8404 36.9311C78.8618 36.9461 78.8773 36.9683 78.884 36.9936C78.8908 37.019 78.8885 37.0459 78.8775 37.0697C77.6682 39.685 76.5802 41.8104 75.5544 43.56H75.5529Z" fill="#00257D"/>
<path d="M62.4937 41.7418L58.9348 41.1847C58.9183 41.1822 58.9026 41.176 58.8889 41.1665C58.8751 41.1571 58.8637 41.1447 58.8553 41.1302C58.847 41.1158 58.842 41.0996 58.8407 41.0829C58.8394 41.0663 58.8418 41.0496 58.8478 41.034C62.2381 32.1992 68.0488 26.5826 68.1072 26.5276L68.2609 26.6898C68.2031 26.7448 62.4841 32.2741 59.1059 40.9845L62.528 41.5214L62.4937 41.7418Z" fill="white"/>
<path d="M93.6313 37.1981C93.6313 37.1981 101.984 44.2321 100.51 55.5196L107.743 36.7639L96.8521 24.9847L93.6313 37.199" fill="#00257D"/>
<path d="M94.0933 35.0034L96.903 24.3545L97.1187 24.4118L94.3089 35.0606L94.0933 35.0034Z" fill="white"/>
<path d="M106.268 50.0593L106.134 49.8804C106.171 49.8529 109.848 47.102 110.67 46.1255L110.841 46.2698C110.002 47.2653 106.42 49.9459 106.268 50.0593Z" fill="white"/>
<path d="M57.9879 29.4615L57.7744 29.3973C58.4534 27.1338 59.801 23.5424 59.8144 23.5064C59.8197 23.4922 59.828 23.4791 59.8386 23.4682C59.8492 23.4572 59.8619 23.4485 59.8759 23.4427L77.1221 16.2727L77.2075 16.4794L60.0069 23.6308C59.8476 24.0547 58.624 27.3434 57.9879 29.4615V29.4615Z" fill="white"/>
<path d="M104.202 46.3648L104.08 46.1778C104.136 46.1404 109.78 42.3931 112.402 37.4938L106.983 24.1135L107.189 24.0292L112.629 37.4577C112.635 37.4729 112.638 37.4893 112.637 37.5057C112.636 37.5221 112.632 37.5381 112.624 37.5526C109.985 42.526 104.259 46.327 104.202 46.3648Z" fill="white"/>
<path d="M59.1179 50.1279L56.6626 45.4769L56.8595 45.3719L59.3148 50.023L59.1179 50.1279Z" fill="#00257D"/>
<path d="M57.8433 52.0194L59.8196 48.924L60.0074 49.0446L58.0311 52.14L57.8433 52.0194Z" fill="#00257D"/>
<path d="M56.041 48.9801L57.4291 46.8061L57.6169 46.9267L56.2288 49.1007L56.041 48.9801Z" fill="#00257D"/>
<path d="M99.8701 60.781L104.297 57.9548L104.416 58.1435L99.9899 60.9697L99.8701 60.781Z" fill="#00257D"/>
<path d="M99.752 59.5859L99.9745 59.5744L100.164 63.2451L99.9417 63.2567L99.752 59.5859Z" fill="#00257D"/>
<path d="M102.873 58.9305L103.096 58.919L103.229 61.4971L103.006 61.5086L102.873 58.9305Z" fill="#00257D"/>
<path d="M89.2736 83.6204L79.1481 96.9935L65.2315 87.5073L58.3516 87.7404L80.4319 104.275L95.5748 81.0798L89.2736 83.6204Z" fill="#FFAA00"/>
<path d="M106.124 111.055L106.038 109.524C105.981 109.619 105.937 109.722 105.906 109.829C105.85 110.036 105.841 110.254 105.878 110.466C105.916 110.678 106 110.879 106.124 111.055V111.055Z" fill="#FFAA00"/>
<path d="M97.9152 87.6162C97.66 86.6813 96.3876 86.5762 95.925 86.5694C95.7885 86.1938 95.2781 84.9963 94.3269 84.9963C93.3805 84.9963 92.8708 86.182 92.731 86.5636C92.6993 86.5636 92.6623 86.5616 92.6208 86.5616C92.1455 86.5616 91.0109 86.6643 90.7394 87.6148C90.4495 88.6307 91.4086 89.3986 91.7358 89.6268C91.6194 90.006 91.3361 91.1903 92.1029 91.8312C92.3144 92.0082 92.5825 92.1028 92.8579 92.0977C93.4824 92.0977 94.1069 91.6787 94.3351 91.5071C94.5765 91.6587 95.2297 92.0297 95.8585 92.0297C96.098 92.0352 96.3338 91.9701 96.5368 91.8424C97.3156 91.3359 97.0206 90.0125 96.9128 89.6226C97.2191 89.3839 98.1708 88.5533 97.9152 87.6162V87.6162ZM94.9797 88.911C94.9797 88.911 95.8103 89.7042 95.3324 90.091C94.8544 90.4778 94.3224 89.3861 94.3224 89.3861C94.3224 89.3861 93.7454 90.4662 93.3111 90.091C92.8769 89.7159 93.6535 88.8718 93.6535 88.8718C93.6535 88.8718 92.4714 88.7376 92.6866 88.1631C92.9018 87.5886 93.9278 88.1184 93.9278 88.1184C93.9278 88.1184 93.7168 86.9723 94.3217 86.9723C94.9266 86.9723 94.7292 88.1278 94.7292 88.1278C94.7292 88.1278 95.7329 87.5909 95.956 88.164C96.179 88.7371 94.9797 88.911 94.9797 88.911V88.911Z" fill="#FFAA00"/>
<path d="M97.9152 117.235C97.66 116.3 96.3876 116.195 95.925 116.188C95.7885 115.812 95.2781 114.615 94.3269 114.615C93.3805 114.615 92.8708 115.801 92.731 116.182C92.6993 116.182 92.6623 116.18 92.6208 116.18C92.1455 116.18 91.0109 116.283 90.7394 117.233C90.4495 118.249 91.4086 119.017 91.7358 119.245C91.6194 119.625 91.3361 120.809 92.1029 121.45C92.3145 121.627 92.5825 121.721 92.8579 121.716C93.4824 121.716 94.1069 121.297 94.3351 121.126C94.5765 121.277 95.2297 121.648 95.8585 121.648C96.098 121.654 96.3339 121.589 96.5368 121.461C97.3156 120.954 97.0206 119.631 96.9128 119.241C97.2191 119.003 98.1708 118.172 97.9152 117.235V117.235ZM94.9797 118.529C94.9797 118.529 95.8103 119.323 95.3324 119.71C94.8544 120.097 94.3224 119.005 94.3224 119.005C94.3224 119.005 93.7454 120.085 93.3111 119.71C92.8769 119.335 93.6535 118.49 93.6535 118.49C93.6535 118.49 92.4714 118.356 92.6866 117.782C92.9018 117.207 93.9278 117.737 93.9278 117.737C93.9278 117.737 93.7168 116.591 94.3217 116.591C94.9266 116.591 94.7292 117.747 94.7292 117.747C94.7292 117.747 95.7329 117.21 95.956 117.783C96.179 118.355 94.9797 118.529 94.9797 118.529V118.529Z" fill="#FFAA00"/>
<path d="M97.9152 102.426C97.66 101.491 96.3876 101.386 95.925 101.379C95.7885 101.003 95.2781 99.8055 94.3269 99.8055C93.3805 99.8055 92.8708 100.991 92.731 101.373C92.6993 101.373 92.6623 101.371 92.6208 101.371C92.1455 101.371 91.0109 101.474 90.7394 102.424C90.4495 103.44 91.4086 104.208 91.7358 104.436C91.6194 104.815 91.3361 106 92.1029 106.641C92.3145 106.818 92.5825 106.912 92.8579 106.907C93.4824 106.907 94.1069 106.488 94.3351 106.316C94.5765 106.468 95.2297 106.839 95.8585 106.839C96.098 106.845 96.3338 106.779 96.5368 106.652C97.3156 106.145 97.0206 104.822 96.9128 104.432C97.2191 104.193 98.1708 103.363 97.9152 102.426V102.426ZM94.9797 103.72C94.9797 103.72 95.8103 104.514 95.3324 104.9C94.8544 105.287 94.3224 104.196 94.3224 104.196C94.3224 104.196 93.7454 105.276 93.3111 104.9C92.8769 104.525 93.6535 103.681 93.6535 103.681C93.6535 103.681 92.4714 103.547 92.6866 102.972C92.9018 102.398 93.9278 102.928 93.9278 102.928C93.9278 102.928 93.7168 101.782 94.3217 101.782C94.9266 101.782 94.7292 102.937 94.7292 102.937C94.7292 102.937 95.7329 102.4 95.956 102.973C96.179 103.546 94.9797 103.72 94.9797 103.72V103.72Z" fill="#FFAA00"/>
<path d="M82.7482 109.831C82.493 108.896 81.2206 108.79 80.758 108.784C80.6215 108.408 80.1112 107.211 79.1599 107.211C78.2135 107.211 77.7039 108.396 77.564 108.778C77.5323 108.778 77.4953 108.776 77.4538 108.776C76.9785 108.776 75.8439 108.879 75.5725 109.829C75.2825 110.845 76.2416 111.613 76.5688 111.841C76.4524 112.22 76.1691 113.405 76.9359 114.046C77.1474 114.223 77.4155 114.317 77.6909 114.312C78.3154 114.312 78.9388 113.893 79.1681 113.721C79.4095 113.873 80.0628 114.244 80.6915 114.244C80.931 114.249 81.1669 114.184 81.3698 114.057C82.1487 113.55 81.8536 112.227 81.7459 111.837C82.0521 111.598 83.0038 110.768 82.7482 109.831V109.831ZM79.8127 111.125C79.8127 111.125 80.6433 111.919 80.1654 112.305C79.6874 112.692 79.1554 111.6 79.1554 111.6C79.1554 111.6 78.5784 112.681 78.1441 112.305C77.7099 111.93 78.4865 111.086 78.4865 111.086C78.4865 111.086 77.3044 110.952 77.5196 110.377C77.7349 109.803 78.7609 110.333 78.7609 110.333C78.7609 110.333 78.5499 109.187 79.1548 109.187C79.7597 109.187 79.5623 110.342 79.5623 110.342C79.5623 110.342 80.566 109.805 80.789 110.378C81.012 110.951 79.8127 111.125 79.8127 111.125V111.125Z" fill="#FFAA00"/>
<path d="M82.7482 124.64C82.493 123.705 81.2206 123.6 80.758 123.593C80.6215 123.217 80.1112 122.02 79.1599 122.02C78.2135 122.02 77.7039 123.205 77.564 123.587C77.5323 123.586 77.4953 123.585 77.4538 123.585C76.9785 123.585 75.8439 123.688 75.5725 124.638C75.2825 125.654 76.2416 126.422 76.5688 126.65C76.4524 127.031 76.1691 128.214 76.9359 128.855C77.1475 129.032 77.4155 129.126 77.6909 129.121C78.3154 129.121 78.9388 128.702 79.1681 128.531C79.4095 128.682 80.0628 129.053 80.6915 129.053C80.931 129.059 81.1669 128.994 81.3698 128.866C82.1487 128.36 81.8536 127.036 81.7459 126.646C82.0521 126.408 83.0038 125.577 82.7482 124.64ZM79.8127 125.935C79.8127 125.935 80.6433 126.728 80.1654 127.115C79.6874 127.501 79.1554 126.41 79.1554 126.41C79.1554 126.41 78.5784 127.49 78.1441 127.115C77.7099 126.739 78.4865 125.895 78.4865 125.895C78.4865 125.895 77.3044 125.761 77.5196 125.187C77.7349 124.612 78.7609 125.142 78.7609 125.142C78.7609 125.142 78.5499 123.996 79.1548 123.996C79.7597 123.996 79.5623 125.151 79.5623 125.151C79.5623 125.151 80.566 124.615 80.789 125.187C81.012 125.76 79.8127 125.935 79.8127 125.935V125.935Z" fill="#FFAA00"/>
<path d="M61.4019 89.627C61.2854 90.0062 61.0022 91.1905 61.769 91.8314C61.9805 92.0084 62.2486 92.1029 62.524 92.0978C63.1485 92.0978 63.7719 91.6788 64.0012 91.5072C64.2425 91.6589 64.8958 92.0298 65.5246 92.0298C65.7641 92.0353 65.9999 91.9702 66.2029 91.8425C66.6791 91.5329 66.7531 90.9184 66.7148 90.3981L64.8882 88.8603C64.7491 88.8957 64.6458 88.9111 64.6458 88.9111C64.6458 88.9111 65.4764 89.7044 64.9984 90.0912C64.5204 90.4779 63.9885 89.3863 63.9885 89.3863C63.9885 89.3863 63.4115 90.4663 62.9772 90.0912C62.5429 89.716 63.3196 88.872 63.3196 88.872C63.3196 88.872 62.1375 88.7377 62.3527 88.1633C62.5679 87.5888 63.5939 88.1185 63.5939 88.1185C63.5734 87.9941 63.5618 87.8684 63.5591 87.7423L63.3571 87.572L60.3935 87.6725C60.1544 88.659 61.0802 89.4033 61.4019 89.627V89.627Z" fill="#FFAA00"/>
<path d="M62.5242 121.716C63.1487 121.716 63.7721 121.297 64.0014 121.126C64.2428 121.277 64.8961 121.648 65.5248 121.648C65.7643 121.654 66.0002 121.589 66.2031 121.461C66.982 120.954 66.6869 119.631 66.5791 119.241C66.8854 119.003 67.8371 118.172 67.5815 117.235C67.3259 116.298 66.0539 116.195 65.5913 116.188C65.4548 115.812 64.9445 114.615 63.9932 114.615C63.0468 114.615 62.5371 115.801 62.3973 116.182C62.3656 116.182 62.3286 116.18 62.2871 116.18C61.9032 116.175 61.5222 116.248 61.167 116.394L62.2599 121.686C62.3467 121.705 62.4353 121.716 62.5242 121.716V121.716ZM62.3529 117.782C62.5673 117.207 63.5942 117.737 63.5942 117.737C63.5942 117.737 63.3832 116.591 63.988 116.591C64.5929 116.591 64.3955 117.747 64.3955 117.747C64.3955 117.747 65.3992 117.21 65.6223 117.783C65.8453 118.355 64.6454 118.53 64.6454 118.53C64.6454 118.53 65.476 119.324 64.998 119.711C64.52 120.097 63.988 119.006 63.988 119.006C63.988 119.006 63.411 120.086 62.9768 119.711C62.5425 119.336 63.3191 118.491 63.3191 118.491C63.3191 118.491 62.1383 118.357 62.3529 117.782Z" fill="#FFAA00"/>
<path d="M67.5812 132.045C67.326 131.11 66.0536 131.005 65.591 130.998C65.4545 130.622 64.9442 129.425 63.9929 129.425C63.9487 129.425 63.9046 129.429 63.8608 129.435L64.3031 131.576C64.3957 131.759 64.4379 131.964 64.4256 132.169L64.4956 132.507C64.7548 132.389 65.4424 132.129 65.6227 132.592C65.8296 133.122 64.8197 133.311 64.6667 133.336L64.6732 133.367C64.8103 133.507 65.425 134.174 64.9984 134.519C64.9746 134.538 64.9487 134.554 64.9212 134.567L65.3088 136.443C65.3804 136.453 65.4524 136.458 65.5245 136.458C65.764 136.464 65.9998 136.398 66.2028 136.271C66.9817 135.764 66.6866 134.441 66.5788 134.051C66.8851 133.812 67.8368 132.982 67.5812 132.045V132.045Z" fill="#FFAA00"/>
<path d="M80.4322 104.387C80.408 104.387 80.3845 104.379 80.3652 104.364L58.284 87.83C58.2655 87.8161 58.2517 87.7968 58.2447 87.7748C58.2376 87.7528 58.2375 87.7291 58.2444 87.707C58.2513 87.6849 58.2648 87.6655 58.2832 87.6515C58.3015 87.6374 58.3238 87.6295 58.3469 87.6287L65.2271 87.3958C65.2509 87.3949 65.2743 87.4017 65.294 87.4152L79.1227 96.8413L89.1839 83.5532C89.1962 83.5371 89.2125 83.5247 89.2312 83.5172L95.5324 80.9766C95.5544 80.9681 95.5784 80.9668 95.6011 80.9729C95.6238 80.979 95.6441 80.9921 95.6589 81.0104C95.6737 81.0286 95.6824 81.0512 95.6838 81.0747C95.6851 81.0982 95.6789 81.1216 95.6662 81.1414L80.5254 104.336C80.5171 104.349 80.5062 104.36 80.4935 104.368C80.4807 104.377 80.4664 104.382 80.4513 104.385C80.445 104.386 80.4386 104.387 80.4322 104.387V104.387ZM58.6729 87.8414L80.4038 104.114L95.2871 81.3164L89.3439 83.7127L79.2373 97.0612C79.22 97.084 79.1946 97.0993 79.1664 97.1039C79.1382 97.1084 79.1093 97.102 79.0856 97.0858L65.1992 87.6206L58.6729 87.8414Z" fill="#00257D"/>
<path d="M65.2354 87.6196L65.228 87.3959L68.9923 87.2684L67.7776 76.7918L67.9993 76.7661L69.2279 87.363C69.2297 87.3784 69.2283 87.394 69.2238 87.4088C69.2192 87.4236 69.2117 87.4373 69.2017 87.449C69.1916 87.4607 69.1792 87.4703 69.1653 87.4769C69.1514 87.4836 69.1362 87.4873 69.1208 87.4879L65.2354 87.6196Z" fill="#00257D"/>
<path d="M84.953 85.4744C84.9255 85.4745 84.899 85.4646 84.8784 85.4463C84.8578 85.4281 84.8447 85.4029 84.8415 85.3755L84.02 78.291L84.2431 78.265L85.0474 85.2041L90.7816 82.8919L90.8648 83.0995L84.9947 85.4663C84.9815 85.4716 84.9673 85.4744 84.953 85.4744V85.4744Z" fill="#00257D"/>
<path d="M57.3164 134.806L109.5 121.93L112 134.806L65.2318 145.677L57.3164 134.806Z" fill="#CC1D37"/>
<path d="M64.6696 118.552V118.526L64.6479 118.529L64.6696 118.552Z" fill="#FFAA00"/>
<path d="M52.4147 109.831C52.1595 108.896 50.8871 108.79 50.4245 108.784C50.288 108.408 49.7777 107.211 48.8264 107.211C47.88 107.211 47.3704 108.396 47.2305 108.778C47.1988 108.778 47.1618 108.776 47.1203 108.776C46.645 108.776 45.5104 108.879 45.239 109.829C44.949 110.845 45.9081 111.613 46.2353 111.841C46.1189 112.22 45.8356 113.405 46.6024 114.046C46.8139 114.223 47.082 114.317 47.3574 114.312C47.9819 114.312 48.6053 113.893 48.8346 113.721C49.076 113.873 49.7293 114.244 50.358 114.244C50.5975 114.249 50.8334 114.184 51.0363 114.057C51.8152 113.55 51.5201 112.227 51.4123 111.837C51.7186 111.598 52.6703 110.768 52.4147 109.831V109.831ZM49.4792 111.125C49.4792 111.125 50.3098 111.919 49.8319 112.305C49.3539 112.692 48.8219 111.6 48.8219 111.6C48.8219 111.6 48.2449 112.681 47.8106 112.305C47.3764 111.93 48.153 111.086 48.153 111.086C48.153 111.086 46.9709 110.952 47.1861 110.377C47.4014 109.803 48.4274 110.333 48.4274 110.333C48.4274 110.333 48.2164 109.187 48.8213 109.187C49.4261 109.187 49.2288 110.342 49.2288 110.342C49.2288 110.342 50.2324 109.805 50.4555 110.378C50.6785 110.951 49.4792 111.125 49.4792 111.125Z" fill="#FFAA00"/>
<path d="M46.2352 97.0318C46.1188 97.4121 45.8355 98.5953 46.6023 99.2364C46.8139 99.4133 47.0819 99.5079 47.3573 99.5029C47.9819 99.5029 48.6053 99.0836 48.8346 98.9121C49.0759 99.064 49.7292 99.4349 50.3579 99.4349C50.5975 99.4403 50.8333 99.3751 51.0362 99.2474C51.8151 98.7409 51.52 97.4177 51.4123 97.0276C51.7185 96.7891 52.6702 95.9585 52.4146 95.0214C52.159 94.0843 50.887 93.9812 50.4244 93.9747C50.2879 93.5989 49.7776 92.4014 48.8263 92.4014C47.8799 92.4014 47.3703 93.587 47.2304 93.9686C47.1988 93.9686 47.1617 93.9668 47.1202 93.9668C46.7437 93.9624 46.3699 94.0322 46.0202 94.1724L45.3252 96.0068C45.5378 96.4198 45.8508 96.7723 46.2352 97.0318V97.0318ZM47.186 95.5681C47.4004 94.993 48.4273 95.5234 48.4273 95.5234C48.4273 95.5234 48.2163 94.3776 48.8212 94.3776C49.4261 94.3776 49.2287 95.533 49.2287 95.533C49.2287 95.533 50.2324 94.9961 50.4554 95.569C50.6785 96.1419 49.4785 96.3169 49.4785 96.3169C49.4785 96.3169 50.3091 97.1101 49.8311 97.4971C49.3531 97.8841 48.8212 96.792 48.8212 96.792C48.8212 96.792 48.2442 97.8723 47.8099 97.4971C47.3756 97.122 48.1523 96.2777 48.1523 96.2777C48.1523 96.2777 46.9715 96.1433 47.186 95.5681Z" fill="#FFAA00"/>
<path d="M46.2349 126.65C46.1185 127.031 45.8352 128.214 46.602 128.855C46.8136 129.032 47.0816 129.126 47.357 129.121C47.9815 129.121 48.605 128.702 48.8342 128.531C49.0756 128.683 49.7289 129.053 50.3576 129.053C50.5971 129.059 50.833 128.994 51.0359 128.866C51.8148 128.36 51.5197 127.036 51.4119 126.646C51.7182 126.408 52.6699 125.577 52.4143 124.64C52.1587 123.703 50.8867 123.6 50.4241 123.593C50.2876 123.217 49.7773 122.02 48.826 122.02C47.8796 122.02 47.37 123.206 47.2301 123.587C47.1984 123.586 47.1614 123.585 47.1199 123.585C46.6446 123.585 45.51 123.688 45.2386 124.638C44.9484 125.654 45.907 126.422 46.2349 126.65ZM47.1857 125.187C47.4001 124.612 48.427 125.142 48.427 125.142C48.427 125.142 48.216 123.996 48.8209 123.996C49.4257 123.996 49.2284 125.152 49.2284 125.152C49.2284 125.152 50.2321 124.615 50.4551 125.188C50.6781 125.76 49.4782 125.936 49.4782 125.936C49.4782 125.936 50.3088 126.729 49.8308 127.116C49.3528 127.502 48.8209 126.411 48.8209 126.411C48.8209 126.411 48.2438 127.491 47.8096 127.116C47.3753 126.741 48.1519 125.896 48.1519 125.896C48.1519 125.896 46.9712 125.762 47.1857 125.187V125.187Z" fill="#FFAA00"/>
<path d="M33.6594 144.234C32.7131 144.234 32.2034 145.42 32.0636 145.8C32.0319 145.8 31.9949 145.799 31.9534 145.799C31.4895 145.799 30.3992 145.899 30.0952 146.788L30.7833 148.64C30.8742 148.719 30.9693 148.794 31.0684 148.863C31.0445 148.941 31.0139 149.053 30.9867 149.187L31.7549 151.254C31.8939 151.308 32.0416 151.335 32.1905 151.334C32.815 151.334 33.4395 150.915 33.6677 150.744C33.909 150.895 34.5623 151.266 35.1911 151.266C35.4306 151.272 35.6664 151.207 35.8694 151.079C35.9319 151.037 35.9894 150.989 36.0409 150.934L36.2947 149.058C36.2771 148.979 36.2597 148.91 36.2454 148.859C36.2699 148.84 36.2994 148.816 36.3313 148.79L36.6882 146.15C36.2461 145.921 35.7549 145.803 35.2571 145.807C35.121 145.432 34.6112 144.234 33.6594 144.234V144.234ZM34.3123 148.149C34.3123 148.149 35.1429 148.942 34.6649 149.329C34.1869 149.716 33.655 148.624 33.655 148.624C33.655 148.624 33.078 149.704 32.6437 149.329C32.2094 148.954 32.9861 148.11 32.9861 148.11C32.9861 148.11 31.8039 147.976 32.0192 147.401C32.2344 146.826 33.2604 147.356 33.2604 147.356C33.2604 147.356 33.0494 146.211 33.6543 146.211C34.2592 146.211 34.0618 147.364 34.0618 147.364C34.0618 147.364 35.0655 146.827 35.2886 147.4C35.5116 147.973 34.3123 148.149 34.3123 148.149V148.149Z" fill="#FFAA00"/>
<path d="M31.4346 136.26C31.6462 136.437 31.9142 136.531 32.1896 136.526C32.8142 136.526 33.4387 136.107 33.6669 135.936C33.9082 136.087 34.5615 136.458 35.1902 136.458C35.4297 136.464 35.6656 136.399 35.8685 136.271C36.6474 135.765 36.3523 134.441 36.2446 134.051C36.5508 133.813 37.5025 132.982 37.2469 132.045C36.9913 131.108 35.7193 131.005 35.2567 130.998C35.1202 130.623 34.6099 129.425 33.6586 129.425C32.8916 129.425 32.4114 130.203 32.1825 130.702L30.9462 133.966C30.9908 134.001 31.0334 134.032 31.0675 134.055C30.9515 134.434 30.6683 135.62 31.4346 136.26V136.26ZM32.0184 132.591C32.2327 132.016 33.2596 132.546 33.2596 132.546C33.2596 132.546 33.0486 131.401 33.6535 131.401C34.2584 131.401 34.061 132.556 34.061 132.556C34.061 132.556 35.0647 132.019 35.2877 132.592C35.5108 133.165 34.3108 133.34 34.3108 133.34C34.3108 133.34 35.1414 134.133 34.6634 134.52C34.1854 134.907 33.6535 133.815 33.6535 133.815C33.6535 133.815 33.0765 134.895 32.6422 134.52C32.2079 134.145 32.9846 133.301 32.9846 133.301C32.9846 133.301 31.8042 133.167 32.0188 132.592L32.0184 132.591Z" fill="#FFAA00"/>
<path d="M34.8644 159.735C34.8416 159.735 34.8194 159.728 34.8007 159.715C34.782 159.702 34.7677 159.684 34.7598 159.662L28.0071 141.49C27.9976 141.465 27.9976 141.437 28.0071 141.411L48.2233 88.0405L48.4321 88.1199L28.2308 141.452L34.8135 159.167L37.9337 136.124L38.1545 136.155L34.9748 159.639C34.9715 159.664 34.96 159.687 34.9422 159.704C34.9244 159.722 34.9014 159.733 34.8766 159.735C34.8726 159.735 34.8685 159.735 34.8644 159.735V159.735Z" fill="#00257D"/>
<path d="M38.0515 136.25L38.0361 136.027L65.1812 134.15L64.1487 108.417L64.3717 108.407L65.4093 134.249C65.4106 134.278 65.4004 134.306 65.381 134.328C65.3616 134.35 65.3344 134.363 65.3054 134.365L38.0515 136.25Z" fill="#00257D"/>
<path d="M84.9948 85.4665L84.9116 85.2589L104.212 77.4771C104.234 77.468 104.259 77.4665 104.282 77.4728C104.306 77.479 104.326 77.4927 104.341 77.5118L104.886 78.2091L104.71 78.3473L104.217 77.7158L84.9948 85.4665Z" fill="#00257D"/>
<path d="M48.302 88.4624L48.0933 88.383L48.2233 88.0398C48.2311 88.0192 48.2448 88.0013 48.2627 87.9884C48.2806 87.9756 48.3019 87.9683 48.3239 87.9676L58.3479 87.6284L58.3553 87.8521L48.4057 88.1877L48.302 88.4624Z" fill="#00257D"/>
<path d="M64.2953 144.322L111.518 132.372L122 161.93C122 161.93 115 165.43 109 166.68C103 167.93 97.4999 167.93 92.4999 168.93C89.9429 169.441 89.9999 168.874 79.9999 167.93C74.6552 166.948 67.9999 164.929 67.9999 164.929L64.2953 144.322Z" fill="#FFAA00"/>
<path d="M106.094 112.464L106.309 112.406L108.935 122.345L108.719 122.402L106.094 112.464Z" fill="#00257D"/>
<path d="M166.085 74.3591L166.304 74.3181L168.758 87.4862L168.539 87.5273L166.085 74.3591Z" fill="#00257D"/>
<path d="M155.064 88.0256L160.157 78.5455L160.354 78.6517L155.261 88.1318L155.064 88.0256Z" fill="#00257D"/>
<path d="M38.0442 136.139L61.5331 125.127L57.5222 105.982L65.6693 86.0129L69.1173 88.909L64.8948 102.726L72.8062 93.3019L80.7546 90.9029L85.6999 104.921L80.6475 106.898L77.94 112.609L79.6971 126.845L73.8536 136.139L40.5831 164.24L35.3164 156.285L38.0442 136.139Z" fill="#FFD6B5"/>
<path d="M40.583 164.353C40.5777 164.353 40.5724 164.353 40.5672 164.353C40.5516 164.35 40.5367 164.345 40.5234 164.336C40.5102 164.328 40.4988 164.317 40.49 164.304L35.2235 156.347C35.2086 156.325 35.2024 156.297 35.2061 156.271L37.9339 136.124C37.9364 136.106 37.9435 136.088 37.9545 136.073C37.9655 136.058 37.9802 136.046 37.997 136.038L61.4059 125.063L57.4134 106.005C57.4089 105.983 57.411 105.96 57.4194 105.94L65.5663 85.9711C65.5729 85.9548 65.5833 85.9402 65.5966 85.9287C65.6098 85.9172 65.6256 85.9089 65.6427 85.9047C65.6597 85.9004 65.6775 85.9003 65.6946 85.9042C65.7118 85.9082 65.7277 85.9161 65.7412 85.9274L69.1892 88.8235C69.206 88.8376 69.2184 88.8564 69.2246 88.8775C69.2309 88.8986 69.2308 88.921 69.2244 88.9421L65.1622 102.235L72.7211 93.2303C72.7351 93.2137 72.7536 93.2016 72.7744 93.1954L80.7225 90.7964C80.75 90.788 80.7797 90.7906 80.8053 90.8036C80.831 90.8166 80.8506 90.839 80.8602 90.8662L85.8055 104.884C85.8151 104.912 85.8137 104.942 85.8016 104.968C85.7896 104.995 85.7678 105.015 85.7408 105.026L80.7295 106.985L78.0547 112.628L79.8078 126.831C79.811 126.856 79.8053 126.882 79.7916 126.904L73.9472 136.199C73.9411 136.209 73.9336 136.218 73.9248 136.225L40.6551 164.326C40.6349 164.343 40.6094 164.353 40.583 164.353V164.353ZM35.4327 156.259L40.6073 164.074L73.7687 136.065L79.5814 126.819L77.8297 112.623C77.8271 112.602 77.8306 112.58 77.8397 112.561L80.547 106.851C80.5592 106.826 80.5808 106.805 80.6072 106.795L85.5588 104.858L80.6846 91.0425L72.8701 93.3999L64.9808 102.798C64.9643 102.818 64.9414 102.832 64.9162 102.836C64.8909 102.841 64.8647 102.837 64.8421 102.825C64.8195 102.812 64.8019 102.793 64.7922 102.769C64.7824 102.745 64.7812 102.718 64.7888 102.694L68.9896 88.9475L65.7146 86.1972L57.6385 105.993L61.6423 125.104C61.6475 125.129 61.6442 125.154 61.633 125.177C61.6218 125.2 61.6033 125.218 61.5805 125.228L38.1467 136.215L35.4327 156.259Z" fill="#00257D"/>
<path d="M68.8778 105.093L68.7056 104.951L74.4614 97.9425C74.4744 97.927 74.4913 97.9152 74.5103 97.9083L82.2539 95.1525L82.3284 95.3634L74.614 98.1087L68.8778 105.093Z" fill="#00257D"/>
<path d="M72.1794 108.486L72.0112 108.339L77.0674 102.505C77.08 102.491 77.0961 102.48 77.1142 102.473L83.9746 100.032L84.0491 100.243L77.2164 102.674L72.1794 108.486Z" fill="#00257D"/>
</g>
<defs>
<clipPath id="clip0_54_1870">
<rect width="154" height="162" fill="white" transform="translate(28 6.42969)"/>
</clipPath>
</defs>
</svg>
