<svg width="284" height="219" viewBox="0 0 284 219" fill="none" xmlns="http://www.w3.org/2000/svg">
<path d="M228.449 65.9686C228.371 65.9686 228.296 65.9802 228.219 65.9808C225.867 29.3865 196.275 0.429688 160.019 0.429688C139.197 0.429688 120.582 10.0055 108.031 25.062C104.192 24.2608 100.221 23.8368 96.1509 23.8368C68.8949 23.8368 45.9921 42.7296 39.0513 68.4319C16.6475 75.469 0.349609 96.8485 0.349609 122.145C0.349609 153.17 24.8591 178.322 55.0937 178.322H228.449C258.683 178.322 283.193 153.17 283.193 122.145C283.193 91.1189 258.683 65.9686 228.449 65.9686Z" fill="#F1F3FA"/>
<path d="M21.4489 193.213C16.8311 183.881 17.6006 164.537 21.4489 160.405L40.2089 174.987C37.3228 180.819 35.1581 189.089 35.1581 193.213C35.1581 197.588 35.1582 209.982 37.3228 218.001C33.9556 212.169 26.0668 202.545 21.4489 193.213Z" fill="#F1F3FA"/>
</svg>
