<svg width="86" height="86" viewBox="0 0 86 86" fill="none" xmlns="http://www.w3.org/2000/svg">
<path d="M42.9998 78.1817C62.4302 78.1817 78.1817 62.4302 78.1817 42.9998C78.1817 23.5693 62.4302 7.81787 42.9998 7.81787C23.5693 7.81787 7.81787 23.5693 7.81787 42.9998C7.81787 62.4302 23.5693 78.1817 42.9998 78.1817Z" fill="white"/>
<path d="M43 0C19.1545 0 0 19.1545 0 43C0 66.8455 19.1545 86 43 86C66.8455 86 86 66.8455 86 43C86 19.1545 66.8455 0 43 0ZM43 78.1819C23.65 78.1819 7.81811 62.35 7.81811 43C7.81811 23.65 23.65 7.81811 43 7.81811C62.35 7.81811 78.1819 23.65 78.1819 43C78.1819 62.35 62.35 78.1819 43 78.1819Z" fill="#10307D"/>
<path d="M9.77276 44.9544H1.95448C0.781895 44.9544 0 44.1727 0 42.9999C0 41.8271 0.781895 41.0454 1.95448 41.0454H9.77259C10.9453 41.0454 11.7271 41.8273 11.7271 42.9999C11.7272 44.1727 10.9455 44.9544 9.77276 44.9544Z" fill="#10307D"/>
<path d="M8.01339 41.0454C7.81787 41.6318 7.81787 42.4135 7.81787 42.9999C7.81787 43.5863 7.81787 44.368 8.01339 44.9544H9.77252C10.1634 44.9544 10.5544 44.7589 10.7498 44.5635C10.7498 43.5863 10.9453 42.4135 10.9453 41.4363C10.7498 41.2408 10.3589 41.0454 9.77252 41.0454H8.01339Z" fill="#10307D"/>
<path d="M84.0455 44.9544H76.2274C75.0547 44.9544 74.2729 44.1725 74.2729 42.9999C74.2729 41.8271 75.0548 41.0454 76.2274 41.0454H84.0455C85.2183 41.0454 86 41.8273 86 42.9999C86 44.1727 85.2181 44.9544 84.0455 44.9544Z" fill="#10307D"/>
<path d="M41.0454 9.77276V1.95448C41.0454 0.781895 41.8271 0 42.9999 0C44.1727 0 44.9544 0.781895 44.9544 1.95448V9.77259C44.9544 10.9453 44.1725 11.7271 42.9999 11.7271C41.8271 11.7272 41.0454 10.9455 41.0454 9.77276Z" fill="#10307D"/>
<path d="M42.9999 7.81787C42.4135 7.81787 41.6318 7.81787 41.0454 8.01339V9.77252C41.0454 10.3589 41.2409 10.7498 41.6318 11.1406C42.609 10.9451 43.5863 10.9451 44.759 10.9451C44.759 10.5543 44.9545 10.1632 44.9545 9.77236V8.01339C44.368 7.81787 43.5863 7.81787 42.9999 7.81787Z" fill="#10307D"/>
<path d="M41.0454 84.0455V76.2274C41.0454 75.0547 41.8273 74.2729 42.9999 74.2729C44.1727 74.2729 44.9544 75.0548 44.9544 76.2274V84.0455C44.9544 85.2183 44.1725 86 42.9999 86C41.8271 86 41.0454 85.2181 41.0454 84.0455Z" fill="#10307D"/>
<path d="M42.9999 64.25C42.4703 64.25 42.0485 64.0746 41.7597 63.7857C41.4708 63.4969 41.2954 63.075 41.2954 62.5455V23.4545C41.2954 22.9249 41.4709 22.5031 41.7597 22.2142C42.0486 21.9254 42.4704 21.75 42.9999 21.75C43.5295 21.75 43.9513 21.9254 44.2401 22.2143C44.529 22.5031 44.7044 22.925 44.7044 23.4545V62.5453C44.7044 63.0749 44.529 63.4968 44.2401 63.7857C43.9513 64.0746 43.5295 64.25 42.9999 64.25Z" fill="#F1F3FA" stroke="#00164C" stroke-width="0.5"/>
<path d="M52.4271 52.377L52.4128 52.3877L52.4003 52.4003C51.716 53.0845 50.7017 53.0845 50.0174 52.4003L33.4038 35.7866C32.7196 35.1024 32.7196 34.0881 33.4038 33.4038C34.0881 32.7196 35.1024 32.7196 35.7866 33.4038L52.4003 50.0174C52.7402 50.3574 52.9135 50.8294 52.9135 51.2822C52.9135 51.7363 52.7408 52.1418 52.4271 52.377Z" fill="#F1F3FA" stroke="#00164C" stroke-width="0.5"/>
<path d="M21.75 42.9999C21.75 42.4703 21.9254 42.0485 22.2143 41.7597C22.5031 41.4708 22.925 41.2954 23.4545 41.2954H62.5453C63.0749 41.2954 63.4968 41.4709 63.7856 41.7597C64.0744 42.0486 64.2498 42.4704 64.2498 42.9999C64.2498 43.5295 64.0744 43.9513 63.7855 44.2401C63.4967 44.529 63.0748 44.7044 62.5453 44.7044H23.4545C22.925 44.7044 22.5031 44.529 22.2143 44.2401C21.9254 43.9513 21.75 43.5295 21.75 42.9999Z" fill="#F1F3FA" stroke="#00164C" stroke-width="0.5"/>
<path d="M48.8635 48.8635L37.1362 37.1363L66.4543 19.5454L48.8635 48.8635Z" fill="#A9172C"/>
<path d="M37.1363 37.1362L48.8635 48.8635L19.5454 66.4543L37.1363 37.1362Z" fill="#61BFFF"/>
<path d="M37.1363 37.1362L19.5454 66.4543L42.9999 42.9999L37.1363 37.1362Z" fill="#8FD2FF"/>
<path d="M42.9999 42.9999L66.4543 19.5454L37.1362 37.1363L42.9999 42.9999Z" fill="#CC1D37"/>
<path d="M43 46.9091C45.1589 46.9091 46.9091 45.1589 46.9091 43C46.9091 40.841 45.1589 39.0908 43 39.0908C40.841 39.0908 39.0908 40.841 39.0908 43C39.0908 45.1589 40.841 46.9091 43 46.9091Z" fill="#FFAA00"/>
<path d="M44.5638 39.4819C44.7593 40.0683 44.9547 40.4592 44.9547 41.0456C44.9547 43.1956 43.1956 44.9547 41.0456 44.9547C40.4592 44.9547 39.8728 44.7592 39.4819 44.5638C40.0683 45.9319 41.4364 46.9093 43 46.9093C45.15 46.9093 46.9092 45.1502 46.9092 43.0002C46.9093 41.4364 45.9321 40.0681 44.5638 39.4819Z" fill="#DD9E20"/>
<path d="M43 0C19.1545 0 0 19.1545 0 43C2.15 43 3.90914 41.4364 4.10448 39.2864C5.08189 29.9045 9.18638 21.3045 15.6364 15.05C21.8909 8.99086 30.1 4.88638 39.2864 4.10448C41.4364 3.90914 43 2.15 43 0Z" fill="#2C4A93"/>
<path d="M43 86C66.8455 86 86 66.8455 86 43C83.85 43 82.0909 44.5636 81.8955 46.7136C81.1136 55.9 77.0091 64.1091 70.95 70.3636C64.6955 76.8136 56.2909 80.9181 46.7136 81.8955C44.5636 82.0909 43 83.85 43 86Z" fill="#2C4A93"/>
<path d="M42.0227 42.9999C42.5624 42.9999 42.9999 42.5624 42.9999 42.0227C42.9999 41.4829 42.5624 41.0454 42.0227 41.0454C41.4829 41.0454 41.0454 41.4829 41.0454 42.0227C41.0454 42.5624 41.4829 42.9999 42.0227 42.9999Z" fill="#FFAA00"/>
</svg>
