<svg width="118" height="53" viewBox="0 0 118 53" fill="none" xmlns="http://www.w3.org/2000/svg">
<path d="M0 15.4297C0 7.14542 6.71573 0.429688 15 0.429688H103C111.284 0.429688 118 7.14542 118 15.4297V24.4297C118 32.714 111.284 39.4297 103 39.4297H0V15.4297Z" fill="#9214A7"/>
<path d="M0 52.4297V35.4297H13L0 52.4297Z" fill="#9214A7"/>
<path d="M35.3 20.6517H32.42V26.4297H31.124V13.8297H32.42V19.4817H35.3L39.566 13.8297H41.006L36.326 19.9497L41.276 26.4297H39.746L35.3 20.6517ZM48.1589 16.8897C49.0469 16.8897 49.8509 17.0937 50.5709 17.5017C51.2909 17.8977 51.8549 18.4617 52.2629 19.1937C52.6709 19.9257 52.8749 20.7597 52.8749 21.6957C52.8749 22.6437 52.6709 23.4837 52.2629 24.2157C51.8549 24.9477 51.2909 25.5177 50.5709 25.9257C49.8629 26.3217 49.0589 26.5197 48.1589 26.5197C47.3909 26.5197 46.6949 26.3637 46.0709 26.0517C45.4589 25.7277 44.9549 25.2597 44.5589 24.6477V29.9217H43.2809V16.9617H44.5049V18.8337C44.8889 18.2097 45.3929 17.7297 46.0169 17.3937C46.6529 17.0577 47.3669 16.8897 48.1589 16.8897ZM48.0689 25.3857C48.7289 25.3857 49.3289 25.2357 49.8689 24.9357C50.4089 24.6237 50.8289 24.1857 51.1289 23.6217C51.4409 23.0577 51.5969 22.4157 51.5969 21.6957C51.5969 20.9757 51.4409 20.3397 51.1289 19.7877C50.8289 19.2237 50.4089 18.7857 49.8689 18.4737C49.3289 18.1617 48.7289 18.0057 48.0689 18.0057C47.3969 18.0057 46.7909 18.1617 46.2509 18.4737C45.7229 18.7857 45.3029 19.2237 44.9909 19.7877C44.6909 20.3397 44.5409 20.9757 44.5409 21.6957C44.5409 22.4157 44.6909 23.0577 44.9909 23.6217C45.3029 24.1857 45.7229 24.6237 46.2509 24.9357C46.7909 25.2357 47.3969 25.3857 48.0689 25.3857ZM63.4031 16.9617L58.6691 27.5637C58.2851 28.4517 57.8411 29.0817 57.3371 29.4537C56.8331 29.8257 56.2271 30.0117 55.5191 30.0117C55.0631 30.0117 54.6371 29.9397 54.2411 29.7957C53.8451 29.6517 53.5031 29.4357 53.2151 29.1477L53.8091 28.1937C54.2891 28.6737 54.8651 28.9137 55.5371 28.9137C55.9691 28.9137 56.3351 28.7937 56.6351 28.5537C56.9471 28.3137 57.2351 27.9057 57.4991 27.3297L57.9131 26.4117L53.6831 16.9617H55.0151L58.5791 25.0077L62.1431 16.9617H63.4031ZM72.0893 18.0957H68.5073V26.4297H67.2293V18.0957H63.6473V16.9617H72.0893V18.0957ZM77.4037 26.5197C76.4917 26.5197 75.6697 26.3157 74.9377 25.9077C74.2057 25.4877 73.6297 24.9117 73.2097 24.1797C72.7897 23.4477 72.5797 22.6197 72.5797 21.6957C72.5797 20.7717 72.7897 19.9437 73.2097 19.2117C73.6297 18.4797 74.2057 17.9097 74.9377 17.5017C75.6697 17.0937 76.4917 16.8897 77.4037 16.8897C78.3157 16.8897 79.1377 17.0937 79.8697 17.5017C80.6017 17.9097 81.1717 18.4797 81.5797 19.2117C81.9997 19.9437 82.2097 20.7717 82.2097 21.6957C82.2097 22.6197 81.9997 23.4477 81.5797 24.1797C81.1717 24.9117 80.6017 25.4877 79.8697 25.9077C79.1377 26.3157 78.3157 26.5197 77.4037 26.5197ZM77.4037 25.3857C78.0757 25.3857 78.6757 25.2357 79.2037 24.9357C79.7437 24.6237 80.1637 24.1857 80.4637 23.6217C80.7637 23.0577 80.9137 22.4157 80.9137 21.6957C80.9137 20.9757 80.7637 20.3337 80.4637 19.7697C80.1637 19.2057 79.7437 18.7737 79.2037 18.4737C78.6757 18.1617 78.0757 18.0057 77.4037 18.0057C76.7317 18.0057 76.1257 18.1617 75.5857 18.4737C75.0577 18.7737 74.6377 19.2057 74.3257 19.7697C74.0257 20.3337 73.8757 20.9757 73.8757 21.6957C73.8757 22.4157 74.0257 23.0577 74.3257 23.6217C74.6377 24.1857 75.0577 24.6237 75.5857 24.9357C76.1257 25.2357 76.7317 25.3857 77.4037 25.3857ZM84.707 13.8297H86.219L85.949 22.6497H84.959L84.707 13.8297ZM85.463 26.5197C85.199 26.5197 84.971 26.4297 84.779 26.2497C84.599 26.0577 84.509 25.8357 84.509 25.5837C84.509 25.3197 84.599 25.1037 84.779 24.9357C84.959 24.7557 85.187 24.6657 85.463 24.6657C85.727 24.6657 85.949 24.7557 86.129 24.9357C86.309 25.1037 86.399 25.3197 86.399 25.5837C86.399 25.8357 86.309 26.0577 86.129 26.2497C85.949 26.4297 85.727 26.5197 85.463 26.5197Z" fill="white"/>
</svg>
