<svg width="40" height="40" viewBox="0 0 40 40" fill="none" xmlns="http://www.w3.org/2000/svg">
<path d="M35.2603 16.6809H35.2547C34.5009 16.6809 33.8381 16.1938 33.6004 15.4784C33.3832 14.8248 33.1203 14.192 32.8153 13.584C32.4767 12.909 32.5992 12.0945 33.1331 11.5604L33.1375 11.5561C33.8169 10.8767 33.8169 9.77538 33.1375 9.09605L30.9037 6.86229C30.2244 6.18296 29.123 6.18296 28.4437 6.86229L28.4393 6.86668C27.9054 7.40071 27.0908 7.52316 26.4157 7.18456C25.8077 6.87956 25.1749 6.61652 24.5213 6.39938C23.806 6.16171 23.3188 5.49885 23.3188 4.74514V4.73957C23.3189 3.77881 22.5401 3 21.5794 3H18.4204C17.4597 3 16.6809 3.77881 16.6809 4.7395V4.74508C16.6809 5.49885 16.1937 6.16165 15.4784 6.39931C14.8247 6.61652 14.192 6.87949 13.584 7.18449C12.9089 7.5231 12.0943 7.40058 11.5604 6.86661L11.556 6.86223C10.8767 6.1829 9.77531 6.1829 9.09598 6.86223L6.86229 9.09605C6.18296 9.77538 6.18296 10.8767 6.86229 11.5561L6.86668 11.5604C7.40071 12.0945 7.52316 12.909 7.18456 13.584C6.87956 14.192 6.61652 14.8248 6.39938 15.4784C6.16171 16.1938 5.49885 16.6809 4.74514 16.6809H4.73957C3.77881 16.6809 3 17.4597 3 18.4204V21.5794C3 22.5401 3.77881 23.3189 4.7395 23.3189H4.74508C5.49885 23.3189 6.16165 23.8061 6.39931 24.5214C6.61652 25.175 6.87949 25.8078 7.18449 26.4158C7.5231 27.0908 7.40058 27.9054 6.86661 28.4394L6.86223 28.4438C6.1829 29.1231 6.1829 30.2244 6.86223 30.9038L9.09605 33.1375C9.77538 33.8169 10.8767 33.8169 11.5561 33.1375L11.5604 33.1331C12.0945 32.5992 12.909 32.4767 13.584 32.8153C14.192 33.1203 14.8248 33.3833 15.4784 33.6004C16.1938 33.8381 16.6809 34.501 16.6809 35.2547V35.2603C16.6809 36.2209 17.4597 36.9998 18.4204 36.9998H21.5795C22.5402 36.9998 23.319 36.2209 23.319 35.2603V35.2547C23.319 34.5009 23.8061 33.8381 24.5214 33.6004C25.1751 33.3832 25.8079 33.1203 26.4159 32.8153C27.0909 32.4767 27.9055 32.5992 28.4395 33.1331L28.4438 33.1375C29.1232 33.8169 30.2245 33.8169 30.9038 33.1375L33.1376 30.9038C33.8169 30.2244 33.8169 29.1231 33.1376 28.4438L33.1332 28.4394C32.5992 27.9054 32.4767 27.0908 32.8153 26.4158C33.1203 25.8078 33.3834 25.175 33.6005 24.5214C33.8382 23.8061 34.501 23.3189 35.2547 23.3189H35.2603C36.221 23.3189 36.9998 22.5401 36.9998 21.5794V18.4204C36.9998 17.4597 36.2209 16.6809 35.2603 16.6809ZM19.9999 27.8474C15.6658 27.8474 12.1523 24.334 12.1523 19.9999C12.1523 15.6658 15.6658 12.1523 19.9999 12.1523C24.334 12.1523 27.8474 15.6658 27.8474 19.9999C27.8474 24.334 24.334 27.8474 19.9999 27.8474Z" fill="#E8E8E8"/>
<path d="M27.5703 7.3351C27.1852 7.41937 26.7864 7.37029 26.4158 7.18436C25.8078 6.87936 25.175 6.61632 24.5214 6.39918C23.8061 6.16151 23.3189 5.49865 23.3189 4.74494V4.73936C23.3189 4.67953 23.3141 4.60595 23.3081 4.54765L23.0994 4.237C21.4629 3.55415 19.8617 3.187 18.0131 3.04834C17.249 3.23175 16.6809 3.91899 16.6809 4.73936V4.74494C16.6809 5.49871 16.1937 6.16151 15.4784 6.39918C14.8247 6.61639 14.192 6.87936 13.584 7.18436C12.9089 7.52296 12.0943 7.40044 11.5604 6.86647L11.556 6.86209C10.8767 6.18276 9.77532 6.18276 9.09598 6.86209L6.86229 9.09585C6.18296 9.77518 6.18296 10.8765 6.86229 11.5559L6.86668 11.5602C7.40071 12.0943 7.52316 12.9088 7.18456 13.5838C6.87956 14.1918 6.61653 14.8246 6.39938 15.4782C6.16171 16.1936 5.49885 16.6807 4.74514 16.6807H4.73957C3.77881 16.6807 3 17.4595 3 18.4202V21.5792C3 22.5399 3.77881 23.3187 4.7395 23.3187H4.74508C5.49885 23.3187 6.16165 23.8059 6.39931 24.5212C6.61653 25.1748 6.87949 25.8075 7.18449 26.4156C7.5231 27.0906 7.40058 27.9052 6.86661 28.4392L6.86223 28.4436C6.1829 29.1229 6.1829 30.2242 6.86223 30.9036L9.09605 33.1373C9.77538 33.8167 10.8767 33.8167 11.5561 33.1373L11.5604 33.133C12.0944 32.5989 12.909 32.4765 13.584 32.8151C14.192 33.1201 14.8248 33.3831 15.4784 33.6003C16.1938 33.8379 16.6809 34.5008 16.6809 35.2545V35.2601C16.6809 36.0282 17.1614 36.6737 17.8521 36.9041L18.1241 36.9424C19.9727 36.8037 21.4744 36.4407 23.111 35.7578L23.3085 35.4518C23.3154 35.3888 23.3189 35.3249 23.3189 35.2601V35.2545C23.3189 34.5007 23.8061 33.8379 24.5214 33.6003C25.175 33.383 25.8078 33.1201 26.4158 32.8151C26.7864 32.6292 27.1854 32.5802 27.5703 32.6643L28.0447 32.6671C31.5956 29.5513 33.7231 25.0951 33.7231 19.9997C33.7231 14.9918 31.557 10.4902 28.1113 7.37913L27.5703 7.3351ZM19.9999 27.8473C15.6658 27.8473 12.1523 24.3338 12.1523 19.9997C12.1523 15.6656 15.6658 12.1521 19.9999 12.1521C24.334 12.1521 27.8474 15.6656 27.8474 19.9997C27.8474 24.3338 24.334 27.8473 19.9999 27.8473Z" fill="#163788"/>
<path d="M20.0012 9.80322C14.3698 9.80322 9.80469 14.3684 9.80469 19.9997C9.80469 25.631 14.3698 30.1962 20.0012 30.1962C25.6325 30.1962 30.1976 25.631 30.1976 19.9997C30.1976 14.3684 25.6325 9.80322 20.0012 9.80322ZM20.0012 26.9029C16.1886 26.9029 13.0979 23.8123 13.0979 19.9997C13.0979 16.1871 16.1886 13.0965 20.0012 13.0965C23.8137 13.0965 26.9044 16.1871 26.9044 19.9997C26.9044 23.8123 23.8137 26.9029 20.0012 26.9029Z" fill="#FFAA00"/>
<path d="M23.3095 4.54779C23.2141 3.67734 22.4767 3 21.5808 3H18.4218C18.2227 3 18.0316 3.03387 17.8535 3.09543C19.7841 3.27472 21.621 3.77668 23.3095 4.54779Z" fill="#3959A6"/>
<path d="M35.2623 16.6807H35.2567C34.5029 16.6807 33.8401 16.1935 33.6024 15.4782C33.3852 14.8246 33.1223 14.1918 32.8173 13.5838C32.4787 12.9087 32.6012 12.0942 33.1351 11.5602L33.1395 11.5558C33.8189 10.8765 33.8189 9.77513 33.1395 9.09579L30.9057 6.86204C30.2264 6.18271 29.125 6.18271 28.4457 6.86204L28.4413 6.86642C28.197 7.11073 27.8938 7.26778 27.5723 7.33511C31.0522 10.4444 33.2436 14.9658 33.2436 19.9997C33.2436 25.0336 31.0522 29.5549 27.5723 32.6643C27.8938 32.7315 28.197 32.8886 28.4413 33.133L28.4457 33.1373C29.125 33.8167 30.2264 33.8167 30.9057 33.1373L33.1395 30.9036C33.8188 30.2242 33.8188 29.1229 33.1395 28.4436L33.1351 28.4392C32.6011 27.9052 32.4786 27.0906 32.8172 26.4156C33.1222 25.8076 33.3852 25.1748 33.6024 24.5212C33.84 23.8059 34.5029 23.3187 35.2566 23.3187H35.2622C36.2229 23.3187 37.0017 22.5399 37.0017 21.5792V18.4202C37.0018 17.4594 36.2229 16.6807 35.2623 16.6807Z" fill="#3959A6"/>
<path d="M17.8535 36.9045C18.0316 36.9661 18.2227 36.9999 18.4218 36.9999H21.5808C22.4767 36.9999 23.2141 36.3226 23.3095 35.4521C21.621 36.2233 19.7841 36.7252 17.8535 36.9045Z" fill="#3959A6"/>
</svg>
