<svg width="40" height="40" viewBox="0 0 40 40" fill="none" xmlns="http://www.w3.org/2000/svg">
<path d="M22.8892 17.9478L17.4082 12.4668L13.8752 15.9998L19.3562 21.4808L22.8892 17.9478Z" fill="#FFAA00"/>
<path d="M20.7212 20.1148L15.2402 14.6338L13.8745 15.9996L19.3554 21.4805L20.7212 20.1148Z" fill="#DD9E20"/>
<path d="M22.4367 16.3569L37.6369 31.557C38.9433 32.8634 38.9243 35.0009 37.58 36.2833C36.2749 37.5277 34.198 37.4594 32.9227 36.184L17.766 21.0274C17.5467 20.8081 17.5467 20.453 17.766 20.2337L17.938 20.0618L21.471 16.5288L21.6429 16.3568C21.8623 16.1375 22.2173 16.1375 22.4367 16.3569Z" fill="#163788"/>
<path d="M34.2273 34.8795L19.0707 19.723C18.8514 19.5037 18.8514 19.1485 19.0707 18.9292L17.938 20.0619L17.766 20.2338C17.5467 20.4531 17.5467 20.8084 17.766 21.0276L32.9226 36.1842C34.198 37.4596 36.2748 37.5279 37.58 36.2834C37.8332 36.0418 38.0393 35.7699 38.1985 35.4788C36.9296 36.1691 35.2968 35.9491 34.2273 34.8795Z" fill="#112B6B"/>
<path d="M27.1027 4.17565C23.8735 5.60916 20.2299 8.92579 18.8893 11.2456L15.263 13.2746L12.9609 11.6631L14.9033 7.25668L14.9049 7.25513C15.8204 6.33887 16.4857 5.67357 16.5578 5.60218C19.276 2.8841 23.5803 2.10672 27.1027 4.17565Z" fill="#FFAA00"/>
<path d="M27.1018 4.17536C23.8726 5.60887 20.229 8.9255 18.8884 11.2453L17.6268 9.98372L17.4043 9.76039C17.567 9.40889 17.6698 9.18637 17.6905 9.14186C19.3081 5.65492 23.0821 3.44403 27.1018 4.17536Z" fill="#DD9E20"/>
<path d="M7.98636 12.4478L12.9038 13.6769L13.7491 18.2104L13.6151 18.4114C12.8245 18.0177 11.7115 18.2585 10.9057 19.0643C10.1049 19.8651 9.86213 20.9699 10.2471 21.7593L10.1612 21.7985L5.88262 20.9284L4.39844 16.0357L4.4414 15.9421C5.2295 16.3131 6.32166 16.0679 7.11549 15.2741C7.92254 14.467 8.16335 13.3502 7.76589 12.5595L7.98636 12.4478Z" fill="#DD9E20"/>
<path d="M4.44074 15.943L4.39778 16.0366L10.1606 21.7994L10.2465 21.7602C10.3198 21.9119 10.4172 22.0522 10.5373 22.176L7.53829 25.175L1 18.6367L3.99899 15.6377C4.12979 15.766 4.27829 15.8678 4.44074 15.943Z" fill="#FFAA00"/>
<path d="M8.79044 20.2942L8.72956 20.3698L10.425 22.0652L10.4944 22.0095C10.4883 22.0817 10.5018 22.1381 10.5358 22.176L7.53679 25.1749L5.61328 23.2514L8.61227 20.2524C8.65164 20.2895 8.71186 20.3028 8.79044 20.2942Z" fill="#DD9E20"/>
<path d="M12.8047 6.8324C13.2677 6.36935 14.0185 6.36972 14.4811 6.83321L14.9035 7.25653L17.6276 9.9843L18.8891 11.2458L19.3406 11.6973C19.8034 12.1601 19.8034 12.9102 19.3406 13.3729L18.8278 13.8857L18.8272 13.8852L15.2942 17.4181L15.2948 17.4187L14.0168 18.6967C13.8961 18.5798 13.7608 18.485 13.6149 18.4123L13.7488 18.2113L7.986 12.4485L7.76545 12.5603C7.69216 12.4137 7.5961 12.2785 7.47852 12.1584L12.8047 6.8324Z" fill="#FFAA00"/>
</svg>
