<svg width="40" height="40" viewBox="0 0 40 40" fill="none" xmlns="http://www.w3.org/2000/svg">
<path d="M26.0693 5.62335C26.0099 5.57804 25.46 5.16895 24.4804 4.7753C23.2184 4.2681 21.7703 4 20.2928 4C18.8153 4 17.3673 4.2681 16.1052 4.7753C15.1257 5.16895 14.5757 5.57804 14.5163 5.62342C14.218 5.85086 14.043 6.2045 14.043 6.57958V8.46609L15.2454 9.1092L16.4478 8.46609V7.26048C17.1077 6.92371 18.4274 6.40479 20.2928 6.40479C22.1582 6.40479 23.4778 6.92371 24.1377 7.26048V8.46602L25.3401 9.10913L26.5425 8.46602V6.57958C26.5427 6.20443 26.3676 5.85079 26.0693 5.62335Z" fill="#FFAA00"/>
<path d="M14.041 8.46631V9.79397L15.2435 10.4371L16.4459 9.79397V8.46631H14.041Z" fill="#FFAA00"/>
<path d="M26.5396 8.46631H24.1348V9.79397L25.3372 10.4371L26.5396 9.79397V8.46631Z" fill="#FFAA00"/>
<path d="M2.94727 23.0215V33.7036C2.94727 34.9718 3.97531 35.9998 5.24344 35.9998H35.3436C36.6117 35.9998 37.6397 34.9718 37.6397 33.7036V23.0215H2.94727Z" fill="#163788"/>
<path d="M2.94727 21.6939V23.0216C4.85486 24.5362 9.89653 27.4765 20.2935 27.4765C30.6905 27.4765 35.7321 24.5362 37.6397 23.0216V21.6938H2.94727V21.6939Z" fill="#112B6B"/>
<path d="M2.8469 20.9289C4.67511 22.4174 9.70978 25.4638 20.2928 25.4638C30.8759 25.4638 35.9105 22.4174 37.7387 20.9289C38.2747 20.4926 38.5856 19.1957 38.5856 18.5046V12.0896C38.5856 10.8215 37.5576 9.79346 36.2895 9.79346H4.29618C3.02804 9.79346 2 10.8215 2 12.0896V18.5046C2 19.1957 2.31098 20.4926 2.8469 20.9289Z" fill="#2C4A93"/>
<path d="M37.7387 20.2861C35.9105 21.7745 30.8759 24.821 20.2928 24.821C9.70978 24.821 4.67518 21.7744 2.8469 20.2861C2.31098 19.8498 2 19.1959 2 18.5049V19.8326C2 20.5237 2.31098 21.1775 2.8469 21.6138C4.67511 23.1022 9.70978 26.1487 20.2928 26.1487C30.8759 26.1487 35.9105 23.1022 37.7387 21.6138C38.2747 21.1775 38.5856 20.5237 38.5856 19.8326V18.5049C38.5856 19.1959 38.2747 19.8498 37.7387 20.2861Z" fill="#3959A6"/>
<path d="M20.2934 28.3585C21.4813 28.3585 22.4442 27.4764 22.4442 25.5646V24.2605C22.4442 23.8378 22.1015 23.4951 21.6789 23.4951H18.9079C18.4852 23.4951 18.1426 23.8378 18.1426 24.2605V25.5648C18.1425 27.4765 19.1055 28.3585 20.2934 28.3585Z" fill="#FFAA00"/>
<path d="M20.2934 27.7158C19.1055 27.7158 18.1426 26.7528 18.1426 25.5649V26.8927C18.1426 28.0806 19.1055 29.0435 20.2934 29.0435C21.4813 29.0435 22.4442 28.0806 22.4442 26.8927V25.5649C22.4442 26.7528 21.4813 27.7158 20.2934 27.7158Z" fill="#DD9E20"/>
</svg>
