<svg width="40" height="40" viewBox="0 0 40 40" fill="none" xmlns="http://www.w3.org/2000/svg">
<path d="M30.9969 32.3844C37.0729 26.3084 37.0729 16.4572 30.9969 10.3812C24.9209 4.30522 15.0698 4.30522 8.99377 10.3812C2.91776 16.4572 2.91776 26.3084 8.99377 32.3844C15.0698 38.4604 24.9209 38.4604 30.9969 32.3844Z" fill="#163788"/>
<path d="M26.352 7.17432C21.5637 9.67307 20.246 14.8416 23.2361 18.6756C23.1696 18.8799 23.0981 19.0624 23.0255 19.2105C21.9143 21.4747 23.7602 24.0992 26.2914 23.7711C27.716 23.5862 28.9308 23.1348 29.9749 22.3987C31.8199 22.6931 33.7578 22.5857 35.5448 22.0749C35.8298 15.5618 32.0777 9.73791 26.352 7.17432Z" fill="#2C4A93"/>
<path d="M35.0378 25.3965H29.0295C29.4198 23.6987 29.5018 22.2759 29.5018 21.3833C29.5018 20.4906 29.4198 19.0679 29.0295 17.3701H35.0378C34.9321 16.973 34.811 16.5822 34.6753 16.1982H28.7203C28.4669 15.3484 28.1345 14.4504 27.6988 13.5304C26.2536 10.4789 24.0409 7.90352 21.1153 5.86242C20.747 5.83633 20.3753 5.82227 20.0004 5.82227C19.6254 5.82227 19.2538 5.83633 18.8855 5.86242C15.9598 7.90344 13.7472 10.4789 12.302 13.5304C11.8663 14.4504 11.5338 15.3484 11.2805 16.1982H5.32539C5.18969 16.5822 5.06859 16.973 4.96289 17.3701H10.9713C10.5809 19.0679 10.4989 20.4906 10.4989 21.3833C10.4989 22.2759 10.5809 23.6987 10.9713 25.3965H4.96297C5.06867 25.7936 5.18977 26.1844 5.32547 26.5684H11.2805C11.5339 27.4182 11.8663 28.3162 12.302 29.2362C13.7472 32.2876 15.9598 34.863 18.8855 36.9041C19.2538 36.9302 19.6255 36.9443 20.0004 36.9443C20.3754 36.9443 20.747 36.9302 21.1153 36.9041C24.0409 34.8631 26.2536 32.2876 27.6988 29.2362C28.1345 28.3162 28.467 27.4182 28.7203 26.5684H34.6753C34.811 26.1844 34.9321 25.7936 35.0378 25.3965ZM19.4145 35.8438C16.728 33.9366 14.6942 31.5494 13.3612 28.7346C13.0093 27.9916 12.7297 27.2645 12.5069 26.5684H19.4145V35.8438ZM19.4145 25.3965H12.1752C11.7561 23.6929 11.6708 22.2627 11.6708 21.3833C11.6708 20.5039 11.7561 19.0737 12.1752 17.3701H19.4145V25.3965ZM19.4145 16.1982H12.5069C12.7297 15.5021 13.0092 14.775 13.3612 14.0319C14.6943 11.2172 16.728 8.82992 19.4145 6.92273V16.1982ZM20.5863 6.92273C23.2727 8.83 25.3066 11.2172 26.6396 14.0319C26.9915 14.7749 27.2711 15.502 27.4939 16.1982H20.5863V6.92273ZM26.6396 28.7345C25.3065 31.5493 23.2727 33.9366 20.5863 35.8437V26.5684H27.4939C27.2712 27.2644 26.9916 27.9916 26.6396 28.7345ZM27.8256 25.3965H20.5863V17.3701H27.8256C28.2447 19.0736 28.33 20.5039 28.33 21.3833C28.33 22.2627 28.2447 23.6929 27.8256 25.3965Z" fill="white"/>
<path d="M32.028 8.24609C27.6255 8.24609 24.0566 10.9099 24.0566 14.1959C24.0566 15.5839 24.6934 16.8609 25.7609 17.873C25.8358 17.9441 25.8706 18.047 25.8519 18.1485C25.727 18.8241 25.5103 19.6268 25.1926 20.2742C24.9227 20.8241 25.3727 21.4555 25.9802 21.3767C27.1684 21.2225 28.2661 20.8141 29.2005 19.9139C29.2766 19.8406 29.3836 19.8109 29.4861 19.8366C30.2845 20.037 31.1391 20.1459 32.028 20.1459C36.4305 20.1459 39.9995 17.482 39.9995 14.196C39.9995 10.9099 36.4305 8.24609 32.028 8.24609Z" fill="#FFAA00"/>
<path d="M34.5586 16.228H29.5C29.1764 16.228 28.9141 15.9657 28.9141 15.6421C28.9141 15.3185 29.1764 15.0562 29.5 15.0562H34.5586C34.8822 15.0562 35.1445 15.3185 35.1445 15.6421C35.1445 15.9657 34.8822 16.228 34.5586 16.228Z" fill="#FDDA95"/>
<path d="M35.7606 13.3364H28.2969C27.9733 13.3364 27.7109 13.0741 27.7109 12.7505C27.7109 12.4269 27.9733 12.1646 28.2969 12.1646H35.7606C36.0842 12.1646 36.3466 12.4269 36.3466 12.7505C36.3466 13.0741 36.0842 13.3364 35.7606 13.3364Z" fill="#FDDA95"/>
</svg>
