<svg width="40" height="40" viewBox="0 0 40 40" fill="none" xmlns="http://www.w3.org/2000/svg">
<path d="M20 4V36C28.8366 36 36 28.8366 36 20C36 11.1634 28.8366 4 20 4Z" fill="#10307D"/>
<path d="M34.0684 20C34.0684 11.1634 27.7698 4 20 4C11.1634 4 4 11.1634 4 20C4 23.8849 7.14933 27.0342 11.0342 27.0342C12.101 27.0342 12.9658 27.899 12.9658 28.9658C12.9658 32.8507 16.1151 36 20 36C27.7698 36 34.0684 28.8366 34.0684 20ZM11.0342 24.1368C8.74952 24.1368 6.89739 22.2847 6.89739 20C6.89739 17.7153 8.74952 15.8632 11.0342 15.8632C13.3189 15.8632 15.171 17.7153 15.171 20C15.171 22.2847 13.3189 24.1368 11.0342 24.1368Z" fill="#2C4A93"/>
<path d="M22.0488 6.78025C21.483 6.21449 20.7415 5.93164 20 5.93164L20.5128 11.2078C21.0289 11.4024 21.6333 11.2932 22.0488 10.8778C23.1802 9.74627 23.1802 7.91178 22.0488 6.78025Z" fill="#DD9E20"/>
<path d="M20.6839 6.78025C20.4953 6.21449 20.2481 5.93164 20.0009 5.93164C19.2594 5.93164 18.5179 6.21449 17.9522 6.78025C16.8206 7.91178 16.8206 9.74627 17.9522 10.8778C18.5179 11.4436 19.4352 11.4436 20.0009 10.8778C20.1513 11.0281 20.3269 11.1373 20.5137 11.2078C20.5757 11.1373 20.6339 11.0276 20.6839 10.8778C21.061 9.74627 21.061 7.91178 20.6839 6.78025Z" fill="#FFAA00"/>
<path d="M22.0488 33.2201C21.483 33.7859 20.7415 34.0688 20 34.0688L20.5128 28.7926C21.0289 28.598 21.6333 28.7072 22.0488 29.1226C23.1802 30.2541 23.1802 32.0886 22.0488 33.2201Z" fill="white"/>
<path d="M20.6839 33.2201C20.4953 33.7859 20.2481 34.0687 20.0009 34.0687C19.2594 34.0687 18.5179 33.7859 17.9522 33.2201C16.8206 32.0886 16.8206 30.2541 17.9522 29.1226C18.5179 28.5568 19.4352 28.5568 20.0009 29.1226C20.1513 28.9722 20.3269 28.863 20.5137 28.7926C20.5757 28.863 20.6339 28.9727 20.6839 29.1226C21.061 30.2541 21.061 32.0886 20.6839 33.2201Z" fill="white"/>
<path d="M27.8984 30.7962V25.0015C29.4986 25.0015 30.7958 26.2987 30.7958 27.8989C30.7958 29.4991 29.4986 30.7962 27.8984 30.7962Z" fill="white"/>
<path d="M28.8651 27.8989C28.8651 29.4991 28.4327 30.7962 27.8993 30.7962C26.2991 30.7962 25.002 29.4991 25.002 27.8989C25.002 27.0988 25.6505 26.4502 26.4506 26.4502C26.4506 25.6501 27.0992 25.0015 27.8993 25.0015C28.4327 25.0015 28.8651 26.2987 28.8651 27.8989Z" fill="white"/>
<path d="M33.2207 17.9516C32.6549 17.3859 31.9134 17.103 31.1719 17.103V22.8978C31.9134 22.8978 32.6549 22.6149 33.2207 22.0492C34.3521 20.9177 34.3521 19.0832 33.2207 17.9516Z" fill="#DD9E20"/>
<path d="M32.1381 20.0004C32.1381 18.4002 31.7057 17.103 31.1723 17.103C30.4308 17.103 29.6893 17.3859 29.1235 17.9516C28.5578 18.5174 28.5578 19.4346 29.1235 20.0004C28.5578 20.5662 28.5578 21.4834 29.1235 22.0492C29.6893 22.6149 30.4308 22.8978 31.1723 22.8978C31.7057 22.8978 32.1381 21.6006 32.1381 20.0004Z" fill="#FFAA00"/>
<path d="M27.8984 9.20361V14.9984C29.4986 14.9984 30.7958 13.7012 30.7958 12.101C30.7958 10.5008 29.4986 9.20361 27.8984 9.20361Z" fill="#AA172D"/>
<path d="M28.8651 12.101C28.8651 10.5008 28.4327 9.20361 27.8993 9.20361C26.2991 9.20361 25.002 10.5008 25.002 12.101C25.002 12.9011 25.6505 13.5497 26.4506 13.5497C26.4506 14.3498 27.0992 14.9984 27.8993 14.9984C28.4327 14.9984 28.8651 13.7012 28.8651 12.101Z" fill="#CC1D37"/>
</svg>
