<svg width="40" height="40" viewBox="0 0 40 40" fill="none" xmlns="http://www.w3.org/2000/svg">
<path d="M36.0649 12.608H34.2881C33.0254 9.53679 30.805 6.9618 27.9969 5.25313C19.8169 0.295999 9.23205 3.85887 5.63488 12.608H3.85808C2.83227 12.608 2 13.4403 2 14.4661V20.1952C2 21.221 2.83227 22.0533 3.85808 22.0533H4.88932C5.76309 25.7676 7.97475 28.9652 10.9875 31.1115H7.58974C6.93941 31.1115 6.41295 31.6379 6.41295 32.2882V35.6638C6.41295 36.3141 6.93941 36.8406 7.58974 36.8406H32.3332C32.9836 36.8406 33.51 36.3141 33.51 35.6638V32.2882C33.51 31.6379 32.9836 31.1115 32.3332 31.1115H28.9355C31.9482 28.9652 34.1599 25.7676 35.0336 22.0533H36.0649C37.0907 22.0533 37.923 21.221 37.923 20.1952V14.4661C37.923 13.4403 37.0907 12.608 36.0649 12.608Z" fill="#163788"/>
<path d="M37.9239 14.4665V20.1956C37.9239 21.2214 37.0917 22.0537 36.0659 22.0537H35.0346C35.7614 18.9692 35.5358 15.6388 34.2891 12.6084H36.0659C37.0917 12.6084 37.9239 13.4407 37.9239 14.4665Z" fill="#163788"/>
<path d="M3.85808 12.6084H5.63488C4.39012 15.6338 4.16142 18.9643 4.88932 22.0537H3.85808C2.83227 22.0537 2 21.2214 2 20.1956V14.4665C2 13.4407 2.83227 12.6084 3.85808 12.6084Z" fill="#163788"/>
<path d="M33.5111 32.2886V35.6641C33.5111 36.3144 32.9847 36.8409 32.3343 36.8409H7.59085C6.94052 36.8409 6.41406 36.3144 6.41406 35.6641V32.2886C6.41406 31.6383 6.94052 31.1118 7.59085 31.1118H32.3343C32.9847 31.1118 33.5111 31.6383 33.5111 32.2886Z" fill="#163788"/>
<path d="M3.78147 14.0017C3.43943 14.0017 3.16211 13.7243 3.16211 13.3823V7.1887C3.16211 6.84666 3.43943 6.56934 3.78147 6.56934C4.12351 6.56934 4.40083 6.84666 4.40083 7.1887V13.3823C4.40083 13.7243 4.12351 14.0017 3.78147 14.0017Z" fill="#FFAA00"/>
<path d="M14.1637 9.48562C13.85 9.62947 13.4842 9.49236 13.3415 9.18369C12.7913 7.99273 12.337 6.74874 11.9876 5.48029C11.9507 5.3462 12.0084 5.20289 12.1284 5.13252C12.3175 5.02157 12.5089 4.91442 12.7022 4.81177C12.8773 4.71886 13.0933 4.81161 13.1461 5.00261C13.3136 5.60796 13.645 6.8864 14.4656 8.66342C14.6096 8.97465 14.4741 9.3424 14.1637 9.48562Z" fill="#B5D5F5"/>
<path d="M27.7952 5.13257C27.9152 5.20295 27.9729 5.34625 27.936 5.48035C27.5866 6.7488 27.1323 7.99286 26.5821 9.18374C26.4397 9.49195 26.0741 9.62975 25.7599 9.48568C25.4495 9.34245 25.314 8.9747 25.458 8.66347C26.2837 6.87538 26.6129 5.60538 26.7782 5.00359C26.8307 4.81229 27.047 4.71923 27.2223 4.81229C27.4153 4.91479 27.6064 5.02179 27.7952 5.13257Z" fill="#3959A6"/>
<path d="M19.9611 7.49805C26.562 7.49805 31.9125 12.0016 31.9125 18.6017C31.9125 25.2025 26.562 27.5499 19.9611 27.5499C13.3603 27.5499 8.00977 25.2025 8.00977 18.6017C8.00977 12.0016 13.3603 7.49805 19.9611 7.49805Z" fill="white"/>
<path d="M12.9152 34.5956H9.58616C9.24412 34.5956 8.9668 34.3183 8.9668 33.9763C8.9668 33.6343 9.24412 33.3569 9.58616 33.3569H12.9152C13.2573 33.3569 13.5346 33.6343 13.5346 33.9763C13.5346 34.3183 13.2573 34.5956 12.9152 34.5956Z" fill="#FFAA00"/>
<path d="M16.5546 34.5956H16.0901C15.748 34.5956 15.4707 34.3183 15.4707 33.9763C15.4707 33.6343 15.748 33.3569 16.0901 33.3569H16.5546C16.8966 33.3569 17.1739 33.6343 17.1739 33.9763C17.1739 34.3183 16.8966 34.5956 16.5546 34.5956Z" fill="#FFAA00"/>
<path d="M29.9481 34.5957C29.4484 34.5957 29.1607 34.037 29.4332 33.6326C29.6447 33.3121 30.1082 33.2597 30.3863 33.5381C30.7732 33.9252 30.5012 34.5957 29.9481 34.5957Z" fill="#CC1D37"/>
<path d="M26.8523 34.5952C26.408 34.5952 26.1121 34.1422 26.2802 33.7389C26.5142 33.1783 27.3416 33.2555 27.4593 33.855C27.5388 34.2251 27.249 34.5952 26.8523 34.5952Z" fill="#CC1D37"/>
<path d="M18.5879 3.06708C20.7492 2.87631 21.3435 5.95957 19.2602 6.56593C13.1834 8.33459 8.63755 13.706 8.15545 20.3295C8.00007 22.4646 4.86657 22.5492 4.59831 20.4253C3.49778 11.7132 9.86915 3.83656 18.5879 3.06708Z" fill="#3959A6"/>
<path d="M24.2058 8.16316C25.5972 8.62103 25.2147 10.6824 23.7516 10.6116C16.8916 10.2797 11.0786 14.8331 11.1067 21.7478C11.1121 23.1102 9.2423 23.5202 8.70283 22.2691C8.2541 21.2285 8.00977 20.0122 8.00977 18.6017C8.00977 12.0016 13.3603 7.49805 19.9611 7.49805C21.456 7.49805 22.8868 7.72907 24.2058 8.16316Z" fill="#F1F3FA"/>
<path d="M5.63488 12.6084C5.43591 13.0915 5.26094 13.5862 5.11152 14.0925C4.1879 14.2002 3.47006 14.9852 3.47098 15.9375C3.473 18.0389 3.47261 19.3747 3.4706 20.2379C3.46835 21.1802 2.05056 21.233 2.00248 20.292C1.99985 20.2412 2 14.4585 2 14.4665C2 13.4403 2.83188 12.6084 3.85809 12.6084H5.63488Z" fill="#3959A6"/>
<path d="M32.4061 31.114C33.3918 31.1733 33.324 32.6602 32.3365 32.6602H9.91345C9.26351 32.6602 8.73667 33.1871 8.73667 33.837V35.6951C8.73667 36.3279 8.22368 36.8409 7.59085 36.8409C6.94091 36.8409 6.41406 36.3141 6.41406 35.6641V32.2886C6.41406 31.6387 6.94091 31.1118 7.59085 31.1118C7.59085 31.1118 32.3823 31.1126 32.4061 31.114Z" fill="#3959A6"/>
</svg>
