<svg width="112" height="112" viewBox="0 0 112 112" fill="none" xmlns="http://www.w3.org/2000/svg">
<g clip-path="url(#clip0_1256_12844)">
<path d="M63.3687 18.3008L2.49629 38.5943C-1.16479 39.8149 -3.14334 43.7723 -1.92282 47.4334L26.545 132.825C27.7655 136.486 31.723 138.465 35.384 137.244L96.2565 116.951C99.9178 115.73 101.896 111.773 100.676 108.112L72.2078 22.7199C70.9875 19.0588 67.03 17.0802 63.3687 18.3008Z" fill="#E7EAF4"/>
<path d="M7.9747 25.8805C4.20901 27.1359 2.17402 31.2062 3.42942 34.9719L32.7101 122.802C33.9654 126.568 38.0358 128.603 41.8015 127.347L104.352 106.495C108.117 105.239 110.152 101.169 108.897 97.4031L84.3526 23.78C83.8959 22.4101 82.9137 21.2775 81.6219 20.6319L60.4743 10.0592C59.1828 9.41346 57.6873 9.30713 56.3174 9.76382L7.97462 25.8802L7.9747 25.8805Z" fill="#F1F3FA"/>
<path d="M81.6192 20.6317L60.4716 10.059C59.8827 9.76455 59.2516 9.58373 58.6094 9.51587L62.4773 21.1179C63.7326 24.8836 67.803 26.9186 71.5687 25.6632L83.1708 21.7954C82.7315 21.3225 82.2081 20.9261 81.6192 20.6317Z" fill="#E7EAF4"/>
<path d="M82.4598 65.1807L34.5206 81.1625C33.5455 81.4876 32.4917 80.9606 32.1667 79.9857C31.8417 79.0106 32.3686 77.9566 33.3435 77.6316L81.2827 61.6497C82.2578 61.3246 83.3116 61.8517 83.6366 62.8268C83.9617 63.8016 83.4349 64.8556 82.4598 65.1807Z" fill="#E7EAF4"/>
<path d="M86.4442 77.1303L38.505 93.1121C37.5299 93.4372 36.4761 92.9102 36.1511 91.9353C35.8261 90.9604 36.353 89.9061 37.3279 89.5811L85.2671 73.5993C86.2422 73.2742 87.296 73.8012 87.621 74.7764C87.9461 75.7515 87.4193 76.8052 86.4442 77.1303Z" fill="#E7EAF4"/>
<path d="M90.4286 89.0786L42.4895 105.06C41.5143 105.386 40.4606 104.859 40.1355 103.883C39.8104 102.908 40.3374 101.854 41.3122 101.529L89.2514 85.5474C90.2265 85.2223 91.2803 85.7494 91.6054 86.7245C91.9305 87.6996 91.4038 88.7535 90.4286 89.0786Z" fill="#E7EAF4"/>
<path d="M23.6079 25.4431C20.9141 26.3412 19.4531 29.2635 20.3511 31.9574L21.6099 35.7331C21.9349 36.7082 22.9889 37.2349 23.9638 36.9099C24.9386 36.5849 25.4656 35.5309 25.1406 34.556L23.8819 30.7806C23.6329 30.0335 24.0381 29.2234 24.7849 28.9744C25.5318 28.7254 26.3421 29.1305 26.5911 29.8774L29.1005 37.4046C29.9816 40.0474 28.5483 42.9146 25.9052 43.7958C23.2622 44.6769 20.3952 43.2436 19.5141 40.6005L13.2824 21.908C12.4012 19.2649 13.8346 16.3979 16.4777 15.5168C19.1205 14.6357 21.9877 16.069 22.8688 18.7121L23.5309 20.698L27.0619 19.5209L26.3998 17.5349C24.8698 12.9448 19.8908 10.4556 15.3007 11.9858C10.7107 13.516 8.22144 18.495 9.75166 23.085L15.9833 41.7776C17.5135 46.3674 22.4926 48.8569 27.0826 47.3267C31.6724 45.7965 34.1619 40.8174 32.6317 36.2274L30.1223 28.7002C29.2241 26.0061 26.3018 24.5451 23.6079 25.4431Z" fill="#E7EAF4"/>
<path d="M107.77 16.3621C107.643 16.4063 107.494 16.3871 107.386 16.2826C105.142 13.9397 101.397 13.8215 99.0456 16.0579C98.8772 16.1874 98.7281 16.1683 98.5347 16.0226C98.5125 15.9593 98.5125 15.9593 98.4904 15.896C98.4461 15.7695 98.4653 15.6208 98.5702 15.5134C100.921 13.277 101.04 9.54521 98.7957 7.20227C98.7736 7.13899 98.7736 7.13899 98.7515 7.07571C98.685 6.88588 98.7677 6.71519 98.9582 6.64899C99.0852 6.60486 99.2344 6.62401 99.3422 6.7285C101.586 9.07144 105.331 9.18961 107.682 6.95318C107.851 6.82371 108 6.84286 108.193 6.98856C108.215 7.05184 108.215 7.05184 108.238 7.11511C108.282 7.24167 108.263 7.39029 108.158 7.4977C105.807 9.73414 105.688 13.4659 107.932 15.8089C107.954 15.8721 107.954 15.8721 107.977 15.9354C108.021 16.062 108.002 16.2106 107.897 16.318C107.897 16.318 107.833 16.3401 107.77 16.3621ZM101.019 14.1658C102.733 13.57 104.628 13.6924 106.277 14.5387C105.422 12.7066 105.434 10.5022 106.452 8.72916C104.614 9.58096 102.401 9.56892 100.622 8.55482C101.436 10.4723 101.401 12.6134 100.384 14.3864C100.574 14.3203 100.828 14.232 101.019 14.1658Z" fill="#F1F3FA"/>
</g>
<defs>
<clipPath id="clip0_1256_12844">
<rect width="120" height="120" fill="white" transform="translate(-8.92188 0.108154)"/>
</clipPath>
</defs>
</svg>
