<svg width="120" height="120" viewBox="0 0 120 120" fill="none" xmlns="http://www.w3.org/2000/svg">
<g clip-path="url(#clip0_1256_12881)">
<path d="M23.8809 75.8632C20.1411 77.2243 18.2128 81.3595 19.5739 85.0991L22.4711 100.643L29.8051 113.209C31.1662 116.949 35.3014 118.877 39.0412 117.516C42.7809 116.155 44.7092 112.019 43.3481 108.28L33.117 80.1699C31.7558 76.4301 27.6207 74.502 23.8809 75.8632Z" fill="#E7EAF4"/>
<path d="M41.8823 115.614C41.125 116.444 40.1624 117.106 39.0351 117.516C35.2949 118.877 31.1618 116.948 29.8005 113.208L19.8498 98.4224L19.5697 85.0992C18.2084 81.359 20.1346 77.2246 23.8748 75.8633C25.0021 75.453 26.1648 75.3412 27.2786 75.4904C25.5219 77.4064 24.8697 80.2111 25.8207 82.8241L36.0515 110.933C37.0025 113.546 39.305 115.275 41.8823 115.614Z" fill="#F1F3FA"/>
<path d="M109.842 106.817L79.2408 119.027C77.3013 119.733 75.0898 118.85 74.2934 116.946C73.443 114.913 74.4698 112.605 76.5168 111.86L103.609 101.999C105.598 101.275 107.516 98.5898 106.792 96.6005L99.4566 79.3839C98.7507 77.4444 99.6336 75.2329 101.538 74.4365C103.571 73.5861 105.879 74.6129 106.624 76.6599L114.579 98.5166C115.937 102.247 113.572 105.459 109.842 106.817Z" fill="#F1F3FA"/>
<path d="M103.427 56.4302L100.204 56.0849C99.7405 56.0352 99.3463 55.7223 99.1909 55.2824C98.2585 52.6422 97.4461 50.5338 97.3289 50.1602C94.9219 43.547 91.1651 37.8077 86.4825 33.1396C74.1167 20.8124 52.2329 17.583 34.7565 23.833C34.7565 23.833 1.95362 58.0188 10.8255 81.9778L12.546 86.7049C12.7292 87.2083 12.6215 87.7708 12.2643 88.1703C11.5722 88.9444 11.3018 90.1614 11.134 90.3784C9.85268 91.7108 9.44111 93.6563 10.0733 95.3933L14.5895 109.457C15.2218 111.194 16.7874 112.42 18.6255 112.616L30.3189 114.631C29.0348 111.103 18.5599 82.3235 17.5648 79.5893C10.2622 59.5256 20.3741 37.1263 40.4139 29.7624C60.4986 22.5222 82.6429 33.1815 89.9454 53.2449L102.7 88.2867L110.344 79.6637C111.626 78.3313 112.678 76.3634 112.046 74.6264L112.218 72.6536L107.463 59.59C106.831 57.853 105.265 56.6272 103.427 56.4302Z" fill="#E7EAF4"/>
<path d="M82.7168 54.4481C86.4566 53.0869 90.5918 55.0152 91.9529 58.7548L99.1923 73.0399L102.184 86.8646C103.545 90.6044 101.617 94.7394 97.8771 96.1006C94.1373 97.4618 90.0021 95.5335 88.641 91.7939L78.4099 63.684C77.0489 59.9442 78.9771 55.8093 82.7168 54.4481Z" fill="#E7EAF4"/>
<path d="M98.6184 93.5843C99.2806 93.8931 99.9912 94.1017 100.725 94.1981C99.9675 95.0282 99.0049 95.6901 97.8776 96.1004C96.0086 96.7806 94.0385 96.6388 92.3673 95.8595C90.6962 95.0802 89.3212 93.6623 88.6409 91.7932L78.4101 63.6844C77.0488 59.9442 78.9771 55.809 82.7173 54.4477C83.8445 54.0374 85.0073 53.9257 86.1211 54.0748C84.3644 55.9908 83.7101 58.7963 84.6611 61.4092L94.8919 89.518C95.5722 91.3871 96.9472 92.805 98.6184 93.5843Z" fill="#E7EAF4"/>
<path d="M86.4845 33.1395C74.1189 20.8131 55.295 15.9556 37.819 22.2054L37.8175 22.2012C20.5844 28.2565 9.15592 44.191 7.28421 61.5389C6.5368 68.4583 7.30862 75.6033 9.83954 82.4338L11.5596 87.1596C11.7431 87.6638 11.6344 88.2273 11.277 88.6264C10.5861 89.3993 9.45469 90.4789 9.28804 90.6953C8.0057 92.0281 7.59518 93.9732 8.22692 95.7089L13.4636 110.097C14.0961 111.834 15.6609 113.061 17.5 113.257L30.3224 114.631L28.7684 110.362L17.9005 109.508C17.496 109.467 17.1454 109.191 17.0059 108.807L11.7692 94.4196C11.3812 93.1943 13.4383 92.123 14.0883 91.1379C15.3727 89.7006 15.7616 87.6831 15.1018 85.8703L13.3818 81.1445C11.4127 75.8442 10.5584 70.2266 10.8281 64.5461C10.8578 63.9184 11.5193 63.52 12.0882 63.7868C13.108 64.2654 14.2368 64.7415 15.2233 64.7704C15.7786 49.511 25.256 35.3343 40.416 29.7622C55.6756 24.2625 72.1229 29.093 82.3457 40.531C85.5808 44.1484 88.1921 48.4248 89.947 53.2464L102.701 88.2876L111.64 78.993C112.923 77.6603 113.333 75.7151 112.701 73.9773L112.219 72.6542L105.656 79.7216C104.979 80.4505 103.771 80.2059 103.431 79.2714L93.4893 51.9571C91.5018 46.4966 88.5182 41.6814 84.8195 37.6454C84.567 37.3699 84.5096 36.9679 84.6809 36.6358L86.4845 33.1395Z" fill="#F1F3FA"/>
<path d="M14.7538 60.1266C16.1492 60.7773 17.8028 59.977 18.1299 58.4723C18.8683 55.0765 20.0898 51.8068 21.7461 48.7681C25.82 41.293 32.5231 35.2135 41.1329 32.0798C49.3417 29.092 57.9445 29.2696 65.5971 31.9862C69.3088 33.3038 72.797 35.2187 75.9084 37.6593C77.1089 38.6011 78.8654 38.2379 79.5652 36.8819L83.2899 29.6656C83.8356 28.6081 83.5303 27.3102 82.5705 26.6064C77.6384 22.9905 72.0664 20.318 66.1646 18.7338C56.7751 16.2131 46.5511 16.4464 36.7422 20.0165C25.507 24.1058 16.6685 31.8987 11.1027 41.5173C8.86615 45.382 7.15809 49.5414 6.03501 53.8738C5.74208 55.0036 6.29477 56.1824 7.35251 56.6755L14.7538 60.1266Z" fill="#E7EAF4"/>
<path d="M83.6137 118.672L73.2695 122.474C72.1187 122.893 70.8663 122.355 70.4722 121.272L67.8107 115.201C67.4165 114.118 68.0299 112.901 69.1807 112.482L69.9627 111.434L73.059 110.307L75.233 110.874L76.1845 109.169L80.5298 107.588C81.6807 107.169 82.933 107.707 83.3272 108.79L85.564 114.936L85.564 116.808C85.9582 117.891 84.7645 118.253 83.6137 118.672Z" fill="#E7EAF4"/>
<path d="M85.7519 115.444L86.2827 116.903C86.7014 118.053 86.1097 119.325 84.9575 119.745L73.4802 122.406C72.33 122.824 71.2461 123.363 70.6078 122.725L67.3912 114.732C66.9718 113.579 67.5663 112.308 68.7165 111.89L69.9667 111.435L72.3435 117.965C72.7621 119.115 74.0354 119.709 75.1856 119.29L85.7519 115.444Z" fill="#E7EAF4"/>
<path d="M73.0625 110.307L76.188 109.17L80.3276 120.543L77.2021 121.681L73.0625 110.307Z" fill="#E7EAF4"/>
</g>
<defs>
<clipPath id="clip0_1256_12881">
<rect width="120" height="120" fill="white"/>
</clipPath>
</defs>
</svg>
