<svg width="188" height="188" viewBox="0 0 188 188" fill="none" xmlns="http://www.w3.org/2000/svg">
<g clip-path="url(#clip0_1349_7104)">
<path d="M113.252 28.5018L17.8856 60.295C12.1499 62.2072 9.05017 68.4072 10.9623 74.1429L55.5618 207.924C57.474 213.659 63.6741 216.759 69.4098 214.847L164.777 183.054C170.513 181.141 173.612 174.942 171.7 169.206L127.1 35.4251C125.189 29.6893 118.988 26.5896 113.252 28.5018Z" fill="#E7EAF4"/>
<path d="M26.4635 40.3764C20.5639 42.3432 17.3758 48.7201 19.3425 54.6197L65.2155 192.22C67.1823 198.12 73.5592 201.308 79.4588 199.341L177.454 166.672C183.354 164.705 186.542 158.328 184.575 152.429L146.122 37.0858C145.407 34.9396 143.868 33.1652 141.844 32.1537L108.713 15.5897C106.689 14.5781 104.347 14.4116 102.2 15.127L26.4634 40.3761L26.4635 40.3764Z" fill="#F1F3FA"/>
<path d="M141.846 32.1533L108.714 15.5894C107.792 15.1281 106.803 14.8448 105.797 14.7385L111.857 32.9151C113.823 38.8147 120.2 42.0028 126.1 40.0361L144.276 33.9764C143.588 33.2356 142.768 32.6146 141.846 32.1533Z" fill="#E7EAF4"/>
<path d="M143.16 101.947L68.0552 126.985C66.5276 127.494 64.8766 126.669 64.3675 125.141C63.8582 123.614 64.6837 121.963 66.2111 121.453L141.316 96.4151C142.843 95.9058 144.494 96.7315 145.004 98.2592C145.513 99.7865 144.688 101.438 143.16 101.947Z" fill="#E7EAF4"/>
<path d="M149.402 120.668L74.2974 145.706C72.7697 146.216 71.1188 145.39 70.6097 143.863C70.1005 142.335 70.9259 140.684 72.4532 140.174L147.558 115.136C149.086 114.627 150.737 115.453 151.246 116.98C151.755 118.508 150.93 120.159 149.402 120.668Z" fill="#E7EAF4"/>
<path d="M155.644 139.387L80.5397 164.425C79.0121 164.935 77.3611 164.109 76.8518 162.581C76.3425 161.053 77.1681 159.402 78.6954 158.893L153.8 133.855C155.328 133.345 156.979 134.171 157.488 135.699C157.997 137.227 157.172 138.878 155.644 139.387Z" fill="#E7EAF4"/>
<path d="M50.9543 39.6915C46.7339 41.0985 44.445 45.6768 45.8519 49.8972L47.8239 55.8124C48.3332 57.3401 49.9844 58.1653 51.5117 57.6561C53.039 57.1469 53.8646 55.4956 53.3554 53.9683L51.3835 48.0535C50.9933 46.883 51.6281 45.6139 52.7982 45.2238C53.9683 44.8337 55.2378 45.4684 55.6279 46.6385L59.5593 58.4311C60.9396 62.5715 58.6941 67.0635 54.5534 68.444C50.4126 69.8244 45.921 67.5788 44.5405 63.438L34.7776 34.1531C33.3971 30.0123 35.6427 25.5207 39.7835 24.1402C43.9239 22.7599 48.4159 25.0054 49.7963 29.1462L50.8336 32.2575L56.3654 30.4133L55.3282 27.302C52.9312 20.1108 45.1307 16.2109 37.9397 18.6083C30.7486 21.0056 26.8488 28.8061 29.2461 35.9971L39.009 65.2821C41.4063 72.4728 49.2069 76.373 56.3979 73.9757C63.5886 71.5785 67.4888 63.7779 65.0915 56.5868L61.1601 44.7942C59.753 40.5735 55.1746 38.2845 50.9543 39.6915Z" fill="#E7EAF4"/>
<path d="M182.822 25.4646C182.623 25.5337 182.389 25.5037 182.22 25.34C178.704 21.6694 172.837 21.4843 169.154 24.988C168.89 25.1909 168.656 25.1609 168.353 24.9326C168.319 24.8335 168.319 24.8335 168.284 24.7343C168.215 24.5361 168.245 24.3032 168.409 24.1349C172.092 20.6312 172.278 14.7847 168.762 11.1141C168.728 11.015 168.728 11.015 168.693 10.9159C168.589 10.6185 168.718 10.351 169.017 10.2473C169.216 10.1782 169.449 10.2082 169.618 10.3719C173.134 14.0425 179.001 14.2276 182.685 10.7239C182.948 10.5211 183.182 10.5511 183.485 10.7793C183.52 10.8785 183.52 10.8785 183.555 10.9776C183.624 11.1759 183.594 11.4087 183.429 11.577C179.746 15.0807 179.56 20.9272 183.076 24.5978C183.111 24.6969 183.111 24.6969 183.145 24.7961C183.215 24.9943 183.185 25.2272 183.02 25.3954C183.02 25.3954 182.921 25.43 182.822 25.4646ZM172.245 22.0237C174.931 21.0903 177.899 21.282 180.483 22.6079C179.144 19.7375 179.163 16.2841 180.757 13.5063C177.877 14.8407 174.411 14.8219 171.624 13.2331C172.898 16.2372 172.844 19.5916 171.25 22.3694C171.548 22.2656 171.946 22.1274 172.245 22.0237Z" fill="#F1F3FA"/>
</g>
<defs>
<clipPath id="clip0_1349_7104">
<rect width="188" height="188" fill="white"/>
</clipPath>
</defs>
</svg>
