<svg width="512" height="522" viewBox="0 0 512 522" fill="none" xmlns="http://www.w3.org/2000/svg">
<g clip-path="url(#clip0_651_2308)">
<path d="M233.658 298.324C195.863 280.801 126.015 378.184 55.63 300.61C-17.7134 219.775 85.2865 133.665 108.759 115.433C68.423 158.179 33.5732 230.177 67.3456 257.75C110.242 292.772 212.124 197.57 284.784 189.814C323.549 185.675 347.946 200.774 356.169 206.591L356.181 206.602C373.635 202.877 391.813 205.135 407.805 213.014C423.797 220.893 436.679 233.938 444.387 250.06C452.095 266.182 454.185 284.449 450.321 301.936C446.457 319.424 436.863 335.121 423.075 346.513C423.416 346.825 423.766 347.121 424.102 347.441C435.689 358.454 445.947 370.887 449.708 385.93C453.469 400.973 450.917 414.405 445.41 428.91C441.943 438.044 427.143 458.997 423.075 461.146C419.007 463.295 386.849 461.146 383.088 461.146C372.099 461.146 313.782 461.146 313.782 461.146L247.698 461.146L183.227 460.071C193.197 466.814 275.311 387.8 270.507 365.528C264.447 364.516 258.744 361.979 253.931 358.155C249.119 354.33 245.352 349.342 242.983 343.655C240.614 337.968 239.719 331.768 240.383 325.632C241.046 319.496 243.246 313.625 246.777 308.564C243.168 304.266 238.699 300.777 233.658 298.324Z" fill="white" fill-opacity="0.31"/>
<path d="M377.205 326.191L375.128 358.522L349.272 333.718L377.205 326.191Z" fill="#0084CC"/>
<path d="M116.642 316.73L105.984 327.315L135.228 350.167L157.223 343.808L205.483 344.885L219.273 341.947L208.132 311.499L156.207 320.529L136.771 308.114L116.642 316.73Z" fill="#FFD6B5"/>
<path d="M135.228 350.518C135.26 350.518 135.293 350.513 135.324 350.504L157.267 344.159L205.473 345.235C205.5 345.236 205.527 345.234 205.554 345.228L219.344 342.29C219.393 342.279 219.44 342.258 219.48 342.228C219.521 342.199 219.554 342.16 219.579 342.116C219.603 342.072 219.618 342.024 219.622 341.973C219.626 341.923 219.619 341.873 219.601 341.826L208.461 311.378C208.432 311.301 208.378 311.236 208.306 311.195C208.235 311.153 208.151 311.139 208.07 311.153L156.279 320.158L136.958 307.819C136.91 307.789 136.855 307.77 136.798 307.766C136.741 307.761 136.684 307.77 136.631 307.792L116.502 316.409C116.462 316.426 116.425 316.449 116.393 316.479L105.736 327.061C105.701 327.097 105.673 327.139 105.655 327.185C105.638 327.232 105.63 327.282 105.633 327.331C105.636 327.381 105.649 327.43 105.672 327.474C105.696 327.518 105.728 327.557 105.767 327.587L135.011 350.44C135.072 350.49 135.149 350.517 135.228 350.518ZM157.219 343.456C157.186 343.456 157.154 343.461 157.122 343.47L135.302 349.779L106.513 327.283L116.841 317.027L136.736 308.508L156.016 320.822C156.09 320.87 156.179 320.888 156.265 320.873L207.901 311.895L218.801 341.687L205.446 344.533L157.227 343.456L157.219 343.456Z" fill="#00257D"/>
<path d="M122.5 304.82L136.769 308.114L136.827 323.055L119.59 311.772L122.5 304.82Z" fill="#FFD6B5"/>
<path d="M136.891 345.494L145.16 335.172C145.214 335.105 145.241 335.02 145.237 334.934C145.232 334.848 145.196 334.767 145.135 334.705L124.025 313.431C123.975 313.381 123.912 313.347 123.843 313.333C123.773 313.32 123.702 313.327 123.637 313.355L116.498 316.411C116.458 316.428 116.421 316.452 116.389 316.482L105.731 327.064L106.226 327.562L116.84 317.027L123.697 314.092L144.416 334.975L136.342 345.054L136.891 345.494Z" fill="#00257D"/>
<path d="M126.211 310.681L121.63 318.774L116.05 320.189L116.633 309.412L122.501 304.82L127.57 305.991L126.211 310.681Z" fill="#FFD6B5"/>
<path d="M127.965 317.894L127.473 317.393L112.349 332.229L112.841 332.73L127.965 317.894Z" fill="#00257D"/>
<path d="M116.049 320.539C116.078 320.539 116.107 320.535 116.134 320.528L121.715 319.114C121.761 319.102 121.804 319.081 121.842 319.052C121.879 319.023 121.911 318.987 121.934 318.946L126.515 310.849L125.904 310.501L121.397 318.464L116.424 319.723L116.973 309.582L122.583 305.192L136.63 308.435L137.758 309.156L138.136 308.564L136.957 307.811C136.924 307.79 136.887 307.774 136.848 307.765L122.578 304.471C122.527 304.459 122.474 304.459 122.423 304.47C122.371 304.481 122.323 304.504 122.282 304.536L116.414 309.127C116.375 309.158 116.342 309.197 116.319 309.242C116.296 309.286 116.283 309.335 116.28 309.386L115.698 320.162C115.695 320.21 115.702 320.258 115.719 320.303C115.735 320.348 115.761 320.389 115.794 320.424C115.827 320.458 115.867 320.486 115.911 320.505C115.955 320.523 116.003 320.533 116.051 320.533L116.049 320.539Z" fill="#00257D"/>
<path d="M133.5 323.46L132.996 322.971L118.953 337.399L119.456 337.889L133.5 323.46Z" fill="#00257D"/>
<path d="M139.445 329.427L138.913 328.968L126.508 343.334L127.04 343.793L139.445 329.427Z" fill="#00257D"/>
<path d="M232.754 195.811C232.754 195.811 233.337 239.791 270.367 265.205C307.398 290.618 296.313 220.085 296.313 220.085L232.754 195.811Z" fill="#0084CC"/>
<path d="M284.243 271.072C286.162 271.092 288.048 270.563 289.676 269.548C302.96 261.183 296.926 221.706 296.663 220.03C296.653 219.969 296.628 219.912 296.589 219.864C296.55 219.816 296.499 219.779 296.442 219.757L232.878 195.485C232.825 195.464 232.767 195.456 232.71 195.463C232.653 195.47 232.598 195.491 232.551 195.524C232.504 195.557 232.466 195.601 232.44 195.652C232.414 195.703 232.4 195.759 232.401 195.816C232.407 196.258 233.413 240.271 270.167 265.496C275.606 269.227 280.315 271.09 284.243 271.072ZM295.998 220.339C296.994 227.365 297.501 234.452 297.516 241.548C297.448 256.136 294.605 265.613 289.301 268.954C284.856 271.754 278.55 270.395 270.565 264.915C236.281 241.386 233.354 201.363 233.123 196.328L295.998 220.339Z" fill="#00257D"/>
<path d="M268.636 256.343C266.401 262.916 262.618 271.291 259.858 275.39C267.118 280.955 280.78 286.416 290.882 284.449L268.636 256.343Z" fill="#00257D"/>
<path d="M253.7 221.535C253.7 221.535 253.494 237.77 266.724 246.528C279.955 255.286 275.776 222.974 275.776 222.974C265.988 216.619 258.771 216.476 253.7 221.535Z" fill="#00257D"/>
<path d="M298.612 291.391C281.758 288.835 267.77 274.995 265.247 256.647C262.2 234.489 277.034 214.15 298.38 211.219C319.171 208.363 338.471 223.075 342.278 244.315C342.38 244.882 342.47 245.455 342.549 246.031C359.299 264.281 345.603 280.782 334.728 276.498C331.71 280.542 327.919 283.947 323.575 286.515C319.231 289.084 314.419 290.766 309.42 291.463L298.612 291.391Z" fill="#FFD6B5"/>
<path d="M284.313 213.202C289.084 210.523 294.319 208.769 299.742 208.03C323.97 204.702 346.361 221.974 349.749 246.609C355.849 267.177 361.887 272.128 361.887 272.128C357.984 286.166 329.282 295.888 312.93 290.813C322.823 288.886 331.228 281.471 335.686 275.179C342.339 276.921 348.382 271.195 348.573 265.758C348.77 260.07 344.842 256.934 339.961 259.408L343.274 252.632C341.269 251.64 321.886 250.764 299.583 243.043C296.275 241.898 293.331 240.74 290.692 239.587L291.716 235.894L287.447 238.096C284.808 236.833 282.239 235.428 279.752 233.888L285.652 229.178L278.221 232.908C272.531 229.164 269.202 225.807 265.977 223.45L270.881 220.215L262.239 221.245C262.076 221.175 261.915 221.106 261.749 221.036C256.545 218.99 254.593 220.367 253.962 221.127C258.854 213.691 276.654 217.502 284.313 213.202Z" fill="#00257D"/>
<path d="M293.684 256.525L293.523 255.842L288.393 257.043L288.554 257.727L293.684 256.525Z" fill="#00257D"/>
<path d="M285.707 256.273L284.264 253.213L283.628 253.512L285.071 256.573L285.707 256.273Z" fill="#00257D"/>
<path d="M281.742 248.906C281.742 248.906 279.093 238.471 268.988 237.263C269.26 249.002 281.742 248.906 281.742 248.906Z" fill="white"/>
<path d="M281.743 249.256C281.797 249.256 281.849 249.244 281.897 249.22C281.945 249.196 281.987 249.162 282.019 249.12C282.052 249.078 282.075 249.029 282.086 248.976C282.096 248.924 282.095 248.87 282.082 248.819C282.055 248.712 279.256 238.136 269.026 236.914C268.976 236.907 268.925 236.912 268.876 236.927C268.827 236.942 268.783 236.968 268.746 237.003C268.708 237.037 268.679 237.078 268.659 237.125C268.639 237.171 268.63 237.221 268.631 237.271C268.914 249.196 281.572 249.257 281.743 249.256ZM269.354 237.666C277.592 238.885 280.62 246.575 281.263 248.537C279.306 248.419 277.386 247.952 275.593 247.159C271.672 245.356 269.571 242.163 269.354 237.668L269.354 237.666Z" fill="#00257D"/>
<path d="M271.888 240.211C271.445 240.601 271.114 241.102 270.931 241.663C270.748 242.223 270.719 242.823 270.847 243.398C270.975 243.974 271.255 244.505 271.659 244.935C272.062 245.366 272.574 245.68 273.14 245.845C273.707 246.011 274.307 246.021 274.879 245.875C275.451 245.73 275.973 245.433 276.391 245.017C276.809 244.601 277.108 244.08 277.256 243.509C277.404 242.938 277.395 242.338 277.232 241.772C277.101 241.318 274.592 239.4 274.117 239.391C273.298 239.377 272.502 239.669 271.888 240.211Z" fill="#00257D"/>
<path d="M281.272 273.472L284.582 277.869L288.871 276.312L281.272 273.472Z" fill="#CC1D37"/>
<path d="M284.581 278.221C284.622 278.22 284.662 278.213 284.7 278.199L288.989 276.643C289.061 276.617 289.122 276.568 289.164 276.503C289.205 276.439 289.225 276.363 289.219 276.287C289.213 276.21 289.183 276.138 289.132 276.081C289.082 276.023 289.014 275.984 288.939 275.969C286.313 275.417 283.786 274.472 281.442 273.167C281.371 273.128 281.29 273.114 281.21 273.127C281.131 273.141 281.059 273.181 281.005 273.242C280.952 273.303 280.922 273.379 280.919 273.46C280.916 273.54 280.94 273.619 280.989 273.684L284.299 278.08C284.332 278.124 284.374 278.16 284.423 278.184C284.472 278.208 284.526 278.221 284.581 278.221ZM287.63 276.389L284.704 277.45L282.484 274.502C284.134 275.298 285.857 275.93 287.63 276.389Z" fill="#00257D"/>
<path d="M281.851 263.269L284.684 261.228L286.524 263.079L290.233 262.658L291.755 266.561C288.38 265.701 285.07 264.601 281.851 263.269Z" fill="#CC1D37"/>
<path d="M291.756 266.913C291.813 266.912 291.87 266.898 291.92 266.871C291.97 266.845 292.014 266.806 292.046 266.759C292.078 266.712 292.098 266.657 292.104 266.601C292.111 266.544 292.103 266.487 292.082 266.434L290.559 262.531C290.531 262.459 290.48 262.398 290.413 262.358C290.347 262.318 290.269 262.301 290.192 262.309L286.654 262.711L284.933 260.981C284.874 260.921 284.796 260.885 284.712 260.878C284.629 260.871 284.546 260.894 284.478 260.943L281.644 262.985C281.594 263.021 281.554 263.07 281.529 263.127C281.503 263.184 281.494 263.247 281.501 263.309C281.508 263.371 281.531 263.43 281.569 263.48C281.606 263.53 281.656 263.569 281.714 263.593C284.949 264.932 288.276 266.037 291.669 266.902C291.698 266.909 291.727 266.913 291.756 266.913ZM290.003 263.039L291.178 266.053C288.252 265.275 285.376 264.319 282.567 263.189L284.646 261.691L286.275 263.33C286.312 263.367 286.358 263.396 286.408 263.413C286.457 263.431 286.511 263.437 286.563 263.432L290.003 263.039Z" fill="#00257D"/>
<path d="M277.933 261.59C284.854 264.735 292.142 266.998 299.627 268.328L291.966 276.604C287.703 276.33 283.587 274.938 280.034 272.568L277.933 261.59Z" fill="#CC1D37"/>
<path d="M278.699 265.59L296.835 271.344L299.627 268.328C292.143 266.995 284.855 264.732 277.934 261.59L278.699 265.59Z" fill="white"/>
<path d="M279.938 271.493C283.096 270.511 291.449 270.818 295.575 272.706L291.965 276.604C287.702 276.332 283.586 274.939 280.034 272.568L279.938 271.493Z" fill="#FF6E85"/>
<path d="M291.966 276.956C292.014 276.956 292.062 276.945 292.106 276.926C292.15 276.906 292.189 276.878 292.222 276.843L299.884 268.567C299.926 268.521 299.955 268.465 299.969 268.403C299.982 268.342 299.979 268.279 299.959 268.22C299.94 268.16 299.905 268.107 299.858 268.066C299.811 268.024 299.754 267.996 299.693 267.984C290.816 266.26 284.356 264.253 278.083 261.273C278.025 261.245 277.959 261.234 277.895 261.241C277.83 261.248 277.769 261.273 277.718 261.312C277.666 261.352 277.627 261.405 277.604 261.466C277.581 261.526 277.575 261.592 277.587 261.656L279.689 272.635C279.697 272.68 279.715 272.724 279.741 272.762C279.766 272.801 279.8 272.834 279.838 272.86C283.444 275.26 287.616 276.671 291.939 276.955L291.966 276.956ZM298.94 268.552L291.821 276.239C287.728 275.946 283.779 274.61 280.349 272.36L278.404 262.203C284.392 264.979 290.608 266.9 298.94 268.552Z" fill="#00257D"/>
<path d="M296.941 271.009L278.805 265.259L278.592 265.928L296.729 271.677L296.941 271.009Z" fill="#00257D"/>
<path d="M295.455 273.036L295.694 272.376C290.625 270.523 285.143 270.1 279.849 271.153L280.027 271.833C285.183 270.814 290.52 271.23 295.455 273.036Z" fill="#00257D"/>
<path d="M304.375 255.931C304.375 255.931 312.888 248.421 328.454 256.133C321.484 262.678 308.388 259.123 304.375 255.931Z" fill="white"/>
<path d="M317.955 260.152C321.854 260.134 325.777 259.133 328.699 256.389C328.741 256.35 328.772 256.302 328.791 256.249C328.81 256.195 328.815 256.138 328.807 256.082C328.799 256.025 328.777 255.972 328.744 255.926C328.71 255.88 328.666 255.843 328.615 255.818C313.018 248.092 304.229 255.59 304.144 255.668C304.105 255.702 304.075 255.744 304.054 255.791C304.034 255.838 304.024 255.889 304.025 255.94C304.026 255.991 304.039 256.042 304.062 256.087C304.085 256.133 304.117 256.174 304.158 256.206C306.477 258.049 312.187 260.179 317.955 260.152ZM327.836 256.22C321.016 262.08 309.036 258.799 304.957 255.925C306.688 254.733 308.642 253.899 310.701 253.473C314.285 252.677 320.14 252.527 327.836 256.22Z" fill="#00257D"/>
<path d="M309.222 255.536C309.172 256.186 309.297 256.837 309.585 257.421C309.872 258.006 310.312 258.503 310.857 258.859C311.403 259.216 312.034 259.42 312.685 259.45C313.337 259.48 313.984 259.335 314.56 259.029C315.135 258.724 315.619 258.27 315.959 257.714C316.299 257.158 316.483 256.521 316.493 255.87C316.503 255.219 316.337 254.576 316.014 254.011C315.691 253.445 315.221 252.977 314.655 252.654C314.202 252.397 310.736 252.813 310.354 253.17C309.695 253.79 309.291 254.634 309.222 255.536Z" fill="#00257D"/>
<path d="M344.021 264.445L343.585 263.894L337.487 268.715L337.923 269.265L344.021 264.445Z" fill="#00257D"/>
<path d="M346.451 267.226L343.268 262.429L342.682 262.817L345.865 267.614L346.451 267.226Z" fill="#00257D"/>
<path d="M341.953 270.849L339.675 267.416L339.089 267.804L341.367 271.237L341.953 270.849Z" fill="#00257D"/>
<path d="M288.488 303.965C288.488 303.965 285.4 312.152 293.648 314.587C301.895 317.022 308.713 309.186 308.713 309.186L312.933 290.812L304.765 284.582L292.541 286.019L288.707 303.392" fill="#FFD6B5"/>
<path d="M288.949 303.887L292.069 289.747L291.384 289.596L288.263 303.735L288.949 303.887Z" fill="#00257D"/>
<path d="M313.273 290.892L312.589 290.732L308.193 309.503L308.877 309.663L313.273 290.892Z" fill="#00257D"/>
<path d="M178.291 389.495L176.754 385.71L160.906 392.136L162.443 395.922L178.291 389.495Z" fill="#0084CC"/>
<path d="M162.443 396.274C162.488 396.274 162.533 396.265 162.574 396.249L178.421 389.82C178.463 389.802 178.502 389.777 178.535 389.744C178.568 389.712 178.594 389.674 178.612 389.631C178.63 389.589 178.64 389.543 178.64 389.497C178.641 389.451 178.632 389.405 178.615 389.362L177.077 385.578C177.042 385.491 176.974 385.423 176.888 385.386C176.802 385.35 176.706 385.35 176.619 385.385L160.772 391.811C160.686 391.846 160.617 391.914 160.581 392C160.545 392.085 160.544 392.182 160.579 392.268L162.116 396.053C162.143 396.118 162.188 396.173 162.246 396.213C162.304 396.252 162.373 396.273 162.443 396.272L162.443 396.274ZM177.831 389.303L162.635 395.465L161.362 392.331L176.558 386.168L177.831 389.303Z" fill="#00257D"/>
<path d="M183.059 401.327L178.348 389.635L162.489 396.015L167.199 407.706L183.059 401.327Z" fill="#FFD6B5"/>
<path d="M167.128 407.909C167.172 407.909 167.216 407.9 167.257 407.884L183.125 401.507C183.167 401.49 183.207 401.464 183.24 401.432C183.273 401.4 183.299 401.361 183.317 401.319C183.335 401.276 183.344 401.231 183.345 401.184C183.345 401.138 183.337 401.093 183.319 401.05L178.611 389.353C178.594 389.31 178.568 389.271 178.536 389.238C178.503 389.205 178.465 389.179 178.422 389.161C178.38 389.142 178.334 389.133 178.288 389.133C178.242 389.132 178.196 389.141 178.153 389.158L162.285 395.535C162.243 395.552 162.203 395.578 162.17 395.61C162.138 395.642 162.111 395.681 162.093 395.723C162.075 395.766 162.066 395.812 162.065 395.858C162.065 395.904 162.073 395.95 162.091 395.992L166.8 407.69C166.826 407.755 166.871 407.811 166.93 407.85C166.988 407.889 167.057 407.91 167.128 407.909ZM182.533 400.987L167.318 407.102L162.871 396.056L178.09 389.941L182.533 400.987Z" fill="#00257D"/>
<path d="M161.538 406.347L169.819 414.246L167.767 421.82L174.014 424.667L186.574 455.87L202.442 449.493L189.881 418.29L192.763 411.773L185.686 407.868L186.535 396.3L161.538 406.347Z" fill="white"/>
<path d="M186.574 456.222C186.618 456.222 186.662 456.213 186.704 456.197L202.571 449.819C202.657 449.784 202.726 449.717 202.763 449.631C202.799 449.545 202.8 449.449 202.766 449.362L190.261 418.297L193.083 411.916C193.118 411.836 193.122 411.745 193.094 411.662C193.067 411.579 193.009 411.509 192.932 411.467L186.052 407.67L186.884 396.327C186.887 396.268 186.876 396.209 186.851 396.155C186.826 396.101 186.787 396.055 186.739 396.02C186.691 395.985 186.635 395.963 186.577 395.956C186.518 395.948 186.458 395.956 186.403 395.978L161.404 406.022C161.349 406.044 161.301 406.079 161.264 406.124C161.226 406.17 161.201 406.224 161.19 406.282C161.179 406.339 161.182 406.399 161.2 406.455C161.218 406.511 161.25 406.561 161.292 406.602L169.422 414.358L167.424 421.732C167.402 421.812 167.41 421.897 167.445 421.973C167.481 422.048 167.542 422.108 167.617 422.143L173.738 424.932L186.246 456C186.281 456.086 186.349 456.155 186.435 456.192C186.478 456.211 186.526 456.221 186.574 456.222ZM201.982 449.299L186.768 455.414L174.339 424.537C174.305 424.453 174.241 424.385 174.159 424.348L168.182 421.624L170.156 414.338C170.173 414.277 170.172 414.212 170.155 414.151C170.138 414.091 170.105 414.035 170.06 413.992L162.173 406.47L186.142 396.837L185.334 407.843C185.329 407.91 185.343 407.977 185.375 408.036C185.407 408.095 185.455 408.143 185.514 408.176L192.309 411.926L189.558 418.148C189.539 418.191 189.529 418.238 189.528 418.285C189.527 418.332 189.536 418.378 189.554 418.422L201.982 449.299Z" fill="#00257D"/>
<path d="M200.877 436.232L179.707 444.741C179.707 444.741 149.148 457.023 150.4 487.049L211.456 462.51L200.877 436.232Z" fill="#CC1D37"/>
<path d="M150.407 487.401C150.451 487.401 150.495 487.393 150.536 487.376L211.591 462.835C211.677 462.8 211.746 462.733 211.783 462.647C211.819 462.561 211.82 462.465 211.786 462.379L201.208 436.099C201.173 436.013 201.105 435.944 201.02 435.908C200.934 435.871 200.837 435.87 200.751 435.905L179.58 444.414C179.274 444.537 148.975 457.067 150.051 487.061C150.054 487.152 150.093 487.238 150.159 487.302C150.225 487.365 150.313 487.4 150.404 487.399L150.407 487.401ZM211 462.317L150.738 486.537C150.03 457.403 179.54 445.188 179.84 445.068L200.684 436.69L211 462.317Z" fill="#00257D"/>
<path d="M151.226 476.975C156.616 454.023 179.711 444.741 179.711 444.741L182.046 450.542C165.558 457.623 158.949 473.869 158.949 473.869L151.226 476.975Z" fill="#FF6E85"/>
<path d="M215.377 460.934L146.48 488.624L149.789 496.845L218.686 469.155L215.377 460.934Z" fill="white"/>
<path d="M149.793 497.196C149.837 497.196 149.881 497.187 149.923 497.171L218.819 469.48C218.862 469.463 218.901 469.438 218.934 469.405C218.967 469.373 218.993 469.335 219.012 469.292C219.03 469.25 219.039 469.204 219.04 469.158C219.04 469.112 219.032 469.066 219.014 469.023L215.704 460.803C215.669 460.717 215.602 460.648 215.516 460.611C215.43 460.575 215.334 460.574 215.247 460.609L146.351 488.298C146.308 488.315 146.269 488.341 146.236 488.373C146.203 488.406 146.176 488.444 146.158 488.487C146.14 488.529 146.131 488.575 146.13 488.621C146.13 488.667 146.139 488.713 146.156 488.756L149.465 496.976C149.491 497.041 149.537 497.097 149.595 497.136C149.654 497.175 149.723 497.196 149.793 497.196ZM218.23 468.96L149.986 496.388L146.939 488.819L215.183 461.391L218.23 468.96Z" fill="#00257D"/>
<path d="M151.228 477.326C151.272 477.326 151.316 477.317 151.358 477.301L159.08 474.197C159.123 474.179 159.163 474.153 159.197 474.12C159.23 474.087 159.256 474.047 159.274 474.004C159.339 473.843 166.025 457.807 182.185 450.866C182.269 450.83 182.336 450.762 182.371 450.677C182.406 450.592 182.407 450.497 182.372 450.412L180.037 444.609C180.02 444.567 179.994 444.527 179.962 444.495C179.929 444.462 179.891 444.435 179.848 444.417C179.806 444.399 179.76 444.39 179.714 444.389C179.668 444.389 179.622 444.398 179.579 444.415C179.347 444.509 156.253 454.029 150.884 476.894C150.872 476.946 150.872 476.999 150.883 477.051C150.895 477.103 150.918 477.151 150.951 477.193C150.984 477.234 151.027 477.268 151.074 477.29C151.122 477.313 151.175 477.325 151.228 477.325L151.228 477.326ZM158.683 473.6L151.729 476.394C156.93 455.822 176.739 446.431 179.519 445.206L181.593 450.358C166.195 457.132 159.379 471.999 158.683 473.6Z" fill="#00257D"/>
<path d="M172.445 456.207L166.502 452.901L166.16 453.514L172.103 456.821L172.445 456.207Z" fill="#00257D"/>
<path d="M163.986 465.202L157.866 462.279L157.563 462.912L163.683 465.836L163.986 465.202Z" fill="#00257D"/>
<path d="M153.295 373.232L160.906 392.137L176.753 385.711L169.478 366.048L153.295 373.232Z" fill="#0084CC"/>
<path d="M160.91 392.489C160.955 392.489 160.999 392.48 161.04 392.463L176.888 386.035C176.971 386.002 177.039 385.937 177.076 385.855C177.113 385.773 177.117 385.679 177.087 385.594L170.394 366.634C170.378 366.59 170.353 366.55 170.322 366.515C170.29 366.481 170.251 366.453 170.209 366.433C170.166 366.414 170.12 366.403 170.073 366.402C170.026 366.401 169.979 366.409 169.935 366.426L153.17 372.907C153.127 372.924 153.087 372.949 153.054 372.982C153.02 373.014 152.993 373.052 152.975 373.095C152.956 373.137 152.946 373.183 152.946 373.23C152.945 373.276 152.954 373.322 152.971 373.365L160.583 392.269C160.6 392.312 160.626 392.351 160.658 392.384C160.691 392.417 160.729 392.443 160.772 392.461C160.816 392.48 160.863 392.489 160.91 392.489ZM176.313 385.512L161.103 391.68L153.756 373.433L169.851 367.21L176.313 385.512Z" fill="#00257D"/>
<path d="M235.244 375.709L162.601 360.048L153.294 373.233L168.208 378.739L235.036 393.147L235.244 375.709Z" fill="#0084CC"/>
<path d="M235.04 393.498C235.132 393.498 235.22 393.461 235.286 393.396C235.351 393.331 235.388 393.243 235.39 393.151L235.597 375.713C235.599 375.632 235.572 375.553 235.521 375.489C235.471 375.425 235.4 375.381 235.32 375.364L162.677 359.703C162.609 359.689 162.539 359.695 162.475 359.72C162.411 359.745 162.356 359.789 162.316 359.845L153.01 373.03C152.976 373.078 152.955 373.134 152.948 373.192C152.941 373.25 152.949 373.309 152.971 373.363L153.314 374.216L153.966 373.954L153.694 373.279L162.757 360.442L234.891 375.993L234.692 392.713L174.766 379.796C174.704 379.783 174.64 379.787 174.58 379.807C174.52 379.827 174.466 379.863 174.425 379.911C174.384 379.959 174.357 380.017 174.346 380.079C174.335 380.141 174.341 380.205 174.363 380.265L175.644 383.617L176.3 383.368L175.253 380.619L234.965 393.491C234.989 393.496 235.015 393.498 235.04 393.498Z" fill="#00257D"/>
<path d="M227.082 470.604L224.954 467.116L210.351 476.014L212.479 479.502L227.082 470.604Z" fill="#0084CC"/>
<path d="M212.485 479.853C212.55 479.852 212.612 479.835 212.667 479.801L227.268 470.906C227.307 470.882 227.341 470.85 227.368 470.813C227.396 470.776 227.415 470.733 227.426 470.688C227.437 470.644 227.439 470.597 227.431 470.551C227.424 470.506 227.408 470.462 227.384 470.423L225.256 466.935C225.207 466.856 225.129 466.799 225.038 466.777C224.948 466.755 224.852 466.77 224.773 466.819L210.17 475.716C210.131 475.74 210.097 475.771 210.07 475.808C210.042 475.846 210.023 475.888 210.012 475.933C210.001 475.978 209.999 476.024 210.006 476.07C210.014 476.115 210.03 476.159 210.054 476.198L212.182 479.683C212.231 479.762 212.309 479.819 212.399 479.841C212.427 479.848 212.456 479.852 212.485 479.853ZM226.602 470.488L212.599 479.019L210.836 476.131L224.838 467.599L226.602 470.488Z" fill="#00257D"/>
<path d="M251.645 511.144L227.073 470.595L212.443 479.447L237.014 519.996L251.645 511.144Z" fill="#FFD6B5"/>
<path d="M237.022 520.346C237.085 520.345 237.148 520.328 237.202 520.295L251.832 511.442C251.911 511.394 251.968 511.316 251.99 511.226C252.012 511.135 251.998 511.04 251.95 510.961L227.377 470.412C227.329 470.333 227.251 470.276 227.161 470.253C227.07 470.231 226.975 470.246 226.895 470.294L212.265 479.145C212.185 479.193 212.128 479.271 212.106 479.361C212.084 479.452 212.098 479.547 212.146 479.627L236.719 520.176C236.75 520.229 236.794 520.272 236.847 520.301C236.9 520.331 236.96 520.346 237.021 520.346L237.022 520.346ZM251.167 511.024L237.139 519.515L212.93 479.565L226.96 471.074L251.167 511.024Z" fill="#00257D"/>
<path d="M221.912 504.203L231.36 510.663L230.557 518.468L237.183 520.272L245.971 534.775L260.601 525.924L251.813 511.42L253.604 504.524L245.99 501.811L244.959 490.259L221.912 504.203Z" fill="white"/>
<path d="M245.973 535.127C246.037 535.127 246.099 535.109 246.154 535.076L260.784 526.226C260.823 526.202 260.858 526.17 260.885 526.133C260.912 526.096 260.932 526.054 260.943 526.009C260.954 525.964 260.956 525.918 260.949 525.872C260.942 525.827 260.926 525.783 260.903 525.743L252.022 511.089L253.775 504.336C253.798 504.25 253.787 504.16 253.746 504.082C253.705 504.004 253.636 503.945 253.553 503.915L246.151 501.278L245.14 489.948C245.135 489.889 245.115 489.832 245.081 489.783C245.048 489.734 245.003 489.694 244.949 489.667C244.896 489.64 244.837 489.627 244.778 489.629C244.718 489.631 244.66 489.648 244.609 489.679L221.561 503.624C221.511 503.654 221.469 503.697 221.44 503.747C221.41 503.798 221.394 503.855 221.392 503.914C221.391 503.973 221.404 504.031 221.431 504.083C221.457 504.136 221.497 504.18 221.545 504.214L230.82 510.556L230.039 518.154C230.03 518.236 230.051 518.32 230.098 518.388C230.145 518.457 230.215 518.507 230.296 518.529L236.786 520.295L245.67 534.956C245.701 535.009 245.746 535.052 245.799 535.082C245.852 535.112 245.912 535.127 245.973 535.127ZM260.12 525.807L246.09 534.299L237.315 519.818C237.269 519.74 237.195 519.684 237.108 519.661L230.769 517.935L231.541 510.421C231.548 510.358 231.537 510.295 231.511 510.237C231.484 510.18 231.443 510.131 231.39 510.095L222.393 503.943L244.493 490.569L245.47 501.565C245.476 501.632 245.501 501.696 245.542 501.749C245.583 501.802 245.639 501.842 245.702 501.865L253.014 504.47L251.303 511.055C251.291 511.1 251.288 511.148 251.295 511.194C251.302 511.241 251.318 511.285 251.343 511.325L260.12 525.807Z" fill="#00257D"/>
<path d="M256.919 513.087L237.398 524.898C237.398 524.898 209.227 541.945 215.307 571.376L271.601 537.317L256.919 513.087Z" fill="#CC1D37"/>
<path d="M215.31 571.727C215.373 571.726 215.436 571.709 215.49 571.675L271.784 537.62C271.824 537.596 271.858 537.565 271.886 537.528C271.913 537.49 271.933 537.448 271.944 537.403C271.955 537.359 271.957 537.312 271.95 537.267C271.943 537.221 271.927 537.177 271.903 537.138L257.222 512.91C257.198 512.87 257.166 512.836 257.129 512.809C257.092 512.781 257.05 512.762 257.005 512.751C256.96 512.74 256.914 512.737 256.868 512.744C256.822 512.751 256.779 512.767 256.739 512.791L237.219 524.601C236.939 524.772 209.058 542.021 214.964 571.448C214.975 571.503 214.999 571.555 215.035 571.599C215.07 571.643 215.115 571.678 215.167 571.701C215.212 571.719 215.261 571.728 215.31 571.727ZM271.12 537.202L215.557 570.813C210.154 542.174 237.306 525.363 237.582 525.196L256.802 513.567L271.12 537.202Z" fill="#00257D"/>
<path d="M200.46 459.692L210.352 476.015L224.954 467.118L217.54 455.052L214.215 449.641L201.381 450.181L200.46 459.692Z" fill="#0084CC"/>
<path d="M210.353 476.365C210.417 476.365 210.48 476.347 210.535 476.314L225.137 467.416C225.177 467.392 225.211 467.361 225.238 467.324C225.265 467.286 225.285 467.244 225.296 467.199C225.306 467.154 225.308 467.108 225.301 467.062C225.294 467.017 225.278 466.973 225.254 466.933L216.74 453.078L216.14 453.445L224.47 467.001L210.469 475.531L201.534 460.787L200.933 461.15L210.051 476.196C210.099 476.276 210.177 476.333 210.268 476.355C210.296 476.362 210.324 476.366 210.353 476.365Z" fill="#00257D"/>
<path d="M270.772 419.015L258.3 406.816L201.885 445.008L200.461 459.691L217.541 455.05L270.772 419.015Z" fill="#0084CC"/>
<path d="M201.562 462.189L202.163 461.825L200.818 459.609L202.213 445.208L258.255 407.269L270.214 418.967L217.34 454.762C217.265 454.813 217.213 454.89 217.194 454.979C217.175 455.067 217.19 455.159 217.238 455.236L218.907 457.953L219.506 457.585L218.012 455.155L270.964 419.31C271.008 419.281 271.044 419.242 271.07 419.198C271.096 419.153 271.113 419.103 271.117 419.051C271.122 418.999 271.115 418.947 271.097 418.898C271.08 418.85 271.051 418.805 271.014 418.769L258.542 406.57C258.485 406.513 258.409 406.478 258.328 406.471C258.247 406.464 258.167 406.485 258.1 406.53L201.683 444.723C201.641 444.752 201.605 444.79 201.579 444.834C201.552 444.878 201.536 444.928 201.531 444.979L200.109 459.661C200.101 459.737 200.118 459.812 200.158 459.877L201.562 462.189Z" fill="#00257D"/>
<path d="M404.831 227.639L391.762 219.723L366.671 190.006L330.996 189.695L301.682 207.798L232.753 195.811C240.004 202.16 272.891 214.532 306.184 242.067C336.863 267.439 374.999 281.504 386.103 279.342L348.063 237.583L351.148 218.316C368.144 226.809 385.975 230.295 404.831 227.639Z" fill="#00257D"/>
<path d="M203.811 312.251L266.521 301.346L288.49 303.936C288.49 303.936 287.998 309.047 295.792 310.523C303.587 311.998 309.351 306.396 309.351 306.396L325.073 308.248L351.896 308.359L353.181 321.12L375.126 358.521L316.238 344.89L304.994 372.748L319.021 418.756C293.796 444.188 260.166 446.285 235.412 422.152L231.705 424.661C212.901 410.815 205.454 389.463 205.981 369.869L254.498 356.317L261.199 334.408L216.707 353.988L203.811 312.251Z" fill="#00257D"/>
<path d="M267.181 301.426L288.489 303.938C288.489 303.938 287.997 309.049 295.792 310.524C296.15 310.593 296.503 310.639 296.851 310.679C304.102 311.488 309.351 306.397 309.351 306.397L325.073 308.25L325.345 308.249C325.033 311.798 323.553 315.143 321.135 317.762C318.717 320.38 315.498 322.123 311.982 322.718C308.467 323.314 304.853 322.727 301.707 321.051C298.561 319.375 296.06 316.703 294.595 313.455C292.436 315.582 289.721 317.057 286.76 317.711C283.8 318.365 280.715 318.171 277.86 317.152C275.005 316.132 272.496 314.329 270.621 311.948C268.746 309.567 267.581 306.706 267.26 303.694C267.181 302.941 267.155 302.183 267.181 301.426Z" fill="white"/>
<path d="M274.707 439.46L274.773 439.46C291.082 439.364 306.886 432.1 319.272 419.003C319.315 418.958 319.344 418.903 319.359 418.843C319.373 418.782 319.371 418.72 319.353 418.66L305.362 372.771L316.448 345.304L375.043 358.866C375.11 358.882 375.18 358.878 375.245 358.854C375.309 358.831 375.365 358.788 375.405 358.732C375.446 358.676 375.469 358.611 375.473 358.542C375.477 358.474 375.46 358.406 375.425 358.347L353.519 321.011L352.243 308.327C352.234 308.241 352.194 308.161 352.129 308.103C352.065 308.044 351.981 308.012 351.894 308.012L325.071 307.901L309.391 306.05C309.34 306.044 309.287 306.05 309.238 306.066C309.188 306.083 309.143 306.11 309.106 306.146C309.049 306.201 303.369 311.606 295.857 310.18C288.494 308.787 288.821 304.167 288.84 303.972C288.848 303.881 288.82 303.79 288.763 303.718C288.705 303.647 288.621 303.601 288.53 303.591L266.561 301.001C266.528 300.996 266.494 300.996 266.461 301.001L203.75 311.906C203.7 311.914 203.653 311.932 203.611 311.96C203.57 311.988 203.534 312.025 203.508 312.067C203.481 312.11 203.464 312.158 203.458 312.207C203.452 312.257 203.456 312.308 203.471 312.356L216.366 354.093C216.38 354.141 216.405 354.184 216.437 354.222C216.47 354.259 216.51 354.289 216.555 354.31C216.6 354.329 216.649 354.339 216.699 354.339C216.748 354.339 216.797 354.328 216.842 354.308L260.634 335.036L254.212 356.028L205.886 369.532C205.814 369.552 205.75 369.595 205.704 369.654C205.658 369.713 205.632 369.786 205.63 369.861C205.025 392.319 214.453 412.397 231.496 424.948C231.554 424.991 231.625 425.015 231.697 425.016C231.77 425.017 231.841 424.996 231.901 424.955L235.365 422.612C246.057 433.55 260.015 439.528 274.707 439.46ZM318.622 418.669C306.388 431.532 290.824 438.664 274.77 438.758L274.703 438.758C260.11 438.826 246.249 432.847 235.664 421.916C235.606 421.856 235.529 421.819 235.447 421.811C235.365 421.802 235.283 421.823 235.214 421.869L231.712 424.239C215.048 411.867 205.807 392.174 206.323 370.142L254.588 356.656C254.644 356.64 254.696 356.61 254.738 356.569C254.78 356.528 254.811 356.476 254.828 356.42L261.53 334.512C261.55 334.448 261.551 334.379 261.532 334.314C261.514 334.25 261.478 334.191 261.427 334.147C261.377 334.102 261.315 334.073 261.249 334.062C261.182 334.052 261.114 334.061 261.052 334.088L216.921 353.509L204.258 312.531L266.524 301.703L288.133 304.251C288.188 305.473 288.891 309.577 295.72 310.87C302.972 312.241 308.565 307.571 309.464 306.766L325.025 308.6L351.572 308.712L352.824 321.157C352.829 321.207 352.845 321.254 352.87 321.297L374.403 357.996L316.311 344.552C316.229 344.533 316.143 344.544 316.069 344.583C315.994 344.622 315.936 344.687 315.905 344.765L304.661 372.623C304.631 372.697 304.627 372.78 304.65 372.857L318.622 418.669Z" fill="#00257D"/>
<path d="M383.583 279.911C384.451 279.917 385.317 279.843 386.171 279.689C386.233 279.677 386.289 279.649 386.336 279.607C386.383 279.566 386.418 279.513 386.437 279.454C386.457 279.395 386.46 279.332 386.447 279.271C386.434 279.21 386.405 279.154 386.363 279.108L347.618 236.57L351.401 218.833C368.832 227.45 386.824 230.53 404.881 227.986C404.953 227.976 405.02 227.944 405.072 227.894C405.125 227.844 405.161 227.78 405.175 227.709C405.19 227.638 405.182 227.565 405.153 227.498C405.124 227.432 405.076 227.376 405.014 227.339L391.993 219.452L366.937 189.78C366.905 189.741 366.864 189.71 366.818 189.688C366.772 189.667 366.722 189.656 366.672 189.655L331 189.343C330.933 189.338 330.866 189.356 330.812 189.395L301.612 207.429L232.813 195.465C232.737 195.453 232.66 195.465 232.592 195.5C232.524 195.535 232.469 195.591 232.436 195.66C232.403 195.729 232.393 195.807 232.408 195.882C232.424 195.957 232.463 196.024 232.521 196.075C234.979 198.227 240.249 201.011 247.541 204.864C261.996 212.5 283.839 224.041 305.961 242.337C320.358 254.121 336.3 263.883 353.344 271.351C365.905 276.814 377.065 279.941 383.583 279.911ZM385.406 279.099C373.375 280.673 335.799 266.103 306.408 241.796C284.231 223.454 262.349 211.893 247.869 204.243C241.554 200.907 236.765 198.377 234.051 196.393L301.621 208.144C301.706 208.158 301.793 208.141 301.866 208.097L331.095 190.045L366.508 190.355L391.494 219.948C391.518 219.978 391.548 220.003 391.581 220.023L403.799 227.424C386.075 229.716 368.421 226.55 351.306 218.002C351.258 217.978 351.205 217.966 351.151 217.965C351.097 217.965 351.044 217.977 350.996 218C350.948 218.024 350.905 218.058 350.872 218.1C350.839 218.142 350.816 218.191 350.805 218.243L346.891 236.6C346.88 236.654 346.881 236.711 346.896 236.765C346.911 236.819 346.938 236.869 346.976 236.91L385.406 279.099Z" fill="#00257D"/>
<path d="M323.249 292.536C332.358 292.39 341.299 290.069 349.327 285.766C356.27 281.983 360.852 277.171 362.228 272.22C362.246 272.155 362.245 272.085 362.224 272.021C362.204 271.956 362.165 271.899 362.112 271.855C362.053 271.807 356.071 266.682 350.088 246.509C346.69 221.774 324.069 204.338 299.699 207.682C294.232 208.424 288.955 210.194 284.145 212.896C280.991 214.666 276.115 215.03 270.953 215.414C263.898 215.938 256.602 216.483 253.674 220.932C253.646 220.969 253.626 221.011 253.615 221.056C253.604 221.1 253.601 221.147 253.608 221.192C253.615 221.238 253.63 221.282 253.654 221.322C253.678 221.361 253.709 221.396 253.746 221.423C253.783 221.451 253.825 221.47 253.87 221.482C253.915 221.493 253.961 221.495 254.007 221.489C254.053 221.482 254.096 221.466 254.136 221.443C254.176 221.419 254.21 221.388 254.238 221.351C254.78 220.694 256.59 219.382 261.625 221.363C261.754 221.413 261.88 221.468 262.004 221.523L262.104 221.566C262.161 221.59 262.223 221.599 262.285 221.593L269.451 220.735L265.785 223.153C265.738 223.184 265.699 223.226 265.672 223.276C265.644 223.326 265.629 223.381 265.628 223.438C265.627 223.494 265.639 223.551 265.664 223.601C265.689 223.652 265.726 223.696 265.772 223.73C266.945 224.586 268.164 225.602 269.454 226.679C272.179 229.023 275.044 231.2 278.033 233.199C278.085 233.232 278.144 233.252 278.206 233.255C278.267 233.259 278.329 233.247 278.384 233.22L282.81 230.995L279.534 233.608C279.49 233.643 279.456 233.688 279.433 233.74C279.41 233.791 279.4 233.847 279.403 233.903C279.406 233.959 279.423 234.013 279.452 234.062C279.48 234.11 279.52 234.151 279.568 234.18C282.065 235.727 284.644 237.137 287.294 238.405C287.343 238.429 287.397 238.442 287.451 238.442C287.505 238.441 287.559 238.428 287.608 238.404L291.163 236.574L290.353 239.492C290.331 239.573 290.338 239.66 290.375 239.736C290.411 239.813 290.474 239.873 290.551 239.907C293.307 241.113 296.308 242.279 299.468 243.377C315.516 248.936 329.956 250.939 337.713 252.016C340.127 252.351 341.972 252.607 342.786 252.835L339.646 259.26C339.613 259.326 339.603 259.4 339.615 259.473C339.627 259.545 339.662 259.612 339.714 259.663C339.767 259.715 339.834 259.749 339.907 259.76C339.979 259.772 340.054 259.76 340.119 259.727C342.182 258.683 344.152 258.639 345.67 259.607C347.39 260.705 348.321 262.945 348.224 265.754C348.105 267.215 347.668 268.633 346.943 269.907C346.219 271.182 345.224 272.282 344.029 273.132C342.876 274.029 341.534 274.65 340.104 274.947C338.673 275.245 337.194 275.21 335.78 274.847C335.71 274.83 335.638 274.833 335.571 274.858C335.504 274.882 335.446 274.926 335.404 274.984C330.99 281.211 322.748 288.551 312.866 290.476C312.789 290.491 312.72 290.531 312.668 290.59C312.617 290.649 312.587 290.724 312.583 290.802C312.578 290.88 312.6 290.957 312.645 291.021C312.69 291.085 312.755 291.133 312.829 291.156C316.213 292.138 319.726 292.604 323.249 292.536ZM361.491 272.242C360.094 276.935 355.666 281.511 348.99 285.149C338.327 290.961 324.059 293.265 314.378 290.85C323.749 288.531 331.52 281.578 335.836 275.576C337.321 275.92 338.865 275.929 340.355 275.602C341.844 275.275 343.242 274.62 344.447 273.686C345.726 272.772 346.789 271.59 347.563 270.223C348.336 268.855 348.801 267.335 348.924 265.769C349.03 262.705 347.982 260.239 346.046 259.005C345.245 258.529 344.342 258.252 343.411 258.197C342.481 258.143 341.551 258.313 340.7 258.692L343.589 252.781C343.63 252.697 343.636 252.601 343.606 252.513C343.576 252.425 343.513 252.353 343.429 252.312C342.814 252.007 340.93 251.745 337.81 251.313C330.075 250.24 315.683 248.242 299.698 242.706C296.662 241.653 293.775 240.535 291.11 239.381L292.052 235.982C292.071 235.916 292.069 235.847 292.048 235.782C292.028 235.717 291.988 235.659 291.935 235.616C291.883 235.572 291.818 235.545 291.75 235.538C291.682 235.531 291.613 235.544 291.552 235.576L287.439 237.698C284.93 236.484 282.551 235.192 280.36 233.847L285.871 229.449C285.94 229.396 285.987 229.318 286.001 229.232C286.016 229.145 285.998 229.057 285.951 228.983C285.904 228.91 285.831 228.856 285.746 228.833C285.662 228.811 285.572 228.82 285.494 228.861L278.245 232.5C275.342 230.545 272.557 228.421 269.904 226.139C268.751 225.178 267.656 224.264 266.589 223.463L271.073 220.502C271.139 220.459 271.188 220.394 271.213 220.319C271.238 220.244 271.237 220.163 271.21 220.088C271.183 220.014 271.131 219.951 271.063 219.91C270.996 219.868 270.916 219.851 270.838 219.86L262.29 220.883L262.28 220.879C262.147 220.82 262.013 220.761 261.875 220.708C258.938 219.554 256.978 219.45 255.683 219.748C259.022 217.008 265.097 216.555 271 216.116C276.241 215.725 281.193 215.356 284.483 213.508C289.216 210.851 294.409 209.112 299.788 208.382C323.794 205.076 346.043 222.258 349.399 246.66C354.973 265.45 360.432 271.252 361.491 272.242Z" fill="#00257D"/>
<path d="M271.49 228.369L271.932 227.823L266.571 223.477L271.075 220.507C271.141 220.463 271.191 220.399 271.216 220.323C271.241 220.248 271.239 220.167 271.212 220.092C271.185 220.018 271.133 219.955 271.066 219.914C270.998 219.872 270.919 219.855 270.84 219.864L262.291 220.887C261.454 220.534 255.503 218.175 253.405 221.346L253.991 221.732C255.876 218.882 262.036 221.541 262.098 221.568C262.156 221.593 262.219 221.603 262.281 221.596L269.448 220.735L265.782 223.153C265.736 223.184 265.698 223.224 265.671 223.272C265.644 223.32 265.628 223.374 265.625 223.429C265.622 223.484 265.632 223.539 265.655 223.589C265.677 223.64 265.712 223.684 265.755 223.718L271.49 228.369Z" fill="white"/>
<path d="M309.985 245.375L310.452 244.85C294.646 230.836 268.891 215.806 268.633 215.657L268.279 216.264C268.536 216.414 294.231 231.409 309.985 245.375Z" fill="white"/>
<path d="M350.91 196.875L367.246 230.677L360.519 263.326L386.453 313.67L376.445 337.945L362.764 337.455L353.179 321.12L333.723 258.13L326.134 219.747L350.91 196.875Z" fill="#FFD6B5"/>
<path d="M376.449 338.296C376.518 338.296 376.586 338.275 376.644 338.236C376.701 338.198 376.746 338.143 376.772 338.079L386.78 313.807C386.799 313.76 386.808 313.709 386.806 313.659C386.804 313.608 386.791 313.558 386.768 313.513L360.891 263.279L367.592 230.748C367.608 230.672 367.598 230.594 367.564 230.524L351.228 196.721C351.204 196.672 351.169 196.628 351.126 196.595C351.082 196.561 351.032 196.539 350.978 196.528C350.924 196.519 350.868 196.522 350.815 196.537C350.763 196.552 350.714 196.579 350.673 196.615L325.895 219.49C325.85 219.531 325.817 219.582 325.799 219.639C325.78 219.696 325.776 219.757 325.788 219.816L333.382 258.198L352.846 321.222C352.855 321.247 352.866 321.27 352.879 321.292L362.462 337.632C362.492 337.683 362.534 337.726 362.585 337.756C362.636 337.786 362.693 337.803 362.752 337.806L376.435 338.296L376.449 338.296ZM386.068 313.686L376.216 337.585L362.971 337.11L353.505 320.976L334.061 258.026L326.519 219.87L350.8 197.454L366.88 230.723L360.179 263.255C360.163 263.333 360.174 263.415 360.211 263.486L386.068 313.686Z" fill="#00257D"/>
<path d="M357.422 230.209L345.308 202.203L344.663 202.482L356.777 230.488L357.422 230.209Z" fill="#00257D"/>
<path d="M349.076 235.269L338.69 208.332L338.034 208.585L348.42 235.522L349.076 235.269Z" fill="#00257D"/>
<path d="M340.512 239.753L332.28 214.267L331.612 214.483L339.843 239.969L340.512 239.753Z" fill="#00257D"/>
<path d="M121.687 311.566L144.888 334.95L133.671 348.951L105.983 327.316L121.687 311.566Z" fill="#FFD6B5"/>
<path d="M133.794 349.491L134.226 348.938L106.511 327.282L121.69 312.063L144.424 334.974L134.801 346.985L135.349 347.425L145.168 335.169C145.222 335.101 145.249 335.017 145.245 334.93C145.24 334.844 145.204 334.763 145.143 334.702L121.942 311.318C121.909 311.285 121.871 311.259 121.828 311.242C121.785 311.224 121.74 311.215 121.693 311.214C121.646 311.207 121.598 311.213 121.554 311.231C121.51 311.25 121.472 311.279 121.444 311.317L105.737 327.067C105.701 327.102 105.674 327.144 105.657 327.19C105.639 327.237 105.632 327.287 105.635 327.336C105.638 327.386 105.651 327.434 105.675 327.478C105.698 327.522 105.73 327.56 105.769 327.591L133.794 349.491Z" fill="#00257D"/>
<path d="M126.211 310.681L121.63 318.774L116.05 320.189L116.633 309.412L122.501 304.82L127.57 305.991L126.211 310.681Z" fill="#FFD6B5"/>
<path d="M127.965 317.894L127.473 317.393L112.349 332.229L112.841 332.73L127.965 317.894Z" fill="#00257D"/>
<path d="M116.048 320.54C116.077 320.54 116.105 320.536 116.133 320.529L121.714 319.115C121.76 319.103 121.803 319.082 121.841 319.053C121.878 319.024 121.909 318.988 121.933 318.947L126.514 310.85L125.903 310.502L121.396 318.465L116.423 319.724L116.972 309.583L122.582 305.193L127.788 306.395L127.947 305.711L122.58 304.472C122.529 304.46 122.475 304.459 122.424 304.47C122.373 304.481 122.325 304.504 122.283 304.536L116.416 309.128C116.376 309.159 116.344 309.198 116.321 309.242C116.298 309.287 116.284 309.336 116.282 309.386L115.699 320.162C115.697 320.21 115.704 320.258 115.72 320.303C115.737 320.348 115.763 320.389 115.796 320.424C115.829 320.459 115.869 320.486 115.913 320.505C115.957 320.524 116.004 320.533 116.052 320.533L116.048 320.54Z" fill="#00257D"/>
<path d="M133.5 323.46L132.996 322.971L118.953 337.399L119.456 337.889L133.5 323.46Z" fill="#00257D"/>
<path d="M139.445 329.427L138.913 328.968L126.508 343.334L127.04 343.793L139.445 329.427Z" fill="#00257D"/>
<path d="M376.797 337.969L376.096 337.924L374.774 358.499L375.475 358.544L376.797 337.969Z" fill="#00257D"/>
<path d="M253.271 393.281L252.67 392.918L235.115 421.98L235.717 422.343L253.271 393.281Z" fill="white"/>
<g clip-path="url(#clip1_651_2308)">
<path d="M105.874 247.55C104.963 247.876 103.963 247.394 103.638 246.483C103.319 245.574 103.794 244.573 104.705 244.247L125.399 236.855C126.309 236.537 127.316 237.013 127.635 237.922C127.96 238.833 127.479 239.833 126.568 240.158L105.874 247.55ZM137.555 242.234C136.82 241.606 136.732 240.502 137.354 239.765C137.983 239.03 139.088 238.936 139.823 239.564L156.27 253.562C157.007 254.184 157.095 255.288 156.471 256.031C155.843 256.766 154.739 256.854 154.002 256.232L137.555 242.234ZM158.027 266.666C158.202 265.712 159.122 265.084 160.076 265.26C161.03 265.436 161.665 266.35 161.49 267.303L157.4 289.526C157.224 290.48 156.304 291.114 155.35 290.939C154.396 290.763 153.761 289.843 153.937 288.888L158.027 266.666ZM146.695 297.108C147.606 296.783 148.614 297.258 148.939 298.17C149.264 299.08 148.789 300.088 147.877 300.413L135.414 304.854C134.501 305.186 133.501 304.712 133.177 303.794C132.852 302.883 133.326 301.882 134.237 301.557L146.695 297.108ZM108.547 296.856C109.289 297.486 109.375 298.596 108.747 299.331C108.112 300.066 107.008 300.153 106.273 299.525L96.7367 291.4C96.0009 290.771 95.9136 289.667 96.5432 288.925C97.1716 288.19 98.2756 288.102 99.0176 288.732L108.547 296.856ZM94.5683 277.963C94.3927 278.917 93.4722 279.551 92.5181 279.375C91.5641 279.2 90.9297 278.279 91.1052 277.325L95.195 255.103C95.3706 254.149 96.2899 253.521 97.244 253.697C98.198 253.872 98.8337 254.786 98.6581 255.74L94.5683 277.963Z" fill="#FFAA00"/>
<path d="M138.166 273.307L133.611 298.058L147.652 333.351C148.344 335.316 147.949 337.5 146.596 339.088L139.203 347.766C137.799 349.412 135.68 350.097 133.694 349.731L91.8237 342.025C89.5433 341.606 87.8131 339.922 87.2319 337.83L83.5558 327.486C82.7794 325.316 83.3681 323 84.8691 321.452L110.298 293.767L114.853 269.016L138.166 273.307Z" fill="white"/>
<path d="M138.166 273.306L133.611 298.057L147.651 333.351C148.344 335.316 147.948 337.5 146.596 339.088L139.203 347.766C137.798 349.412 135.679 350.096 133.693 349.731L126.78 348.458C128.767 348.824 130.885 348.14 132.29 346.493L139.683 337.815C141.036 336.227 141.431 334.043 140.739 332.078L126.691 296.784L131.246 272.033L138.166 273.306Z" fill="#F1F3FA"/>
<path fill-rule="evenodd" clip-rule="evenodd" d="M107.393 307.716L91.6725 324.826C91.125 325.414 90.8567 326.249 91.1904 327.189L93.5017 333.681C93.8042 334.534 94.4118 335.084 95.3527 335.258L134.185 342.404C135.125 342.577 135.89 342.279 136.476 341.589L140.947 336.346C141.594 335.587 141.64 334.711 141.338 333.966L132.739 312.38C132.407 311.542 131.745 310.989 130.837 310.821L109.725 306.936C108.817 306.769 108.002 307.051 107.393 307.716Z" fill="#2C4A93"/>
<path fill-rule="evenodd" clip-rule="evenodd" d="M127.265 341.13L134.184 342.404C135.125 342.577 135.89 342.279 136.476 341.589L140.947 336.346C141.593 335.587 141.64 334.71 141.338 333.966L132.739 312.38C132.406 311.542 131.745 310.988 130.837 310.821L123.924 309.549C124.825 309.715 125.494 310.27 125.826 311.108L134.425 332.693C134.72 333.437 134.68 334.314 134.034 335.074L129.563 340.317C128.977 341.006 128.212 341.305 127.265 341.13Z" fill="#163788"/>
<path fill-rule="evenodd" clip-rule="evenodd" d="M114.641 270.172L137.954 274.463C140.026 274.844 142.031 273.456 142.411 271.392C142.792 269.32 141.412 267.31 139.341 266.929L116.027 262.638C113.956 262.257 111.951 263.644 111.57 265.716C111.19 267.78 112.569 269.791 114.641 270.172Z" fill="#F2E3F4"/>
<path fill-rule="evenodd" clip-rule="evenodd" d="M131.033 273.189L137.953 274.463C140.024 274.844 142.03 273.456 142.41 271.392C142.791 269.321 141.411 267.31 139.34 266.929L132.42 265.656C134.491 266.037 135.878 268.048 135.496 270.12C135.116 272.184 133.105 273.571 131.033 273.189Z" fill="#DFCFE1"/>
<path d="M162.502 252.075C166.854 252.876 169.737 257.06 168.936 261.412C168.136 265.764 163.952 268.647 159.6 267.846C155.248 267.045 152.364 262.861 153.165 258.51C153.966 254.158 158.15 251.274 162.502 252.075ZM134.425 228.155C138.777 228.956 141.66 233.14 140.859 237.492C140.058 241.844 135.874 244.727 131.522 243.926C127.17 243.125 124.287 238.941 125.088 234.589C125.889 230.237 130.073 227.354 134.425 228.155ZM99.6707 240.512C104.023 241.313 106.906 245.497 106.105 249.849C105.304 254.2 101.12 257.084 96.7682 256.283C92.4162 255.482 89.5332 251.298 90.3341 246.946C91.135 242.594 95.3187 239.711 99.6707 240.512ZM92.9943 276.789C97.3466 277.59 100.231 281.767 99.4288 286.126C98.6278 290.478 94.444 293.361 90.0918 292.56C85.7399 291.759 82.8568 287.575 83.6577 283.223C84.4598 278.865 88.6422 275.988 92.9943 276.789ZM155.826 288.352C160.178 289.153 163.062 293.331 162.26 297.689C161.459 302.041 157.275 304.924 152.923 304.123C148.571 303.322 145.688 299.139 146.489 294.787C147.291 290.428 151.474 287.551 155.826 288.352Z" fill="white" stroke="#00257D" stroke-width="0.6"/>
<path d="M110.237 317.15C109.283 316.974 108.647 316.06 108.823 315.106C108.998 314.152 109.919 313.518 110.873 313.693L127.359 316.727C128.313 316.903 128.947 317.823 128.772 318.778C128.596 319.732 127.677 320.359 126.723 320.184L110.237 317.15ZM99.2365 329.426C98.2824 329.25 97.6535 328.337 97.8303 327.377C98.0059 326.423 98.9187 325.794 99.8725 325.97L133.268 332.116C134.222 332.291 134.851 333.204 134.676 334.158C134.499 335.118 133.586 335.747 132.632 335.572L99.2365 329.426ZM104.619 323.269C103.665 323.094 103.03 322.173 103.206 321.219C103.381 320.265 104.302 319.631 105.256 319.806L130.432 324.44C131.386 324.615 132.014 325.535 131.838 326.489C131.663 327.443 130.748 328.078 129.794 327.903L104.619 323.269Z" fill="#FFAA00"/>
</g>
<path d="M195.45 183C195.45 186.148 192.898 188.7 189.75 188.7C186.602 188.7 184.05 186.148 184.05 183C184.05 179.852 186.602 177.3 189.75 177.3C192.898 177.3 195.45 179.852 195.45 183Z" fill="white" stroke="#00257D" stroke-width="0.6"/>
<path d="M42.7 319.239C42.7 323.215 39.4764 326.439 35.5 326.439C31.5235 326.439 28.3 323.215 28.3 319.239C28.3 315.262 31.5235 312.039 35.5 312.039C39.4764 312.039 42.7 315.262 42.7 319.239Z" fill="white" stroke="#00257D" stroke-width="0.6"/>
<path d="M394.7 374C394.7 376.596 392.596 378.7 390 378.7C387.404 378.7 385.3 376.596 385.3 374C385.3 371.404 387.404 369.3 390 369.3C392.596 369.3 394.7 371.404 394.7 374Z" fill="white" stroke="#00257D" stroke-width="0.6"/>
</g>
<defs>
<clipPath id="clip0_651_2308">
<rect width="512" height="522" fill="white"/>
</clipPath>
<clipPath id="clip1_651_2308">
<rect width="120" height="120" fill="white" transform="translate(75.4707 217) rotate(10.428)"/>
</clipPath>
</defs>
</svg>
