<svg width="242" height="242" viewBox="0 0 242 242" fill="none" xmlns="http://www.w3.org/2000/svg">
<g clip-path="url(#clip0_1349_7053)">
<path d="M120.665 39.1301L140.009 104.13L216.899 171.691C220.965 175.562 222.688 181.289 221.383 186.757L214.249 216.637C212.892 222.308 208.641 226.543 203.425 228.096L93.4685 260.819C87.48 262.601 81.2666 260.676 77.3108 256.363L55.8297 236.025C51.3116 231.766 49.8907 225.483 51.6009 219.931L78.7841 122.35L59.4402 57.3506L120.665 39.1301Z" fill="#314F96"/>
<path fill-rule="evenodd" clip-rule="evenodd" d="M88.8691 159.394L72.0571 219.708C71.4623 221.79 71.84 224.124 73.7908 225.972L87.2822 238.73C89.052 240.408 91.1847 240.987 93.6557 240.252L195.633 209.903C198.104 209.168 199.575 207.516 200.138 205.144L204.459 187.085C205.082 184.471 204.121 182.31 202.485 180.892L155.43 139.585C153.608 137.979 151.342 137.459 148.957 138.169L93.5153 154.669C91.1297 155.379 89.5173 157.053 88.8691 159.394Z" fill="#2C4A93"/>
<path fill-rule="evenodd" clip-rule="evenodd" d="M177.464 215.311L195.635 209.903C198.106 209.168 199.577 207.516 200.14 205.144L204.461 187.084C205.084 184.471 204.123 182.31 202.487 180.892L155.432 139.585C153.61 137.979 151.344 137.459 148.959 138.169L130.805 143.572C133.172 142.867 135.456 143.382 137.278 144.987L184.333 186.294C185.952 187.718 186.929 189.873 186.306 192.487L181.986 210.546C181.422 212.919 179.952 214.57 177.464 215.311Z" fill="#163788"/>
<path fill-rule="evenodd" clip-rule="evenodd" d="M60.3414 60.3873L121.567 42.1666C127.006 40.5479 130.122 34.7634 128.509 29.3414C126.89 23.9018 121.118 20.7638 115.679 22.3824L54.4536 40.6032C49.0147 42.2218 45.8978 48.0051 47.5166 53.4447C49.1302 58.8667 54.9019 62.0061 60.3414 60.3873Z" fill="#3D599C"/>
<path d="M107.24 178.565C104.734 179.311 102.09 177.894 101.344 175.389C100.598 172.884 102.033 170.235 104.539 169.489L147.832 156.605C150.338 155.859 152.987 157.293 153.733 159.799C154.478 162.304 153.039 164.935 150.533 165.681L107.24 178.565ZM95.8461 221.499C93.3406 222.244 90.7139 220.822 89.9631 218.299C89.2174 215.794 90.64 213.168 93.1449 212.422L180.846 186.322C183.352 185.577 185.979 186.998 186.724 189.503C187.475 192.026 186.052 194.653 183.548 195.399L95.8461 221.499ZM101.237 200.133C98.731 200.878 96.0816 199.444 95.336 196.939C94.5903 194.433 96.0245 191.784 98.53 191.038L164.645 171.362C167.151 170.617 169.783 172.056 170.529 174.561C171.274 177.067 169.857 179.711 167.352 180.457L101.237 200.133Z" fill="#3D599C"/>
<path d="M206.379 34.6432C206.147 34.6195 205.927 34.4801 205.834 34.2368C204.024 28.9095 198.225 25.9788 192.89 27.7703C192.531 27.8503 192.311 27.7109 192.113 27.3401C192.125 27.2245 192.125 27.2245 192.137 27.1088C192.16 26.8774 192.299 26.6579 192.542 26.566C197.876 24.7745 200.797 18.9964 198.987 13.669C198.998 13.5534 198.998 13.5534 199.01 13.4377C199.045 13.0906 199.3 12.883 199.648 12.9186C199.88 12.9423 200.1 13.0818 200.193 13.325C202.003 18.6523 207.802 21.583 213.136 19.7916C213.496 19.7115 213.716 19.8509 213.913 20.2217C213.902 20.3374 213.902 20.3374 213.89 20.453C213.867 20.6844 213.728 20.9039 213.485 20.9959C208.151 22.7873 205.23 28.5654 207.04 33.8928C207.028 34.0085 207.028 34.0085 207.017 34.1241C206.994 34.3555 206.855 34.575 206.611 34.667C206.611 34.667 206.495 34.6551 206.379 34.6432ZM197.378 26.2427C200.509 26.5632 203.397 28.1442 205.369 30.6833C205.368 27.1773 207.003 23.7217 209.901 21.681C206.388 21.672 202.92 20.0316 200.866 17.1336C200.74 20.7435 199.117 24.0834 196.218 26.1241C196.566 26.1597 197.03 26.2071 197.378 26.2427Z" fill="#314F96"/>
</g>
<defs>
<clipPath id="clip0_1349_7053">
<rect width="242" height="242" fill="white"/>
</clipPath>
</defs>
</svg>
