<svg width="120" height="120" viewBox="0 0 120 120" fill="none" xmlns="http://www.w3.org/2000/svg">
<g clip-path="url(#clip0_1256_12825)">
<path d="M53.0713 16.9279L63.0328 50.4007L102.628 85.1918C104.722 87.1853 105.609 90.1345 104.937 92.9504L101.264 108.337C100.565 111.258 98.376 113.439 95.6899 114.238L39.0662 131.09C35.9823 132.007 32.7827 131.016 30.7456 128.795L19.6836 118.322C17.357 116.128 16.6252 112.893 17.5059 110.034L31.5042 59.7833L21.5428 26.3109L53.0713 16.9279Z" fill="#F1F3FA"/>
<path fill-rule="evenodd" clip-rule="evenodd" d="M36.6944 78.8587L28.0369 109.918C27.7306 110.99 27.9251 112.192 28.9297 113.144L35.8773 119.714C36.7887 120.578 37.887 120.876 39.1594 120.498L91.6742 104.869C92.9467 104.491 93.7038 103.64 93.9941 102.418L96.219 93.1185C96.5399 91.7725 96.0449 90.6599 95.2025 89.9296L70.9711 68.6579C70.0325 67.831 68.8659 67.5633 67.6377 67.9288L39.0871 76.4256C37.8586 76.7912 37.0282 77.6532 36.6944 78.8587Z" fill="#E7EAF4"/>
<path fill-rule="evenodd" clip-rule="evenodd" d="M82.3168 107.654L91.6745 104.869C92.9469 104.491 93.7041 103.64 93.9944 102.418L96.2193 93.1186C96.5402 91.7726 96.0451 90.66 95.2027 89.9297L70.9714 68.658C70.0327 67.8311 68.8662 67.5634 67.638 67.9289L58.2891 70.7112C59.5082 70.3484 60.6841 70.6133 61.6225 71.4402L85.8541 92.7118C86.6878 93.4448 87.1912 94.5549 86.8704 95.9008L84.6457 105.201C84.3551 106.423 83.598 107.273 82.3168 107.654Z" fill="#E2E6F1"/>
<path fill-rule="evenodd" clip-rule="evenodd" d="M22.0044 27.8741L53.5332 18.4911C56.3341 17.6576 57.9389 14.6787 57.108 11.8866C56.2744 9.08544 53.3021 7.46946 50.5012 8.303L18.9724 17.686C16.1715 18.5196 14.5664 21.4978 15.4001 24.2989C16.231 27.0911 19.2032 28.7078 22.0044 27.8741Z" fill="#E7EAF4"/>
<path d="M46.158 88.7319C44.8675 89.116 43.5058 88.3865 43.1219 87.0966C42.738 85.8064 43.4765 84.442 44.767 84.0579L67.0616 77.423C68.3519 77.0391 69.7162 77.7776 70.1002 79.0678C70.4842 80.358 69.7429 81.7131 68.4526 82.097L46.158 88.7319ZM40.2907 110.841C39.0004 111.225 37.6478 110.493 37.2611 109.194C36.8772 107.903 37.6098 106.551 38.8997 106.167L84.0628 92.7265C85.353 92.3426 86.7056 93.0747 87.0895 94.3647C87.4762 95.6639 86.7437 97.0167 85.4538 97.4005L40.2907 110.841ZM43.0666 99.8384C41.7763 100.222 40.412 99.4839 40.028 98.1936C39.644 96.9034 40.3826 95.539 41.6728 95.1551L75.7197 85.0226C77.01 84.6387 78.3656 85.3798 78.7496 86.67C79.1336 87.9602 78.4034 89.3221 77.1135 89.706L43.0666 99.8384Z" fill="#F1F3FA"/>
<path d="M101.693 25.375C101.545 25.3599 101.405 25.271 101.345 25.1161C100.192 21.7222 96.4977 19.8552 93.0995 20.9964C92.8705 21.0475 92.7301 20.9586 92.6045 20.7224C92.6119 20.6487 92.6119 20.6487 92.6192 20.575C92.634 20.4276 92.7226 20.2878 92.8777 20.2292C96.2758 19.0879 98.1367 15.4069 96.9833 12.013C96.9907 11.9394 96.9907 11.9394 96.998 11.8657C97.0201 11.6446 97.1826 11.5123 97.4043 11.535C97.552 11.5501 97.6924 11.6389 97.7516 11.7939C98.9049 15.1877 102.599 17.0548 105.997 15.9135C106.226 15.8625 106.367 15.9513 106.493 16.1875C106.485 16.2612 106.485 16.2612 106.478 16.3349C106.463 16.4823 106.374 16.6221 106.219 16.6807C102.821 17.822 100.96 21.503 102.114 24.8969C102.106 24.9706 102.106 24.9706 102.099 25.0443C102.084 25.1917 101.996 25.3315 101.84 25.3901C101.84 25.3901 101.767 25.3825 101.693 25.375ZM95.9584 20.0233C97.9532 20.2274 99.793 21.2347 101.049 22.8523C101.049 20.6187 102.09 18.4172 103.937 17.1172C101.698 17.1115 99.4888 16.0664 98.1807 14.2202C98.1 16.5199 97.0662 18.6477 95.2196 19.9477C95.4412 19.9704 95.7368 20.0006 95.9584 20.0233Z" fill="#F1F3FA"/>
</g>
<defs>
<clipPath id="clip0_1256_12825">
<rect width="120" height="120" fill="white"/>
</clipPath>
</defs>
</svg>
