<svg width="188" height="188" viewBox="0 0 188 188" fill="none" xmlns="http://www.w3.org/2000/svg">
<g clip-path="url(#clip0_1349_7075)">
<path d="M37.4118 118.852C31.5528 120.985 28.5319 127.463 30.6642 133.322L35.2032 157.675L46.693 177.361C48.8255 183.22 55.3039 186.24 61.1629 184.108C67.0219 181.975 70.0429 175.497 67.9105 169.638L51.8817 125.6C49.7492 119.741 43.2708 116.72 37.4118 118.852Z" fill="#E7EAF4"/>
<path d="M65.6232 181.128C64.4367 182.429 62.9287 183.466 61.1626 184.108C55.303 186.241 48.8277 183.219 46.695 177.359L31.1056 154.195L30.6668 133.322C28.534 127.463 31.5518 120.985 37.4114 118.852C39.1774 118.21 40.9991 118.035 42.7441 118.268C39.9919 121.27 38.9701 125.664 40.4601 129.758L56.4883 173.795C57.9782 177.888 61.5854 180.598 65.6232 181.128Z" fill="#F1F3FA"/>
<path d="M172.09 167.346L124.148 186.476C121.109 187.582 117.644 186.198 116.397 183.215C115.064 180.03 116.673 176.415 119.88 175.248L162.324 159.799C165.441 158.665 168.445 154.457 167.311 151.341L155.819 124.368C154.713 121.33 156.096 117.865 159.08 116.617C162.265 115.285 165.88 116.894 167.047 120.101L179.51 154.343C181.638 160.187 177.934 165.219 172.09 167.346Z" fill="#F1F3FA"/>
<path d="M162.034 88.4073L156.985 87.8664C156.258 87.7885 155.64 87.2984 155.397 86.6091C153.936 82.4728 152.663 79.1697 152.48 78.5843C148.709 68.2237 142.823 59.232 135.487 51.9187C116.114 32.6061 81.8293 27.5467 54.4495 37.3383C54.4495 37.3383 3.05833 90.8962 16.9576 128.432L19.653 135.838C19.9401 136.626 19.7714 137.508 19.2118 138.134C18.1275 139.346 17.7038 141.253 17.4409 141.593C15.4335 143.68 14.7887 146.728 15.7792 149.449L22.8546 171.482C23.8452 174.204 26.2979 176.124 29.1777 176.433L47.4973 179.589C45.4854 174.061 29.0749 128.974 27.5158 124.69C16.0751 93.2569 31.9171 58.1646 63.3127 46.6278C94.7789 35.2848 129.472 51.9843 140.912 83.4171L160.894 138.316L172.871 124.807C174.878 122.719 176.526 119.636 175.536 116.915L175.805 113.824L168.356 93.3578C167.366 90.6364 164.913 88.716 162.034 88.4073Z" fill="#E7EAF4"/>
<path d="M129.585 85.3021C135.444 83.1696 141.923 86.1906 144.055 92.0492L155.397 114.429L160.084 136.088C162.216 141.947 159.195 148.425 153.336 150.558C147.477 152.69 140.999 149.669 138.867 143.81L122.838 99.7717C120.706 93.9126 123.726 87.4346 129.585 85.3021Z" fill="#E7EAF4"/>
<path d="M154.498 146.615C155.535 147.099 156.649 147.426 157.798 147.577C156.611 148.878 155.103 149.914 153.337 150.557C150.409 151.623 147.323 151.401 144.704 150.18C142.086 148.959 139.932 146.738 138.866 143.809L122.838 99.7722C120.705 93.9126 123.726 87.4341 129.586 85.3013C131.352 84.6585 133.174 84.4835 134.919 84.7171C132.166 87.7189 131.141 92.1142 132.631 96.2078L148.66 140.245C149.725 143.173 151.88 145.395 154.498 146.615Z" fill="#E7EAF4"/>
<path d="M135.491 51.9185C116.119 32.6071 86.6278 24.997 59.2487 34.7884L59.2463 34.7819C32.2479 44.2684 14.3432 69.2326 11.4109 96.4109C10.2399 107.251 11.4491 118.445 15.4142 129.146L18.109 136.55C18.3965 137.34 18.2261 138.223 17.6662 138.848C16.5839 140.059 14.8113 141.75 14.5502 142.089C12.5412 144.177 11.8981 147.225 12.8878 149.944L21.092 172.485C22.0829 175.207 24.5344 177.128 27.4155 177.436L47.504 179.589L45.0695 172.9L28.043 171.563C27.4093 171.498 26.8601 171.066 26.6415 170.465L18.4373 147.924C17.8296 146.004 21.0524 144.326 22.0707 142.783C24.0829 140.531 24.6922 137.37 23.6585 134.53L20.9638 127.126C17.8789 118.823 16.5404 110.022 16.963 101.122C17.0095 100.139 18.0459 99.5147 18.9371 99.9327C20.5349 100.682 22.3033 101.428 23.8488 101.474C24.7188 77.5672 39.5667 55.357 63.3174 46.6274C87.224 38.0111 112.992 45.579 129.007 63.4985C134.076 69.1658 138.167 75.8654 140.916 83.4193L160.897 138.317L174.902 123.756C176.911 121.668 177.554 118.62 176.563 115.898L175.809 113.825L165.527 124.897C164.466 126.039 162.573 125.656 162.041 124.192L146.465 81.3994C143.352 72.8447 138.677 65.3009 132.883 58.9777C132.487 58.5461 132.397 57.9163 132.666 57.3961L135.491 51.9185Z" fill="#F1F3FA"/>
<path d="M23.1075 94.1984C25.2937 95.2178 27.8843 93.964 28.3967 91.6067C29.5535 86.2865 31.4673 81.1641 34.0621 76.4034C40.4445 64.6925 50.9461 55.1678 64.4347 50.2584C77.2952 45.5775 90.773 45.8558 102.762 50.1118C108.577 52.1761 114.042 55.176 118.916 58.9996C120.797 60.4751 123.549 59.906 124.645 57.7817L130.481 46.4762C131.336 44.8194 130.857 42.7861 129.354 41.6835C121.627 36.0185 112.897 31.8317 103.651 29.3496C88.9408 25.4005 72.9233 25.7661 57.556 31.3593C39.9542 37.7658 26.1072 49.9747 17.3874 65.0439C13.8835 71.0985 11.2076 77.6149 9.44807 84.4024C8.98915 86.1724 9.85504 88.0192 11.5122 88.7917L23.1075 94.1984Z" fill="#E7EAF4"/>
<path d="M130.995 185.919L114.789 191.877C112.986 192.533 111.024 191.69 110.407 189.993L106.237 180.482C105.619 178.785 106.58 176.878 108.383 176.222L109.608 174.579L114.459 172.814L117.865 173.703L119.356 171.032L126.164 168.554C127.967 167.898 129.929 168.741 130.546 170.438L134.051 180.066L134.051 183C134.668 184.697 132.798 185.263 130.995 185.919Z" fill="#E7EAF4"/>
<path d="M134.344 180.863L135.176 183.148C135.831 184.95 134.904 186.943 133.099 187.6L115.118 191.769C113.316 192.425 111.618 193.269 110.618 192.269L105.579 179.746C104.922 177.941 105.853 175.95 107.655 175.294L109.614 174.581L113.337 184.811C113.993 186.613 115.988 187.544 117.79 186.888L134.344 180.863Z" fill="#E7EAF4"/>
<path d="M114.461 172.814L119.358 171.032L125.843 188.85L120.946 190.633L114.461 172.814Z" fill="#E7EAF4"/>
</g>
<defs>
<clipPath id="clip0_1349_7075">
<rect width="188" height="188" fill="white"/>
</clipPath>
</defs>
</svg>
