<svg width="750" height="333" viewBox="0 0 750 333" fill="none" xmlns="http://www.w3.org/2000/svg">
<path d="M368.421 79.5971L382.7 71.4201L389.751 90.7056L376.466 102.26L355.684 109.857L334.702 150.121H317.429L301.325 128.361L316.536 116.203L322.78 127.527L341.911 99.9612L346.502 82.0435L366.039 73.7339L367.804 77.2033L359.209 84.2051L368.421 79.5971Z" fill="#FFD6B5"/>
<path d="M193.574 242.107L148.613 202.475L158.933 188.944L174.557 198.996L193.574 242.107Z" fill="#FFD6B5"/>
<path d="M267.885 290.5V238.056L243.969 243.978L254.058 294.223L267.885 290.5Z" fill="#FFD6B5"/>
<path d="M268.13 238.056H267.64V290.5H268.13V238.056Z" fill="#00257D"/>
<path d="M244.822 246.99L244.341 247.087L253.815 294.272L254.296 294.176L244.822 246.99Z" fill="#00257D"/>
<path d="M296.7 8.87776L290.626 11.5131L271.656 6.67542L245.535 30.7725C244.421 42.3665 235.73 57.9213 217.894 55.0326C218.205 63.251 220.201 71.3177 223.758 78.7321L239.735 73.6691L227.071 84.641C233.248 94.1838 243.58 103.248 260.878 106.927L288.395 77.7713L309.112 36.6014C309.112 36.6014 310.728 17.8761 296.7 8.87776Z" fill="#00257D"/>
<path d="M260.878 107.173C260.861 107.173 260.845 107.172 260.829 107.169C245.849 103.983 234.422 96.4494 226.866 84.7765C226.834 84.7267 226.821 84.667 226.83 84.6084C226.838 84.5497 226.867 84.4961 226.912 84.4574L238.678 74.2645L223.834 78.9682C223.777 78.9858 223.717 78.9826 223.663 78.9592C223.609 78.9358 223.565 78.8936 223.539 78.8405C219.982 71.387 217.979 63.2868 217.652 55.0336C217.652 54.9973 217.66 54.9616 217.676 54.9289C217.691 54.8961 217.714 54.8672 217.742 54.8441C217.77 54.8219 217.803 54.806 217.838 54.7976C217.873 54.7891 217.91 54.7882 217.945 54.795C220.824 55.4165 223.805 55.3906 226.673 54.7192C229.54 54.0479 232.223 52.7477 234.528 50.9126C241.19 45.7284 244.988 36.8508 245.296 30.7612C245.297 30.7294 245.305 30.6982 245.319 30.6693C245.332 30.6405 245.351 30.6147 245.375 30.5933L271.49 6.49468C271.52 6.46699 271.556 6.44723 271.596 6.4372C271.635 6.42717 271.677 6.42718 271.716 6.43724L290.605 11.2543L296.601 8.65235C296.638 8.63632 296.678 8.62964 296.718 8.6329C296.758 8.63615 296.797 8.64924 296.831 8.671C310.822 17.6453 309.373 36.4335 309.356 36.622C309.354 36.6532 309.345 36.6835 309.331 36.7113L288.613 77.8837C288.602 77.9049 288.589 77.9245 288.572 77.9416L261.055 107.097C261.032 107.121 261.005 107.14 260.974 107.153C260.944 107.166 260.911 107.173 260.878 107.173ZM227.393 84.6886C234.854 96.1107 246.09 103.502 260.794 106.659L288.192 77.6309L308.872 36.5341C308.945 35.4997 309.964 17.7803 296.677 9.15507L290.724 11.7384C290.674 11.76 290.619 11.7645 290.566 11.7511L271.727 6.94634L245.775 30.8854C245.426 37.0835 241.567 46.0524 234.825 51.2995C232.506 53.147 229.811 54.4652 226.93 55.162C224.049 55.8588 221.05 55.9173 218.144 55.3335C218.521 63.3373 220.472 71.188 223.887 78.4355L239.662 73.4373C239.716 73.4205 239.774 73.4226 239.826 73.4435C239.878 73.4643 239.922 73.5025 239.949 73.5517C239.977 73.6008 239.987 73.658 239.977 73.7135C239.967 73.769 239.939 73.8195 239.897 73.8566L227.393 84.6886Z" fill="#00257D"/>
<path d="M290.853 79.0451L286.815 92.3853L292.26 89.3189V109.112L280.036 118.593L264.731 91.3151L271.392 87.822L275.897 72.143L290.853 79.0451Z" fill="#FFD6B5"/>
<path d="M312.258 47.0855C315.226 64.3817 307.873 80.0799 295.835 82.1477C285.533 83.9151 275.142 75.1342 270.498 61.7248C265.881 65.7887 259.768 58.6775 260.838 53.8295C261.721 49.8176 265.117 49.0434 268.295 51.9527C266.458 35.7194 273.661 21.4758 285.089 19.5126C297.127 17.4447 309.29 29.7893 312.258 47.0855Z" fill="#FFD6B5"/>
<path d="M304.913 61.9545L303.457 60.1734L302.018 61.2181L300.011 60.6869L297.233 63.4023C299.846 63.2597 302.428 62.7729 304.913 61.9545Z" fill="#CC1D37"/>
<path d="M298.306 69.7777L301.84 71.5942L304.914 67.8945" fill="#CC1D37"/>
<path d="M302.705 26.7016C298.329 20.3926 291.823 15.9427 283.461 13.113L268.148 27.6123C263.235 35.0623 263.023 44.4814 263.257 48.9597L267.561 49.8227L271.187 48.2837C271.161 46.2178 271.339 40.2716 273.976 35.8954C273.821 39.5397 274.076 43.19 274.735 46.7775L278.513 45.1647C278.5 43.5908 278.543 40.0983 278.884 39.028C279.693 40.6767 280.374 42.3849 280.922 44.1377L291.617 39.5749C295.946 31.4676 295.409 24.8468 295.409 24.8468C298.209 24.5454 300.972 25.7624 302.705 26.7016Z" fill="#00257D"/>
<path d="M267.561 50.0684C267.545 50.0685 267.528 50.0668 267.512 50.0635L263.211 49.2004C263.158 49.1896 263.11 49.1614 263.074 49.1203C263.039 49.0792 263.018 49.0274 263.015 48.9731C262.761 44.1222 263.064 34.8793 267.946 27.4775C267.956 27.4617 267.968 27.4472 267.982 27.4343L283.296 12.9345C283.328 12.9042 283.368 12.8832 283.411 12.8737C283.455 12.8641 283.499 12.8665 283.541 12.8805C292.105 15.777 298.622 20.382 302.909 26.5619C302.941 26.6072 302.956 26.6619 302.953 26.7171C302.949 26.7722 302.927 26.8246 302.891 26.8658C302.854 26.907 302.804 26.9345 302.75 26.9439C302.695 26.9534 302.639 26.9442 302.591 26.9178C300.032 25.5324 297.704 24.9108 295.669 25.0684C295.712 26.3449 295.689 32.4762 291.838 39.6905C291.811 39.7399 291.769 39.7787 291.717 39.8005L281.022 44.3662C280.99 44.3797 280.956 44.3864 280.922 44.3859C280.887 44.3854 280.854 44.3778 280.822 44.3634C280.791 44.349 280.763 44.3282 280.741 44.3024C280.718 44.2766 280.701 44.2463 280.691 44.2135C280.647 44.0731 280.596 43.8963 280.536 43.6921C280.173 42.2998 279.658 40.9517 279 39.6723C278.806 41.4966 278.727 43.3312 278.762 45.1654C278.763 45.2137 278.749 45.261 278.723 45.3015C278.697 45.342 278.659 45.3739 278.615 45.3932L274.838 47.0054C274.804 47.0198 274.767 47.0264 274.731 47.0248C274.694 47.0232 274.658 47.0134 274.626 46.9961C274.594 46.9788 274.566 46.9545 274.544 46.9249C274.522 46.8954 274.507 46.8613 274.5 46.8253C273.901 43.555 273.634 40.2325 273.703 36.9084C271.593 41.0479 271.412 46.1713 271.438 48.2834C271.439 48.3321 271.425 48.38 271.398 48.4208C271.372 48.4616 271.333 48.4936 271.288 48.5126L267.663 50.0517C267.631 50.0646 267.596 50.0703 267.561 50.0684ZM263.492 48.7571L267.535 49.5672L270.94 48.1218C270.924 45.7113 271.192 40.04 273.767 35.7689C273.795 35.7226 273.838 35.687 273.888 35.6677C273.939 35.6484 273.995 35.6464 274.047 35.6622C274.099 35.6779 274.144 35.7104 274.175 35.7545C274.207 35.7987 274.223 35.8521 274.221 35.9064C274.073 39.4296 274.308 42.9585 274.921 46.431L278.269 45.0034C278.264 44.0534 278.269 40.1544 278.652 38.9531C278.666 38.9094 278.692 38.8705 278.727 38.8408C278.762 38.8111 278.805 38.7918 278.85 38.7851C278.896 38.7785 278.942 38.7846 278.984 38.8029C279.026 38.8213 279.062 38.851 279.088 38.8888C280.061 40.3046 280.675 42.4176 281.005 43.5527C281.031 43.6427 281.056 43.7266 281.079 43.8045L291.445 39.3832C295.642 31.4747 295.173 24.9305 295.168 24.8652C295.163 24.8015 295.183 24.7384 295.224 24.6892C295.264 24.6399 295.323 24.6085 295.386 24.6016C297.335 24.3924 299.525 24.8696 301.916 26.0213C297.715 20.3726 291.534 16.1285 283.522 13.393L268.337 27.771C263.61 34.9569 263.26 43.9233 263.492 48.7571Z" fill="#00257D"/>
<path d="M271.629 87.8895L271.157 87.7541L275.626 72.1914C273.402 69.1116 271.636 65.7254 270.383 62.1385C268.715 63.4419 266.735 63.5293 264.776 62.3722C261.863 60.6509 259.95 56.7141 260.599 53.7759C261.021 51.8612 262.026 50.5617 263.428 50.1184C264.811 49.681 266.445 50.1356 267.984 51.3644C267.217 43.6518 268.459 36.1822 271.499 30.2669C274.653 24.1341 279.464 20.2277 285.047 19.2699C290.952 18.2541 297.06 20.5979 302.249 25.8642C307.415 31.1074 311.056 38.6285 312.5 47.0431C313.944 55.4578 313.018 63.763 309.895 70.4304C306.759 77.1277 301.78 81.3743 295.877 82.3886C292.021 82.992 288.074 82.2787 284.673 80.3635L284.905 79.931C288.21 81.7934 292.046 82.4887 295.793 81.905C301.534 80.9187 306.384 76.7698 309.451 70.2208C312.532 63.6422 313.443 55.4406 312.015 47.1246C310.588 38.8087 306.997 31.3798 301.9 26.2073C296.827 21.0584 290.871 18.7667 285.131 19.752C274.002 21.6637 266.713 35.7953 268.537 51.924C268.542 51.9737 268.533 52.0239 268.509 52.0679C268.485 52.1119 268.449 52.1476 268.404 52.1702C268.359 52.1929 268.309 52.2013 268.26 52.1945C268.21 52.1878 268.164 52.166 268.127 52.1322C266.588 50.7212 264.926 50.1581 263.576 50.5862C262.349 50.9741 261.461 52.1445 261.078 53.8814C260.471 56.6306 262.279 60.3259 265.026 61.949C266.896 63.0536 268.781 62.9087 270.336 61.5395C270.366 61.5127 270.402 61.4938 270.441 61.4845C270.481 61.4753 270.522 61.4759 270.56 61.4865C270.599 61.4968 270.635 61.5165 270.665 61.5439C270.694 61.5713 270.717 61.6055 270.73 61.6436C271.987 65.3449 273.795 68.8354 276.092 71.9975C276.114 72.0277 276.129 72.0626 276.136 72.0995C276.143 72.1365 276.141 72.1744 276.13 72.2105L271.629 87.8895Z" fill="#00257D"/>
<path d="M297.552 56.0541L297.388 56.5167L300.778 57.7205L300.942 57.2579L297.552 56.0541Z" fill="#00257D"/>
<path d="M303.899 54.6172L302.541 57.0332L302.968 57.274L304.327 54.858L303.899 54.6172Z" fill="#00257D"/>
<path d="M289.56 62.8918C298.382 64.1054 302.941 63.1648 308.132 60.3763L308.087 64.3607C303.776 71.4209 295.413 70.7287 289.946 67.1654L289.56 62.8918Z" fill="white"/>
<path d="M298.232 70.0384C295.225 69.9891 292.299 69.0616 289.812 67.3702C289.781 67.3499 289.755 67.3228 289.736 67.291C289.717 67.2592 289.705 67.2235 289.702 67.1865L289.315 62.9154C289.312 62.8787 289.317 62.8417 289.33 62.8072C289.342 62.7727 289.363 62.7416 289.39 62.7161C289.416 62.6905 289.448 62.6712 289.483 62.6598C289.518 62.6483 289.556 62.6449 289.592 62.6498C297.634 63.7495 302.284 63.1206 308.019 60.1593C308.057 60.1399 308.098 60.1306 308.141 60.1322C308.183 60.1338 308.224 60.1464 308.26 60.1686C308.296 60.1908 308.326 60.222 308.346 60.2591C308.367 60.2962 308.377 60.3379 308.377 60.3802L308.333 64.3602C308.332 64.3993 308.323 64.4376 308.304 64.4722C307.58 65.7606 306.597 66.8845 305.416 67.7726C304.235 68.6606 302.882 69.2934 301.444 69.6309C300.395 69.9019 299.315 70.0388 298.232 70.0384ZM290.179 67.0236C293.761 69.331 297.711 70.0914 301.321 69.1577C302.683 68.839 303.966 68.2431 305.088 67.4069C306.21 66.5707 307.147 65.5122 307.843 64.2974L307.882 60.7788C302.281 63.5983 297.636 64.2115 289.832 63.1761L290.179 67.0236Z" fill="#00257D"/>
<path d="M296.832 63.3952L296.341 63.4091L296.519 69.7141L297.009 69.7003L296.832 63.3952Z" fill="#00257D"/>
<path d="M304.766 61.9775H304.275V68.0803H304.766V61.9775Z" fill="#00257D"/>
<path d="M226.256 58.2297C225.586 58.2297 224.907 58.2086 224.217 58.1664L224.247 57.6755C231.737 58.134 237.959 56.0598 242.739 51.5088C248.679 45.8547 250.823 37.6242 250.78 33.7639C250.78 33.7263 250.788 33.689 250.804 33.655C250.82 33.6209 250.843 33.591 250.873 33.5676L274.506 14.6041C274.555 14.5638 274.619 14.5448 274.682 14.5511L292.283 16.1918L292.238 16.6828L274.735 15.0504L251.271 33.8778C251.275 38.0154 249.113 46.1178 243.078 51.8643C238.636 56.0937 232.985 58.2297 226.256 58.2297Z" fill="white"/>
<path d="M262.952 48.4217C262.102 36.0992 267.888 27.5569 267.947 27.4725L268.351 27.7513C268.293 27.8348 262.605 36.2445 263.442 48.3883L262.952 48.4217Z" fill="white"/>
<path d="M263.317 53.6159L263.076 54.0432L268.028 56.8476L268.269 56.4203L263.317 53.6159Z" fill="#00257D"/>
<path d="M268.393 55.2323H267.903V59.2089H268.393V55.2323Z" fill="#00257D"/>
<path d="M264.977 54.6995H264.486V57.4925H264.977V54.6995Z" fill="#00257D"/>
<path d="M302.707 35.1947L303.205 39.5753H308.852L308.132 37.1285L302.707 35.1947Z" fill="#00257D"/>
<path d="M308.852 39.8203H303.204C303.144 39.8207 303.085 39.7987 303.04 39.7586C302.995 39.7184 302.966 39.663 302.959 39.6028L302.462 35.2227C302.457 35.1813 302.463 35.1394 302.479 35.1009C302.495 35.0624 302.521 35.0286 302.553 35.0027C302.586 34.9767 302.625 34.9595 302.666 34.9526C302.707 34.9458 302.749 34.9495 302.788 34.9635L308.212 36.8968C308.249 36.9098 308.282 36.9312 308.308 36.9594C308.335 36.9875 308.355 37.0216 308.366 37.0588L309.086 39.5056C309.096 39.5422 309.099 39.5808 309.092 39.6184C309.085 39.656 309.07 39.6914 309.047 39.722C309.024 39.7525 308.994 39.7773 308.96 39.7944C308.926 39.8114 308.888 39.8203 308.85 39.8203H308.852ZM303.424 39.3294H308.526L307.934 37.3165L302.998 35.557L303.424 39.3294Z" fill="#00257D"/>
<path d="M301.132 24.6698C296.035 16.0092 291.522 12.7037 291.477 12.6713L291.764 12.2726C291.809 12.3055 296.399 15.6601 301.554 24.4204L301.132 24.6698Z" fill="white"/>
<path d="M289.711 81.9721L288.146 87.1426L288.615 87.285L290.181 82.1145L289.711 81.9721Z" fill="#00257D"/>
<path d="M282.952 129.139L299.395 112.85L287.954 94.1193L280.191 103.876L270.359 90.3465L257.612 114.961L282.952 129.139Z" fill="white"/>
<path d="M288.379 87.214C290.999 85.8212 295.542 83.8697 298.531 83.558L322.779 127.527L288.379 150.912L282.95 123.61L288.379 87.214Z" fill="white"/>
<path d="M267.885 142.668V242.16L226.509 250.819L235.703 168.012L230.773 165.303L196.282 248.213L174.557 198.996L177.26 196.539H181.762L212.963 127.527L234.791 119.63L240.995 110.459L242.096 98.3635L289.163 130.707L274.587 134.041L267.885 142.668Z" fill="#CC1D37"/>
<path d="M182.924 217.782L182.608 217.407L193.376 208.318L227.146 138.692C227.157 138.67 227.17 138.65 227.187 138.632L241.12 123.511L221.407 134.221L189.62 200.707C189.605 200.738 189.584 200.766 189.557 200.788C189.531 200.81 189.501 200.827 189.468 200.836L176.967 204.537L176.829 204.067L189.224 200.396L220.999 133.935C221.022 133.889 221.058 133.85 221.104 133.825L242.184 122.372C242.235 122.345 242.294 122.337 242.351 122.349C242.407 122.361 242.458 122.392 242.493 122.438C242.529 122.484 242.547 122.541 242.545 122.599C242.542 122.656 242.52 122.712 242.481 122.754L227.572 138.938L193.795 208.579C193.78 208.61 193.759 208.637 193.733 208.659L182.924 217.782Z" fill="#00257D"/>
<path d="M260.478 137.669L257.356 244.302L257.847 244.316L260.969 137.683L260.478 137.669Z" fill="#00257D"/>
<path d="M322.982 127.667L322.579 127.387L341.684 99.855L346.264 81.9805C346.274 81.9439 346.291 81.91 346.316 81.8814C346.34 81.8528 346.371 81.8303 346.406 81.8155L365.944 73.5079C366.002 73.4836 366.066 73.4819 366.124 73.5031C366.183 73.5243 366.231 73.5669 366.259 73.6223L368.025 77.0917C368.051 77.1418 368.058 77.199 368.047 77.254C368.035 77.3089 368.005 77.3582 367.961 77.3937L359.41 84.3591L354.936 94.1778L354.49 93.9741L358.988 84.1018C359.003 84.0675 359.027 84.0373 359.056 84.0134L367.498 77.1369L365.928 74.0479L346.713 82.2206L342.15 100.021C342.143 100.049 342.131 100.076 342.115 100.1L322.982 127.667Z" fill="#00257D"/>
<path d="M240.996 110.459L274.587 134.041L267.885 142.668L234.791 119.63L240.996 110.459Z" fill="#FFAA00"/>
<path d="M334.702 150.366H317.429C317.391 150.366 317.354 150.357 317.32 150.34C317.286 150.323 317.256 150.298 317.233 150.268L307.899 137.657L308.292 137.363L317.552 149.873H334.552L355.465 109.743C355.494 109.689 355.541 109.647 355.598 109.626L376.338 102.043L389.462 90.6302L382.569 71.7782L368.545 79.8105L359.322 84.4253L359.102 83.9834L368.315 79.3755L382.582 71.2053C382.613 71.1876 382.648 71.1769 382.683 71.174C382.719 71.171 382.754 71.1758 382.788 71.188C382.821 71.2002 382.852 71.2196 382.877 71.2448C382.902 71.2701 382.922 71.3005 382.934 71.3339L389.985 90.6194C390.002 90.666 390.005 90.7168 389.992 90.7649C389.98 90.813 389.953 90.8563 389.916 90.8889L376.63 102.443C376.608 102.463 376.582 102.478 376.554 102.489L355.858 110.056L334.92 150.234C334.899 150.274 334.868 150.307 334.829 150.33C334.791 150.354 334.747 150.366 334.702 150.366Z" fill="#00257D"/>
<path d="M226.508 251.063C226.474 251.063 226.439 251.056 226.408 251.042C226.376 251.028 226.348 251.008 226.324 250.982C226.301 250.956 226.284 250.926 226.273 250.893C226.263 250.86 226.259 250.825 226.263 250.79L235.443 168.148L230.896 165.65L196.509 248.307C196.491 248.351 196.46 248.389 196.42 248.416C196.38 248.443 196.333 248.457 196.285 248.458C196.238 248.455 196.192 248.439 196.153 248.414C196.113 248.388 196.08 248.352 196.058 248.311L174.333 199.096C174.312 199.048 174.306 198.996 174.317 198.945C174.327 198.895 174.354 198.849 174.392 198.814L177.096 196.356C177.141 196.315 177.2 196.293 177.261 196.293H181.604L212.74 127.426C212.754 127.396 212.773 127.369 212.797 127.347C212.821 127.324 212.849 127.307 212.88 127.296L234.707 119.399L234.874 119.86L213.144 127.722L181.985 196.639C181.966 196.682 181.934 196.719 181.895 196.745C181.855 196.77 181.809 196.784 181.762 196.784H177.355L174.853 199.059L196.276 247.589L230.546 165.21C230.559 165.179 230.579 165.15 230.604 165.126C230.629 165.103 230.659 165.085 230.691 165.074C230.723 165.062 230.758 165.058 230.792 165.06C230.826 165.063 230.859 165.073 230.889 165.089L235.821 167.798C235.863 167.821 235.898 167.857 235.92 167.9C235.943 167.943 235.952 167.992 235.947 168.04L226.79 250.51L267.639 241.96V142.667H268.13V242.16C268.13 242.216 268.11 242.271 268.075 242.315C268.039 242.358 267.989 242.388 267.934 242.4L226.557 251.06C226.541 251.063 226.525 251.064 226.508 251.063Z" fill="#00257D"/>
<path d="M260.501 137.654L249.047 245.683L249.535 245.735L260.989 137.706L260.501 137.654Z" fill="#00257D"/>
<path d="M267.885 142.913C267.835 142.913 267.786 142.898 267.745 142.87L234.651 119.832C234.598 119.795 234.561 119.739 234.55 119.675C234.538 119.612 234.551 119.546 234.588 119.493L240.793 110.322C240.811 110.295 240.835 110.272 240.862 110.254C240.889 110.236 240.919 110.224 240.951 110.218C240.983 110.213 241.016 110.213 241.048 110.22C241.08 110.227 241.11 110.24 241.136 110.259L274.728 133.841C274.755 133.86 274.778 133.884 274.795 133.913C274.813 133.941 274.824 133.972 274.829 134.005C274.834 134.038 274.832 134.072 274.824 134.104C274.815 134.136 274.801 134.166 274.78 134.192L268.078 142.819C268.055 142.848 268.026 142.872 267.992 142.888C267.959 142.905 267.922 142.913 267.885 142.913ZM235.13 119.567L267.834 142.334L274.236 134.095L241.059 110.803L235.13 119.567Z" fill="#00257D"/>
<ellipse cx="275.953" cy="206.733" rx="28.7294" ry="28.7391" fill="#DFE4EF"/>
<path d="M272.485 285.51L249.724 291.688L254.676 299.098L253.175 303.311L256.45 305.976L260.518 326.442L307.728 314.248L306.467 309.36L273.511 301.27L275.335 297.288L271.736 294.392L272.485 285.51Z" fill="white"/>
<path d="M274.587 134.286C274.536 134.286 274.487 134.271 274.446 134.242L240.855 110.66C240.82 110.635 240.791 110.601 240.773 110.562C240.755 110.523 240.748 110.479 240.752 110.436L241.851 98.3411C241.855 98.2984 241.87 98.2575 241.895 98.2224C241.919 98.1874 241.953 98.1593 241.991 98.1411C242.03 98.1229 242.073 98.1151 242.116 98.1186C242.158 98.1221 242.199 98.1367 242.235 98.1609L289.303 130.505C289.342 130.532 289.373 130.57 289.391 130.614C289.409 130.658 289.414 130.706 289.405 130.753C289.396 130.8 289.373 130.843 289.34 130.878C289.307 130.912 289.265 130.936 289.218 130.947L274.642 134.28C274.624 134.284 274.605 134.287 274.587 134.286ZM241.253 110.34L274.639 133.777L288.564 130.592L242.302 98.8031L241.253 110.34Z" fill="#00257D"/>
<path d="M233.621 135.31L256.536 188.51L270.86 186.055L271.393 188.791L286.815 184.775L285.701 170.792L266.766 170.767L261.692 148.281L247.033 116.049L233.621 135.31Z" fill="#FFD6B5"/>
<path d="M271.393 189.036C271.338 189.036 271.285 189.018 271.242 188.985C271.199 188.951 271.168 188.904 271.155 188.851L270.594 186.609L256.574 188.753C256.52 188.761 256.465 188.752 256.417 188.725C256.369 188.698 256.332 188.656 256.311 188.605L233.396 135.408C233.379 135.37 233.373 135.328 233.377 135.286C233.381 135.244 233.396 135.205 233.42 135.17L246.831 115.909C246.855 115.873 246.889 115.844 246.928 115.826C246.968 115.807 247.011 115.8 247.055 115.805C247.098 115.809 247.139 115.824 247.174 115.849C247.21 115.874 247.238 115.908 247.256 115.948L261.916 148.18C261.923 148.195 261.928 148.212 261.932 148.229L266.962 170.524L285.703 170.549C285.765 170.548 285.825 170.572 285.87 170.613C285.916 170.655 285.944 170.713 285.949 170.774L287.063 184.757C287.067 184.815 287.051 184.872 287.018 184.919C286.985 184.966 286.936 185 286.88 185.014L271.458 189.03C271.437 189.035 271.415 189.037 271.393 189.036ZM270.778 186.087C270.833 186.087 270.886 186.106 270.929 186.139C270.972 186.173 271.003 186.22 271.016 186.273L271.571 188.491L286.554 184.589L285.475 171.04L266.766 171.015C266.711 171.014 266.657 170.995 266.614 170.961C266.57 170.926 266.54 170.878 266.528 170.824L261.459 148.36L246.986 116.543L233.899 135.338L256.686 188.239L270.741 186.09C270.753 186.088 270.766 186.087 270.778 186.087Z" fill="#00257D"/>
<path d="M279.958 302.852L283.57 320.365L294.949 317.3L292.68 305.976L279.958 302.852Z" fill="#6EB60D"/>
<path d="M280.199 302.803L279.719 302.902L283.331 320.414L283.811 320.315L280.199 302.803Z" fill="#00257D"/>
<path d="M292.922 305.926L292.441 306.023L294.757 317.583L295.238 317.487L292.922 305.926Z" fill="#00257D"/>
<path d="M271.393 87.8224C266.546 82.4112 260.796 77.8836 254.401 74.4414L222.673 130.252L270.273 151.256L267.885 106.927L271.393 87.8224Z" fill="white"/>
<path d="M298.913 86.836C298.584 87.9853 299.671 88.8542 300.041 89.112C299.909 89.5411 299.588 90.8793 300.458 91.6059C300.698 91.8061 301.002 91.9131 301.314 91.9074C301.861 91.8675 302.386 91.6748 302.829 91.3511L301.916 89.6947C301.884 89.6797 301.854 89.6604 301.828 89.6373C301.775 89.5919 301.735 89.5347 301.709 89.4704C301.683 89.406 301.674 89.3365 301.68 89.2676L299.81 85.8762C299.597 85.9558 299.404 86.0838 299.249 86.2504C299.093 86.4169 298.978 86.6174 298.913 86.836Z" fill="#FFAA00"/>
<path d="M320.642 126.889C319.569 126.889 318.991 128.229 318.832 128.662C318.797 128.662 318.755 128.662 318.708 128.662C318.168 128.662 316.882 128.777 316.575 129.853C316.504 130.135 316.504 130.43 316.576 130.713C316.648 130.995 316.788 131.255 316.985 131.469L322.127 127.973C321.996 127.678 321.789 127.423 321.529 127.233C321.268 127.043 320.962 126.924 320.642 126.889Z" fill="#FFAA00"/>
<path d="M307.049 121.249C306.76 120.192 305.317 120.071 304.792 120.065C304.637 119.64 304.059 118.285 302.98 118.285C301.901 118.285 301.329 119.626 301.171 120.058C301.135 120.058 301.093 120.058 301.046 120.058C300.506 120.058 299.22 120.174 298.913 121.25C298.584 122.399 299.671 123.268 300.041 123.526C299.909 123.955 299.588 125.293 300.458 126.019C300.698 126.22 301.002 126.327 301.314 126.321C301.926 126.267 302.508 126.035 302.989 125.653C303.505 125.993 304.1 126.196 304.716 126.242C304.988 126.248 305.255 126.174 305.485 126.03C306.368 125.457 306.034 123.96 305.911 123.519C306.26 123.249 307.339 122.309 307.049 121.249ZM303.72 122.714C303.72 122.714 304.662 123.611 304.12 124.049C303.578 124.486 302.975 123.251 302.975 123.251C302.975 123.251 302.321 124.473 301.829 124.049C301.336 123.625 302.217 122.669 302.217 122.669C302.217 122.669 300.877 122.518 301.121 121.868C301.364 121.217 302.528 121.816 302.528 121.816C302.528 121.816 302.289 120.52 302.975 120.52C303.66 120.52 303.436 121.827 303.436 121.827C303.436 121.827 304.575 121.219 304.828 121.868C305.081 122.517 303.72 122.714 303.72 122.714Z" fill="#FFAA00"/>
<path d="M307.049 104.043C306.76 102.986 305.317 102.865 304.792 102.859C304.637 102.434 304.059 101.08 302.98 101.08C301.901 101.08 301.329 102.42 301.171 102.852C301.135 102.852 301.093 102.852 301.046 102.852C300.506 102.852 299.22 102.968 298.913 104.043C298.584 105.193 299.671 106.062 300.041 106.319C299.909 106.748 299.588 108.087 300.458 108.813C300.698 109.014 301.002 109.121 301.314 109.115C301.926 109.061 302.508 108.829 302.989 108.447C303.505 108.787 304.1 108.99 304.717 109.035C304.988 109.041 305.256 108.968 305.486 108.823C306.369 108.25 306.034 106.753 305.912 106.312C306.26 106.043 307.339 105.103 307.049 104.043ZM303.72 105.508C303.72 105.508 304.662 106.405 304.12 106.843C303.578 107.28 302.975 106.045 302.975 106.045C302.975 106.045 302.321 107.267 301.829 106.843C301.336 106.418 302.217 105.464 302.217 105.464C302.217 105.464 300.877 105.312 301.121 104.662C301.364 104.011 302.528 104.61 302.528 104.61C302.528 104.61 302.289 103.314 302.975 103.314C303.66 103.314 303.436 104.621 303.436 104.621C303.436 104.621 304.575 104.013 304.828 104.662C305.081 105.311 303.72 105.508 303.72 105.508Z" fill="#FFAA00"/>
<path d="M304.792 137.272C304.637 136.847 304.059 135.492 302.98 135.492C301.901 135.492 301.329 136.832 301.171 137.265C301.135 137.265 301.093 137.265 301.046 137.265C300.506 137.265 299.22 137.381 298.913 138.456C298.584 139.605 299.671 140.474 300.041 140.732C299.927 141.103 299.673 142.156 300.168 142.901L303.202 140.839C303.117 140.718 303.041 140.591 302.974 140.46C302.974 140.46 302.32 141.682 301.828 141.257C301.335 140.832 302.216 139.878 302.216 139.878C302.216 139.878 300.876 139.727 301.12 139.076C301.363 138.426 302.527 139.024 302.527 139.024C302.527 139.024 302.288 137.728 302.974 137.728C303.659 137.728 303.435 139.035 303.435 139.035C303.435 139.035 304.574 138.427 304.827 139.076C305.08 139.725 303.719 139.922 303.719 139.922C303.831 140.033 303.933 140.152 304.025 140.279L306.969 138.278C306.568 137.394 305.283 137.279 304.792 137.272Z" fill="#FFAA00"/>
<path d="M285.328 99.8416C285.844 100.183 286.439 100.387 287.055 100.433C287.327 100.439 287.594 100.366 287.824 100.221C288.707 99.6482 288.373 98.1513 288.25 97.71C288.598 97.44 289.677 96.5003 289.387 95.4404C289.128 94.4943 287.951 94.3004 287.329 94.2646L287.212 95.0501L286.648 95.759C286.755 95.7445 286.864 95.7659 286.958 95.8198C287.051 95.8737 287.125 95.9571 287.166 96.057C287.42 96.7055 286.058 96.9029 286.058 96.9029C286.058 96.9029 287 97.8003 286.458 98.2382C285.916 98.6761 285.313 97.4405 285.313 97.4405C285.157 97.7294 284.95 97.9878 284.703 98.2034L283 100.345C283.2 100.455 283.425 100.511 283.653 100.508C284.265 100.455 284.847 100.223 285.328 99.8416Z" fill="#FFAA00"/>
<path d="M265.847 85.646C265.811 85.646 265.769 85.646 265.722 85.646C265.183 85.646 263.897 85.7623 263.589 86.8375C263.26 87.9868 264.347 88.8557 264.717 89.1135C264.586 89.5425 264.265 90.8808 265.134 91.6074C265.374 91.8075 265.678 91.9145 265.99 91.9088C266.602 91.8551 267.184 91.6227 267.665 91.2407C268.181 91.5813 268.776 91.7841 269.393 91.8298C269.664 91.8359 269.931 91.7624 270.161 91.6182C271.044 91.0448 270.71 89.5479 270.588 89.1066C270.845 88.9057 271.078 88.675 271.282 88.4193L271.392 87.8198C270.139 86.4262 268.853 85.1131 267.534 83.8806C266.54 83.9797 265.999 85.2306 265.847 85.646ZM267.651 86.1079C268.338 86.1079 268.113 87.4148 268.113 87.4148C268.113 87.4148 269.251 86.8065 269.504 87.4556C269.758 88.1046 268.397 88.3019 268.397 88.3019C268.397 88.3019 269.339 89.1994 268.796 89.6368C268.254 90.0742 267.651 88.8395 267.651 88.8395C267.651 88.8395 266.997 90.061 266.505 89.6368C266.012 89.2126 266.893 88.2573 266.893 88.2573C266.893 88.2573 265.554 88.1065 265.797 87.4556C266.04 86.8046 267.204 87.404 267.204 87.404C267.204 87.404 266.965 86.1084 267.651 86.1084V86.1079Z" fill="#FFAA00"/>
<path d="M289.164 130.707L286.139 131.399C286.354 131.629 286.902 132.294 286.459 132.652C285.916 133.089 285.314 131.854 285.314 131.854C285.2 132.06 285.064 132.253 284.908 132.43L285.26 134.303C285.284 134.286 285.309 134.268 285.329 134.254C285.845 134.594 286.439 134.797 287.056 134.843C287.328 134.849 287.595 134.775 287.825 134.631C288.708 134.058 288.373 132.561 288.251 132.119C288.599 131.849 289.677 130.91 289.388 129.85C289.098 128.79 287.656 128.672 287.131 128.666C286.976 128.241 286.398 126.886 285.319 126.886C285.125 126.892 284.934 126.937 284.758 127.018C284.582 127.098 284.424 127.214 284.293 127.357L284.63 127.589L289.164 130.707Z" fill="#FFAA00"/>
<path d="M282.38 114.921C282.248 115.35 281.928 116.688 282.797 117.415C283.037 117.615 283.341 117.722 283.653 117.716C284.265 117.662 284.847 117.43 285.328 117.048C285.844 117.388 286.439 117.591 287.055 117.637C287.327 117.643 287.594 117.57 287.824 117.425C288.707 116.852 288.373 115.355 288.251 114.914C288.598 114.644 289.677 113.705 289.387 112.644C289.098 111.584 287.655 111.466 287.131 111.46C286.975 111.035 286.398 109.68 285.318 109.68C284.239 109.68 283.667 111.021 283.509 111.454C283.473 111.454 283.431 111.454 283.384 111.454C282.845 111.454 281.559 111.57 281.251 112.645C280.922 113.794 282.009 114.663 282.38 114.921ZM283.46 113.265C283.705 112.614 284.867 113.213 284.867 113.213C284.867 113.213 284.628 111.917 285.314 111.917C286 111.917 285.775 113.224 285.775 113.224C285.775 113.224 286.914 112.616 287.167 113.265C287.42 113.913 286.06 114.111 286.06 114.111C286.06 114.111 287.001 115.008 286.459 115.446C285.917 115.883 285.314 114.649 285.314 114.649C285.314 114.649 284.66 115.871 284.168 115.446C283.675 115.021 284.556 114.067 284.556 114.067C284.556 114.067 283.215 113.916 283.459 113.265H283.46Z" fill="#FFAA00"/>
<path d="M265.847 120.058C265.811 120.058 265.769 120.058 265.722 120.058C265.183 120.058 263.897 120.174 263.589 121.249C263.26 122.399 264.347 123.268 264.717 123.525C264.586 123.955 264.265 125.293 265.134 126.019C265.374 126.22 265.678 126.327 265.99 126.321C266.602 126.267 267.184 126.035 267.665 125.653C267.983 125.852 268.325 126.01 268.682 126.124L268.557 124.141C268.09 124.151 267.65 123.253 267.65 123.253C267.65 123.253 266.996 124.475 266.504 124.051C266.011 123.627 266.892 122.671 266.892 122.671C266.892 122.671 265.553 122.52 265.796 121.87C266.039 121.219 267.203 121.818 267.203 121.818C267.203 121.818 266.964 120.522 267.65 120.522C268.336 120.522 268.112 121.829 268.112 121.829C268.206 121.781 268.303 121.738 268.402 121.701L268.194 118.408C268.026 118.329 267.841 118.288 267.655 118.287C266.583 118.285 266.008 119.625 265.847 120.058Z" fill="#FFAA00"/>
<path d="M271.725 104.043C271.436 102.986 269.993 102.865 269.469 102.859C269.314 102.434 268.736 101.08 267.656 101.08C266.577 101.08 266.005 102.42 265.847 102.852C265.811 102.852 265.769 102.852 265.722 102.852C265.183 102.852 263.897 102.968 263.589 104.043C263.26 105.193 264.347 106.062 264.717 106.319C264.586 106.748 264.265 108.087 265.134 108.813C265.374 109.014 265.678 109.121 265.99 109.115C266.602 109.061 267.184 108.829 267.665 108.447C268.181 108.787 268.776 108.99 269.393 109.035C269.664 109.041 269.932 108.968 270.162 108.823C271.045 108.25 270.71 106.753 270.588 106.312C270.936 106.043 272.015 105.103 271.725 104.043ZM268.397 105.508C268.397 105.508 269.339 106.405 268.796 106.843C268.254 107.28 267.651 106.045 267.651 106.045C267.651 106.045 266.997 107.267 266.505 106.843C266.012 106.418 266.893 105.464 266.893 105.464C266.893 105.464 265.553 105.312 265.797 104.662C266.04 104.011 267.204 104.61 267.204 104.61C267.204 104.61 266.965 103.314 267.651 103.314C268.337 103.314 268.113 104.621 268.113 104.621C268.113 104.621 269.251 104.013 269.504 104.662C269.758 105.311 268.397 105.508 268.397 105.508Z" fill="#FFAA00"/>
<path d="M289.387 147.058C289.142 146.165 288.079 145.943 287.437 145.891L288.379 150.907C288.444 150.377 288.4 149.84 288.25 149.328C288.598 149.058 289.677 148.119 289.387 147.058Z" fill="#FFAA00"/>
<path d="M264.718 140.73C264.586 141.159 264.266 142.497 265.135 143.224C265.375 143.424 265.679 143.531 265.991 143.525C266.603 143.471 267.185 143.239 267.666 142.857C268.182 143.198 268.777 143.401 269.393 143.446C269.522 143.446 269.651 143.429 269.776 143.397L269.518 139.327C269.387 139.773 268.396 139.918 268.396 139.918C268.396 139.918 269.338 140.816 268.796 141.253C268.254 141.691 267.651 140.456 267.651 140.456C267.651 140.456 266.997 141.678 266.505 141.253C266.012 140.829 266.893 139.874 266.893 139.874C266.893 139.874 265.553 139.723 265.797 139.072C266.04 138.422 267.204 139.02 267.204 139.02C267.204 139.02 266.965 137.724 267.651 137.724C268.337 137.724 268.112 139.031 268.112 139.031C268.112 139.031 269.246 138.426 269.502 139.069L269.373 137.033C269.135 136.48 268.579 135.49 267.656 135.49C266.583 135.49 266.005 136.83 265.847 137.263C265.811 137.263 265.769 137.263 265.722 137.263C265.182 137.263 263.897 137.379 263.589 138.454C263.26 139.603 264.347 140.472 264.718 140.73Z" fill="#FFAA00"/>
<path d="M254.063 95.4405C253.774 94.383 252.331 94.2622 251.806 94.2563C251.651 93.8312 251.073 92.4767 249.994 92.4767C248.915 92.4767 248.343 93.8169 248.185 94.2495C248.149 94.2495 248.107 94.2495 248.06 94.2495C247.52 94.2495 246.235 94.3653 245.927 95.441C245.598 96.5898 246.685 97.4587 247.055 97.7169C246.923 98.146 246.603 99.4843 247.472 100.211C247.712 100.411 248.016 100.518 248.328 100.512C248.94 100.459 249.522 100.226 250.003 99.8437C250.519 100.185 251.114 100.389 251.73 100.435C252.002 100.441 252.269 100.368 252.499 100.223C253.382 99.6502 253.048 98.1534 252.926 97.712C253.274 97.4401 254.353 96.5004 254.063 95.4405ZM250.734 96.9049C250.734 96.9049 251.676 97.8024 251.134 98.2403C250.592 98.6782 249.989 97.4425 249.989 97.4425C249.989 97.4425 249.335 98.6644 248.843 98.2403C248.35 97.8161 249.231 96.8607 249.231 96.8607C249.231 96.8607 247.891 96.7095 248.135 96.059C248.378 95.4086 249.542 96.0075 249.542 96.0075C249.542 96.0075 249.303 94.7109 249.989 94.7109C250.675 94.7109 250.45 96.0183 250.45 96.0183C250.45 96.0183 251.589 95.41 251.842 96.059C252.095 96.7081 250.734 96.9049 250.734 96.9049Z" fill="#FFAA00"/>
<path d="M251.731 83.2268C252.002 83.2329 252.27 83.1593 252.5 83.0152C253.383 82.4423 253.048 80.9449 252.926 80.504C253.273 80.234 254.352 79.2944 254.063 78.2344C253.969 77.968 253.805 77.7312 253.59 77.5486C253.374 77.3659 253.114 77.2437 252.836 77.1946L251.859 78.9129C251.914 79.1388 251.771 79.3057 251.567 79.4264L251.132 80.1913C251.304 80.4726 251.41 80.8119 251.136 81.0333C251.068 81.0904 250.982 81.1231 250.893 81.1261C250.804 81.1291 250.717 81.1023 250.645 81.05L249.588 82.9082C249.733 82.8251 249.872 82.734 250.006 82.6352C250.521 82.9763 251.115 83.1799 251.731 83.2268Z" fill="#FFAA00"/>
<path d="M254.063 129.851C253.774 128.794 252.331 128.673 251.806 128.667C251.651 128.242 251.073 126.887 249.994 126.887C248.915 126.887 248.343 128.228 248.185 128.66C248.149 128.66 248.107 128.66 248.06 128.66C247.52 128.66 246.235 128.776 245.927 129.851C245.598 131 246.685 131.869 247.055 132.128C246.923 132.556 246.603 133.895 247.472 134.622C247.712 134.822 248.016 134.928 248.328 134.923C248.94 134.869 249.522 134.637 250.003 134.254C250.519 134.595 251.114 134.798 251.73 134.843C252.002 134.85 252.269 134.776 252.499 134.631C253.382 134.058 253.048 132.562 252.926 132.12C253.274 131.852 254.353 130.913 254.063 129.851ZM250.734 131.316C250.734 131.316 251.676 132.213 251.134 132.651C250.592 133.089 249.989 131.853 249.989 131.853C249.989 131.853 249.335 133.075 248.843 132.651C248.35 132.227 249.231 131.271 249.231 131.271C249.231 131.271 247.891 131.12 248.135 130.47C248.378 129.819 249.542 130.418 249.542 130.418C249.542 130.418 249.303 129.122 249.989 129.122C250.675 129.122 250.45 130.429 250.45 130.429C250.45 130.429 251.589 129.821 251.842 130.47C252.095 131.119 250.734 131.317 250.734 131.317V131.316Z" fill="#FFAA00"/>
<path d="M254.063 112.646C253.774 111.589 252.331 111.468 251.806 111.463C251.651 111.037 251.073 109.682 249.994 109.682C248.915 109.682 248.343 111.023 248.185 111.456C248.149 111.456 248.107 111.456 248.06 111.456C247.52 111.456 246.235 111.572 245.927 112.647C245.598 113.796 246.685 114.665 247.055 114.923C246.923 115.352 246.603 116.69 247.472 117.417C247.712 117.617 248.016 117.724 248.328 117.719C248.94 117.665 249.522 117.432 250.003 117.05C250.519 117.391 251.114 117.594 251.73 117.639C252.002 117.646 252.269 117.572 252.499 117.428C253.382 116.855 253.048 115.358 252.926 114.917C253.274 114.646 254.353 113.707 254.063 112.646ZM250.734 114.111C250.734 114.111 251.676 115.009 251.134 115.446C250.592 115.883 249.989 114.649 249.989 114.649C249.989 114.649 249.335 115.871 248.843 115.446C248.35 115.021 249.231 114.067 249.231 114.067C249.231 114.067 247.891 113.916 248.135 113.265C248.378 112.614 249.542 113.213 249.542 113.213C249.542 113.213 249.303 111.917 249.989 111.917C250.675 111.917 250.45 113.224 250.45 113.224C250.45 113.224 251.589 112.616 251.842 113.265C252.095 113.913 250.734 114.111 250.734 114.111Z" fill="#FFAA00"/>
<path d="M229.395 123.523C229.263 123.952 228.942 125.291 229.811 126.017C230.051 126.217 230.355 126.324 230.667 126.319C231.279 126.265 231.861 126.033 232.342 125.651C232.858 125.991 233.453 126.194 234.07 126.24C234.341 126.246 234.608 126.172 234.838 126.028C235.721 125.455 235.387 123.958 235.265 123.517C235.612 123.247 236.691 122.307 236.401 121.247C236.112 120.187 234.669 120.069 234.145 120.063C233.99 119.638 233.412 118.283 232.332 118.283C231.253 118.283 230.681 119.623 230.523 120.056C230.487 120.056 230.445 120.056 230.398 120.056C229.859 120.056 228.573 120.172 228.265 121.247C227.937 122.397 229.023 123.266 229.395 123.523ZM230.474 121.867C230.719 121.217 231.881 121.816 231.881 121.816C231.881 121.816 231.642 120.52 232.328 120.52C233.014 120.52 232.79 121.827 232.79 121.827C232.79 121.827 233.928 121.218 234.181 121.867C234.435 122.516 233.074 122.714 233.074 122.714C233.074 122.714 234.016 123.611 233.474 124.049C232.931 124.486 232.328 123.251 232.328 123.251C232.328 123.251 231.674 124.473 231.182 124.049C230.689 123.625 231.57 122.669 231.57 122.669C231.57 122.669 230.23 122.518 230.473 121.867H230.474Z" fill="#FFAA00"/>
<path d="M235.397 107.869L234.866 108.802C235.014 108.691 235.137 108.551 235.228 108.391C235.32 108.23 235.377 108.053 235.397 107.869Z" fill="#FFAA00"/>
<path d="M266.082 82.5637C269.559 93.0064 273.109 99.0488 280.081 106.929C286.184 101.121 290.424 93.6278 292.26 85.4023L288.381 87.2148C287.711 92.6151 284.629 97.2191 280.335 101.81C276.326 97.3713 274.168 93.7978 271.393 87.8226C269.776 85.9208 267.999 84.1614 266.082 82.5637Z" fill="#FFAA00"/>
<path d="M280.081 107.174H280.068C280.036 107.172 280.004 107.164 279.975 107.15C279.945 107.136 279.919 107.116 279.898 107.091C272.817 99.0891 269.272 92.92 265.849 82.6427L266.314 82.4876C269.687 92.6137 273.178 98.7239 280.1 106.578C286.078 100.834 290.226 93.4494 292.022 85.3532L292.502 85.4548C290.666 93.7337 286.399 101.275 280.249 107.11C280.203 107.152 280.143 107.175 280.081 107.174Z" fill="#00257D"/>
<path d="M280.334 102.056C280.3 102.055 280.266 102.048 280.235 102.034C280.204 102.02 280.177 102 280.154 101.975C276.324 97.7338 274.142 94.3203 271.173 87.9254L271.617 87.7187C274.516 93.9624 276.657 97.3411 280.339 101.447C285.152 96.2576 287.561 91.8504 288.14 87.1841L288.627 87.2445C288.027 92.0792 285.526 96.6214 280.516 101.978C280.493 102.003 280.464 102.023 280.433 102.036C280.402 102.049 280.368 102.056 280.334 102.056Z" fill="#00257D"/>
<path d="M292.081 119.457L284.454 127.423L284.809 127.763L292.436 119.797L292.081 119.457Z" fill="#00257D"/>
<path d="M288.38 151.158C288.347 151.158 288.315 151.152 288.285 151.14C288.247 151.124 288.214 151.099 288.188 151.067C288.163 151.036 288.145 150.998 288.138 150.958L284.53 131.757L285.012 131.666L288.551 150.499L322.456 127.45L298.393 83.8155C295.332 84.0835 292.076 85.6771 288.633 87.363L288.486 87.4346L288.27 86.9928L288.417 86.9216C291.963 85.1857 295.312 83.5459 298.514 83.3132C298.56 83.3091 298.607 83.3189 298.649 83.3413C298.69 83.3638 298.724 83.3979 298.746 83.4394L322.993 127.408C323.023 127.461 323.031 127.524 323.017 127.583C323.003 127.643 322.967 127.695 322.916 127.729L288.517 151.115C288.476 151.143 288.429 151.158 288.38 151.158Z" fill="#00257D"/>
<path d="M270.273 151.502C270.239 151.502 270.206 151.494 270.175 151.481L222.575 130.474C222.543 130.461 222.516 130.44 222.493 130.415C222.47 130.39 222.453 130.36 222.442 130.328C222.431 130.295 222.427 130.261 222.43 130.227C222.433 130.193 222.444 130.161 222.46 130.131L254.188 74.3207C254.204 74.2922 254.226 74.2672 254.252 74.2473C254.278 74.2273 254.307 74.2127 254.339 74.2044C254.37 74.1961 254.403 74.1942 254.436 74.1988C254.468 74.2034 254.499 74.2145 254.527 74.2313C259.673 77.3193 266.077 81.1623 271.581 87.6643L271.207 87.9815C265.831 81.6317 259.567 77.8289 254.491 74.7816L223.02 130.137L270.004 150.871L267.64 112.288L268.13 112.258L270.519 151.243C270.521 151.276 270.516 151.31 270.505 151.341C270.493 151.373 270.475 151.402 270.453 151.426C270.43 151.45 270.402 151.47 270.371 151.483C270.34 151.496 270.307 151.503 270.273 151.503L270.273 151.502Z" fill="#00257D"/>
<path d="M233.739 166.651L233.503 167.082L240.286 170.808L240.523 170.378L233.739 166.651Z" fill="#00257D"/>
<path d="M260.518 326.688C260.461 326.688 260.406 326.668 260.363 326.633C260.319 326.597 260.288 326.547 260.277 326.491L256.227 306.112L253.02 303.502C252.981 303.47 252.952 303.427 252.939 303.378C252.925 303.329 252.927 303.277 252.944 303.229L254.403 299.134L249.52 291.826C249.498 291.794 249.485 291.757 249.48 291.718C249.476 291.679 249.48 291.64 249.494 291.604C249.508 291.567 249.53 291.534 249.559 291.508C249.588 291.482 249.622 291.463 249.66 291.453L272.421 285.274C272.459 285.264 272.499 285.263 272.537 285.271C272.576 285.279 272.612 285.297 272.642 285.322C272.672 285.348 272.696 285.38 272.711 285.416C272.726 285.453 272.733 285.492 272.729 285.532L271.993 294.284L275.49 297.098C275.533 297.132 275.563 297.18 275.576 297.233C275.588 297.286 275.583 297.342 275.56 297.392L273.859 301.104L306.527 309.125C306.57 309.135 306.61 309.157 306.641 309.188C306.673 309.22 306.695 309.259 306.706 309.302L307.968 314.189C307.976 314.22 307.978 314.252 307.973 314.284C307.968 314.316 307.958 314.347 307.941 314.375C307.925 314.403 307.903 314.427 307.877 314.446C307.852 314.465 307.822 314.48 307.791 314.488L260.581 326.682C260.561 326.687 260.539 326.689 260.518 326.688ZM253.465 303.229L256.604 305.785C256.649 305.821 256.679 305.872 256.69 305.928L260.708 326.139L307.429 314.071L306.266 309.564L273.452 301.508C273.417 301.5 273.385 301.483 273.357 301.461C273.328 301.438 273.306 301.409 273.29 301.377C273.274 301.344 273.266 301.308 273.266 301.272C273.265 301.236 273.273 301.2 273.288 301.167L275.032 297.359L271.582 294.583C271.551 294.558 271.526 294.525 271.511 294.488C271.495 294.451 271.488 294.411 271.492 294.371L272.211 285.838L250.118 291.836L254.879 298.961C254.901 298.993 254.914 299.029 254.919 299.067C254.924 299.106 254.919 299.144 254.906 299.18L253.465 303.229Z" fill="#00257D"/>
<path d="M311.029 313.395L257.326 327.267L258.595 332.184L312.297 318.312L311.029 313.395Z" fill="#1E7530"/>
<path d="M121.687 157.581L94.2446 205.811L98.6547 208.324L126.097 160.094L121.687 157.581Z" fill="#1E7530"/>
<path d="M145.769 206.204L160.787 186.513L152.318 183.751L150.896 179.511L146.675 179.441L129.895 166.625L100.313 205.409L104.323 208.472L135.228 194.449L136.254 198.708L140.872 198.759L145.769 206.204Z" fill="white"/>
<path d="M104.323 208.716C104.27 208.716 104.219 208.699 104.176 208.667L100.165 205.602C100.114 205.562 100.08 205.504 100.071 205.44C100.062 205.375 100.08 205.31 100.119 205.258L129.703 166.474C129.742 166.423 129.8 166.389 129.865 166.38C129.929 166.372 129.994 166.389 130.046 166.428L146.762 179.195L150.902 179.264C150.953 179.265 151.002 179.281 151.043 179.311C151.084 179.341 151.114 179.383 151.13 179.431L152.514 183.555L160.866 186.279C160.903 186.291 160.937 186.312 160.964 186.34C160.992 186.368 161.012 186.402 161.024 186.44C161.035 186.477 161.038 186.517 161.031 186.555C161.024 186.594 161.008 186.631 160.984 186.662L145.966 206.353C145.943 206.385 145.912 206.41 145.877 206.427C145.841 206.444 145.802 206.453 145.762 206.451C145.723 206.449 145.685 206.439 145.651 206.419C145.617 206.4 145.588 206.373 145.566 206.34L140.74 199.004L136.253 198.955C136.199 198.954 136.146 198.935 136.103 198.901C136.06 198.867 136.03 198.82 136.017 198.767L135.062 194.796L104.425 208.695C104.393 208.709 104.358 208.717 104.323 208.716ZM100.658 205.362L104.355 208.187L135.128 194.225C135.161 194.21 135.196 194.203 135.233 194.203C135.269 194.204 135.304 194.212 135.337 194.228C135.369 194.244 135.398 194.267 135.42 194.295C135.443 194.323 135.459 194.356 135.467 194.391L136.449 198.466L140.875 198.515C140.916 198.515 140.955 198.525 140.99 198.545C141.026 198.564 141.056 198.592 141.078 198.625L145.785 205.782L160.383 186.641L152.243 183.986C152.207 183.974 152.174 183.953 152.147 183.926C152.12 183.9 152.099 183.867 152.087 183.83L150.72 179.756L146.672 179.689C146.619 179.689 146.568 179.672 146.525 179.64L129.943 166.974L100.658 205.362Z" fill="#00257D"/>
<path d="M128.801 197.354L112.647 183.733L106.734 194.126L116.875 202.776L128.801 197.354Z" fill="#6EB60D"/>
<path d="M116.875 203.022C116.817 203.022 116.76 203.001 116.716 202.963L106.574 194.311L106.893 193.937L116.915 202.487L128.346 197.289L112.489 183.921L112.805 183.546L128.959 197.166C128.99 197.193 129.015 197.227 129.03 197.266C129.044 197.305 129.049 197.346 129.044 197.387C129.038 197.428 129.022 197.467 128.997 197.5C128.973 197.534 128.94 197.56 128.902 197.577L116.977 203.001C116.945 203.015 116.91 203.022 116.875 203.022Z" fill="#00257D"/>
<path d="M98.6563 208.568C98.6138 208.568 98.572 208.557 98.5351 208.536L94.124 206.023C94.0677 205.991 94.0262 205.938 94.0087 205.876C94.0002 205.845 93.9979 205.812 94.0019 205.78C94.006 205.748 94.0163 205.717 94.0323 205.689L121.474 157.458C121.507 157.402 121.56 157.36 121.623 157.343C121.685 157.326 121.752 157.334 121.809 157.366L126.219 159.879C126.247 159.895 126.271 159.916 126.291 159.942C126.311 159.967 126.326 159.996 126.334 160.027C126.343 160.058 126.345 160.091 126.341 160.123C126.337 160.155 126.327 160.186 126.311 160.214L98.8692 208.444C98.8477 208.482 98.8167 208.513 98.7794 208.535C98.742 208.557 98.6995 208.568 98.6563 208.568ZM94.5798 205.718L98.563 207.988L125.763 160.184L121.779 157.915L94.5798 205.718Z" fill="#00257D"/>
<path d="M258.594 332.43C258.54 332.43 258.487 332.412 258.444 332.378C258.4 332.345 258.37 332.298 258.356 332.246L257.088 327.328C257.08 327.297 257.078 327.264 257.083 327.232C257.087 327.2 257.098 327.17 257.114 327.142C257.131 327.114 257.152 327.09 257.178 327.07C257.204 327.051 257.233 327.037 257.264 327.029L310.966 313.158C311.029 313.141 311.096 313.151 311.152 313.184C311.208 313.217 311.249 313.271 311.265 313.334L312.534 318.251C312.55 318.314 312.541 318.381 312.508 318.437C312.475 318.493 312.421 318.534 312.358 318.55L258.655 332.422C258.635 332.427 258.615 332.43 258.594 332.43ZM257.625 327.443L258.77 331.885L311.997 318.136L310.849 313.695L257.625 327.443Z" fill="#00257D"/>
<path d="M159.066 188.738L158.801 189.151L174.424 199.204L174.69 198.791L159.066 188.738Z" fill="#00257D"/>
<path d="M148.774 202.293L148.45 202.661L193.412 242.293L193.736 241.925L148.774 202.293Z" fill="#00257D"/>
<path d="M278.653 123.444L271.213 131.635L271.576 131.966L279.016 123.775L278.653 123.444Z" fill="#00257D"/>
<path d="M283.005 126.347L272.617 132.537L272.868 132.959L283.256 126.769L283.005 126.347Z" fill="#00257D"/>
<path d="M297.407 63.5802L297.063 63.2292L299.841 60.5138C299.871 60.4843 299.909 60.4631 299.95 60.4523C299.991 60.4414 300.034 60.4413 300.075 60.452L301.97 60.9537L303.315 59.9718C303.366 59.935 303.429 59.9189 303.491 59.927C303.553 59.935 303.61 59.9665 303.649 60.015L305.106 61.7956L304.726 62.1064L303.416 60.505L302.164 61.4166C302.134 61.438 302.101 61.4526 302.065 61.4593C302.029 61.466 301.992 61.4647 301.957 61.4554L300.084 60.9601L297.407 63.5802Z" fill="#00257D"/>
<path d="M301.841 71.8401C301.802 71.8402 301.763 71.8308 301.729 71.8126L298.196 69.9961L298.42 69.5597L301.776 71.2848L304.576 67.7682L304.959 68.0741L302.035 71.7478C302.012 71.7769 301.982 71.8004 301.948 71.8164C301.915 71.8324 301.878 71.8405 301.841 71.8401Z" fill="#00257D"/>
<path d="M293.859 50.5159C291.035 48.2443 285.82 46.498 280.72 49.8953L280.535 51.6293C285.245 49.3509 289.138 49.2115 293.585 52.0392L293.859 50.5159Z" fill="#00257D"/>
<path d="M293.587 52.2838C293.54 52.2836 293.494 52.2704 293.455 52.2455C289.271 49.5856 285.556 49.4718 280.642 51.8494C280.603 51.8683 280.559 51.8765 280.516 51.873C280.472 51.8695 280.431 51.8545 280.395 51.8295C280.359 51.8045 280.331 51.7704 280.312 51.7307C280.294 51.6911 280.287 51.6473 280.291 51.6039L280.475 49.8694C280.479 49.8336 280.491 49.7991 280.509 49.7683C280.528 49.7375 280.553 49.7112 280.583 49.6912C285.685 46.291 291.008 47.9071 294.013 50.3245C294.047 50.3521 294.074 50.3885 294.089 50.4298C294.105 50.4711 294.109 50.5158 294.101 50.5592L293.828 52.0811C293.818 52.1378 293.788 52.1891 293.744 52.2261C293.7 52.263 293.644 52.2833 293.587 52.2833V52.2838ZM287.002 49.6819C289.28 49.7186 291.5 50.3976 293.409 51.6407L293.592 50.6146C291.818 49.1899 289.638 48.366 287.366 48.2617C285.094 48.1574 282.848 48.7781 280.951 50.0344L280.825 51.2185C282.747 50.2613 284.856 49.7368 287.002 49.6819Z" fill="#00257D"/>
<path d="M305.344 48.6417V50.5652C305.969 48.4497 309.342 46.3171 311.256 46.8782L310.83 45.2258C308.837 45.1025 306.115 45.944 305.344 48.6417Z" fill="#00257D"/>
<path d="M305.344 50.8106C305.332 50.8106 305.321 50.8097 305.309 50.8077C305.251 50.7993 305.197 50.7702 305.159 50.7257C305.12 50.6811 305.099 50.6242 305.099 50.5652V48.6407C305.099 48.618 305.102 48.5954 305.108 48.5734C305.875 45.8929 308.536 44.8394 310.846 44.9803C310.897 44.9835 310.947 45.003 310.987 45.036C311.026 45.069 311.055 45.1137 311.068 45.1639L311.494 46.8164C311.505 46.8584 311.504 46.9025 311.493 46.9443C311.481 46.986 311.458 47.0239 311.427 47.054C311.396 47.0839 311.357 47.1051 311.315 47.1155C311.273 47.1259 311.229 47.1252 311.188 47.1134C309.417 46.593 306.17 48.6353 305.579 50.6349C305.564 50.6856 305.533 50.7301 305.491 50.7618C305.448 50.7935 305.397 50.8106 305.344 50.8106ZM305.589 48.676V49.4949C306.713 47.7919 309.207 46.3755 310.922 46.5635L310.638 45.4629C308.584 45.4015 306.274 46.3495 305.589 48.677V48.676Z" fill="#00257D"/>
<path d="M281.31 176.199L280.825 176.272L282.297 186.091L282.782 186.018L281.31 176.199Z" fill="#00257D"/>
<path d="M277.876 177.67L277.391 177.747L278.863 187.074L279.348 186.998L277.876 177.67Z" fill="#00257D"/>
<path d="M273.959 185.622L273.005 181.484L264.804 184.838L264.618 184.383L273.087 180.921C273.12 180.907 273.155 180.901 273.191 180.903C273.226 180.904 273.261 180.914 273.293 180.93C273.324 180.946 273.352 180.969 273.374 180.998C273.395 181.026 273.411 181.058 273.419 181.093L274.438 185.512L273.959 185.622Z" fill="#00257D"/>
<path d="M284.255 175.233L283.766 175.279L284.747 185.589L285.236 185.542L284.255 175.233Z" fill="#00257D"/>
<path d="M271.155 188.85L270.125 184.726C270.11 184.669 270.117 184.61 270.143 184.557C270.169 184.505 270.212 184.464 270.266 184.441L273.569 183.024L273.762 183.476L270.651 184.809L271.633 188.73L271.155 188.85Z" fill="#00257D"/>
<path d="M283.859 132.173L283.75 131.694L288.564 130.593L282.639 126.522L282.917 126.117L289.303 130.505C289.342 130.532 289.373 130.57 289.391 130.615C289.409 130.659 289.414 130.707 289.405 130.754C289.396 130.801 289.373 130.844 289.34 130.879C289.307 130.913 289.265 130.937 289.218 130.947L283.859 132.173Z" fill="#00257D"/>
<circle cx="394.5" cy="72.9297" r="35.5" fill="#DFE4EF"/>
<ellipse cx="509" cy="172.93" rx="37" ry="37.5" fill="#D8DEEB" fill-opacity="0.7"/>
<ellipse cx="680.5" cy="66.4297" rx="41.5" ry="42" fill="#D8DEEB" fill-opacity="0.7"/>
<g clip-path="url(#clip0_824_1803)">
<path d="M9.71892 97.4736L10.1978 97.3483C3.20169 70.3563 -1.96114 32.5506 1.70829 12.5197L1.22154 12.4297C-2.46075 32.5322 2.709 70.4284 9.71892 97.4736Z" fill="#00257D"/>
<path d="M39.3308 218.43L39.7646 218.191C31.7511 203.486 23.5168 185.836 15.9455 167.149L15.4874 167.337C23.0652 186.04 31.3083 203.708 39.3308 218.43Z" fill="#00257D"/>
<path d="M33.6186 169.345L34.0762 169.155C30.7535 161.039 27.5733 152.761 24.6231 144.551L24.1576 144.72C27.1103 152.937 30.2935 161.222 33.6186 169.345Z" fill="#00257D"/>
<path d="M27.1702 116.368L27.6436 116.224C24.1359 104.511 21.2569 93.3074 19.0804 82.9263L18.5961 83.0292C20.7756 93.4238 23.66 104.64 27.1702 116.368Z" fill="#00257D"/>
<path d="M45.5355 143.9L46 143.73C36.4287 117.342 29.3946 92.1798 25.6569 70.9634L25.1701 71.05C28.9123 92.2947 35.9543 117.486 45.5355 143.9Z" fill="#00257D"/>
</g>
<defs>
<clipPath id="clip0_824_1803">
<rect width="46" height="206" fill="white" transform="matrix(-1 0 0 1 46 12.4297)"/>
</clipPath>
</defs>
</svg>
