<svg width="296" height="326" viewBox="0 0 296 326" fill="none" xmlns="http://www.w3.org/2000/svg">
<path d="M274.421 73.1675L288.7 64.9905L295.751 84.2759L282.466 95.8301L261.684 103.428L240.702 143.691H223.429L207.325 121.932L222.536 109.773L228.78 121.098L247.911 93.5316L252.502 75.6138L272.039 67.3043L273.804 70.7737L265.209 77.7754L274.421 73.1675Z" fill="#FFD6B5"/>
<path d="M275.538 79.7825L286.888 71.4173L287.071 71.6665L275.722 80.0317L275.538 79.7825Z" fill="#00257D"/>
<path d="M278.041 84.3027L289.135 76.1122L289.319 76.361L278.224 84.5516L278.041 84.3027Z" fill="#00257D"/>
<path d="M280.272 88.4993L291.268 80.7545L291.446 81.0076L280.451 88.7524L280.272 88.4993Z" fill="#00257D"/>
<path d="M274.682 78.5088L274.953 78.3592L281.382 89.9925L281.112 90.1421L274.682 78.5088Z" fill="#00257D"/>
<path d="M99.5741 235.677L54.6128 196.045L64.9332 182.514L80.5567 192.566L99.5741 235.677Z" fill="#FFD6B5"/>
<path d="M173.885 284.07V231.626L149.969 237.549L160.058 287.793L173.885 284.07Z" fill="#FFD6B5"/>
<path d="M174.13 231.626H173.64V284.07H174.13V231.626Z" fill="#00257D"/>
<path d="M150.822 240.561L150.341 240.657L159.815 287.843L160.296 287.746L150.822 240.561Z" fill="#00257D"/>
<path d="M202.7 2.44795L196.626 5.08329L177.656 0.245605L151.535 24.3427C150.421 35.9367 141.73 51.4915 123.894 48.6028C124.205 56.8212 126.201 64.8879 129.758 72.3023L145.735 67.2393L133.071 78.2112C139.248 87.754 149.58 96.8177 166.878 100.497L194.395 71.3415L215.112 30.1716C215.112 30.1716 216.728 11.4463 202.7 2.44795Z" fill="#00257D"/>
<path d="M166.878 100.744C166.861 100.744 166.845 100.742 166.829 100.739C151.849 97.5532 140.422 90.0198 132.866 78.3468C132.834 78.297 132.821 78.2373 132.83 78.1787C132.838 78.12 132.867 78.0664 132.912 78.0277L144.678 67.8348L129.834 72.5385C129.777 72.5561 129.717 72.5529 129.663 72.5295C129.609 72.5061 129.565 72.464 129.539 72.4109C125.982 64.9573 123.979 56.8572 123.652 48.6039C123.652 48.5676 123.66 48.5319 123.676 48.4992C123.691 48.4664 123.714 48.4375 123.742 48.4144C123.77 48.3922 123.803 48.3763 123.838 48.3679C123.873 48.3594 123.91 48.3585 123.945 48.3653C126.824 48.9868 129.805 48.9609 132.673 48.2895C135.54 47.6182 138.223 46.318 140.528 44.483C147.19 39.2987 150.988 30.4211 151.296 24.3315C151.297 24.2997 151.305 24.2685 151.319 24.2397C151.332 24.2108 151.351 24.185 151.375 24.1636L177.49 0.0649939C177.52 0.0373 177.556 0.0175422 177.596 0.00751196C177.635 -0.0025183 177.677 -0.00250375 177.716 0.0075543L196.605 4.82462L202.601 2.22266C202.638 2.20664 202.678 2.19996 202.718 2.20321C202.758 2.20646 202.797 2.21955 202.831 2.24132C216.822 11.2156 215.373 30.0038 215.356 30.1923C215.354 30.2235 215.345 30.2538 215.331 30.2816L194.613 71.454C194.602 71.4753 194.589 71.4948 194.572 71.512L167.055 100.667C167.032 100.691 167.005 100.71 166.974 100.724C166.944 100.737 166.911 100.744 166.878 100.744ZM133.393 78.2589C140.854 89.681 152.09 97.0726 166.794 100.229L194.192 71.2012L214.872 30.1044C214.945 29.07 215.964 11.3506 202.677 2.72538L196.724 5.30869C196.674 5.33031 196.619 5.3348 196.566 5.32145L177.727 0.516655L151.775 24.4557C151.426 30.6538 147.567 39.6227 140.825 44.8698C138.506 46.7173 135.811 48.0355 132.93 48.7323C130.049 49.4291 127.05 49.4876 124.144 48.9038C124.521 56.9076 126.472 64.7583 129.887 72.0058L145.662 67.0076C145.716 66.9908 145.774 66.993 145.826 67.0138C145.878 67.0346 145.922 67.0728 145.949 67.122C145.977 67.1711 145.987 67.2283 145.977 67.2838C145.967 67.3393 145.939 67.3898 145.897 67.4269L133.393 78.2589Z" fill="#00257D"/>
<path d="M196.853 72.6155L192.815 85.9557L198.26 82.8893V102.682L186.036 112.163L170.731 84.8854L177.392 81.3924L181.897 65.7134L196.853 72.6155Z" fill="#FFD6B5"/>
<path d="M218.258 40.6558C221.226 57.952 213.873 73.6501 201.835 75.718C191.533 77.4853 181.142 68.7044 176.498 55.295C171.881 59.359 165.768 52.2478 166.838 47.3998C167.721 43.3878 171.117 42.6136 174.295 45.5229C172.458 29.2896 179.661 15.0461 191.089 13.0828C203.127 11.015 215.29 23.3596 218.258 40.6558Z" fill="#FFD6B5"/>
<path d="M210.913 55.5248L209.457 53.7437L208.018 54.7884L206.011 54.2572L203.233 56.9725C205.846 56.8299 208.428 56.3432 210.913 55.5248Z" fill="#CC1D37"/>
<path d="M204.306 63.3481L207.84 65.1645L210.914 61.4648" fill="#CC1D37"/>
<path d="M208.705 20.272C204.329 13.963 197.823 9.51311 189.461 6.68335L174.148 21.1827C169.235 28.6326 169.023 38.0517 169.257 42.5301L173.561 43.3931L177.187 41.854C177.161 39.7882 177.339 33.842 179.976 29.4657C179.821 33.1101 180.076 36.7604 180.735 40.3478L184.513 38.7351C184.5 37.1612 184.543 33.6687 184.884 32.5984C185.693 34.247 186.374 35.9553 186.922 37.7081L197.617 33.1453C201.946 25.038 201.409 18.4172 201.409 18.4172C204.209 18.1158 206.972 19.3328 208.705 20.272Z" fill="#00257D"/>
<path d="M173.561 43.6387C173.545 43.6388 173.528 43.6371 173.512 43.6338L169.211 42.7707C169.158 42.7599 169.11 42.7318 169.074 42.6906C169.039 42.6495 169.018 42.5977 169.015 42.5434C168.761 37.6925 169.064 28.4496 173.946 21.0478C173.956 21.032 173.968 21.0175 173.982 21.0046L189.296 6.50477C189.328 6.47448 189.368 6.45347 189.411 6.44397C189.455 6.43446 189.499 6.43681 189.541 6.45076C198.105 9.34729 204.622 13.9523 208.909 20.1322C208.941 20.1775 208.956 20.2322 208.953 20.2874C208.949 20.3425 208.927 20.3949 208.891 20.4361C208.854 20.4773 208.804 20.5048 208.75 20.5143C208.695 20.5237 208.639 20.5145 208.591 20.4881C206.032 19.1027 203.704 18.4812 201.669 18.6388C201.712 19.9152 201.689 26.0465 197.838 33.2608C197.811 33.3102 197.769 33.349 197.717 33.3708L187.022 37.9365C186.99 37.95 186.956 37.9567 186.922 37.9562C186.887 37.9557 186.854 37.9481 186.822 37.9337C186.791 37.9193 186.763 37.8985 186.741 37.8727C186.718 37.8469 186.701 37.8166 186.691 37.7838C186.647 37.6434 186.596 37.4667 186.536 37.2624C186.173 35.8701 185.658 34.522 185 33.2426C184.806 35.0669 184.727 36.9015 184.762 38.7357C184.763 38.784 184.749 38.8313 184.723 38.8718C184.697 38.9123 184.659 38.9442 184.615 38.9635L180.838 40.5758C180.804 40.5901 180.767 40.5967 180.731 40.5951C180.694 40.5935 180.658 40.5837 180.626 40.5664C180.594 40.5491 180.566 40.5248 180.544 40.4952C180.522 40.4657 180.507 40.4316 180.5 40.3956C179.901 37.1253 179.634 33.8028 179.703 30.4787C177.593 34.6182 177.412 39.7417 177.438 41.8537C177.439 41.9024 177.425 41.9503 177.398 41.9911C177.372 42.032 177.333 42.0639 177.288 42.0829L173.663 43.622C173.631 43.6349 173.596 43.6406 173.561 43.6387ZM169.492 42.3274L173.535 43.1375L176.94 41.6921C176.924 39.2816 177.192 33.6103 179.767 29.3392C179.795 29.2929 179.838 29.2573 179.888 29.238C179.939 29.2187 179.995 29.2168 180.047 29.2325C180.099 29.2482 180.144 29.2807 180.175 29.3249C180.207 29.369 180.223 29.4224 180.221 29.4767C180.073 32.9999 180.308 36.5288 180.921 40.0014L184.269 38.5737C184.264 37.6238 184.269 33.7247 184.652 32.5234C184.666 32.4797 184.692 32.4408 184.727 32.4111C184.762 32.3814 184.805 32.3622 184.85 32.3555C184.896 32.3488 184.942 32.3549 184.984 32.3732C185.026 32.3916 185.062 32.4213 185.088 32.4591C186.061 33.875 186.675 35.988 187.005 37.123C187.031 37.213 187.056 37.297 187.079 37.3748L197.445 32.9535C201.642 25.045 201.173 18.5008 201.168 18.4355C201.163 18.3718 201.183 18.3087 201.224 18.2595C201.264 18.2102 201.323 18.1788 201.386 18.1719C203.335 17.9627 205.525 18.4399 207.916 19.5917C203.715 13.9429 197.534 9.6988 189.522 6.9633L174.337 21.3414C169.61 28.5272 169.26 37.4937 169.492 42.3274Z" fill="#00257D"/>
<path d="M177.629 81.4599L177.157 81.3244L181.626 65.7617C179.402 62.682 177.636 59.2958 176.383 55.7088C174.715 57.0123 172.735 57.0997 170.776 55.9425C167.863 54.2213 165.95 50.2845 166.599 47.3462C167.021 45.4316 168.026 44.1321 169.428 43.6887C170.811 43.2513 172.445 43.7059 173.984 44.9347C173.217 37.2221 174.459 29.7525 177.499 23.8372C180.653 17.7045 185.464 13.7981 191.047 12.8403C196.952 11.8245 203.06 14.1682 208.249 19.4345C213.415 24.6777 217.056 32.1989 218.5 40.6135C219.944 49.0282 219.018 57.3334 215.895 64.0008C212.759 70.6981 207.78 74.9447 201.877 75.959C198.021 76.5624 194.074 75.8491 190.673 73.9339L190.905 73.5014C194.21 75.3638 198.046 76.0591 201.793 75.4754C207.534 74.4891 212.384 70.3402 215.451 63.7911C218.532 57.2126 219.443 49.011 218.015 40.695C216.588 32.379 212.997 24.9502 207.9 19.7777C202.827 14.6287 196.871 12.3371 191.131 13.3224C180.002 15.2341 172.713 29.3657 174.537 45.4944C174.542 45.5441 174.533 45.5943 174.509 45.6383C174.485 45.6823 174.449 45.718 174.404 45.7406C174.359 45.7632 174.309 45.7717 174.26 45.7649C174.21 45.7581 174.164 45.7364 174.127 45.7026C172.588 44.2916 170.926 43.7285 169.576 44.1566C168.349 44.5445 167.461 45.7148 167.078 47.4518C166.471 50.201 168.279 53.8963 171.026 55.5193C172.896 56.6239 174.781 56.4791 176.336 55.1099C176.366 55.0831 176.402 55.0642 176.441 55.0549C176.481 55.0456 176.522 55.0463 176.56 55.0569C176.599 55.0672 176.635 55.0869 176.665 55.1143C176.694 55.1417 176.717 55.1759 176.73 55.214C177.987 58.9153 179.795 62.4058 182.092 65.5678C182.114 65.5981 182.129 65.633 182.136 65.6699C182.143 65.7068 182.141 65.7448 182.13 65.7809L177.629 81.4599Z" fill="#00257D"/>
<path d="M203.552 49.6242L203.388 50.0869L206.778 51.2907L206.942 50.828L203.552 49.6242Z" fill="#00257D"/>
<path d="M209.899 48.1875L208.541 50.6035L208.968 50.8443L210.327 48.4283L209.899 48.1875Z" fill="#00257D"/>
<path d="M195.56 56.4621C204.382 57.6757 208.941 56.7351 214.132 53.9465L214.087 57.931C209.776 64.9911 201.413 64.2989 195.946 60.7357L195.56 56.4621Z" fill="white"/>
<path d="M204.232 63.6088C201.225 63.5594 198.299 62.632 195.812 60.9405C195.781 60.9203 195.755 60.8932 195.736 60.8614C195.717 60.8296 195.705 60.7939 195.702 60.7569L195.315 56.4858C195.312 56.4491 195.317 56.4121 195.33 56.3776C195.342 56.3431 195.363 56.3119 195.39 56.2865C195.416 56.2609 195.448 56.2416 195.483 56.2301C195.518 56.2187 195.556 56.2153 195.592 56.2202C203.634 57.3199 208.284 56.691 214.019 53.7297C214.057 53.7103 214.098 53.7009 214.141 53.7026C214.183 53.7042 214.224 53.7168 214.26 53.739C214.296 53.7612 214.326 53.7924 214.346 53.8295C214.367 53.8665 214.377 53.9083 214.377 53.9506L214.333 57.9306C214.332 57.9696 214.323 58.008 214.304 58.0425C213.58 59.331 212.597 60.4549 211.416 61.343C210.235 62.231 208.882 62.8638 207.444 63.2013C206.395 63.4723 205.315 63.6092 204.232 63.6088ZM196.179 60.5939C199.761 62.9013 203.711 63.6618 207.321 62.728C208.683 62.4094 209.966 61.8134 211.088 60.9772C212.21 60.1411 213.147 59.0826 213.843 57.8678L213.882 54.3492C208.281 57.1687 203.636 57.7818 195.832 56.7465L196.179 60.5939Z" fill="#00257D"/>
<path d="M202.832 56.9657L202.341 56.9795L202.519 63.2845L203.009 63.2707L202.832 56.9657Z" fill="#00257D"/>
<path d="M210.766 55.5479H210.275V61.6507H210.766V55.5479Z" fill="#00257D"/>
<path d="M132.256 51.7999C131.586 51.7999 130.907 51.7788 130.217 51.7366L130.247 51.2457C137.737 51.7042 143.959 49.63 148.739 45.079C154.679 39.4249 156.823 31.1943 156.78 27.3341C156.78 27.2965 156.788 27.2592 156.804 27.2252C156.82 27.1911 156.843 27.1612 156.873 27.1377L180.506 8.17434C180.555 8.13402 180.619 8.11496 180.682 8.12132L198.283 9.76203L198.238 10.253L180.735 8.6206L157.271 27.448C157.275 31.5856 155.113 39.688 149.078 45.4345C144.636 49.6639 138.985 51.7999 132.256 51.7999Z" fill="white"/>
<path d="M168.952 41.992C168.102 29.6695 173.888 21.1272 173.947 21.0427L174.351 21.3216C174.293 21.405 168.605 29.8148 169.442 41.9586L168.952 41.992Z" fill="white"/>
<path d="M169.317 47.186L169.076 47.6133L174.028 50.4177L174.269 49.9904L169.317 47.186Z" fill="#00257D"/>
<path d="M174.393 48.8025H173.903V52.7791H174.393V48.8025Z" fill="#00257D"/>
<path d="M170.977 48.2698H170.486V51.0627H170.977V48.2698Z" fill="#00257D"/>
<path d="M208.707 28.7649L209.205 33.1455H214.852L214.132 30.6987L208.707 28.7649Z" fill="#00257D"/>
<path d="M214.852 33.3905H209.204C209.144 33.3909 209.085 33.369 209.04 33.3288C208.995 33.2887 208.966 33.2332 208.959 33.1731L208.462 28.7929C208.457 28.7515 208.463 28.7096 208.479 28.6711C208.495 28.6327 208.521 28.5989 208.553 28.573C208.586 28.547 208.625 28.5298 208.666 28.5229C208.707 28.516 208.749 28.5197 208.788 28.5337L214.212 30.467C214.249 30.48 214.282 30.5015 214.308 30.5296C214.335 30.5578 214.355 30.5919 214.366 30.629L215.086 33.0759C215.096 33.1125 215.099 33.1511 215.092 33.1886C215.085 33.2262 215.07 33.2617 215.047 33.2922C215.024 33.3228 214.994 33.3476 214.96 33.3646C214.926 33.3817 214.888 33.3906 214.85 33.3905H214.852ZM209.424 32.8996H214.526L213.934 30.8868L208.998 29.1273L209.424 32.8996Z" fill="#00257D"/>
<path d="M207.132 18.2401C202.035 9.57953 197.522 6.27406 197.477 6.24166L197.764 5.84302C197.809 5.87591 202.399 9.23048 207.554 17.9907L207.132 18.2401Z" fill="white"/>
<path d="M195.711 75.5424L194.146 80.7129L194.615 80.8553L196.181 75.6848L195.711 75.5424Z" fill="#00257D"/>
<path d="M188.952 122.71L205.395 106.42L193.954 87.6896L186.191 97.4465L176.359 83.9167L163.612 108.531L188.952 122.71Z" fill="white"/>
<path d="M194.379 80.7844C196.999 79.3916 201.542 77.4402 204.531 77.1284L228.779 121.097L194.379 144.482L188.95 117.18L194.379 80.7844Z" fill="white"/>
<path d="M173.885 136.238V235.73L132.509 244.39L141.703 161.582L136.773 158.874L102.282 241.783L80.5566 192.566L83.2604 190.109H87.7617L118.963 121.097L140.791 113.2L146.995 104.029L148.096 91.9338L195.163 124.278L180.587 127.612L173.885 136.238Z" fill="#CC1D37"/>
<path d="M88.9239 211.352L88.608 210.977L99.3764 201.888L133.146 132.262C133.157 132.24 133.17 132.22 133.187 132.203L147.12 117.082L127.407 127.791L95.6198 194.278C95.6049 194.309 95.5836 194.336 95.5574 194.358C95.5312 194.381 95.5006 194.397 95.4677 194.407L82.9675 198.108L82.8286 197.637L95.2238 193.967L126.999 127.506C127.022 127.459 127.058 127.421 127.104 127.396L148.184 115.943C148.235 115.916 148.294 115.907 148.351 115.919C148.407 115.931 148.458 115.963 148.493 116.009C148.529 116.054 148.547 116.111 148.545 116.169C148.542 116.227 148.52 116.282 148.481 116.325L133.572 132.508L99.7953 202.149C99.7799 202.18 99.7586 202.207 99.7325 202.23L88.9239 211.352Z" fill="#00257D"/>
<path d="M166.478 131.239L163.356 237.872L163.847 237.886L166.969 131.253L166.478 131.239Z" fill="#00257D"/>
<path d="M228.982 121.237L228.579 120.957L247.684 93.4252L252.264 75.5507C252.274 75.5142 252.291 75.4803 252.316 75.4517C252.34 75.4231 252.371 75.4005 252.406 75.3858L271.944 67.0782C272.002 67.0538 272.066 67.0521 272.124 67.0734C272.183 67.0946 272.231 67.1372 272.259 67.1925L274.025 70.662C274.051 70.712 274.058 70.7693 274.047 70.8242C274.035 70.8792 274.005 70.9285 273.961 70.9639L265.41 77.9293L260.936 87.748L260.49 87.5443L264.988 77.6721C265.003 77.6378 265.027 77.6075 265.056 77.5837L273.498 70.7072L271.928 67.6182L252.713 75.7908L248.15 93.5912C248.143 93.6194 248.131 93.6462 248.115 93.6702L228.982 121.237Z" fill="#00257D"/>
<path d="M146.996 104.029L180.587 127.612L173.885 136.238L140.791 113.2L146.996 104.029Z" fill="#FFAA00"/>
<path d="M240.702 143.936H223.429C223.391 143.936 223.354 143.927 223.32 143.91C223.286 143.893 223.256 143.868 223.233 143.838L213.899 131.228L214.292 130.933L223.552 143.444H240.552L261.465 103.313C261.494 103.259 261.541 103.217 261.598 103.196L282.338 95.6138L295.462 84.2005L288.569 65.3485L274.545 73.3808L265.322 77.9956L265.102 77.5537L274.315 72.9458L288.582 64.7756C288.613 64.758 288.648 64.7473 288.683 64.7443C288.719 64.7413 288.754 64.7461 288.788 64.7583C288.821 64.7706 288.852 64.79 288.877 64.8152C288.902 64.8404 288.922 64.8708 288.934 64.9043L295.985 84.1897C296.002 84.2364 296.005 84.2871 295.992 84.3352C295.98 84.3834 295.953 84.4266 295.916 84.4592L282.63 96.0134C282.608 96.0332 282.582 96.0487 282.554 96.0591L261.858 103.626L240.92 143.805C240.899 143.844 240.868 143.878 240.829 143.901C240.791 143.924 240.747 143.936 240.702 143.936Z" fill="#00257D"/>
<path d="M132.508 244.633C132.474 244.634 132.439 244.627 132.408 244.613C132.376 244.599 132.348 244.578 132.324 244.552C132.301 244.526 132.284 244.496 132.273 244.463C132.263 244.43 132.259 244.395 132.263 244.361L141.443 161.718L136.896 159.22L102.509 241.877C102.491 241.921 102.46 241.959 102.42 241.986C102.38 242.013 102.333 242.028 102.285 242.028C102.238 242.025 102.192 242.01 102.153 241.984C102.113 241.958 102.08 241.923 102.058 241.881L80.3326 192.666C80.3117 192.619 80.3062 192.566 80.3168 192.516C80.3275 192.465 80.3538 192.419 80.392 192.385L83.0962 189.926C83.1414 189.886 83.2001 189.863 83.261 189.863H87.6039L118.74 120.996C118.754 120.966 118.773 120.939 118.797 120.917C118.821 120.895 118.849 120.877 118.88 120.866L140.707 112.969L140.874 113.431L119.144 121.293L87.9851 190.21C87.9657 190.253 87.9343 190.289 87.8947 190.315C87.8551 190.34 87.809 190.354 87.7619 190.354H83.3547L80.8526 192.629L102.276 241.16L136.546 158.78C136.559 158.749 136.579 158.72 136.604 158.697C136.629 158.673 136.659 158.655 136.691 158.644C136.723 158.632 136.758 158.628 136.792 158.631C136.826 158.633 136.859 158.643 136.889 158.66L141.821 161.368C141.863 161.392 141.898 161.427 141.92 161.47C141.943 161.513 141.952 161.562 141.947 161.611L132.79 244.08L173.639 235.531V136.238H174.13V235.73C174.13 235.786 174.11 235.841 174.075 235.885C174.039 235.929 173.989 235.959 173.934 235.97L132.557 244.63C132.541 244.633 132.525 244.634 132.508 244.633Z" fill="#00257D"/>
<path d="M166.501 131.225L155.047 239.253L155.535 239.305L166.989 131.277L166.501 131.225Z" fill="#00257D"/>
<path d="M173.885 136.484C173.835 136.484 173.786 136.468 173.745 136.44L140.651 113.402C140.598 113.365 140.561 113.309 140.55 113.246C140.538 113.182 140.551 113.117 140.588 113.063L146.793 103.892C146.811 103.865 146.835 103.842 146.862 103.824C146.889 103.807 146.919 103.795 146.951 103.789C146.983 103.783 147.016 103.783 147.048 103.79C147.08 103.797 147.11 103.81 147.136 103.829L180.728 127.411C180.755 127.43 180.778 127.455 180.795 127.483C180.813 127.511 180.824 127.543 180.829 127.576C180.834 127.609 180.832 127.642 180.824 127.674C180.815 127.706 180.801 127.736 180.78 127.763L174.078 136.389C174.055 136.418 174.026 136.442 173.992 136.459C173.959 136.475 173.922 136.484 173.885 136.484ZM141.13 113.137L173.834 135.904L180.236 127.665L147.059 104.374L141.13 113.137Z" fill="#00257D"/>
<path d="M178.485 279.08L155.724 285.259L160.676 292.668L159.175 296.881L162.45 299.546L166.518 320.012L213.728 307.818L212.467 302.931L179.511 294.84L181.335 290.858L177.736 287.962L178.485 279.08Z" fill="white"/>
<path d="M180.587 127.857C180.536 127.857 180.487 127.841 180.446 127.812L146.855 104.23C146.82 104.205 146.791 104.172 146.773 104.132C146.755 104.093 146.748 104.05 146.752 104.007L147.851 91.9115C147.855 91.8689 147.87 91.828 147.895 91.7929C147.919 91.7578 147.953 91.7298 147.991 91.7115C148.03 91.6933 148.073 91.6856 148.116 91.689C148.158 91.6925 148.199 91.7071 148.235 91.7314L195.303 124.075C195.342 124.102 195.373 124.14 195.391 124.184C195.409 124.228 195.414 124.277 195.405 124.324C195.396 124.371 195.373 124.414 195.34 124.448C195.307 124.483 195.265 124.506 195.218 124.517L180.642 127.851C180.624 127.855 180.605 127.857 180.587 127.857ZM147.253 103.91L180.639 127.348L194.564 124.163L148.302 92.3735L147.253 103.91Z" fill="#00257D"/>
<path d="M139.621 128.881L162.536 182.08L176.86 179.625L177.393 182.361L192.815 178.345L191.701 164.363L172.766 164.338L167.692 141.852L153.033 109.62L139.621 128.881Z" fill="#FFD6B5"/>
<path d="M177.393 182.607C177.338 182.607 177.285 182.589 177.242 182.555C177.199 182.521 177.168 182.474 177.155 182.421L176.594 180.18L162.574 182.323C162.52 182.332 162.465 182.322 162.417 182.295C162.369 182.268 162.332 182.226 162.311 182.176L139.396 128.978C139.379 128.94 139.373 128.898 139.377 128.856C139.381 128.815 139.396 128.775 139.42 128.741L152.831 109.479C152.855 109.443 152.889 109.414 152.928 109.396C152.968 109.378 153.011 109.37 153.055 109.375C153.098 109.379 153.139 109.394 153.174 109.42C153.21 109.445 153.238 109.479 153.256 109.518L167.916 141.75C167.923 141.766 167.928 141.782 167.932 141.799L172.962 164.094L191.703 164.119C191.765 164.119 191.825 164.142 191.87 164.184C191.916 164.226 191.944 164.283 191.949 164.345L193.063 178.328C193.067 178.385 193.051 178.442 193.018 178.489C192.985 178.536 192.936 178.57 192.88 178.584L177.458 182.6C177.437 182.605 177.415 182.608 177.393 182.607ZM176.778 179.658C176.833 179.658 176.886 179.676 176.929 179.71C176.972 179.743 177.003 179.79 177.016 179.843L177.571 182.062L192.554 178.16L191.475 164.61L172.766 164.585C172.711 164.585 172.657 164.566 172.614 164.531C172.57 164.496 172.54 164.448 172.528 164.394L167.459 141.93L152.986 110.114L139.899 128.909L162.686 181.809L176.741 179.661C176.753 179.659 176.766 179.658 176.778 179.658Z" fill="#00257D"/>
<path d="M185.958 296.423L189.57 313.935L200.949 310.87L198.68 299.546L185.958 296.423Z" fill="#6EB60D"/>
<path d="M186.199 296.373L185.719 296.472L189.331 313.985L189.811 313.885L186.199 296.373Z" fill="#00257D"/>
<path d="M198.922 299.497L198.441 299.593L200.757 311.154L201.238 311.057L198.922 299.497Z" fill="#00257D"/>
<path d="M177.393 81.3927C172.546 75.9815 166.796 71.4539 160.401 68.0117L128.673 123.822L176.273 144.827L173.885 100.497L177.393 81.3927Z" fill="white"/>
<path d="M204.913 80.4063C204.584 81.5556 205.671 82.4246 206.041 82.6823C205.909 83.1114 205.588 84.4497 206.458 85.1762C206.698 85.3764 207.002 85.4834 207.314 85.4777C207.861 85.4378 208.386 85.2451 208.829 84.9215L207.916 83.265C207.884 83.25 207.854 83.2307 207.828 83.2076C207.775 83.1622 207.735 83.105 207.709 83.0407C207.683 82.9764 207.674 82.9068 207.68 82.8379L205.81 79.4465C205.597 79.5261 205.404 79.6542 205.249 79.8207C205.093 79.9873 204.978 80.1877 204.913 80.4063Z" fill="#FFAA00"/>
<path d="M226.642 120.459C225.569 120.459 224.991 121.799 224.832 122.232C224.797 122.232 224.755 122.232 224.708 122.232C224.168 122.232 222.882 122.348 222.575 123.423C222.504 123.705 222.504 124.001 222.576 124.283C222.648 124.565 222.788 124.825 222.985 125.039L228.127 121.543C227.996 121.248 227.789 120.993 227.529 120.803C227.268 120.613 226.962 120.494 226.642 120.459Z" fill="#FFAA00"/>
<path d="M213.049 114.819C212.76 113.762 211.317 113.641 210.792 113.635C210.637 113.21 210.059 111.855 208.98 111.855C207.901 111.855 207.329 113.196 207.171 113.628C207.135 113.628 207.093 113.628 207.046 113.628C206.506 113.628 205.22 113.745 204.913 114.82C204.584 115.969 205.671 116.838 206.041 117.096C205.909 117.525 205.588 118.863 206.458 119.59C206.698 119.79 207.002 119.897 207.314 119.891C207.926 119.837 208.508 119.605 208.989 119.223C209.505 119.563 210.1 119.766 210.716 119.812C210.988 119.818 211.255 119.745 211.485 119.6C212.368 119.027 212.034 117.53 211.911 117.089C212.26 116.819 213.339 115.879 213.049 114.819ZM209.72 116.284C209.72 116.284 210.662 117.182 210.12 117.619C209.578 118.056 208.975 116.821 208.975 116.821C208.975 116.821 208.321 118.043 207.829 117.619C207.336 117.195 208.217 116.24 208.217 116.24C208.217 116.24 206.877 116.088 207.121 115.438C207.364 114.787 208.528 115.386 208.528 115.386C208.528 115.386 208.289 114.09 208.975 114.09C209.66 114.09 209.436 115.397 209.436 115.397C209.436 115.397 210.575 114.789 210.828 115.438C211.081 116.087 209.72 116.284 209.72 116.284Z" fill="#FFAA00"/>
<path d="M213.049 97.6137C212.76 96.5562 211.317 96.4354 210.792 96.4295C210.637 96.0044 210.059 94.6499 208.98 94.6499C207.901 94.6499 207.329 95.9902 207.171 96.4227C207.135 96.4227 207.093 96.4227 207.046 96.4227C206.506 96.4227 205.22 96.5385 204.913 97.6137C204.584 98.763 205.671 99.6319 206.041 99.8897C205.909 100.319 205.588 101.657 206.458 102.384C206.698 102.584 207.002 102.691 207.314 102.685C207.926 102.631 208.508 102.399 208.989 102.017C209.505 102.357 210.1 102.56 210.717 102.606C210.988 102.612 211.256 102.538 211.486 102.393C212.369 101.821 212.034 100.324 211.912 99.8823C212.26 99.6133 213.339 98.6736 213.049 97.6137ZM209.72 99.0782C209.72 99.0782 210.662 99.9756 210.12 100.413C209.578 100.85 208.975 99.6157 208.975 99.6157C208.975 99.6157 208.321 100.838 207.829 100.413C207.336 99.9884 208.217 99.034 208.217 99.034C208.217 99.034 206.877 98.8828 207.121 98.2323C207.364 97.5818 208.528 98.1802 208.528 98.1802C208.528 98.1802 208.289 96.8842 208.975 96.8842C209.66 96.8842 209.436 98.1915 209.436 98.1915C209.436 98.1915 210.575 97.5832 210.828 98.2323C211.081 98.8813 209.72 99.0782 209.72 99.0782Z" fill="#FFAA00"/>
<path d="M210.792 130.842C210.637 130.417 210.059 129.062 208.98 129.062C207.901 129.062 207.329 130.403 207.171 130.835C207.135 130.835 207.093 130.835 207.046 130.835C206.506 130.835 205.22 130.951 204.913 132.026C204.584 133.175 205.671 134.044 206.041 134.302C205.927 134.673 205.673 135.726 206.168 136.471L209.202 134.409C209.117 134.288 209.041 134.162 208.974 134.03C208.974 134.03 208.32 135.252 207.828 134.827C207.335 134.403 208.216 133.448 208.216 133.448C208.216 133.448 206.876 133.297 207.12 132.647C207.363 131.996 208.527 132.595 208.527 132.595C208.527 132.595 208.288 131.298 208.974 131.298C209.659 131.298 209.435 132.605 209.435 132.605C209.435 132.605 210.574 131.998 210.827 132.647C211.08 133.296 209.719 133.492 209.719 133.492C209.831 133.603 209.933 133.722 210.025 133.849L212.969 131.848C212.568 130.964 211.283 130.849 210.792 130.842Z" fill="#FFAA00"/>
<path d="M191.328 93.412C191.844 93.7535 192.439 93.9572 193.055 94.0036C193.327 94.0098 193.594 93.936 193.824 93.7915C194.707 93.2186 194.373 91.7217 194.25 91.2804C194.598 91.0103 195.677 90.0707 195.387 89.0108C195.128 88.0647 193.951 87.8708 193.329 87.835L193.212 88.6205L192.648 89.3294C192.755 89.3149 192.864 89.3363 192.958 89.3902C193.051 89.4441 193.125 89.5275 193.166 89.6274C193.42 90.2759 192.058 90.4733 192.058 90.4733C192.058 90.4733 193 91.3707 192.458 91.8086C191.916 92.2465 191.313 91.0108 191.313 91.0108C191.157 91.2997 190.95 91.5582 190.703 91.7738L189 93.9152C189.2 94.025 189.425 94.0813 189.653 94.0787C190.265 94.0256 190.847 93.7938 191.328 93.412Z" fill="#FFAA00"/>
<path d="M171.847 79.2161C171.811 79.2161 171.769 79.2161 171.722 79.2161C171.183 79.2161 169.897 79.3324 169.589 80.4076C169.26 81.5569 170.347 82.4258 170.717 82.6836C170.586 83.1127 170.265 84.451 171.134 85.1775C171.374 85.3777 171.678 85.4847 171.99 85.479C172.602 85.4252 173.184 85.1929 173.665 84.8108C174.181 85.1514 174.776 85.3542 175.393 85.3999C175.664 85.406 175.931 85.3325 176.161 85.1883C177.044 84.6149 176.71 83.1181 176.588 82.6767C176.845 82.4758 177.078 82.2451 177.282 81.9894L177.392 81.39C176.139 79.9964 174.853 78.6833 173.534 77.4507C172.54 77.5499 171.999 78.8008 171.847 79.2161ZM173.651 79.6781C174.338 79.6781 174.113 80.9849 174.113 80.9849C174.113 80.9849 175.251 80.3767 175.504 81.0257C175.758 81.6747 174.397 81.8721 174.397 81.8721C174.397 81.8721 175.339 82.7695 174.796 83.2069C174.254 83.6443 173.651 82.4096 173.651 82.4096C173.651 82.4096 172.997 83.6311 172.505 83.2069C172.012 82.7827 172.893 81.8274 172.893 81.8274C172.893 81.8274 171.554 81.6767 171.797 81.0257C172.04 80.3747 173.204 80.9741 173.204 80.9741C173.204 80.9741 172.965 79.6786 173.651 79.6786V79.6781Z" fill="#FFAA00"/>
<path d="M195.164 124.277L192.139 124.969C192.354 125.2 192.902 125.864 192.459 126.222C191.916 126.659 191.314 125.425 191.314 125.425C191.2 125.63 191.064 125.824 190.908 126L191.26 127.873C191.284 127.856 191.309 127.838 191.329 127.824C191.845 128.164 192.439 128.367 193.056 128.413C193.328 128.419 193.595 128.345 193.825 128.201C194.708 127.628 194.373 126.131 194.251 125.69C194.599 125.42 195.677 124.48 195.388 123.42C195.098 122.36 193.656 122.242 193.131 122.236C192.976 121.811 192.398 120.456 191.319 120.456C191.125 120.462 190.934 120.507 190.758 120.588C190.582 120.669 190.424 120.784 190.293 120.928L190.63 121.159L195.164 124.277Z" fill="#FFAA00"/>
<path d="M188.38 108.491C188.248 108.92 187.928 110.258 188.797 110.985C189.037 111.185 189.341 111.292 189.653 111.286C190.265 111.233 190.847 111 191.328 110.618C191.844 110.959 192.439 111.162 193.055 111.207C193.327 111.213 193.594 111.14 193.824 110.996C194.707 110.423 194.373 108.925 194.251 108.485C194.598 108.215 195.677 107.275 195.387 106.215C195.098 105.154 193.655 105.036 193.131 105.031C192.975 104.606 192.398 103.251 191.318 103.251C190.239 103.251 189.667 104.591 189.509 105.024C189.473 105.024 189.431 105.024 189.384 105.024C188.845 105.024 187.559 105.14 187.251 106.215C186.922 107.364 188.009 108.233 188.38 108.491ZM189.46 106.835C189.705 106.185 190.867 106.784 190.867 106.784C190.867 106.784 190.628 105.487 191.314 105.487C192 105.487 191.775 106.794 191.775 106.794C191.775 106.794 192.914 106.187 193.167 106.835C193.42 107.484 192.06 107.681 192.06 107.681C192.06 107.681 193.001 108.579 192.459 109.016C191.917 109.454 191.314 108.219 191.314 108.219C191.314 108.219 190.66 109.441 190.168 109.016C189.675 108.592 190.556 107.637 190.556 107.637C190.556 107.637 189.215 107.486 189.459 106.835H189.46Z" fill="#FFAA00"/>
<path d="M171.847 113.628C171.811 113.628 171.769 113.628 171.722 113.628C171.183 113.628 169.897 113.745 169.589 114.82C169.26 115.969 170.347 116.838 170.717 117.096C170.586 117.525 170.265 118.863 171.134 119.59C171.374 119.79 171.678 119.897 171.99 119.891C172.602 119.837 173.184 119.605 173.665 119.223C173.983 119.422 174.325 119.581 174.682 119.695L174.557 117.711C174.09 117.722 173.65 116.823 173.65 116.823C173.65 116.823 172.996 118.045 172.504 117.621C172.011 117.197 172.892 116.241 172.892 116.241C172.892 116.241 171.553 116.09 171.796 115.44C172.039 114.789 173.203 115.388 173.203 115.388C173.203 115.388 172.964 114.092 173.65 114.092C174.336 114.092 174.112 115.399 174.112 115.399C174.206 115.351 174.303 115.308 174.402 115.271L174.194 111.979C174.026 111.899 173.841 111.858 173.655 111.857C172.583 111.855 172.008 113.196 171.847 113.628Z" fill="#FFAA00"/>
<path d="M177.725 97.6137C177.436 96.5562 175.993 96.4354 175.469 96.4295C175.314 96.0044 174.736 94.6499 173.656 94.6499C172.577 94.6499 172.005 95.9902 171.847 96.4227C171.811 96.4227 171.769 96.4227 171.722 96.4227C171.183 96.4227 169.897 96.5385 169.589 97.6137C169.26 98.763 170.347 99.6319 170.717 99.8897C170.586 100.319 170.265 101.657 171.134 102.384C171.374 102.584 171.678 102.691 171.99 102.685C172.602 102.631 173.184 102.399 173.665 102.017C174.181 102.357 174.776 102.56 175.393 102.606C175.664 102.612 175.932 102.538 176.162 102.393C177.045 101.821 176.71 100.324 176.588 99.8823C176.936 99.6133 178.015 98.6736 177.725 97.6137ZM174.397 99.0782C174.397 99.0782 175.339 99.9756 174.796 100.413C174.254 100.85 173.651 99.6157 173.651 99.6157C173.651 99.6157 172.997 100.838 172.505 100.413C172.012 99.9884 172.893 99.034 172.893 99.034C172.893 99.034 171.553 98.8828 171.797 98.2323C172.04 97.5818 173.204 98.1802 173.204 98.1802C173.204 98.1802 172.965 96.8842 173.651 96.8842C174.337 96.8842 174.113 98.1915 174.113 98.1915C174.113 98.1915 175.251 97.5832 175.504 98.2323C175.758 98.8813 174.397 99.0782 174.397 99.0782Z" fill="#FFAA00"/>
<path d="M195.387 140.628C195.142 139.735 194.079 139.513 193.437 139.461L194.379 144.477C194.444 143.947 194.4 143.41 194.25 142.898C194.598 142.628 195.677 141.689 195.387 140.628Z" fill="#FFAA00"/>
<path d="M170.718 134.3C170.586 134.729 170.266 136.067 171.135 136.794C171.375 136.994 171.679 137.101 171.991 137.095C172.603 137.042 173.185 136.809 173.666 136.427C174.182 136.768 174.777 136.971 175.393 137.016C175.522 137.016 175.651 137 175.776 136.967L175.518 132.897C175.387 133.343 174.396 133.489 174.396 133.489C174.396 133.489 175.338 134.386 174.796 134.823C174.254 135.261 173.651 134.026 173.651 134.026C173.651 134.026 172.997 135.248 172.505 134.823C172.012 134.399 172.893 133.444 172.893 133.444C172.893 133.444 171.553 133.293 171.797 132.643C172.04 131.992 173.204 132.591 173.204 132.591C173.204 132.591 172.965 131.295 173.651 131.295C174.337 131.295 174.112 132.601 174.112 132.601C174.112 132.601 175.246 131.997 175.502 132.639L175.373 130.603C175.135 130.05 174.579 129.06 173.656 129.06C172.583 129.06 172.005 130.401 171.847 130.833C171.811 130.833 171.769 130.833 171.722 130.833C171.182 130.833 169.897 130.949 169.589 132.024C169.26 133.173 170.347 134.042 170.718 134.3Z" fill="#FFAA00"/>
<path d="M160.063 89.0107C159.774 87.9532 158.331 87.8324 157.806 87.8265C157.651 87.4014 157.073 86.0469 155.994 86.0469C154.915 86.0469 154.343 87.3871 154.185 87.8196C154.149 87.8196 154.107 87.8196 154.06 87.8196C153.52 87.8196 152.235 87.9355 151.927 89.0112C151.598 90.1599 152.685 91.0289 153.055 91.2871C152.923 91.7162 152.603 93.0545 153.472 93.7811C153.712 93.9812 154.016 94.0882 154.328 94.0825C154.94 94.0289 155.522 93.7963 156.003 93.4139C156.519 93.7554 157.114 93.959 157.73 94.0054C158.002 94.0116 158.269 93.9379 158.499 93.7934C159.382 93.2204 159.048 91.7236 158.926 91.2822C159.274 91.0102 160.353 90.0706 160.063 89.0107ZM156.734 90.4751C156.734 90.4751 157.676 91.3726 157.134 91.8105C156.592 92.2484 155.989 91.0127 155.989 91.0127C155.989 91.0127 155.335 92.2346 154.843 91.8105C154.35 91.3863 155.231 90.4309 155.231 90.4309C155.231 90.4309 153.891 90.2797 154.135 89.6292C154.378 88.9787 155.542 89.5777 155.542 89.5777C155.542 89.5777 155.303 88.2811 155.989 88.2811C156.675 88.2811 156.45 89.5885 156.45 89.5885C156.45 89.5885 157.589 88.9802 157.842 89.6292C158.095 90.2783 156.734 90.4751 156.734 90.4751Z" fill="#FFAA00"/>
<path d="M157.731 76.797C158.002 76.8031 158.27 76.7296 158.5 76.5854C159.383 76.0125 159.048 74.5152 158.926 74.0743C159.273 73.8043 160.352 72.8646 160.063 71.8047C159.969 71.5382 159.805 71.3015 159.59 71.1188C159.374 70.9361 159.114 70.814 158.836 70.7649L157.859 72.4832C157.914 72.709 157.771 72.8759 157.567 72.9967L157.132 73.7616C157.304 74.0429 157.41 74.3821 157.136 74.6035C157.068 74.6606 156.982 74.6933 156.893 74.6963C156.804 74.6994 156.717 74.6726 156.645 74.6202L155.588 76.4784C155.733 76.3954 155.872 76.3043 156.006 76.2055C156.521 76.5466 157.115 76.7502 157.731 76.797Z" fill="#FFAA00"/>
<path d="M160.063 123.421C159.774 122.364 158.331 122.243 157.806 122.237C157.651 121.812 157.073 120.458 155.994 120.458C154.915 120.458 154.343 121.798 154.185 122.23C154.149 122.23 154.107 122.23 154.06 122.23C153.52 122.23 152.235 122.346 151.927 123.421C151.598 124.571 152.685 125.44 153.055 125.698C152.923 126.126 152.603 127.465 153.472 128.192C153.712 128.392 154.016 128.499 154.328 128.493C154.94 128.439 155.522 128.207 156.003 127.825C156.519 128.165 157.114 128.368 157.73 128.414C158.002 128.42 158.269 128.346 158.499 128.202C159.382 127.629 159.048 126.132 158.926 125.69C159.274 125.422 160.353 124.483 160.063 123.421ZM156.734 124.886C156.734 124.886 157.676 125.783 157.134 126.221C156.592 126.659 155.989 125.423 155.989 125.423C155.989 125.423 155.335 126.645 154.843 126.221C154.35 125.797 155.231 124.842 155.231 124.842C155.231 124.842 153.891 124.69 154.135 124.04C154.378 123.389 155.542 123.988 155.542 123.988C155.542 123.988 155.303 122.692 155.989 122.692C156.675 122.692 156.45 123.999 156.45 123.999C156.45 123.999 157.589 123.391 157.842 124.04C158.095 124.689 156.734 124.887 156.734 124.887V124.886Z" fill="#FFAA00"/>
<path d="M160.063 106.216C159.774 105.159 158.331 105.038 157.806 105.033C157.651 104.608 157.073 103.253 155.994 103.253C154.915 103.253 154.343 104.593 154.185 105.026C154.149 105.026 154.107 105.026 154.06 105.026C153.52 105.026 152.235 105.142 151.927 106.217C151.598 107.367 152.685 108.236 153.055 108.493C152.923 108.923 152.603 110.261 153.472 110.987C153.712 111.188 154.016 111.295 154.328 111.289C154.94 111.235 155.522 111.003 156.003 110.621C156.519 110.961 157.114 111.164 157.73 111.21C158.002 111.216 158.269 111.142 158.499 110.998C159.382 110.425 159.048 108.928 158.926 108.487C159.274 108.217 160.353 107.277 160.063 106.216ZM156.734 107.681C156.734 107.681 157.676 108.579 157.134 109.016C156.592 109.454 155.989 108.219 155.989 108.219C155.989 108.219 155.335 109.441 154.843 109.016C154.35 108.592 155.231 107.637 155.231 107.637C155.231 107.637 153.891 107.486 154.135 106.835C154.378 106.184 155.542 106.784 155.542 106.784C155.542 106.784 155.303 105.487 155.989 105.487C156.675 105.487 156.45 106.794 156.45 106.794C156.45 106.794 157.589 106.187 157.842 106.835C158.095 107.484 156.734 107.681 156.734 107.681Z" fill="#FFAA00"/>
<path d="M135.395 117.094C135.263 117.523 134.942 118.861 135.811 119.588C136.051 119.788 136.355 119.895 136.667 119.889C137.279 119.835 137.861 119.603 138.342 119.221C138.858 119.561 139.453 119.764 140.07 119.81C140.341 119.816 140.608 119.743 140.838 119.598C141.721 119.025 141.387 117.528 141.265 117.087C141.612 116.817 142.691 115.877 142.401 114.817C142.112 113.757 140.669 113.639 140.145 113.633C139.99 113.208 139.412 111.854 138.332 111.854C137.253 111.854 136.681 113.194 136.523 113.626C136.487 113.626 136.445 113.626 136.398 113.626C135.859 113.626 134.573 113.743 134.265 114.818C133.937 115.967 135.023 116.836 135.395 117.094ZM136.474 115.438C136.719 114.787 137.881 115.386 137.881 115.386C137.881 115.386 137.642 114.09 138.328 114.09C139.014 114.09 138.79 115.397 138.79 115.397C138.79 115.397 139.928 114.789 140.181 115.438C140.435 116.087 139.074 116.284 139.074 116.284C139.074 116.284 140.016 117.182 139.474 117.619C138.931 118.056 138.328 116.821 138.328 116.821C138.328 116.821 137.674 118.043 137.182 117.619C136.689 117.195 137.57 116.24 137.57 116.24C137.57 116.24 136.23 116.088 136.473 115.438H136.474Z" fill="#FFAA00"/>
<path d="M141.397 101.44L140.866 102.372C141.014 102.262 141.137 102.122 141.228 101.961C141.32 101.801 141.377 101.623 141.397 101.44Z" fill="#FFAA00"/>
<path d="M172.082 76.1338C175.559 86.5765 179.109 92.6189 186.081 100.499C192.184 94.691 196.424 87.1979 198.26 78.9724L194.381 80.7849C193.711 86.1852 190.629 90.7892 186.335 95.3805C182.326 90.9414 180.168 87.3679 177.393 81.3927C175.776 79.491 173.999 77.7316 172.082 76.1338Z" fill="#FFAA00"/>
<path d="M186.081 100.744H186.068C186.036 100.742 186.004 100.734 185.975 100.72C185.945 100.706 185.919 100.686 185.898 100.662C178.817 92.6594 175.272 86.4903 171.849 76.213L172.314 76.0579C175.687 86.1839 179.178 92.2941 186.1 100.149C192.078 94.404 196.226 87.0196 198.022 78.9235L198.502 79.0251C196.666 87.304 192.399 94.845 186.249 100.68C186.203 100.722 186.143 100.745 186.081 100.744Z" fill="#00257D"/>
<path d="M186.334 95.6258C186.3 95.6255 186.266 95.6181 186.235 95.6042C186.204 95.5902 186.177 95.57 186.154 95.5448C182.324 91.3041 180.142 87.8906 177.173 81.4957L177.617 81.289C180.516 87.5328 182.657 90.9114 186.339 95.0171C191.152 89.8279 193.561 85.4207 194.14 80.7544L194.627 80.8148C194.027 85.6495 191.526 90.1917 186.516 95.5483C186.493 95.5732 186.464 95.593 186.433 95.6063C186.402 95.6197 186.368 95.6263 186.334 95.6258Z" fill="#00257D"/>
<path d="M198.081 113.027L190.454 120.993L190.809 121.333L198.436 113.367L198.081 113.027Z" fill="#00257D"/>
<path d="M194.38 144.728C194.347 144.728 194.315 144.722 194.285 144.71C194.247 144.694 194.214 144.669 194.188 144.638C194.163 144.606 194.145 144.568 194.138 144.528L190.53 125.327L191.012 125.236L194.551 144.07L228.456 121.02L204.393 77.3857C201.332 77.6538 198.076 79.2473 194.633 80.9332L194.486 81.0049L194.27 80.5631L194.417 80.4919C197.963 78.7559 201.312 77.1162 204.514 76.8835C204.56 76.8794 204.607 76.8892 204.649 76.9116C204.69 76.934 204.724 76.9681 204.746 77.0097L228.993 120.978C229.023 121.031 229.031 121.094 229.017 121.154C229.003 121.213 228.967 121.265 228.916 121.299L194.517 144.686C194.476 144.713 194.429 144.728 194.38 144.728Z" fill="#00257D"/>
<path d="M176.273 145.072C176.239 145.072 176.206 145.065 176.175 145.051L128.575 124.045C128.543 124.031 128.516 124.011 128.493 123.985C128.47 123.96 128.453 123.93 128.442 123.898C128.431 123.866 128.427 123.832 128.43 123.798C128.433 123.764 128.444 123.731 128.46 123.701L160.188 67.8909C160.204 67.8624 160.226 67.8375 160.252 67.8175C160.278 67.7976 160.307 67.783 160.339 67.7747C160.37 67.7663 160.403 67.7644 160.436 67.7691C160.468 67.7737 160.499 67.7847 160.527 67.8016C165.673 70.8895 172.077 74.7326 177.581 81.2346L177.207 81.5517C171.831 75.2019 165.567 71.3991 160.491 68.3519L129.02 123.707L176.004 144.441L173.64 105.858L174.13 105.828L176.519 144.813C176.521 144.846 176.516 144.88 176.505 144.911C176.493 144.943 176.475 144.972 176.453 144.996C176.43 145.021 176.402 145.04 176.371 145.053C176.34 145.067 176.307 145.074 176.273 145.073L176.273 145.072Z" fill="#00257D"/>
<path d="M139.739 160.222L139.503 160.652L146.286 164.378L146.523 163.948L139.739 160.222Z" fill="#00257D"/>
<path d="M166.518 320.258C166.461 320.258 166.406 320.239 166.363 320.203C166.319 320.167 166.288 320.117 166.277 320.062L162.227 299.683L159.02 297.073C158.981 297.041 158.952 296.997 158.939 296.948C158.925 296.899 158.927 296.848 158.944 296.8L160.403 292.704L155.52 285.397C155.498 285.364 155.485 285.327 155.48 285.289C155.476 285.25 155.48 285.211 155.494 285.174C155.508 285.138 155.53 285.105 155.559 285.079C155.588 285.052 155.622 285.033 155.66 285.023L178.421 278.844C178.459 278.834 178.499 278.833 178.537 278.841C178.576 278.85 178.612 278.867 178.642 278.893C178.672 278.918 178.696 278.95 178.711 278.987C178.726 279.023 178.733 279.063 178.729 279.102L177.993 287.854L181.49 290.668C181.533 290.702 181.563 290.75 181.576 290.803C181.588 290.857 181.583 290.913 181.56 290.963L179.859 294.674L212.527 302.695C212.57 302.705 212.61 302.728 212.641 302.759C212.673 302.79 212.695 302.829 212.706 302.872L213.968 307.759C213.976 307.79 213.978 307.823 213.973 307.855C213.968 307.887 213.958 307.917 213.941 307.945C213.925 307.973 213.903 307.997 213.877 308.016C213.852 308.036 213.822 308.05 213.791 308.058L166.581 320.253C166.561 320.257 166.539 320.259 166.518 320.258ZM159.465 296.8L162.604 299.356C162.649 299.392 162.679 299.442 162.69 299.498L166.708 319.71L213.429 307.641L212.266 303.134L179.452 295.079C179.417 295.07 179.385 295.054 179.357 295.031C179.328 295.008 179.306 294.979 179.29 294.947C179.274 294.914 179.266 294.879 179.266 294.843C179.265 294.806 179.273 294.771 179.288 294.738L181.032 290.929L177.582 288.153C177.551 288.128 177.526 288.096 177.511 288.059C177.495 288.022 177.488 287.981 177.492 287.941L178.211 279.409L156.118 285.406L160.879 292.532C160.901 292.563 160.914 292.6 160.919 292.638C160.924 292.676 160.919 292.714 160.906 292.751L159.465 296.8Z" fill="#00257D"/>
<path d="M217.029 306.965L163.326 320.837L164.595 325.754L218.297 311.883L217.029 306.965Z" fill="#1E7530"/>
<path d="M27.6872 151.151L0.244629 199.381L4.65473 201.894L32.0973 153.664L27.6872 151.151Z" fill="#1E7530"/>
<path d="M51.7689 199.775L66.7874 180.084L58.318 177.321L56.8957 173.081L52.675 173.011L35.8947 160.195L6.31348 198.979L10.3232 202.042L41.2281 188.019L42.254 192.278L46.8716 192.329L51.7689 199.775Z" fill="white"/>
<path d="M10.3235 202.287C10.2704 202.287 10.2188 202.27 10.1763 202.238L6.1651 199.172C6.11351 199.133 6.07968 199.075 6.07103 199.01C6.06239 198.946 6.07963 198.88 6.11898 198.829L35.7027 160.045C35.7422 159.993 35.8005 159.959 35.8649 159.951C35.9292 159.942 35.9944 159.959 36.0461 159.999L52.7621 172.766L56.9019 172.834C56.9526 172.835 57.0018 172.852 57.0428 172.882C57.0837 172.912 57.1144 172.953 57.1305 173.002L58.5135 177.125L66.8656 179.85C66.9029 179.862 66.9367 179.883 66.9642 179.911C66.9917 179.939 67.0121 179.973 67.0238 180.01C67.0354 180.048 67.0379 180.087 67.031 180.126C67.0242 180.165 67.0082 180.201 66.9844 180.232L51.9664 199.923C51.943 199.955 51.9122 199.981 51.8766 199.998C51.841 200.015 51.8017 200.023 51.7623 200.021C51.7231 200.02 51.6849 200.009 51.6507 199.99C51.6166 199.971 51.5875 199.944 51.566 199.911L46.7404 192.574L42.2533 192.525C42.1986 192.525 42.1457 192.506 42.103 192.472C42.0602 192.438 42.0301 192.39 42.0173 192.337L41.0616 188.366L10.4246 202.265C10.3928 202.28 10.3583 202.287 10.3235 202.287ZM6.65816 198.933L10.3554 201.757L41.1278 187.795C41.1607 187.781 41.1965 187.773 41.2325 187.774C41.2686 187.774 41.3041 187.783 41.3366 187.799C41.369 187.814 41.3975 187.837 41.4201 187.865C41.4427 187.894 41.4588 187.926 41.4673 187.961L42.4485 192.036L46.8753 192.085C46.9155 192.086 46.9551 192.096 46.9904 192.115C47.0257 192.134 47.0558 192.162 47.0779 192.196L51.7848 199.352L66.3834 180.211L58.2432 177.556C58.2069 177.544 58.1739 177.524 58.1468 177.497C58.1198 177.47 58.0993 177.437 58.0872 177.401L56.7199 173.326L52.6723 173.259C52.6193 173.259 52.5676 173.242 52.5252 173.21L35.9426 160.544L6.65816 198.933Z" fill="#00257D"/>
<path d="M34.801 190.924L18.6472 177.303L12.7339 187.696L22.8748 196.347L34.801 190.924Z" fill="#6EB60D"/>
<path d="M22.875 196.592C22.8166 196.592 22.76 196.572 22.7156 196.533L12.5742 187.881L12.8926 187.508L22.9153 196.057L34.3464 190.859L18.4885 177.491L18.8049 177.116L34.9587 190.737C34.9903 190.763 35.0147 190.797 35.0295 190.836C35.0443 190.875 35.0492 190.917 35.0435 190.958C35.0379 190.999 35.022 191.037 34.9973 191.071C34.9726 191.104 34.9399 191.13 34.9023 191.147L22.9766 196.571C22.9447 196.585 22.91 196.593 22.875 196.592Z" fill="#00257D"/>
<path d="M4.65625 202.138C4.61378 202.139 4.57202 202.128 4.53507 202.107L0.124012 199.593C0.0676581 199.562 0.0262134 199.509 0.00871866 199.446C0.000198646 199.415 -0.0021069 199.383 0.0019339 199.351C0.0059747 199.319 0.0162826 199.288 0.0322679 199.26L27.4745 151.029C27.5067 150.972 27.5599 150.931 27.6225 150.914C27.6852 150.896 27.7521 150.905 27.8086 150.937L32.2186 153.449C32.2467 153.465 32.2713 153.487 32.2911 153.512C32.3109 153.537 32.3255 153.567 32.3341 153.598C32.3427 153.629 32.345 153.661 32.341 153.693C32.3371 153.725 32.3268 153.756 32.3109 153.784L4.86918 202.015C4.84773 202.052 4.81674 202.084 4.77935 202.105C4.74196 202.127 4.69949 202.138 4.65625 202.138ZM0.579787 199.289L4.56304 201.558L31.7629 153.755L27.7791 151.485L0.579787 199.289Z" fill="#00257D"/>
<path d="M164.594 326C164.54 326 164.487 325.982 164.444 325.949C164.4 325.915 164.37 325.869 164.356 325.816L163.088 320.898C163.08 320.867 163.078 320.834 163.083 320.803C163.087 320.771 163.098 320.74 163.114 320.712C163.131 320.684 163.152 320.66 163.178 320.641C163.204 320.621 163.233 320.607 163.264 320.599L216.966 306.728C217.029 306.712 217.096 306.721 217.152 306.754C217.208 306.787 217.249 306.841 217.265 306.904L218.534 311.821C218.55 311.884 218.541 311.951 218.508 312.007C218.475 312.063 218.421 312.104 218.358 312.12L164.655 325.992C164.635 325.998 164.615 326 164.594 326ZM163.625 321.014L164.77 325.456L217.997 311.706L216.849 307.265L163.625 321.014Z" fill="#00257D"/>
<path d="M65.0661 182.308L64.8008 182.721L80.4242 192.774L80.6895 192.361L65.0661 182.308Z" fill="#00257D"/>
<path d="M54.7742 195.864L54.4502 196.232L99.4116 235.864L99.7356 235.495L54.7742 195.864Z" fill="#00257D"/>
<path d="M184.653 117.015L177.213 125.206L177.576 125.536L185.016 117.345L184.653 117.015Z" fill="#00257D"/>
<path d="M189.005 119.918L178.617 126.108L178.868 126.529L189.256 120.34L189.005 119.918Z" fill="#00257D"/>
<path d="M203.407 57.1506L203.063 56.7996L205.841 54.0842C205.871 54.0547 205.909 54.0335 205.95 54.0227C205.991 54.0119 206.034 54.0118 206.075 54.0224L207.97 54.5241L209.315 53.5423C209.366 53.5054 209.429 53.4894 209.491 53.4974C209.553 53.5054 209.61 53.5369 209.649 53.5855L211.106 55.3661L210.726 55.6768L209.416 54.0754L208.164 54.9871C208.134 55.0084 208.101 55.023 208.065 55.0297C208.029 55.0364 207.992 55.0351 207.957 55.0259L206.084 54.5305L203.407 57.1506Z" fill="#00257D"/>
<path d="M207.841 65.4105C207.802 65.4106 207.763 65.4011 207.729 65.383L204.196 63.5665L204.42 63.1301L207.776 64.8552L210.576 61.3386L210.959 61.6445L208.035 65.3182C208.012 65.3473 207.982 65.3708 207.948 65.3867C207.915 65.4027 207.878 65.4108 207.841 65.4105Z" fill="#00257D"/>
<path d="M199.859 44.0861C197.035 41.8145 191.82 40.0682 186.72 43.4655L186.535 45.1995C191.245 42.9211 195.138 42.7816 199.585 45.6094L199.859 44.0861Z" fill="#00257D"/>
<path d="M199.587 45.854C199.54 45.8538 199.494 45.8406 199.455 45.8157C195.271 43.1558 191.556 43.0419 186.642 45.4195C186.603 45.4385 186.559 45.4467 186.516 45.4432C186.472 45.4397 186.431 45.4247 186.395 45.3997C186.359 45.3747 186.331 45.3406 186.312 45.3009C186.294 45.2613 186.287 45.2175 186.291 45.1741L186.475 43.4396C186.479 43.4038 186.491 43.3693 186.509 43.3385C186.528 43.3077 186.553 43.2814 186.583 43.2614C191.685 39.8612 197.008 41.4773 200.013 43.8947C200.047 43.9223 200.074 43.9587 200.089 44C200.105 44.0413 200.109 44.086 200.101 44.1294L199.828 45.6513C199.818 45.708 199.788 45.7593 199.744 45.7963C199.7 45.8332 199.644 45.8535 199.587 45.8535V45.854ZM193.002 43.2521C195.28 43.2888 197.5 43.9677 199.409 45.2109L199.592 44.1848C197.818 42.7601 195.638 41.9362 193.366 41.8319C191.094 41.7276 188.848 42.3483 186.951 43.6046L186.825 44.7887C188.747 43.8315 190.856 43.307 193.002 43.2521Z" fill="#00257D"/>
<path d="M211.344 42.2119V44.1354C211.969 42.02 215.342 39.8874 217.256 40.4485L216.83 38.796C214.837 38.6728 212.115 39.5142 211.344 42.2119Z" fill="#00257D"/>
<path d="M211.344 44.3808C211.332 44.3808 211.321 44.3799 211.309 44.3779C211.251 44.3695 211.197 44.3404 211.159 44.2958C211.12 44.2513 211.099 44.1943 211.099 44.1354V42.2109C211.099 42.1882 211.102 42.1655 211.108 42.1436C211.875 39.4631 214.536 38.4096 216.846 38.5505C216.897 38.5537 216.947 38.5732 216.987 38.6062C217.026 38.6391 217.055 38.6839 217.068 38.7341L217.494 40.3866C217.505 40.4286 217.504 40.4727 217.493 40.5144C217.481 40.5562 217.458 40.594 217.427 40.6242C217.396 40.6541 217.357 40.6753 217.315 40.6857C217.273 40.6961 217.229 40.6954 217.188 40.6836C215.417 40.1632 212.17 42.2055 211.579 44.2051C211.564 44.2558 211.533 44.3003 211.491 44.332C211.448 44.3636 211.397 44.3808 211.344 44.3808ZM211.589 42.2462V43.0651C212.713 41.3621 215.207 39.9457 216.922 40.1337L216.638 39.0331C214.584 38.9717 212.274 39.9197 211.589 42.2472V42.2462Z" fill="#00257D"/>
<path d="M187.31 169.769L186.825 169.842L188.297 179.661L188.782 179.588L187.31 169.769Z" fill="#00257D"/>
<path d="M183.876 171.24L183.391 171.317L184.863 180.645L185.348 180.568L183.876 171.24Z" fill="#00257D"/>
<path d="M179.959 179.192L179.005 175.055L170.804 178.408L170.618 177.953L179.087 174.491C179.12 174.478 179.155 174.472 179.191 174.473C179.226 174.475 179.261 174.484 179.293 174.5C179.324 174.517 179.352 174.54 179.374 174.568C179.395 174.596 179.411 174.629 179.419 174.664L180.438 179.082L179.959 179.192Z" fill="#00257D"/>
<path d="M190.255 168.803L189.766 168.85L190.747 179.159L191.236 179.113L190.255 168.803Z" fill="#00257D"/>
<path d="M177.155 182.42L176.125 178.296C176.11 178.24 176.117 178.18 176.143 178.128C176.169 178.075 176.212 178.034 176.266 178.011L179.569 176.595L179.762 177.046L176.651 178.38L177.633 182.3L177.155 182.42Z" fill="#00257D"/>
<path d="M189.859 125.743L189.75 125.264L194.564 124.163L188.639 120.092L188.917 119.688L195.303 124.076C195.342 124.103 195.373 124.141 195.391 124.185C195.409 124.229 195.414 124.277 195.405 124.324C195.396 124.371 195.373 124.414 195.34 124.449C195.307 124.483 195.265 124.507 195.218 124.518L189.859 125.743Z" fill="#00257D"/>
</svg>
