<svg width="138" height="169" viewBox="0 0 138 169" fill="none" xmlns="http://www.w3.org/2000/svg">
<path d="M70.3048 83.9438L36.5068 113.59L25.9293 112.881L13.4035 114.987L7.63805 102.866L21.1568 98.6677L35.1482 100.441L49.2602 83.7133L67.7262 69.2211L70.3048 83.9438Z" fill="#FFD6B5"/>
<path d="M78.4591 8.54368L82.3184 10.7132L95.5593 9.25012L110.997 26.6261C109.687 34.4052 109.915 38.1894 113.922 40.6334C121.025 44.9652 125.674 37.7121 133.684 42.8096C119.93 46.5981 126.202 56.1703 112.684 63.9727L103.943 55.4104L106.662 66.9699C102.833 68.1991 97.8607 68.7974 91.1421 68.4289L77.8051 52.6709L67.5638 24.9827C67.5638 24.9827 68.1754 13.043 78.4591 8.54368Z" fill="#00257D"/>
<path d="M91.1156 68.5917L91.1282 68.5932C97.4596 68.9404 102.558 68.4602 106.716 67.1236C106.758 67.1103 106.792 67.0834 106.813 67.0479C106.835 67.0124 106.841 66.9708 106.832 66.9311L104.249 55.9502L112.554 64.0832C112.581 64.1098 112.617 64.1272 112.656 64.1326C112.695 64.1379 112.735 64.131 112.769 64.1128C119.017 60.7905 121.108 56.4686 122.952 52.6555C125.035 48.3533 126.831 44.6372 133.725 42.9661C133.758 42.958 133.788 42.941 133.811 42.9173C133.834 42.8935 133.85 42.864 133.855 42.8324C133.861 42.8007 133.856 42.7682 133.842 42.7389C133.828 42.7096 133.806 42.6848 133.777 42.6674C129.527 40.1092 126.257 40.7684 123.097 41.4056C120.165 41.9968 117.396 42.5546 114.018 40.4941C110 38.0437 109.892 34.2431 111.17 26.6503C111.174 26.6271 111.173 26.6035 111.166 26.5809C111.159 26.5584 111.148 26.5374 111.132 26.5194L95.6925 9.14352C95.6737 9.12238 95.6496 9.10596 95.6223 9.09576C95.595 9.08556 95.5654 9.0819 95.5361 9.08511L82.3548 10.5413L78.5475 8.40183C78.5227 8.38793 78.4946 8.37994 78.4657 8.37856C78.4367 8.37719 78.4079 8.38247 78.3817 8.39395C68.1194 12.8826 67.391 24.8535 67.3837 24.9737C67.3822 24.9947 67.3854 25.0157 67.393 25.0355L77.6338 52.724C77.6404 52.7415 77.6501 52.7578 77.6626 52.7723L91.0006 68.5304C91.029 68.564 91.0702 68.5859 91.1156 68.5917ZM106.453 66.8598C102.384 68.139 97.4006 68.5993 91.2302 68.267L77.9604 52.5891L67.7402 24.9578C67.7864 24.2832 68.7128 13.0505 78.4458 8.72906L82.2239 10.8529C82.2574 10.8719 82.2967 10.8797 82.3356 10.875L95.4814 9.42284L110.806 26.6732C109.542 34.2084 109.68 38.2445 113.822 40.771C117.324 42.906 120.163 42.3343 123.168 41.7293C126.173 41.1243 129.279 40.4974 133.243 42.7485C126.506 44.5093 124.621 48.4031 122.63 52.5218C120.82 56.2661 118.768 60.5032 112.714 63.7639L104.069 55.2952C104.042 55.2691 104.007 55.252 103.969 55.2463C103.931 55.2406 103.892 55.2468 103.858 55.2638C103.824 55.2808 103.796 55.3078 103.78 55.3405C103.764 55.3733 103.76 55.4101 103.768 55.4453L106.453 66.8598Z" fill="#00257D"/>
<path d="M86.7505 50.1673L88.366 60.5308L77.8082 57.0574L77.2287 51.1139L86.7505 50.1673Z" fill="#FFD6B5"/>
<path d="M64.4887 31.3279C60.9152 41.9833 64.4509 52.4944 72.3864 54.8047C79.1764 56.7818 86.987 52.1144 91.3395 44.0504C94.0856 46.9982 98.8566 43.0265 98.576 39.8811C98.3445 37.2781 96.123 36.5058 93.7154 38.0741C96.4291 27.9934 92.8607 18.4114 85.3284 16.2182C77.3923 13.9075 68.0625 20.6725 64.4887 31.3279Z" fill="#FFD6B5"/>
<path d="M72.7829 19.2769C76.309 15.6659 81.1036 13.4047 87.0037 12.32L96.0207 22.7424C98.6597 27.85 97.9471 33.8058 97.3823 36.6092L94.3993 36.7931L92.0926 35.5197C92.2974 34.2197 92.7176 30.4562 91.3357 27.4768C91.1091 29.7872 90.6056 32.067 89.8348 34.2734L87.4305 32.9415C87.5822 31.9504 87.8704 29.745 87.7377 29.0415C87.0423 30.0133 86.4274 31.0333 85.8985 32.0926L79.0927 28.3212C76.9081 22.8478 77.8719 18.7187 77.8719 18.7187C76.0141 18.2937 74.0389 18.8299 72.7829 19.2769Z" fill="#00257D"/>
<path d="M94.3785 36.9566C94.3903 36.9582 94.4022 36.9585 94.414 36.9577L97.397 36.7738C97.4361 36.7713 97.4733 36.7567 97.5026 36.7323C97.532 36.708 97.5519 36.6752 97.5591 36.6391C98.1713 33.6011 98.8065 27.7468 96.1827 22.6698C96.1769 22.6584 96.1697 22.6477 96.1613 22.6378L87.1436 12.2153C87.1235 12.1923 87.097 12.1747 87.0671 12.1645C87.0372 12.1544 87.0048 12.152 86.9735 12.1576C80.9268 13.2687 76.1115 15.627 72.6565 19.1655C72.6295 19.193 72.6132 19.2282 72.6103 19.2654C72.6074 19.3026 72.618 19.3396 72.6404 19.3704C72.6628 19.4012 72.6958 19.4239 72.7338 19.435C72.7719 19.4461 72.8129 19.4448 72.8501 19.4313C74.6969 18.7741 76.3237 18.5759 77.6738 18.8429C77.5266 19.6638 76.9959 23.523 78.9336 28.3772C78.9478 28.4125 78.9743 28.4422 79.0089 28.4616L85.813 32.2327C85.8342 32.2445 85.8579 32.252 85.8825 32.2547C85.907 32.2574 85.9319 32.2553 85.9556 32.2484C85.979 32.2417 86.0007 32.2306 86.0193 32.2157C86.0379 32.2008 86.053 32.1824 86.0637 32.1618C86.1063 32.076 86.1572 31.9682 86.2165 31.8439C86.5847 31.0062 87.0484 30.208 87.5995 29.463C87.562 30.6199 87.4487 31.7738 87.2604 32.9181C87.2554 32.9502 87.2606 32.983 87.2754 33.0124C87.2902 33.0417 87.314 33.0663 87.3437 33.0831L89.7479 34.415C89.7706 34.4278 89.7961 34.4355 89.8225 34.4377C89.8489 34.4399 89.8755 34.4364 89.9002 34.4275C89.925 34.4188 89.9474 34.405 89.9657 34.3871C89.984 34.3692 89.9978 34.3478 90.0061 34.3243C90.7032 32.325 91.1839 30.2657 91.4408 28.1775C92.4679 30.9532 92.1295 34.1732 91.9204 35.4957C91.9152 35.5279 91.9204 35.5609 91.9352 35.5903C91.95 35.6198 91.9738 35.6446 92.0036 35.6614L94.3103 36.9348C94.3312 36.9463 94.3544 36.9537 94.3785 36.9566ZM97.2364 36.4521L94.4447 36.6256L92.2871 35.4341C92.5165 33.9117 92.8484 30.318 91.5005 27.4115C91.4848 27.378 91.4577 27.3503 91.4232 27.3328C91.3888 27.3153 91.3491 27.309 91.3104 27.3149C91.2717 27.3207 91.2361 27.3385 91.2093 27.3653C91.1825 27.3921 91.166 27.4265 91.1624 27.463C90.9422 29.6919 90.4646 31.8924 89.7379 34.0262L87.6234 32.8553C87.7144 32.246 88.0619 29.7994 87.9131 29.0123C87.9075 28.982 87.8928 28.9538 87.8709 28.9308C87.849 28.9079 87.8207 28.8912 87.7891 28.8825C87.7573 28.874 87.7236 28.874 87.6918 28.8825C87.66 28.891 87.6314 28.9076 87.6092 28.9306C86.824 29.742 86.2167 31.0228 85.8907 31.7108C85.8665 31.7625 85.8434 31.811 85.8219 31.856L79.2412 28.2085C77.1299 22.8776 78.0394 18.7942 78.0488 18.7533C78.0586 18.7112 78.0504 18.6673 78.026 18.6308C78.0016 18.5943 77.9629 18.5682 77.9182 18.558C76.6293 18.2649 75.1193 18.3779 73.4154 18.8954C76.7581 15.7025 81.3023 13.5524 86.9354 12.5017L95.8734 22.8309C98.4065 27.7496 97.8315 33.4242 97.2364 36.4521Z" fill="#00257D"/>
<path d="M87.9765 59.0964L88.3263 59.0481L86.9361 50.223C88.7124 48.4708 90.2088 46.4883 91.3789 44.337C92.3895 45.2937 93.7162 45.5118 95.1441 44.9464C97.2698 44.1037 98.9212 41.7794 98.7504 39.8676C98.639 38.6198 98.0764 37.7163 97.1674 37.3175C96.2778 36.9278 95.1373 37.0729 93.9904 37.7112C96.5257 27.6801 92.7897 18.2191 85.3797 16.0607C77.3586 13.7265 67.9159 20.5542 64.3188 31.2794C60.7217 42.0046 64.3168 52.6287 72.3324 54.9619C74.8817 55.6651 77.6119 55.5453 80.0832 54.6219C80.9362 54.3186 81.7599 53.9477 82.5455 53.5131L82.3729 53.2249C81.6044 53.6504 80.7985 54.0136 79.9639 54.3107C77.5658 55.2089 74.9155 55.3269 72.4404 54.6455C64.6109 52.3657 61.12 41.9266 64.6585 31.3755C68.197 20.8245 77.4491 14.0962 85.2737 16.3757C92.6047 18.5103 96.2353 28.024 93.5422 38.0341C93.5333 38.0668 93.5354 38.1012 93.5481 38.1327C93.5607 38.1642 93.5834 38.1914 93.6131 38.2104C93.6427 38.2295 93.678 38.2397 93.714 38.2396C93.7501 38.2394 93.7852 38.229 93.8148 38.2096C94.979 37.4512 96.1465 37.2347 97.0173 37.6164C97.8069 37.9621 98.2972 38.7716 98.3982 39.895C98.5576 41.676 97.0043 43.8497 95.0065 44.6416C93.6495 45.1801 92.3939 44.9314 91.4715 43.942C91.4525 43.9217 91.4284 43.9062 91.4014 43.8966C91.3745 43.8871 91.3454 43.8839 91.3167 43.8873C91.2881 43.8907 91.2608 43.9006 91.2371 43.9161C91.2135 43.9316 91.1943 43.9523 91.1811 43.9763C89.997 46.2036 88.4606 48.2521 86.6238 50.0525C86.605 50.0708 86.5909 50.0928 86.5826 50.1169C86.5743 50.1411 86.572 50.1666 86.576 50.1917L87.9765 59.0964Z" fill="#00257D"/>
<path d="M73.5911 38.2022L73.6641 38.5264L71.2665 39.0019L71.1935 38.6777L73.5911 38.2022Z" fill="#00257D"/>
<path d="M69.4507 36.7717L70.1484 38.4092L69.82 38.532L69.1222 36.8945L69.4507 36.7717Z" fill="#00257D"/>
<path d="M115.468 44.1532C117.732 44.4337 120.347 44.0032 123.294 42.8611L123.16 42.5556C118.046 44.5381 113.973 44.3331 111.054 41.9469C106.333 38.0877 106.179 29.8367 106.775 27.7428C106.783 27.7155 106.783 27.6868 106.775 27.6594C106.768 27.632 106.753 27.6069 106.732 27.5865L92.9182 14.0039C92.886 13.9737 92.843 13.9556 92.7975 13.9529L80.7699 13.515L80.7553 13.8467L92.7101 14.2816L106.408 27.7494C105.828 30.028 106.049 38.2957 110.819 42.1956C112.122 43.2703 113.742 43.9525 115.468 44.1532Z" fill="white"/>
<path d="M97.6479 36.2961C99.3427 28.5944 96.2143 22.7245 96.1806 22.6663L95.8657 22.8167C95.8967 22.8743 98.9697 28.6482 97.3024 36.2309L97.6479 36.2961Z" fill="white"/>
<path d="M96.9151 39.5304L97.0469 39.8374L93.4504 41.1913L93.3186 40.8843L96.9151 39.5304Z" fill="#00257D"/>
<path d="M93.3373 40.1324L93.6875 40.1758L93.3263 42.6827L92.9761 42.6393L93.3373 40.1324Z" fill="#00257D"/>
<path d="M95.6888 40.0816L96.0391 40.125L95.7854 41.8858L95.4351 41.8423L95.6888 40.0816Z" fill="#00257D"/>
<path d="M72.0156 24.6309L71.2819 27.3511L67.4713 26.8788L68.1794 25.3962L72.0156 24.6309Z" fill="#00257D"/>
<path d="M67.4413 27.0424L71.2536 27.5149C71.2968 27.5206 71.3408 27.511 71.377 27.4882C71.4132 27.4653 71.4392 27.4308 71.4498 27.3912L72.1835 24.6712C72.1909 24.644 72.1907 24.6154 72.183 24.5883C72.1753 24.5611 72.1604 24.5363 72.1395 24.5161C72.1187 24.4959 72.0927 24.481 72.064 24.4728C72.0352 24.4646 72.0047 24.4634 71.9753 24.4693L68.1391 25.235C68.1119 25.2404 68.0864 25.2518 68.0648 25.2682C68.0431 25.2846 68.0259 25.3055 68.0146 25.3293L67.3062 26.8115C67.2949 26.835 67.2896 26.8607 67.2908 26.8864C67.292 26.9121 67.2996 26.9371 67.313 26.9596C67.3264 26.9821 67.3452 27.0013 67.368 27.0157C67.3907 27.0301 67.4168 27.0394 67.4441 27.0428L67.4413 27.0424ZM71.1424 27.1676L67.7226 26.7437L68.2999 25.5404L71.771 24.8476L71.1424 27.1676Z" fill="#00257D"/>
<path d="M74.0397 18.1339C78.2641 13.1023 81.6079 11.3967 81.6413 11.3802L81.475 11.0884C81.4411 11.1055 78.0375 12.8375 73.7619 17.9301L74.0397 18.1339Z" fill="white"/>
<path d="M76.5913 35.0286C78.7033 33.8327 82.3816 33.1679 85.5152 35.7364L85.4821 36.845C82.5097 35.0146 79.8965 34.601 76.6376 36.012L76.5913 35.0286Z" fill="#00257D"/>
<path d="M76.6119 36.1757C76.6452 36.1799 76.6792 36.175 76.7098 36.1618C79.7712 34.8368 82.2839 35.0735 85.3822 36.9829C85.4086 36.9991 85.4391 37.0085 85.4706 37.01C85.5021 37.0115 85.5335 37.0051 85.5615 36.9914C85.5894 36.9778 85.613 36.9574 85.6297 36.9324C85.6464 36.9075 85.6556 36.8788 85.6566 36.8494L85.6897 35.7408C85.6904 35.7165 85.6854 35.6923 85.6751 35.6701C85.6647 35.6478 85.6492 35.628 85.6297 35.6119C84.3975 34.5858 82.8422 33.9607 81.1963 33.8301C79.5505 33.6994 77.9024 34.0703 76.4986 34.8871C76.4714 34.9025 76.4492 34.9245 76.4343 34.9507C76.4193 34.9769 76.4122 35.0064 76.4136 35.036L76.4589 36.0193C76.4601 36.0464 76.4685 36.0728 76.4832 36.0961C76.4979 36.1195 76.5186 36.1391 76.5434 36.1532C76.5642 36.1651 76.5876 36.1728 76.6119 36.1757ZM81.2943 35.0662C79.7573 34.899 78.2002 35.1398 76.8011 35.7612L76.7715 35.1197C78.0949 34.3724 79.6371 34.0366 81.1758 34.1607C82.7146 34.2847 84.1704 34.8623 85.3336 35.8101L85.3117 36.5465C84.1045 35.7853 82.7334 35.2801 81.2943 35.0662Z" fill="#00257D"/>
<path d="M69.0089 32.8879L68.8342 34.1004C68.6058 32.7142 66.5214 31.0872 65.1795 31.2808L65.617 30.275C66.9734 30.364 68.7335 31.1222 69.0089 32.8879Z" fill="#00257D"/>
<path d="M68.8147 34.2644C68.823 34.2659 68.8313 34.2669 68.8396 34.2675C68.8825 34.267 68.9238 34.2521 68.9558 34.2254C68.9878 34.1986 69.0083 34.162 69.0136 34.1222L69.1883 32.9097C69.1905 32.8944 69.1903 32.8789 69.1878 32.8636C68.9133 31.1048 67.2066 30.2085 65.6338 30.1109C65.5966 30.1085 65.5595 30.1171 65.5278 30.1356C65.4961 30.1541 65.4714 30.1815 65.4574 30.2138L65.0195 31.2199C65.0081 31.2469 65.0045 31.2763 65.0091 31.305C65.0137 31.3337 65.0262 31.3607 65.0456 31.3834C65.0649 31.4061 65.0903 31.4236 65.1192 31.4342C65.1481 31.4448 65.1795 31.448 65.2102 31.4437C66.4488 31.2656 68.4472 32.8192 68.6636 34.1252C68.6692 34.1606 68.687 34.1933 68.7143 34.2184C68.7415 34.2435 68.7768 34.2596 68.8147 34.2644ZM68.8345 32.8892L68.7647 33.3739C68.1521 32.2179 66.6261 31.1322 65.4531 31.1022L65.7368 30.4509C66.8196 30.5491 68.5524 31.1731 68.8345 32.8892Z" fill="#00257D"/>
<path d="M88.1516 59.0723L91.3287 80.6903L68.8454 87.8886L74.9808 53.2266L88.1516 59.0723Z" fill="white"/>
<path d="M13.3769 115.151C13.3949 115.153 13.4132 115.153 13.4312 115.15L25.9355 113.047L36.4906 113.755C36.515 113.757 36.5396 113.754 36.5627 113.746C36.5857 113.739 36.6069 113.727 36.6248 113.711L70.4221 84.0643C70.4433 84.0457 70.4593 84.0225 70.4687 83.9968C70.478 83.9711 70.4805 83.9437 70.4758 83.9169L67.8965 69.1941C67.8914 69.1654 67.8783 69.1385 67.8585 69.116C67.8387 69.0936 67.8128 69.0765 67.7836 69.0664C67.7545 69.056 67.7228 69.0531 67.692 69.0581C67.6612 69.063 67.6324 69.0757 67.6087 69.0947L49.1426 83.5869C49.1335 83.5943 49.1251 83.6024 49.1174 83.6111L35.0682 100.264L21.1766 98.504C21.1501 98.5007 21.1232 98.5031 21.0978 98.5109L7.57796 102.71C7.5546 102.718 7.53311 102.729 7.51488 102.745C7.49664 102.76 7.48207 102.779 7.47208 102.8C7.4621 102.821 7.45692 102.844 7.45689 102.867C7.45686 102.89 7.46197 102.913 7.47189 102.934L13.2378 115.054C13.2501 115.08 13.2693 115.103 13.2937 115.12C13.318 115.137 13.3467 115.148 13.3769 115.151ZM36.439 113.42L25.9389 112.716C25.9243 112.715 25.9095 112.716 25.8951 112.719L13.5057 114.802L7.87555 102.965L21.1707 98.8368L35.1215 100.605C35.152 100.608 35.183 100.605 35.2115 100.594C35.24 100.583 35.2651 100.566 35.2841 100.543L49.385 83.829L67.5978 69.5343L70.111 83.8837L36.439 113.42Z" fill="#00257D"/>
<path d="M93.5809 151.03L49.59 155.158L43.4543 146.632L60.4935 138.848L95.1797 142.042L93.5809 151.03Z" fill="#FFD6B5"/>
<path d="M49.5628 155.322C49.5764 155.324 49.5901 155.324 49.6038 155.322L93.5947 151.194L93.5597 150.865L49.6743 154.984L39.0718 140.249L38.7783 140.434L49.4396 155.251C49.4536 155.27 49.4718 155.286 49.493 155.299C49.5142 155.311 49.538 155.319 49.5628 155.322Z" fill="#00257D"/>
<path d="M95.1918 141.875L95.1562 142.205L62.5819 139.206L62.6174 138.876L95.1918 141.875Z" fill="#00257D"/>
<path d="M81.9794 65.8555L83.5257 65.9238L84.3141 64.6785C84.3419 64.6349 84.3827 64.5998 84.4315 64.5777C84.4803 64.5555 84.535 64.5472 84.5888 64.5539C84.6425 64.5606 84.693 64.5819 84.7338 64.6151C84.7747 64.6484 84.8041 64.6922 84.8185 64.741L85.2263 66.1346L86.738 66.4454C86.7911 66.4563 86.8395 66.4815 86.8772 66.5181C86.9149 66.5546 86.9402 66.6007 86.95 66.6506C86.9597 66.7006 86.9535 66.7521 86.932 66.7989C86.9106 66.8456 86.8749 66.8854 86.8294 66.9132L85.5323 67.71L85.6813 69.1515C85.6864 69.202 85.6754 69.2528 85.6498 69.2976C85.6241 69.3424 85.585 69.3791 85.5372 69.4033C85.4894 69.4275 85.435 69.438 85.381 69.4335C85.3269 69.429 85.2755 69.4097 85.2331 69.3781L84.0253 68.4733L82.604 69.0522C82.5542 69.0724 82.4991 69.0785 82.4457 69.0697C82.3922 69.0608 82.3428 69.0375 82.3035 69.0025C82.2642 68.9676 82.2368 68.9225 82.2248 68.8731C82.2127 68.8236 82.2165 68.7719 82.2357 68.7244L82.7876 67.3698L81.7616 66.2851C81.7257 66.2473 81.7025 66.2004 81.6949 66.1503C81.6873 66.1002 81.6956 66.0491 81.7188 66.0034C81.742 65.9576 81.7791 65.9192 81.8254 65.8929C81.8717 65.8666 81.9253 65.8536 81.9794 65.8555Z" fill="#8FD2FF"/>
<path d="M83.8181 79.6057L83.9672 81.0472C83.9724 81.0978 83.9615 81.1487 83.9359 81.1936C83.9103 81.2385 83.8711 81.2753 83.8232 81.2995C83.7754 81.3237 83.721 81.3342 83.6668 81.3296C83.6127 81.325 83.5612 81.3056 83.5189 81.2738L82.311 80.3694L80.8899 80.948C80.84 80.9683 80.7849 80.9745 80.7313 80.9657C80.6778 80.957 80.6283 80.9336 80.5889 80.8986C80.5496 80.8636 80.5222 80.8185 80.5102 80.769C80.4982 80.7195 80.5021 80.6677 80.5215 80.6202L81.0734 79.2655L80.0474 78.1809C80.0115 78.1428 79.9885 78.0958 79.9811 78.0455C79.9737 77.9952 79.9823 77.944 80.0059 77.8983C80.0295 77.8525 80.0669 77.8142 80.1136 77.7882C80.1603 77.7622 80.2141 77.7496 80.2683 77.752L81.8146 77.8203L82.6031 76.575C82.6308 76.5313 82.6716 76.4963 82.7204 76.4741C82.7692 76.452 82.8239 76.4437 82.8777 76.4504C82.9314 76.457 82.9819 76.4783 83.0227 76.5116C83.0636 76.5449 83.093 76.5886 83.1074 76.6375L83.5152 78.031L85.027 78.3418C85.08 78.3526 85.1285 78.3779 85.1662 78.4143C85.204 78.4508 85.2293 78.4969 85.2391 78.5469C85.2488 78.5968 85.2426 78.6484 85.2211 78.6951C85.1996 78.7418 85.1639 78.7815 85.1184 78.8094L83.8181 79.6057Z" fill="#8FD2FF"/>
<path d="M94.8902 74.3418L92.3051 83.9838L93.5002 88.7303L103.67 101.912L101.948 113.994L70.1621 138.462L71.8772 139.865L42.8666 159.77L38.9255 140.341L71.3002 104.546L73.5454 98.3872L70.4259 94.5094L62.0771 90.1359L94.8902 74.3418Z" fill="#CC1D37"/>
<path d="M42.8387 159.934C42.8841 159.94 42.9301 159.929 42.967 159.904L71.9775 139.998C71.9989 139.984 72.0164 139.965 72.0289 139.943C72.0414 139.921 72.0484 139.897 72.0496 139.872C72.0507 139.847 72.0459 139.823 72.0355 139.8C72.025 139.777 72.0093 139.757 71.9893 139.741L70.431 138.465L102.057 114.122C102.091 114.095 102.114 114.057 102.12 114.016L103.842 101.933C103.848 101.891 103.837 101.849 103.81 101.815L93.661 88.6602L92.4838 83.9846L95.0583 74.3816C95.0665 74.3508 95.065 74.3185 95.054 74.2886C95.0431 74.2586 95.0231 74.2322 94.9965 74.2126C94.97 74.1929 94.9379 74.1809 94.9041 74.1778C94.8704 74.1747 94.8364 74.1808 94.8062 74.1953L61.9917 89.9892C61.9632 90.0029 61.9393 90.0235 61.9224 90.0488C61.9054 90.0742 61.8961 90.1033 61.8955 90.1332C61.8949 90.163 61.9029 90.1925 61.9187 90.2184C61.9345 90.2443 61.9576 90.2657 61.9854 90.2803L70.3017 94.6367L73.343 98.4155L71.1383 104.462L38.7864 140.235C38.7694 140.253 38.757 140.275 38.7502 140.299C38.7435 140.323 38.7425 140.348 38.7473 140.372L42.6884 159.802C42.694 159.829 42.7068 159.855 42.7258 159.876C42.7448 159.897 42.7693 159.914 42.797 159.924C42.8104 159.929 42.8244 159.933 42.8387 159.934ZM71.5919 139.854L42.9855 159.483L39.1126 140.387L71.4308 104.652C71.4453 104.637 71.4563 104.618 71.4632 104.599L73.7087 98.4404C73.718 98.4149 73.7206 98.3877 73.7161 98.3611C73.7116 98.3345 73.7002 98.3093 73.6829 98.2878L70.5634 94.4104C70.5486 94.392 70.5299 94.3766 70.5085 94.3652L62.4477 90.1421L94.621 74.6559L92.1307 83.9442C92.1239 83.9699 92.1238 83.9967 92.1301 84.0225L93.3253 88.769C93.3304 88.7899 93.3396 88.8097 93.3525 88.8274L103.481 101.956L101.778 113.907L70.0459 138.333C70.0261 138.348 70.01 138.367 69.9989 138.389C69.9878 138.411 69.9818 138.434 69.9814 138.458C69.9808 138.482 69.9859 138.506 69.9963 138.528C70.0066 138.55 70.022 138.569 70.0413 138.585L71.5919 139.854Z" fill="#00257D"/>
<path d="M73.5434 98.3874L93.4977 88.7304L92.2885 83.9282L70.424 94.5096L73.5434 98.3874Z" fill="#FFAA00"/>
<path d="M73.5244 98.5513C73.5603 98.5558 73.5968 98.5499 73.6289 98.5342L93.5827 88.8782C93.6178 88.8613 93.6459 88.8338 93.6624 88.8003C93.679 88.7667 93.683 88.729 93.674 88.6931L92.4648 83.8908C92.4586 83.8663 92.4466 83.8435 92.4295 83.824C92.4125 83.8046 92.3909 83.789 92.3664 83.7786C92.3421 83.768 92.3155 83.7628 92.2887 83.7634C92.2619 83.764 92.2356 83.7704 92.2118 83.7821L70.3473 94.3635C70.3244 94.3746 70.3044 94.3901 70.2886 94.4091C70.2728 94.4282 70.2616 94.4502 70.2558 94.4736C70.2499 94.4972 70.2496 94.5217 70.2549 94.5455C70.2603 94.5692 70.2711 94.5915 70.2867 94.6108L73.4063 98.4869C73.4204 98.5045 73.4381 98.5192 73.4584 98.5302C73.4787 98.5413 73.5011 98.5484 73.5244 98.5513ZM93.298 88.6428L73.5994 98.1767L70.6948 94.5664L92.1706 84.1719L93.298 88.6428Z" fill="#00257D"/>
<path d="M21.3423 102.023L21.4531 102.336L9.18836 106.146L9.07754 105.833L21.3423 102.023Z" fill="#00257D"/>
<path d="M22.4204 105.08L22.5312 105.393L10.5848 109.103L10.474 108.79L22.4204 105.08Z" fill="#00257D"/>
<path d="M23.7642 108.509L23.875 108.823L12.1809 112.455L12.0701 112.142L23.7642 108.509Z" fill="#00257D"/>
<path d="M74.9809 53.2263L49.2597 83.7131L70.7144 98.0363L81.2522 66.3502L74.9809 53.2263Z" fill="white"/>
<path d="M54.1998 80.5742C54.2529 80.5851 54.3013 80.6104 54.339 80.6469C54.3767 80.6835 54.402 80.7296 54.4118 80.7795C54.4215 80.8295 54.4153 80.8811 54.3938 80.9278C54.3724 80.9745 54.3367 81.0143 54.2912 81.0422L52.9941 81.8391L53.1431 83.2808C53.1483 83.3314 53.1374 83.3823 53.1118 83.4272C53.0862 83.4721 53.047 83.5089 52.9991 83.5331C52.9513 83.5573 52.8969 83.5678 52.8427 83.5632C52.7886 83.5586 52.7371 83.5392 52.6948 83.5074L51.487 82.6026L50.0657 83.1816C50.0133 83.2034 49.9548 83.2091 49.8987 83.1978C49.8426 83.1865 49.7918 83.1589 49.7537 83.1189L52.5537 79.7998L52.6895 80.2636L54.1998 80.5742Z" fill="#8FD2FF"/>
<path d="M72.8467 58.6697L74.3929 58.7383L75.1813 57.493C75.209 57.4493 75.2499 57.4143 75.2987 57.3921C75.3475 57.37 75.4022 57.3617 75.456 57.3684C75.5097 57.375 75.5601 57.3963 75.601 57.4296C75.6418 57.4628 75.6713 57.5066 75.6857 57.5555L76.0935 58.949L77.6053 59.2595C77.6583 59.2704 77.7067 59.2957 77.7444 59.3322C77.7821 59.3687 77.8074 59.4148 77.8172 59.4648C77.8269 59.5147 77.8207 59.5663 77.7993 59.613C77.7778 59.6597 77.7421 59.6995 77.6966 59.7274L76.3995 60.5241L76.5486 61.9656C76.5538 62.0162 76.5429 62.0671 76.5173 62.112C76.4917 62.1569 76.4525 62.1937 76.4047 62.2179C76.3568 62.2421 76.3024 62.2526 76.2482 62.248C76.1941 62.2434 76.1426 62.224 76.1003 62.1922L74.8925 61.2878L73.4713 61.8664C73.4214 61.8867 73.3663 61.8929 73.3128 61.8841C73.2592 61.8754 73.2097 61.852 73.1704 61.817C73.131 61.782 73.1036 61.7369 73.0916 61.6874C73.0796 61.6378 73.0836 61.5861 73.1029 61.5385L73.6548 60.1839L72.6289 59.0992C72.5929 59.0614 72.5697 59.0146 72.5621 58.9645C72.5545 58.9144 72.5628 58.8633 72.586 58.8175C72.6092 58.7717 72.6463 58.7333 72.6926 58.707C72.739 58.6807 72.7925 58.6677 72.8467 58.6697Z" fill="#8FD2FF"/>
<path d="M66.8472 64.4369L65.5501 65.2338L65.6992 66.6755C65.7042 66.726 65.6932 66.7769 65.6676 66.8216C65.6419 66.8664 65.6028 66.9032 65.555 66.9274C65.5072 66.9515 65.4528 66.962 65.3988 66.9575C65.3447 66.9531 65.2933 66.9338 65.2509 66.9021L64.1358 66.0668L66.0308 63.8193L66.7584 63.9689C66.8113 63.9801 66.8594 64.0056 66.8968 64.0423C66.9343 64.079 66.9593 64.1251 66.9687 64.1751C66.9782 64.225 66.9717 64.2764 66.9501 64.323C66.9285 64.3695 66.8927 64.4092 66.8472 64.4369Z" fill="#8FD2FF"/>
<path d="M71.1277 70.5655L72.674 70.6337L73.4624 69.3884C73.4901 69.3448 73.531 69.3098 73.5798 69.2876C73.6286 69.2654 73.6833 69.2572 73.7371 69.2638C73.7908 69.2705 73.8412 69.2918 73.8821 69.3251C73.9229 69.3583 73.9524 69.4021 73.9668 69.451L74.3746 70.8445L75.8863 71.1553C75.9394 71.1661 75.9879 71.1913 76.0256 71.2278C76.0633 71.2643 76.0887 71.3104 76.0984 71.3604C76.1082 71.4103 76.1019 71.4619 76.0805 71.5086C76.059 71.5553 76.0232 71.595 75.9777 71.6229L74.6806 72.4199L74.8296 73.8614C74.8347 73.912 74.8237 73.9628 74.7981 74.0076C74.7724 74.0523 74.7332 74.0891 74.6855 74.1133C74.6377 74.1374 74.5833 74.1479 74.5293 74.1434C74.4752 74.1389 74.4238 74.1197 74.3814 74.088L73.1736 73.1833L71.7523 73.7622C71.7025 73.7824 71.6474 73.7884 71.594 73.7796C71.5405 73.7708 71.4911 73.7474 71.4518 73.7125C71.4125 73.6775 71.3851 73.6325 71.3731 73.583C71.361 73.5336 71.3648 73.4819 71.3839 73.4344L71.9359 72.0797L70.9099 70.9947C70.8741 70.9569 70.851 70.9101 70.8435 70.86C70.8359 70.81 70.8442 70.759 70.8674 70.7133C70.8906 70.6675 70.9276 70.6292 70.9739 70.6029C71.0202 70.5766 71.0737 70.5636 71.1277 70.5655Z" fill="#8FD2FF"/>
<path d="M60.2839 75.275L61.8303 75.3432L62.6187 74.0979C62.6464 74.0543 62.6872 74.0192 62.736 73.9971C62.7849 73.9749 62.8396 73.9667 62.8933 73.9733C62.9471 73.98 62.9975 74.0013 63.0383 74.0345C63.0792 74.0678 63.1086 74.1116 63.123 74.1604L63.5309 75.554L65.0426 75.8648C65.0957 75.8756 65.1441 75.9008 65.1818 75.9373C65.2196 75.9738 65.2449 76.0199 65.2547 76.0698C65.2644 76.1198 65.2582 76.1713 65.2367 76.218C65.2152 76.2647 65.1795 76.3045 65.134 76.3323L63.8369 77.1291L63.9859 78.5706C63.9911 78.6212 63.9803 78.6721 63.9547 78.7169C63.9291 78.7618 63.8899 78.7987 63.842 78.8229C63.7941 78.847 63.7397 78.8575 63.6856 78.8529C63.6315 78.8484 63.58 78.829 63.5377 78.7972L62.3298 77.8927L60.9086 78.4713C60.8588 78.4917 60.8036 78.4979 60.7501 78.4891C60.6966 78.4803 60.647 78.457 60.6077 78.422C60.5684 78.387 60.541 78.3419 60.529 78.2923C60.517 78.2428 60.5209 78.191 60.5402 78.1435L61.0922 76.7889L60.0662 75.7042C60.0304 75.6664 60.0073 75.6195 59.9997 75.5695C59.9922 75.5195 60.0005 75.4684 60.0237 75.4227C60.0469 75.377 60.0839 75.3386 60.1302 75.3124C60.1764 75.2861 60.2299 75.2731 60.2839 75.275Z" fill="#8FD2FF"/>
<path d="M72.9667 84.3152L73.1157 85.7567C73.1209 85.8073 73.1101 85.8582 73.0845 85.9031C73.0589 85.948 73.0197 85.9848 72.9718 86.009C72.924 86.0332 72.8695 86.0437 72.8154 86.0391C72.7613 86.0345 72.7098 86.0151 72.6675 85.9833L71.4597 85.0786L70.0384 85.6575C69.9886 85.6779 69.9335 85.684 69.8799 85.6753C69.8264 85.6665 69.7769 85.6431 69.7375 85.6081C69.6982 85.5731 69.6708 85.528 69.6588 85.4785C69.6468 85.429 69.6507 85.3772 69.6701 85.3297L70.222 83.975L69.196 82.8904C69.16 82.8524 69.1368 82.8052 69.1294 82.7549C69.1219 82.7046 69.1306 82.6533 69.1541 82.6075C69.1777 82.5617 69.2153 82.5233 69.262 82.4973C69.3088 82.4713 69.3627 82.4587 69.417 82.4612L70.9633 82.5294L71.7517 81.2845C71.7794 81.2408 71.8202 81.2058 71.869 81.1836C71.9178 81.1615 71.9725 81.1532 72.0263 81.1599C72.08 81.1665 72.1305 81.1878 72.1713 81.2211C72.2122 81.2544 72.2416 81.2981 72.256 81.347L72.6639 82.7402L74.1756 83.051C74.2286 83.0619 74.2771 83.0872 74.3148 83.1237C74.3524 83.1602 74.3778 83.2063 74.3875 83.2563C74.3973 83.3062 74.391 83.3578 74.3696 83.4045C74.3481 83.4512 74.3124 83.491 74.2669 83.5189L72.9667 84.3152Z" fill="#8FD2FF"/>
<path d="M59.378 88.6843L58.3521 87.5993C58.3162 87.5613 58.2931 87.5142 58.2858 87.464C58.2784 87.4137 58.287 87.3625 58.3106 87.3167C58.3341 87.271 58.3716 87.2327 58.4183 87.2067C58.465 87.1807 58.5188 87.1681 58.573 87.1705L60.1193 87.2387L60.9077 85.9934C60.9355 85.9498 60.9763 85.9147 61.0251 85.8926C61.0739 85.8704 61.1286 85.8622 61.1824 85.8688C61.2361 85.8755 61.2866 85.8968 61.3274 85.9301C61.3683 85.9633 61.3977 86.0071 61.4121 86.0559L61.8199 87.4495L63.3316 87.7603C63.3847 87.7711 63.4332 87.7963 63.4709 87.8328C63.5086 87.8693 63.534 87.9154 63.5437 87.9653C63.5535 88.0153 63.5473 88.0668 63.5258 88.1135C63.5043 88.1602 63.4686 88.2 63.423 88.2278L62.1259 89.0249L62.275 90.4664C62.28 90.5169 62.269 90.5677 62.2434 90.6125C62.2177 90.6573 62.1786 90.6941 62.1308 90.7182C62.083 90.7424 62.0286 90.7529 61.9746 90.7484C61.9205 90.7439 61.8691 90.7246 61.8267 90.693L60.6189 89.7882L59.2117 90.3612L58.816 90.0971C58.8178 90.0774 58.8223 90.058 58.8293 90.0393L59.378 88.6843Z" fill="#8FD2FF"/>
<path d="M68.509 95.8698L67.483 94.7851C67.4471 94.7471 67.424 94.7 67.4166 94.6497C67.4092 94.5995 67.4179 94.5483 67.4414 94.5025C67.465 94.4568 67.5025 94.4185 67.5492 94.3925C67.5958 94.3664 67.6497 94.3538 67.7039 94.3562L69.2502 94.4245L70.0386 93.1792C70.0663 93.1356 70.1071 93.1005 70.156 93.0784C70.2048 93.0562 70.2595 93.0479 70.3133 93.0546C70.367 93.0613 70.4174 93.0826 70.4583 93.1158C70.4991 93.1491 70.5286 93.1929 70.543 93.2417L70.9508 94.6353L71.778 94.8045L71.3246 96.1684L71.2569 96.2097L71.2694 96.3336L70.7959 97.7577L69.7484 96.9732L69.3547 97.1335L68.2856 96.4197L68.509 95.8698Z" fill="#8FD2FF"/>
<path d="M70.6899 98.2003C70.7167 98.2037 70.7439 98.2011 70.7695 98.1928C70.796 98.1845 70.8201 98.1705 70.8397 98.1518C70.8593 98.1331 70.8739 98.1104 70.8823 98.0854L80.0674 70.5759L79.7297 70.478L70.6174 97.7704L49.5124 83.682L75.031 53.4322L87.9887 59.1834L90.5158 76.3849L90.866 76.3389L88.3249 59.0486C88.3209 59.0215 88.3097 58.9958 88.2924 58.9737C88.2751 58.9516 88.2522 58.934 88.2257 58.9223L75.0548 53.0763C75.0186 53.0602 74.9776 53.056 74.9385 53.0646C74.8994 53.0731 74.8646 53.0938 74.8397 53.1233L49.1202 83.6111C49.1055 83.6287 49.0946 83.649 49.0884 83.6706C49.0821 83.6922 49.0806 83.7148 49.0839 83.737C49.0873 83.7591 49.0954 83.7803 49.1078 83.7994C49.1202 83.8185 49.1366 83.835 49.156 83.8479L70.6089 98.1706C70.6328 98.1867 70.6607 98.1969 70.6899 98.2003Z" fill="#00257D"/>
<path d="M88.2945 77.606L88.0391 86.0732L87.6858 86.0646L87.9413 77.5974L88.2945 77.606Z" fill="#00257D"/>
<path d="M83.1703 80.0048L85.9297 87.0293L85.5977 87.1438L82.8383 80.1193L83.1703 80.0048Z" fill="#00257D"/>
<path d="M68.1498 142.442L68.4115 142.218L62.184 135.854L94.8001 109.05L95.9262 101.235L95.899 101.188L89.7995 90.5166L89.4876 90.6727L95.5605 101.297L94.4673 108.884L61.6796 135.829L68.1498 142.442Z" fill="#00257D"/>
<path d="M61.2998 147.1L61.6048 146.932L54.9033 136.313L89.1004 107.405L90.9113 99.7799L87.1926 91.7938L86.8684 91.9263L90.541 99.814L88.7798 107.231L54.4519 136.25L61.2998 147.1Z" fill="#00257D"/>
<path d="M67.0976 44.1553C67.2925 42.2388 68.5289 40.7789 69.8593 40.8945C71.1897 41.0101 72.1102 42.6574 71.9153 44.5739C71.7205 46.4903 70.484 47.9502 69.1536 47.8346C67.8233 47.719 66.9028 46.0717 67.0976 44.1553Z" fill="#FF6E85"/>
<path d="M71.857 43.1945L67.8159 42.0742C68.2014 41.3791 68.8381 40.9023 70.0339 40.9098C71.0774 41.1775 71.6445 41.9827 71.857 43.1945Z" fill="white"/>
<path d="M67.8731 41.9147L71.9141 43.0366L71.8124 43.3544L67.7715 42.2324L67.8731 41.9147Z" fill="#00257D"/>
<path d="M71.9141 44.5732C70.2443 44.5833 68.6302 45.1417 67.354 46.1508C67.6406 47.4325 67.8649 47.6538 69.152 47.8346C70.6581 47.8058 71.5331 46.6354 71.9141 44.5732Z" fill="#CC1D37"/>
<path d="M69.0707 47.9916C69.0935 47.9944 69.1159 47.9972 69.1387 48C69.8434 48.0613 70.5407 47.7308 71.1008 47.0692C71.6763 46.3473 72.0205 45.4878 72.0933 44.5909C72.2975 42.5869 71.2939 40.8593 69.8778 40.7318C68.4522 40.6081 67.1269 42.1381 66.923 44.1419C66.7227 46.1117 67.6821 47.8194 69.0707 47.9916ZM69.9008 41.0648C71.1016 41.2137 71.9239 42.7633 71.7413 44.5583C71.6751 45.3921 71.3568 46.1916 70.8236 46.8638C70.6435 47.1173 70.3977 47.3242 70.1092 47.4652C69.8206 47.6061 69.4987 47.6765 69.1735 47.6698C69.1549 47.6675 69.1363 47.6652 69.1177 47.6629C67.917 47.514 67.0943 45.964 67.2769 44.1694C67.4618 42.3467 68.6144 40.9507 69.8457 41.058C69.8632 41.0605 69.8822 41.0625 69.9008 41.0648Z" fill="#00257D"/>
<path d="M67.4798 46.266C68.6863 45.2365 70.275 44.6884 71.9059 44.7388L71.9202 44.407C71.0621 44.3749 70.2054 44.5023 69.3997 44.7817C68.5939 45.0612 67.8552 45.4872 67.2262 46.0351L67.4798 46.266Z" fill="#00257D"/>
</svg>
