<svg width="80" height="69" viewBox="0 0 80 69" fill="none" xmlns="http://www.w3.org/2000/svg">
<path d="M48.9224 52.541L47.4723 62.6964L38.8702 64.1928L48.9224 52.541Z" fill="#00257D"/>
<path d="M42.9998 61.5703C41.1665 62.237 37.2998 63.5703 36.4998 63.5703L17.9998 59.5703L16.9998 61.5703C16.9998 61.5703 20.1862 64.0078 22.4998 65.0703C25.0834 66.2568 26.7187 66.4801 29.4998 67.0703C32.2011 67.6435 33.9998 68.0703 36.4998 68.0703C38.9998 68.0703 43.5998 67.5703 43.9998 67.5703C44.3998 67.5703 43.4998 63.5703 42.9998 61.5703Z" fill="#CC1D37"/>
<path d="M24.5979 23.1666L24.8071 23.2031L24.0784 27.4605L23.8692 27.424L24.5979 23.1666Z" fill="#00257D"/>
<path d="M24.7026 23.1816L20.3638 48.5307L30.4132 28.253L24.7026 23.1816Z" fill="#00257D"/>
<path d="M56.8224 23.1828L55.9262 7.81977L55.938 1.88086L42.2191 3.32845L34.9319 12.2118L34.9473 16.6129L38.9841 24.7817L38.6305 25.7581L35.946 35.0867L49.9202 40.5528L47.3142 26.1709L47.8292 23.8092L56.8224 23.1828Z" fill="#FFD6B5"/>
<path d="M49.0716 13.9502L51.2773 15.1387L51.1771 15.3254L48.9714 14.137L49.0716 13.9502Z" fill="#00257D"/>
<path d="M52.826 14.0601L52.9834 14.2031L52.1295 15.1428L51.9722 14.9998L52.826 14.0601Z" fill="#00257D"/>
<path d="M38.4921 15.3186L38.6953 15.3809L38.2344 16.8999L38.0312 16.8377L38.4921 15.3186Z" fill="#00257D"/>
<path d="M36.9664 14.0071L37.166 14.0801L36.4597 16.0272L36.2601 15.9542L36.9664 14.0071Z" fill="#00257D"/>
<path d="M36.987 14.3182L39.0059 15.5039L38.8988 15.6868L36.8799 14.5011L36.987 14.3182Z" fill="#00257D"/>
<path d="M44.939 24.3233L56.8321 23.2889C56.8595 23.2865 56.885 23.2735 56.9029 23.2527C56.9209 23.2318 56.9301 23.2048 56.9285 23.1772L56.0323 7.81445L55.8201 7.82591L56.7101 23.0864L44.9196 24.1119L44.939 24.3233Z" fill="#00257D"/>
<path d="M34.542 16.421L32.9646 15.7126L34.0977 13.5763L32.1803 14.8849L30.7049 10.9799L35.0337 7.61914L34.542 16.421Z" fill="#00257D"/>
<path d="M34.4994 16.5176L34.5857 16.324L33.1121 15.6623L34.1921 13.6262C34.2032 13.6053 34.2069 13.5812 34.2027 13.5579C34.1985 13.5345 34.1866 13.5132 34.1689 13.4974C34.1512 13.4815 34.1288 13.472 34.1051 13.4704C34.0814 13.4688 34.0579 13.4752 34.0383 13.4885L32.2323 14.7209L30.8326 11.0159L35.0997 7.70303L34.9692 7.53516L30.6411 10.896C30.6232 10.9098 30.6103 10.929 30.6042 10.9508C30.5981 10.9726 30.5991 10.9957 30.6071 11.0169L32.0823 14.9219C32.088 14.937 32.097 14.9506 32.1087 14.9617C32.1204 14.9728 32.1344 14.9811 32.1498 14.986C32.1651 14.9909 32.1814 14.9922 32.1973 14.9899C32.2132 14.9876 32.2284 14.9816 32.2417 14.9726L33.8037 13.9066L32.8722 15.6625C32.8654 15.6754 32.8614 15.6894 32.8602 15.7039C32.8591 15.7184 32.861 15.733 32.8658 15.7467C32.8705 15.7605 32.878 15.7731 32.8878 15.7839C32.8976 15.7946 32.9096 15.8032 32.9228 15.8092L34.4994 16.5176Z" fill="#00257D"/>
<path d="M47.691 23.9424L47.8984 23.9883L46.9638 28.2745L46.7564 28.2286L47.691 23.9424Z" fill="#00257D"/>
<path d="M51.6411 17.3402C52.405 17.3423 53.1679 17.2954 53.9254 17.1999L53.8943 16.9898C53.8451 16.997 48.9553 17.6804 46.3594 15.9023L46.2399 16.0772C47.6358 17.0324 49.6531 17.2871 51.0998 17.3319C51.2851 17.3376 51.4662 17.3402 51.6411 17.3402Z" fill="#00257D"/>
<path d="M49.355 7.77384L44.6355 7.72814L44.3682 9.48648L49.073 9.48648L49.355 7.77384Z" fill="#00257D"/>
<path d="M52.8986 11.9515C53.4501 12.5592 55.9122 12.6188 55.7521 10.4907C54.6399 9.92357 53.0008 10.8089 52.8986 11.9515Z" fill="white"/>
<path d="M54.0454 12.4287C54.3475 12.4313 54.6466 12.371 54.9236 12.2515C55.5898 11.9543 55.9217 11.3264 55.8583 10.4827C55.8569 10.4645 55.8508 10.447 55.8407 10.4317C55.8306 10.4165 55.8167 10.4042 55.8004 10.3959C55.4878 10.2521 55.1454 10.1855 54.8022 10.2016C54.459 10.2177 54.1249 10.3161 53.8282 10.4884C53.5504 10.6279 53.311 10.833 53.1307 11.0861C52.9503 11.3392 52.8345 11.6326 52.7931 11.9409C52.7917 11.9562 52.7937 11.9716 52.7988 11.9861C52.8039 12.0005 52.812 12.0137 52.8227 12.0248C53.0573 12.2678 53.5351 12.4287 54.0454 12.4287ZM55.6505 10.5587C55.6985 11.4744 55.2371 11.8792 54.8367 12.0577C54.1952 12.3434 53.3513 12.2141 53.0106 11.9112C53.057 11.6473 53.1643 11.3981 53.3241 11.1834C53.484 10.9687 53.6918 10.7945 53.9312 10.6746C54.1892 10.5247 54.4785 10.4362 54.7766 10.4161C55.0748 10.396 55.3738 10.4448 55.6505 10.5587Z" fill="#00257D"/>
<path d="M54.4965 12.001C54.012 12.001 53.7123 11.4327 53.7106 10.9482C53.7089 10.4637 54.2056 10.2578 54.6901 10.2578C55.1747 10.2578 55.4636 10.4637 55.4653 10.9482C55.467 11.4327 54.9811 12.001 54.4965 12.001Z" fill="#00257D"/>
<path d="M44.5815 10.9052C44.4297 11.9035 46.2844 14.0579 48.1912 12.0747C47.8689 10.6327 45.7513 10.001 44.5815 10.9052Z" fill="white"/>
<path d="M45.0151 12.2967C45.2472 12.557 45.537 12.76 45.8662 12.8929C46.667 13.204 47.524 12.9427 48.2799 12.1564C48.2962 12.1394 48.3083 12.119 48.3149 12.0972C48.3216 12.0753 48.3226 12.0528 48.3179 12.0317C48.2124 11.6399 48.0102 11.2897 47.7283 11.0106C47.4464 10.7314 47.0932 10.5315 46.6983 10.4277C46.3495 10.3115 45.9678 10.285 45.5863 10.3505C45.2047 10.4161 44.8348 10.5717 44.5084 10.804C44.4927 10.816 44.4795 10.831 44.4697 10.8479C44.4598 10.8649 44.4536 10.8833 44.4513 10.902C44.4015 11.3132 44.6189 11.8608 45.0151 12.2967ZM48.0461 12.0449C47.2094 12.8804 46.4649 12.8376 45.9837 12.6506C45.2129 12.3505 44.6811 11.5177 44.7056 10.9639C44.9934 10.7745 45.3146 10.65 45.6436 10.6002C45.9726 10.5504 46.3003 10.5768 46.6006 10.6771C46.944 10.7674 47.253 10.9377 47.5037 11.1749C47.7543 11.4121 47.9399 11.7097 48.0461 12.0449Z" fill="#00257D"/>
<path d="M46.0172 12.2388C45.6409 11.825 45.6707 11.1834 46.0835 10.8056C46.4964 10.4279 47.1361 10.4572 47.5123 10.871C47.8885 11.2848 47.8588 11.9264 47.4459 12.3042C47.0331 12.6819 46.3934 12.6527 46.0172 12.2388Z" fill="#00257D"/>
<path d="M52.3738 8.0484L52.3738 9.58703L55.672 9.58703L55.793 8.43266L52.3738 8.0484Z" fill="#00257D"/>
<path d="M70.8246 39.2089L58.269 52.6941L57.7533 35.4746L70.8246 39.2089Z" fill="#0084CC"/>
<path d="M49.3585 52.6933L43.0288 61.8345L34.4239 64.3451L30.4181 29.7832L39.01 32.2938L44.1057 37.9855L50.3703 30.8057L49.3585 52.6933Z" fill="white"/>
<path d="M23.3692 41.084C23.37 41.335 17.1004 59.4179 17.1004 59.4179L32.4946 41.5016L23.3692 41.084Z" fill="#00257D"/>
<path d="M23.2688 41.046L23.4697 41.1152L17.2009 59.4492L17 59.3799L23.2688 41.046Z" fill="#00257D"/>
<path d="M46.4775 53.8706L45.2971 51.5391H46.5829L48.0842 54.5365L48.0077 54.6467H46.8703L47.3509 55.5956L47.0843 55.9803L45.2114 53.8706H46.4775Z" fill="white"/>
<path d="M34.9105 52.2031H33.6417L34.9289 54.7456L33.0684 52.65L32.9266 51.4272H33.2488L32.8309 50.6019L32.6563 49.0957H33.3542L34.9105 52.2031Z" fill="white"/>
<path d="M38.6614 44.207H39.9472L41.5035 47.3146H40.2346L41.5217 49.8571L38.5757 46.5385H39.8418L38.6614 44.207Z" fill="white"/>
<path d="M45.2542 39.3203H46.54L48.0962 42.4277H46.8274L48.1144 44.9702L45.1685 41.6518H46.4345L45.2542 39.3203Z" fill="white"/>
<path d="M31.9398 39.2106H33.2058L32.0255 36.8789H33.3113L34.8675 39.9865H33.5987L34.8859 42.529L31.9398 39.2106Z" fill="white"/>
<path d="M40.1924 35.0985L41.4794 37.641L38.5334 34.3226H39.7995L38.7313 32.2129L39.0106 32.2946L41.3855 34.9472L41.4612 35.0985H40.1924Z" fill="white"/>
<path d="M34.4236 64.345L34.2754 63.0645L34.8536 64.2196L34.4236 64.345Z" fill="white"/>
<path d="M38.7044 56.4258H39.9902L41.5464 59.5334H40.2776L41.5646 62.0759L38.6187 58.7575H39.8847L38.7044 56.4258Z" fill="white"/>
<path d="M20.3636 48.5334L0.229628 60.5176L10.8034 42.8496L20.3636 48.5334Z" fill="#0084CC"/>
<path d="M26.3332 25.1797C14.1067 31.0159 4.1784 41.6095 4.1784 41.6095L0.22975 60.5152L18.411 44.7284L20.3636 48.531L29.6158 42.8472L33.8682 28.6744L26.3332 25.1797Z" fill="white"/>
<path d="M1.51938 54.3409L1.56447 54.125L1.87863 54.7457L1.51938 54.3409Z" fill="white"/>
<path d="M5.61091 44.207H6.89669L8.45317 47.3146H7.18415L8.47138 49.8571L5.52543 46.5385H6.79126L5.61091 44.207Z" fill="white"/>
<path d="M12.2042 39.3203H13.49L15.0464 42.4277H13.7776L15.0646 44.9702L12.1187 41.6518H13.3847L12.2042 39.3203Z" fill="white"/>
<path d="M20.9019 48.2001L20.3636 48.5308L19.3982 46.6504H20.1257L20.9019 48.2001Z" fill="white"/>
<path d="M8.37467 37.5808L8.39068 37.5664L8.42897 37.642L8.37467 37.5808Z" fill="white"/>
<path d="M18.7975 34.4355H20.0832L21.6397 37.543H20.3709L21.6579 40.0854L18.712 36.7671H19.978L18.7975 34.4355Z" fill="white"/>
<path d="M33.868 28.6758L33.7474 29.0782L33.0554 28.2988L33.868 28.6758Z" fill="white"/>
<path d="M26.6134 44.0954L25.4331 41.7637H26.7188L27.8153 43.953L26.1365 44.9842L25.3474 44.0954H26.6134Z" fill="white"/>
<path d="M25.3905 29.5488H26.6763L28.2325 32.6562H26.9635L28.2507 35.1987L25.3048 31.8803H26.5708L25.3905 29.5488Z" fill="white"/>
<path d="M38.6305 25.757L39.057 45.6531L36.8945 67.058L17.1007 59.4151L29.6158 42.8469L24.7025 23.1816L38.6305 25.757Z" fill="#00257D"/>
<path d="M29.1973 52.8696C29.367 52.8699 29.5342 52.8297 29.6849 52.7524C29.8357 52.6751 29.9657 52.563 30.0642 52.4252L32.6514 48.8036C32.7348 48.6898 32.7947 48.5606 32.8277 48.4234C32.8607 48.2862 32.8661 48.1436 32.8436 48.0041C32.8211 47.8646 32.7711 47.7308 32.6965 47.6106C32.6219 47.4904 32.5243 47.386 32.4092 47.3037C32.2941 47.2213 32.1639 47.1626 32.0262 47.1308C31.8884 47.0991 31.7457 47.095 31.6066 47.1187C31.4674 47.1425 31.3344 47.1937 31.2153 47.2693C31.0962 47.3449 30.9935 47.4435 30.9129 47.5593L28.3257 51.1809C28.1619 51.4109 28.0961 51.6968 28.143 51.976C28.1899 52.2551 28.3455 52.5047 28.5757 52.6699C28.7571 52.7999 28.9745 52.8697 29.1973 52.8696ZM31.781 47.3265C31.9381 47.3269 32.0922 47.3705 32.2264 47.4526C32.3606 47.5347 32.4697 47.6521 32.5418 47.7919C32.6139 47.9318 32.6461 48.0886 32.6349 48.2452C32.6238 48.4018 32.5697 48.5522 32.4786 48.6798L29.8914 52.3015C29.7597 52.4854 29.5601 52.6094 29.3365 52.6461C29.1129 52.6828 28.8836 52.6293 28.6989 52.4973C28.5144 52.365 28.3898 52.1651 28.3523 51.9415C28.3148 51.7179 28.3674 51.4889 28.4988 51.3046L31.0859 47.683C31.1508 47.5916 31.2333 47.514 31.3285 47.4548C31.4238 47.3955 31.5299 47.3558 31.6407 47.3379C31.6871 47.3303 31.734 47.3265 31.781 47.3265Z" fill="#00257D"/>
<path d="M36.8945 67.1663C36.9208 67.1664 36.9462 67.1568 36.9658 67.1392C36.9853 67.1216 36.9976 67.0974 37.0003 67.0712L39.1623 45.6664L38.7362 25.7573C38.7357 25.7328 38.7267 25.7093 38.7109 25.6906C38.695 25.6719 38.6731 25.6593 38.649 25.6548L24.721 23.0799C24.7036 23.0767 24.6856 23.0779 24.6688 23.0834C24.652 23.0889 24.6368 23.0986 24.6247 23.1114C24.6126 23.1243 24.6039 23.1401 24.5995 23.1572C24.595 23.1743 24.5949 23.1923 24.5992 23.2095L29.4996 42.8253L17.0149 59.353C17.005 59.3661 16.9983 59.3813 16.9953 59.3975C16.9923 59.4137 16.9931 59.4303 16.9976 59.4461C17.0022 59.462 17.0103 59.4765 17.0215 59.4887C17.0326 59.5009 17.0464 59.5103 17.0618 59.5162L36.8562 67.1591C36.8684 67.1639 36.8814 67.1663 36.8945 67.1663ZM38.526 25.8477L38.9507 45.6572L36.8025 66.9112L17.2699 59.3691L29.7003 42.9134C29.7098 42.9008 29.7164 42.8862 29.7195 42.8707C29.7227 42.8552 29.7223 42.8392 29.7185 42.8238L24.845 23.318L38.526 25.8477Z" fill="#00257D"/>
<path d="M0.23004 60.6208C0.255537 60.6208 0.280152 60.6116 0.299373 60.5949L18.3784 44.8966L20.2693 48.5789C20.276 48.592 20.2853 48.6035 20.2967 48.6128C20.308 48.6221 20.3211 48.629 20.3353 48.633C20.3494 48.637 20.3641 48.638 20.3787 48.636C20.3932 48.634 20.4071 48.629 20.4196 48.6213L29.6717 42.9375C29.6938 42.9239 29.7101 42.9026 29.7176 42.8777L33.9699 28.7042C33.9774 28.6797 33.9756 28.6533 33.9651 28.6299C33.9546 28.6065 33.9359 28.5877 33.9126 28.5769L26.3776 25.0824C26.3635 25.0757 26.348 25.0723 26.3324 25.0723C26.3167 25.0723 26.3013 25.0757 26.2872 25.0824C14.1827 30.8602 4.2002 41.4292 4.1008 41.5354C4.08752 41.5495 4.07841 41.5671 4.07444 41.5861L0.125793 60.4934C0.121227 60.5152 0.123625 60.5379 0.13265 60.5583C0.14167 60.5786 0.156859 60.5957 0.176075 60.607C0.192552 60.6162 0.211165 60.621 0.23004 60.6208ZM18.4106 44.6218C18.385 44.6217 18.3603 44.6308 18.341 44.6474L0.398071 60.2277L4.27701 41.6608C4.78778 41.1224 14.5486 30.9366 26.3351 25.2967L33.7389 28.7312L29.5247 42.7779L20.4045 48.3807L18.5042 44.6801C18.4968 44.6658 18.4863 44.6534 18.4734 44.6437C18.4606 44.634 18.4457 44.6274 18.4299 44.6243C18.4235 44.6231 18.4171 44.6225 18.4106 44.6224L18.4106 44.6218Z" fill="#00257D"/>
<path d="M16.7287 37.6415L20.0542 45.9766L19.8571 46.0546L16.5315 37.7196L16.7287 37.6415Z" fill="#00257D"/>
<path d="M47.6174 60.62C47.6395 60.62 47.661 60.6131 47.6789 60.6003C47.6968 60.5876 47.7102 60.5695 47.7174 60.5487L54.0963 42.0214C54.099 42.0136 54.1009 42.0055 54.1017 41.9972L55.6342 26.2064C55.6357 26.1916 55.634 26.1767 55.6293 26.1625C55.6246 26.1484 55.6169 26.1354 55.6069 26.1244C55.5968 26.1134 55.5846 26.1046 55.571 26.0987C55.5573 26.0927 55.5426 26.0896 55.5277 26.0897L47.3123 26.0625C47.288 26.062 47.2643 26.07 47.2453 26.0852C47.2263 26.1004 47.2134 26.1219 47.2086 26.1457L46.7544 28.2289C46.7524 28.2382 46.7516 28.2477 46.7522 28.2571L47.4947 42.3701L47.5095 60.5141C47.5095 60.5392 47.5184 60.5635 47.5346 60.5827C47.5509 60.6019 47.5734 60.6147 47.5981 60.619C47.6045 60.6199 47.611 60.6203 47.6174 60.62ZM53.8917 41.9654L47.7227 59.8825L47.7083 42.3665L46.9664 28.2629L47.3995 26.2769L55.4117 26.3036L53.8917 41.9654Z" fill="#00257D"/>
<path d="M63.4999 30.5699L71.0001 32.4321C76.2062 32.4318 76.7062 32.4928 76.7062 32.4928C76.7062 32.4928 76.3573 36.5081 75.7059 38.9924C75.1263 41.2031 73.7062 44.493 73.7062 44.493C73.7062 44.493 71.5621 44.6142 67 43.5703C65.1827 43.1544 63.2366 42.3073 60.5 41.5703L63.4999 30.5699Z" fill="#FFD6B5"/>
<path d="M64 30.5703L71 32.5703H76.5M61 41.5703L67 43.5703L73.5 44.5703" stroke="#00257D" stroke-width="0.2"/>
<path d="M38.729 28.4062L47.6101 44.5557L47.6087 50.0101L38.8394 34.4869L38.729 28.4062Z" fill="#8FD2FF"/>
<path d="M47.6094 50.1177C47.6185 50.1177 47.6274 50.1166 47.6362 50.1143C47.6588 50.1084 47.6788 50.0952 47.6931 50.0767C47.7074 50.0582 47.7152 50.0354 47.7152 50.012L47.7174 44.5578C47.7174 44.5399 47.7128 44.5222 47.7043 44.5065L38.8232 28.3561C38.8118 28.3353 38.7937 28.3189 38.7719 28.3095C38.75 28.3001 38.7257 28.2982 38.7028 28.3043C38.6799 28.3103 38.6597 28.3239 38.6454 28.3428C38.6311 28.3617 38.6236 28.3848 38.624 28.4085L38.7344 34.4892C38.7349 34.5068 38.7396 34.5241 38.7482 34.5395L47.5175 50.0627C47.5266 50.0792 47.54 50.093 47.5561 50.1026C47.5722 50.1123 47.5906 50.1175 47.6094 50.1177ZM47.5052 44.5841L47.5038 49.6086L38.9462 34.4599L38.844 28.836L47.5052 44.5841Z" fill="#00257D"/>
<path d="M47.1482 30.8066L43.197 36.5322L44.8478 39.5337L47.3478 35.8909L47.1482 30.8066Z" fill="#8FD2FF"/>
<path d="M44.8487 39.6422C44.8658 39.6422 44.8827 39.638 44.8979 39.63C44.9131 39.6221 44.926 39.6105 44.9358 39.5964L47.4351 35.9535C47.4479 35.9348 47.4544 35.9125 47.4536 35.8899L47.2539 30.8058C47.2531 30.7835 47.2453 30.7619 47.2316 30.7443C47.2178 30.7266 47.1989 30.7137 47.1775 30.7074C47.156 30.7011 47.1331 30.7018 47.1121 30.7092C47.0911 30.7166 47.073 30.7305 47.0603 30.7489L43.1092 36.4745C43.098 36.4907 43.0916 36.5097 43.0906 36.5294C43.0896 36.5491 43.0942 36.5687 43.1037 36.586L44.7544 39.5875C44.7632 39.6034 44.7758 39.6168 44.7912 39.6265C44.8066 39.6361 44.8242 39.6417 44.8423 39.6427L44.8487 39.6422ZM47.241 35.8621L44.858 39.3341L43.3222 36.5412L47.0551 31.1317L47.241 35.8621Z" fill="#00257D"/>
<path d="M55.4083 27.4395L64.322 29.4562L58.2686 52.694L50.0592 46.2129L55.4083 27.4395Z" fill="white"/>
<path d="M53.1756 46.6504L54.732 49.758H54.5501L52.7393 48.3285L51.8898 46.6504H53.1756Z" fill="white"/>
<path d="M59.6631 44.0954L58.4827 41.7637H59.7685L60.6546 43.533L60.306 44.8713H60.056L60.221 45.1973L60.0293 45.9337L58.3973 44.0954H59.6631Z" fill="white"/>
<path d="M58.4405 29.5488H59.7263L61.2828 32.6562H60.0137L61.301 35.1987L58.355 31.8803H59.6209L58.4405 29.5488Z" fill="white"/>
<path d="M62.6364 29.0762L55.1709 50.2497L58.2687 52.6953L64.3221 29.4575L62.6364 29.0762Z" fill="#8FD2FF"/>
<path d="M58.269 52.8008C58.2924 52.8008 58.3152 52.793 58.3337 52.7787C58.3522 52.7644 58.3654 52.7443 58.3712 52.7217L64.425 29.4841C64.4286 29.4703 64.4294 29.4559 64.4273 29.4418C64.4253 29.4277 64.4204 29.4141 64.4129 29.4019C64.4055 29.3897 64.3957 29.3791 64.3841 29.3708C64.3725 29.3624 64.3593 29.3565 64.3454 29.3534L62.6596 28.9713C62.6343 28.9656 62.6078 28.9694 62.5851 28.9819C62.5624 28.9944 62.5451 29.0148 62.5365 29.0393L55.0711 50.2128C55.0637 50.2336 55.0631 50.2563 55.0693 50.2777C55.0755 50.299 55.0882 50.3178 55.1057 50.3316L58.2029 52.7779C58.2217 52.7928 58.245 52.8009 58.269 52.8008ZM64.1915 29.5361L58.2066 52.5107L55.2965 50.213L62.705 29.1997L64.1915 29.5361Z" fill="#00257D"/>
<path d="M58.2688 52.8002C58.2922 52.8002 58.315 52.7924 58.3335 52.7781C58.352 52.7638 58.3652 52.7437 58.3711 52.7211L64.4248 29.4835C64.4285 29.4697 64.4293 29.4553 64.4272 29.4412C64.4251 29.4271 64.4202 29.4135 64.4128 29.4013C64.4053 29.3891 64.3955 29.3785 64.3839 29.3702C64.3723 29.3618 64.3591 29.3559 64.3452 29.3528L55.4315 27.3366C55.4051 27.3306 55.3774 27.335 55.3541 27.3487C55.3308 27.3625 55.3137 27.3847 55.3063 27.4107L49.9572 46.1843C49.9515 46.2046 49.9519 46.2261 49.9585 46.2461C49.965 46.2661 49.9773 46.2838 49.9939 46.2968L58.2027 52.7773C58.2215 52.7922 58.2448 52.8003 58.2688 52.8002ZM64.1913 29.5355L58.2064 52.5101L50.1813 46.1739L55.4837 27.5652L64.1913 29.5355Z" fill="#00257D"/>
<path d="M11.6277 53.6086L11.7368 53.791L0.284081 60.6078L0.175014 60.4254L11.6277 53.6086Z" fill="#00257D"/>
<path d="M19.1978 44.1152L22.7313 52.9669C28.764 53.4741 34.4762 58.2884 34.4762 58.2884L26.9225 65.4549C26.9225 65.4549 16.3617 59.6694 10.1904 51.8663L19.1978 44.1152Z" fill="#FFD6B5"/>
<path d="M26.855 56.1875L32.6508 60.2035L32.5626 60.3308L26.7668 56.3148L26.855 56.1875Z" fill="#00257D"/>
<path d="M25.1211 58.1055L30.793 62.029L30.705 62.1562L25.0331 58.2327L25.1211 58.1055Z" fill="#00257D"/>
<path d="M23.4956 59.8398L28.9405 63.7886L28.8496 63.914L23.4047 59.9652L23.4956 59.8398Z" fill="#00257D"/>
<path d="M27.3184 55.5781L27.433 55.682L22.9694 60.6079L22.8548 60.504L27.3184 55.5781Z" fill="#00257D"/>
<path d="M19.1974 44.1154L18.4016 42.1211L1.44413 54.6999L0.229373 60.5155L19.1974 44.1154Z" fill="#8FD2FF"/>
<path d="M0.230005 60.6212C0.255476 60.6213 0.280089 60.6122 0.299337 60.5956L19.2673 44.195C19.2839 44.1806 19.2956 44.1614 19.3007 44.14C19.3059 44.1187 19.3043 44.0962 19.2962 44.0757L18.5004 42.0808C18.4943 42.0657 18.4849 42.0521 18.4728 42.0412C18.4607 42.0302 18.4462 42.0222 18.4306 42.0178C18.4149 42.0133 18.3984 42.0125 18.3824 42.0154C18.3664 42.0183 18.3513 42.0249 18.3382 42.0346L1.38083 54.6153C1.36003 54.6309 1.34562 54.6535 1.34029 54.6789L0.125758 60.4939C0.122669 60.5093 0.123039 60.5252 0.126848 60.5405C0.130657 60.5557 0.137813 60.57 0.147789 60.5822C0.157765 60.5944 0.170312 60.6042 0.18453 60.6109C0.19875 60.6177 0.214282 60.6212 0.230005 60.6212ZM19.071 44.0838L0.39783 60.2293L1.53991 54.7609L18.3533 42.2888L19.071 44.0838Z" fill="#00257D"/>
<path d="M47.3142 26.1719L55.5289 26.199L53.9964 41.9899L47.6175 60.517L47.6026 42.3674L46.86 28.2551L47.3142 26.1719Z" fill="#00257D"/>
<path d="M47.6657 54.955L47.8403 55.0762L43.1167 61.898L42.942 61.7768L47.6657 54.955Z" fill="#00257D"/>
<path d="M66.7599 43.4196L66.9155 43.5645L58.3463 52.7679L58.1907 52.623L66.7599 43.4196Z" fill="#00257D"/>
<path d="M38.7007 24.6872L38.9102 24.7227L38.7353 25.7751L38.5258 25.7396L38.7007 24.6872Z" fill="#00257D"/>
<path d="M39.053 13.7563C34.816 10.1485 34.01 17.2642 38.4893 18.7024L38.8047 24.7052L36.0371 23.5295L35.5748 18.1288L34.8617 22.8758L33.8453 22.31L35.0586 6.60218C35.0586 6.60218 38.3287 2.44554 39.3412 1.88038C41.737 1.01217 46.4166 0.671762 49.8154 1.27024C49.8154 1.27024 54.8311 0.112973 57.8854 1.01726C58.7269 4.49351 56.7549 9.57461 56.7549 9.57461C56.7549 9.57461 55.5345 7.12468 54.6504 4.78447C53.6007 3.87912 49.8486 2.68748 49.8486 2.68748C47.826 7.51793 43.6594 10.6143 38.8849 12.6088L39.053 13.7563Z" fill="#00257D"/>
<path d="M38.0342 7.02095L38.0947 7.22461L35.0019 8.1334L34.9414 7.92974L38.0342 7.02095Z" fill="white"/>
<path d="M38.058 8.46631L38.1187 8.66992L34.9099 9.61545L34.8492 9.41184L38.058 8.46631Z" fill="white"/>
<path d="M38.8054 24.8117C38.8271 24.8117 38.8483 24.805 38.8661 24.7926C38.8808 24.7823 38.8927 24.7685 38.9006 24.7523C38.9085 24.7362 38.9121 24.7183 38.9112 24.7003L38.5956 18.6975C38.5944 18.676 38.5868 18.6553 38.5736 18.6382C38.5604 18.6211 38.5423 18.6084 38.5218 18.6018C37.7329 18.3566 37.034 17.8826 36.5139 17.2402C35.9938 16.5978 35.676 15.8159 35.601 14.9939C35.5208 14.0436 35.8234 13.2728 36.3904 12.9827C37.0308 12.655 37.9521 12.9585 38.9843 13.8371C39.0007 13.8511 39.021 13.8598 39.0425 13.862C39.064 13.8642 39.0856 13.8599 39.1045 13.8495C39.1234 13.8391 39.1386 13.8232 39.1482 13.8038C39.1577 13.7845 39.1612 13.7628 39.158 13.7414L39.0019 12.6756C44.4257 10.3938 48.0943 7.07837 49.9088 2.819C50.4858 3.00725 53.6055 4.04757 54.561 4.84809C55.4361 7.15859 56.648 9.59748 56.6602 9.62316C56.6694 9.64154 56.6837 9.65687 56.7015 9.66729C56.7192 9.67772 56.7395 9.68278 56.76 9.68189C56.7806 9.68099 56.8003 9.67416 56.817 9.66223C56.8337 9.6503 56.8465 9.63378 56.854 9.61467C56.8739 9.56353 58.8284 4.46269 57.9887 0.994076C57.9843 0.975918 57.9752 0.959214 57.9623 0.945652C57.9495 0.932089 57.9333 0.922146 57.9154 0.916826C54.9574 0.041184 50.1297 1.09255 49.8071 1.16449L49.3746 1.12714C45.6568 0.80562 43.4126 0.611645 39.3111 1.77973C39.2922 1.78522 39.2751 1.79579 39.2618 1.8103L34.9792 6.53231C34.9633 6.5499 34.9538 6.57231 34.9522 6.59598L33.7389 22.3038C33.7373 22.3241 33.7416 22.3445 33.7513 22.3624C33.7609 22.3804 33.7755 22.3952 33.7934 22.4051L34.8098 22.9707C34.8248 22.979 34.8416 22.9836 34.8587 22.9841C34.8759 22.9845 34.8928 22.9809 34.9082 22.9733C34.9236 22.9658 34.9369 22.9546 34.947 22.9408C34.9571 22.927 34.9637 22.911 34.9662 22.894L35.5452 19.0381L35.9305 23.5405C35.9321 23.5597 35.9389 23.5782 35.9502 23.5939C35.9614 23.6096 35.9768 23.622 35.9945 23.6296L38.7623 24.8051C38.7761 24.8103 38.7908 24.8126 38.8054 24.8117ZM38.3874 18.7807L38.6903 24.5418L36.1376 23.4575L35.6811 18.1205C35.679 18.0945 35.6674 18.0701 35.6485 18.0521C35.6296 18.034 35.6047 18.0236 35.5787 18.0227C35.5526 18.0217 35.5271 18.0304 35.5071 18.0471C35.4872 18.0638 35.474 18.0872 35.4703 18.113L34.78 22.709L33.9567 22.251L35.1621 6.64734L39.4001 1.97456C43.4456 0.826419 45.6733 1.01954 49.3581 1.33788L49.807 1.37672C49.818 1.37766 49.8291 1.37687 49.8399 1.37438C49.8895 1.36292 54.7989 0.249589 57.7967 1.10252C58.4864 4.08556 57.1053 8.28232 56.741 9.30546C56.422 8.64926 55.4691 6.65116 54.7509 4.74834C54.7446 4.73191 54.7342 4.71731 54.7208 4.7059C53.6669 3.79651 50.0356 2.63691 49.8815 2.58789C49.8562 2.57988 49.8289 2.58158 49.805 2.59265C49.781 2.60372 49.762 2.62337 49.7518 2.64774C47.9644 6.91686 44.2949 10.2359 38.8449 12.5126C38.8233 12.5217 38.8054 12.5378 38.7939 12.5582C38.7825 12.5786 38.7781 12.6023 38.7816 12.6255L38.9101 13.5022C37.892 12.7009 36.9698 12.4494 36.2949 12.7947C35.6498 13.1247 35.3036 13.9744 35.3911 15.012C35.4685 15.8629 35.7936 16.6733 36.3261 17.3431C36.8586 18.0129 37.5753 18.5127 38.3874 18.7807Z" fill="#00257D"/>
<path d="M34.955 12.7155L38.8633 11.9175C38.8774 11.9146 38.8909 11.9088 38.9027 11.9005C38.9146 11.8922 38.9247 11.8816 38.9323 11.8693C38.9398 11.857 38.9448 11.8433 38.9468 11.829C38.9488 11.8147 38.9479 11.8001 38.9441 11.7861C37.7295 7.31138 38.5057 4.03695 38.5136 4.00448L38.3075 3.95312C38.2993 3.98581 37.5221 7.25705 38.71 11.732L34.9118 12.5067L34.955 12.7155Z" fill="white"/>
<path d="M10.2939 52.1582C11.7606 53.5201 14.3139 56.3553 14.7939 56.8011C15.2739 57.2468 17.9273 59.3392 19.1939 60.3296L27 65.5703L30 62.5703" stroke="#00257D" stroke-width="0.2"/>
<path d="M22.7939 52.6582L19.2939 44.1582" stroke="#00257D" stroke-width="0.2"/>
</svg>
