<svg width="72" height="72" viewBox="0 0 72 72" fill="none" xmlns="http://www.w3.org/2000/svg">
<circle cx="36" cy="36" r="36" fill="#F1F3FA"/>
<path d="M31.5329 31.535L31.5787 21.0993L41.1438 21.1413L41.098 31.5771L41.0976 31.6491L41.1356 31.7102L49.6485 45.4022C50.0392 46.094 50.0368 46.9393 49.6367 47.6254C49.6367 47.6254 49.6367 47.6255 49.6366 47.6255L47.198 51.8065C47.198 51.8066 47.198 51.8066 47.198 51.8066C46.781 52.5206 46.0309 52.9206 45.2599 52.9172L27.1836 52.8378C26.2979 52.8339 25.5338 52.3181 25.174 51.5704L25.1702 51.5624L25.1658 51.5547L22.8535 47.5077L22.8533 47.5072C22.4156 46.7451 22.4797 45.835 22.94 45.1511L22.9401 45.1511L22.9438 45.1454L31.494 31.6678L31.5326 31.607L31.5329 31.535Z" fill="white" stroke="#00257D" stroke-width="0.5"/>
<path fill-rule="evenodd" clip-rule="evenodd" d="M31.1155 37.581L25.8291 45.911C25.6444 46.1979 25.595 46.5671 25.8049 46.9348L27.2578 49.4743C27.4482 49.8082 27.7435 49.9928 28.1497 49.9946L44.9144 50.0682C45.3206 50.07 45.6177 49.888 45.8109 49.5558L47.2862 47.0291C47.4993 46.6634 47.4529 46.2937 47.2709 46.0052L42.0579 37.6291C41.8562 37.3037 41.5382 37.122 41.1462 37.1203L32.0317 37.0803C31.6396 37.0785 31.32 37.2575 31.1155 37.581V37.581Z" fill="#2C4A93"/>
<path fill-rule="evenodd" clip-rule="evenodd" d="M41.9266 50.0551L44.9139 50.0682C45.3201 50.07 45.6172 49.888 45.8104 49.5558L47.2857 47.0291C47.4988 46.6633 47.4524 46.2936 47.2704 46.0051L42.0574 37.629C41.8557 37.3037 41.5377 37.122 41.1457 37.1203L38.1611 37.1072C38.5503 37.1089 38.8713 37.2906 39.0729 37.6159L44.2859 45.992C44.4652 46.2805 44.5143 46.6502 44.3011 47.016L42.826 49.5427C42.6326 49.8748 42.3356 50.0569 41.9266 50.0551V50.0551Z" fill="#163788"/>
<path fill-rule="evenodd" clip-rule="evenodd" d="M31.3273 21.3475L41.3925 21.3917C42.2866 21.3956 43.0204 20.6653 43.0244 19.7739C43.0283 18.8797 42.3009 18.1432 41.4067 18.1392L31.3416 18.095C30.4474 18.0911 29.7136 18.8212 29.7096 19.7154C29.7057 20.6068 30.433 21.3435 31.3273 21.3475Z" fill="#FFAA00"/>
<path fill-rule="evenodd" clip-rule="evenodd" d="M38.4047 21.3786L41.3922 21.3918C42.2863 21.3957 43.0202 20.6654 43.0241 19.774C43.028 18.8798 42.3006 18.1433 41.4065 18.1393L38.4189 18.1262C39.3132 18.1301 40.0435 18.8667 40.0395 19.7609C40.0356 20.6523 39.2989 21.3826 38.4047 21.3786V21.3786Z" fill="#DD9E20"/>
<path d="M33.0114 41.3103C32.5995 41.3084 32.2653 40.9742 32.2671 40.5624C32.2689 40.1505 32.606 39.8163 33.018 39.8181L40.1353 39.8494C40.5471 39.8512 40.8813 40.1883 40.8795 40.6002C40.8777 41.0121 40.5406 41.3433 40.1287 41.3415L33.0114 41.3103ZM29.3349 47.266C28.923 47.2642 28.5917 46.9299 28.5935 46.5151C28.5954 46.1033 28.9297 45.772 29.3415 45.7738L43.7592 45.8372C44.1711 45.839 44.5024 46.1732 44.5006 46.585C44.4988 46.9998 44.1644 47.3311 43.7527 47.3293L29.3349 47.266ZM31.1224 44.2893C30.7105 44.2875 30.3763 43.9504 30.3781 43.5385C30.3799 43.1266 30.7171 42.7924 31.1289 42.7942L41.998 42.842C42.4099 42.8438 42.7413 43.1809 42.7395 43.5928C42.7377 44.0047 42.4032 44.3389 41.9914 44.3371L31.1224 44.2893Z" fill="#FFAA00"/>
</svg>
