<svg width="42" height="42" viewBox="0 0 42 42" fill="none" xmlns="http://www.w3.org/2000/svg">
<path d="M21.0919 0C21.0806 0 21.0581 0 21.0244 0C9.63626 0 0.375 9.26125 0.375 20.6493C0.375 25.2968 1.96168 29.8093 4.86497 33.444L1.8604 40.4322C1.61284 41.0061 1.88291 41.67 2.44556 41.9063C2.64812 41.9963 2.87318 42.0189 3.08699 41.9851L14.1037 40.0496C16.3093 40.8485 18.6275 41.2537 20.9681 41.2424C32.3562 41.2424 41.6174 31.9811 41.6174 20.5931C41.64 9.23875 32.4462 0.011253 21.0919 0ZM14.025 16.497H20.1016C20.7205 16.497 21.2269 17.0033 21.2269 17.6223C21.2269 18.2412 20.7205 18.7476 20.1016 18.7476H14.025C13.406 18.7476 12.8997 18.2412 12.8997 17.6223C12.8997 17.0033 13.406 16.497 14.025 16.497ZM27.9787 24.3741H14.025C13.406 24.3741 12.8997 23.8677 12.8997 23.2488C12.8997 22.6299 13.406 22.1235 14.025 22.1235H27.9787C28.5977 22.1235 29.104 22.6299 29.104 23.2488C29.104 23.8677 28.5977 24.3741 27.9787 24.3741Z" fill="#183989"/>
</svg>
