<svg width="120" height="109" viewBox="0 0 120 109" fill="none" xmlns="http://www.w3.org/2000/svg">
<path d="M98.7919 19.7349L101.476 22.5646L108.803 12.6075L119.871 25.4214L105.628 44.5243L94.5506 68.914L86.2524 74.6164L74.8604 74.6607L75.8482 60.8047L81.3412 59.4464L94.2566 39.239L93.8046 31.5489L98.7919 19.7349Z" fill="#FFD6B5"/>
<path d="M74.8608 74.7871C74.8432 74.7872 74.8257 74.7836 74.8096 74.7766C74.7934 74.7696 74.7789 74.7593 74.7668 74.7465C74.7548 74.7336 74.7456 74.7184 74.7397 74.7018C74.7338 74.6852 74.7314 74.6675 74.7326 74.65L75.7204 60.7936C75.7224 60.7667 75.7329 60.741 75.7503 60.7203C75.7678 60.6996 75.7913 60.685 75.8176 60.6785L81.2611 59.3325L94.1262 39.2031L93.677 31.5538C93.6759 31.5342 93.6792 31.5147 93.6868 31.4966L98.6741 19.6834C98.6824 19.6636 98.6954 19.6462 98.712 19.6328C98.7287 19.6193 98.7485 19.6103 98.7695 19.6065C98.7905 19.6025 98.8121 19.6039 98.8323 19.6106C98.8526 19.6172 98.8708 19.6288 98.8854 19.6444L101.464 22.362L108.7 12.5304C108.712 12.515 108.726 12.5025 108.743 12.4936C108.76 12.4847 108.779 12.4798 108.798 12.4791C108.818 12.478 108.837 12.4814 108.855 12.4891C108.873 12.4968 108.888 12.5086 108.901 12.5235L119.969 25.3371C119.988 25.3591 119.999 25.3871 120 25.4163C120.001 25.4455 119.992 25.4741 119.974 25.4976L105.739 44.5881L94.6679 68.9652C94.6581 68.986 94.6429 69.0037 94.6238 69.0165L86.3253 74.7205C86.3041 74.7349 86.279 74.7427 86.2533 74.7428L74.8613 74.7871H74.8608ZM75.9699 60.9049L74.9985 74.5302L86.2128 74.4866L94.4493 68.8268L105.511 44.4694C105.515 44.4611 105.52 44.4532 105.525 44.4458L119.707 25.4263L108.811 12.8124L101.579 22.6387C101.568 22.6536 101.553 22.666 101.537 22.6748C101.52 22.6837 101.502 22.6888 101.484 22.6899C101.465 22.6909 101.446 22.6878 101.429 22.6809C101.412 22.6741 101.396 22.6636 101.383 22.6502L98.8354 19.9633L93.9357 31.5694L94.3859 39.2295C94.3877 39.2566 94.3807 39.2836 94.3659 39.3064L81.4505 59.5138C81.4331 59.5416 81.4055 59.5614 81.3736 59.5692L75.9699 60.9049Z" fill="#00257D"/>
<path d="M101.319 34.0593L99.9311 30.16C99.9234 30.1386 99.9216 30.1155 99.9258 30.0931L101.351 22.5409L101.602 22.5883L100.184 30.1067L101.56 33.9734L101.319 34.0593Z" fill="#00257D"/>
<path d="M104.36 25.0179L111.532 15.8052L111.734 15.9626L104.562 25.1754L104.36 25.0179Z" fill="#00257D"/>
<path d="M107.368 28.0602L114.376 19.0438L114.578 19.201L107.57 28.2174L107.368 28.0602Z" fill="#00257D"/>
<path d="M110.088 30.9072L117.117 22.2684L117.316 22.4302L110.287 31.069L110.088 30.9072Z" fill="#00257D"/>
<path d="M103.39 24.1953L103.573 24.0154L111.306 31.8474L111.124 32.0273L103.39 24.1953Z" fill="#00257D"/>
<path d="M43.1267 44.4236L48.7199 50.8065L52.211 43.4086L51.3606 37.3986L46.7596 33.9543L41.9848 36.4479L43.1267 44.1549" fill="#FFD6B5"/>
<path d="M71.6674 48.1444L78.3853 54.1281L81.7303 53.3428L83.3929 55.601L82.411 98.6074L59.5142 84.0422L71.6674 48.1444Z" fill="#CC1D37"/>
<path d="M82.4105 98.7342C82.3861 98.7341 82.3622 98.7272 82.3416 98.7142L59.445 84.149L59.5827 83.9326L82.2875 98.3758L83.2632 55.6403L81.6768 53.4855L78.4141 54.2515C78.394 54.2562 78.3732 54.2561 78.3532 54.251C78.3333 54.246 78.3148 54.2362 78.2995 54.2225L71.5823 48.2386L71.7531 48.0471L78.4202 53.9877L81.7003 53.2186C81.7248 53.2128 81.7504 53.2144 81.7739 53.223C81.7975 53.2317 81.818 53.2471 81.8329 53.2673L83.4955 55.5257C83.5125 55.5484 83.5216 55.5761 83.5212 55.6044L82.5392 98.6109C82.5385 98.6444 82.5247 98.6763 82.5007 98.6997C82.4767 98.7231 82.4445 98.7363 82.411 98.7362L82.4105 98.7342Z" fill="#00257D"/>
<path d="M15.5443 70.1335L22.5155 102.437L28.1495 70.5263L20.6501 63.8668L15.5443 70.1335Z" fill="#CC1D37"/>
<path d="M22.5164 102.566C22.4871 102.566 22.4587 102.556 22.4359 102.537C22.413 102.519 22.3972 102.493 22.391 102.465L15.4198 70.1608C15.4157 70.142 15.4158 70.1225 15.4203 70.1037C15.4247 70.085 15.4333 70.0675 15.4454 70.0526L20.5512 63.7859C20.5621 63.7725 20.5756 63.7614 20.5909 63.7533C20.6062 63.7453 20.623 63.7404 20.6402 63.739C20.675 63.7366 20.7093 63.7481 20.7356 63.771L28.2352 70.4305C28.2516 70.445 28.264 70.4635 28.2712 70.4842C28.2785 70.5049 28.2803 70.5271 28.2765 70.5487L22.6425 102.46C22.6374 102.489 22.6222 102.516 22.5997 102.535C22.5772 102.554 22.5486 102.565 22.5189 102.566H22.5164ZM15.6831 70.1674L22.5028 101.772L28.0106 70.5751L20.6656 64.0515L15.6831 70.1674Z" fill="#00257D"/>
<path d="M9.34125 30.1458L2.3849 28.3531L0.128754 45.9575L6.60158 54.7749L9.81786 79.7558L17.5241 86.4963L26.2841 80.0058L27.3991 60.645L20.5561 61.4744L16.4279 48.1449L17.8018 36.312L9.34125 30.1458Z" fill="#FFD6B5"/>
<path d="M17.5243 86.6244C17.4933 86.6245 17.4634 86.6133 17.44 86.5929L9.73347 79.8522C9.70993 79.8316 9.6947 79.8032 9.69066 79.7722L6.47873 54.8238L0.0264162 46.0333C0.00632883 46.0071 -0.00285578 45.9741 0.000778203 45.9413L2.25692 28.3367C2.25926 28.3187 2.26541 28.3014 2.27496 28.2859C2.2845 28.2704 2.29723 28.2572 2.3123 28.247C2.32739 28.2369 2.34442 28.2301 2.3623 28.2269C2.38018 28.2238 2.39851 28.2244 2.41613 28.2288L9.37249 30.0216C9.38814 30.0258 9.40291 30.0327 9.41607 30.0422L17.8766 36.2084C17.8949 36.2218 17.9092 36.2398 17.9182 36.2607C17.9273 36.2815 17.9306 36.3043 17.9279 36.3268L16.557 48.1328L20.6458 61.3341L27.3824 60.5175C27.4009 60.5152 27.4198 60.5171 27.4375 60.5229C27.4552 60.5288 27.4714 60.5385 27.485 60.5514C27.4987 60.5642 27.5095 60.5799 27.5165 60.5974C27.5235 60.6148 27.5265 60.6336 27.5255 60.6524L26.4102 80.0132C26.4092 80.0319 26.4041 80.0502 26.3952 80.0667C26.3863 80.0832 26.374 80.0976 26.3589 80.1088L17.6007 86.5993C17.5786 86.6157 17.5518 86.6245 17.5243 86.6244ZM9.93883 79.6914L17.531 86.3316L26.16 79.9383L27.2624 60.7903L20.5709 61.6012C20.5411 61.6049 20.511 61.5979 20.4858 61.5816C20.4606 61.5653 20.4419 61.5407 20.433 61.512L16.3065 48.1828C16.3014 48.1657 16.2997 48.1478 16.3017 48.13L17.6654 36.3717L9.28583 30.2637L2.49382 28.5134L0.263311 45.9231L6.70563 54.699C6.71848 54.7165 6.72669 54.7369 6.72947 54.7585L9.93883 79.6914Z" fill="#00257D"/>
<path d="M15.6714 29.642L17.8021 36.3117L11.6713 39.9872L12.1015 30.1455L15.6714 29.642Z" fill="#FFD6B5"/>
<path d="M8.74722 46.3349C8.74124 46.3353 8.73525 46.3353 8.72927 46.3349L2.46488 45.4583L2.50026 45.2045L8.65184 46.0641L12.1958 32.3835L9.28536 30.2624L2.35284 28.476L2.41694 28.2275L9.3733 30.0204C9.38895 30.0245 9.40372 30.0315 9.41688 30.0409L12.4165 32.2276C12.4374 32.2427 12.4531 32.2638 12.4618 32.288C12.4705 32.3122 12.4717 32.3385 12.4652 32.3635L8.8713 46.239C8.86415 46.2665 8.84809 46.2908 8.82563 46.3081C8.80318 46.3255 8.7756 46.3349 8.74722 46.3349Z" fill="#00257D"/>
<path d="M14.167 32.6001L9.71959 32.6955L7.77469 30.7477L12.3495 28.3531L15.6712 29.6422L16.428 32.012L14.167 32.6001Z" fill="#FFD6B5"/>
<path d="M1.84232 32.4554L1.90783 32.2076L11.7038 34.7967L11.6383 35.0446L1.84232 32.4554Z" fill="#00257D"/>
<path d="M17.8614 36.9116L17.6066 36.8821L17.6714 36.3263L15.5676 29.7414L12.3582 28.4951L7.98926 30.782L9.77238 32.5677L14.1652 32.4734L14.1706 32.7298L9.7229 32.8251C9.70564 32.8254 9.68851 32.8222 9.67249 32.8158C9.65647 32.8093 9.64189 32.7998 9.62958 32.7877L7.68468 30.8392C7.67028 30.825 7.65946 30.8076 7.65309 30.7884C7.64672 30.7692 7.64499 30.7487 7.64804 30.7287C7.65109 30.7087 7.65884 30.6897 7.67064 30.6733C7.68245 30.6568 7.69798 30.6434 7.71596 30.6341L12.2911 28.2395C12.3072 28.2311 12.325 28.2262 12.3432 28.2252C12.3615 28.2242 12.3797 28.227 12.3967 28.2336L15.7168 29.5242C15.7349 29.531 15.7511 29.5418 15.7645 29.5557C15.7778 29.5697 15.7878 29.5864 15.7937 29.6048L17.9242 36.2752C17.9296 36.2927 17.9314 36.311 17.9294 36.3291L17.8614 36.9116Z" fill="#00257D"/>
<path d="M1.3356 36.4373L1.39536 36.1879L10.7597 38.4325L10.7 38.6818L1.3356 36.4373Z" fill="#00257D"/>
<path d="M0.758453 40.9956L0.803268 40.7432L9.7414 42.33L9.69659 42.5824L0.758453 40.9956Z" fill="#00257D"/>
<path d="M28.1496 52.9128L20.5562 61.4718L21.847 66.9755L22.5157 102.435L36.5753 93.7942L33.9758 57.8574L28.1496 52.9128Z" fill="#CC1D37"/>
<path d="M22.5162 102.566C22.4827 102.566 22.4504 102.553 22.4265 102.529C22.4025 102.506 22.3887 102.474 22.388 102.44L21.7196 66.9946L20.4321 61.5043C20.4274 61.4843 20.4275 61.4635 20.4325 61.4436C20.4375 61.4237 20.4472 61.4053 20.4608 61.3899L28.0543 52.8309L28.2461 53.0012L20.6967 61.5104L21.973 66.9493C21.9749 66.9577 21.976 66.9663 21.9763 66.9749L22.6395 102.211L36.5097 93.6882L36.6438 93.9066L22.5842 102.547C22.5638 102.559 22.5403 102.566 22.5162 102.566Z" fill="#00257D"/>
<path d="M78.2393 58.9706C77.849 58.5804 77.6234 58.0552 77.6091 57.5035C77.5948 56.9517 77.7928 56.4156 78.1624 56.0056C77.7213 56.1075 77.3155 56.3256 76.9871 56.6373C76.6587 56.949 76.4198 57.3429 76.295 57.7781C76.1702 58.2133 76.1642 58.674 76.2776 59.1123C76.3909 59.5506 76.6195 59.9506 76.9397 60.2707C77.2598 60.5909 77.6598 60.8195 78.0981 60.9329C78.5364 61.0463 78.997 61.0403 79.4323 60.9156C79.8675 60.7909 80.2614 60.5519 80.5731 60.2236C80.8848 59.8952 81.1029 59.4894 81.2049 59.0483C80.7948 59.418 80.2585 59.616 79.7066 59.6015C79.1547 59.5871 78.6295 59.3612 78.2393 58.9706Z" fill="white"/>
<path d="M76.9387 77.7068C76.6609 77.9845 76.4514 78.3229 76.3267 78.6954C76.202 79.0679 76.1655 79.4643 76.2201 79.8533C76.2747 80.2423 76.4189 80.6133 76.6414 80.9371C76.8638 81.2609 77.1584 81.5285 77.5019 81.7191C77.8455 81.9096 78.2285 82.0177 78.621 82.0349C79.0134 82.0521 79.4045 81.9779 79.7634 81.8182C80.1223 81.6585 80.4392 81.4177 80.6891 81.1146C80.939 80.8116 81.1151 80.4546 81.2036 80.0719C80.7943 80.4454 80.2567 80.6468 79.7027 80.6341C79.1487 80.6215 78.6209 80.3958 78.2291 80.0039C77.8373 79.6121 77.6115 79.0843 77.5989 78.5303C77.5862 77.9763 77.7876 77.4387 78.1611 77.0294C77.698 77.1356 77.2743 77.3704 76.9387 77.7068Z" fill="white"/>
<path d="M78.2393 69.4838C77.849 69.0936 77.6234 68.5684 77.6091 68.0167C77.5948 67.4649 77.7928 66.9287 78.1624 66.5188C77.7213 66.6207 77.3155 66.8388 76.9871 67.1505C76.6587 67.4622 76.4198 67.8561 76.295 68.2913C76.1702 68.7265 76.1642 69.1871 76.2776 69.6255C76.3909 70.0638 76.6195 70.4638 76.9397 70.7839C77.2598 71.1041 77.6598 71.3327 78.0981 71.4461C78.5364 71.5595 78.997 71.5535 79.4323 71.4288C79.8675 71.3041 80.2614 71.0651 80.5731 70.7368C80.8848 70.4084 81.1029 70.0026 81.2049 69.5615C80.7948 69.9311 80.2585 70.1292 79.7066 70.1147C79.1547 70.1003 78.6295 69.8744 78.2393 69.4838Z" fill="white"/>
<path d="M80.5255 91.8075C80.862 91.472 81.0969 91.0482 81.2031 90.5851C80.7938 90.9586 80.2562 91.16 79.7022 91.1473C79.1482 91.1347 78.6204 90.9089 78.2286 90.5171C77.8367 90.1253 77.611 89.5975 77.5984 89.0435C77.5857 88.4895 77.7871 87.9519 78.1606 87.5426C77.7779 87.631 77.4209 87.8071 77.1178 88.057C76.8147 88.3069 76.5738 88.6238 76.414 88.9827C76.2543 89.3416 76.1801 89.7327 76.1973 90.1251C76.2145 90.5176 76.3226 90.9007 76.5131 91.2443C76.7036 91.5878 76.9713 91.8824 77.295 92.1049C77.6188 92.3273 77.9898 92.4716 78.3789 92.5262C78.7679 92.5808 79.1643 92.5443 79.5368 92.4196C79.9093 92.2948 80.2477 92.0853 80.5255 91.8075Z" fill="white"/>
<path d="M66.4275 82.9646C66.1497 83.2423 65.9402 83.5808 65.8155 83.9533C65.6908 84.3258 65.6543 84.7221 65.7089 85.1111C65.7635 85.5001 65.9077 85.8711 66.1301 86.1949C66.3526 86.5187 66.6472 86.7864 66.9907 86.9769C67.3342 87.1674 67.7173 87.2755 68.1097 87.2927C68.5022 87.3099 68.8933 87.2357 69.2522 87.076C69.611 86.9164 69.9279 86.6755 70.1779 86.3724C70.4278 86.0694 70.6039 85.7124 70.6924 85.3297C70.2831 85.7032 69.7455 85.9046 69.1915 85.892C68.6375 85.8793 68.1097 85.6536 67.7179 85.2617C67.326 84.8699 67.1003 84.3421 67.0877 83.7881C67.075 83.2341 67.2764 82.6966 67.6499 82.2872C67.1868 82.3934 66.763 82.6282 66.4275 82.9646Z" fill="white"/>
<path d="M27.9684 55.0167C28.3049 54.6812 28.5398 54.2575 28.646 53.7943C28.4282 53.9904 28.1725 54.1399 27.8947 54.2335C27.6169 54.327 27.3229 54.3627 27.0308 54.3384L25.7974 55.7287C26.1897 55.7886 26.5907 55.7554 26.9678 55.6317C27.3449 55.508 27.6877 55.2974 27.9684 55.0167Z" fill="white"/>
<path d="M25.6812 74.7391C25.2908 74.3489 25.0652 73.8237 25.0509 73.2719C25.0366 72.7202 25.2347 72.184 25.6043 71.774C25.1631 71.876 24.7573 72.0941 24.429 72.4057C24.1006 72.7174 23.8616 73.1113 23.7368 73.5465C23.6121 73.9817 23.6061 74.4424 23.7194 74.8807C23.8328 75.319 24.0614 75.719 24.3815 76.0392C24.7016 76.3593 25.1016 76.5879 25.5399 76.7013C25.9782 76.8147 26.4389 76.8088 26.8741 76.684C27.3093 76.5593 27.7032 76.3204 28.0149 75.992C28.3266 75.6637 28.5448 75.2579 28.6467 74.8168C28.2366 75.1864 27.7003 75.3844 27.1484 75.37C26.5966 75.3555 26.0713 75.1297 25.6812 74.7391Z" fill="white"/>
<path d="M25.6812 64.2285C25.2908 63.8382 25.0652 63.313 25.0509 62.7613C25.0366 62.2095 25.2347 61.6734 25.6043 61.2634C25.1631 61.3653 24.7573 61.5834 24.429 61.8951C24.1006 62.2068 23.8616 62.6007 23.7368 63.0359C23.6121 63.4711 23.6061 63.9318 23.7194 64.3701C23.8328 64.8084 24.0614 65.2084 24.3815 65.5285C24.7016 65.8487 25.1016 66.0773 25.5399 66.1907C25.9782 66.3041 26.4389 66.2981 26.8741 66.1734C27.3093 66.0487 27.7032 65.8097 28.0149 65.4814C28.3266 65.153 28.5448 64.7473 28.6467 64.3061C28.2366 64.6758 27.7003 64.8738 27.1484 64.8593C26.5966 64.8449 26.0713 64.619 25.6812 64.2285Z" fill="white"/>
<path d="M27.9686 97.0602C28.3051 96.7247 28.54 96.3009 28.6462 95.8378C28.2369 96.2113 27.6993 96.4127 27.1453 96.4C26.5913 96.3873 26.0635 96.1616 25.6717 95.7698C25.2799 95.378 25.0541 94.8502 25.0415 94.2962C25.0288 93.7422 25.2302 93.2046 25.6037 92.7953C25.221 92.8837 24.864 93.0598 24.5609 93.3097C24.2578 93.5596 24.0169 93.8765 23.8572 94.2354C23.6974 94.5943 23.6232 94.9854 23.6404 95.3778C23.6576 95.7703 23.7657 96.1534 23.9562 96.4969C24.1467 96.8405 24.4144 97.1351 24.7382 97.3576C25.0619 97.58 25.433 97.7242 25.822 97.7788C26.211 97.8334 26.6074 97.797 26.9799 97.6722C27.3524 97.5475 27.6909 97.338 27.9686 97.0602Z" fill="white"/>
<path d="M24.3812 82.9646C24.1034 83.2423 23.8939 83.5808 23.7692 83.9533C23.6445 84.3258 23.608 84.7221 23.6626 85.1111C23.7172 85.5001 23.8614 85.8711 24.0838 86.1949C24.3063 86.5187 24.6009 86.7864 24.9444 86.9769C25.2879 87.1674 25.671 87.2755 26.0634 87.2927C26.4559 87.3099 26.847 87.2357 27.2059 87.076C27.5647 86.9164 27.8816 86.6755 28.1316 86.3724C28.3815 86.0694 28.5576 85.7124 28.6461 85.3297C28.2367 85.7032 27.6992 85.9046 27.1452 85.892C26.5912 85.8793 26.0634 85.6536 25.6716 85.2617C25.2797 84.8699 25.054 84.3421 25.0414 83.7881C25.0287 83.2341 25.2301 82.6966 25.6036 82.2872C25.1405 82.3934 24.7167 82.6282 24.3812 82.9646Z" fill="white"/>
<path d="M38.3563 85.09L31.2884 96.6425C30.8694 99.7047 32.0393 103.405 35.2944 104.883C39.532 106.808 46.8949 108.067 54.7062 108.413C59.3471 108.618 64.7062 107.824 69.412 106.648L70.1638 80.568L38.3563 85.09Z" fill="#00257D"/>
<path d="M35.935 105.263L44.5339 83.9899L44.7719 84.0861L36.1729 105.36L35.935 105.263Z" fill="white"/>
<path d="M44.817 107.48L50.5951 83.2991L50.8445 83.3587L45.0663 107.54L44.817 107.48Z" fill="white"/>
<path d="M53.3525 108.528L56.3184 82.5003L56.5734 82.5293L53.6075 108.557L53.3525 108.528Z" fill="white"/>
<path d="M62.033 111.454L63.2606 81.5259L63.5171 81.5364L62.2894 111.465L62.033 111.454Z" fill="white"/>
<path d="M43.3493 36.9955C36.1963 34.8819 30.9559 28.0434 30.9559 19.9336C30.9559 10.1379 38.5999 2.19702 48.0308 2.19702C57.2149 2.19702 64.7053 9.72998 65.0888 19.1727C65.0991 19.425 65.1042 19.6786 65.1042 19.9336C71.2781 28.8498 64.3561 35.1934 59.8966 32.6865C58.3471 34.2612 56.5003 35.5126 54.4634 36.3681C52.4265 37.2236 50.2401 37.6662 48.0308 37.6703" fill="#FFD6B5"/>
<path d="M41.7189 21.1864L44.001 20.8614L44.0371 21.1152L41.7551 21.4402L41.7189 21.1864Z" fill="#00257D"/>
<path d="M39.7946 19.4465L40.0354 19.3584L40.5447 20.7503L40.3039 20.8384L39.7946 19.4465Z" fill="#00257D"/>
<path d="M37.9684 28.0713L39.2403 30.1175L41.1703 29.6047L37.9684 28.0713Z" fill="#CC1D37"/>
<path d="M39.2404 30.2457C39.2186 30.2457 39.1972 30.2402 39.1781 30.2296C39.159 30.219 39.143 30.2037 39.1315 30.1852L37.8596 28.139C37.844 28.114 37.8376 28.0844 37.8413 28.0552C37.845 28.026 37.8586 27.9989 37.8799 27.9786C37.9012 27.9583 37.9289 27.9459 37.9582 27.9435C37.9876 27.9412 38.0168 27.949 38.0411 27.9657C39.0141 28.6275 40.0813 29.1385 41.2069 29.4817C41.2337 29.4896 41.2572 29.5061 41.2738 29.5286C41.2904 29.5512 41.2992 29.5785 41.2988 29.6065C41.2984 29.6345 41.2888 29.6615 41.2716 29.6836C41.2543 29.7056 41.2303 29.7214 41.2033 29.7286L39.2733 30.2413C39.2626 30.2442 39.2515 30.2457 39.2404 30.2457ZM38.38 28.4903L39.2994 29.9693L40.7146 29.5932C39.8999 29.3094 39.1176 28.9396 38.3811 28.4903H38.38Z" fill="#00257D"/>
<path d="M38.6166 23.6402L39.9308 22.8595L40.661 23.7386L42.2936 23.6986L42.8064 25.46C41.3682 24.954 39.968 24.3459 38.6166 23.6402Z" fill="#CC1D37"/>
<path d="M42.8055 25.588C42.7912 25.5879 42.777 25.5856 42.7634 25.5811C41.3194 25.0728 39.9135 24.462 38.5565 23.7533C38.5364 23.7427 38.5195 23.7268 38.5076 23.7075C38.4957 23.6882 38.4891 23.666 38.4885 23.6433C38.488 23.6205 38.4935 23.5981 38.5045 23.5782C38.5155 23.5583 38.5316 23.5417 38.5511 23.53L39.8656 22.7494C39.8918 22.7338 39.9226 22.7281 39.9527 22.7333C39.9827 22.7385 40.0099 22.7542 40.0294 22.7776L40.7198 23.6087L42.2904 23.5703C42.3183 23.5713 42.3452 23.5806 42.3677 23.5971C42.3902 23.6136 42.4072 23.6365 42.4165 23.6628L42.9293 25.4242C42.9348 25.4433 42.9358 25.4634 42.9322 25.483C42.9286 25.5025 42.9205 25.521 42.9086 25.5369C42.8966 25.5528 42.8811 25.5657 42.8633 25.5745C42.8455 25.5834 42.8259 25.588 42.806 25.588H42.8055ZM38.8795 23.6318C40.0884 24.251 41.3353 24.793 42.6127 25.2547L42.1976 23.8282L40.6639 23.8656C40.6444 23.8662 40.625 23.8623 40.6073 23.8543C40.5895 23.8462 40.5738 23.8343 40.5614 23.8192L39.9014 23.0245L38.8795 23.6318Z" fill="#00257D"/>
<path d="M36.9742 22.7571C39.8688 24.397 42.9579 25.667 46.169 26.5374L42.5087 29.8506C40.661 29.5658 38.9211 28.7989 37.4644 27.6273L36.9742 22.7571Z" fill="#CC1D37"/>
<path d="M37.1524 24.5317L44.8345 27.7447L46.1677 26.5374C42.9571 25.6657 39.8682 24.3958 36.9729 22.7571L37.1524 24.5317Z" fill="white"/>
<path d="M37.4635 27.1557C38.8771 26.8496 42.5072 27.3078 44.2319 28.291L42.5072 29.8518C40.6595 29.5675 38.9194 28.8006 37.463 27.6285L37.4635 27.1557Z" fill="#FF6E85"/>
<path d="M42.5087 29.9798C42.5018 29.9799 42.4948 29.9793 42.488 29.978C40.6191 29.6876 38.8592 28.9118 37.3842 27.7281C37.371 27.7174 37.36 27.7042 37.3519 27.6893C37.3438 27.6744 37.3388 27.658 37.337 27.6411L36.8474 22.7699C36.845 22.7464 36.8492 22.7226 36.8595 22.7013C36.8698 22.68 36.8858 22.6619 36.9058 22.6491C36.9257 22.6364 36.9488 22.6294 36.9725 22.6289C36.9961 22.6285 37.0195 22.6346 37.0399 22.6466C39.6609 24.1913 42.4018 25.3181 46.2052 26.4154C46.2272 26.4216 46.2471 26.4336 46.2629 26.4502C46.2787 26.4667 46.2898 26.4871 46.2951 26.5094C46.3003 26.5316 46.2995 26.5549 46.2927 26.5767C46.2859 26.5986 46.2734 26.6182 46.2565 26.6336L42.5957 29.9468C42.5718 29.9683 42.5408 29.9801 42.5087 29.9798ZM37.5862 27.5619C39.0022 28.6862 40.6833 29.4278 42.4682 29.7155L45.9129 26.5982C42.3054 25.547 39.6509 24.4579 37.1271 22.9963L37.5862 27.5619Z" fill="#00257D"/>
<path d="M37.1036 24.6506L37.2026 24.4139L44.8847 27.627L44.7856 27.8638L37.1036 24.6506Z" fill="#00257D"/>
<path d="M44.1786 28.4091C42.0927 27.4277 39.7771 27.0386 37.485 27.2842L37.4424 27.0311C39.7861 26.7777 42.1543 27.174 44.2878 28.1766L44.1786 28.4091Z" fill="#00257D"/>
<path d="M41.8855 36.6832L42.1389 36.6457L43.2765 44.3238L43.0231 44.3613L41.8855 36.6832Z" fill="#00257D"/>
<path d="M51.229 37.3442L51.4828 37.3102L52.3236 43.5751L52.0698 43.6092L51.229 37.3442Z" fill="#00257D"/>
<path d="M39.1255 17.3737C39.1255 17.3737 38.3759 12.7191 34.0182 11.8005C33.6813 16.931 39.1255 17.3737 39.1255 17.3737Z" fill="white"/>
<path d="M39.1258 17.5019H39.1153C39.0596 17.4973 33.5493 16.9891 33.8903 11.7923C33.8915 11.774 33.8966 11.7562 33.9052 11.74C33.9139 11.7239 33.9259 11.7098 33.9405 11.6987C33.9551 11.6876 33.9719 11.6797 33.9897 11.6757C34.0076 11.6716 34.0261 11.6714 34.0441 11.6751C38.4377 12.6009 39.2448 17.306 39.2522 17.3534C39.2551 17.3717 39.254 17.3904 39.249 17.4083C39.244 17.4261 39.2352 17.4427 39.2232 17.4568C39.2112 17.4709 39.1963 17.4822 39.1794 17.49C39.1626 17.4978 39.1443 17.5019 39.1258 17.5019ZM34.1379 11.9584C33.9446 16.3225 38.0516 17.1068 38.965 17.2268C38.7804 16.4048 37.7729 12.8132 34.1379 11.9584Z" fill="#00257D"/>
<path d="M35.169 13.1969C34.9608 13.3496 34.7974 13.5555 34.6958 13.793C34.5943 14.0304 34.5584 14.2908 34.5919 14.5469C34.6253 14.8029 34.7269 15.0453 34.8861 15.2487C35.0452 15.4521 35.256 15.6091 35.4965 15.7032C35.737 15.7973 35.9984 15.8251 36.2533 15.7837C36.5082 15.7423 36.7473 15.6333 36.9457 15.4679C37.1441 15.3025 37.2944 15.087 37.381 14.8436C37.4676 14.6003 37.4873 14.3383 37.438 14.0847C37.3985 13.8822 36.3791 12.9477 36.1728 12.9259C35.8161 12.8877 35.458 12.9843 35.169 13.1969Z" fill="#00257D"/>
<path d="M48.7192 21.3133C48.7192 21.3133 52.7231 18.3675 59.2087 22.335C55.9152 24.9201 50.3451 22.8613 48.7192 21.3133Z" fill="white"/>
<path d="M55.2736 23.6908C52.4924 23.6908 49.6674 22.3925 48.6316 21.4065C48.618 21.3935 48.6074 21.3778 48.6005 21.3603C48.5937 21.3428 48.5908 21.3241 48.592 21.3053C48.5932 21.2866 48.5985 21.2684 48.6075 21.2519C48.6165 21.2355 48.629 21.2212 48.6442 21.2101C48.6849 21.1801 52.7927 18.2594 59.2763 22.2256C59.2939 22.2366 59.3087 22.2516 59.3193 22.2694C59.3299 22.2873 59.3361 22.3074 59.3373 22.3282C59.3384 22.3488 59.3346 22.3694 59.3261 22.3883C59.3175 22.4071 59.3046 22.4236 59.2883 22.4364C58.129 23.346 56.7071 23.6908 55.2736 23.6908ZM48.9298 21.3306C50.5793 22.7532 55.7549 24.6966 58.9812 22.3469C53.3893 19.0052 49.6671 20.886 48.9298 21.3306Z" fill="#00257D"/>
<path d="M50.8471 21.3279C50.8002 21.6092 50.8297 21.898 50.9324 22.1641C51.0352 22.4302 51.2075 22.6638 51.4313 22.8405C51.6552 23.0173 51.9223 23.1307 52.205 23.169C52.4876 23.2073 52.7754 23.169 53.0382 23.0581C53.3009 22.9473 53.5292 22.7679 53.699 22.5387C53.8688 22.3096 53.974 22.039 54.0036 21.7554C54.0332 21.4717 53.9861 21.1852 53.8672 20.926C53.7484 20.6667 53.5621 20.4441 53.3278 20.2814C53.1407 20.1516 51.6137 20.1978 51.4335 20.3396C51.1215 20.5842 50.9123 20.9368 50.8471 21.3279Z" fill="#00257D"/>
<path d="M48.0286 37.7985V37.5421C50.2213 37.5398 52.3916 37.1013 54.4132 36.2522C56.4348 35.403 58.2672 34.1602 59.8039 32.5961C59.8237 32.5762 59.8494 32.5633 59.8772 32.5595C59.905 32.5556 59.9333 32.561 59.9577 32.5748C61.8077 33.6149 64.1323 33.126 65.7427 31.3578C67.6963 29.2124 68.5264 25.1036 64.9969 20.0068C64.982 19.9853 64.974 19.9598 64.974 19.9337C64.974 19.6804 64.969 19.4286 64.9589 19.1782C64.5743 9.72775 57.1393 2.32529 48.0286 2.32529C38.6851 2.32529 31.0834 10.2244 31.0834 19.9337C31.0834 27.7672 36.1418 34.7327 43.3848 36.8727L43.3122 37.1186C35.9611 34.9468 30.8265 27.8802 30.8265 19.9337C30.8265 10.0831 38.5436 2.06891 48.0281 2.06891C57.2757 2.06891 64.8248 9.58084 65.2148 19.1677C65.2245 19.4085 65.2296 19.6505 65.2299 19.8937C68.8192 25.0982 67.9475 29.3167 65.9316 31.5303C64.2908 33.3329 61.8308 33.8659 59.9169 32.845C58.3592 34.4129 56.5071 35.6576 54.4669 36.5077C52.4268 37.3578 50.2388 37.7964 48.0286 37.7985Z" fill="#00257D"/>
<path d="M34.4729 47.6049L28.1496 52.9165L31.9417 65.4215L30.5516 91.6681L77.5345 81.9049L71.1188 59.7265L71.6667 48.1461L62.245 43.0839L50.9117 57.5665L34.4729 47.6049Z" fill="#CC1D37"/>
<path d="M67.728 53.7176C67.3377 53.3274 67.112 52.8022 67.0977 52.2504C67.0834 51.6987 67.2815 51.1625 67.6511 50.7526C67.2099 50.8545 66.8041 51.0726 66.4758 51.3843C66.1474 51.6959 65.9084 52.0898 65.7837 52.525C65.6589 52.9602 65.6529 53.4209 65.7662 53.8592C65.8796 54.2975 66.1082 54.6975 66.4283 55.0177C66.7484 55.3378 67.1484 55.5665 67.5867 55.6799C68.025 55.7933 68.4857 55.7873 68.9209 55.6625C69.3561 55.5378 69.75 55.2989 70.0617 54.9705C70.3734 54.6422 70.5916 54.2364 70.6935 53.7953C70.2835 54.1649 69.7471 54.3629 69.1952 54.3485C68.6434 54.334 68.1181 54.1082 67.728 53.7176Z" fill="white"/>
<path d="M76.939 81.2951C77.1107 81.4663 77.3059 81.612 77.5189 81.7279L76.5191 78.2667C76.2501 78.7485 76.1455 79.3048 76.2213 79.8513C76.2971 80.3978 76.5491 80.9047 76.939 81.2951Z" fill="white"/>
<path d="M70.015 76.0415C70.3516 75.706 70.5864 75.2823 70.6927 74.8191C70.2834 75.1932 69.7456 75.3951 69.1913 75.3826C68.6369 75.3702 68.1087 75.1445 67.7167 74.7524C67.3246 74.3603 67.0989 73.832 67.0865 73.2777C67.0741 72.7233 67.276 72.1856 67.6502 71.7764C67.2675 71.8648 66.9105 72.0409 66.6075 72.2908C66.3044 72.5408 66.0636 72.8576 65.9039 73.2165C65.7442 73.5754 65.67 73.9664 65.6872 74.3589C65.7044 74.7513 65.8125 75.1344 66.0029 75.4779C66.1934 75.8214 66.4611 76.116 66.7848 76.3385C67.1085 76.5609 67.4795 76.7052 67.8685 76.7598C68.2575 76.8144 68.6538 76.778 69.0263 76.6534C69.3988 76.5287 69.7373 76.3193 70.015 76.0415Z" fill="white"/>
<path d="M66.4274 61.9408C66.1496 62.2185 65.9401 62.557 65.8154 62.9295C65.6907 63.302 65.6542 63.6983 65.7088 64.0873C65.7634 64.4763 65.9076 64.8473 66.13 65.1711C66.3525 65.4949 66.647 65.7626 66.9906 65.9531C67.3341 66.1436 67.7172 66.2517 68.1096 66.2689C68.5021 66.2861 68.8931 66.212 69.252 66.0523C69.6109 65.8926 69.9278 65.6517 70.1777 65.3486C70.4277 65.0456 70.6038 64.6886 70.6922 64.3059C70.283 64.68 69.7452 64.8819 69.1909 64.8695C68.6365 64.857 68.1083 64.6313 67.7163 64.2392C67.3242 63.8471 67.0985 63.3189 67.0861 62.7645C67.0737 62.2102 67.2756 61.6724 67.6498 61.2632C67.1867 61.3696 66.763 61.6044 66.4274 61.9408Z" fill="white"/>
<path d="M67.6497 82.287C67.1394 82.4045 66.6782 82.6773 66.3295 83.0678C65.9808 83.4584 65.7618 83.9475 65.7027 84.4678L67.1418 84.1686C67.0726 83.8371 67.0825 83.494 67.1707 83.167C67.2589 82.8401 67.423 82.5386 67.6497 82.287Z" fill="white"/>
<path d="M57.2161 58.9754C56.8257 58.5852 56.6001 58.06 56.5858 57.5082C56.5715 56.9565 56.7696 56.4203 57.1392 56.0104C56.698 56.1123 56.2922 56.3304 55.9639 56.6421C55.6355 56.9538 55.3965 57.3476 55.2718 57.7828C55.147 58.218 55.141 58.6787 55.2543 59.117C55.3677 59.5554 55.5963 59.9553 55.9164 60.2755C56.2365 60.5956 56.6365 60.8243 57.0748 60.9377C57.5131 61.0511 57.9738 61.0451 58.409 60.9204C58.8442 60.7956 59.2381 60.5567 59.5498 60.2283C59.8615 59.9 60.0797 59.4942 60.1816 59.0531C59.7716 59.4227 59.2352 59.6207 58.6833 59.6063C58.1315 59.5918 57.6062 59.366 57.2161 58.9754Z" fill="white"/>
<path d="M59.5029 81.2965C59.8394 80.961 60.0743 80.5372 60.1805 80.0741C59.7712 80.4476 59.2336 80.649 58.6796 80.6363C58.1256 80.6237 57.5978 80.398 57.206 80.0061C56.8141 79.6143 56.5884 79.0865 56.5758 78.5325C56.5631 77.9785 56.7645 77.4409 57.138 77.0316C56.7553 77.12 56.3983 77.2961 56.0952 77.546C55.7921 77.7959 55.5512 78.1128 55.3914 78.4717C55.2317 78.8306 55.1575 79.2217 55.1747 79.6141C55.1919 80.0066 55.3 80.3897 55.4905 80.7333C55.681 81.0768 55.9486 81.3714 56.2724 81.5939C56.5962 81.8163 56.9672 81.9606 57.3562 82.0152C57.7453 82.0698 58.1417 82.0333 58.5142 81.9086C58.8867 81.7839 59.2251 81.5743 59.5029 81.2965Z" fill="white"/>
<path d="M55.9161 67.196C55.6383 67.4738 55.4288 67.8122 55.3041 68.1847C55.1794 68.5572 55.1429 68.9536 55.1975 69.3426C55.2521 69.7316 55.3963 70.1026 55.6188 70.4264C55.8412 70.7501 56.1358 71.0178 56.4793 71.2083C56.8228 71.3988 57.2059 71.5069 57.5984 71.5242C57.9908 71.5414 58.3819 71.4672 58.7408 71.3075C59.0997 71.1478 59.4166 70.9069 59.6665 70.6039C59.9164 70.3008 60.0925 69.9439 60.181 69.5612C59.7717 69.9353 59.234 70.1371 58.6796 70.1247C58.1253 70.1123 57.5971 69.8865 57.205 69.4944C56.8129 69.1023 56.5872 68.5741 56.5748 68.0198C56.5624 67.4654 56.7644 66.9276 57.1385 66.5184C56.6754 66.6248 56.2517 66.8597 55.9161 67.196Z" fill="white"/>
<path d="M46.7042 74.7414C46.3138 74.3512 46.0882 73.826 46.0739 73.2742C46.0596 72.7225 46.2577 72.1863 46.6273 71.7764C46.1861 71.8783 45.7803 72.0964 45.452 72.4081C45.1236 72.7197 44.8846 73.1136 44.7598 73.5488C44.6351 73.984 44.6291 74.4447 44.7424 74.883C44.8558 75.3213 45.0844 75.7213 45.4045 76.0415C45.7246 76.3616 46.1246 76.5903 46.5629 76.7037C47.0012 76.8171 47.4619 76.8111 47.8971 76.6863C48.3323 76.5616 48.7262 76.3227 49.0379 75.9943C49.3496 75.666 49.5678 75.2602 49.6697 74.8191C49.2597 75.1887 48.7233 75.3867 48.1714 75.3723C47.6196 75.3578 47.0943 75.132 46.7042 74.7414Z" fill="white"/>
<path d="M46.7042 64.2282C46.3138 63.838 46.0882 63.3128 46.0739 62.7611C46.0596 62.2093 46.2577 61.6731 46.6273 61.2632C46.1861 61.3651 45.7803 61.5832 45.452 61.8949C45.1236 62.2066 44.8846 62.6004 44.7598 63.0357C44.6351 63.4709 44.6291 63.9315 44.7424 64.3698C44.8558 64.8082 45.0844 65.2081 45.4045 65.5283C45.7246 65.8484 46.1246 66.0771 46.5629 66.1905C47.0012 66.3039 47.4619 66.2979 47.8971 66.1732C48.3323 66.0484 48.7262 65.8095 49.0379 65.4811C49.3496 65.1528 49.5678 64.747 49.6697 64.3059C49.2597 64.6755 48.7233 64.8735 48.1714 64.8591C47.6196 64.8446 47.0943 64.6188 46.7042 64.2282Z" fill="white"/>
<path d="M45.4042 82.9643C45.1264 83.2421 44.9169 83.5805 44.7922 83.953C44.6675 84.3255 44.631 84.7219 44.6856 85.1109C44.7402 85.4999 44.8844 85.8709 45.1068 86.1947C45.3293 86.5184 45.6239 86.7861 45.9674 86.9766C46.3109 87.1671 46.694 87.2752 47.0865 87.2925C47.4789 87.3097 47.87 87.2355 48.2289 87.0758C48.5877 86.9161 48.9046 86.6752 49.1546 86.3722C49.4045 86.0691 49.5806 85.7122 49.6691 85.3295C49.2598 85.703 48.7222 85.9044 48.1682 85.8917C47.6142 85.879 47.0864 85.6533 46.6946 85.2615C46.3027 84.8697 46.077 84.3419 46.0644 83.7879C46.0517 83.2339 46.2531 82.6963 46.6266 82.287C46.1635 82.3932 45.7398 82.6279 45.4042 82.9643Z" fill="white"/>
<path d="M36.1923 58.9754C35.802 58.5852 35.5764 58.06 35.5621 57.5082C35.5477 56.9565 35.7458 56.4203 36.1154 56.0104C35.6743 56.1123 35.2685 56.3304 34.9401 56.6421C34.6117 56.9538 34.3727 57.3476 34.248 57.7828C34.1232 58.218 34.1172 58.6787 34.2305 59.117C34.3439 59.5554 34.5725 59.9553 34.8926 60.2755C35.2128 60.5956 35.6127 60.8243 36.051 60.9377C36.4893 61.0511 36.95 61.0451 37.3852 60.9204C37.8204 60.7956 38.2143 60.5567 38.526 60.2283C38.8378 59.9 39.0559 59.4942 39.1578 59.0531C38.7478 59.4227 38.2114 59.6207 37.6596 59.6063C37.1077 59.5918 36.5824 59.366 36.1923 58.9754Z" fill="white"/>
<path d="M28.489 53.9223L28.5479 54.1171C28.5877 54.0117 28.6204 53.9038 28.6459 53.7941C28.5954 53.8397 28.5428 53.8823 28.489 53.9223Z" fill="white"/>
<path d="M34.893 77.709C34.6152 77.9867 34.4057 78.3251 34.281 78.6976C34.1563 79.0701 34.1198 79.4665 34.1744 79.8555C34.229 80.2445 34.3732 80.6155 34.5956 80.9393C34.8181 81.263 35.1126 81.5307 35.4562 81.7212C35.7997 81.9117 36.1828 82.0199 36.5752 82.0371C36.9677 82.0543 37.3587 81.9801 37.7176 81.8204C38.0765 81.6607 38.3934 81.4199 38.6433 81.1168C38.8933 80.8138 39.0694 80.4568 39.1578 80.0741C38.7485 80.4476 38.211 80.649 37.657 80.6363C37.103 80.6237 36.5752 80.398 36.1833 80.0061C35.7915 79.6143 35.5658 79.0865 35.5531 78.5325C35.5405 77.9785 35.7419 77.4409 36.1154 77.0316C35.6523 77.1378 35.2285 77.3726 34.893 77.709Z" fill="white"/>
<path d="M36.1923 69.4835C35.802 69.0932 35.5764 68.568 35.5621 68.0163C35.5477 67.4646 35.7458 66.9284 36.1154 66.5184C35.6743 66.6203 35.2685 66.8385 34.9401 67.1501C34.6117 67.4618 34.3727 67.8557 34.248 68.2909C34.1232 68.7261 34.1172 69.1868 34.2305 69.6251C34.3439 70.0634 34.5725 70.4634 34.8926 70.7835C35.2128 71.1037 35.6127 71.3323 36.051 71.4457C36.4893 71.5591 36.95 71.5531 37.3852 71.4284C37.8204 71.3037 38.2143 71.0647 38.526 70.7364C38.8378 70.408 39.0559 70.0023 39.1578 69.5612C38.7478 69.9308 38.2114 70.1288 37.6596 70.1143C37.1077 70.0999 36.5824 69.874 36.1923 69.4835Z" fill="white"/>
<path d="M36.1153 87.5422C35.7562 87.6251 35.4196 87.7852 35.1287 88.0114C34.8379 88.2377 34.5998 88.5245 34.4311 88.8521C34.2624 89.1797 34.1672 89.5401 34.1519 89.9083C34.1367 90.2764 34.2019 90.6435 34.3429 90.9839L36.2758 90.5821C36.2481 90.5565 36.2194 90.5337 36.193 90.507C35.8026 90.1169 35.5769 89.5918 35.5624 89.0401C35.548 88.4884 35.7459 87.9523 36.1153 87.5422Z" fill="white"/>
<path d="M61.5448 29.4729L64.4748 27.7442L64.605 27.965L61.6751 29.6936L61.5448 29.4729Z" fill="#00257D"/>
<path d="M64.1815 27.2129L64.4124 27.1016L65.5067 29.3718L65.2758 29.4831L64.1815 27.2129Z" fill="#00257D"/>
<path d="M62.3264 29.1603L62.5573 29.0489L63.3409 30.674L63.11 30.7854L62.3264 29.1603Z" fill="#00257D"/>
<path d="M53.4891 53.452L41.8028 42.9609L36.7596 48.0411L45.6296 58.695L53.4891 53.452Z" fill="#0084CC"/>
<path d="M45.6297 58.823C45.6109 58.823 45.5924 58.8189 45.5754 58.8109C45.5584 58.8029 45.5433 58.7913 45.5313 58.7769L36.6605 48.123C36.6401 48.0985 36.6296 48.0673 36.6309 48.0354C36.6323 48.0036 36.6455 47.9734 36.668 47.9507L41.7112 42.8706C41.7344 42.8473 41.7656 42.8338 41.7984 42.8328C41.8312 42.8319 41.8631 42.8435 41.8876 42.8654L53.5739 53.3565C53.5885 53.3695 53.5998 53.3857 53.6072 53.4039C53.6145 53.422 53.6176 53.4415 53.6162 53.461C53.6148 53.4805 53.609 53.4994 53.5992 53.5163C53.5894 53.5332 53.5758 53.5477 53.5596 53.5585L45.6997 58.8015C45.679 58.8154 45.6547 58.8229 45.6297 58.823ZM36.9328 48.0487L45.6546 58.5244L53.2809 53.4368L41.8081 43.1377L36.9328 48.0487Z" fill="#00257D"/>
<path d="M43.3697 52.9943L53.8851 41.1108L60.251 44.0223L50.5199 58.9416L43.3697 52.9943Z" fill="#0084CC"/>
<path d="M50.1297 58.8241C50.0994 58.8242 50.0701 58.8136 50.0469 58.7941L43.2864 53.0919C43.2733 53.0809 43.2626 53.0674 43.2549 53.0521C43.2471 53.0369 43.2425 53.0202 43.2413 53.0032C43.2401 52.9861 43.2423 52.969 43.2478 52.9528C43.2533 52.9366 43.262 52.9217 43.2733 52.9089L53.789 41.0259C53.8072 41.0054 53.8316 40.9912 53.8584 40.9856C53.8853 40.9799 53.9133 40.983 53.9382 40.9944L60.3041 43.9058C60.3211 43.9137 60.3361 43.9252 60.3481 43.9395C60.3601 43.9538 60.3689 43.9705 60.3738 43.9885C60.3786 44.0065 60.3795 44.0254 60.3764 44.0438C60.3732 44.0622 60.366 44.0797 60.3554 44.0951L50.2346 58.7687C50.2244 58.7834 50.2113 58.7959 50.1961 58.8052C50.1808 58.8146 50.1638 58.8207 50.1461 58.8231C50.1407 58.8238 50.1352 58.8241 50.1297 58.8241ZM43.552 52.9809L50.1043 58.5069L60.0583 44.0756L53.9172 41.2669L43.552 52.9809Z" fill="#00257D"/>
<path d="M50.8642 58.3444L36.7592 45.682L31.6145 50.0038L46.5368 63.8658L50.8642 58.3444Z" fill="#FF6E85"/>
<path d="M30.5513 91.7947C30.5339 91.7947 30.5167 91.7912 30.5007 91.7843C30.4847 91.7775 30.4702 91.7674 30.4583 91.7548C30.4463 91.7422 30.437 91.7273 30.4309 91.7109C30.4249 91.6946 30.4222 91.6772 30.4231 91.6598L31.8135 65.4132L32.0699 65.4265L30.6893 91.507L77.373 81.8064L71.8793 62.7489L72.1256 62.6779L77.6581 81.8679C77.663 81.885 77.6644 81.903 77.6621 81.9206C77.6597 81.9383 77.6537 81.9552 77.6445 81.9704C77.6354 81.9856 77.6233 81.9987 77.6089 82.0089C77.5946 82.0191 77.5782 82.0262 77.5609 82.0297L30.5775 91.7921C30.5689 91.7939 30.5601 91.7947 30.5513 91.7947Z" fill="#00257D"/>
<path d="M46.537 63.994C46.5047 63.994 46.4735 63.9817 46.4498 63.9597L31.5285 50.098C31.5152 50.0856 31.5047 50.0706 31.4977 50.0538C31.4906 50.0371 31.4872 50.019 31.4877 50.0009C31.4881 49.9827 31.4925 49.9649 31.5003 49.9485C31.5082 49.9321 31.5195 49.9176 31.5334 49.9059L36.6782 45.5839C36.7018 45.5641 36.7318 45.5535 36.7627 45.554C36.7935 45.5545 36.8231 45.5661 36.8461 45.5867L50.9514 58.2491C50.9755 58.2708 50.9906 58.3008 50.9934 58.3332C50.9963 58.3656 50.9867 58.3978 50.9667 58.4234L46.639 63.9448C46.6281 63.9588 46.6143 63.9703 46.5987 63.9787C46.583 63.9871 46.5657 63.9921 46.548 63.9935L46.537 63.994ZM31.8082 50.009L46.5221 63.6771L50.6898 58.3596L36.7569 45.8518L31.8082 50.009Z" fill="#00257D"/>
<path d="M31.5584 72.6687L59.3057 41.5029L65.2609 44.7028L30.9559 84.0428L31.5584 72.6687Z" fill="#FF6E85"/>
<path d="M30.9553 84.1708C30.9388 84.1707 30.9224 84.1676 30.9071 84.1615C30.8824 84.1515 30.8614 84.134 30.8471 84.1115C30.8328 84.0889 30.8259 84.0625 30.8274 84.0359L31.4296 72.6616C31.4312 72.6325 31.4425 72.6049 31.4619 72.5831L59.2094 41.4176C59.2285 41.3961 59.2543 41.3817 59.2827 41.3767C59.311 41.3717 59.3402 41.3763 59.3655 41.3899L65.3207 44.5895C65.3377 44.5987 65.3524 44.6115 65.3637 44.627C65.375 44.6426 65.3827 44.6605 65.3861 44.6795C65.3896 44.6984 65.3887 44.7179 65.3836 44.7365C65.3785 44.755 65.3693 44.7722 65.3566 44.7867L31.052 84.1269C31.0399 84.1407 31.025 84.1517 31.0084 84.1593C30.9917 84.1669 30.9736 84.1708 30.9553 84.1708ZM31.6834 72.7201L31.103 83.6782L65.0577 44.7393L59.3335 41.6627L31.6834 72.7201Z" fill="#00257D"/>
<path d="M27.7548 53.7161L27.5436 53.5713L28.0438 52.8408C28.0504 52.8313 28.0582 52.8227 28.0671 52.8152L31.5321 49.9048L31.6967 50.1009L28.2453 53.0001L27.7548 53.7161Z" fill="#00257D"/>
<path d="M72.2934 48.8738L71.5927 48.2493L65.1993 44.8138L65.3206 44.5879L71.727 48.03C71.7362 48.0348 71.7448 48.0406 71.7527 48.0472L72.4649 48.6818L72.2934 48.8738Z" fill="#00257D"/>
<path d="M48.8096 0.892822C45.66 0.899011 42.5599 1.67732 39.7808 3.15958C37.0017 4.64185 34.6284 6.78287 32.8687 9.39515L38.927 11.3929C40.2525 10.0656 42.1186 8.76369 44.0559 7.46512C42.7932 8.89044 41.6662 10.4304 40.6896 12.0651C41.0506 12.2064 41.4098 12.3522 41.7689 12.4976C42.3398 11.706 43.0727 11.0449 43.9187 10.5583C43.2293 11.7605 42.9721 12.1823 42.7027 12.8817C45.0039 13.8412 47.2709 14.8855 49.5034 16.0146C50.4912 14.726 51.6665 13.5927 52.9902 12.6525L51.9516 17.2863C53.6837 18.2133 55.3968 19.1869 57.091 20.2069C57.7789 18.9752 58.3271 17.6704 58.7251 16.3169C58.7958 17.9154 58.7439 19.517 58.5698 21.1076C60.2337 22.1365 62.0688 23.0771 63.701 24.1842L63.1836 25.5796C65.4469 24.7982 66.9629 26.3921 66.5383 28.8493C66.1325 31.1967 63.1708 33.321 60.3906 32.1689C58.0816 34.6332 55.3143 36.6396 51.3614 37.3341L51.5434 38.685L60.6449 36.9673L60.9413 33.8771L62.1329 36.6863L68.1909 35.5426V20.6113C68.1897 9.72101 59.513 0.892822 48.8096 0.892822Z" fill="#00257D"/>
<path d="M51.542 38.8135C51.515 38.8135 51.4888 38.805 51.4669 38.7892C51.4529 38.779 51.4411 38.7661 51.4323 38.7512C51.4235 38.7363 51.4178 38.7197 51.4156 38.7025L51.2339 37.3514C51.2294 37.3186 51.2379 37.2854 51.2574 37.2587C51.277 37.2319 51.3061 37.2138 51.3387 37.2081C54.7314 36.6123 57.5777 34.9832 60.2964 32.0818C60.3145 32.0624 60.3381 32.0491 60.364 32.0438C60.39 32.0384 60.4169 32.0412 60.4412 32.0518C60.9726 32.3025 61.5534 32.431 62.1409 32.4278C62.7284 32.4247 63.3078 32.2901 63.8365 32.0338C64.4658 31.7062 65.0199 31.251 65.4636 30.6974C65.9073 30.1437 66.2307 29.5037 66.4133 28.8181C66.6784 27.7743 66.3998 26.6529 65.7211 26.0276C65.2932 25.6338 64.5125 25.2585 63.226 25.7012C63.2031 25.7092 63.1784 25.7104 63.1547 25.7048C63.1311 25.6992 63.1096 25.6871 63.0926 25.6697C63.0756 25.6524 63.0639 25.6305 63.0589 25.6068C63.0538 25.5831 63.0556 25.5584 63.064 25.5356L63.5462 24.2342C62.5887 23.5905 61.5498 22.9944 60.5443 22.4173C59.8662 22.0281 59.1647 21.6256 58.503 21.2164C58.4823 21.2035 58.4656 21.185 58.455 21.1631C58.4445 21.1411 58.4404 21.1165 58.4433 21.0923C58.5909 19.7653 58.6493 18.4299 58.6181 17.0951C58.2407 18.1926 57.7674 19.2547 57.2037 20.2691C57.1953 20.2841 57.184 20.2973 57.1705 20.3078C57.1569 20.3184 57.1414 20.3262 57.1248 20.3306C57.1082 20.3351 57.0909 20.3361 57.0739 20.3337C57.0568 20.3314 57.0405 20.3256 57.0257 20.3168C55.2844 19.272 53.5572 18.2914 51.8917 17.3992C51.867 17.3859 51.8473 17.3649 51.8356 17.3394C51.8239 17.3139 51.8209 17.2853 51.8271 17.2579L52.7937 12.9469C51.5947 13.8486 50.5223 14.9073 49.6051 16.0944C49.5867 16.1174 49.561 16.1333 49.5323 16.1395C49.5036 16.1458 49.4736 16.142 49.4474 16.1288C47.1859 14.9889 44.9005 13.9362 42.6549 13.001C42.624 12.9881 42.5993 12.9638 42.5861 12.933C42.5729 12.9023 42.5723 12.8676 42.5844 12.8364C42.8533 12.1771 43.1778 11.542 43.5545 10.9379C42.9045 11.3856 42.3352 11.9404 41.8709 12.5787C41.8536 12.6001 41.8298 12.6154 41.8032 12.6222C41.7766 12.6291 41.7484 12.6272 41.7229 12.6169L41.6522 12.5884C41.3168 12.4526 40.9815 12.3169 40.6446 12.1852C40.6274 12.1784 40.6119 12.168 40.5991 12.1547C40.5863 12.1414 40.5765 12.1255 40.5704 12.1081C40.5643 12.0907 40.5621 12.0721 40.5638 12.0537C40.5656 12.0354 40.5712 12.0176 40.5805 12.0016C41.3978 10.6221 42.3282 9.31289 43.3622 8.08743C41.7675 9.17192 40.1852 10.3138 39.0168 11.4837C39.0001 11.5005 38.979 11.5123 38.9559 11.5179C38.9328 11.5234 38.9086 11.5224 38.8861 11.515L32.8278 9.51701C32.809 9.51077 32.7919 9.50024 32.7778 9.48626C32.7637 9.47228 32.7531 9.45523 32.7467 9.43644C32.7404 9.41765 32.7385 9.39765 32.7411 9.378C32.7438 9.35834 32.751 9.33958 32.7622 9.32318C34.5361 6.69603 36.9258 4.5427 39.7228 3.05094C42.5198 1.55919 45.6393 0.774296 48.8093 0.764709C59.5662 0.764709 68.3177 9.66776 68.3177 20.6113V35.5421C68.3178 35.572 68.3074 35.601 68.2883 35.624C68.2693 35.6471 68.2428 35.6627 68.2134 35.6683L62.1554 36.8117C62.1267 36.8175 62.0968 36.8131 62.071 36.7993C62.0451 36.7855 62.0248 36.7632 62.0136 36.7361L61.0191 34.392L60.7709 36.9791C60.7683 37.0068 60.7567 37.0329 60.7379 37.0535C60.7191 37.074 60.6942 37.0879 60.6668 37.093L51.5654 38.8107C51.5577 38.8124 51.5499 38.8134 51.542 38.8135ZM51.5036 37.4388L51.6507 38.5343L60.5251 36.8589L60.8125 33.8644C60.8152 33.836 60.8273 33.8093 60.8468 33.7886C60.8664 33.7678 60.8923 33.7542 60.9205 33.7498C60.9487 33.7455 60.9775 33.7507 61.0024 33.7645C61.0274 33.7784 61.0469 33.8002 61.0581 33.8264L62.2092 36.5407L68.0614 35.436V20.6113C68.0614 9.80928 59.4249 1.02109 48.8093 1.02109C45.7098 1.0305 42.6589 1.79114 39.9178 3.23785C37.1767 4.68457 34.8272 6.77423 33.0706 9.3278L38.8917 11.2476C40.259 9.89389 42.1559 8.58507 43.9842 7.35957C44.01 7.34228 44.0411 7.33492 44.0719 7.33887C44.1027 7.34282 44.131 7.3578 44.1516 7.38104C44.1722 7.40428 44.1836 7.43419 44.1838 7.46523C44.184 7.49626 44.1729 7.52631 44.1526 7.5498C42.9302 8.93311 41.8334 10.4226 40.8753 12.0006C41.1604 12.1131 41.4448 12.2282 41.7288 12.3433C42.2972 11.5705 43.0207 10.9247 43.8529 10.4474C43.8773 10.4331 43.9057 10.4272 43.9338 10.4307C43.9619 10.4342 43.988 10.4469 44.0081 10.4668C44.0282 10.4867 44.0411 10.5127 44.0449 10.5407C44.0487 10.5687 44.0431 10.5972 44.0291 10.6217L43.8342 10.9609C43.4665 11.5531 43.1433 12.1717 42.8674 12.8117C45.0507 13.7255 47.27 14.7482 49.4679 15.8532C50.4491 14.5875 51.6112 13.4731 52.917 12.5459C52.9383 12.5315 52.9634 12.5238 52.9891 12.5239C53.0148 12.5239 53.0399 12.5317 53.0611 12.5462C53.0823 12.5606 53.0987 12.5812 53.1081 12.6051C53.1175 12.629 53.1195 12.6552 53.1139 12.6802L52.0971 17.2192C53.703 18.0806 55.3657 19.0251 57.0419 20.0286C57.6954 18.8397 58.218 17.5835 58.6004 16.2818C58.6084 16.2522 58.6268 16.2265 58.6523 16.2095C58.6779 16.1924 58.7087 16.1853 58.7391 16.1893C58.7694 16.1929 58.7975 16.2073 58.8181 16.2298C58.8388 16.2522 58.8508 16.2813 58.8519 16.3118C58.9206 17.8897 58.8716 19.4705 58.7053 21.041C59.3434 21.4335 60.0174 21.8204 60.6702 22.1947C61.709 22.7908 62.783 23.4072 63.7724 24.0781C63.7961 24.0942 63.8137 24.1179 63.8224 24.1452C63.8311 24.1725 63.8303 24.202 63.8203 24.2289L63.3932 25.3797C64.6518 25.0265 65.4442 25.4249 65.8929 25.8389C66.64 26.5263 66.9487 27.749 66.662 28.8811C66.4697 29.6025 66.1292 30.2759 65.6622 30.8584C65.1951 31.4408 64.6119 31.9196 63.9495 32.2641C63.4015 32.5308 62.8017 32.6743 62.1923 32.6844C61.5829 32.6944 60.9787 32.5708 60.4223 32.3223C57.7136 35.1912 54.8747 36.8204 51.5036 37.4388Z" fill="#00257D"/>
</svg>
