<svg width="18" height="36" viewBox="0 0 18 36" fill="none" xmlns="http://www.w3.org/2000/svg">
<path d="M9.00014 30.0001C8.90143 30.0007 8.80359 29.9818 8.71221 29.9444C8.62083 29.9071 8.53772 29.8521 8.46764 29.7826L3.96764 25.2826C3.82641 25.1414 3.74707 24.9499 3.74707 24.7501C3.74707 24.5504 3.82641 24.3589 3.96764 24.2176C4.10887 24.0764 4.30041 23.9971 4.50014 23.9971C4.69987 23.9971 4.89141 24.0764 5.03264 24.2176L9.00014 28.1926L12.9676 24.2251C13.1111 24.1023 13.2957 24.0381 13.4844 24.0454C13.6732 24.0526 13.8522 24.1309 13.9858 24.2645C14.1194 24.398 14.1976 24.5771 14.2049 24.7658C14.2122 24.9546 14.148 25.1392 14.0251 25.2826L9.52514 29.7826C9.38544 29.9212 9.19689 29.9993 9.00014 30.0001Z" fill="#9214A7"/>
<path d="M8.99986 5.99988C9.09857 5.99931 9.19641 6.01823 9.28779 6.05555C9.37917 6.09288 9.46228 6.14787 9.53236 6.21738L14.0324 10.7174C14.1736 10.8586 14.2529 11.0501 14.2529 11.2499C14.2529 11.4496 14.1736 11.6411 14.0324 11.7824C13.8911 11.9236 13.6996 12.0029 13.4999 12.0029C13.3001 12.0029 13.1086 11.9236 12.9674 11.7824L8.99986 7.80737L5.03236 11.7749C4.88888 11.8977 4.70433 11.9619 4.51557 11.9546C4.32681 11.9474 4.14776 11.8691 4.01419 11.7355C3.88062 11.602 3.80237 11.4229 3.79508 11.2342C3.78779 11.0454 3.85199 10.8608 3.97486 10.7174L8.47486 6.21738C8.61456 6.07882 8.80311 6.00071 8.99986 5.99988Z" fill="#9214A7"/>
</svg>
