<svg width="85" height="90" viewBox="0 0 85 90" fill="none" xmlns="http://www.w3.org/2000/svg">
<path d="M26.0473 62.3681L20.5176 37.8569L32.1704 38.7141L26.0473 62.3681Z" fill="#0084CC"/>
<path d="M22.691 47.9697L22.8957 47.9235L26.1494 62.346L25.9447 62.3921L22.691 47.9697Z" fill="#00257D"/>
<path d="M27.3452 33.9552L16.2581 21.7085L15.6151 14.5891L10.4718 3.86377H7.81981L9.07885 10.8913H0.104858L3.15865 22.8297H7.17686L21.1066 50.0918L30.6166 48.3252L27.3452 33.9552Z" fill="#FFD6B5"/>
<path d="M21.1066 50.1963C21.0872 50.1964 21.0683 50.191 21.0517 50.1809C21.0352 50.1708 21.0218 50.1563 21.013 50.139L7.11347 22.9342H3.15863C3.13538 22.9342 3.11278 22.9265 3.0944 22.9122C3.07601 22.898 3.06288 22.878 3.05707 22.8555L0.0032777 10.9169C-0.000687229 10.9014 -0.0010602 10.8852 0.00218726 10.8696C0.00543472 10.8539 0.0122167 10.8392 0.0220153 10.8266C0.0318139 10.814 0.0443699 10.8037 0.0587245 10.7967C0.073079 10.7897 0.0888524 10.786 0.10484 10.786H8.95356L7.71655 3.88226C7.71382 3.86715 7.71444 3.85162 7.71836 3.83677C7.72229 3.82192 7.72943 3.80811 7.73927 3.79632C7.74912 3.78454 7.76144 3.77505 7.77535 3.76855C7.78926 3.76204 7.80443 3.75867 7.81979 3.75867H10.4709C10.4907 3.75866 10.5101 3.76426 10.5268 3.7748C10.5436 3.78535 10.557 3.80041 10.5655 3.81826L15.7098 14.5434C15.7152 14.5546 15.7185 14.5668 15.7196 14.5792L16.3594 21.6636L27.4228 33.8845L27.2673 34.0253L16.1802 21.7784C16.1648 21.7616 16.1554 21.7401 16.1536 21.7174L15.5123 14.617L10.4056 3.9683H7.94528L9.18207 10.872C9.18477 10.8871 9.18413 10.9026 9.18019 10.9174C9.17624 10.9323 9.1691 10.946 9.15926 10.9578C9.14941 10.9696 9.13711 10.979 9.12321 10.9855C9.10932 10.992 9.09417 10.9954 9.07883 10.9954H0.239977L3.24068 22.724H7.17643C7.19579 22.7239 7.21479 22.7293 7.23131 22.7394C7.24782 22.7495 7.26122 22.764 7.27001 22.7812L21.1643 49.9739L30.5974 48.2217L30.6358 48.428L21.1257 50.1947C21.1194 50.1957 21.113 50.1963 21.1066 50.1963Z" fill="#00257D"/>
<path d="M43.9837 28.941L26.6522 33.1888L26.0472 62.368L38.0368 51.2086L43.9837 28.941Z" fill="#0084CC"/>
<path d="M41.592 29.9831L40.777 32.7744L41.8232 32.5868L41.145 34.8726L43.0743 31.7021L42.0303 31.8893L42.6523 29.793L41.592 29.9831Z" fill="white"/>
<path d="M39.0003 38.2521L37.9564 38.4391L38.5783 36.343L37.518 36.5329L36.703 39.3244L37.7495 39.1368L37.0713 41.4226L39.0003 38.2521Z" fill="white"/>
<path d="M34.9266 44.8022L33.8826 44.9894L34.5046 42.8931L33.4443 43.0832L32.6293 45.8745L33.6755 45.6869L32.9975 47.9727L34.9266 44.8022Z" fill="white"/>
<path d="M29.1681 41.955L28.1241 42.142L28.7461 40.0459L27.686 40.2358L26.871 43.0271L27.9172 42.8397L27.239 45.1255L29.1681 41.955Z" fill="white"/>
<path d="M33.2418 35.403L32.1979 35.5902L32.8198 33.4939L31.7597 33.684L30.9447 36.4753L31.991 36.2877L31.3128 38.5735L33.2418 35.403Z" fill="white"/>
<path d="M26.6364 33.9473L27.1758 33.0605L26.6521 33.189L26.6364 33.9473Z" fill="white"/>
<path d="M26.1374 58.0205L26.1171 58.9931L26.7789 57.9055L26.1374 58.0205Z" fill="white"/>
<path d="M26.3568 55.9968L26.1785 56.0287L26.1659 56.6404L26.3568 55.9968Z" fill="white"/>
<path d="M39.2028 45.9319L38.3878 48.7232L38.7162 48.6645L39.4582 45.886L39.2028 45.9319Z" fill="white"/>
<path d="M36.1892 52.2941L35.1291 52.484L34.5549 54.4495L35.929 53.1708L36.1892 52.2941Z" fill="white"/>
<path d="M30.8527 51.3541L29.8087 51.5412L30.4307 49.4449L29.3706 49.6351L28.5555 52.4263L29.6018 52.2387L28.9236 54.5247L30.8527 51.3541Z" fill="white"/>
<path d="M26.6522 33.1892L26.0472 62.3684L30.4692 58.1278L28.9902 32.712L26.6522 33.1892Z" fill="#8FD2FF"/>
<path d="M26.0472 62.4732C26.0328 62.4732 26.0185 62.4702 26.0052 62.4644C25.9862 62.4561 25.9701 62.4423 25.9589 62.4249C25.9476 62.4074 25.9419 62.387 25.9423 62.3662L26.5472 33.187C26.5477 33.1639 26.5558 33.1416 26.5703 33.1236C26.5848 33.1056 26.6048 33.0928 26.6272 33.0873L42.0099 29.3171L42.06 29.5209L26.7546 33.2718L26.1574 62.1165L36.5043 52.1936L36.6495 52.3451L26.1198 62.4432C26.1004 62.4622 26.0744 62.473 26.0472 62.4732Z" fill="#00257D"/>
<path d="M52.98 26.6839L51.8996 31.8713L47.715 31.1615L50.2381 44.4359L61.4359 30.2004L61.8646 28.081C58.1188 21.7363 55.6897 25.8093 52.98 26.6839Z" fill="#FFD6B5"/>
<path d="M77.067 77.6633L64.3843 64.055L70.0533 59.4988L77.067 77.6633Z" fill="#0084CC"/>
<path d="M67.2773 28.3214L71.9344 40.3492L64.9457 53.2342L60.2974 41.6349L67.2773 28.3214Z" fill="#00257D"/>
<path d="M62.8169 44.8951L62.6149 44.8393L67.1759 28.2918C67.1818 28.2705 67.1942 28.2515 67.2114 28.2377C67.2286 28.2238 67.2498 28.2157 67.2719 28.2146C67.2939 28.2135 67.3158 28.2194 67.3343 28.2314C67.3529 28.2435 67.3671 28.2611 67.3751 28.2817L72.0323 40.3095L71.8365 40.3852L67.2939 28.6535L62.8169 44.8951Z" fill="#00257D"/>
<path d="M70.2872 20.8826H70.2751L67.2022 20.5235C67.1869 20.5217 67.1723 20.5166 67.1592 20.5085C67.1461 20.5005 67.135 20.4896 67.1266 20.4768C67.1182 20.4639 67.1127 20.4494 67.1106 20.4342C67.1084 20.419 67.1096 20.4035 67.114 20.3888L69.9527 10.9863C69.9591 10.9652 69.972 10.9466 69.9895 10.9333C70.0071 10.9199 70.0284 10.9124 70.0504 10.9118C70.0725 10.9112 70.0941 10.9176 70.1124 10.93C70.1306 10.9425 70.1444 10.9603 70.1519 10.9811L72.8527 18.4564C72.8607 18.4787 72.8609 18.5031 72.8533 18.5255C72.8457 18.548 72.8307 18.5672 72.8108 18.58L70.9048 19.8227C70.8916 19.8313 70.8766 19.8368 70.8609 19.8389C70.8452 19.8409 70.8293 19.8394 70.8143 19.8344C70.7993 19.8294 70.7857 19.8211 70.7743 19.8101C70.763 19.7991 70.7543 19.7857 70.7489 19.7708L70.2123 18.3053L70.3919 20.7692C70.393 20.7836 70.391 20.7981 70.3862 20.8117C70.3814 20.8253 70.3739 20.8378 70.364 20.8484C70.3542 20.8589 70.3422 20.8673 70.329 20.8731C70.3157 20.8788 70.3015 20.8818 70.287 20.8817L70.2872 20.8826ZM67.3512 20.329L70.1735 20.6587L69.9485 17.574C69.9466 17.5487 69.9539 17.5235 69.969 17.5031C69.9842 17.4828 70.0063 17.4686 70.0311 17.4633C70.056 17.458 70.0819 17.4618 70.1041 17.4742C70.1263 17.4865 70.1433 17.5065 70.1519 17.5304L70.9002 19.5761L72.6271 18.4497L70.0621 11.3487L67.3512 20.329Z" fill="#00257D"/>
<path d="M70.0533 11.015L72.7541 18.4903L70.8469 19.7345L70.0533 17.5645L70.2873 20.7765L67.2146 20.4175L70.0533 11.015Z" fill="#00257D"/>
<path d="M50.6468 4.21973L44.7069 23.338L52.5142 26.4963L61.8646 28.1062L67.8331 20.0699L69.2984 15.1142L61.8646 4.21973H50.6468Z" fill="#FFD6B5"/>
<path d="M53.2114 2.83434L60.4582 1.85376L68.8692 5.49699L70.8467 8.39718L67.8805 27.1568L66.941 27.305L66.4584 22.3878L65.6012 27.5163L61.8641 28.1055L63.3454 20.8675C65.9705 21.5915 68.3278 19.7961 68.3152 17.3718C68.3033 15.0795 65.917 15.6129 64.6311 17.0348C65.3275 13.7554 66.1369 7.96093 66.1369 7.96093L53.2114 2.83434Z" fill="#00257D"/>
<path d="M51.3769 14.0285C49.7563 13.6804 49.0867 12.9436 49.0867 11.015C50.8546 11.2962 51.4879 12.3341 51.3769 14.0285Z" fill="white"/>
<path d="M56.0785 15.2757C58.1139 13.6685 60.5386 13.1059 63.3513 15.0348C61.1281 16.843 57.7929 16.6814 56.0785 15.2757Z" fill="white"/>
<path d="M59.5979 16.4556C58.219 16.4556 56.8685 16.0596 56.0119 15.3571C55.9998 15.3471 55.99 15.3346 55.9834 15.3204C55.9768 15.3062 55.9734 15.2907 55.9735 15.275C55.9737 15.2593 55.9773 15.2438 55.9842 15.2298C55.9911 15.2157 56.0011 15.2033 56.0134 15.1936C58.4056 13.305 60.8943 13.2228 63.4107 14.9483C63.4235 14.9571 63.4343 14.9687 63.4421 14.9822C63.45 14.9957 63.4547 15.0108 63.4559 15.0264C63.4572 15.0419 63.455 15.0576 63.4494 15.0722C63.4439 15.0868 63.4352 15.0999 63.4239 15.1107C62.454 16.0384 61.0111 16.4556 59.5979 16.4556ZM56.2486 15.2765C57.9311 16.5477 61.3507 16.6843 63.183 15.0478C60.794 13.4568 58.5241 13.5315 56.2486 15.2756V15.2765Z" fill="#00257D"/>
<path d="M51.3771 14.1333C51.37 14.1333 51.363 14.1325 51.3561 14.131C49.6262 13.7594 48.9828 12.9139 48.9828 11.0149C48.9828 10.9997 48.9861 10.9847 48.9924 10.9709C48.9988 10.9571 49.0081 10.9449 49.0196 10.935C49.0312 10.9252 49.0447 10.9179 49.0593 10.9138C49.074 10.9097 49.0893 10.9088 49.1043 10.9112C50.8485 11.1886 51.6043 12.1814 51.4828 14.0353C51.4818 14.0504 51.4775 14.065 51.4702 14.0783C51.463 14.0916 51.453 14.1031 51.4408 14.1121C51.4225 14.126 51.4001 14.1334 51.3771 14.1333ZM49.1926 11.1393C49.2186 12.8059 49.7777 13.5458 51.2793 13.8989C51.3523 12.2754 50.7039 11.4184 49.1926 11.1393Z" fill="#00257D"/>
<path d="M51.8975 17.4857L53.9074 17.0841L53.9485 17.29L51.9386 17.6916L51.8975 17.4857Z" fill="#00257D"/>
<path d="M50.1466 16.1691L50.3293 16.0658L51.147 17.5124L50.9643 17.6157L50.1466 16.1691Z" fill="#00257D"/>
<path d="M50.4418 11.5111C50.2435 11.6601 50.1038 11.874 50.0473 12.1156C49.9907 12.3571 50.0209 12.6108 50.1325 12.8323C50.2441 13.0539 50.43 13.2291 50.6578 13.3274C50.8855 13.4257 51.1406 13.4408 51.3783 13.3701C51.3236 12.5462 51.0329 11.9209 50.4418 11.5111Z" fill="#00257D"/>
<path d="M61.128 14.5515C61.1277 14.3407 61.0773 14.1331 60.9811 13.9455C60.1911 13.7597 59.3677 13.7685 58.5818 13.9713C58.4945 14.1526 58.4492 14.3512 58.4492 14.5524C58.4492 14.7536 58.4946 14.9522 58.5819 15.1334C58.6692 15.3147 58.7963 15.4739 58.9536 15.5993C59.1109 15.7248 59.2945 15.8131 59.4906 15.8578C59.6868 15.9025 59.8905 15.9025 60.0866 15.8576C60.2828 15.8128 60.4663 15.7243 60.6235 15.5988C60.7808 15.4733 60.9077 15.314 60.9949 15.1327C61.0821 14.9513 61.1273 14.7527 61.1272 14.5515H61.128Z" fill="#00257D"/>
<path d="M49.4885 19.7355H57.3241L56.2793 22.95L49.4885 21.3426V19.7355Z" fill="white"/>
<path d="M56.2789 23.0547C56.2707 23.0548 56.2625 23.0539 56.2545 23.052L49.4637 21.4446C49.4407 21.4392 49.4202 21.4262 49.4055 21.4076C49.3909 21.3891 49.3829 21.3661 49.3829 21.3424V19.7353C49.3829 19.7075 49.394 19.6808 49.4137 19.6611C49.4333 19.6414 49.46 19.6304 49.4879 19.6304H57.3235C57.34 19.6304 57.3563 19.6343 57.371 19.6418C57.3857 19.6494 57.3985 19.6603 57.4082 19.6736C57.4179 19.687 57.4243 19.7025 57.4269 19.7188C57.4295 19.7352 57.4282 19.7519 57.4231 19.7676L56.3786 22.9823C56.3717 23.0034 56.3584 23.0217 56.3405 23.0347C56.3226 23.0477 56.301 23.0547 56.2789 23.0547ZM49.5934 21.2596L56.2094 22.8254L57.1795 19.8402H49.5934V21.2596Z" fill="#00257D"/>
<path d="M51.3987 21.8137L51.5129 19.7294L51.7224 19.7408L51.6082 21.8252L51.3987 21.8137Z" fill="#00257D"/>
<path d="M53.8042 22.3724L54.2198 19.719L54.4271 19.7515L54.0115 22.4049L53.8042 22.3724Z" fill="#00257D"/>
<path d="M53.2116 8.23792L52.9042 10.4924L49.33 9.82262L49.6474 8.75139L53.2116 8.23792Z" fill="#00257D"/>
<path d="M57.8465 9.28711L57.2655 11.6564L61.6237 13.225L61.8648 12.0595L57.8465 9.28711Z" fill="#00257D"/>
<path d="M55.3686 3.247C55.3686 3.247 51.8995 1.31836 48.242 0.675415C45.4025 4.80086 47.9742 10.7477 47.9742 10.7477L50.729 5.32608L56.3317 4.80149C57.3948 11.6821 61.1075 13.7826 64.6894 16.1194C66.2608 13.5382 67.043 10.5539 66.9397 7.5338C63.887 4.7463 55.3686 3.247 55.3686 3.247Z" fill="#00257D"/>
<path d="M56.4544 28.2042L44.6677 23.436C44.6434 23.4262 44.6236 23.4076 44.6123 23.3839C44.601 23.3602 44.599 23.3331 44.6066 23.308L50.1378 5.19885L50.3384 5.26013L44.8354 23.2769L56.5331 28.0092L56.4544 28.2042Z" fill="#00257D"/>
<path d="M61.8647 28.2107C61.8491 28.2107 61.8338 28.2073 61.8197 28.2006C61.8056 28.1939 61.7933 28.1842 61.7834 28.1722C61.7736 28.1601 61.7665 28.146 61.7628 28.1309C61.7591 28.1158 61.7588 28.1 61.7619 28.0848L63.2431 20.8468C63.246 20.8327 63.2517 20.8194 63.26 20.8077C63.2682 20.7959 63.2788 20.786 63.291 20.7784C63.3032 20.7709 63.3169 20.766 63.3311 20.764C63.3453 20.7619 63.3598 20.7629 63.3736 20.7667C63.9592 20.9415 64.5775 20.9772 65.1793 20.8709C65.7811 20.7647 66.3498 20.5195 66.8402 20.1548C67.2696 19.8298 67.6171 19.409 67.855 18.926C68.093 18.4429 68.2149 17.911 68.2109 17.3725C68.2071 16.6513 67.9567 16.1764 67.4869 15.9957C66.7481 15.7133 65.5276 16.2008 64.7097 17.1054C64.6942 17.1226 64.6735 17.1342 64.6508 17.1385C64.6281 17.1427 64.6045 17.1393 64.5839 17.1288C64.5633 17.1183 64.5468 17.1013 64.5368 17.0804C64.5269 17.0595 64.5242 17.0359 64.529 17.0133C65.172 13.9857 65.9207 8.74559 66.022 8.02836L53.1734 2.93178C53.1517 2.92327 53.1335 2.90782 53.1216 2.88785C53.1097 2.86788 53.1048 2.84452 53.1076 2.82145C53.1104 2.79837 53.1208 2.77687 53.1371 2.76034C53.1535 2.74382 53.1749 2.73318 53.1979 2.73012L60.4443 1.74954C60.4633 1.74709 60.4825 1.74977 60.5001 1.75731L68.9113 5.40054C68.9295 5.40836 68.9451 5.42125 68.9562 5.43768L70.9333 8.33745C70.9484 8.35954 70.9545 8.38656 70.9503 8.41299L67.984 27.1726C67.9806 27.1945 67.9703 27.2148 67.9546 27.2305C67.9389 27.2462 67.9186 27.2565 67.8967 27.2599L66.9571 27.4081C66.943 27.4103 66.9285 27.4096 66.9147 27.406C66.9009 27.4025 66.8879 27.3961 66.8766 27.3874C66.8653 27.3787 66.8559 27.3677 66.849 27.3552C66.8421 27.3427 66.8378 27.3289 66.8364 27.3147L66.4316 23.1859L65.7052 27.5344C65.7016 27.5561 65.6912 27.5762 65.6756 27.5917C65.66 27.6072 65.6398 27.6174 65.6181 27.6209L61.8817 28.2094C61.8761 28.2103 61.8704 28.2107 61.8647 28.2107ZM63.4263 20.9975L61.9977 27.9786L65.5106 27.4247L66.3555 22.3707C66.3586 22.3451 66.3714 22.3217 66.3914 22.3054C66.4113 22.2891 66.4368 22.2811 66.4625 22.2832C66.4879 22.284 66.5122 22.2941 66.5308 22.3115C66.5493 22.3289 66.5609 22.3525 66.5634 22.3778L67.0345 27.1844L67.7889 27.0654L70.7369 8.42139L68.8003 5.581L60.4434 1.96148L53.6237 2.88477L66.1769 7.86426C66.1987 7.87292 66.2171 7.88868 66.2289 7.909C66.2407 7.92932 66.2454 7.95303 66.2421 7.97632C66.2344 8.03213 65.48 13.4149 64.8079 16.7082C65.6743 15.8996 66.8104 15.5121 67.5627 15.8002C67.9515 15.9487 68.4161 16.342 68.4215 17.3719C68.4259 17.9428 68.2967 18.5068 68.0445 19.019C67.7922 19.5312 67.4238 19.9774 66.9686 20.322C66.468 20.6957 65.8889 20.9507 65.2753 21.0677C64.6616 21.1848 64.0293 21.1607 63.4263 20.9975Z" fill="#00257D"/>
<path d="M45.2426 32.3396L37.8491 45.0903L33 76.0701C33 76.0701 39.3192 78.533 43.5 79.0701C48.5354 79.7169 56.5 79.0701 56.5 79.0701L62.7159 36.5951L50.6002 41.5547L45.2426 32.3396Z" fill="#0084CC"/>
<path d="M64.6906 16.2243C64.6702 16.2242 64.6503 16.2183 64.6333 16.2071L64.1297 15.8797C60.7636 13.698 57.2843 11.4435 56.2445 4.91394L50.7971 5.42469L48.0692 10.7949C48.0603 10.8128 48.0465 10.8277 48.0293 10.8379C48.0121 10.8481 47.9924 10.853 47.9724 10.8522C47.9526 10.8516 47.9333 10.8453 47.9168 10.8342C47.9004 10.823 47.8874 10.8075 47.8795 10.7892C47.8535 10.7292 45.3176 4.74125 48.1573 0.615804C48.1687 0.599184 48.1847 0.586207 48.2033 0.578429C48.2219 0.570651 48.2424 0.568401 48.2622 0.571948C51.7699 1.18867 55.1468 3.00608 55.4052 3.14668C55.6135 3.18424 57.67 3.56174 60.0397 4.24435C63.3883 5.20961 65.7343 6.28902 67.0128 7.45489C67.0231 7.46425 67.0313 7.47553 67.0372 7.4881C67.043 7.50067 67.0463 7.51428 67.0468 7.52812C67.1422 10.57 66.3538 13.5743 64.7772 16.1775C64.7677 16.1918 64.7548 16.2035 64.7397 16.2117C64.7246 16.2198 64.7077 16.2242 64.6906 16.2243ZM56.3329 4.69571C56.3579 4.69571 56.3821 4.70466 56.4011 4.72094C56.4201 4.73721 56.4327 4.75975 56.4365 4.78447C57.4438 11.2962 60.8998 13.5362 64.2425 15.7028L64.6591 15.9731C66.1628 13.4374 66.918 10.5279 66.8372 7.581C63.813 4.86631 55.4343 3.36512 55.3498 3.35022C55.3383 3.34811 55.3272 3.34414 55.317 3.33847C55.2826 3.31937 51.8633 1.43439 48.2908 0.790391C45.8722 4.38116 47.5714 9.4043 47.9861 10.4929L50.6357 5.27844C50.6437 5.2626 50.6556 5.24905 50.6703 5.23907C50.685 5.22909 50.702 5.22299 50.7197 5.22136L56.3224 4.69676C56.3258 4.69617 56.3293 4.69582 56.3329 4.69571Z" fill="#00257D"/>
<path d="M66.6287 10.4005L70.7996 8.30369L70.8938 8.49117L66.7229 10.588L66.6287 10.4005Z" fill="white"/>
<path d="M65.5641 14.2731L70.2392 11.8441L70.3359 12.0303L65.6608 14.4593L65.5641 14.2731Z" fill="white"/>
<path d="M64.6444 16.0359L70.0065 13.3338L70.1009 13.5212L64.7388 16.2233L64.6444 16.0359Z" fill="white"/>
<path d="M50.0951 42.0408L49.0347 42.2309L48.2197 45.0222L49.266 44.8346L48.5878 47.1204L50.5168 43.9501L49.4729 44.1371L50.0951 42.0408Z" fill="white"/>
<path d="M62.6407 36.6266L62.5548 36.6616L62.4938 36.8679L62.6407 36.6266Z" fill="white"/>
<path d="M60.3491 40.2491L59.3052 40.436L59.9271 38.3397L58.867 38.5298L58.052 41.3211L59.0983 41.1337L58.4201 43.4193L60.3491 40.2491Z" fill="white"/>
<path d="M46.5352 35.623L47.0933 35.5227L46.7412 34.9171L46.5352 35.623Z" fill="white"/>
<path d="M46.9033 37.7214L47.6541 36.4874L47.3994 36.0494L46.9033 37.7214Z" fill="white"/>
<path d="M44.7585 41.1026L43.7148 41.2896L44.3368 39.1935L43.2764 39.3836L42.4614 42.1749L43.5077 41.9873L42.8295 44.2731L44.7585 41.1026Z" fill="white"/>
<path d="M53.8861 62.7499L52.8422 62.9371L53.4641 60.8408L52.404 61.0307L51.589 63.8222L52.6352 63.6346L51.957 65.9204L53.8861 62.7499Z" fill="white"/>
<path d="M57.9598 56.1999L56.9159 56.3869L57.5378 54.2908L56.4777 54.4807L55.6627 57.272L56.709 57.0846L56.0308 59.3704L57.9598 56.1999Z" fill="white"/>
<path d="M50.9506 54.2355L50.2724 56.5212L52.2014 53.3508L51.1575 53.5379L51.7794 51.4417L50.7193 51.6318L49.9043 54.4231L50.9506 54.2355Z" fill="white"/>
<path d="M48.1274 59.9001L47.0835 60.0873L47.7054 57.9912L46.6453 58.1811L45.8303 60.9724L46.8766 60.785L46.1984 63.0708L48.1274 59.9001Z" fill="white"/>
<path d="M44.2969 67.4802L43.2529 67.6674L43.8749 65.5713L42.8148 65.7612L41.9998 68.5525L43.046 68.3651L42.3678 70.6509L44.2969 67.4802Z" fill="white"/>
<path d="M39.2969 73.4802L38.2529 73.6674L38.8749 71.5713L37.8148 71.7612L36.9998 74.5525L38.046 74.3651L37.3678 76.6509L39.2969 73.4802Z" fill="white"/>
<path d="M49.2969 72.4802L48.2529 72.6674L48.8749 70.5713L47.8148 70.7612L46.9998 73.5525L48.046 73.3651L47.3678 75.6509L49.2969 72.4802Z" fill="white"/>
<path d="M59.7365 50.7201L59.9029 50.6903L60.2434 48.9835L59.7365 50.7201Z" fill="white"/>
<path d="M56.2754 46.7989L55.2314 46.9859L55.8534 44.8898L54.7933 45.0797L53.9783 47.8712L55.0245 47.6836L54.3463 49.9694L56.2754 46.7989Z" fill="white"/>
<path d="M44.961 48.7826L44.146 51.574L45.1923 51.3865L44.5141 53.6722L46.4431 50.5018L45.3994 50.6887L46.0211 48.5927L44.961 48.7826Z" fill="white"/>
<path d="M55.1486 70.2399L54.0885 70.4298L53.7404 71.6221L54.6544 71.9056L55.1486 70.2399Z" fill="white"/>
<path d="M55.4875 72.1655L55.5499 72.1846L55.5707 72.1504L55.4875 72.1655Z" fill="white"/>
<path d="M42.3691 57.0518L41.3254 57.239L41.9474 55.1427L40.887 55.3328L40.072 58.1241L41.1183 57.9365L40.4401 60.2223L42.3691 57.0518Z" fill="white"/>
<path d="M37.2517 63.7909L37.8736 61.6946L36.8133 61.8847L35.9983 64.676L37.0445 64.4886L36.5126 66.2817L36.6417 66.3218L38.2956 63.6037L37.2517 63.7909Z" fill="white"/>
<path d="M40.6848 47.6526L39.6408 47.8398L40.2628 45.7435L39.2025 45.9336L38.3875 48.7249L39.4337 48.5373L38.7555 50.8233L40.6848 47.6526Z" fill="white"/>
<path d="M49.0869 31.897L52.4672 42.92L49.3299 45.0898L46.0999 32.3391L49.0869 31.897Z" fill="#8FD2FF"/>
<path d="M48.9865 31.9265L49.1871 31.865L52.5674 42.8879L52.3668 42.9495L48.9865 31.9265Z" fill="#00257D"/>
<path d="M45.9982 32.3654L46.2016 32.3138L49.4316 45.0647L49.2282 45.1162L45.9982 32.3654Z" fill="#00257D"/>
<path d="M58.3689 34.4731L40.8527 46.7148L39.9741 51.5606L54.5246 41.4971L58.3689 34.4731Z" fill="#8FD2FF"/>
<path d="M41.3749 46.2234L56.9414 35.3389L57.0617 35.5109L41.4951 46.3954L41.3749 46.2234Z" fill="#00257D"/>
<path d="M40.6442 50.9663L55.5513 40.6622L55.6706 40.8348L40.7635 51.1389L40.6442 50.9663Z" fill="#00257D"/>
<path d="M64.3337 18.6088L66.8276 17.2396L66.9286 17.4235L64.4347 18.7927L64.3337 18.6088Z" fill="#00257D"/>
<path d="M64.8433 18.4152L65.0481 18.3695L65.3437 19.6954L65.1389 19.7411L64.8433 18.4152Z" fill="#00257D"/>
<path d="M66.6506 16.5656L66.8545 16.516L67.3791 18.6756L67.1752 18.7252L66.6506 16.5656Z" fill="#00257D"/>
<path d="M64.7745 16.1822L64.6067 16.0563C65.9077 14.3368 66.656 11.4864 66.8335 7.58273C66.4768 7.30449 63.8036 5.29884 59.5411 4.32288L59.5881 4.11829C64.2025 5.17483 66.9797 7.43039 67.0072 7.45305L67.0477 7.48621L67.0454 7.53867C66.871 11.5116 66.1068 14.4195 64.7745 16.1822Z" fill="white"/>
<path d="M43.3139 26.02L35.8132 40.747L32.1702 65.5791L36.0274 70.1117L42.5637 45.5185L51.8995 31.897C49.4907 29.3072 46.7397 27.1934 43.3139 26.02Z" fill="#00257D"/>
<path d="M56.9294 31.8965L52.4215 49.8888L50.6469 75.9491L59.7151 75.0919L66.2444 53.3669L64.1175 50.1253L62.716 44.8671L67.2775 28.3196C64.0961 28.8882 59.9432 29.7985 56.9294 31.8965Z" fill="#00257D"/>
<path d="M36.0275 70.217C36.0124 70.217 35.9974 70.2137 35.9836 70.2073C35.9698 70.201 35.9576 70.1917 35.9478 70.1801L32.0903 65.6476C32.0805 65.6361 32.0733 65.6227 32.0692 65.6082C32.0651 65.5937 32.0641 65.5785 32.0664 65.5636L35.7094 40.7315C35.7111 40.7201 35.7146 40.7091 35.7199 40.6989L43.2204 25.9724C43.2318 25.9498 43.251 25.9322 43.2745 25.9226C43.2979 25.9131 43.324 25.9124 43.348 25.9206C46.4452 26.9813 49.2675 28.9129 51.9764 31.8257C51.9926 31.8431 52.0024 31.8656 52.0041 31.8893C52.0059 31.9131 51.9995 31.9367 51.986 31.9564L42.6603 45.5639L36.1291 70.14C36.1242 70.1585 36.1143 70.1753 36.1005 70.1886C36.0867 70.2019 36.0695 70.2111 36.0508 70.2154C36.0431 70.2168 36.0353 70.2173 36.0275 70.217ZM32.2808 65.5469L35.9778 69.8905L42.4618 45.4906C42.465 45.479 42.47 45.4681 42.4767 45.4581L51.7648 31.9058C49.1234 29.082 46.3745 27.1974 43.366 26.1495L35.9146 40.7795L32.2808 65.5469Z" fill="#00257D"/>
<path d="M50.6469 76.0546C50.6325 76.0546 50.6183 76.0517 50.605 76.046C50.5918 76.0403 50.5799 76.0319 50.5701 76.0214C50.5602 76.0109 50.5527 75.9985 50.5478 75.9849C50.543 75.9713 50.541 75.9569 50.542 75.9425L52.3172 49.8828L56.8288 31.8721C56.835 31.8475 56.8499 31.8259 56.8707 31.8114C59.8471 29.7393 63.9862 28.8026 67.2597 28.2179C67.2772 28.2148 67.2952 28.2162 67.312 28.2219C67.3288 28.2276 67.3439 28.2375 67.3558 28.2507C67.3677 28.2638 67.3761 28.2797 67.3802 28.2969C67.3843 28.3141 67.384 28.332 67.3793 28.3491L62.8258 44.8693L64.2153 50.083L65.5825 52.1663C65.5905 52.1785 65.5958 52.1923 65.5983 52.2068C65.6007 52.2212 65.6001 52.236 65.5965 52.2502L59.8175 75.1196C59.8122 75.1406 59.8005 75.1594 59.7841 75.1735C59.7676 75.1876 59.7472 75.1962 59.7256 75.1982L50.6576 76.0554C50.654 76.0554 50.6505 76.0551 50.6469 76.0546V76.0546ZM57.022 31.9606L52.5229 49.9149L50.7602 75.8336L59.6316 74.9943L65.3812 52.2414L64.0303 50.1825C64.0242 50.1731 64.0196 50.1628 64.0166 50.152L62.6153 44.8945C62.6104 44.8765 62.6104 44.8575 62.6153 44.8395L67.1321 28.4525C63.9184 29.034 59.9134 29.9615 57.022 31.9606V31.9606Z" fill="#00257D"/>
<path d="M66.67 30.3203C73.5958 37.1604 79.4167 45.0351 83.9245 53.6626L77.0667 77.6647L65.2412 54.9483L66.2443 53.3678L64.1173 50.1262L62.7158 44.8681L66.67 30.3203Z" fill="#0084CC"/>
<path d="M74.1749 38.6426L73.6426 40.4659L74.6888 40.2783L74.0104 42.5641L75.4201 40.2476C75.2502 40.0239 75.0773 39.8015 74.905 39.5789L74.8957 39.5806L74.8987 39.5707C74.6588 39.2608 74.4196 38.9502 74.1749 38.6426Z" fill="white"/>
<path d="M70.1814 36.5445L69.1374 36.7317L69.7594 34.6354L68.6991 34.8255L67.884 37.6168L68.9305 37.4294L68.2523 39.7152L70.1814 36.5445Z" fill="white"/>
<path d="M79.3087 58.192L78.2648 58.379L78.8869 56.2827L77.8266 56.4728L77.0116 59.2641L78.0579 59.0765L77.3797 61.3623L79.3087 58.192Z" fill="white"/>
<path d="M82.1311 52.5272L81.4529 54.813L83.0963 52.1136C83.0267 51.986 82.9538 51.8593 82.8835 51.7319L82.3392 51.8293L82.547 51.1295C82.3297 50.7428 82.1096 50.3571 81.8866 49.9724L81.0861 52.7146L82.1311 52.5272Z" fill="white"/>
<path d="M77.6241 48.7929L76.5804 48.9798L77.2024 46.8835L76.142 47.0737L75.327 49.8649L76.3733 49.6776L75.6951 51.9633L77.6241 48.7929Z" fill="white"/>
<path d="M73.5503 55.3447L72.5065 55.5316L73.1285 53.4355L72.0682 53.6255L71.2532 56.4169L72.2994 56.2294L71.6212 58.5151L73.5503 55.3447Z" fill="white"/>
<path d="M71.8662 45.9437L70.8222 46.1308L71.4442 44.0345L70.3839 44.2247L69.5688 47.0159L70.6151 46.8283L69.9369 49.1141L71.8662 45.9437Z" fill="white"/>
<path d="M78.6964 68.6644L79.6892 68.4865L80.4857 65.6984L79.5114 65.8732L78.6964 68.6644Z" fill="white"/>
<path d="M75.235 64.7437L74.1912 64.9307L74.813 62.8346L73.7529 63.0245L72.9379 65.816L73.9841 65.6284L73.3059 67.9142L75.235 64.7437Z" fill="white"/>
<path d="M67.7921 52.4955L66.7482 52.6825L67.3701 50.5864L66.3098 50.7763L65.7661 52.6384L66.2443 53.3672L66.1971 53.4417L66.5413 53.3802L65.8631 55.666L67.7921 52.4955Z" fill="white"/>
<path d="M64.6255 41.3773L63.8103 44.1688L64.8568 43.9812L64.1786 46.267L66.1076 43.0965L65.0637 43.2835L65.6856 41.1874L64.6255 41.3773Z" fill="white"/>
<path d="M65.2415 54.9478L77.0669 77.6642L78.6277 72.2014L66.2445 53.3673L65.2415 54.9478Z" fill="#8FD2FF"/>
<path d="M77.0669 77.7695C77.0477 77.7695 77.0289 77.7643 77.0125 77.7543C76.9961 77.7444 76.9828 77.7301 76.9739 77.7131L65.1484 54.9967C65.1399 54.9804 65.1358 54.9621 65.1365 54.9437C65.1373 54.9252 65.1429 54.9074 65.1528 54.8918L66.1196 53.3686L64.0298 50.1834C64.0237 50.174 64.0191 50.1638 64.0161 50.153L62.6148 44.8955C62.61 44.8776 62.61 44.8588 62.6148 44.8409L66.5688 30.2925C66.5736 30.2748 66.5831 30.2587 66.5961 30.2457C66.6091 30.2327 66.6253 30.2234 66.6431 30.2187C66.6609 30.214 66.6796 30.214 66.6973 30.2188C66.7151 30.2236 66.7312 30.233 66.7442 30.246C73.8683 37.3763 79.5182 45.0199 84.0176 53.6137C84.0301 53.6375 84.0329 53.6652 84.0256 53.6911L77.1678 77.6934C77.162 77.7136 77.1503 77.7316 77.1342 77.745C77.1181 77.7585 77.0983 77.7668 77.0774 77.7689C77.0739 77.7693 77.0704 77.7696 77.0669 77.7695ZM65.3625 54.9535L77.0383 77.3826L83.8122 53.6741C79.3531 45.1662 73.7621 37.591 66.7239 30.5227L62.8247 44.868L64.2144 50.0819L66.3321 53.3094C66.3431 53.3264 66.3489 53.3461 66.3489 53.3663C66.3489 53.3864 66.3431 53.4062 66.3321 53.4231L65.3625 54.9535Z" fill="#00257D"/>
<path d="M67.2006 67.2308L67.3541 67.0878L77.1437 77.5918L76.9902 77.7348L67.2006 67.2308Z" fill="#00257D"/>
<path d="M66.1569 53.4244L66.3322 53.3092L78.7151 72.1432L78.5398 72.2584L66.1569 53.4244Z" fill="#00257D"/>
<path d="M65.2413 54.9476L56.4936 67.9447L56.0785 78.8427L57.3768 89.6475L59.4502 88.7851L58.9046 81.7357L60.8549 85.917L63.5855 88.4002L66.9945 85.5789L65.2802 83.2751L64.1015 78.5212L66.5658 81.95L68.1434 83.2571L69.3643 81.6654L68.066 80.4498L65.2802 70.4313L70.8841 65.7871L65.2413 54.9476Z" fill="#FFD6B5"/>
<path d="M57.3767 89.7518C57.3509 89.752 57.326 89.7426 57.3066 89.7256C57.2873 89.7086 57.2749 89.685 57.2718 89.6594L55.9735 78.8544L56.3882 67.94C56.3888 67.9204 56.395 67.9014 56.406 67.8852L65.155 54.8888C65.1652 54.8738 65.1791 54.8616 65.1954 54.8535C65.2117 54.8454 65.2298 54.8417 65.2479 54.8427C65.2661 54.8437 65.2836 54.8494 65.2989 54.8593C65.3142 54.8691 65.3267 54.8828 65.3351 54.8989L70.9777 65.7384C70.9888 65.7596 70.9922 65.7841 70.9875 65.8076C70.9828 65.8311 70.9701 65.8523 70.9516 65.8676L65.3993 70.4675L68.1591 80.3929L69.4358 81.589C69.4548 81.6068 69.4666 81.6311 69.4688 81.657C69.471 81.683 69.4634 81.7089 69.4475 81.7296L68.2267 83.3214C68.2181 83.3326 68.2073 83.342 68.195 83.3489C68.1827 83.3559 68.1691 83.3602 68.1551 83.3618C68.1411 83.3634 68.1269 83.3621 68.1134 83.358C68.0998 83.354 68.0873 83.3473 68.0764 83.3382L66.498 82.0297C66.4911 82.024 66.4849 82.0174 66.4797 82.0102L64.348 79.0441L65.3762 82.9236L67.0814 85.5204C67.0955 85.542 67.1011 85.568 67.0973 85.5935C67.0934 85.619 67.0803 85.6422 67.0604 85.6586L63.6513 88.4799C63.6319 88.496 63.6072 88.5045 63.582 88.5039C63.5567 88.5033 63.5325 88.4936 63.5139 88.4766L60.7832 85.9935C60.7729 85.9843 60.7646 85.973 60.7587 85.9604L59.0527 82.3027L59.5538 88.776C59.5555 88.7981 59.5502 88.8201 59.5386 88.8389C59.527 88.8578 59.5098 88.8725 59.4894 88.8809L57.4159 89.7434C57.4035 89.7486 57.3902 89.7515 57.3767 89.7518ZM56.5972 67.9778L56.1831 78.846L57.4632 89.4968L59.3387 88.7168L58.7988 81.743C58.7968 81.7185 58.8036 81.6941 58.8178 81.674C58.8321 81.6539 58.8529 81.6395 58.8767 81.6333C58.9005 81.627 58.9258 81.6293 58.9481 81.6398C58.9703 81.6503 58.9882 81.6683 58.9986 81.6906L60.94 85.853L63.5888 88.2619L66.8547 85.5577L65.1918 83.0254C65.1856 83.0159 65.1809 83.0055 65.1779 82.9945L64.0009 78.5478C63.9945 78.5241 63.9967 78.4988 64.007 78.4765C64.0174 78.4542 64.0352 78.4362 64.0575 78.4257C64.0797 78.4152 64.1049 78.4129 64.1287 78.4191C64.1525 78.4253 64.1734 78.4397 64.1877 78.4597L66.6443 81.8775L68.1274 83.1066L69.224 81.6767L67.9952 80.5262C67.9812 80.513 67.971 80.4962 67.9658 80.4777L65.179 70.4591C65.1735 70.4396 65.1739 70.4189 65.18 70.3996C65.186 70.3803 65.1976 70.3631 65.2132 70.3502L70.7529 65.76L65.231 55.1526L56.5972 67.9778Z" fill="#00257D"/>
<path d="M65.0692 87.1714L62.7341 84.267C62.7276 84.2591 62.7224 84.2503 62.7185 84.2408L60.9504 79.9011L61.1447 79.822L62.9074 84.1474L65.233 87.0401L65.0692 87.1714Z" fill="#00257D"/>
<path d="M61.2609 30.5325L61.8988 27.4191L62.1043 27.4612L61.4664 30.5746L61.2609 30.5325Z" fill="#00257D"/>
<path d="M51.7965 31.8749L52.8774 26.663L53.0828 26.7056L52.002 31.9175L51.7965 31.8749Z" fill="#00257D"/>
<path d="M10.6951 22.9332H3.99806V22.7234H10.5902V12.5397H3.14087V12.3298H10.6951C10.7229 12.3298 10.7496 12.3409 10.7693 12.3606C10.789 12.3802 10.8 12.4069 10.8 12.4348V22.8283C10.8 22.8561 10.789 22.8828 10.7693 22.9025C10.7496 22.9222 10.7229 22.9332 10.6951 22.9332Z" fill="#00257D"/>
<path d="M1.18176 14.9963H10.6948V15.2062H1.18176V14.9963Z" fill="#00257D"/>
<path d="M1.86548 17.6683H10.6951V17.8782H1.86548V17.6683Z" fill="#00257D"/>
<path d="M2.54358 20.3201H10.695V20.5299H2.54358V20.3201Z" fill="#00257D"/>
<path d="M28.8854 32.7177L29.0949 32.7055L30.5741 58.121L30.3646 58.1332L28.8854 32.7177Z" fill="#00257D"/>
</svg>
