<svg width="72" height="72" viewBox="0 0 72 72" fill="none" xmlns="http://www.w3.org/2000/svg">
<circle cx="36" cy="36" r="36" fill="#F1F3FA"/>
<g clip-path="url(#clip0_850_6330)">
<path d="M25.7726 33.7061C24.4726 33.7061 23.4186 34.76 23.4186 36.06L22.5713 41.1552L23.4186 45.8318C23.4186 47.1318 24.4726 48.1857 25.7726 48.1857C27.0727 48.1857 28.1266 47.1317 28.1266 45.8318V36.06C28.1266 34.7599 27.0727 33.7061 25.7726 33.7061Z" fill="#163788"/>
<path d="M26.8591 47.9199C26.5338 48.0901 26.1644 48.1857 25.7726 48.1857C24.4724 48.1857 23.4192 47.1318 23.4192 45.8316L22.0166 40.1812L23.4192 36.0602C23.4192 34.76 24.4724 33.7061 25.7726 33.7061C26.1644 33.7061 26.5338 33.8017 26.8591 33.9719C26.1058 34.3638 25.5922 35.1519 25.5922 36.0602V45.8316C25.5922 46.7399 26.1058 47.528 26.8591 47.9199Z" fill="#2C4A93"/>
<path d="M48.7035 52.5625V52.5623L48.6959 52.5626L37.9422 52.8916C37.3936 52.8898 36.9343 52.468 36.9094 51.9382L36.9094 51.9382C36.8822 51.3624 37.3408 50.8873 37.9104 50.8873H47.3283C47.7398 50.8873 48.1873 50.7094 48.5308 50.4434C48.8713 50.1798 49.1586 49.7894 49.1586 49.3356H49.159L49.1582 49.3222L48.8305 43.2248C48.8337 42.6775 49.255 42.2197 49.7839 42.1948L49.7839 42.1948C50.3597 42.1676 50.8348 42.6262 50.8348 43.1958V50.7938C50.8349 51.3646 50.5995 51.7975 50.2254 52.0933C49.8453 52.3938 49.3083 52.5625 48.7035 52.5625ZM49.7721 41.945V41.9451V41.945Z" fill="white" stroke="#163788" stroke-width="0.5"/>
<path d="M52.3633 36.6287L51.4126 36.1626C51.2758 36.0955 51.1898 35.9554 51.1912 35.803C51.2 34.8884 51.1861 34.1504 51.1919 34.0227C51.1919 31.7237 50.68 29.5422 49.7641 27.5861C47.3455 22.4205 40.9888 18.9842 34.9259 18.9502C34.9259 18.9502 21.0371 25.7791 21.0836 34.1249V35.7681C21.0836 35.9431 20.9877 36.1038 20.8334 36.1865C20.5345 36.3468 20.3155 36.6901 20.2397 36.738C19.6976 37.0039 19.3539 37.5551 19.3539 38.1589L19.1689 42.9804C19.1689 43.5843 19.5126 44.1355 20.0548 44.4013L23.4192 46.3262C23.4192 45.0997 23.4192 35.0951 23.4192 34.1447C23.4192 27.1699 29.0258 21.4239 36 21.4024C42.9742 21.4239 48.5808 27.17 48.5808 34.1447V46.3262L51.8909 44.5334C52.4331 44.2675 52.9759 43.781 52.9759 43.1772L53.2491 42.5908V38.0495C53.2492 37.4457 52.9055 36.8945 52.3633 36.6287Z" fill="#2C4A93"/>
<path d="M46.227 33.7061C47.5271 33.7061 48.581 34.76 48.581 36.06L49.2072 41.2538L48.581 45.8318C48.581 47.1318 47.5271 48.1857 46.227 48.1857C44.927 48.1857 43.873 47.1317 43.873 45.8318V36.06C43.8731 34.7599 44.927 33.7061 46.227 33.7061Z" fill="#2C4A93"/>
<path d="M46.7357 47.4962C46.9044 47.6649 47.0993 47.8084 47.3137 47.9199C46.9885 48.0901 46.619 48.1857 46.2272 48.1857C45.5774 48.1857 44.9885 47.9221 44.5626 47.4962C44.1367 47.0702 43.873 46.4814 43.873 45.8316V36.0602C43.873 34.76 44.927 33.7061 46.2272 33.7061C46.619 33.7061 46.9885 33.8017 47.3137 33.9719C46.5604 34.3638 46.0461 35.1519 46.0461 36.0602V45.8316C46.0461 46.4814 46.3098 47.0702 46.7357 47.4962Z" fill="#163788"/>
<path d="M49.7639 27.586C47.3453 22.4206 42.1097 18.8264 36.0469 18.7924V18.7909C30.0805 18.7243 24.792 22.3388 22.2793 27.4548C21.2768 29.4953 20.7154 31.7748 20.7292 34.1543V35.7971C20.7292 35.9724 20.6328 36.1332 20.4785 36.2158C20.1801 36.3759 19.7122 36.5809 19.6369 36.6287C19.0943 36.8945 18.751 37.4458 18.751 38.0491V43.0507C18.751 43.6548 19.0943 44.2061 19.6369 44.4719L23.4194 46.3262V44.842L20.1787 43.3658C20.0591 43.3079 19.9824 43.184 19.9824 43.0507V38.0491C20.0002 37.6297 20.7513 37.5306 21.0609 37.3009C21.6158 37.0032 21.9606 36.4273 21.9606 35.7971V34.1543C21.9483 32.3073 22.3137 30.4875 23.0311 28.7739C23.1104 28.5845 23.358 28.5362 23.5028 28.6816C23.7624 28.9424 24.0557 29.2147 24.3552 29.3338C26.2306 24.7117 30.7237 21.4189 35.9998 21.4022C41.2984 21.4189 45.8075 24.7393 47.6676 29.3925C48.2565 30.8643 48.5803 32.4688 48.5803 34.1449V46.3262L52.3628 44.4719C52.9053 44.2061 53.2487 43.6548 53.2487 43.0507V42.5908L50.4444 44.0269C50.1552 44.1751 49.8117 43.965 49.8117 43.6401V34.1449C49.8117 32.2467 49.4338 30.4352 48.7493 28.7831C48.7026 28.6703 48.7299 28.5405 48.8196 28.4577L49.7639 27.586Z" fill="#163788"/>
<path d="M24.7297 27.8557C25.0854 28.2113 25.6824 28.1504 25.9509 27.7251C26.557 26.7652 27.2973 25.898 28.1452 25.1502C30.2309 23.3108 32.9677 22.1935 35.9607 22.1935C38.8144 22.1935 41.4353 23.2092 43.4808 24.8981C44.473 25.7173 45.3298 26.6948 46.0122 27.7916C46.2755 28.2148 46.8553 28.2995 47.2216 27.9615L49.1711 26.1625C49.4568 25.8988 49.5081 25.4663 49.2921 25.1431C48.1821 23.4821 46.7703 22.0392 45.1357 20.8935C42.535 19.0707 39.3706 18 35.9607 18C32.055 18 28.4713 19.4047 25.6881 21.7354C24.5698 22.6718 23.5808 23.7578 22.752 24.9622C22.5358 25.2763 22.5738 25.6999 22.8434 25.9694L24.7297 27.8557Z" fill="#FFAA00"/>
<path d="M47.581 27.6295L47.2217 27.9613C46.8552 28.2996 46.275 28.2148 46.0121 27.7918C45.3297 26.6951 44.4728 25.7173 43.4805 24.898C41.4349 23.2096 38.8142 22.1933 35.9603 22.1933C32.9673 22.1933 30.2307 23.311 28.1454 25.1501C27.2971 25.8983 26.5569 26.7654 25.9506 27.7251C25.6826 28.1503 25.085 28.2112 24.7293 27.8555L24.2998 27.426C25.0857 26.4061 26.5532 24.6228 27.187 24.0636C29.6136 21.9239 32.7297 20.7446 35.9603 20.7446C39.0337 20.7446 42.0318 21.8232 44.4033 23.7811C45.245 24.4765 46.806 26.5495 47.581 27.6295Z" fill="#DD9E20"/>
<path d="M39.3275 53.7557L35.7273 53.768C35.3273 53.768 35.003 53.4437 35.003 53.0437L34.8643 50.7474C34.8643 50.3473 35.1885 50.023 35.5886 50.023L35.9458 49.7739H37.0222L37.626 50.2172L38.1087 49.7739H39.6192C40.0193 49.7739 40.3436 50.0982 40.3436 50.4983V52.7686L40.0518 53.0314C40.0518 53.4314 39.7275 53.7557 39.3275 53.7557Z" fill="#FFAA00"/>
<path d="M40.3426 52.7686V53.2756C40.3426 53.6755 40.0188 54 39.6182 54H35.5105C35.1106 54 34.7861 53.6755 34.7861 53.2756V50.4985C34.7861 50.098 35.1106 49.7742 35.5105 49.7742H35.9451V52.0443C35.9451 52.4441 36.2696 52.7686 36.6694 52.7686H40.3426Z" fill="#DD9E20"/>
<path d="M37.0215 49.7742H38.108V54H37.0215V49.7742Z" fill="#DD9E20"/>
</g>
<defs>
<clipPath id="clip0_850_6330">
<rect width="36" height="36" fill="white" transform="translate(18 18)"/>
</clipPath>
</defs>
</svg>
