<svg width="148" height="136" viewBox="0 0 148 136" fill="none" xmlns="http://www.w3.org/2000/svg">
<path d="M89.0713 16.9279L99.0328 50.4007L138.628 85.1918C140.722 87.1853 141.609 90.1345 140.937 92.9504L137.264 108.337C136.565 111.258 134.376 113.439 131.69 114.238L75.0662 131.09C71.9823 132.007 68.7827 131.016 66.7456 128.795L55.6836 118.322C53.357 116.128 52.6252 112.893 53.5059 110.034L67.5042 59.7833L57.5428 26.3109L89.0713 16.9279Z" fill="#F1F3FA"/>
<path fill-rule="evenodd" clip-rule="evenodd" d="M72.6944 78.8587L64.0369 109.918C63.7306 110.99 63.9251 112.192 64.9297 113.144L71.8773 119.714C72.7887 120.578 73.887 120.876 75.1594 120.498L127.674 104.869C128.947 104.491 129.704 103.64 129.994 102.418L132.219 93.1185C132.54 91.7725 132.045 90.6599 131.203 89.9296L106.971 68.6579C106.032 67.831 104.866 67.5633 103.638 67.9288L75.0871 76.4256C73.8586 76.7912 73.0282 77.6532 72.6944 78.8587V78.8587Z" fill="#E7EAF4"/>
<path fill-rule="evenodd" clip-rule="evenodd" d="M118.317 107.654L127.674 104.869C128.947 104.491 129.704 103.64 129.994 102.418L132.219 93.1185C132.54 91.7726 132.045 90.66 131.203 89.9297L106.971 68.658C106.033 67.8311 104.866 67.5634 103.638 67.9289L94.2891 70.7112C95.5082 70.3484 96.6841 70.6133 97.6225 71.4402L121.854 92.7118C122.688 93.4448 123.191 94.5549 122.87 95.9008L120.646 105.201C120.355 106.423 119.598 107.273 118.317 107.654V107.654Z" fill="#E2E6F1"/>
<path fill-rule="evenodd" clip-rule="evenodd" d="M58.0044 27.8741L89.5332 18.4911C92.3341 17.6576 93.9389 14.6787 93.108 11.8866C92.2744 9.08544 89.3021 7.46946 86.5012 8.303L54.9724 17.686C52.1715 18.5196 50.5664 21.4978 51.4001 24.2989C52.231 27.0911 55.2032 28.7078 58.0044 27.8741Z" fill="#E7EAF4"/>
<path d="M82.158 88.7319C80.8675 89.116 79.5058 88.3865 79.1219 87.0966C78.738 85.8064 79.4765 84.442 80.767 84.0579L103.062 77.423C104.352 77.0391 105.716 77.7776 106.1 79.0678C106.484 80.358 105.743 81.7131 104.453 82.097L82.158 88.7319ZM76.2907 110.841C75.0004 111.225 73.6478 110.493 73.2611 109.194C72.8772 107.903 73.6098 106.551 74.8997 106.167L120.063 92.7265C121.353 92.3426 122.706 93.0747 123.09 94.3647C123.476 95.6639 122.744 97.0167 121.454 97.4005L76.2907 110.841ZM79.0666 99.8384C77.7763 100.222 76.412 99.4839 76.028 98.1936C75.644 96.9034 76.3826 95.539 77.6728 95.1551L111.72 85.0226C113.01 84.6387 114.366 85.3798 114.75 86.67C115.134 87.9602 114.403 89.3221 113.114 89.706L79.0666 99.8384Z" fill="#F1F3FA"/>
<path d="M14.4581 89.169C14.2333 89.0602 14.0625 88.8391 14.0582 88.5602C14.1878 82.5334 9.4231 77.4581 3.39593 77.3073C3.00464 77.2562 2.83386 77.0351 2.77116 76.5896C2.8252 76.4773 2.8252 76.4773 2.87924 76.3651C2.98733 76.1407 3.20784 75.9706 3.48671 75.9673C9.51387 76.118 14.5725 71.371 14.7021 65.3442C14.7561 65.232 14.7561 65.232 14.8102 65.1197C14.9723 64.783 15.3052 64.6675 15.6425 64.8308C15.8673 64.9397 16.0381 65.1608 16.0424 65.4397C15.9128 71.4664 20.6775 76.5418 26.7047 76.6925C27.096 76.7436 27.2668 76.9647 27.3295 77.4102C27.2754 77.5225 27.2754 77.5225 27.2214 77.6347C27.1133 77.8592 26.8928 78.0292 26.6139 78.0325C20.5868 77.8818 15.5282 82.6289 15.3985 88.6556C15.3445 88.7679 15.3445 88.7679 15.2904 88.8801C15.1824 89.1045 14.9618 89.2746 14.683 89.2779C14.683 89.2779 14.5706 89.2235 14.4581 89.169ZM8.47406 77.4137C11.5093 78.8835 13.8376 81.5334 14.8926 84.8123C16.1767 81.2821 19.0886 78.4019 22.7551 77.4094C19.2205 76.113 16.3301 73.1909 15.3248 69.5209C13.8742 73.1088 11.0163 75.8768 7.3499 76.8693C7.68715 77.0326 8.13681 77.2504 8.47406 77.4137Z" fill="#F1F3FA"/>
</svg>
