<svg width="248" height="242" viewBox="0 0 248 242" fill="none" xmlns="http://www.w3.org/2000/svg">
<g clip-path="url(#clip0_1644_3230)">
<path d="M126.665 39.1301L146.009 104.13L222.899 171.691C226.965 175.562 228.688 181.289 227.383 186.757L220.249 216.637C218.892 222.308 214.641 226.543 209.425 228.096L99.4685 260.819C93.48 262.601 87.2666 260.676 83.3108 256.363L61.8297 236.025C57.3116 231.766 55.8907 225.483 57.6009 219.931L84.7841 122.35L65.4402 57.3506L126.665 39.1301Z" fill="#314F96"/>
<path fill-rule="evenodd" clip-rule="evenodd" d="M94.8691 159.394L78.0571 219.708C77.4623 221.79 77.84 224.124 79.7908 225.972L93.2822 238.73C95.052 240.408 97.1847 240.987 99.6557 240.252L201.633 209.903C204.104 209.168 205.575 207.516 206.138 205.144L210.459 187.085C211.082 184.471 210.121 182.31 208.485 180.892L161.43 139.585C159.608 137.979 157.342 137.459 154.957 138.169L99.5153 154.669C97.1297 155.379 95.5173 157.053 94.8691 159.394Z" fill="#2C4A93"/>
<path fill-rule="evenodd" clip-rule="evenodd" d="M183.464 215.311L201.635 209.903C204.106 209.168 205.577 207.516 206.14 205.144L210.461 187.084C211.084 184.471 210.123 182.31 208.487 180.892L161.432 139.585C159.61 137.979 157.344 137.459 154.959 138.169L136.805 143.572C139.172 142.867 141.456 143.382 143.278 144.987L190.333 186.294C191.952 187.718 192.929 189.873 192.306 192.487L187.986 210.546C187.422 212.919 185.952 214.57 183.464 215.311Z" fill="#163788"/>
<path fill-rule="evenodd" clip-rule="evenodd" d="M66.3414 60.3873L127.567 42.1666C133.006 40.5479 136.122 34.7634 134.509 29.3414C132.89 23.9018 127.118 20.7638 121.679 22.3824L60.4536 40.6032C55.0147 42.2218 51.8978 48.0051 53.5166 53.4447C55.1302 58.8667 60.9019 62.0061 66.3414 60.3873Z" fill="#3D599C"/>
<path d="M113.24 178.565C110.734 179.311 108.09 177.894 107.344 175.389C106.598 172.884 108.033 170.235 110.539 169.489L153.832 156.605C156.338 155.859 158.987 157.293 159.733 159.799C160.478 162.304 159.039 164.935 156.533 165.681L113.24 178.565ZM101.846 221.499C99.3406 222.244 96.7139 220.822 95.9631 218.299C95.2174 215.794 96.64 213.168 99.1449 212.422L186.846 186.322C189.352 185.577 191.979 186.998 192.724 189.503C193.475 192.026 192.052 194.653 189.548 195.399L101.846 221.499ZM107.237 200.133C104.731 200.878 102.082 199.444 101.336 196.939C100.59 194.433 102.025 191.784 104.53 191.038L170.645 171.362C173.151 170.617 175.783 172.056 176.529 174.561C177.274 177.067 175.857 179.711 173.352 180.457L107.237 200.133Z" fill="#3D599C"/>
<path d="M212.379 34.6432C212.147 34.6195 211.927 34.4801 211.834 34.2368C210.024 28.9095 204.225 25.9788 198.89 27.7703C198.531 27.8503 198.311 27.7109 198.113 27.3401C198.125 27.2245 198.125 27.2245 198.137 27.1088C198.16 26.8774 198.299 26.6579 198.542 26.566C203.876 24.7745 206.797 18.9964 204.987 13.669C204.998 13.5534 204.998 13.5534 205.01 13.4377C205.045 13.0906 205.3 12.883 205.648 12.9186C205.88 12.9423 206.1 13.0818 206.193 13.325C208.003 18.6523 213.802 21.583 219.136 19.7916C219.496 19.7115 219.716 19.8509 219.913 20.2217C219.902 20.3374 219.902 20.3374 219.89 20.453C219.867 20.6844 219.728 20.9039 219.485 20.9959C214.151 22.7873 211.23 28.5654 213.04 33.8928C213.028 34.0085 213.028 34.0085 213.017 34.1241C212.994 34.3555 212.855 34.575 212.611 34.667C212.611 34.667 212.495 34.6551 212.379 34.6432ZM203.378 26.2427C206.509 26.5632 209.397 28.1442 211.369 30.6833C211.368 27.1773 213.003 23.7217 215.901 21.681C212.388 21.672 208.92 20.0316 206.866 17.1336C206.74 20.7435 205.117 24.0834 202.218 26.1241C202.566 26.1597 203.03 26.2071 203.378 26.2427Z" fill="#314F96"/>
</g>
<path d="M18.3181 193.414C18.0334 193.276 17.817 192.996 17.8115 192.643C17.9758 185.009 11.9404 178.58 4.30577 178.389C3.81012 178.325 3.59378 178.045 3.51437 177.48C3.58283 177.338 3.58283 177.338 3.65129 177.196C3.78821 176.912 4.06752 176.696 4.42077 176.692C12.0554 176.883 18.4632 170.87 18.6275 163.236C18.6959 163.094 18.6959 163.094 18.7644 162.952C18.9698 162.525 19.3915 162.379 19.8187 162.586C20.1035 162.724 20.3198 163.004 20.3253 163.357C20.161 170.991 26.1964 177.42 33.8311 177.61C34.3267 177.675 34.543 177.955 34.6225 178.52C34.554 178.662 34.554 178.662 34.4855 178.804C34.3486 179.088 34.0693 179.304 33.7161 179.308C26.0814 179.117 19.6736 185.13 19.5093 192.764C19.4409 192.906 19.4409 192.906 19.3724 193.048C19.2355 193.332 18.9562 193.548 18.6029 193.552C18.6029 193.552 18.4605 193.483 18.3181 193.414ZM10.7382 178.524C14.5829 180.386 17.5322 183.742 18.8685 187.896C20.4951 183.424 24.1837 179.776 28.828 178.519C24.3508 176.876 20.6895 173.175 19.4162 168.526C17.5787 173.071 13.9586 176.577 9.31428 177.834C9.74146 178.041 10.3111 178.317 10.7382 178.524Z" fill="#314F96"/>
<defs>
<clipPath id="clip0_1644_3230">
<rect width="242" height="242" fill="white" transform="translate(6)"/>
</clipPath>
</defs>
</svg>
