<svg width="199" height="135" viewBox="0 0 199 135" fill="none" xmlns="http://www.w3.org/2000/svg">
<g clip-path="url(#clip0_1615_3228)">
<path d="M23.2812 122.731L23.2063 122.452L52.9498 114.39L53.0247 114.669L23.2812 122.731Z" fill="#C0C9DF"/>
<path d="M37.8906 113.555L37.8273 113.274L55.2475 109.354L55.3108 109.635L37.8906 113.555Z" fill="#C0C9DF"/>
<path d="M56.0781 60.989L39.8189 54.5572L39.9174 54.2883L56.1767 60.7201L56.0781 60.989Z" fill="#C0C9DF"/>
<path d="M59.1562 58.098L51.4528 53.1656L51.5997 52.9217L59.3031 57.8542L59.1562 58.098Z" fill="#C0C9DF"/>
</g>
<g clip-path="url(#clip1_1615_3228)">
<path d="M102.881 90.8633C99.1411 92.2245 97.2128 96.3597 98.5739 100.099L101.471 115.643L108.805 128.209C110.166 131.949 114.301 133.877 118.041 132.516C121.781 131.155 123.709 127.019 122.348 123.28L112.117 95.17C110.756 91.4302 106.621 89.5021 102.881 90.8633Z" fill="#E7EAF4"/>
<path d="M120.882 130.614C120.125 131.444 119.162 132.106 118.035 132.516C114.295 133.877 110.162 131.948 108.8 128.208L98.8498 113.423L98.5697 100.099C97.2084 96.3592 99.1346 92.2247 102.875 90.8634C104.002 90.4531 105.165 90.3414 106.279 90.4905C104.522 92.4065 103.87 95.2112 104.821 97.8242L115.052 125.933C116.003 128.546 118.305 130.275 120.882 130.614Z" fill="#F1F3FA"/>
<path d="M188.842 121.817L158.241 134.027C156.301 134.733 154.09 133.85 153.293 131.946C152.443 129.913 153.47 127.605 155.517 126.86L182.609 117C184.598 116.276 186.516 113.59 185.792 111.601L178.457 94.384C177.751 92.4445 178.634 90.233 180.538 89.4366C182.571 88.5862 184.879 89.613 185.624 91.6601L193.579 113.517C194.937 117.247 192.572 120.459 188.842 121.817Z" fill="#F1F3FA"/>
<path d="M182.427 71.4303L179.204 71.085C178.741 71.0353 178.346 70.7225 178.191 70.2825C177.259 67.6423 176.446 65.5339 176.329 65.1603C173.922 58.5471 170.165 52.8078 165.483 48.1397C153.117 35.8125 131.233 32.5831 113.757 38.8331C113.757 38.8331 80.9536 73.019 89.8255 96.978L91.546 101.705C91.7292 102.208 91.6215 102.771 91.2643 103.17C90.5722 103.945 90.3018 105.161 90.134 105.379C88.8527 106.711 88.4411 108.656 89.0733 110.393L93.5895 124.457C94.2218 126.194 95.7874 127.42 97.6255 127.617L109.319 129.631C108.035 126.103 97.5599 97.3237 96.5648 94.5895C89.2622 74.5258 99.3741 52.1265 119.414 44.7625C139.499 37.5223 161.643 48.1816 168.945 68.2451L181.7 103.287L189.344 94.6638C190.626 93.3315 191.678 91.3635 191.046 89.6266L191.218 87.6538L186.463 74.5902C185.831 72.8531 184.265 71.6273 182.427 71.4303Z" fill="#E7EAF4"/>
<path d="M161.717 69.4482C165.457 68.087 169.592 70.0153 170.953 73.7549L178.192 88.0401L181.184 101.865C182.545 105.605 180.617 109.74 176.877 111.101C173.137 112.462 169.002 110.534 167.641 106.794L157.41 78.6842C156.049 74.9443 157.977 70.8094 161.717 69.4482Z" fill="#E7EAF4"/>
<path d="M177.618 108.584C178.281 108.893 178.991 109.102 179.725 109.198C178.967 110.028 178.005 110.69 176.878 111.1C175.009 111.781 173.038 111.639 171.367 110.86C169.696 110.08 168.321 108.662 167.641 106.793L157.41 78.6845C156.049 74.9443 157.977 70.8091 161.717 69.4478C162.845 69.0375 164.007 68.9258 165.121 69.0749C163.364 70.9909 162.71 73.7964 163.661 76.4094L173.892 104.518C174.572 106.387 175.947 107.805 177.618 108.584Z" fill="#E7EAF4"/>
<path d="M165.484 48.1396C153.119 35.8132 134.295 30.9557 116.819 37.2055L116.817 37.2014C99.5844 43.2566 88.1559 59.1912 86.2842 76.539C85.5368 83.4584 86.3086 90.6035 88.8395 97.4339L90.5596 102.16C90.7431 102.664 90.6344 103.227 90.277 103.626C89.5861 104.399 88.4547 105.479 88.288 105.695C87.0057 107.028 86.5952 108.973 87.2269 110.709L92.4636 125.097C93.0961 126.835 94.6609 128.061 96.5 128.257L109.322 129.631L107.768 125.362L96.9005 124.508C96.496 124.467 96.1454 124.191 96.0059 123.808L90.7692 109.42C90.3812 108.194 92.4383 107.123 93.0883 106.138C94.3727 104.701 94.7616 102.683 94.1018 100.87L92.3818 96.1447C90.4127 90.8443 89.5584 85.2267 89.8281 79.5462C89.8578 78.9186 90.5193 78.5202 91.0882 78.787C92.108 79.2655 93.2368 79.7417 94.2233 79.7705C94.7786 64.5111 104.256 50.3344 119.416 44.7623C134.676 39.2626 151.123 44.0931 161.346 55.5311C164.581 59.1486 167.192 63.4249 168.947 68.2465L181.701 103.288L190.64 93.9931C191.923 92.6604 192.333 90.7152 191.701 88.9775L191.219 87.6543L184.656 94.7217C183.979 95.4506 182.771 95.206 182.431 94.2715L172.489 66.9572C170.502 61.4968 167.518 56.6816 163.819 52.6455C163.567 52.37 163.51 51.968 163.681 51.636L165.484 48.1396Z" fill="#F1F3FA"/>
<path d="M93.7538 75.1267C95.1492 75.7774 96.8028 74.9771 97.1299 73.4724C97.8683 70.0766 99.0898 66.8069 100.746 63.7682C104.82 56.2932 111.523 50.2136 120.133 47.0799C128.342 44.0921 136.945 44.2697 144.597 46.9863C148.309 48.304 151.797 50.2188 154.908 52.6594C156.109 53.6012 157.865 53.238 158.565 51.882L162.29 44.6658C162.836 43.6082 162.53 42.3103 161.57 41.6065C156.638 37.9906 151.066 35.3182 145.165 33.7339C135.775 31.2132 125.551 31.4465 115.742 35.0167C104.507 39.1059 95.6685 46.8988 90.1027 56.5175C87.8662 60.3821 86.1581 64.5415 85.035 68.874C84.7421 70.0038 85.2948 71.1826 86.3525 71.6756L93.7538 75.1267Z" fill="#E7EAF4"/>
<path d="M162.614 133.672L152.27 137.475C151.119 137.893 149.866 137.355 149.472 136.272L146.811 130.201C146.417 129.118 147.03 127.901 148.181 127.482L148.963 126.434L152.059 125.307L154.233 125.875L155.185 124.169L159.53 122.588C160.681 122.169 161.933 122.707 162.327 123.79L164.564 129.936L164.564 131.809C164.958 132.892 163.764 133.253 162.614 133.672Z" fill="#E7EAF4"/>
<path d="M164.752 130.444L165.283 131.903C165.701 133.053 165.11 134.326 163.957 134.745L152.48 137.406C151.33 137.824 150.246 138.363 149.608 137.725L146.391 129.732C145.972 128.579 146.566 127.308 147.716 126.89L148.967 126.435L151.343 132.965C151.762 134.115 153.035 134.709 154.186 134.29L164.752 130.444Z" fill="#E7EAF4"/>
<path d="M152.062 125.307L155.188 124.17L159.328 135.543L156.202 136.681L152.062 125.307Z" fill="#E7EAF4"/>
</g>
<defs>
<clipPath id="clip0_1615_3228">
<rect width="106" height="88" fill="white" transform="translate(23.2734 122.734) rotate(-102.682)"/>
</clipPath>
<clipPath id="clip1_1615_3228">
<rect width="120" height="120" fill="white" transform="translate(79 15.0001)"/>
</clipPath>
</defs>
</svg>
