<svg width="180" height="180" viewBox="0 0 180 180" fill="none" xmlns="http://www.w3.org/2000/svg">
<g clip-path="url(#clip0_1421_3227)">
<path d="M64.4991 152.801L59.9343 156.359L67.2061 160.469L95.3393 153.473L95.1592 151.188L89.4243 148.05L64.4991 152.801Z" fill="#FF6E85"/>
<path d="M67.2214 160.66C67.1799 160.664 67.1384 160.654 67.1031 160.632L61.7766 157.282L61.9799 156.956L67.2365 160.262L95.1319 153.325L94.9731 151.306L89.3295 148.217L89.5141 147.881L95.2493 151.019C95.2773 151.034 95.3011 151.056 95.3185 151.083C95.3359 151.11 95.3463 151.14 95.3488 151.172L95.5286 153.457C95.5322 153.502 95.5195 153.547 95.4929 153.584C95.4663 153.621 95.4274 153.647 95.3832 153.658L67.2499 160.655C67.2406 160.657 67.231 160.659 67.2214 160.66V160.66Z" fill="#00257D"/>
<path d="M55.628 163.453L52.723 164.376L52.9031 166.661L60.1748 170.771L88.3077 163.775L88.128 161.49L82.3927 158.351L55.628 163.453Z" fill="#FF6E85"/>
<path d="M97.0676 26.0389C79.5729 48.0134 45.5056 39.7431 55.2789 14.2554C53.4665 14.69 51.6864 15.2495 49.9514 15.9299C48.7749 23.1048 48.1435 38.7334 64.2338 41.2503C48.0079 41.4549 46.0535 25.1137 45.9981 17.7216C37.0701 22.371 29.9719 30.3432 28.074 40.4285C27.8073 42.0407 27.3861 43.6236 26.8163 45.1554C33.2482 55.6726 49.9961 54.1771 49.9961 54.1771C49.9961 54.1771 34.4625 58.547 24.7262 49.3916C24.0808 50.4152 23.3484 51.3814 22.537 52.2796C33.1031 60.317 43.4968 56.8197 43.4968 56.8197C43.4968 56.8197 31.1021 61.1122 20.4261 54.2996C15.3312 58.4926 8.35158 59.8623 1.10297 56.9685C12.9818 73.7917 37.6728 77.1148 59.0418 63.117C71.35 56.9211 76.8247 63.3061 90.9792 56.2228C99.8972 51.7605 108.783 40.4058 97.0676 26.0389Z" fill="#00257D"/>
<path d="M35.1453 71.8793C21.4657 73.0734 8.64807 67.9903 0.943798 57.0795C0.919596 57.0456 0.907037 57.0049 0.908005 56.9633C0.908973 56.9218 0.923415 56.8817 0.949165 56.849C0.974915 56.8163 1.01058 56.7929 1.05081 56.7821C1.09104 56.7714 1.13367 56.774 1.17228 56.7895C7.98622 59.5095 14.9589 58.5477 20.3018 54.1506C20.3332 54.1248 20.3719 54.1095 20.4125 54.107C20.4531 54.1045 20.4934 54.1149 20.5277 54.1367C26.541 57.9729 33.1596 58.2425 37.7278 57.7685C37.4812 57.7677 37.229 57.7631 36.971 57.7547C31.6811 57.5443 26.5912 55.682 22.4184 52.4302C22.3974 52.4139 22.3799 52.3935 22.3672 52.3703C22.3545 52.347 22.3467 52.3213 22.3444 52.2949C22.3421 52.2685 22.3453 52.2418 22.3538 52.2167C22.3623 52.1916 22.3759 52.1685 22.3938 52.1488C23.1975 51.2586 23.9233 50.3012 24.5633 49.2872C24.5784 49.2631 24.5985 49.2425 24.6224 49.2271C24.6463 49.2117 24.6734 49.2018 24.7016 49.198C24.7298 49.1938 24.7586 49.1962 24.7857 49.205C24.8128 49.2138 24.8375 49.2288 24.8578 49.2488C32.317 56.2631 43.3428 55.2363 47.8789 54.4312C43.1268 54.4217 31.6944 53.4983 26.6517 45.2522C26.6367 45.2272 26.6277 45.1992 26.6251 45.1702C26.6226 45.1412 26.6267 45.1121 26.6371 45.0849C27.2021 43.5645 27.6202 41.9937 27.8856 40.3939C29.6671 30.9146 36.2366 22.5894 45.9075 17.5511C45.9367 17.536 45.9692 17.5285 46.0021 17.5295C46.035 17.5305 46.0671 17.5399 46.0953 17.5567C46.1235 17.5736 46.1469 17.5974 46.1632 17.6259C46.1796 17.6544 46.1884 17.6866 46.1887 17.7194C46.2263 22.5755 47.0927 31.5143 52.4942 36.7992C54.9578 39.2098 58.1186 40.6065 61.9109 40.9658C57.9581 39.9352 54.8863 37.9345 52.7578 34.9999C48.4079 28.9999 49.0123 20.4565 49.7597 15.8979C49.765 15.8649 49.7789 15.834 49.7998 15.808C49.8208 15.782 49.8482 15.762 49.8793 15.7497C51.6223 15.0672 53.4105 14.5054 55.2309 14.0686C55.265 14.0603 55.3008 14.0615 55.3342 14.0721C55.3677 14.0827 55.3976 14.1022 55.4208 14.1286C55.4439 14.1549 55.4594 14.1871 55.4655 14.2216C55.4717 14.2561 55.4683 14.2916 55.4556 14.3243C51.8687 23.6812 54.0659 31.7395 61.3348 35.8799C70.6843 41.2062 86.5511 38.9369 96.915 25.9194C96.9329 25.897 96.9556 25.8788 96.9815 25.8663C97.0073 25.8537 97.0356 25.8471 97.0644 25.8469C97.0931 25.8468 97.1215 25.853 97.1475 25.8652C97.1735 25.8775 97.1964 25.8953 97.2146 25.9176C101.918 31.6853 103.705 37.3887 102.525 42.869C101.349 48.3354 97.0648 53.3917 91.0637 56.3946C83.7109 60.0742 78.6982 60.1384 73.8508 60.201C69.3178 60.2592 65.0356 60.3148 59.127 63.2884C51.403 68.3487 43.1269 71.1826 35.1453 71.8793ZM1.63276 57.3784C13.8429 74.0145 38.3443 76.444 58.9346 62.9565C64.9419 59.9312 69.2673 59.8756 73.8462 59.8165C78.6497 59.7551 83.6172 59.6913 90.8915 56.0509C96.789 53.0999 100.997 48.142 102.149 42.7884C103.29 37.4859 101.58 31.9551 97.0661 26.3455C86.5713 39.3586 70.5912 41.5946 61.1438 36.2136C53.7861 32.0215 51.4897 23.9325 54.9674 14.5285C53.3213 14.9401 51.7028 15.4549 50.1216 16.0699C49.3921 20.5953 48.835 28.9357 53.0679 34.7769C55.5272 38.1701 59.2934 40.2845 64.2601 41.0616C64.3078 41.069 64.3509 41.0941 64.3809 41.1318C64.4109 41.1694 64.4257 41.217 64.4222 41.265C64.4188 41.313 64.3974 41.358 64.3624 41.3911C64.3273 41.4241 64.2811 41.4428 64.2328 41.4435C59.2896 41.5059 55.2486 40.0363 52.2243 37.0754C46.8393 31.8068 45.8798 23.018 45.807 18.0378C36.394 23.0334 30.0063 31.1935 28.261 40.4641C27.9968 42.0558 27.5838 43.6193 27.0273 45.1342C33.3485 55.3266 49.7627 54.0045 49.9762 53.9859C50.0239 53.9818 50.0713 53.9957 50.1093 54.0247C50.1473 54.0537 50.1731 54.0958 50.1817 54.1427C50.1903 54.1897 50.181 54.2382 50.1557 54.2787C50.1305 54.3193 50.091 54.349 50.045 54.362C49.8893 54.4057 34.4747 58.6074 24.7603 49.6896C24.1774 50.5908 23.5273 51.4468 22.8156 52.2505C26.8892 55.3741 31.8316 57.1623 36.9644 57.3696C39.1456 57.4748 41.3295 57.2271 43.4317 56.6362C43.4799 56.6201 43.5326 56.6238 43.5781 56.6463C43.6236 56.6688 43.6584 56.7084 43.6748 56.7564C43.6912 56.8045 43.6878 56.857 43.6655 56.9026C43.6433 56.9482 43.6038 56.9832 43.5558 56.9999L43.5566 56.9998C43.3461 57.0718 31.0071 61.1882 20.4388 54.534C15.1563 58.8212 8.34376 59.8439 1.63276 57.3784Z" fill="#00257D"/>
<path d="M93.1832 94.5946L102.472 78.1575L115.61 81.2507C115.61 81.2507 112.088 96.1385 116.393 105.686L111.859 104.581L108.138 98.269L105.222 106.018L90.749 98.9198L93.1832 94.5946Z" fill="#FFAA00"/>
<path d="M116.407 105.877C116.386 105.879 116.365 105.877 116.345 105.872L111.81 104.767C111.785 104.761 111.762 104.75 111.741 104.735C111.721 104.719 111.703 104.7 111.69 104.678L108.173 98.7125L105.397 106.085C105.388 106.11 105.373 106.133 105.354 106.152C105.336 106.172 105.313 106.187 105.288 106.196C105.263 106.206 105.236 106.211 105.209 106.21C105.183 106.209 105.156 106.202 105.132 106.19L90.6615 99.0918C90.638 99.0803 90.6171 99.0641 90.6001 99.0442C90.5831 99.0244 90.5704 99.0012 90.5626 98.9763C90.5549 98.9513 90.5523 98.9251 90.5551 98.8991C90.5579 98.8731 90.5659 98.848 90.5787 98.8252L93.0126 94.5004L102.302 78.0629C102.322 78.0267 102.354 77.9981 102.392 77.9814C102.431 77.9647 102.473 77.9609 102.514 77.9704L115.652 81.0636C115.701 81.0753 115.744 81.1062 115.771 81.1495C115.798 81.1928 115.806 81.2449 115.795 81.2945C115.76 81.4429 112.338 96.2294 116.565 105.607C116.577 105.635 116.583 105.666 116.581 105.697C116.58 105.727 116.571 105.757 116.555 105.784C116.54 105.81 116.518 105.832 116.492 105.849C116.466 105.865 116.436 105.875 116.406 105.878L116.407 105.877ZM111.981 104.412L116.059 105.406C112.267 96.4843 114.998 83.1304 115.378 81.3926L102.566 78.3762L93.3477 94.6879L91.0135 98.8362L105.111 105.752L107.954 98.2006C107.967 98.1667 107.989 98.137 108.018 98.1151C108.047 98.0932 108.081 98.0799 108.118 98.0768C108.154 98.0737 108.19 98.0809 108.222 98.0976C108.254 98.1142 108.281 98.1396 108.3 98.1708L111.981 104.412Z" fill="#00257D"/>
<path d="M110.039 46.0655C110.039 46.0655 103.342 46.4607 97.0703 39.5502C93.8726 39.9697 94.1941 43.4851 94.1941 43.4851C94.1941 43.4851 101.837 49.4899 107.004 50.0644L110.327 46.0403" fill="#0084CC"/>
<path d="M110.039 46.0655C110.039 46.0655 103.342 46.4607 97.0703 39.5502C93.8726 39.9697 94.1941 43.4851 94.1941 43.4851C94.1941 43.4851 101.837 49.4899 107.004 50.0644L110.327 46.0403" fill="#CC1D37"/>
<path d="M151.943 90.9364L166.725 78.5526L158.965 71.2271L151.943 90.9364Z" fill="#FFAA00"/>
<path d="M166.607 78.4093L151.82 90.7876L152.068 91.082L166.854 78.7037L166.607 78.4093Z" fill="#00257D"/>
<path d="M126.178 42.4499C114.835 40.8908 95.2816 46.384 105.362 69.993L105.601 65.8455L105.353 59.9611L111.829 53.3884C111.829 53.3884 118.722 53.9695 123.639 50.0767C123.768 51.5568 121.615 52.938 121.615 52.938C121.615 52.938 127.074 52.7114 129.072 47.3675C129.797 43.0554 126.178 42.4499 126.178 42.4499Z" fill="#00257D"/>
<path d="M105.352 59.9608C103.784 57.4149 100.956 58.3529 100.338 60.4906C99.6914 62.7168 101.022 66.0646 105.601 65.845L105.362 69.9925L114.954 73.7261L115.611 81.2498L112.557 81.5163L113.488 114.284L137.983 107.623L126.287 80.4131L124.504 80.1299L124.053 74.9659L127.519 75.425L139.711 66.0918L138.076 47.3525L128.644 44.1784C128.644 44.1784 118.52 48.7872 111.829 53.3879L105.352 59.9608Z" fill="#FFD6B5"/>
<path d="M121.636 53.1292C121.594 53.1328 121.552 53.1223 121.516 53.0994C121.48 53.0764 121.453 53.0423 121.439 53.0023C121.424 52.9623 121.424 52.9187 121.437 52.8783C121.45 52.8379 121.476 52.803 121.511 52.7791C123.135 51.6732 123.452 50.8522 123.491 50.4439C117.033 55.4427 106.437 52.963 106.33 52.9369C106.286 52.9262 106.247 52.9007 106.221 52.8646C106.194 52.8286 106.181 52.7844 106.183 52.7396C106.186 52.6949 106.204 52.6524 106.234 52.6195C106.265 52.5867 106.306 52.5656 106.351 52.5598C106.414 52.5516 112.733 51.7274 114.423 49.2944L114.74 49.5132C113.378 51.472 109.412 52.4152 107.477 52.7696C110.347 53.2554 118.406 54.1381 123.521 49.9291C123.543 49.9106 123.57 49.8975 123.598 49.8906C123.627 49.8838 123.656 49.8836 123.685 49.8898C123.713 49.8961 123.74 49.9088 123.763 49.9269C123.786 49.945 123.804 49.9681 123.817 49.9943C123.839 50.0413 124.303 51.0772 122.353 52.6378C123.815 52.3984 125.188 51.7805 126.336 50.8459C127.484 49.9112 128.366 48.6925 128.895 47.3111L129.263 47.4237C128.92 48.3822 128.399 49.2675 127.727 50.0329C126.179 51.8162 123.997 52.9268 121.643 53.1286L121.636 53.1292Z" fill="#00257D"/>
<path d="M113.52 91.5433C113.469 91.5478 113.418 91.5319 113.379 91.4991C113.34 91.4664 113.316 91.4194 113.311 91.3687L112.365 81.5328C112.36 81.4821 112.376 81.4316 112.409 81.3926C112.442 81.3536 112.489 81.3292 112.54 81.3247L115.402 81.0749L114.772 73.862L105.291 70.1716C105.267 70.1621 105.245 70.1477 105.226 70.1295C105.208 70.1112 105.193 70.0894 105.183 70.0653C104.593 68.6524 104.078 67.2095 103.639 65.7426L104.009 65.6332C104.435 67.0611 104.936 68.466 105.508 69.8422L115.025 73.5461C115.058 73.5592 115.087 73.5813 115.109 73.6099C115.13 73.6386 115.143 73.6726 115.146 73.7083L115.803 81.2319C115.807 81.2827 115.791 81.3331 115.759 81.3722C115.726 81.4112 115.679 81.4356 115.628 81.4401L112.768 81.6897L113.676 91.1313L127.857 89.04L126.125 80.5789L124.474 80.3166C124.432 80.3099 124.393 80.2892 124.363 80.2579C124.334 80.2265 124.316 80.1863 124.312 80.1436L123.843 74.768L124.227 74.7345L124.683 79.9617L126.317 80.2216C126.356 80.2278 126.392 80.2455 126.42 80.2724C126.448 80.2994 126.468 80.3343 126.475 80.3725L128.275 89.1628C128.28 89.1884 128.28 89.2148 128.274 89.2404C128.269 89.266 128.259 89.2903 128.244 89.3117C128.229 89.3331 128.209 89.3513 128.187 89.365C128.165 89.3788 128.14 89.3878 128.114 89.3916L113.532 91.5422L113.52 91.5433Z" fill="#00257D"/>
<path d="M102.816 58.3573L102.43 58.3616C102.378 53.5115 104.057 49.6097 107.421 46.7646C112.698 42.3028 121.287 41.3683 127.036 42.3887L126.969 42.7667C121.307 41.7619 112.853 42.6756 107.672 47.0573C104.399 49.8252 102.766 53.6269 102.816 58.3573Z" fill="#00257D"/>
<path d="M126.182 42.4503C117.32 41.2323 103.447 44.3191 102.608 56.9845C105.33 57.6563 110.739 54.4985 110.739 54.4985L111.833 53.3879C111.833 53.3879 118.726 53.9691 123.643 50.0763C123.772 51.5564 121.619 52.9375 121.619 52.9375C121.619 52.9375 127.078 52.7109 129.076 47.3671C129.801 43.0557 126.182 42.4503 126.182 42.4503Z" fill="#00257D"/>
<path d="M127.541 75.6167C127.527 75.6179 127.513 75.6176 127.499 75.6158L118.787 74.4621L118.838 74.0813L127.468 75.2243L139.513 66.0035L138.379 53.0196L138.763 52.9861L139.905 66.076C139.908 66.1082 139.903 66.1405 139.89 66.17C139.877 66.1995 139.856 66.2252 139.831 66.2449L127.639 75.5785C127.61 75.6 127.577 75.6133 127.541 75.6167Z" fill="#00257D"/>
<path d="M105.556 70.0036L105.172 69.9816L105.4 66.0442C102.908 66.1075 101.586 65.1202 100.912 64.2682C100.494 63.7332 100.208 63.1078 100.077 62.4423C99.9458 61.7769 99.9728 61.0899 100.156 60.4366C100.307 59.8771 100.618 59.3733 101.051 58.9865C101.483 58.5996 102.019 58.3463 102.592 58.2571C103.658 58.1124 104.671 58.6186 105.388 59.6537L111.696 53.2514L111.97 53.5209L105.495 60.0932C105.474 60.1141 105.449 60.1299 105.422 60.1397C105.394 60.1495 105.365 60.1528 105.336 60.1496C105.307 60.1463 105.279 60.1365 105.254 60.1209C105.23 60.1052 105.209 60.0842 105.194 60.0594C104.555 59.0229 103.624 58.5048 102.644 58.6375C102.146 58.7207 101.682 58.9442 101.307 59.2817C100.932 59.6191 100.661 60.0565 100.527 60.5423C100.36 61.1371 100.335 61.7625 100.455 62.3683C100.575 62.9741 100.835 63.5434 101.215 64.0303C101.852 64.8359 103.13 65.7711 105.596 65.6534C105.623 65.652 105.65 65.6564 105.675 65.6661C105.7 65.6759 105.723 65.6908 105.742 65.71C105.761 65.7291 105.776 65.752 105.786 65.7773C105.795 65.8025 105.799 65.8294 105.798 65.8564L105.556 70.0036Z" fill="#00257D"/>
<path d="M121.641 59.2314C121.641 59.2314 118.109 54.7166 111.245 56.5684C113.349 61.2749 121.641 59.2314 121.641 59.2314Z" fill="white"/>
<path d="M132.293 58.9053C132.293 58.9053 134.673 55.06 138.19 55.9787C138.222 59.7434 132.293 58.9053 132.293 58.9053Z" fill="white"/>
<path d="M111.821 53.5801C109.972 53.5399 108.13 53.3245 106.322 52.9367C106.278 52.926 106.24 52.9005 106.213 52.8644C106.186 52.8284 106.173 52.7842 106.176 52.7394C106.178 52.6946 106.196 52.6522 106.227 52.6193C106.257 52.5865 106.299 52.5653 106.343 52.5596C106.406 52.5514 112.725 51.7271 114.416 49.2941L114.732 49.513C113.369 51.4739 109.395 52.417 107.463 52.77C108.907 53.016 110.366 53.1583 111.831 53.1959L111.821 53.5801Z" fill="white"/>
<path d="M119.212 59.7976C118.551 59.8569 117.887 59.8769 117.223 59.8574C114.088 59.7535 111.959 58.6435 111.066 56.6474C111.055 56.622 111.049 56.5945 111.049 56.5667C111.05 56.5389 111.056 56.5116 111.068 56.4865C111.08 56.4614 111.097 56.4392 111.119 56.4214C111.14 56.4036 111.165 56.3906 111.192 56.3834C114.797 55.4108 117.484 56.201 119.103 57.035C120.128 57.5429 121.041 58.2498 121.79 59.1144C121.809 59.1397 121.822 59.1694 121.828 59.201C121.833 59.2326 121.83 59.265 121.82 59.2953C121.809 59.3256 121.791 59.3528 121.768 59.3744C121.744 59.396 121.715 59.4113 121.684 59.419C120.87 59.6017 120.044 59.7282 119.212 59.7976V59.7976ZM111.516 56.6961C113.431 60.4464 119.779 59.4156 121.275 59.1138C120.436 58.2356 117.117 55.2854 111.516 56.6961V56.6961Z" fill="#00257D"/>
<path d="M134.555 59.1416C133.794 59.205 133.029 59.1896 132.272 59.0956C132.24 59.0912 132.21 59.0789 132.184 59.06C132.158 59.041 132.138 59.016 132.124 58.9871C132.111 58.9582 132.104 58.9263 132.106 58.8944C132.108 58.8625 132.118 58.8316 132.135 58.8044C132.159 58.7637 134.632 54.849 138.246 55.7927C138.286 55.8034 138.323 55.8273 138.349 55.8605C138.374 55.8938 138.389 55.9347 138.389 55.9769C138.408 56.3775 138.337 56.7773 138.18 57.1467C138.023 57.516 137.785 57.8455 137.484 58.1107C136.71 58.7877 135.571 59.0529 134.555 59.1416ZM132.639 58.7484C133.51 58.8244 135.967 58.9254 137.229 57.8213C137.47 57.6096 137.664 57.3494 137.797 57.0577C137.929 56.766 137.999 56.4496 138.001 56.1292C135.26 55.5157 133.233 57.9342 132.639 58.7484Z" fill="#00257D"/>
<path d="M128.843 65.3789L129.978 64.9062L131.005 67.0661L128.238 68.8456L125.296 66.2535L127.961 64.4956L128.843 65.3789Z" fill="#CC1D37"/>
<path d="M119.645 57.5979C119.676 57.954 119.616 58.3121 119.471 58.6387C119.326 58.9654 119.099 59.2498 118.814 59.4654C118.528 59.681 118.193 59.8207 117.838 59.8714C117.484 59.922 117.122 59.882 116.788 59.7551C116.453 59.6282 116.156 59.4185 115.925 59.1457C115.694 58.873 115.536 58.546 115.466 58.1955C115.396 57.845 115.416 57.4825 115.525 57.1419C115.633 56.8013 115.827 56.4938 116.087 56.2482C116.087 56.2482 118.298 56.6364 119.645 57.5979Z" fill="#00257D"/>
<path d="M136.931 55.662C137.151 55.8334 137.323 56.0577 137.432 56.3139C137.541 56.57 137.583 56.8497 137.555 57.1265C137.526 57.4034 137.427 57.6685 137.268 57.8969C137.108 58.1253 136.893 58.3096 136.643 58.4325C136.393 58.5553 136.116 58.6128 135.837 58.5994C135.559 58.586 135.288 58.5022 135.051 58.356C134.814 58.2097 134.618 58.0056 134.481 57.763C134.345 57.5204 134.272 57.2471 134.27 56.9687C134.27 56.9687 135.667 55.9174 136.931 55.662Z" fill="#00257D"/>
<path d="M125.617 60.4247L125.461 60.7759L127.773 61.8009L127.929 61.4498L125.617 60.4247Z" fill="#00257D"/>
<path d="M130.933 60.8625L129.609 61.6719L129.81 61.9995L131.133 61.1901L130.933 60.8625Z" fill="#00257D"/>
<path d="M132.115 67.1606C125.521 67.7362 122.13 64.9018 121.984 64.7772L122.235 64.4854C122.27 64.5155 125.87 67.5106 132.69 66.7155L132.735 67.0973C132.526 67.1217 132.319 67.1428 132.115 67.1606Z" fill="#00257D"/>
<path d="M128.252 69.0368C128.226 69.0391 128.2 69.0361 128.176 69.0279C128.151 69.0198 128.128 69.0068 128.108 68.9896L125.166 66.3975C125.144 66.378 125.127 66.3537 125.116 66.3264C125.104 66.2991 125.1 66.2696 125.102 66.2402C125.104 66.2108 125.113 66.1822 125.127 66.1568C125.142 66.1313 125.163 66.1096 125.188 66.0933L127.854 64.3349C127.891 64.3106 127.935 64.2997 127.979 64.3042C128.024 64.3087 128.065 64.3283 128.096 64.3597L128.887 65.1514L129.902 64.7288C129.948 64.7098 129.999 64.709 130.045 64.7265C130.091 64.744 130.129 64.7785 130.15 64.8229L131.177 66.9824C131.197 67.0246 131.201 67.0726 131.188 67.1175C131.175 67.1624 131.147 67.2011 131.107 67.2264L128.34 69.0057C128.314 69.023 128.284 69.0337 128.252 69.0368ZM125.609 66.2755L128.254 68.6051L130.756 66.9957L129.88 65.1538L128.915 65.5559C128.879 65.5704 128.841 65.5742 128.803 65.5668C128.766 65.5593 128.732 65.541 128.705 65.514L127.934 64.7421L125.609 66.2755Z" fill="#00257D"/>
<path d="M122.297 56.673L113.464 52.5838L116.25 51.0375L122.522 55.9673L122.297 56.673Z" fill="#00257D"/>
<path d="M131.138 55.2148L131.436 55.8749L137.192 52.6886L134.769 52.1353L131.138 55.2148Z" fill="#00257D"/>
<path d="M110.869 54.6328L110.595 54.3636L111.689 53.253C111.709 53.2328 111.733 53.2173 111.759 53.2075C111.785 53.1977 111.814 53.194 111.842 53.1965C111.911 53.202 118.718 53.7244 123.516 49.9256C123.543 49.904 123.576 49.8901 123.61 49.8855C123.645 49.8809 123.68 49.8857 123.712 49.8994C123.744 49.9132 123.771 49.9353 123.792 49.9634C123.812 49.9915 123.824 50.0247 123.827 50.0592C123.92 51.1225 122.971 52.1063 122.315 52.6529C123.837 52.3793 127.388 51.3193 128.891 47.2994C129.169 45.6168 128.797 44.3072 127.772 43.4379C127.302 43.0437 126.744 42.7696 126.145 42.6392L126.209 42.2599C126.877 42.4005 127.499 42.7039 128.02 43.1431C128.801 43.805 129.65 45.0803 129.261 47.3967C127.231 52.8335 121.679 53.1246 121.622 53.1268C121.58 53.1285 121.538 53.1162 121.504 53.092C121.47 53.0678 121.444 53.033 121.431 52.9929C121.419 52.9528 121.419 52.9096 121.434 52.87C121.448 52.8304 121.475 52.7966 121.51 52.7737C121.528 52.7617 123.188 51.6808 123.423 50.4798C118.841 53.8648 112.722 53.6314 111.903 53.583L110.869 54.6328Z" fill="#00257D"/>
<path d="M122.613 46.1988L122.734 47.5744L129.217 49.0548L129.378 50.905L146.593 54.836L158.961 71.2285L154.287 71.6364L150.101 83.7606L171.818 80.9927L173.753 69.3711L151.833 44.7806L126.023 40.707L126.099 41.5808L122.862 41.2124L122.938 42.0801L120.638 41.7795L120.992 45.8286L122.613 46.1988Z" fill="#FFD6B5"/>
<path d="M150.121 83.9515C150.089 83.9542 150.057 83.949 150.028 83.9363C149.998 83.9236 149.973 83.9038 149.953 83.8787C149.933 83.8537 149.92 83.8241 149.915 83.7927C149.909 83.7613 149.912 83.7291 149.922 83.6989L154.108 71.5731C154.12 71.5377 154.142 71.5066 154.171 71.4835C154.201 71.4604 154.236 71.4463 154.273 71.443L158.602 71.0652L146.485 55.0071L129.34 51.0917C129.3 51.0827 129.264 51.0613 129.237 51.0306C129.21 51 129.194 50.9616 129.191 50.9211L129.041 49.2102L122.695 47.7587C122.656 47.7496 122.62 47.7283 122.593 47.6977C122.567 47.6671 122.55 47.6289 122.547 47.5885L122.439 46.3522L120.954 46.0129C120.914 46.0039 120.878 45.9825 120.852 45.952C120.825 45.9214 120.809 45.8831 120.805 45.8427L120.452 41.7955C120.449 41.7669 120.453 41.7381 120.463 41.7112C120.473 41.6843 120.49 41.66 120.51 41.6401C120.531 41.6202 120.556 41.6053 120.584 41.5963C120.611 41.5874 120.64 41.5847 120.668 41.5884L122.73 41.8581L122.675 41.2285C122.673 41.2001 122.677 41.1715 122.687 41.1448C122.697 41.1181 122.712 41.0939 122.733 41.0741C122.753 41.0542 122.778 41.0391 122.805 41.0299C122.832 41.0207 122.861 41.0176 122.889 41.0209L125.893 41.3626L125.838 40.7234C125.835 40.6944 125.839 40.6651 125.85 40.6379C125.86 40.6107 125.877 40.5863 125.898 40.5664C125.919 40.5465 125.945 40.5317 125.973 40.5232C126.001 40.5146 126.03 40.5125 126.059 40.517L151.871 44.5888C151.915 44.5958 151.955 44.6178 151.984 44.6511L173.904 69.2416C173.923 69.2631 173.937 69.2885 173.945 69.3161C173.953 69.3437 173.955 69.3728 173.95 69.4011L172.015 81.0222C172.009 81.063 171.989 81.1005 171.959 81.1292C171.929 81.1579 171.891 81.1761 171.85 81.1813L150.128 83.9508L150.121 83.9515ZM154.431 71.8164L150.387 83.5303L171.655 80.8196L173.551 69.4313L151.738 44.9606L126.24 40.9363L126.295 41.5651C126.297 41.5935 126.293 41.6221 126.283 41.6488C126.273 41.6755 126.258 41.6997 126.237 41.7195C126.217 41.7394 126.192 41.7545 126.165 41.7637C126.138 41.7729 126.109 41.776 126.081 41.7727L123.077 41.431L123.132 42.0645C123.135 42.0931 123.131 42.1219 123.12 42.1488C123.11 42.1757 123.094 42.2 123.073 42.2199C123.053 42.2398 123.028 42.2547 123 42.2637C122.973 42.2726 122.944 42.2753 122.915 42.2716L120.853 42.0019L121.174 45.6736L122.659 46.0125C122.699 46.0216 122.734 46.0429 122.761 46.0736C122.788 46.1042 122.804 46.1426 122.808 46.1831L122.916 47.4194L129.261 48.8686C129.301 48.8776 129.337 48.899 129.364 48.9297C129.39 48.9603 129.407 48.9987 129.41 49.0392L129.56 50.7501L146.638 54.6498C146.682 54.6598 146.721 54.6852 146.749 54.7215L159.116 71.1125C159.137 71.1398 159.15 71.1723 159.153 71.2063C159.157 71.2404 159.152 71.2749 159.138 71.3062C159.124 71.3375 159.102 71.3646 159.074 71.3845C159.046 71.4044 159.013 71.4165 158.979 71.4194L154.431 71.8164Z" fill="#00257D"/>
<path d="M121.039 45.6494L120.953 46.0239L135.114 49.2576L135.2 48.8831L121.039 45.6494Z" fill="#00257D"/>
<path d="M110.908 80.6393L110.898 81.0234L112.416 81.0597L112.425 80.6756L110.908 80.6393Z" fill="#00257D"/>
<path d="M110.892 81.3468L110.883 81.731L112.4 81.7672L112.409 81.3831L110.892 81.3468Z" fill="#00257D"/>
<path d="M110.415 85.9607L110.125 86.2134L112.095 88.4666L112.384 88.2139L110.415 85.9607Z" fill="#00257D"/>
<path d="M105.26 78.8507L105.25 79.2598L105.635 79.269L105.645 78.8599L105.26 78.8507Z" fill="#00257D"/>
<path d="M100.136 85.7156L98.0703 87.873L98.3484 88.1385L100.414 85.9811L100.136 85.7156Z" fill="#00257D"/>
<path d="M97.5634 86.9749L97.2734 87.2275L98.0638 88.1317L98.3538 87.8791L97.5634 86.9749Z" fill="#00257D"/>
<path d="M98.0149 88.0013L98.0078 88.2979L98.3925 88.307L98.3997 88.0104L98.0149 88.0013Z" fill="#00257D"/>
<path d="M98.0093 88.2983L97.9922 89.0054L98.3769 89.0145L98.394 88.3074L98.0093 88.2983Z" fill="#00257D"/>
<path d="M97.9954 89.005L97.9531 90.748L98.3378 90.7572L98.3801 89.0142L97.9954 89.005Z" fill="#00257D"/>
<path d="M96.7671 88.0754L96.7578 88.4595L98.2001 88.4938L98.2094 88.1097L96.7671 88.0754Z" fill="#00257D"/>
<path d="M96.6896 88.0745L96.6797 88.4585L96.7551 88.4604L96.765 88.0764L96.6896 88.0745Z" fill="#00257D"/>
<path d="M98.2046 88.1095L98.1953 88.4937L99.8138 88.5324L99.8231 88.1483L98.2046 88.1095Z" fill="#00257D"/>
<path d="M98.189 88.8171L98.1797 89.2012L99.7981 89.2399L99.8075 88.8558L98.189 88.8171Z" fill="#00257D"/>
<path d="M96.6734 88.7819L96.6641 89.166L98.1818 89.2023L98.1911 88.8182L96.6734 88.7819Z" fill="#00257D"/>
<path d="M103.493 81.9089L103.203 82.1616L105.173 84.4148L105.463 84.1621L103.493 81.9089Z" fill="#00257D"/>
<path d="M107.214 81.9699L105.148 84.1274L105.427 84.3928L107.492 82.2353L107.214 81.9699Z" fill="#00257D"/>
<path d="M105.105 85.2891L105.062 87.0317L105.447 87.0409L105.489 85.2983L105.105 85.2891Z" fill="#00257D"/>
<path d="M105.124 84.284L105.117 84.5806L105.502 84.5896L105.509 84.2931L105.124 84.284Z" fill="#00257D"/>
<path d="M105.119 84.5795L105.102 85.2866L105.486 85.2959L105.504 84.5888L105.119 84.5795Z" fill="#00257D"/>
<path d="M103.798 84.3566L103.789 84.7407L105.307 84.777L105.316 84.3929L103.798 84.3566Z" fill="#00257D"/>
<path d="M105.314 84.3932L105.305 84.7773L106.923 84.8161L106.932 84.432L105.314 84.3932Z" fill="#00257D"/>
<path d="M105.298 85.0993L105.289 85.4834L106.907 85.522L106.917 85.1379L105.298 85.0993Z" fill="#00257D"/>
<path d="M103.783 85.0632L103.773 85.4473L105.291 85.4837L105.3 85.0996L103.783 85.0632Z" fill="#00257D"/>
<path d="M99.9489 93.4856L97.8828 95.6431L98.1609 95.9085L100.227 93.7511L99.9489 93.4856Z" fill="#00257D"/>
<path d="M107.058 89.7683L104.992 91.9258L105.27 92.1913L107.336 90.0338L107.058 89.7683Z" fill="#00257D"/>
<path d="M103.306 89.678L103.016 89.9307L104.985 92.1839L105.275 91.9312L103.306 89.678Z" fill="#00257D"/>
<path d="M104.937 92.0541L104.93 92.3506L105.314 92.3597L105.322 92.0631L104.937 92.0541Z" fill="#00257D"/>
<path d="M104.917 93.0572L104.875 94.8003L105.26 94.8095L105.302 93.0664L104.917 93.0572Z" fill="#00257D"/>
<path d="M104.931 92.3499L104.914 93.0566L105.299 93.0658L105.316 92.3591L104.931 92.3499Z" fill="#00257D"/>
<path d="M103.611 92.1276L103.602 92.5117L105.119 92.548L105.129 92.1639L103.611 92.1276Z" fill="#00257D"/>
<path d="M105.126 92.1623L105.117 92.5464L106.736 92.585L106.745 92.2009L105.126 92.1623Z" fill="#00257D"/>
<path d="M103.595 92.8342L103.586 93.2183L105.104 93.2545L105.113 92.8705L103.595 92.8342Z" fill="#00257D"/>
<path d="M105.111 92.8703L105.102 93.2544L106.72 93.2932L106.729 92.9091L105.111 92.8703Z" fill="#00257D"/>
<path d="M129.266 48.8676L129.18 49.2422L134.569 50.4729L134.655 50.0983L129.266 48.8676Z" fill="#00257D"/>
<path d="M136.244 47.6958L123.109 44.7073C123.069 44.6982 123.034 44.6768 123.007 44.6461C122.98 44.6155 122.964 44.5772 122.961 44.5367L122.672 41.229L123.055 41.1955L123.332 44.3639L136.33 47.3212L136.244 47.6958Z" fill="#00257D"/>
<path d="M91.1918 127.587C109.261 143.296 120.65 138.935 120.65 138.935L98.1544 110.246L91.1918 127.587Z" fill="#00257D"/>
<path d="M118.174 139.587C113.82 139.967 104.126 139.089 91.0623 127.732L91.3151 127.442C96.439 131.897 104.307 137.511 112.691 138.957C117.698 139.82 120.55 138.767 120.578 138.756L120.716 139.115C119.89 139.374 119.037 139.533 118.174 139.587Z" fill="#00257D"/>
<path d="M149.928 51.2707C149.907 51.2726 149.885 51.2708 149.864 51.2655L138.206 48.2938C138.167 48.2839 138.133 48.2624 138.107 48.232C138.081 48.2016 138.065 48.164 138.062 48.1243L137.919 46.4896L126.242 43.8277C126.203 43.8186 126.167 43.7972 126.14 43.7665C126.114 43.7359 126.097 43.6976 126.094 43.6571L125.914 41.5972L126.297 41.5637L126.465 43.4843L138.142 46.1466C138.182 46.1557 138.217 46.1771 138.244 46.2078C138.271 46.2384 138.287 46.2767 138.29 46.3172L138.433 47.9554L149.786 50.8496L150.608 48.4341L150.973 48.5566L150.093 51.1402C150.082 51.1756 150.06 51.2068 150.03 51.23C150.001 51.2531 149.965 51.2673 149.928 51.2707V51.2707Z" fill="#00257D"/>
<path d="M112.559 103.596L132.682 99.6033L128.09 89.2025L113.507 91.3528L112.559 103.596Z" fill="#6EB60D"/>
<path d="M112.574 103.786C112.546 103.789 112.518 103.785 112.491 103.776C112.465 103.766 112.441 103.751 112.421 103.732C112.401 103.712 112.386 103.688 112.376 103.662C112.367 103.636 112.363 103.608 112.365 103.58L113.313 91.3374C113.317 91.294 113.335 91.2529 113.364 91.2211C113.394 91.1892 113.434 91.1683 113.477 91.1619L128.059 89.0113C128.101 89.0054 128.143 89.0132 128.18 89.0336C128.216 89.0539 128.245 89.0856 128.262 89.1239L132.855 99.525C132.866 99.5514 132.872 99.58 132.871 99.6087C132.87 99.6375 132.863 99.6656 132.849 99.6912C132.836 99.7167 132.817 99.7389 132.794 99.7562C132.771 99.7734 132.744 99.7853 132.716 99.7909L112.592 103.784C112.586 103.785 112.58 103.786 112.574 103.786ZM113.685 91.5197L112.768 103.357L132.407 99.4608L127.971 89.4128L113.685 91.5197Z" fill="#00257D"/>
<path d="M112.521 104.742C107.062 93.758 112.276 80.4669 112.276 80.4669L115.609 81.2519C115.609 81.2519 112.088 96.1397 116.393 105.687L112.521 104.742Z" fill="#FFE68C"/>
<path d="M116.41 105.877C116.389 105.879 116.368 105.877 116.347 105.872L112.476 104.929C112.448 104.922 112.423 104.91 112.401 104.892C112.379 104.875 112.361 104.853 112.349 104.827C106.914 93.8936 112.044 80.5289 112.097 80.395C112.114 80.3523 112.146 80.317 112.186 80.2956C112.227 80.2742 112.274 80.2679 112.319 80.2781L115.653 81.0631C115.702 81.0748 115.745 81.1057 115.772 81.149C115.799 81.1923 115.807 81.2444 115.796 81.294C115.182 84.1318 114.774 87.0103 114.577 89.9068C114.267 94.369 114.362 100.713 116.566 105.607C116.578 105.635 116.584 105.665 116.582 105.696C116.581 105.727 116.572 105.756 116.556 105.783C116.541 105.809 116.519 105.832 116.493 105.848C116.467 105.865 116.437 105.874 116.407 105.877L116.41 105.877ZM112.654 104.576L116.061 105.407C112.269 96.4848 115 83.1309 115.38 81.3931L112.397 80.6893C111.845 82.2077 107.673 94.4467 112.654 104.576V104.576Z" fill="#00257D"/>
<path d="M123.691 106.802C119.909 104.245 115.976 101.917 111.914 99.8301L101.81 126.661C111.396 134.087 119.974 140.531 129.115 140.916C143.67 141.53 148.867 132.32 150.793 125.067C153.901 113.356 143.911 104.315 135.797 102.192L131.469 105.183L123.691 106.802Z" fill="#00257D"/>
<path d="M75.5111 134.658C67.0589 107.247 68.7635 94.3775 68.7635 94.3775C68.7635 94.3775 75.1155 93.823 79.6287 95.4634L75.5111 134.658Z" fill="#FFD6B5"/>
<path d="M75.5256 134.849C75.4815 134.853 75.4374 134.841 75.4008 134.816C75.3642 134.791 75.3374 134.755 75.3248 134.712C70.9535 120.537 69.3494 110.325 68.7736 104.255C68.1482 97.6653 68.5659 94.3824 68.57 94.35C68.5758 94.3067 68.5962 94.2667 68.6278 94.2365C68.6594 94.2063 68.7004 94.1878 68.744 94.184C68.808 94.1784 75.1908 93.6444 79.6944 95.2807C79.7346 95.2954 79.7688 95.3231 79.7915 95.3594C79.8142 95.3957 79.8241 95.4385 79.8196 95.4811L75.7018 134.677C75.6972 134.721 75.6774 134.762 75.6459 134.793C75.6145 134.824 75.5731 134.844 75.529 134.848L75.5256 134.849ZM68.9349 94.5565C68.8627 95.2736 68.6111 98.4849 69.1592 104.243C69.7223 110.163 71.267 120.035 75.4162 133.697L79.4194 95.5916C75.4014 94.186 69.927 94.4876 68.9349 94.5565Z" fill="#00257D"/>
<path d="M102.826 60.3818L102.547 60.646L104.748 62.968L105.028 62.7039L102.826 60.3818Z" fill="#00257D"/>
<path d="M103.453 59.738L101.258 61.5977L101.507 61.8906L103.702 60.031L103.453 59.738Z" fill="#00257D"/>
<path d="M104.312 62.1511L102.789 63.4414L103.038 63.7343L104.561 62.4441L104.312 62.1511Z" fill="#00257D"/>
<path d="M76.1501 155.844L91.287 128.711L93.257 151.279" fill="#CC1D37"/>
<path d="M76.1642 156.036C76.1294 156.039 76.0944 156.032 76.063 156.017C76.0317 156.002 76.0051 155.978 75.9861 155.949C75.9671 155.92 75.9564 155.886 75.9553 155.851C75.9541 155.816 75.9624 155.782 75.9794 155.751L91.1163 128.617C91.1363 128.582 91.1674 128.553 91.2048 128.536C91.2423 128.519 91.2843 128.515 91.3245 128.523C91.3648 128.532 91.4012 128.553 91.4285 128.584C91.4558 128.614 91.4724 128.653 91.476 128.694L93.446 151.263C93.4499 151.308 93.4378 151.353 93.4118 151.39C93.3859 151.426 93.3477 151.453 93.3041 151.465L76.1973 156.03C76.1864 156.033 76.1753 156.035 76.1642 156.036V156.036ZM91.1471 129.351L76.5366 155.54L93.0485 151.134L91.1471 129.351Z" fill="#00257D"/>
<path d="M124.499 80.129L137.319 73.1174L147.662 72.2146L151.113 69.3854L152.687 70.3028L156.372 67.7998L158.959 71.2285L151.938 90.9379L149.384 89.9301L139.123 93.7785L135.791 102.192C137.627 102.551 154.37 108.675 150.787 125.067C129.211 114.116 124.182 87.522 124.499 80.129Z" fill="#FFAA00"/>
<path d="M150.806 125.258C150.77 125.261 150.734 125.254 150.701 125.238C129.55 114.502 123.954 88.41 124.309 80.1205C124.311 80.0872 124.321 80.0549 124.339 80.0268C124.357 79.9987 124.382 79.9757 124.411 79.96L137.23 72.9486C137.253 72.9359 137.279 72.9281 137.305 72.9258L147.589 72.0282L150.994 69.2365C151.024 69.2114 151.061 69.1961 151.1 69.1927C151.139 69.1893 151.179 69.1979 151.213 69.2174L152.681 70.0738L156.267 67.6397C156.308 67.6119 156.358 67.6009 156.407 67.609C156.455 67.617 156.499 67.6434 156.529 67.6828L159.116 71.1115C159.135 71.1369 159.147 71.1666 159.152 71.198C159.157 71.2294 159.154 71.2616 159.143 71.2915L152.122 91.0009C152.113 91.0251 152.1 91.0474 152.082 91.0664C152.065 91.0854 152.043 91.1006 152.02 91.1113C151.996 91.1219 151.971 91.1277 151.945 91.1284C151.919 91.129 151.894 91.1245 151.87 91.115L149.385 90.1344L139.273 93.9293L136.054 102.058C137.772 102.516 144.754 105.255 148.689 111.232C151.34 115.259 152.11 119.928 150.977 125.109C150.968 125.149 150.947 125.185 150.916 125.212C150.885 125.239 150.847 125.256 150.806 125.26L150.806 125.258ZM124.689 80.245C124.391 88.5551 129.943 114.108 150.653 124.781C151.686 119.803 150.917 115.317 148.369 111.442C144.303 105.265 136.943 102.612 135.757 102.381C135.729 102.375 135.703 102.364 135.68 102.347C135.658 102.331 135.639 102.309 135.625 102.284C135.612 102.26 135.604 102.232 135.602 102.204C135.6 102.176 135.605 102.148 135.615 102.122L138.947 93.7074C138.957 93.6824 138.972 93.6598 138.991 93.641C139.01 93.6222 139.033 93.6076 139.058 93.5982L149.32 89.7498C149.365 89.7331 149.414 89.7336 149.458 89.7512L151.826 90.6857L158.745 71.2615L156.331 68.0614L152.796 70.4614C152.766 70.4818 152.731 70.4933 152.695 70.4946C152.658 70.4958 152.623 70.4868 152.591 70.4685L151.133 69.6185L147.786 72.3627C147.756 72.3874 147.719 72.4025 147.68 72.4059L137.377 73.3052L124.689 80.245Z" fill="#00257D"/>
<path d="M156.621 71.5203L154.555 73.6777L154.833 73.9432L156.899 71.7857L156.621 71.5203Z" fill="#00257D"/>
<path d="M152.868 71.4309L152.578 71.6836L154.548 73.937L154.838 73.6844L152.868 71.4309Z" fill="#00257D"/>
<path d="M154.494 74.1015L154.477 74.8086L154.861 74.8178L154.878 74.1106L154.494 74.1015Z" fill="#00257D"/>
<path d="M154.499 73.805L154.492 74.1016L154.877 74.1109L154.884 73.8144L154.499 73.805Z" fill="#00257D"/>
<path d="M154.48 74.8073L154.438 76.5503L154.822 76.5595L154.864 74.8165L154.48 74.8073Z" fill="#00257D"/>
<path d="M154.689 73.9133L154.68 74.2974L156.298 74.3361L156.308 73.952L154.689 73.9133Z" fill="#00257D"/>
<path d="M153.173 73.8766L153.164 74.2607L154.681 74.297L154.691 73.9129L153.173 73.8766Z" fill="#00257D"/>
<path d="M153.158 74.5842L153.148 74.9683L154.666 75.0045L154.675 74.6204L153.158 74.5842Z" fill="#00257D"/>
<path d="M154.673 74.6203L154.664 75.0044L156.283 75.0432L156.292 74.6591L154.673 74.6203Z" fill="#00257D"/>
<path d="M152.681 79.2009L152.391 79.4536L154.361 81.7071L154.65 81.4544L152.681 79.2009Z" fill="#00257D"/>
<path d="M155.596 80.1636L154.367 81.4468L154.645 81.7122L155.874 80.429L155.596 80.1636Z" fill="#00257D"/>
<path d="M154.312 81.5751L154.305 81.8716L154.689 81.8809L154.697 81.5844L154.312 81.5751Z" fill="#00257D"/>
<path d="M154.306 81.8715L154.289 82.5786L154.674 82.5878L154.691 81.8807L154.306 81.8715Z" fill="#00257D"/>
<path d="M154.29 82.5784L154.258 83.9009L154.643 83.9101L154.675 82.5876L154.29 82.5784Z" fill="#00257D"/>
<path d="M154.502 81.6843L154.492 82.0684L155.16 82.0844L155.17 81.7003L154.502 81.6843Z" fill="#00257D"/>
<path d="M152.986 81.6467L152.977 82.0308L154.494 82.067L154.503 81.6829L152.986 81.6467Z" fill="#00257D"/>
<path d="M152.97 82.3542L152.961 82.7383L154.478 82.7745L154.488 82.3904L152.97 82.3542Z" fill="#00257D"/>
<path d="M152.493 86.969L152.203 87.2217L152.889 88.0063L153.179 87.7536L152.493 86.969Z" fill="#00257D"/>
<path d="M141.209 72.6326L140.531 73.3408L140.809 73.6063L141.488 72.8981L141.209 72.6326Z" fill="#00257D"/>
<path d="M140.282 72.7449L139.992 72.9976L140.519 73.6002L140.809 73.3475L140.282 72.7449Z" fill="#00257D"/>
<path d="M140.476 73.4691L140.469 73.7656L140.853 73.7747L140.861 73.4782L140.476 73.4691Z" fill="#00257D"/>
<path d="M140.463 73.7646L140.445 74.4717L140.83 74.4809L140.847 73.7738L140.463 73.7646Z" fill="#00257D"/>
<path d="M140.448 74.4723L140.406 76.2153L140.791 76.2245L140.833 74.4815L140.448 74.4723Z" fill="#00257D"/>
<path d="M139.15 73.5417L139.141 73.9258L140.658 73.9621L140.668 73.578L139.15 73.5417Z" fill="#00257D"/>
<path d="M140.666 73.5773L140.656 73.9614L142.275 74.0002L142.284 73.6161L140.666 73.5773Z" fill="#00257D"/>
<path d="M139.127 74.2482L139.117 74.6323L140.634 74.6686L140.644 74.2845L139.127 74.2482Z" fill="#00257D"/>
<path d="M140.642 74.2844L140.633 74.6685L142.251 74.7072L142.261 74.3231L140.642 74.2844Z" fill="#00257D"/>
<path d="M147.524 72.1693L147.516 72.498L147.9 72.5074L147.908 72.1786L147.524 72.1693Z" fill="#00257D"/>
<path d="M138.649 78.863L138.359 79.1157L140.329 81.3689L140.619 81.1162L138.649 78.863Z" fill="#00257D"/>
<path d="M142.402 78.9519L140.336 81.1094L140.614 81.3748L142.68 79.2174L142.402 78.9519Z" fill="#00257D"/>
<path d="M140.275 81.5355L140.258 82.2427L140.643 82.2518L140.66 81.5447L140.275 81.5355Z" fill="#00257D"/>
<path d="M140.288 81.2386L140.281 81.5352L140.666 81.5443L140.673 81.2477L140.288 81.2386Z" fill="#00257D"/>
<path d="M140.261 82.2423L140.219 83.9854L140.603 83.9946L140.646 82.2515L140.261 82.2423Z" fill="#00257D"/>
<path d="M138.962 81.3117L138.953 81.6958L140.471 81.7321L140.48 81.348L138.962 81.3117Z" fill="#00257D"/>
<path d="M140.478 81.3479L140.469 81.7319L142.087 81.7707L142.097 81.3866L140.478 81.3479Z" fill="#00257D"/>
<path d="M140.462 82.0554L140.453 82.4395L142.071 82.4782L142.081 82.0941L140.462 82.0554Z" fill="#00257D"/>
<path d="M138.939 82.0192L138.93 82.4033L140.447 82.4396L140.457 82.0555L138.939 82.0192Z" fill="#00257D"/>
<path d="M149.511 75.2366L147.445 77.394L147.723 77.6595L149.789 75.502L149.511 75.2366Z" fill="#00257D"/>
<path d="M145.759 75.1477L145.469 75.4004L147.439 77.6538L147.729 77.4011L145.759 75.1477Z" fill="#00257D"/>
<path d="M147.398 77.5223L147.391 77.8188L147.775 77.8279L147.782 77.5314L147.398 77.5223Z" fill="#00257D"/>
<path d="M147.37 78.5264L147.328 80.269L147.713 80.2782L147.755 78.5356L147.37 78.5264Z" fill="#00257D"/>
<path d="M147.384 77.8173L147.367 78.5244L147.752 78.5337L147.769 77.8266L147.384 77.8173Z" fill="#00257D"/>
<path d="M146.064 77.5954L146.055 77.9795L147.572 78.0158L147.582 77.6317L146.064 77.5954Z" fill="#00257D"/>
<path d="M147.58 77.6306L147.57 78.0146L149.188 78.0534L149.198 77.6694L147.58 77.6306Z" fill="#00257D"/>
<path d="M147.564 78.3371L147.555 78.7212L149.173 78.7598L149.182 78.3757L147.564 78.3371Z" fill="#00257D"/>
<path d="M146.048 78.3005L146.039 78.6846L147.556 78.721L147.566 78.3369L146.048 78.3005Z" fill="#00257D"/>
<path d="M142.215 86.7229L140.148 88.8804L140.427 89.1458L142.493 86.9884L142.215 86.7229Z" fill="#00257D"/>
<path d="M138.462 86.6331L138.172 86.8857L140.142 89.1388L140.431 88.8862L138.462 86.6331Z" fill="#00257D"/>
<path d="M140.087 89.3056L140.07 90.0127L140.455 90.0218L140.472 89.3148L140.087 89.3056Z" fill="#00257D"/>
<path d="M140.074 90.0127L140.031 91.7554L140.416 91.7646L140.458 90.0219L140.074 90.0127Z" fill="#00257D"/>
<path d="M140.093 89.0077L140.086 89.3042L140.471 89.3133L140.478 89.0167L140.093 89.0077Z" fill="#00257D"/>
<path d="M140.291 89.1179L140.281 89.502L141.9 89.5407L141.909 89.1566L140.291 89.1179Z" fill="#00257D"/>
<path d="M138.767 89.0817L138.758 89.4658L140.275 89.5021L140.285 89.118L138.767 89.0817Z" fill="#00257D"/>
<path d="M140.267 89.8244L140.258 90.2085L141.876 90.2471L141.886 89.863L140.267 89.8244Z" fill="#00257D"/>
<path d="M138.752 89.7893L138.742 90.1733L140.26 90.2098L140.269 89.8257L138.752 89.7893Z" fill="#00257D"/>
<path d="M149.324 83.0056L147.258 85.1631L147.536 85.4286L149.602 83.2711L149.324 83.0056Z" fill="#00257D"/>
<path d="M145.571 82.9153L145.281 83.168L147.251 85.4212L147.541 85.1685L145.571 82.9153Z" fill="#00257D"/>
<path d="M147.183 86.2951L147.141 88.0381L147.525 88.0473L147.568 86.3043L147.183 86.2951Z" fill="#00257D"/>
<path d="M147.197 85.5873L147.18 86.2944L147.564 86.3037L147.582 85.5966L147.197 85.5873Z" fill="#00257D"/>
<path d="M147.202 85.2914L147.195 85.5879L147.58 85.597L147.587 85.3004L147.202 85.2914Z" fill="#00257D"/>
<path d="M145.877 85.3644L145.867 85.7485L147.385 85.785L147.394 85.4009L145.877 85.3644Z" fill="#00257D"/>
<path d="M147.392 85.3996L147.383 85.7837L149.001 85.8223L149.011 85.4382L147.392 85.3996Z" fill="#00257D"/>
<path d="M145.861 86.0705L145.852 86.4546L147.369 86.4909L147.378 86.1068L145.861 86.0705Z" fill="#00257D"/>
<path d="M147.377 86.1081L147.367 86.4922L148.986 86.531L148.995 86.1469L147.377 86.1081Z" fill="#00257D"/>
<path d="M138.345 94.3625L138.055 94.6152L138.536 95.1656L138.826 94.9129L138.345 94.3625Z" fill="#00257D"/>
<path d="M145.384 90.6863L145.094 90.939L145.537 91.446L145.827 91.1934L145.384 90.6863Z" fill="#00257D"/>
<path d="M140.209 103.964L139.773 104.419L140.052 104.685L140.487 104.23L140.209 103.964Z" fill="#00257D"/>
<path d="M138.993 103.214L138.703 103.467L139.764 104.681L140.054 104.428L138.993 103.214Z" fill="#00257D"/>
<path d="M139.699 105.552L139.656 107.295L140.041 107.305L140.083 105.562L139.699 105.552Z" fill="#00257D"/>
<path d="M139.712 104.845L139.695 105.552L140.08 105.561L140.097 104.854L139.712 104.845Z" fill="#00257D"/>
<path d="M139.718 104.549L139.711 104.845L140.096 104.855L140.103 104.558L139.718 104.549Z" fill="#00257D"/>
<path d="M138.392 104.619L138.383 105.003L139.9 105.04L139.909 104.656L138.392 104.619Z" fill="#00257D"/>
<path d="M139.908 104.657L139.898 105.041L141.517 105.08L141.526 104.696L139.908 104.657Z" fill="#00257D"/>
<path d="M138.377 105.329L138.367 105.713L139.885 105.749L139.894 105.365L138.377 105.329Z" fill="#00257D"/>
<path d="M139.892 105.364L139.883 105.749L141.501 105.787L141.511 105.403L139.892 105.364Z" fill="#00257D"/>
<path d="M141.652 110.032L139.586 112.189L139.864 112.455L141.93 110.297L141.652 110.032Z" fill="#00257D"/>
<path d="M146.629 109.117L146.617 109.604L147.002 109.613L147.014 109.126L146.629 109.117Z" fill="#00257D"/>
<path d="M146.613 109.605L146.57 111.348L146.955 111.357L146.997 109.614L146.613 109.605Z" fill="#00257D"/>
<path d="M145.314 108.674L145.305 109.058L146.612 109.089L146.621 108.705L145.314 108.674Z" fill="#00257D"/>
<path d="M145.298 109.382L145.289 109.766L146.807 109.802L146.816 109.418L145.298 109.382Z" fill="#00257D"/>
<path d="M146.814 109.417L146.805 109.801L147.247 109.811L147.256 109.427L146.814 109.417Z" fill="#00257D"/>
<path d="M148.566 114.084L146.5 116.242L146.778 116.507L148.844 114.35L148.566 114.084Z" fill="#00257D"/>
<path d="M128.379 78.617L126.312 80.7744L126.591 81.0399L128.657 78.8824L128.379 78.617Z" fill="#00257D"/>
<path d="M135.488 74.9006L133.422 77.0581L133.7 77.3236L135.766 75.1661L135.488 74.9006Z" fill="#00257D"/>
<path d="M132.571 75.649L132.281 75.9019L133.474 77.2655L133.764 77.0126L132.571 75.649Z" fill="#00257D"/>
<path d="M133.367 77.1864L133.359 77.4829L133.744 77.492L133.751 77.1955L133.367 77.1864Z" fill="#00257D"/>
<path d="M133.339 78.1904L133.297 79.9331L133.682 79.9423L133.724 78.1996L133.339 78.1904Z" fill="#00257D"/>
<path d="M133.361 77.4833L133.344 78.1904L133.728 78.1996L133.746 77.4925L133.361 77.4833Z" fill="#00257D"/>
<path d="M133.556 77.2956L133.547 77.6797L135.165 77.7185L135.175 77.3344L133.556 77.2956Z" fill="#00257D"/>
<path d="M132.041 77.2595L132.031 77.6436L133.549 77.6798L133.558 77.2957L132.041 77.2595Z" fill="#00257D"/>
<path d="M133.541 78.0021L133.531 78.3862L135.15 78.4248L135.159 78.0407L133.541 78.0021Z" fill="#00257D"/>
<path d="M132.025 77.9665L132.016 78.3506L133.533 78.3869L133.543 78.0028L132.025 77.9665Z" fill="#00257D"/>
<path d="M131.548 82.5794L131.258 82.832L133.227 85.0852L133.517 84.8325L131.548 82.5794Z" fill="#00257D"/>
<path d="M135.3 82.6697L133.234 84.8271L133.512 85.0926L135.579 82.9351L135.3 82.6697Z" fill="#00257D"/>
<path d="M133.152 85.9601L133.109 87.7031L133.494 87.7123L133.536 85.9693L133.152 85.9601Z" fill="#00257D"/>
<path d="M133.173 85.2523L133.156 85.959L133.541 85.9682L133.558 85.2615L133.173 85.2523Z" fill="#00257D"/>
<path d="M133.179 84.9554L133.172 85.252L133.557 85.261L133.564 84.9645L133.179 84.9554Z" fill="#00257D"/>
<path d="M131.853 85.029L131.844 85.4131L133.361 85.4494L133.371 85.0653L131.853 85.029Z" fill="#00257D"/>
<path d="M133.369 85.0646L133.359 85.4487L134.978 85.4875L134.987 85.1034L133.369 85.0646Z" fill="#00257D"/>
<path d="M133.353 85.7717L133.344 86.1558L134.962 86.1945L134.972 85.8104L133.353 85.7717Z" fill="#00257D"/>
<path d="M131.837 85.7356L131.828 86.1196L133.346 86.1559L133.355 85.7718L131.837 85.7356Z" fill="#00257D"/>
<path d="M135.113 90.4397L133.047 92.5972L133.325 92.8626L135.391 90.7052L135.113 90.4397Z" fill="#00257D"/>
<path d="M131.36 90.3494L131.07 90.6021L133.04 92.8552L133.33 92.6026L131.36 90.3494Z" fill="#00257D"/>
<path d="M132.986 93.0219L132.969 93.729L133.353 93.7382L133.371 93.031L132.986 93.0219Z" fill="#00257D"/>
<path d="M132.964 93.7287L132.922 95.4717L133.307 95.4809L133.349 93.7379L132.964 93.7287Z" fill="#00257D"/>
<path d="M132.991 92.7254L132.984 93.022L133.369 93.0311L133.376 92.7345L132.991 92.7254Z" fill="#00257D"/>
<path d="M131.658 92.797L131.648 93.1812L133.166 93.2174L133.175 92.8333L131.658 92.797Z" fill="#00257D"/>
<path d="M133.181 92.8347L133.172 93.2188L134.79 93.2575L134.8 92.8734L133.181 92.8347Z" fill="#00257D"/>
<path d="M133.158 93.5417L133.148 93.9258L134.767 93.9646L134.776 93.5805L133.158 93.5417Z" fill="#00257D"/>
<path d="M131.642 93.5065L131.633 93.8906L133.15 93.9269L133.16 93.5428L131.642 93.5065Z" fill="#00257D"/>
<path d="M134.918 98.2092L132.852 100.367L133.13 100.632L135.196 98.4747L134.918 98.2092Z" fill="#00257D"/>
<path d="M131.165 98.1223L130.875 98.375L132.845 100.628L133.135 100.376L131.165 98.1223Z" fill="#00257D"/>
<path d="M132.804 100.495L132.797 100.792L133.182 100.801L133.189 100.504L132.804 100.495Z" fill="#00257D"/>
<path d="M132.777 101.5L132.734 103.243L133.119 103.252L133.161 101.509L132.777 101.5Z" fill="#00257D"/>
<path d="M132.791 100.792L132.773 101.499L133.158 101.508L133.175 100.801L132.791 100.792Z" fill="#00257D"/>
<path d="M131.47 100.567L131.461 100.951L132.978 100.987L132.988 100.603L131.47 100.567Z" fill="#00257D"/>
<path d="M132.994 100.604L132.984 100.988L134.603 101.027L134.612 100.643L132.994 100.604Z" fill="#00257D"/>
<path d="M132.97 101.311L132.961 101.695L134.579 101.734L134.589 101.35L132.97 101.311Z" fill="#00257D"/>
<path d="M131.455 101.275L131.445 101.659L132.963 101.695L132.972 101.311L131.455 101.275Z" fill="#00257D"/>
<path d="M60.1955 170.962C60.1566 170.966 60.1176 170.957 60.0837 170.938L52.8105 166.829C52.7832 166.814 52.7601 166.792 52.7432 166.765C52.7263 166.739 52.7162 166.709 52.7138 166.677L52.5336 164.392C52.5303 164.349 52.5417 164.306 52.566 164.27C52.5903 164.234 52.626 164.207 52.6674 164.194L55.5721 163.272L55.6886 163.638L52.9294 164.514L53.0892 166.544L60.205 170.567L88.1073 163.628L87.9484 161.609L82.3044 158.521L82.4894 158.184L88.2243 161.322C88.2523 161.337 88.2761 161.359 88.2935 161.386C88.3108 161.413 88.3213 161.444 88.3238 161.475L88.5035 163.76C88.5071 163.806 88.4945 163.851 88.4679 163.888C88.4412 163.925 88.4024 163.951 88.3581 163.962L60.2252 170.958C60.2154 170.96 60.2055 170.962 60.1955 170.962Z" fill="#00257D"/>
<path d="M132.97 141.031C131.683 141.14 130.391 141.165 129.102 141.108C119.624 140.708 110.506 133.644 101.687 126.812L101.923 126.508C110.694 133.302 119.763 140.329 129.118 140.724C143.27 141.321 148.612 132.512 150.602 125.017C151.176 122.898 151.317 120.685 151.016 118.511C150.715 116.337 149.978 114.245 148.849 112.362C146.106 107.661 140.961 103.743 135.743 102.378L135.841 102.006C141.153 103.396 146.39 107.384 149.182 112.168C150.337 114.095 151.09 116.235 151.398 118.459C151.706 120.684 151.561 122.948 150.973 125.116C149.14 132.021 144.512 140.023 132.97 141.031Z" fill="#00257D"/>
<path d="M101.806 126.66L101.697 126.576C99.5404 124.904 97.3276 123.181 95.0387 121.463L80.4997 152.392L69.697 149.075C73.0553 107.253 81.5271 90.8454 81.5271 90.8454C92.6832 91.3649 103.526 95.5351 111.91 99.8293L101.806 126.66Z" fill="#FFD6B5"/>
<path d="M80.5199 152.584C80.4952 152.586 80.4703 152.583 80.4466 152.576L69.6439 149.26C69.6024 149.247 69.5666 149.22 69.5423 149.183C69.5181 149.147 69.507 149.104 69.5107 149.06C71.2466 127.442 74.3734 112.747 76.691 104.227C79.2062 94.9831 81.3399 90.7991 81.3614 90.7579C81.3783 90.7252 81.4042 90.698 81.4361 90.6795C81.4679 90.6611 81.5044 90.6522 81.5412 90.6538C90.943 91.0916 101.192 94.1215 112.003 99.6585C112.045 99.68 112.078 99.7163 112.095 99.7603C112.112 99.8044 112.112 99.8531 112.095 99.8973L101.991 126.727C101.981 126.756 101.964 126.781 101.941 126.801C101.919 126.822 101.892 126.837 101.863 126.845C101.834 126.853 101.804 126.854 101.774 126.849C101.744 126.843 101.717 126.83 101.693 126.812L100.859 126.169C99.0016 124.728 97.082 123.24 95.1157 121.76L80.6775 152.474C80.6633 152.504 80.6412 152.531 80.6135 152.55C80.5858 152.569 80.5535 152.581 80.5199 152.584V152.584ZM69.9044 148.938L80.4002 152.16L94.8679 121.382C94.88 121.356 94.8978 121.333 94.9199 121.315C94.9421 121.297 94.968 121.284 94.9957 121.277C95.0235 121.27 95.0525 121.269 95.0805 121.275C95.1086 121.281 95.135 121.293 95.1579 121.31C97.1925 122.838 99.1768 124.376 101.095 125.863L101.721 126.349L111.673 99.923C101.015 94.4849 90.9155 91.4982 81.6472 91.0445C80.9165 92.5511 73.0879 109.499 69.9044 148.938Z" fill="#00257D"/>
<path d="M127.706 109.925C122.714 106.159 117.399 102.838 111.825 100L112.001 99.658C117.598 102.508 122.933 105.843 127.946 109.624L127.706 109.925Z" fill="#00257D"/>
<path d="M69.2242 134.294L88.7941 139.775L84.1494 149.878L85.8135 161.269L59.9162 167.71L54.2791 164.524L53.8881 160.044L68.6705 149.056L69.2242 134.294Z" fill="#CC1D37"/>
<path d="M59.9304 167.901C59.8915 167.904 59.8525 167.896 59.8186 167.877L54.1815 164.691C54.1544 164.675 54.1315 164.653 54.1147 164.627C54.0978 164.601 54.0876 164.571 54.085 164.54L53.6938 160.059C53.6909 160.026 53.6964 159.993 53.7098 159.963C53.7233 159.933 53.7441 159.907 53.7704 159.888L68.4793 148.955L69.0294 134.285C69.0306 134.257 69.0383 134.228 69.052 134.203C69.0656 134.177 69.0849 134.155 69.1084 134.138C69.1319 134.121 69.159 134.109 69.1876 134.104C69.2161 134.099 69.2455 134.1 69.2735 134.108L88.8433 139.589C88.8701 139.596 88.8949 139.61 88.9161 139.628C88.9372 139.646 88.9542 139.668 88.9659 139.693C88.9776 139.718 88.9836 139.746 88.9837 139.774C88.9837 139.801 88.9777 139.829 88.9661 139.854L84.3455 149.905L86.0012 161.24C86.0081 161.287 85.9972 161.335 85.9706 161.375C85.944 161.415 85.9036 161.443 85.8573 161.454L59.9588 167.895C59.9495 167.897 59.94 167.899 59.9304 167.901ZM54.4595 164.406L59.9414 167.504L85.5956 161.125L83.9565 149.906C83.951 149.869 83.9565 149.832 83.9722 149.798L88.5224 139.899L69.4051 134.545L68.8618 149.062C68.8607 149.091 68.8531 149.119 68.8397 149.145C68.8263 149.17 68.8073 149.192 68.7842 149.209L54.0878 160.134L54.4595 164.406Z" fill="#00257D"/>
<path d="M56.5417 158.068L61.8959 161.138L77.3827 152.041L81.2356 137.66L69.2204 134.294L68.6667 149.056L56.5417 158.068Z" fill="#FF6E85"/>
<path d="M61.9096 161.328C61.8705 161.332 61.8313 161.323 61.7973 161.303L56.4431 158.234C56.4155 158.218 56.3923 158.195 56.3755 158.168C56.3588 158.141 56.349 158.11 56.3471 158.078C56.3452 158.047 56.3513 158.015 56.3647 157.986C56.3781 157.957 56.3985 157.932 56.424 157.913L68.4749 148.955L69.0251 134.286C69.0262 134.257 69.0339 134.228 69.0476 134.203C69.0613 134.177 69.0806 134.155 69.1041 134.138C69.1276 134.121 69.1546 134.109 69.1832 134.104C69.2118 134.099 69.2412 134.1 69.2692 134.108L81.2847 137.473C81.3335 137.487 81.375 137.519 81.4001 137.563C81.4252 137.607 81.4319 137.659 81.4188 137.708L77.5655 152.09C77.5524 152.138 77.5206 152.18 77.4771 152.205L61.9903 161.302C61.9658 161.317 61.9381 161.326 61.9096 161.328V161.328ZM56.8888 158.046L61.8905 160.915L77.213 151.915L80.9966 137.792L69.4007 134.544L68.8574 149.062C68.8563 149.09 68.8487 149.119 68.8353 149.144C68.8219 149.169 68.8029 149.191 68.7798 149.209L56.8888 158.046Z" fill="#00257D"/>
<path d="M111.731 99.761L101.633 126.593L101.993 126.728L112.092 99.8961L111.731 99.761Z" fill="#00257D"/>
<path d="M131.425 104.995L123.648 106.614L123.727 106.99L131.503 105.371L131.425 104.995Z" fill="#00257D"/>
<path d="M150.789 125.066C151.305 122.868 151.436 120.598 151.176 118.356L151.113 118.29C129.872 105.583 129.296 90.9495 127.882 78.281L124.502 80.1294C124.185 87.5209 129.214 114.115 150.789 125.066Z" fill="#FFE68C"/>
<path d="M150.808 125.258C150.772 125.261 150.736 125.254 150.704 125.238C129.552 114.502 123.957 88.4098 124.312 80.1203C124.314 80.087 124.324 80.0547 124.342 80.0266C124.36 79.9985 124.384 79.9755 124.414 79.9598L127.794 78.1114C127.821 78.0963 127.852 78.0883 127.884 78.0879C127.915 78.0876 127.946 78.095 127.974 78.1096C128.002 78.1241 128.026 78.1452 128.044 78.1711C128.062 78.1971 128.073 78.227 128.077 78.2583C128.145 78.8694 128.212 79.484 128.276 80.102C129.59 92.2785 131.079 106.079 151.215 118.126C151.23 118.135 151.243 118.145 151.254 118.157L151.318 118.223C151.347 118.253 151.365 118.291 151.37 118.332C151.63 120.596 151.497 122.888 150.979 125.107C150.971 125.147 150.949 125.183 150.919 125.211C150.888 125.238 150.849 125.254 150.808 125.258ZM124.692 80.2448C124.394 88.5549 129.946 114.108 150.656 124.781C151.117 122.702 151.232 120.561 150.996 118.444V118.444C130.717 106.302 129.216 92.4056 127.895 80.1446C127.839 79.6227 127.783 79.1037 127.726 78.5878L124.692 80.2448Z" fill="#00257D"/>
<path d="M107.018 50.2558C107.005 50.257 106.992 50.2568 106.979 50.2553C101.818 49.6796 94.3866 43.8827 94.0726 43.6363C94.052 43.6201 94.035 43.5999 94.0225 43.5769C94.01 43.5539 94.0023 43.5286 93.9999 43.5026C93.9966 43.4643 93.7001 39.7983 97.043 39.3599C97.074 39.3564 97.1053 39.3602 97.1344 39.3711C97.1635 39.3819 97.1897 39.3995 97.2107 39.4224C103.34 46.1765 109.958 45.8788 110.024 45.8749L110.037 46.0882L110.176 45.9195L110.473 46.1635L107.15 50.1872C107.133 50.2068 107.113 50.2229 107.091 50.2347C107.068 50.2464 107.043 50.2536 107.018 50.2558ZM94.378 43.3863C95.1379 43.9714 102.124 49.2622 106.918 49.8615L109.892 46.2606C108.851 46.2642 102.711 46.005 96.9929 39.755C94.345 40.1674 94.3521 42.8679 94.378 43.3863V43.3863Z" fill="#00257D"/>
<path d="M107.018 50.2558C107.005 50.257 106.992 50.2568 106.979 50.2553C101.818 49.6796 94.3866 43.8827 94.0726 43.6363C94.052 43.6201 94.035 43.5999 94.0225 43.5769C94.01 43.5539 94.0023 43.5286 93.9999 43.5026C93.9966 43.4643 93.7001 39.7983 97.043 39.3599C97.074 39.3564 97.1053 39.3602 97.1344 39.3711C97.1635 39.3819 97.1897 39.3995 97.2107 39.4224C103.34 46.1765 109.958 45.8788 110.024 45.8749L110.037 46.0882L110.176 45.9195L110.473 46.1635L107.15 50.1872C107.133 50.2068 107.113 50.2229 107.091 50.2347C107.068 50.2464 107.043 50.2536 107.018 50.2558ZM94.378 43.3863C95.1379 43.9714 102.124 49.2622 106.918 49.8615L109.892 46.2606C108.851 46.2642 102.711 46.005 96.9929 39.755C94.345 40.1674 94.3521 42.8679 94.378 43.3863V43.3863Z" fill="#00257D"/>
<path d="M69.1455 138.959L69.0312 139.326L80.0076 142.729L80.1218 142.362L69.1455 138.959Z" fill="#00257D"/>
<path d="M68.8095 144.001L68.6953 144.368L78.6055 147.44L78.7197 147.073L68.8095 144.001Z" fill="#00257D"/>
<path d="M68.7265 148.872L68.6016 149.236L77.3173 152.221L77.4423 151.858L68.7265 148.872Z" fill="#00257D"/>
<path d="M60.7082 154.857L60.5469 155.206L67.0846 158.217L67.2459 157.868L60.7082 154.857Z" fill="#00257D"/>
<path d="M64.8304 151.789L64.6719 152.139L71.8891 155.395L72.0477 155.045L64.8304 151.789Z" fill="#00257D"/>
<path d="M120.486 139.248C114.53 136.799 108.659 132.42 101.603 126.953L101.838 126.65C108.871 132.098 114.721 136.46 120.633 138.893L120.486 139.248Z" fill="white"/>
<path d="M147.772 10.5949C149.602 11.9739 150.713 14.0666 150.778 16.357C152.032 13.9842 154.529 12.4592 157.166 12.2944C156.007 11.6902 155.007 10.7572 154.337 9.62463C153.667 8.49208 153.184 7.2312 153.202 5.90007C151.948 8.27283 149.451 9.79779 146.814 9.96259C147.143 10.1209 147.429 10.3364 147.772 10.5949Z" fill="white"/>
<path d="M150.318 17.8011C150.204 17.7149 150.133 17.5716 150.162 17.4142C150.917 14.0382 148.806 10.6546 145.427 9.90136C145.212 9.82922 145.141 9.6859 145.156 9.42829C145.199 9.37115 145.199 9.37115 145.242 9.31401C145.329 9.19973 145.472 9.12854 145.63 9.15758C149.009 9.91082 152.396 7.80135 153.151 4.42531C153.194 4.36817 153.194 4.36817 153.238 4.31103C153.367 4.13961 153.568 4.11151 153.739 4.24079C153.854 4.32697 153.925 4.4703 153.896 4.62767C153.141 8.00371 155.251 11.3873 158.631 12.1405C158.845 12.2127 158.916 12.356 158.901 12.6136C158.858 12.6708 158.858 12.6708 158.815 12.7279C158.729 12.8422 158.585 12.9134 158.428 12.8843C155.049 12.1311 151.661 14.2406 150.906 17.6166C150.863 17.6737 150.863 17.6737 150.82 17.7309C150.734 17.8452 150.59 17.9163 150.433 17.8873C150.433 17.8873 150.375 17.8442 150.318 17.8011ZM148.276 10.5244C149.82 11.6879 150.832 13.4368 151.056 15.3984C152.179 13.5549 154.146 12.2575 156.324 12.1058C154.479 10.9845 153.181 9.02008 153.03 6.844C151.806 8.70155 149.883 9.94176 147.704 10.0935C147.876 10.2227 148.105 10.3951 148.276 10.5244Z" fill="#00257D"/>
</g>
<path d="M32.0734 124.419C33.957 123.418 36.1602 123.303 38.1184 124.15C36.6095 122.159 36.3054 119.451 37.2039 117.161C36.238 117.901 35.0572 118.378 33.8378 118.498C32.6185 118.618 31.3643 118.53 30.2482 117.99C31.7572 119.982 32.0613 122.689 31.1628 124.979C31.4259 124.764 31.7202 124.607 32.0734 124.419Z" fill="white"/>
<path d="M39.1572 125.109C39.0395 125.171 38.8905 125.175 38.7692 125.088C36.2175 123.123 32.5319 123.573 30.5666 126.128C30.4213 126.28 30.2723 126.284 30.0609 126.17C30.0296 126.111 30.0296 126.111 29.9984 126.052C29.9359 125.934 29.9323 125.785 30.0188 125.664C31.984 123.109 31.5369 119.42 28.9852 117.455C28.954 117.396 28.954 117.396 28.9228 117.337C28.829 117.16 28.8843 116.98 29.0609 116.886C29.1786 116.824 29.3276 116.82 29.4489 116.906C32.0006 118.872 35.6863 118.422 37.6515 115.867C37.7968 115.714 37.9458 115.711 38.1572 115.825C38.1885 115.884 38.1885 115.884 38.2197 115.943C38.2822 116.06 38.2858 116.209 38.1993 116.331C36.2341 118.886 36.6812 122.574 39.2329 124.54C39.2641 124.599 39.2641 124.599 39.2954 124.658C39.3578 124.776 39.3614 124.925 39.2749 125.046C39.2749 125.046 39.2161 125.077 39.1572 125.109ZM32.2135 123.968C33.8028 123.123 35.6769 122.957 37.42 123.541C36.3063 121.868 35.9855 119.698 36.7146 117.8C35.0424 118.916 32.874 119.238 30.9783 118.509C32.0644 120.272 32.354 122.384 31.6249 124.281C31.8015 124.188 32.0369 124.062 32.2135 123.968Z" fill="#00257D"/>
<defs>
<clipPath id="clip0_1421_3227">
<rect width="180" height="180" fill="white"/>
</clipPath>
</defs>
</svg>
