<svg width="60" height="30" viewBox="0 0 60 30" fill="none" xmlns="http://www.w3.org/2000/svg">
<path d="M2.34374 17.3438H51.9794L43.7571 25.5263C42.8396 26.4394 42.8361 27.9233 43.7492 28.8408C44.6623 29.7584 46.1464 29.7618 47.0639 28.8488L59.3104 16.6613C59.3112 16.6606 59.3118 16.6597 59.3125 16.659C60.2277 15.7459 60.2306 14.2572 59.3128 13.341C59.3119 13.3403 59.3114 13.3395 59.3107 13.3388L47.0641 1.15126C46.1468 0.238369 44.6627 0.241531 43.7495 1.15923C42.8363 2.07669 42.8398 3.56063 43.7573 4.47376L51.9794 12.6563H2.34374C1.04929 12.6563 -7.62939e-06 13.7056 -7.62939e-06 15C-7.62939e-06 16.2945 1.04929 17.3438 2.34374 17.3438Z" fill="white"/>
</svg>
