<svg width="68" height="69" viewBox="0 0 68 69" fill="none" xmlns="http://www.w3.org/2000/svg">
<path d="M21.6766 12.0421C24.0658 10.3298 24.6104 6.99915 22.893 4.60287C21.1756 2.20659 17.8465 1.65213 15.4574 3.36444C13.0682 5.07674 12.5236 8.40741 14.241 10.8037C15.9583 13.2 19.2874 13.7544 21.6766 12.0421Z" fill="#00257D"/>
<path d="M23.0033 10.858C22.998 10.8618 22.992 10.8644 22.9857 10.8658C21.7187 11.087 20.4246 11.1097 19.1495 10.9329C17.245 10.659 14.6868 9.75311 13.3136 6.99256L13.3981 6.95074C14.753 9.67422 17.2807 10.5687 19.1626 10.8393C20.361 11.0032 21.5763 10.9926 22.7707 10.8079C17.7978 9.26263 15.795 3.2548 15.7746 3.19386L15.8642 3.16455C15.8842 3.22615 17.9238 9.34053 22.9879 10.7739C22.9965 10.7763 23.0042 10.7811 23.0102 10.7877C23.0162 10.7943 23.0202 10.8025 23.0218 10.8113C23.0233 10.8201 23.0224 10.8291 23.019 10.8374C23.0157 10.8456 23.01 10.8527 23.0028 10.8579L23.0033 10.858Z" fill="white"/>
<path d="M22.9552 10.8621C18.6544 8.71503 16.9824 2.69419 16.9663 2.6339L17.0575 2.60952C17.0737 2.66962 18.7351 8.64994 22.9974 10.778L22.9552 10.8621Z" fill="white"/>
<path d="M21.7706 12.0915C20.9074 12.7102 19.8796 13.0583 18.8171 13.0917C17.7546 13.1252 16.7052 12.8425 15.8016 12.2794C14.898 11.7163 14.1807 10.8982 13.7405 9.92833C13.3003 8.9585 13.1569 7.8806 13.3285 6.83094C13.5001 5.78127 13.979 4.80699 14.7046 4.03129C15.4301 3.2556 16.3698 2.71334 17.4048 2.47309C18.4397 2.23283 19.5235 2.30538 20.519 2.68155C21.5145 3.05772 22.377 3.72061 22.9975 4.5864C23.8279 5.74784 24.1651 7.19025 23.9351 8.59722C23.7051 10.0042 22.9266 11.2608 21.7706 12.0915ZM15.5513 3.41369C14.7032 4.02142 14.0549 4.86773 13.6884 5.84561C13.3219 6.82349 13.2536 7.88901 13.4922 8.90743C13.7308 9.92585 14.2656 10.8514 15.0289 11.5671C15.7921 12.2828 16.7497 12.7564 17.7804 12.9281C18.8111 13.0998 19.8686 12.9619 20.8193 12.5317C21.77 12.1016 22.5711 11.3986 23.1214 10.5116C23.6716 9.62455 23.9462 8.59341 23.9105 7.54853C23.8748 6.50364 23.5304 5.49195 22.9208 4.64139C22.1024 3.50218 20.867 2.73314 19.4854 2.50299C18.1038 2.27283 16.689 2.60035 15.5513 3.41369Z" fill="#00257D"/>
<path d="M2.64336 52.3863L3.50026 53.5702L4.49987 54.5702L5.00026 55.0702L6.99987 57.0702L15.5 52.0703L17 49.5703L18.8124 47.6202L18.5218 41.295L10.8574 42.2267L10 45.0703L2.00023 51.0703L2.64336 52.3863Z" fill="#FFD6B5"/>
<path d="M30.7222 11.4454C33.216 13.0014 36.5028 12.2352 38.0634 9.734C39.6241 7.23281 38.8676 3.94379 36.3738 2.38775C33.88 0.831724 30.5932 1.59793 29.0326 4.09912C27.472 6.6003 28.2284 9.88933 30.7222 11.4454Z" fill="#00257D"/>
<path d="M32.3227 12.2204C32.3172 12.217 32.3124 12.2124 32.3088 12.2071C31.6213 11.1201 31.107 9.93233 30.7843 8.68621C30.3115 6.82111 30.1738 4.11072 32.2024 1.78885L32.2733 1.85105C30.272 4.14185 30.4087 6.81967 30.8758 8.66262C31.1812 9.83297 31.6543 10.9525 32.2803 11.9863C31.8132 6.7998 36.6039 2.65802 36.6524 2.61588L36.7137 2.6876C36.6644 2.72957 31.7892 6.94595 32.3945 12.1741C32.3956 12.183 32.3941 12.1919 32.3903 12.2C32.3864 12.2081 32.3804 12.2149 32.3729 12.2197C32.3654 12.2244 32.3566 12.227 32.3477 12.2271C32.3388 12.2271 32.3301 12.2246 32.3226 12.2199L32.3227 12.2204Z" fill="white"/>
<path d="M32.3007 12.1772C32.6461 7.38263 37.5749 3.54172 37.6245 3.50381L37.6818 3.57885C37.6325 3.61678 32.7371 7.43246 32.3946 12.1841L32.3007 12.1772Z" fill="white"/>
<path d="M30.7124 11.5511C29.8114 10.9889 29.0977 10.1714 28.6618 9.20195C28.2258 8.23246 28.0871 7.15453 28.2632 6.10448C28.4393 5.05443 28.9223 4.07942 29.6511 3.30275C30.3799 2.52607 31.3217 1.98263 32.3575 1.74113C33.3934 1.49963 34.4766 1.57093 35.4703 1.94601C36.464 2.3211 37.3236 2.98311 37.9402 3.84834C38.5569 4.71356 38.9029 5.74314 38.9347 6.80687C38.9664 7.87061 38.6824 8.92071 38.1185 9.82439C37.3613 11.0348 36.1564 11.8964 34.7679 12.2201C33.3795 12.5438 31.921 12.3032 30.7124 11.5511ZM36.3641 2.49339C35.4789 1.94101 34.4494 1.66429 33.4056 1.69823C32.3619 1.73216 31.3508 2.07523 30.5002 2.68404C29.6497 3.29286 28.9979 4.14007 28.6272 5.11854C28.2565 6.09702 28.1837 7.16281 28.4178 8.18113C28.652 9.19946 29.1827 10.1246 29.9428 10.8395C30.7028 11.5544 31.6582 12.027 32.688 12.1976C33.7177 12.3681 34.7757 12.2289 35.7281 11.7976C36.6805 11.3663 37.4845 10.6622 38.0384 9.77442C38.7796 8.58358 39.0196 7.14822 38.7057 5.78324C38.3918 4.41826 37.5497 3.23512 36.3641 2.49339Z" fill="#00257D"/>
<path d="M10.0176 42.9357L16.5647 31.3504L25.8247 33.5306C25.8247 33.5306 23.3425 44.0239 26.3768 50.7534L23.1807 49.9744L20.5579 45.5255L18.5026 50.9873L8.30189 45.9842L10.0176 42.9357Z" fill="#FFAA00"/>
<path d="M26.3882 50.8887C26.3735 50.8899 26.3587 50.8888 26.3444 50.8852L23.1483 50.1065C23.1307 50.1022 23.1141 50.0944 23.0996 50.0836C23.085 50.0728 23.0728 50.0591 23.0636 50.0435L20.5846 45.8389L18.6281 51.0355C18.6215 51.0532 18.6112 51.0693 18.5979 51.0828C18.5846 51.0963 18.5687 51.1068 18.5511 51.1138C18.5335 51.1208 18.5146 51.124 18.4957 51.1232C18.4768 51.1225 18.4583 51.1178 18.4413 51.1094L8.24193 46.1062C8.22538 46.0981 8.21066 46.0867 8.19868 46.0727C8.18669 46.0587 8.1777 46.0424 8.17224 46.0248C8.16678 46.0072 8.16497 45.9887 8.16692 45.9704C8.16888 45.9521 8.17455 45.9344 8.1836 45.9183L9.89908 42.8701L16.4464 31.2845C16.4609 31.2589 16.4833 31.2388 16.5102 31.227C16.5371 31.2153 16.5671 31.2125 16.5957 31.2193L25.8557 33.3994C25.8907 33.4077 25.9209 33.4295 25.9398 33.46C25.9587 33.4905 25.9647 33.5272 25.9565 33.5622C25.9318 33.6668 23.5199 44.0887 26.4993 50.6985C26.5082 50.7183 26.5123 50.7398 26.5111 50.7615C26.5099 50.7831 26.5036 50.8041 26.4926 50.8227C26.4816 50.8414 26.4663 50.8572 26.448 50.8687C26.4296 50.8803 26.4088 50.8872 26.3872 50.8891L26.3882 50.8887ZM23.2683 49.8563L26.1425 50.5568C23.47 44.2684 25.3947 34.8562 25.6627 33.6313L16.6326 31.5053L10.1352 43.0022L8.49003 45.9261L18.4265 50.8003L20.4303 45.4781C20.4393 45.4542 20.4549 45.4333 20.4753 45.4178C20.4957 45.4024 20.52 45.393 20.5455 45.3908C20.571 45.3887 20.5965 45.3937 20.6192 45.4055C20.6419 45.4172 20.6609 45.4351 20.6738 45.4571L23.2683 49.8563Z" fill="#00257D"/>
<path d="M8.40852 45.9512L1.90852 50.9531L2.09148 51.1909L8.59148 46.1889L8.40852 45.9512Z" fill="#00257D"/>
<path d="M15.5002 52.0696L15.5763 52.1989L15.6145 52.1763L15.6344 52.1367L15.5002 52.0696ZM15.4241 51.9403L6.92394 56.941L7.07606 57.1996L15.5763 52.1989L15.4241 51.9403ZM15.6344 52.1367L16.6343 50.1369L16.366 50.0027L15.366 52.0025L15.6344 52.1367Z" fill="#00257D"/>
<path d="M51.4321 40.3569L61.8508 31.6284L56.3809 26.4652L51.4321 40.3569Z" fill="#FFAA00"/>
<path d="M61.7655 31.5275L51.3433 40.2521L51.5175 40.4596L61.9397 31.735L61.7655 31.5275Z" fill="#00257D"/>
<path d="M33.2735 6.18361C25.2783 5.08472 11.4966 8.95647 18.6013 25.5967L18.77 22.6735L18.5953 18.526L23.1595 13.8933C23.1595 13.8933 28.0179 14.303 31.4834 11.5592C31.5745 12.6024 30.0572 13.5759 30.0572 13.5759C30.0572 13.5759 33.9048 13.4162 35.3133 9.64966C35.8243 6.61035 33.2735 6.18361 33.2735 6.18361Z" fill="#00257D"/>
<path d="M18.5948 18.5248C17.4898 16.7305 15.4968 17.3915 15.0607 18.8983C14.6052 20.4673 15.543 22.827 18.7705 22.6722L18.6018 25.5955L25.3626 28.2271L25.8255 33.5299L23.673 33.7178L24.3295 56.8133L41.5944 52.1183L33.3503 32.9403L32.0936 32.7406L31.7759 29.1009L34.2191 29.4245L42.8124 22.8462L41.6595 9.63818L35.0115 7.40099C35.0115 7.40099 27.8763 10.6494 23.1601 13.8921L18.5948 18.5248Z" fill="#FFD6B5"/>
<path d="M30.0689 13.7103C30.039 13.7129 30.0091 13.7055 29.9839 13.6893C29.9587 13.6731 29.9396 13.6491 29.9295 13.6209C29.9195 13.5927 29.919 13.562 29.9283 13.5335C29.9376 13.505 29.9561 13.4805 29.9809 13.4636C31.1252 12.6841 31.3489 12.1055 31.3761 11.8177C26.8242 15.341 19.3561 13.5932 19.2802 13.5748C19.2495 13.5673 19.2223 13.5493 19.2035 13.5239C19.1847 13.4985 19.1753 13.4673 19.1771 13.4358C19.1789 13.4042 19.1917 13.3743 19.2132 13.3511C19.2348 13.328 19.2637 13.3131 19.2951 13.309C19.3398 13.3032 23.7935 12.7223 24.985 11.0075L25.2078 11.1617C24.2485 12.5423 21.4529 13.2071 20.0892 13.4569C22.1115 13.7993 27.7922 14.4215 31.3972 11.4549C31.4131 11.4418 31.4317 11.4325 31.4517 11.4277C31.4717 11.4229 31.4926 11.4227 31.5127 11.4272C31.5328 11.4316 31.5516 11.4405 31.5677 11.4533C31.5838 11.466 31.5968 11.4823 31.6057 11.5008C31.6216 11.5339 31.9487 12.2641 30.5742 13.364C31.6043 13.1952 32.5722 12.7598 33.3813 12.101C34.1903 11.4422 34.8123 10.5832 35.1851 9.60962L35.4441 9.68894C35.2024 10.3645 34.8351 10.9885 34.3615 11.528C33.271 12.7849 31.7326 13.5677 30.0734 13.7099L30.0689 13.7103Z" fill="#00257D"/>
<path d="M24.3513 40.786C24.3154 40.7891 24.2798 40.7779 24.2523 40.7548C24.2247 40.7317 24.2075 40.6986 24.2044 40.6629L23.5372 33.7303C23.5341 33.6945 23.5453 33.659 23.5684 33.6314C23.5916 33.6039 23.6247 33.5867 23.6605 33.5836L25.6779 33.4075L25.2341 28.3237L18.5517 25.7225C18.5346 25.7158 18.5191 25.7057 18.506 25.6929C18.4929 25.68 18.4826 25.6646 18.4757 25.6476C18.0598 24.6517 17.6966 23.6347 17.3875 22.6008L17.6476 22.5238C17.9483 23.5302 18.301 24.5204 18.7043 25.4904L25.4121 28.101C25.4356 28.1102 25.4561 28.1258 25.4712 28.146C25.4864 28.1662 25.4956 28.1902 25.4977 28.2153L25.9606 33.5182C25.9637 33.554 25.9525 33.5895 25.9294 33.617C25.9063 33.6445 25.8731 33.6618 25.8373 33.6649L23.8213 33.8408L24.4615 40.4955L34.4568 39.0215L33.2362 33.0579L32.0722 32.873C32.0423 32.8683 32.0149 32.8537 31.9943 32.8316C31.9736 32.8095 31.961 32.7812 31.9584 32.7511L31.6277 28.9622L31.8979 28.9386L32.2195 32.6229L33.3716 32.8061C33.3988 32.8104 33.424 32.8229 33.4439 32.8419C33.4638 32.8609 33.4774 32.8855 33.483 32.9124L34.751 39.1081C34.7547 39.1262 34.7547 39.1448 34.751 39.1628C34.7472 39.1809 34.7399 39.198 34.7293 39.2131C34.7187 39.2282 34.7051 39.2409 34.6894 39.2506C34.6737 39.2603 34.6562 39.2667 34.6379 39.2694L24.3602 40.7852L24.3513 40.786Z" fill="#00257D"/>
<path d="M16.8038 17.394L16.5318 17.3971C16.495 13.9785 17.6787 11.2285 20.0496 9.22311C23.7684 6.07831 29.8227 5.41964 33.8748 6.13885L33.8275 6.40528C29.8363 5.69707 23.8782 6.3411 20.2266 9.42947C17.9195 11.3803 16.7681 14.0599 16.8038 17.394Z" fill="#00257D"/>
<path d="M33.2733 6.18359C27.0269 5.32511 17.2489 7.50077 16.6578 16.4278C18.5761 16.9013 22.3883 14.6755 22.3883 14.6755L23.1593 13.8928C23.1593 13.8928 28.0177 14.3024 31.4832 11.5586C31.5743 12.6018 30.057 13.5753 30.057 13.5753C30.057 13.5753 33.9046 13.4156 35.3131 9.6491C35.8241 6.61033 33.2733 6.18359 33.2733 6.18359Z" fill="#00257D"/>
<path d="M34.231 29.56C34.2211 29.5608 34.2112 29.5606 34.2013 29.5593L28.0613 28.7462L28.0969 28.4778L34.1797 29.2834L42.669 22.7843L41.8702 13.6329L42.1404 13.6093L42.9457 22.8354C42.9477 22.8581 42.9439 22.8808 42.9347 22.9016C42.9256 22.9224 42.9113 22.9406 42.8932 22.9544L34.3 29.533C34.28 29.5482 34.2561 29.5575 34.231 29.56Z" fill="#00257D"/>
<path d="M18.7363 25.6042L18.4656 25.5886L18.6258 22.8135C16.8695 22.858 15.9378 22.1622 15.4625 21.5616C15.1683 21.1845 14.9668 20.7438 14.8743 20.2747C14.7818 19.8057 14.8008 19.3215 14.9298 18.8611C15.0366 18.4667 15.2557 18.1116 15.5605 17.8389C15.8653 17.5663 16.2427 17.3877 16.6471 17.3249C17.3981 17.2229 18.1123 17.5797 18.6176 18.3092L23.0638 13.7967L23.2571 13.9867L18.6929 18.619C18.6784 18.6337 18.6608 18.6449 18.6414 18.6518C18.622 18.6587 18.6013 18.661 18.5809 18.6587C18.5604 18.6564 18.5408 18.6495 18.5234 18.6385C18.506 18.6275 18.4914 18.6127 18.4806 18.5952C18.0307 17.8646 17.3746 17.4995 16.6835 17.593C16.3326 17.6516 16.0057 17.8092 15.7413 18.047C15.4769 18.2849 15.286 18.5931 15.1911 18.9356C15.0737 19.3547 15.0564 19.7956 15.1407 20.2226C15.2251 20.6496 15.4086 21.0508 15.6766 21.394C16.1256 21.9618 17.0258 22.6209 18.7643 22.538C18.7833 22.537 18.8023 22.5401 18.8201 22.547C18.8378 22.5538 18.8539 22.5644 18.8673 22.5779C18.8807 22.5913 18.8911 22.6075 18.8979 22.6253C18.9046 22.6431 18.9075 22.6621 18.9064 22.681L18.7363 25.6042Z" fill="#00257D"/>
<path d="M30.075 18.0125C30.075 18.0125 27.5861 14.8303 22.7475 16.1355C24.231 19.4528 30.075 18.0125 30.075 18.0125Z" fill="white"/>
<path d="M37.5841 17.7816C37.5841 17.7816 39.2615 15.0713 41.7404 15.7188C41.7626 18.3723 37.5841 17.7816 37.5841 17.7816Z" fill="white"/>
<path d="M23.1553 14.0286C21.8518 14.0003 20.5539 13.8484 19.2792 13.5751C19.2485 13.5675 19.2213 13.5495 19.2025 13.5241C19.1837 13.4987 19.1744 13.4676 19.1761 13.436C19.1779 13.4045 19.1907 13.3745 19.2122 13.3514C19.2338 13.3282 19.2627 13.3133 19.2941 13.3093C19.3388 13.3035 23.7925 12.7225 24.984 11.0077L25.2068 11.1619C24.2463 12.544 21.4452 13.2088 20.0833 13.4576C21.101 13.631 22.1298 13.7313 23.1619 13.7578L23.1553 14.0286Z" fill="white"/>
<path d="M28.365 18.4096C27.8989 18.4515 27.4307 18.4655 26.963 18.4518C24.7531 18.3786 23.2527 17.5962 22.6235 16.1893C22.6155 16.1714 22.6115 16.152 22.6117 16.1324C22.6119 16.1128 22.6164 16.0935 22.6248 16.0758C22.6332 16.0582 22.6454 16.0425 22.6605 16.03C22.6755 16.0174 22.6931 16.0083 22.7121 16.0032C25.2529 15.3177 27.147 15.8746 28.2879 16.4625C29.0105 16.8204 29.6543 17.3187 30.1817 17.9281C30.1956 17.9459 30.2049 17.9669 30.2086 17.9892C30.2123 18.0114 30.2103 18.0343 30.2029 18.0556C30.1956 18.0769 30.1829 18.0961 30.1662 18.1113C30.1495 18.1266 30.1293 18.1374 30.1073 18.1428C29.5334 18.2716 28.9512 18.3607 28.365 18.4096ZM22.9404 16.2236C24.2904 18.8669 28.7649 18.1404 29.819 17.9277C29.2278 17.3087 26.8883 15.2293 22.9404 16.2236Z" fill="#00257D"/>
<path d="M39.1747 17.9485C38.6386 17.9932 38.0993 17.9824 37.5655 17.9161C37.5432 17.913 37.522 17.9044 37.5038 17.891C37.4857 17.8777 37.4712 17.86 37.4616 17.8396C37.452 17.8192 37.4476 17.7968 37.4489 17.7743C37.4502 17.7518 37.4571 17.73 37.4689 17.7109C37.4863 17.6822 39.2289 14.923 41.776 15.5882C41.8048 15.5957 41.8304 15.6125 41.8486 15.6359C41.8669 15.6594 41.877 15.6882 41.8772 15.718C41.8906 16.0003 41.8403 16.2821 41.7299 16.5424C41.6194 16.8028 41.4518 17.035 41.2393 17.2219C40.6934 17.6991 39.8911 17.886 39.1747 17.9485ZM37.8246 17.6714C38.4381 17.725 40.1702 17.7961 41.0598 17.018C41.2296 16.8687 41.3659 16.6853 41.4596 16.4797C41.5533 16.2742 41.6023 16.0511 41.6034 15.8253C39.6718 15.3929 38.2428 17.0975 37.8246 17.6714Z" fill="#00257D"/>
<path d="M35.1503 22.3431L35.95 22.0099L36.6737 23.5323L34.7238 24.7865L32.6503 22.9595L34.5288 21.7205L35.1503 22.3431Z" fill="#CC1D37"/>
<path d="M28.6666 16.8612C28.6885 17.1122 28.6462 17.3646 28.5437 17.5948C28.4412 17.825 28.2819 18.0255 28.0806 18.1775C27.8793 18.3294 27.6427 18.4279 27.3929 18.4636C27.1431 18.4993 26.8884 18.4711 26.6525 18.3817C26.4167 18.2922 26.2075 18.1444 26.0445 17.9522C25.8815 17.7599 25.7701 17.5294 25.7208 17.2824C25.6714 17.0354 25.6856 16.7799 25.7622 16.5398C25.8388 16.2997 25.9751 16.083 26.1585 15.9099C26.1585 15.9099 27.7171 16.1835 28.6666 16.8612Z" fill="#00257D"/>
<path d="M40.8492 15.4943C41.004 15.6151 41.1255 15.7732 41.2023 15.9538C41.2792 16.1343 41.3089 16.3314 41.2886 16.5266C41.2683 16.7217 41.1987 16.9085 41.0864 17.0695C40.974 17.2305 40.8225 17.3604 40.6462 17.447C40.4698 17.5336 40.2744 17.5741 40.0781 17.5647C39.8818 17.5552 39.6911 17.4962 39.524 17.3931C39.3568 17.29 39.2186 17.1462 39.1224 16.9752C39.0261 16.8041 38.9749 16.6115 38.9736 16.4153C38.9736 16.4153 39.958 15.6743 40.8492 15.4943Z" fill="#00257D"/>
<path d="M32.8787 18.8521L32.7686 19.0996L34.3983 19.8221L34.5084 19.5746L32.8787 18.8521Z" fill="#00257D"/>
<path d="M36.6226 19.16L35.6899 19.7305L35.8316 19.9614L36.7642 19.3909L36.6226 19.16Z" fill="#00257D"/>
<path d="M37.4598 23.6012C32.8122 24.0068 30.4216 22.0091 30.3192 21.9213L30.4957 21.7156C30.5207 21.7368 33.0581 23.8478 37.865 23.2874L37.8967 23.5565C37.749 23.5737 37.6033 23.5886 37.4598 23.6012Z" fill="#00257D"/>
<path d="M34.7356 24.9214C34.7173 24.923 34.6989 24.9209 34.6814 24.9152C34.664 24.9095 34.6479 24.9003 34.6341 24.8882L32.5604 23.0612C32.5448 23.0474 32.5326 23.0303 32.5247 23.011C32.5168 22.9918 32.5134 22.971 32.5149 22.9503C32.5163 22.9296 32.5226 22.9094 32.5331 22.8915C32.5436 22.8735 32.558 22.8582 32.5754 22.8468L34.4548 21.6074C34.4809 21.5902 34.5121 21.5826 34.5432 21.5858C34.5743 21.589 34.6033 21.6028 34.6254 21.6248L35.1827 22.1829L35.8986 21.885C35.9307 21.8716 35.9667 21.871 35.9992 21.8834C36.0316 21.8957 36.0581 21.92 36.0732 21.9513L36.7969 23.4734C36.811 23.5032 36.8139 23.537 36.8048 23.5687C36.7958 23.6003 36.7756 23.6276 36.7479 23.6454L34.7971 24.8995C34.7787 24.9117 34.7576 24.9192 34.7356 24.9214ZM32.8728 22.9752L34.7365 24.6172L36.5001 23.4828L35.8831 22.1846L35.2024 22.468C35.1776 22.4782 35.1502 22.4809 35.1239 22.4757C35.0976 22.4704 35.0734 22.4575 35.0544 22.4385L34.5111 21.8944L32.8728 22.9752Z" fill="#00257D"/>
<path d="M30.4049 14.8322L23.5496 14.5667L24.9427 12.8053L30.3597 14.3122L30.4049 14.8322Z" fill="#00257D"/>
<path d="M37.0638 14.2582L37.1281 14.7646L42.2432 13.6359L40.1472 12.9337L37.0638 14.2582Z" fill="#00257D"/>
<path d="M22.4851 14.7692L22.2915 14.5795L23.0629 13.7968C23.0768 13.7825 23.0937 13.7716 23.1123 13.7647C23.131 13.7578 23.1509 13.7551 23.1708 13.7569C23.2193 13.7608 28.0172 14.129 31.3989 11.4515C31.418 11.4363 31.441 11.4265 31.4653 11.4233C31.4896 11.42 31.5143 11.4234 31.5368 11.4331C31.5594 11.4427 31.5788 11.4583 31.5932 11.4781C31.6075 11.498 31.6162 11.5213 31.6184 11.5457C31.6838 12.2951 31.0146 12.9885 30.5527 13.3738C31.625 13.181 34.1277 12.4338 35.1873 9.60049C35.3833 8.41453 35.1208 7.49148 34.3984 6.87878C34.0678 6.60097 33.6743 6.40776 33.252 6.31585L33.297 6.04852C33.7676 6.14759 34.2063 6.36145 34.5738 6.67101C35.1242 7.13754 35.7227 8.03642 35.4481 9.66906C34.0175 13.5011 30.1039 13.7063 30.064 13.7078C30.0344 13.709 30.0051 13.7003 29.9809 13.6833C29.9566 13.6662 29.9386 13.6417 29.9296 13.6134C29.9207 13.5852 29.9212 13.5547 29.9313 13.5268C29.9413 13.4989 29.9602 13.4751 29.9851 13.4589C29.998 13.4505 31.1681 12.6886 31.3336 11.8421C28.1042 14.2279 23.7913 14.0635 23.2139 14.0293L22.4851 14.7692Z" fill="#00257D"/>
<path d="M30.7625 8.82528L30.8472 9.79484L35.4167 10.8383L35.5306 12.1424L47.6639 14.913L56.3811 26.4669L53.0867 26.7545L50.1366 35.3L65.4432 33.349L66.8073 25.1578L51.3574 7.82569L33.1658 4.95455L33.2196 5.57044L30.9377 5.31078L30.9911 5.92235L29.3703 5.71045L29.6194 8.56435L30.7625 8.82528Z" fill="#FFD6B5"/>
<path d="M50.1486 35.4347C50.1262 35.4366 50.1036 35.4329 50.083 35.4239C50.0624 35.415 50.0443 35.401 50.0304 35.3834C50.0166 35.3657 50.0073 35.3449 50.0035 35.3228C49.9997 35.3006 50.0014 35.2779 50.0086 35.2566L52.9591 26.71C52.9675 26.6851 52.983 26.6632 53.0037 26.6469C53.0244 26.6306 53.0493 26.6207 53.0756 26.6183L56.1262 26.352L47.5859 15.0338L35.5015 12.2741C35.4735 12.2678 35.4482 12.2527 35.4294 12.2311C35.4105 12.2095 35.399 12.1824 35.3965 12.1539L35.2912 10.948L30.8184 9.92493C30.7905 9.91853 30.7654 9.90347 30.7466 9.88192C30.7278 9.86037 30.7163 9.83342 30.7138 9.80495L30.6377 8.93359L29.5909 8.69442C29.563 8.68807 29.5378 8.67304 29.5189 8.65149C29.5001 8.62994 29.4885 8.60297 29.486 8.57446L29.237 5.72191C29.2352 5.70173 29.2381 5.6814 29.2452 5.66244C29.2524 5.64348 29.2637 5.62637 29.2784 5.61236C29.293 5.59835 29.3106 5.5878 29.3299 5.5815C29.3492 5.57519 29.3697 5.57328 29.3898 5.57592L30.8431 5.76601L30.8044 5.32224C30.8026 5.30224 30.8054 5.28209 30.8124 5.26327C30.8194 5.24444 30.8305 5.22741 30.8449 5.21341C30.8593 5.1994 30.8767 5.18876 30.8957 5.18228C30.9148 5.17579 30.935 5.17361 30.955 5.1759L33.0724 5.41675L33.0331 4.96623C33.0314 4.94577 33.0343 4.92518 33.0417 4.90601C33.049 4.88683 33.0607 4.86959 33.0757 4.85557C33.0908 4.84156 33.1088 4.83114 33.1285 4.82511C33.1481 4.81908 33.1689 4.8176 33.1892 4.82077L51.3821 7.69072C51.413 7.69566 51.4413 7.71115 51.4621 7.73457L66.912 25.0667C66.9255 25.0818 66.9354 25.0998 66.941 25.1192C66.9466 25.1387 66.9478 25.1592 66.9444 25.1791L65.5806 33.37C65.5758 33.3988 65.5619 33.4252 65.5408 33.4454C65.5198 33.4656 65.4928 33.4785 65.4638 33.4822L50.154 35.4342L50.1486 35.4347ZM53.1865 26.8815L50.3361 35.1378L65.3264 33.2272L66.6631 25.2004L51.2887 7.95276L33.3166 5.11628L33.3553 5.55951C33.357 5.57951 33.3543 5.59966 33.3473 5.61848C33.3403 5.63731 33.3292 5.65434 33.3147 5.66834C33.3003 5.68235 33.283 5.69299 33.2639 5.69947C33.2449 5.70596 33.2247 5.70814 33.2047 5.70585L31.0872 5.465L31.1262 5.91147C31.1279 5.93165 31.1251 5.95197 31.118 5.97093C31.1108 5.98989 31.0995 6.00701 31.0848 6.02102C31.0702 6.03503 31.0525 6.04557 31.0333 6.05188C31.014 6.05819 30.9935 6.06009 30.9734 6.05746L29.5201 5.86737L29.7459 8.45527L30.7927 8.69418C30.8207 8.70054 30.8459 8.71561 30.8648 8.73721C30.8837 8.75882 30.8952 8.78585 30.8977 8.8144L30.9737 9.68576L35.4464 10.7072C35.4744 10.7136 35.4996 10.7287 35.5185 10.7503C35.5373 10.7719 35.5488 10.7989 35.5513 10.8275L35.6566 12.0333L47.6938 14.7819C47.725 14.789 47.7527 14.8069 47.772 14.8325L56.4888 26.3853C56.5033 26.4046 56.5125 26.4275 56.5152 26.4515C56.5179 26.4755 56.5142 26.4998 56.5043 26.5219C56.4945 26.544 56.4789 26.563 56.4592 26.5771C56.4395 26.5911 56.4163 26.5996 56.3922 26.6017L53.1865 26.8815Z" fill="#00257D"/>
<path d="M29.6509 8.43914L29.5903 8.70312L39.5712 10.9823L39.6317 10.7184L29.6509 8.43914Z" fill="#00257D"/>
<path d="M35.4473 10.7067L35.3867 10.9707L39.1852 11.8381L39.2457 11.5741L35.4473 10.7067Z" fill="#00257D"/>
<path d="M40.3689 9.88028L31.1109 7.77387C31.083 7.76745 31.0578 7.75236 31.039 7.73075C31.0202 7.70915 31.0087 7.68214 31.0062 7.65362L30.8027 5.32227L31.0729 5.29868L31.2679 7.53183L40.4294 9.61622L40.3689 9.88028Z" fill="#00257D"/>
<path d="M50.0104 12.4002C49.9951 12.4016 49.9797 12.4003 49.9648 12.3966L41.7483 10.302C41.721 10.2951 41.6966 10.2799 41.6784 10.2585C41.6602 10.2371 41.6491 10.2105 41.6466 10.1826L41.5461 9.03037L33.3159 7.15418C33.288 7.14777 33.2628 7.13268 33.244 7.11107C33.2251 7.08946 33.2137 7.06246 33.2112 7.03393L33.0845 5.58203L33.3547 5.55845L33.4728 6.91215L41.703 8.78861C41.731 8.79502 41.7562 8.81011 41.775 8.83172C41.7938 8.85333 41.8053 8.88033 41.8077 8.90886L41.9085 10.0635L49.9104 12.1034L50.4898 10.4009L50.7465 10.4873L50.1268 12.3082C50.1184 12.3332 50.1029 12.3552 50.0823 12.3715C50.0616 12.3878 50.0366 12.3978 50.0104 12.4002Z" fill="#00257D"/>
<path d="M23.671 49.2788L37.8544 46.4647L34.6174 39.134L24.3393 40.6495L23.671 49.2788Z" fill="#6EB60D"/>
<path d="M23.6825 49.4132C23.6628 49.4149 23.6431 49.4124 23.6245 49.4057C23.606 49.399 23.5891 49.3884 23.5751 49.3746C23.5611 49.3607 23.5503 49.344 23.5434 49.3256C23.5365 49.3071 23.5337 49.2874 23.5353 49.2678L24.2038 40.6388C24.2062 40.6082 24.2189 40.5793 24.2398 40.5568C24.2607 40.5343 24.2887 40.5196 24.3191 40.5151L34.5972 38.9993C34.6264 38.9951 34.6562 39.0007 34.6821 39.015C34.7079 39.0293 34.7283 39.0517 34.7402 39.0787L37.9773 46.4097C37.9855 46.4282 37.9894 46.4484 37.9887 46.4687C37.9881 46.4889 37.9828 46.5088 37.9735 46.5268C37.9641 46.5448 37.9508 46.5604 37.9345 46.5726C37.9183 46.5848 37.8995 46.5931 37.8796 46.5971L23.6951 49.4118C23.6909 49.4125 23.6867 49.4129 23.6825 49.4132ZM24.4658 40.7673L23.8197 49.1106L37.6616 46.3644L34.5348 39.2823L24.4658 40.7673Z" fill="#00257D"/>
<path d="M23.6477 50.0888C19.8004 42.3468 23.475 32.9788 23.475 32.9788L25.8248 33.5321C25.8248 33.5321 23.3426 44.0254 26.3768 50.7549L23.6477 50.0888Z" fill="#FFE68C"/>
<path d="M26.3887 50.8884C26.374 50.8896 26.3592 50.8884 26.3448 50.8849L23.6159 50.2201C23.5967 50.2154 23.5788 50.2066 23.5634 50.1943C23.5479 50.182 23.5354 50.1664 23.5266 50.1488C19.6957 42.4423 23.3114 33.0224 23.3491 32.928C23.361 32.8979 23.3833 32.8731 23.412 32.858C23.4406 32.8429 23.4737 32.8385 23.5053 32.8456L25.8551 33.3989C25.89 33.4072 25.9203 33.429 25.9392 33.4595C25.9581 33.49 25.9641 33.5267 25.9558 33.5617C25.5232 35.5619 25.2362 37.5907 25.0972 39.6323C24.8786 42.7773 24.9452 47.2485 26.4987 50.698C26.5076 50.7177 26.5116 50.7393 26.5105 50.7609C26.5093 50.7826 26.503 50.8036 26.492 50.8222C26.481 50.8409 26.4657 50.8567 26.4473 50.8682C26.429 50.8797 26.4082 50.8867 26.3866 50.8886L26.3887 50.8884ZM23.7418 49.9718L26.1431 50.557C23.4705 44.2686 25.3953 34.8564 25.6633 33.6315L23.5606 33.1355C23.1712 34.2057 20.2309 42.8321 23.7418 49.9718Z" fill="#00257D"/>
<path d="M31.5193 51.5393C28.7928 52.0964 26.0617 52.2785 23.8768 53.1889L25.0003 67.0703C32 68.0703 29.0571 67.7985 35.5 68.0703C44 67.0703 47 66.5703 50.6213 64.413C52.8121 56.1589 45.7711 49.7864 40.052 48.2904L37.0012 50.3981L31.5193 51.5393Z" fill="#00257D"/>
<path d="M16.8152 18.8236L16.6182 19.0098L18.1698 20.6464L18.3668 20.4602L16.8152 18.8236Z" fill="#00257D"/>
<path d="M17.2576 18.3697L15.7104 19.6804L15.8859 19.8869L17.4331 18.5762L17.2576 18.3697Z" fill="#00257D"/>
<path d="M17.8582 20.0704L16.7847 20.9799L16.9601 21.1863L18.0336 20.2769L17.8582 20.0704Z" fill="#00257D"/>
<path d="M32.0931 32.7384L41.1292 27.7964L48.4194 27.1601L50.8517 25.166L51.9607 25.8126L54.5585 24.0484L56.3818 26.4651L51.433 40.3568L49.6331 39.6465L42.4003 42.3589L40.0521 48.2894C41.3464 48.542 53.1472 52.8582 50.6214 64.4119C35.4144 56.6935 31.87 37.9492 32.0931 32.7384Z" fill="#FFAA00"/>
<path d="M50.6235 64.441C50.5982 64.4431 50.5728 64.4382 50.5501 64.4268C35.6437 56.883 31.7043 38.542 31.9558 32.7145C31.9569 32.6912 31.9641 32.6685 31.9767 32.6487C31.9893 32.6289 32.0068 32.6127 32.0276 32.6017L41.0636 27.6708C41.08 27.6618 41.098 27.6564 41.1166 27.6547L48.3649 27.0221L50.7651 25.059C50.7864 25.0414 50.8126 25.0306 50.8402 25.0282C50.8678 25.0258 50.8954 25.0319 50.9194 25.0456L51.9546 25.6474L54.4821 23.9357C54.5109 23.9161 54.5461 23.9084 54.5804 23.914C54.6148 23.9197 54.6456 23.9382 54.6666 23.9659L56.4893 26.3758C56.5028 26.3936 56.5117 26.4145 56.5151 26.4366C56.5185 26.4587 56.5163 26.4813 56.5088 26.5023L51.5566 40.3587C51.5505 40.3758 51.541 40.3914 51.5287 40.4048C51.5164 40.4181 51.5015 40.4289 51.4849 40.4363C51.4683 40.4438 51.4504 40.4479 51.4322 40.4484C51.414 40.4488 51.396 40.4457 51.379 40.439L49.6281 39.7501L42.4999 42.4194L40.2301 48.1343C41.4409 48.4561 46.3615 50.3803 49.1336 54.5813C51.0015 57.412 51.5434 60.6939 50.7442 64.3361C50.7381 64.3642 50.723 64.3897 50.7013 64.4088C50.6796 64.4278 50.6524 64.4395 50.6236 64.442L50.6235 64.441ZM32.2237 32.802C32.0121 38.6439 35.9209 56.6059 50.5161 64.1057C51.2452 60.6061 50.7039 57.4524 48.908 54.7289C46.0436 50.3875 40.8568 48.5236 40.0209 48.3613C40.0013 48.3575 39.9829 48.3494 39.9668 48.3377C39.9507 48.326 39.9374 48.3109 39.9279 48.2935C39.9183 48.2761 39.9128 48.2568 39.9116 48.2371C39.9104 48.2173 39.9135 48.1975 39.9209 48.1791L42.2704 42.2635C42.2773 42.2459 42.2879 42.23 42.3015 42.2168C42.315 42.2036 42.3311 42.1933 42.3489 42.1867L49.5822 39.4797C49.6137 39.468 49.6485 39.4683 49.6798 39.4807L51.3486 40.1372L56.2281 26.4813L54.527 24.2321L52.0355 25.9198C52.0143 25.9342 51.9895 25.9423 51.9639 25.9431C51.9383 25.944 51.913 25.9377 51.8909 25.9248L50.8635 25.3275L48.5036 27.2572C48.4825 27.2746 48.4565 27.2852 48.4292 27.2876L41.1672 27.9214L32.2237 32.802Z" fill="#00257D"/>
<path d="M50.6206 64.4131C50.9842 62.8641 51.0767 61.264 50.8938 59.6837L50.8493 59.6375C35.8781 50.6807 35.4722 40.3669 34.475 31.4378L32.0929 32.7406C31.8694 37.9504 35.4139 56.6946 50.6206 64.4131Z" fill="#FFE68C"/>
<path d="M50.599 64.4065C50.5737 64.4086 50.5483 64.4037 50.5256 64.3922C35.6164 56.8155 31.6709 38.4047 31.9205 32.5556C31.9216 32.5321 31.9288 32.5094 31.9414 32.4895C31.954 32.4697 31.9715 32.4534 31.9923 32.4424L34.3743 31.1384C34.3938 31.1277 34.4157 31.1221 34.4379 31.1218C34.4601 31.1216 34.482 31.1269 34.5017 31.1371C34.5215 31.1473 34.5384 31.1623 34.5509 31.1805C34.5635 31.1988 34.5714 31.22 34.574 31.242C34.6221 31.6732 34.669 32.1069 34.7147 32.543C35.6414 41.1348 36.6918 50.8728 50.8854 59.3744C50.8955 59.3805 50.9047 59.3879 50.9129 59.3965L50.9578 59.4426C50.978 59.4636 50.991 59.4905 50.9947 59.5194C51.1777 61.1169 51.0846 62.7341 50.7196 64.3002C50.7135 64.3284 50.6985 64.354 50.6768 64.3731C50.6551 64.3922 50.6278 64.4039 50.599 64.4065ZM32.1885 32.6435C31.9788 38.5071 35.8935 56.5374 50.4915 64.07C50.8165 62.6028 50.8975 61.0922 50.7312 59.5987C36.4368 51.03 35.378 41.2244 34.4459 32.573C34.4063 32.2047 34.3666 31.8386 34.3266 31.4745L32.1885 32.6435Z" fill="#00257D"/>
<path d="M23.8766 6.21348C24.2408 6.57763 19.3809 10.1105 15.3294 12.0287C16.4218 13.6676 18.2426 13.3027 18.2426 13.3027C18.2426 13.3027 23.0874 10.2708 24.2511 7.84096C24.2511 7.84096 24.2408 7.85216 24.0587 7.12386" fill="#CC1D37"/>
</svg>
