<svg width="65" height="79" viewBox="0 0 65 79" fill="none" xmlns="http://www.w3.org/2000/svg">
<path d="M58.1551 78.7846L53.3706 68.8874L59.107 67.788L58.1551 78.7846Z" fill="#0084CC"/>
<path d="M53.5603 69.1417L53.4535 69.1935L58.1022 78.8096L58.209 78.7578L53.5603 69.1417Z" fill="#00257D"/>
<path d="M6.05579 78.7847L11.305 67.8854L6.05579 69.6356" fill="#0084CC"/>
<path d="M10.4592 69.4975L6.00562 78.7603L6.11243 78.8118L10.566 69.5491L10.4592 69.4975Z" fill="#00257D"/>
<path d="M35.8237 35.8091H28.3694V47.1923H35.8237V35.8091Z" fill="#FFD6B5"/>
<path d="M44.0279 37.9513L35.8204 42.4564C34.4965 44.4482 30.095 44.4683 28.3694 42.4564L20.1619 37.9513C12.3999 46.539 5.53909 55.1266 0.0593262 63.7142L3.59798 72.6077L20.5552 58.0153L22.5529 65.987C22.5529 65.987 19.3909 71.4611 19.5002 71.5704C21.0002 73.0704 30.6122 73.9716 32.5002 74.0704C34.3779 74.1687 42.5002 73.0704 44.0002 72.5704C44.3471 72.4548 41.3048 66.7474 41.3048 66.7474L43.0891 58.0153L60.549 72.7467L64.1304 63.7142C58.6511 55.1266 51.7899 46.539 44.0279 37.9513Z" fill="#00257D"/>
<path d="M0.945739 62.3437L0.0593262 63.7143L6.05593 78.7842V59.8772L4.06581 60.9778L0.945739 62.3437Z" fill="#00257D"/>
<path d="M35.8239 47.2521H28.3694C28.3537 47.2521 28.3386 47.2458 28.3274 47.2347C28.3163 47.2235 28.3101 47.2084 28.3101 47.1926V35.8096C28.3101 35.7938 28.3163 35.7787 28.3274 35.7675C28.3386 35.7564 28.3537 35.7501 28.3694 35.7501H35.8239C35.8396 35.7501 35.8547 35.7564 35.8658 35.7675C35.8769 35.7787 35.8832 35.7938 35.8832 35.8096V47.1926C35.8832 47.2084 35.8769 47.2235 35.8658 47.2347C35.8547 47.2458 35.8396 47.2521 35.8239 47.2521ZM28.4287 47.1332H35.7645V35.869H28.4287V47.1332Z" fill="#00257D"/>
<path d="M44.4818 40.5507C44.4826 39.67 44.3056 38.7982 43.9615 37.9878L35.8201 42.4572C34.4962 44.4491 30.0947 44.4692 28.3691 42.4572L20.231 37.9898C19.8873 38.7998 19.7105 39.671 19.7113 40.5512C19.7113 44.2193 22.7268 47.1929 26.4468 47.1929C27.565 47.1961 28.6665 46.9211 29.6525 46.3928C30.6385 45.8644 31.4781 45.0992 32.0959 44.1657C32.7138 45.0992 33.5534 45.8644 34.5394 46.3928C35.5253 46.9211 36.6268 47.1961 37.7451 47.1929C41.4666 47.1924 44.4818 44.2188 44.4818 40.5507Z" fill="white"/>
<path d="M37.7462 47.2514C36.633 47.2553 35.5359 46.9857 34.551 46.4662C33.5662 45.9467 32.7235 45.1932 32.097 44.2716C31.4706 45.1932 30.6279 45.9467 29.643 46.4662C28.6581 46.9857 27.561 47.2553 26.4479 47.2514C22.7012 47.2514 19.6531 44.2454 19.6531 40.5504C19.6517 39.6622 19.8301 38.783 20.1775 37.9659C20.1808 37.9582 20.1857 37.9513 20.1918 37.9456C20.198 37.9399 20.2052 37.9356 20.2131 37.9329C20.2209 37.9302 20.2291 37.9292 20.2373 37.9299C20.2455 37.9306 20.2534 37.933 20.2606 37.937L28.3987 42.4042C28.4049 42.4077 28.4105 42.4122 28.4151 42.4175C29.2696 43.4145 30.9228 43.9897 32.6303 43.8864C34.0463 43.7994 35.2208 43.2526 35.7717 42.4234C35.777 42.4154 35.7842 42.4088 35.7926 42.4042L43.934 37.9348C43.9412 37.9309 43.9491 37.9285 43.9573 37.9278C43.9654 37.9271 43.9737 37.9281 43.9814 37.9308C43.9894 37.9335 43.9966 37.9378 44.0028 37.9435C44.0089 37.9492 44.0138 37.9561 44.017 37.9638C44.3649 38.7814 44.5436 39.6612 44.5422 40.5499C44.5411 44.2457 41.4929 47.2514 37.7462 47.2514ZM32.097 44.1054C32.1068 44.1054 32.1165 44.1079 32.1251 44.1125C32.1338 44.1172 32.1411 44.1239 32.1465 44.1321C32.7584 45.058 33.5906 45.817 34.5681 46.3408C35.5457 46.8646 36.6379 47.1366 37.7465 47.1325C41.4278 47.1325 44.4228 44.1799 44.4228 40.5504C44.424 39.6997 44.2574 38.8572 43.9325 38.0713L35.8624 42.5016C35.2876 43.3544 34.0836 43.9161 32.6375 44.005C30.8995 44.112 29.2126 43.5223 28.3323 42.5032L20.2606 38.073C19.9361 38.8584 19.7698 39.7003 19.7711 40.5504C19.7711 44.1799 22.7659 47.1325 26.4472 47.1325C27.5558 47.1366 28.6481 46.8646 29.6256 46.3408C30.6032 45.817 31.4353 45.058 32.0472 44.1321C32.0526 44.1239 32.06 44.1172 32.0686 44.1125C32.0772 44.1079 32.0869 44.1054 32.0967 44.1054H32.097Z" fill="#00257D"/>
<path d="M63.4899 62.72L64.1304 63.714L58.1552 78.7838L58.2158 59.7687L59.447 61.2739L63.4899 62.72Z" fill="#00257D"/>
<path d="M60.5491 72.8058C60.5351 72.8059 60.5215 72.801 60.5107 72.7919L43.1244 58.1227L42.025 62.7338C42.0219 62.7468 42.0145 62.7584 42.004 62.7666C41.9935 62.7749 41.9805 62.7794 41.9672 62.7794H21.7189C21.7056 62.7794 21.6928 62.7749 21.6823 62.7668C21.6719 62.7586 21.6645 62.7471 21.6613 62.7342L20.5208 58.123L3.63672 72.6519C3.62956 72.6581 3.62104 72.6625 3.61185 72.6647C3.60265 72.6669 3.59307 72.6669 3.58388 72.6647C3.5747 72.6624 3.56618 72.658 3.55905 72.6518C3.55191 72.6456 3.54635 72.6378 3.54285 72.629L0.00419685 63.736C0.000711664 63.7273 -0.000632617 63.7178 0.000275539 63.7084C0.00118369 63.699 0.0043181 63.6899 0.00941873 63.682C5.15474 55.6185 11.7324 47.1888 20.118 37.9116C20.127 37.9017 20.1391 37.8952 20.1522 37.893C20.1654 37.8909 20.1789 37.8932 20.1905 37.8997L28.3979 42.4047C28.4041 42.4082 28.4097 42.4127 28.4144 42.4181C29.2695 43.415 30.9241 43.9909 32.6295 43.8869C34.0456 43.7999 35.22 43.2531 35.7709 42.4239C35.7763 42.4159 35.7834 42.4093 35.7918 42.4047L43.9993 37.8997C44.011 37.8932 44.0245 37.8908 44.0377 37.893C44.0509 37.8951 44.0629 37.9017 44.0719 37.9116C52.4572 47.1888 59.0349 55.6185 64.1804 63.682C64.1855 63.6899 64.1886 63.6989 64.1895 63.7083C64.1904 63.7177 64.1891 63.7272 64.1856 63.7359L60.6041 72.7683C60.5998 72.7793 60.5922 72.7888 60.5824 72.7955C60.5726 72.8022 60.561 72.8058 60.5491 72.8058ZM43.089 57.9557C43.103 57.9557 43.1166 57.9606 43.1274 57.9696L60.5243 72.6479L64.0641 63.7204C58.9307 55.6796 52.3731 47.275 44.0153 38.0257L35.8621 42.5016C35.2873 43.3545 34.0833 43.9161 32.6372 44.0051C30.8992 44.112 29.2124 43.5223 28.332 42.5034L20.175 38.0257C11.8168 47.2754 5.25894 55.6799 0.125843 63.7202L3.62236 72.5075L20.5165 57.97C20.5242 57.9634 20.5335 57.9588 20.5434 57.9568C20.5534 57.9547 20.5637 57.9552 20.5734 57.9582C20.583 57.9612 20.5917 57.9668 20.5986 57.9742C20.6056 57.9816 20.6105 57.9906 20.6129 58.0005L21.7654 62.6601H41.9204L43.0314 58.0005C43.0337 57.9906 43.0386 57.9815 43.0454 57.9741C43.0523 57.9666 43.0609 57.9611 43.0705 57.9579C43.0765 57.9561 43.0828 57.9554 43.089 57.9557Z" fill="#00257D"/>
<path d="M6.05591 71.8545L14.2274 68.6138L19.774 59.1528L24.9139 58.4433L30.5168 56.2773L30.9761 53.8155L27.7969 54.352L21.196 51.3799L33.5448 48.8166L34.3065 46.3297L26.1816 46.8111L18.7089 49.1126L12.578 56.451L6.05591 59.8767V71.8545Z" fill="#FFD6B5"/>
<path d="M6.05592 71.9146C6.04018 71.9146 6.02509 71.9084 6.01396 71.8972C6.00283 71.8861 5.99658 71.871 5.99658 71.8552V59.8774C5.99659 59.8666 5.99955 59.856 6.00513 59.8467C6.01071 59.8375 6.01871 59.8299 6.02827 59.8249L12.5399 56.4046L18.6638 49.075C18.6711 49.0663 18.6809 49.0598 18.6918 49.0565L26.1643 46.7545C26.1688 46.753 26.1735 46.7522 26.1782 46.7519L34.3031 46.2707C34.3126 46.2702 34.3222 46.272 34.3309 46.2759C34.3396 46.2798 34.3473 46.2858 34.3533 46.2933C34.3592 46.3008 34.3631 46.3097 34.3649 46.3191C34.3666 46.3285 34.3661 46.3382 34.3632 46.3474L33.6014 48.8347C33.5983 48.8449 33.5925 48.854 33.5847 48.8612C33.5768 48.8683 33.5672 48.8733 33.5568 48.8755L21.3874 51.4022L27.8048 54.2907L30.9663 53.7572C30.9757 53.7556 30.9854 53.7563 30.9944 53.7592C31.0035 53.7622 31.0118 53.7673 31.0184 53.7742C31.0251 53.781 31.03 53.7894 31.0328 53.7985C31.0356 53.8077 31.0362 53.8173 31.0344 53.8267L30.5751 56.2886C30.5733 56.2986 30.5689 56.3079 30.5625 56.3157C30.556 56.3235 30.5476 56.3295 30.5382 56.3332L24.9353 58.4992C24.931 58.5007 24.9265 58.5019 24.922 58.5025L19.8107 59.208L14.2786 68.6441C14.2719 68.6555 14.2617 68.6644 14.2494 68.6693L6.07764 71.9105C6.07072 71.9132 6.06336 71.9146 6.05592 71.9146ZM6.11526 59.9134V71.7678L14.1866 68.5667L19.723 59.1235C19.7275 59.1157 19.7337 59.1091 19.7412 59.1041C19.7486 59.0991 19.7571 59.0958 19.766 59.0946L24.8989 58.386L30.465 56.2345L30.9027 53.8889L27.8065 54.4113C27.7949 54.4134 27.7829 54.4119 27.7723 54.4069L21.1714 51.4353C21.1599 51.4301 21.1504 51.4215 21.1442 51.4107C21.138 51.3998 21.1353 51.3872 21.1367 51.3748C21.138 51.3623 21.1432 51.3506 21.1515 51.3413C21.1599 51.332 21.171 51.3255 21.1832 51.3229L33.4976 48.7673L34.224 46.3959L26.1916 46.8714L18.7425 49.1655L12.6235 56.4897C12.6185 56.4957 12.6124 56.5005 12.6056 56.5041L6.11526 59.9134Z" fill="#00257D"/>
<path d="M17.8406 51.0738L21.1211 54.2102L23.0049 57.0464L30.4748 54.5057L29.5294 50.4489L25.0898 47.2789L17.8406 51.0738Z" fill="#FFD6B5"/>
<path d="M23.0048 57.1051C22.995 57.1051 22.9854 57.1027 22.9768 57.0981C22.9682 57.0934 22.9608 57.0867 22.9554 57.0786L21.0752 54.2478L19.0585 52.3195L19.1405 52.2337L21.1621 54.1664C21.1651 54.1694 21.1679 54.1728 21.1704 54.1763L23.0289 56.9747L30.4047 54.4659L29.4766 50.4831L26.0824 48.0107L26.1522 47.9146L29.5643 50.3997C29.5758 50.4081 29.584 50.4204 29.5872 50.4343L30.5325 54.4911C30.5358 54.5055 30.5337 54.5206 30.5266 54.5335C30.5194 54.5464 30.5077 54.5561 30.4938 54.5609L23.0238 57.102C23.0176 57.104 23.0112 57.1051 23.0048 57.1051Z" fill="#00257D"/>
<path d="M27.9335 55.3704L26.6331 51.7687L23.8179 49.181L23.898 49.0935L26.7241 51.6911C26.7311 51.6977 26.7365 51.7058 26.7397 51.7149L28.0452 55.33L27.9335 55.3704Z" fill="#00257D"/>
<path d="M25.5116 56.2003L23.9509 52.957L21.3579 50.4939L21.4396 50.4077L24.0404 52.8784C24.0457 52.8833 24.0499 52.8892 24.053 52.8957L25.6184 56.1487L25.5116 56.2003Z" fill="#00257D"/>
<path d="M6.02775 59.8644L4.03699 60.9637L4.09423 61.0677L6.085 59.9684L6.02775 59.8644Z" fill="white"/>
<path d="M53.7085 38.3022L54.2753 30.7314L56.3719 29.4299L56.4958 41.8246L53.7085 38.3022Z" fill="#FFD6B5"/>
<path d="M56.4363 41.8266L56.3135 29.5374L54.3322 30.7675L53.7676 38.308L53.6489 38.2992L54.2157 30.7286C54.2164 30.7192 54.2193 30.7101 54.2242 30.7021C54.2291 30.6941 54.2358 30.6874 54.2437 30.6824L56.3403 29.3808C56.3493 29.3753 56.3595 29.3722 56.37 29.372C56.3805 29.3717 56.3909 29.3742 56.4002 29.3793C56.4094 29.3844 56.4171 29.3918 56.4225 29.4009C56.4279 29.4099 56.4308 29.4202 56.4309 29.4308L56.5547 41.8254L56.4363 41.8266Z" fill="#00257D"/>
<path d="M49.9659 68.6147L58.1775 71.8687L58.2161 59.7694L50.1751 48.9885L56.4957 41.8268L53.7084 38.3044L50.6654 33.71L44.9098 39.2347L44.9238 41.6928L45.5691 42.9184L42.7739 47.6973L49.9659 68.6147Z" fill="#FFD6B5"/>
<path d="M42.8248 47.7267L42.7224 47.6666L45.5015 42.9161L44.8717 41.7199C44.8672 41.7114 44.8649 41.7021 44.8648 41.6925L44.8507 39.2342C44.8506 39.2261 44.8523 39.2181 44.8554 39.2107C44.8586 39.2033 44.8632 39.1965 44.8691 39.191L50.625 33.6663C50.6313 33.6603 50.6388 33.6559 50.647 33.6531C50.6552 33.6503 50.6639 33.6493 50.6725 33.6502C50.6811 33.6512 50.6894 33.654 50.6969 33.6585C50.7043 33.663 50.7106 33.6691 50.7154 33.6764L53.8004 38.3338L53.7014 38.3995L50.6557 33.8013L44.9698 39.2591L44.9837 41.6773L45.6222 42.8898C45.6269 42.8987 45.6293 42.9087 45.6291 42.9188C45.6289 42.9289 45.6261 42.9388 45.621 42.9475L42.8248 47.7267Z" fill="#00257D"/>
<path d="M58.1776 71.9275C58.1701 71.9276 58.1627 71.9261 58.1558 71.9233L49.9441 68.6692C49.9362 68.6661 49.929 68.6613 49.9231 68.6552C49.9172 68.649 49.9126 68.6416 49.9098 68.6336L42.7179 47.7163C42.7151 47.7082 42.714 47.6996 42.7149 47.6911C42.7157 47.6825 42.7184 47.6743 42.7227 47.6669L46.5699 41.0898L46.6724 41.1493L42.839 47.7025L50.0132 68.5682L58.1189 71.7802L58.157 59.7879L50.1282 49.0229C50.12 49.012 50.1159 48.9986 50.1164 48.9849C50.117 48.9713 50.1222 48.9583 50.1313 48.948L56.4365 41.8033L56.4332 41.465L56.5519 41.4638L56.5555 41.825C56.5556 41.8397 56.5503 41.8539 56.5406 41.865L50.2521 48.9905L58.2641 59.7327C58.2718 59.743 58.276 59.7555 58.276 59.7684L58.2375 71.8676C58.2375 71.8773 58.2351 71.8868 58.2305 71.8953C58.226 71.9039 58.2194 71.9111 58.2114 71.9166C58.2015 71.9236 58.1897 71.9275 58.1776 71.9275Z" fill="#00257D"/>
<path d="M48.8881 35.5061L48.7891 35.5719L51.5999 39.8156L51.6989 39.7498L48.8881 35.5061Z" fill="#00257D"/>
<path d="M47.0616 37.2133L46.9626 37.2791L49.3174 40.8343L49.4164 40.7685L47.0616 37.2133Z" fill="#00257D"/>
<path d="M46.0658 40.1747L45.9668 40.2405L47.1389 42.01L47.2379 41.9443L46.0658 40.1747Z" fill="#00257D"/>
<path d="M45.3087 26.9586L45.3425 26.7961L43.0705 18.161H21.094L18.8225 26.7962L18.8604 26.9783C17.0281 24.829 14.5842 26.4016 15.4068 29.0056C16.1464 31.3454 18.6277 31.898 19.703 31.029L20.6396 35.53L32.0823 40.0809L43.525 35.53L44.4598 31.038C45.541 31.8938 48.0076 31.3372 48.7441 29.0054C49.5651 26.4097 47.1393 24.8392 45.3087 26.9586Z" fill="#FFD6B5"/>
<path d="M32.0969 19.007C32.3492 21.2452 33.9265 22.3818 35.4777 23.3536C35.3497 22.7716 35.3374 22.17 35.4414 21.5832C36.2907 23.9193 42.9142 26.2904 45.309 26.9591C45.5415 25.6713 45.6695 24.3668 45.6917 23.0584C45.7846 17.7569 41.7676 11.3815 32.0968 11.3815C22.426 11.3815 18.4131 18.1099 18.5132 23.0585C18.5333 24.3101 18.6367 25.5589 18.8228 26.7967C21.1025 25.3539 23.3859 23.596 25.1731 21.6037C24.8111 22.9402 24.1337 24.17 23.1979 25.1894C26.0462 24.4552 28.2062 22.8298 29.7188 20.3672C29.6485 21.9447 29.366 22.7751 29.0243 23.3966C30.8094 22.4308 31.6362 20.8384 32.0969 19.007Z" fill="#00257D"/>
<path d="M35.6897 15.6703C38.7935 13.4458 39.501 9.11893 37.2699 6.00589C35.0389 2.89285 30.714 2.17253 27.6102 4.39702C24.5064 6.6215 23.7989 10.9484 26.03 14.0615C28.2611 17.1745 32.5859 17.8948 35.6897 15.6703Z" fill="#00257D"/>
<path d="M37.4133 14.1315C37.4065 14.1364 37.3986 14.1398 37.3904 14.1415C35.7445 14.429 34.0632 14.4584 32.4068 14.2288C29.9326 13.8729 26.6092 12.6961 24.8253 9.1098L24.9351 9.05546C26.6952 12.5936 29.979 13.7556 32.4238 14.1072C33.9806 14.32 35.5594 14.3063 37.1111 14.0663C30.6507 12.0589 28.0489 4.25401 28.0223 4.17485L28.1388 4.13677C28.1648 4.2168 30.8144 12.1601 37.3933 14.0222C37.4044 14.0253 37.4145 14.0316 37.4222 14.0402C37.43 14.0487 37.4352 14.0594 37.4372 14.0708C37.4393 14.0822 37.438 14.0939 37.4337 14.1046C37.4293 14.1154 37.422 14.1246 37.4126 14.1313L37.4133 14.1315Z" fill="white"/>
<path d="M37.3506 14.1362C31.7633 11.3469 29.5913 3.52514 29.5703 3.44682L29.6888 3.41515C29.7099 3.49323 31.8682 11.2623 37.4054 14.0269L37.3506 14.1362Z" fill="white"/>
<path d="M35.8118 15.7344C34.6904 16.5382 33.3552 16.9904 31.9749 17.0339C30.5946 17.0774 29.2313 16.7101 28.0574 15.9786C26.8835 15.2471 25.9517 14.1842 25.3798 12.9243C24.8079 11.6644 24.6217 10.264 24.8446 8.9004C25.0675 7.53676 25.6896 6.27106 26.6322 5.26335C27.5748 4.25563 28.7956 3.55117 30.1401 3.23906C31.4847 2.92694 32.8926 3.02118 34.1859 3.50987C35.4792 3.99856 36.5997 4.85973 37.4058 5.9845C38.4845 7.49334 38.9226 9.36719 38.6237 11.195C38.3249 13.0228 37.3137 14.6553 35.8118 15.7344ZM27.7323 4.46101C26.6305 5.25051 25.7883 6.34997 25.3121 7.62035C24.836 8.89073 24.7473 10.275 25.0573 11.598C25.3672 12.921 26.0619 14.1235 27.0536 15.0532C28.0452 15.983 29.2891 16.5983 30.6281 16.8213C31.9671 17.0444 33.341 16.8652 34.576 16.3064C35.8111 15.7476 36.8518 14.8343 37.5666 13.682C38.2814 12.5296 38.6382 11.1901 38.5918 9.83263C38.5455 8.47521 38.098 7.16091 37.3061 6.05593C36.243 4.57597 34.6379 3.5769 32.8431 3.2779C31.0483 2.9789 29.2103 3.40438 27.7323 4.46101Z" fill="#00257D"/>
<path d="M37.5259 20.8997C39.6808 19.3552 40.4234 16.7017 39.1844 14.9729C37.9454 13.2442 35.194 13.0947 33.039 14.6392C30.884 16.1836 30.1415 18.8371 31.3805 20.5659C32.6195 22.2947 35.3709 22.4441 37.5259 20.8997Z" fill="#00257D"/>
<path d="M36.0852 29.5488C37.7831 26.3597 40.4082 25.7087 43.5201 26.3905C42.3591 28.8862 39.7513 29.7972 36.0852 29.5488Z" fill="white"/>
<path d="M40.6511 26.1925C40.4212 26.2182 40.193 26.2572 39.9676 26.3092C39.673 26.4324 39.4243 26.6447 39.2562 26.9164C39.088 27.1882 39.0089 27.5057 39.0298 27.8247C39.0507 28.1437 39.1707 28.4482 39.3728 28.6956C39.575 28.943 39.8494 29.1208 40.1575 29.2044C40.819 29.0133 41.4414 28.7062 41.9959 28.2975C42.0877 28.0707 42.1238 27.8251 42.1013 27.5813C42.0788 27.3376 41.9983 27.1028 41.8666 26.8967C41.7348 26.6905 41.5556 26.519 41.3441 26.3965C41.1325 26.274 40.8947 26.204 40.6506 26.1925H40.6511Z" fill="#00257D"/>
<path d="M37.2267 29.6491C36.86 29.6491 36.4785 29.6357 36.0821 29.6088C36.0722 29.6082 36.0626 29.605 36.0542 29.5997C36.0459 29.5944 36.039 29.587 36.0342 29.5783C36.0294 29.5696 36.0268 29.5599 36.0267 29.55C36.0267 29.54 36.0291 29.5302 36.0338 29.5215C37.5839 26.6101 40.0372 25.5671 43.5343 26.3332C43.5429 26.3351 43.5511 26.339 43.5581 26.3445C43.5651 26.35 43.5708 26.357 43.5747 26.365C43.5786 26.373 43.5806 26.3817 43.5806 26.3906C43.5806 26.3995 43.5786 26.4083 43.5747 26.4163C42.5655 28.5859 40.4831 29.6491 37.2267 29.6491ZM36.1824 29.4962C39.9554 29.7339 42.3299 28.7308 43.4355 26.4335C40.0697 25.7181 37.6954 26.7198 36.1822 29.4962H36.1824Z" fill="#00257D"/>
<path d="M27.9528 29.5481C26.2549 26.359 23.6298 25.708 20.5179 26.3898C21.679 28.8855 24.2867 29.7965 27.9528 29.5481Z" fill="white"/>
<path d="M25.0987 26.6599C24.8099 26.699 24.5383 26.8199 24.3158 27.0084C24.0934 27.1968 23.9293 27.4451 23.843 27.7238C23.7566 28.0026 23.7516 28.3002 23.8285 28.5817C23.9054 28.8632 24.061 29.1169 24.277 29.3128C24.8364 29.4457 25.4064 29.5292 25.9805 29.5624C26.2799 29.4221 26.5253 29.1874 26.6791 28.8943C26.8329 28.6012 26.8867 28.2657 26.8322 27.939C26.3455 27.401 25.756 26.9661 25.0987 26.6599Z" fill="#00257D"/>
<path d="M26.8132 29.6489C23.5563 29.6489 21.4744 28.5859 20.465 26.4157C20.4611 26.4077 20.4591 26.3989 20.4591 26.39C20.4591 26.3811 20.4611 26.3724 20.465 26.3644C20.469 26.3564 20.4746 26.3494 20.4816 26.3439C20.4887 26.3384 20.4968 26.3345 20.5055 26.3326C24.0021 25.5662 26.4553 26.6095 28.006 29.5209C28.0107 29.5296 28.0131 29.5394 28.013 29.5494C28.013 29.5593 28.0104 29.5691 28.0056 29.5778C28.0008 29.5865 27.9938 29.5938 27.9855 29.5991C27.9771 29.6045 27.9675 29.6076 27.9576 29.6082C27.5614 29.6353 27.18 29.6489 26.8132 29.6489ZM20.6044 26.4333C21.7097 28.7306 24.0841 29.7329 27.8577 29.4959C26.3446 26.7197 23.9706 25.7181 20.6044 26.4333Z" fill="#00257D"/>
<path d="M34.4685 30.8984L32.8711 31.7515L32.9269 31.8564L34.5244 31.0033L34.4685 30.8984Z" fill="#00257D"/>
<path d="M29.7463 30.8993L29.6904 31.0042L31.2879 31.8575L31.3437 31.7526L29.7463 30.8993Z" fill="#00257D"/>
<path d="M30.9756 35.1132L31.4156 33.6484C31.4156 33.6484 32.3595 33.8373 32.415 33.8706C32.4706 33.9039 33.2295 33.1274 33.2295 33.1274L34.7249 34.238L33.1821 36.1836L30.9756 35.1132Z" fill="#CC1D37"/>
<path d="M29.8948 35.2156C29.6012 35.2184 29.3077 35.2052 29.0155 35.1759L29.0303 35.058C29.0693 35.063 32.9713 35.5228 36.7419 33.1521L36.8049 33.2529C34.0749 34.9695 31.2751 35.2156 29.8948 35.2156Z" fill="#00257D"/>
<path d="M33.1819 36.2434C33.1729 36.2433 33.1641 36.2413 33.156 36.2374L30.9497 35.1669C30.937 35.1608 30.9269 35.1503 30.9213 35.1373C30.9156 35.1244 30.9147 35.1098 30.9188 35.0963L31.3588 33.6315C31.3631 33.6174 31.3725 33.6053 31.3852 33.5978C31.3978 33.5902 31.4128 33.5876 31.4273 33.5905C31.7523 33.6554 32.2851 33.7649 32.4186 33.809C32.6903 33.585 32.9471 33.3435 33.1876 33.0862C33.1976 33.0759 33.211 33.0697 33.2253 33.0685C33.2396 33.0674 33.2538 33.0715 33.2653 33.0801L34.7606 34.1907C34.767 34.1954 34.7724 34.2014 34.7764 34.2083C34.7805 34.2152 34.7831 34.2228 34.7841 34.2307C34.7851 34.2386 34.7846 34.2466 34.7824 34.2543C34.7803 34.262 34.7766 34.2692 34.7717 34.2754L33.2283 36.2209C33.2227 36.2279 33.2157 36.2336 33.2076 36.2375C33.1996 36.2413 33.1908 36.2434 33.1819 36.2434ZM31.0471 35.082L33.1649 36.1096L34.6404 34.2496L33.2359 33.2063C32.4788 33.9779 32.4288 33.9483 32.3842 33.9219C32.3333 33.899 31.8092 33.7888 31.4567 33.7177L31.0471 35.082ZM32.437 33.8158C32.4406 33.8173 32.4434 33.8187 32.4456 33.8199C32.4428 33.8183 32.4398 33.8169 32.4368 33.8158H32.437Z" fill="#00257D"/>
<path d="M45.3086 27.0182C45.3031 27.0182 45.2977 27.0174 45.2925 27.0159C43.0654 26.3937 36.6408 24.1399 35.474 21.8088C35.4088 22.3191 35.4295 22.8368 35.5352 23.3403C35.5378 23.3517 35.5369 23.3637 35.5327 23.3747C35.5285 23.3856 35.5212 23.3951 35.5116 23.4019C35.502 23.4086 35.4907 23.4124 35.4789 23.4128C35.4672 23.4131 35.4557 23.4099 35.4457 23.4036C33.9301 22.4539 32.4294 21.3545 32.0788 19.3052C31.5192 21.3159 30.5525 22.6366 29.0517 23.4483C29.0404 23.4544 29.0274 23.4567 29.0148 23.4548C29.0021 23.4529 28.9903 23.447 28.9813 23.4378C28.9723 23.4287 28.9665 23.4169 28.9647 23.4042C28.963 23.3915 28.9654 23.3785 28.9716 23.3673C29.2554 22.8512 29.5545 22.1176 29.6469 20.592C28.1225 22.9729 25.9587 24.5384 23.212 25.2463C23.1996 25.2495 23.1864 25.2486 23.1746 25.2437C23.1628 25.2388 23.1528 25.2302 23.1463 25.2192C23.1397 25.2082 23.1369 25.1953 23.1382 25.1825C23.1396 25.1698 23.145 25.1578 23.1537 25.1484C24.0236 24.2003 24.6688 23.068 25.0412 21.8356C23.4429 23.5736 21.3628 25.2583 18.8535 26.8463C18.8452 26.8515 18.8358 26.8546 18.8261 26.8553C18.8164 26.856 18.8066 26.8542 18.7977 26.8503C18.7888 26.8463 18.781 26.8402 18.775 26.8325C18.7691 26.8248 18.7651 26.8157 18.7634 26.8061C18.5779 25.5653 18.4743 24.3136 18.4534 23.0592C18.3973 20.2839 19.6076 17.3556 21.6911 15.2258C23.4337 13.4445 26.6535 11.3213 32.0964 11.3213C36.4838 11.3213 40.1072 12.6512 42.5757 15.1672C43.5985 16.2078 44.4056 17.4408 44.9505 18.7952C45.4954 20.1496 45.7672 21.5986 45.7504 23.0587C45.727 24.3707 45.5986 25.6787 45.3664 26.9701C45.3636 26.9836 45.3563 26.9956 45.3457 27.0043C45.3351 27.013 45.3219 27.0177 45.3082 27.0177L45.3086 27.0182ZM35.4409 21.5233C35.4531 21.5233 35.4649 21.527 35.4749 21.534C35.4849 21.541 35.4925 21.5509 35.4967 21.5624C36.284 23.7276 42.372 26.0675 45.2623 26.884C45.4844 25.6196 45.6081 24.34 45.6321 23.0564C45.6486 21.6121 45.3796 20.1788 44.8406 18.839C44.3016 17.4993 43.5032 16.2796 42.4915 15.2503C40.046 12.7576 36.4514 11.4399 32.0965 11.4399C26.695 11.4399 23.5026 13.5439 21.7759 15.3088C19.7143 17.416 18.5167 20.3123 18.5716 23.0564C18.5937 24.2749 18.692 25.4908 18.8659 26.697C21.4241 25.0704 23.53 23.3433 25.1276 21.5629C25.1365 21.5529 25.1486 21.5462 25.1618 21.544C25.1751 21.5417 25.1887 21.544 25.2004 21.5505C25.2122 21.557 25.2214 21.5673 25.2265 21.5797C25.2317 21.5921 25.2325 21.6059 25.2288 21.6189C24.8798 22.8977 24.2462 24.0808 23.3754 25.0792C26.0727 24.336 28.1889 22.7407 29.667 20.3351C29.6739 20.324 29.6844 20.3154 29.6966 20.3109C29.7089 20.3063 29.7223 20.3059 29.7348 20.3097C29.7473 20.3136 29.7582 20.3215 29.7658 20.3322C29.7734 20.3428 29.7772 20.3558 29.7767 20.3689C29.7083 21.8999 29.4427 22.6977 29.1689 23.2454C30.6071 22.4043 31.5214 21.0464 32.0384 18.9919C32.0414 18.9782 32.0494 18.9662 32.0607 18.9579C32.072 18.9497 32.0859 18.9458 32.0998 18.9471C32.1137 18.948 32.1269 18.9538 32.1369 18.9634C32.147 18.9731 32.1534 18.986 32.1549 18.9999C32.3951 21.1313 33.8699 22.2666 35.3908 23.2288C35.298 22.6817 35.2948 22.1231 35.3814 21.575C35.3831 21.5618 35.3892 21.5495 35.3987 21.5402C35.4082 21.5309 35.4205 21.525 35.4338 21.5235L35.4409 21.5233Z" fill="#00257D"/>
<path d="M6.056 78.8437C6.04412 78.8437 6.03251 78.8401 6.02267 78.8335C6.01283 78.8268 6.00521 78.8173 6.00082 78.8062L0.00421002 63.7365C0.000702138 63.7277 -0.000643575 63.7181 0.000285615 63.7087C0.00121481 63.6992 0.00439184 63.6902 0.00955057 63.6822L0.895963 62.3114L0.995654 62.376L0.125975 63.7209L5.99666 78.4745V59.8773C5.99666 59.8667 5.99949 59.8563 6.00485 59.8471C6.01022 59.838 6.01792 59.8305 6.02716 59.8253L7.16518 59.1953L7.22262 59.2993L6.11534 59.9117V78.7843C6.11534 78.7981 6.11053 78.8115 6.10173 78.8221C6.09294 78.8328 6.08071 78.84 6.06716 78.8426C6.06348 78.8433 6.05975 78.8437 6.056 78.8437Z" fill="#00257D"/>
<path d="M45.5369 28.667L45.4315 28.7213L46.1788 30.1756L46.2842 30.1213L45.5369 28.667Z" fill="#00257D"/>
<path d="M47.2407 27.6394L47.1353 27.6937L47.6628 28.7204L47.7683 28.666L47.2407 27.6394Z" fill="#00257D"/>
<path d="M47.517 27.1979L45.7389 29.2378L45.8284 29.316L47.6065 27.2762L47.517 27.1979Z" fill="#00257D"/>
<path d="M28.0546 24.0682L27.9137 26.1426L21.7729 24.6657L21.8622 23.3512L28.0546 24.0682Z" fill="#00257D"/>
<path d="M27.914 26.2033C27.9094 26.2032 27.9047 26.2027 27.9002 26.2016L21.7593 24.7249C21.7457 24.7216 21.7337 24.7136 21.7254 24.7023C21.7171 24.6909 21.713 24.677 21.714 24.663L21.8033 23.3486C21.8038 23.3405 21.806 23.3327 21.8097 23.3255C21.8133 23.3183 21.8184 23.312 21.8246 23.3068C21.8372 23.2967 21.8533 23.2919 21.8694 23.2935L28.0617 24.0104C28.0769 24.0121 28.0908 24.0197 28.1005 24.0314C28.1103 24.0432 28.1152 24.0583 28.1141 24.0735L27.9728 26.1479C27.9718 26.1629 27.9651 26.177 27.954 26.1873C27.943 26.1976 27.9285 26.2033 27.9134 26.2033H27.914ZM21.8358 24.621L27.8596 26.0696L27.9919 24.122L21.9174 23.4187L21.8358 24.621Z" fill="#00257D"/>
<path d="M32.0826 40.1404C32.0751 40.1405 32.0677 40.1391 32.0608 40.1363L30.4534 39.4969L30.4972 39.3865L32.0829 40.0171L43.4741 35.4867L44.4024 31.0261C44.4045 31.0161 44.409 31.0069 44.4156 30.9992C44.4223 30.9915 44.4307 30.9857 44.4402 30.9822C44.4498 30.9788 44.46 30.9778 44.47 30.9794C44.48 30.981 44.4894 30.9852 44.4974 30.9915C44.9785 31.3728 45.7506 31.464 46.5125 31.2302C47.545 30.9129 48.3384 30.0956 48.6886 28.9877C49.1216 27.6183 48.6209 26.6161 47.9325 26.2307C47.3082 25.8807 46.3032 25.899 45.3542 26.9978C45.3456 27.0078 45.334 27.0146 45.3211 27.0172C45.3082 27.0198 45.2948 27.0181 45.283 27.0123C45.2712 27.0064 45.2617 26.9968 45.2559 26.985C45.2502 26.9731 45.2485 26.9597 45.2512 26.9468L45.2822 26.7979L43.025 18.2207H21.1406L18.8839 26.7979L18.9188 26.9663C18.9215 26.9792 18.9197 26.9926 18.914 27.0044C18.9082 27.0162 18.8986 27.0258 18.8868 27.0315C18.875 27.0373 18.8616 27.039 18.8488 27.0364C18.8359 27.0338 18.8243 27.0269 18.8157 27.0169C17.8651 25.9018 16.8542 25.8783 16.2249 26.2278C15.5335 26.6122 15.0302 27.6146 15.4642 28.9877C15.8165 30.1019 16.6154 30.9209 17.6549 31.2343C18.4186 31.4647 19.1894 31.3683 19.6664 30.9826C19.6743 30.9763 19.6837 30.9721 19.6937 30.9705C19.7036 30.9688 19.7138 30.9697 19.7233 30.9732C19.7329 30.9766 19.7413 30.9824 19.748 30.99C19.7546 30.9976 19.7592 31.0068 19.7613 31.0167L20.6915 35.4861L28.3917 38.5486C28.4027 38.553 28.4121 38.5606 28.4188 38.5704C28.4255 38.5802 28.429 38.5918 28.4291 38.6037V39.2656H28.3104V38.6444L20.6181 35.585C20.609 35.5814 20.6009 35.5755 20.5946 35.568C20.5882 35.5604 20.5839 35.5515 20.5819 35.5418L19.6644 31.1327C19.1541 31.4943 18.3818 31.5779 17.6203 31.348C16.5421 31.0227 15.7149 30.1755 15.3506 29.0234C14.8963 27.5862 15.4337 26.5314 16.1669 26.123C16.5695 25.9022 17.0425 25.8484 17.4842 25.9732C17.978 26.1184 18.4215 26.3985 18.7651 26.7822V26.7804L21.0371 18.1453C21.0405 18.1326 21.0479 18.1214 21.0583 18.1133C21.0686 18.1053 21.0814 18.101 21.0945 18.101H43.0708C43.084 18.1009 43.0967 18.1053 43.1071 18.1133C43.1175 18.1213 43.1249 18.1326 43.1283 18.1453L45.3979 26.7727C46.3541 25.7675 47.3548 25.7717 47.99 26.1274C48.7204 26.5363 49.2546 27.5907 48.8014 29.0242C48.4393 30.1699 47.6175 31.0155 46.5465 31.3443C45.7863 31.5775 45.0127 31.4988 44.4988 31.1415L43.5829 35.5427C43.5809 35.5523 43.5766 35.5613 43.5703 35.5688C43.564 35.5763 43.5559 35.5822 43.5467 35.5858L32.1041 40.1368C32.0972 40.1393 32.0899 40.1406 32.0826 40.1404Z" fill="#00257D"/>
<path d="M18.6145 28.6661L17.8677 30.1205L17.9731 30.1748L18.7199 28.7204L18.6145 28.6661Z" fill="#00257D"/>
<path d="M16.9107 27.6395L16.3475 28.7363L16.453 28.7906L17.0161 27.6938L16.9107 27.6395Z" fill="#00257D"/>
<path d="M58.2474 59.7407L58.1556 59.8159L59.3868 61.3212L59.4785 61.2459L58.2474 59.7407Z" fill="white"/>
<path d="M16.6346 27.1979L16.545 27.2761L18.3227 29.3164L18.4122 29.2382L16.6346 27.1979Z" fill="#00257D"/>
<path d="M36.0852 24.0682L36.226 26.1426L42.3669 24.6657L42.2775 23.3512L36.0852 24.0682Z" fill="#00257D"/>
<path d="M36.2268 26.2033C36.2118 26.2033 36.1973 26.1976 36.1863 26.1873C36.1752 26.177 36.1685 26.1629 36.1675 26.1479L36.0269 24.0735C36.0258 24.0583 36.0307 24.0432 36.0404 24.0315C36.0502 24.0197 36.0641 24.0122 36.0792 24.0104L42.2716 23.2935C42.2877 23.2919 42.3038 23.2967 42.3164 23.3068C42.3226 23.312 42.3276 23.3184 42.3313 23.3255C42.3349 23.3327 42.3371 23.3405 42.3376 23.3486L42.4269 24.663C42.4279 24.677 42.4239 24.6909 42.4156 24.7023C42.4073 24.7136 42.3953 24.7216 42.3817 24.7249L36.2407 26.2013C36.2362 26.2025 36.2315 26.2031 36.2268 26.2033ZM36.1491 24.122L36.2813 26.0697L42.3051 24.621L42.2235 23.4187L36.1491 24.122Z" fill="#00257D"/>
<path d="M58.1551 78.8435C58.1511 78.8435 58.1471 78.8432 58.1432 78.8424C58.1298 78.8397 58.1177 78.8323 58.109 78.8217C58.1004 78.811 58.0957 78.7976 58.0958 78.7838L58.1562 59.7889L57.4999 58.8964L57.5954 58.8259L58.2635 59.7342C58.2711 59.7445 58.2752 59.757 58.2753 59.7699L58.216 78.4716L64.064 63.7208L63.44 62.7526L63.5397 62.688L64.1805 63.682C64.1857 63.69 64.1889 63.699 64.1898 63.7085C64.1907 63.7179 64.1894 63.7274 64.1859 63.7362L58.2103 78.8059C58.2059 78.817 58.1983 78.8265 58.1885 78.8332C58.1786 78.8399 58.167 78.8435 58.1551 78.8435Z" fill="#00257D"/>
<path d="M43.3046 24.6991C42.3957 22.5727 41.0205 20.5522 39.217 18.6937C39.0616 18.5335 39.0414 18.5116 39.0328 18.4863L39.0892 18.4675L39.1415 18.4402C39.1522 18.4565 39.2218 18.5279 39.3022 18.6109C41.1158 20.4798 42.4991 22.5126 43.4138 24.6524L43.3046 24.6991Z" fill="white"/>
<path d="M19.3507 24.1494C20.2595 22.023 21.6348 20.0025 23.4382 18.144C23.5937 17.9838 23.6139 17.9619 23.6224 17.9366L23.5661 17.9178L23.5137 17.8905C23.503 17.9068 23.4335 17.9782 23.353 18.0612C21.5395 19.9301 20.1562 21.9629 19.2415 24.1027L19.3507 24.1494Z" fill="white"/>
</svg>
