<svg width="166" height="120" viewBox="0 0 166 120" fill="none" xmlns="http://www.w3.org/2000/svg">
<g clip-path="url(#clip0_1615_3229)">
<g clip-path="url(#clip1_1615_3229)">
<path d="M109.369 26.3008L48.4963 46.5943C44.8352 47.8149 42.8567 51.7723 44.0772 55.4334L72.545 140.825C73.7655 144.486 77.723 146.465 81.384 145.244L142.256 124.951C145.918 123.73 147.896 119.773 146.676 116.112L118.208 30.7199C116.988 27.0588 113.03 25.0802 109.369 26.3008Z" fill="#E7EAF4"/>
<path d="M53.9747 33.8805C50.209 35.1359 48.174 39.2062 49.4294 42.9719L78.7101 130.802C79.9654 134.568 84.0358 136.603 87.8015 135.347L150.352 114.495C154.117 113.239 156.152 109.169 154.897 105.403L130.353 31.78C129.896 30.4101 128.914 29.2775 127.622 28.6319L106.474 18.0592C105.183 17.4135 103.687 17.3071 102.317 17.7638L53.9746 33.8802L53.9747 33.8805Z" fill="#F1F3FA"/>
<path d="M127.619 28.6317L106.472 18.059C105.883 17.7645 105.252 17.5837 104.609 17.5159L108.477 29.1179C109.733 32.8836 113.803 34.9186 117.569 33.6632L129.171 29.7954C128.731 29.3225 128.208 28.9261 127.619 28.6317Z" fill="#E7EAF4"/>
<path d="M128.46 73.1807L80.5206 89.1625C79.5455 89.4876 78.4917 88.9606 78.1667 87.9857C77.8417 87.0106 78.3686 85.9566 79.3435 85.6316L127.283 69.6497C128.258 69.3246 129.312 69.8517 129.637 70.8268C129.962 71.8016 129.435 72.8556 128.46 73.1807Z" fill="#E7EAF4"/>
<path d="M132.444 85.1303L84.505 101.112C83.5299 101.437 82.4761 100.91 82.1511 99.9353C81.8261 98.9604 82.353 97.9061 83.3279 97.5811L131.267 81.5993C132.242 81.2742 133.296 81.8012 133.621 82.7764C133.946 83.7515 133.419 84.8052 132.444 85.1303Z" fill="#E7EAF4"/>
<path d="M136.429 97.0786L88.4895 113.06C87.5143 113.386 86.4606 112.859 86.1355 111.883C85.8104 110.908 86.3374 109.854 87.3122 109.529L135.251 93.5474C136.227 93.2223 137.28 93.7494 137.605 94.7245C137.93 95.6996 137.404 96.7535 136.429 97.0786Z" fill="#E7EAF4"/>
<path d="M69.6079 33.4431C66.9141 34.3412 65.4531 37.2635 66.3511 39.9574L67.6099 43.7331C67.9349 44.7082 68.9889 45.2349 69.9638 44.9099C70.9386 44.5849 71.4656 43.5309 71.1406 42.556L69.8819 38.7806C69.6329 38.0335 70.0381 37.2234 70.7849 36.9744C71.5318 36.7254 72.3421 37.1305 72.5911 37.8774L75.1005 45.4046C75.9816 48.0474 74.5483 50.9146 71.9052 51.7958C69.2622 52.6769 66.3952 51.2436 65.5141 48.6005L59.2824 29.908C58.4012 27.2649 59.8346 24.3979 62.4777 23.5168C65.1205 22.6357 67.9877 24.069 68.8688 26.7121L69.5309 28.698L73.0619 27.5209L72.3998 25.5349C70.8698 20.9448 65.8908 18.4556 61.3007 19.9858C56.7107 21.516 54.2214 26.495 55.7517 31.085L61.9833 49.7776C63.5135 54.3674 68.4926 56.8569 73.0826 55.3267C77.6724 53.7965 80.1619 48.8174 78.6317 44.2274L76.1223 36.7002C75.2241 34.0061 72.3018 32.5451 69.6079 33.4431Z" fill="#E7EAF4"/>
<path d="M153.77 24.3621C153.643 24.4063 153.494 24.3871 153.386 24.2826C151.142 21.9397 147.397 21.8215 145.046 24.0579C144.877 24.1874 144.728 24.1683 144.535 24.0226C144.513 23.9593 144.513 23.9593 144.49 23.896C144.446 23.7695 144.465 23.6208 144.57 23.5134C146.921 21.277 147.04 17.5452 144.796 15.2023C144.774 15.139 144.774 15.139 144.751 15.0757C144.685 14.8859 144.768 14.7152 144.958 14.649C145.085 14.6049 145.234 14.624 145.342 14.7285C147.586 17.0714 151.331 17.1896 153.682 14.9532C153.851 14.8237 154 14.8429 154.193 14.9886C154.215 15.0518 154.215 15.0518 154.238 15.1151C154.282 15.2417 154.263 15.3903 154.158 15.4977C151.807 17.7341 151.688 21.4659 153.932 23.8089C153.954 23.8721 153.954 23.8721 153.977 23.9354C154.021 24.062 154.002 24.2106 153.897 24.318C153.897 24.318 153.833 24.3401 153.77 24.3621ZM147.019 22.1658C148.733 21.57 150.628 21.6924 152.277 22.5387C151.422 20.7066 151.434 18.5022 152.452 16.7292C150.614 17.581 148.401 17.5689 146.622 16.5548C147.436 18.4723 147.401 20.6134 146.384 22.3864C146.574 22.3203 146.828 22.232 147.019 22.1658Z" fill="#F1F3FA"/>
</g>
</g>
<path d="M14.4581 102.169C14.2333 102.06 14.0625 101.839 14.0582 101.56C14.1878 95.5334 9.4231 90.4581 3.39593 90.3073C3.00464 90.2562 2.83386 90.0351 2.77116 89.5896C2.8252 89.4773 2.8252 89.4773 2.87924 89.3651C2.98733 89.1407 3.20784 88.9706 3.48671 88.9673C9.51387 89.118 14.5725 84.371 14.7021 78.3442C14.7561 78.232 14.7561 78.232 14.8102 78.1197C14.9723 77.783 15.3052 77.6675 15.6425 77.8308C15.8673 77.9397 16.0381 78.1608 16.0424 78.4397C15.9128 84.4664 20.6775 89.5418 26.7047 89.6925C27.096 89.7436 27.2668 89.9647 27.3295 90.4102C27.2754 90.5225 27.2754 90.5225 27.2214 90.6347C27.1133 90.8592 26.8928 91.0292 26.6139 91.0325C20.5868 90.8818 15.5282 95.6289 15.3985 101.656C15.3445 101.768 15.3445 101.768 15.2904 101.88C15.1824 102.105 14.9618 102.275 14.683 102.278C14.683 102.278 14.5706 102.223 14.4581 102.169ZM8.47406 90.4137C11.5093 91.8835 13.8376 94.5334 14.8926 97.8123C16.1767 94.2821 19.0886 91.4019 22.7551 90.4094C19.2205 89.113 16.3301 86.1909 15.3248 82.5209C13.8742 86.1088 11.0163 88.8768 7.3499 89.8693C7.68715 90.0326 8.13681 90.2504 8.47406 90.4137Z" fill="#F1F3FA"/>
<defs>
<clipPath id="clip0_1615_3229">
<rect width="120" height="120" fill="white" transform="translate(46)"/>
</clipPath>
<clipPath id="clip1_1615_3229">
<rect width="120" height="120" fill="white" transform="translate(37.0781 8.10815)"/>
</clipPath>
</defs>
</svg>
