<svg width="106" height="106" viewBox="0 0 106 106" fill="none" xmlns="http://www.w3.org/2000/svg">
<g clip-path="url(#clip0_1421_3228)">
<path d="M90.0628 88.5243C81.1439 91.6954 72.6556 102.795 52.4051 102.795C32.1547 102.795 29.4141 95.6594 16.5312 89.9117C23.4682 81.3891 32.1547 70.29 52.4051 70.29C72.6556 70.29 83.324 79.209 90.0628 88.5243Z" fill="#2C4A93"/>
<path opacity="0.6" d="M49.6682 86.5851C50.1518 86.5939 50.3774 86.4878 50.5384 86.3577C50.6994 86.2275 50.7999 86.0754 51.0341 85.9673C51.1645 86.08 51.3291 86.1459 51.5016 86.1545L51.7296 86.1244C51.8536 86.0807 51.9854 86.0633 52.1165 86.0735C52.4368 86.0917 52.7556 86.1302 53.0709 86.1888C53.3796 85.8238 53.7458 85.5113 54.155 85.2635L55.6382 83.1798C55.5823 83.1361 55.5258 83.0919 55.4673 83.0478C55.089 83.5321 54.5479 83.7853 53.9684 83.8682C53.3764 83.9217 52.7799 83.8586 52.2127 83.6827C52.1019 83.8483 52.0062 84.0335 51.9042 84.2027C51.8035 84.3742 51.7048 84.5458 51.6004 84.7063C51.3198 84.8853 51.0524 85.0842 50.8004 85.3015C50.5741 85.1283 50.3526 84.9597 50.1292 84.7814C49.9058 84.6032 49.6847 84.4237 49.466 84.2435C49.047 84.0903 48.6186 83.9637 48.1834 83.8642C48.0258 83.8274 47.8886 83.7968 47.7609 83.7617C47.634 83.7252 47.5107 83.6777 47.3922 83.6196C47.1352 83.8622 46.9023 84.109 46.6661 84.356L46.258 84.2871C46.122 84.2639 45.9883 84.2449 45.8506 84.2163C45.5768 84.164 45.3037 84.1169 45.0289 84.0819C45.0016 84.0794 44.948 84.0769 44.9211 84.0772C44.8931 84.2375 44.8845 84.4005 44.8955 84.5628C44.8416 84.5604 44.7875 84.5571 44.7607 84.5578C44.6278 84.6256 44.488 84.6933 44.3483 84.7613C44.2086 84.8293 44.0647 84.8847 43.9297 84.9474C43.2111 84.9823 42.4992 84.9881 41.7884 84.974L41.0196 84.8688C41.1949 84.5979 41.3596 84.2786 41.5255 84.0079L41.4904 83.7592C41.683 83.6892 41.8839 83.6705 42.0766 83.6027C42.3767 83.736 42.6705 83.8108 43.0042 83.9404C43.429 84.2736 43.4141 83.4932 43.5039 83.3099C43.6128 83.3701 43.7255 83.4323 43.8399 83.4956C43.9556 83.5599 44.0724 83.6194 44.1922 83.6843C44.4356 83.8156 44.6824 83.9485 44.9213 84.0773C44.9481 84.0772 45.0016 84.0797 45.029 84.082L44.6379 82.4139L45.2633 82.4491C45.902 83.0234 46.1685 83.0275 46.3258 82.8964C46.4845 82.7629 46.5364 82.4851 46.7802 82.4621C46.9005 82.6362 47.0381 82.7977 47.1909 82.9443L47.3443 82.8356C47.3953 82.7965 47.4464 82.7556 47.4973 82.7135C47.601 82.6295 47.6977 82.5371 47.7863 82.4373C48.1053 82.5933 48.4183 82.736 48.7317 82.877C48.8902 82.9481 49.0476 83.0187 49.204 83.0888C49.2836 83.1247 49.363 83.1606 49.4423 83.1964L49.68 83.2996C49.6051 82.6173 49.6963 82.3276 49.8388 82.1973C49.9812 82.0671 50.1734 82.097 50.2858 82.0608C50.5995 82.4683 50.7648 82.3777 50.9048 82.1875C51.0432 81.9931 51.1491 81.69 51.3739 81.683C51.3885 81.3851 51.7499 81.2355 51.8187 80.8831C51.5218 80.7292 51.2078 80.5287 50.9004 80.3269L50.1757 80.4219C50.2467 80.7849 50.1376 81.0433 49.9738 81.096C49.8089 81.1475 49.5896 80.985 49.4222 80.4913C49.2449 81.1349 48.8134 80.9308 48.5074 80.8085C48.3608 80.8782 48.2236 80.9659 48.0987 81.0695C48.2393 81.9306 47.7035 81.6172 47.6466 82.0048C47.3058 82.0201 46.9958 82.0376 46.6528 82.0296C46.4375 81.834 46.2146 81.6886 46.0172 81.5383C46.0992 82.3611 45.5208 82.359 45.4079 82.016C45.3115 81.859 45.2272 81.695 45.1555 81.5254C44.9427 81.5163 44.7598 81.4902 44.6419 81.5238C44.5016 81.5626 44.4491 81.6797 44.5326 81.9744C44.2082 82.098 43.8855 82.2244 43.5369 82.3488C43.2947 82.2743 43.0208 82.1491 42.7587 82.0698L42.89 82.7611C42.6609 82.737 42.4072 82.7102 42.1781 82.6861C42.0791 82.651 41.9825 82.6189 41.8875 82.5884C41.7921 82.5548 41.6973 82.5215 41.6026 82.4881C41.4139 82.4218 41.2269 82.3551 41.0338 82.2751L41.1383 83.0209C40.7068 82.952 40.2593 82.8942 39.8356 82.796C39.7272 83.655 39.2915 83.2732 39.0543 83.3228C38.9351 83.0506 38.8374 82.7208 38.7128 82.5703C38.6923 82.5343 38.6585 82.5076 38.6186 82.4961C38.5787 82.4846 38.5358 82.4891 38.4991 82.5087C38.416 82.548 38.3195 82.6606 38.1997 82.8761C37.9852 82.92 37.7443 82.9047 37.5304 82.9487C37.2883 82.8829 37.0548 82.8265 36.8249 82.7572C36.5967 82.6842 36.3715 82.6119 36.1461 82.5397C36.1305 82.6539 36.0842 82.7619 36.012 82.852C35.9398 82.9422 35.8445 83.0112 35.7362 83.0517C35.5588 83.1325 35.367 83.2065 35.2261 83.4585C34.9135 83.1937 34.616 82.9117 34.3352 82.6136C34.1115 82.5738 33.8828 82.5707 33.658 82.6046C33.454 82.6297 33.253 82.6756 33.0582 82.7414C32.8636 82.8061 32.6658 82.8696 32.4568 82.9308C32.3522 82.9607 32.2444 82.9887 32.1318 83.0126C32.0144 83.0353 31.8958 83.0513 31.7766 83.0605C31.6335 82.8895 31.463 82.7434 31.272 82.6279C31.1582 82.5466 31.1127 82.4848 31.1764 82.3021C31.0861 82.258 31.0174 82.2243 30.95 82.1916L30.8411 82.8903L30.6089 84.3335L30.5682 84.5817C30.4163 84.5671 30.2317 84.5833 30.0799 84.5639C29.827 84.8182 29.5798 85.2984 29.0748 85.1563L29.2705 84.1663C29.0813 84.0707 28.8931 83.9771 28.7051 83.8773C28.5787 84.359 28.4033 84.3093 28.2023 84.1905C28.0011 84.0732 27.775 83.8815 27.5301 84.0799L27.3691 84.7668C27.3107 84.9021 27.2274 85.0235 27.1326 85.1934L27.1912 84.9472C26.9875 84.5644 26.787 84.1727 26.5779 83.8326C26.3908 83.7295 26.2042 83.6241 26.0181 83.5142C25.7337 83.5737 25.6201 84.2976 25.419 84.2379C25.3244 84.1831 25.2066 84.1148 25.0895 84.0472L24.6961 85.4556C24.3951 85.7304 24.1952 86.1279 24.0436 85.8699C23.1283 85.327 23.5488 86.486 23.2638 87.0579C23.25 87.3083 23.2232 87.5578 23.1836 87.8055C23.6683 87.9275 24.1728 87.9512 24.6673 87.8752C25.114 87.8112 25.5073 87.7101 25.8464 87.6675C25.9353 87.8263 26.0407 87.9752 26.161 88.1119C26.4215 88.1816 26.6878 88.2273 26.9568 88.2487C27.0817 88.0917 27.216 87.8852 27.3488 87.6786C27.7278 87.87 28.0844 88.0467 28.4437 88.2204C28.7926 88.6623 29.165 89.0852 29.5591 89.4875C29.3839 89.7726 29.194 90.0484 28.9902 90.3139C28.7793 90.0555 28.5747 90.3391 28.2519 90.4648C28.0007 90.5314 27.736 90.5273 27.4873 90.453C27.2633 90.3857 27.0436 90.3053 26.8292 90.2121C26.6467 90.1275 26.4446 90.0936 26.2441 90.114C26.0564 90.1453 25.8735 90.2608 25.6855 90.5243C25.4729 90.1381 25.2176 90.0026 24.9423 89.9714C24.667 89.9402 24.369 90.0241 24.0802 90.0701C23.7914 90.116 23.5081 90.1373 23.2673 89.9865C23.0264 89.8356 22.8274 89.5163 22.7073 88.8937C22.24 89.3593 21.766 89.8231 21.2852 90.285C21.3191 90.6468 21.3287 90.995 21.3497 91.4064L20.8392 92.9948C21.2508 93.4542 21.6544 93.8564 22.0962 94.2673C22.5565 94.4091 23.0114 94.5894 23.4786 94.7252C23.9346 95.2378 24.3995 95.7515 24.9112 96.2713L25.0417 95.7839C25.1094 95.6519 25.2055 95.5329 25.2853 95.35C25.4278 95.4196 25.5714 95.488 25.715 95.5553C25.8887 95.8374 26.0798 96.1085 26.2869 96.3672C26.4362 96.164 26.5854 95.9554 26.7194 95.8C26.9418 95.9539 27.155 96.1554 27.3793 96.3087C27.739 96.8926 27.8956 95.7696 28.1312 95.8697C28.6046 95.7875 29.082 95.7308 29.5615 95.6999C29.9563 95.8493 30.3216 95.9895 30.7234 96.1337L29.8822 94.011C29.792 93.8954 29.7102 93.7736 29.6373 93.6464C29.6469 93.3952 29.6432 93.1437 29.6262 92.8929C29.7684 92.3127 30.2059 92.2212 29.895 91.4544L29.9582 89.6626C30.0468 89.65 30.1457 89.5802 30.2354 89.5661C30.4223 89.9015 30.6766 90.1947 30.9824 90.4275C31.259 90.6229 31.549 90.7987 31.8504 90.9534C31.9712 90.3136 32.208 90.27 32.5206 90.2992C32.8317 90.3321 33.2249 90.4195 33.6218 90.0639C33.8462 90.1401 34.0712 90.2037 34.2972 90.2742C34.5823 90.3594 34.8602 90.4429 35.1345 90.5244C35.2729 90.5653 35.4106 90.6061 35.5474 90.6466L35.7535 90.7067L35.9594 90.758C36.2975 90.9945 36.7338 91.5045 36.9572 90.7479C37.4171 91.3889 37.8017 90.9431 38.1066 90.6239C38.4157 90.3122 38.6607 90.1614 38.9453 91.4188C39.3396 91.641 39.7116 91.867 40.121 92.1289C40.5161 90.8781 40.859 90.8795 41.2184 90.8299C41.5356 90.6738 41.2841 89.8477 41.7059 89.9552C42.1252 90.0478 42.584 90.1917 43.0211 90.3302C43.3322 90.3072 43.6455 90.2964 43.9544 90.2696C44.2634 90.2428 44.5731 90.2139 44.8817 90.1861C45.1933 90.1602 45.5051 90.1343 45.8172 90.1083C46.1292 90.0772 46.4396 90.0342 46.7551 89.9969C46.6009 89.4049 47.0185 89.2051 47.3226 88.5679L47.7713 89.3013C47.9535 89.2964 48.1664 89.2844 48.3501 89.276C48.3618 88.8294 48.3639 88.4828 48.351 88.0876C48.4404 88.0841 48.5313 88.0806 48.6515 88.076C48.7827 88.2185 48.9117 88.3589 49.0429 88.5015C49.1343 88.4965 49.2256 88.4915 49.3478 88.4849C49.5718 88.6225 49.8284 88.757 50.0689 88.9311C50.1214 88.8218 50.2018 88.7281 50.3019 88.6592C50.0641 88.2846 49.858 87.9046 49.6518 87.5244C49.6547 87.2284 49.6406 86.8836 49.6682 86.5851ZM40.7574 84.8318C40.7146 84.8258 40.6724 84.8198 40.6307 84.814C40.5885 84.8061 40.5467 84.7981 40.5047 84.7902C40.4216 84.7743 40.3395 84.7587 40.2574 84.7431C40.0943 84.7121 39.9312 84.6813 39.7618 84.6492C39.9458 84.4132 40.1557 84.1717 40.3385 84.1338C40.5217 84.0993 40.6782 84.2507 40.7574 84.8318Z" fill="#92A2C7" fill-opacity="0.15"/>
<path d="M47.0836 75.1968V75.197H58.2007H58.2007C58.3137 75.197 58.4257 75.1747 58.5303 75.1314C58.6347 75.0882 58.7297 75.0248 58.8097 74.9448C58.8897 74.8648 58.9531 74.77 58.9964 74.6655C59.0396 74.561 59.0619 74.4491 59.0619 74.336C59.0619 74.2229 59.0396 74.1108 58.9964 74.0064C58.9531 73.9019 58.8897 73.8071 58.8097 73.7271C58.7297 73.6471 58.6347 73.5837 58.5303 73.5404C58.4257 73.4972 58.3137 73.4749 58.2007 73.4749H58.2007H47.0836H47.0764L47.0764 73.4747C47.0489 73.4734 47.0214 73.4734 46.9939 73.4747L47.0836 75.1968ZM47.0836 75.1968L47.0765 75.1971M47.0836 75.1968L47.0765 75.1971M47.0765 75.1971C46.8482 75.208 46.6249 75.1277 46.4557 74.9739C46.2866 74.8202 46.1854 74.6055 46.1744 74.3772C46.1635 74.1489 46.2436 73.9256 46.3973 73.7564C46.551 73.5871 46.7656 73.4858 46.9938 73.4747L47.0765 75.1971Z" fill="white" stroke="#00164C" stroke-width="0.3"/>
<path d="M52.7608 57.2839L52.7609 57.2839C52.8767 57.2818 52.9917 57.3029 53.099 57.3462C53.2064 57.3895 53.3039 57.454 53.3858 57.5359C53.4677 57.6178 53.5322 57.7153 53.5755 57.8226C53.6188 57.93 53.64 58.0449 53.6378 58.1607L53.6378 58.1607V58.1635L53.6378 89.4926L53.6378 89.4927C53.6378 89.6058 53.6156 89.7179 53.5724 89.8224C53.5292 89.9269 53.4658 90.0218 53.3858 90.1019C53.3058 90.1819 53.2108 90.2454 53.1064 90.2887C53.0019 90.332 52.89 90.3542 52.7768 90.3542C52.6636 90.3542 52.5516 90.332 52.4472 90.2887C52.3427 90.2454 52.2478 90.1819 52.1678 90.1019C52.0878 90.0218 52.0244 89.9269 51.9812 89.8224C51.9379 89.7179 51.9157 89.6058 51.9158 89.4927V89.4926V58.1635H51.9158L51.9158 58.1607C51.9137 58.0476 51.9338 57.9352 51.9752 57.83C52.0165 57.7247 52.0781 57.6287 52.1566 57.5472C52.2351 57.4658 52.3289 57.4006 52.4325 57.3554C52.5362 57.3103 52.6477 57.286 52.7608 57.2839Z" fill="white" stroke="#00164C" stroke-width="0.3"/>
<path d="M52.6602 57.291L52.6602 57.291C52.8035 57.2847 52.9462 57.3144 53.0752 57.3772C53.2042 57.4401 53.3154 57.5343 53.3987 57.6511C53.4821 57.7679 53.5349 57.9036 53.5524 58.046C53.5699 58.1884 53.5515 58.3329 53.4989 58.4664L53.4985 58.4676L41.4488 89.8043L41.4486 89.8049C41.4084 89.9109 41.3477 90.0078 41.27 90.0902C41.1922 90.1727 41.0989 90.239 40.9955 90.2853C40.8922 90.3316 40.7806 90.3571 40.6673 90.3602C40.554 90.3633 40.4412 90.3441 40.3355 90.3035C40.2297 90.2629 40.1329 90.2019 40.0507 90.1238C39.9686 90.0457 39.9027 89.9523 39.8567 89.8487L39.7196 89.9095L39.8567 89.8487C39.8108 89.7451 39.7857 89.6335 39.7831 89.5202C39.7804 89.4069 39.8001 89.2941 39.841 89.1885L39.8412 89.1881L51.8908 57.8516L51.8914 57.8502C51.9504 57.6918 52.0549 57.5543 52.1916 57.4549C52.3283 57.3554 52.4913 57.2984 52.6602 57.291Z" fill="white" stroke="#00164C" stroke-width="0.3"/>
<path d="M52.6955 57.335L52.696 57.335C52.8841 57.3184 53.0725 57.3642 53.2321 57.4652C53.3917 57.5663 53.5137 57.717 53.5791 57.8942L53.5791 57.8942L53.58 57.8965L65.7043 89.1808L65.8441 89.1266L65.7043 89.1808C65.7452 89.2864 65.7649 89.399 65.7623 89.5122C65.7597 89.6254 65.7348 89.737 65.6891 89.8405C65.6434 89.9441 65.5777 90.0377 65.4958 90.1159C65.4139 90.1941 65.3174 90.2553 65.2118 90.2962C65.1062 90.3371 64.9936 90.3569 64.8804 90.3542C64.7672 90.3516 64.6556 90.3267 64.552 90.2809C64.4484 90.2352 64.3549 90.1695 64.2767 90.0876C64.1985 90.0057 64.1372 89.9092 64.0963 89.8036L64.0963 89.8036L51.9721 58.5191L51.9721 58.5191L51.9712 58.5168C51.9204 58.3919 51.8997 58.2567 51.9107 58.1223C51.9217 57.9879 51.9642 57.858 52.0347 57.743C52.1052 57.6279 52.2017 57.531 52.3165 57.4602C52.4313 57.3894 52.5611 57.3465 52.6955 57.335Z" fill="white" stroke="#00164C" stroke-width="0.3"/>
<path d="M35.1798 47.4678C35.1392 47.3407 35.0739 47.2229 34.9876 47.1212C34.9013 47.0195 34.7958 46.9358 34.677 46.8751C34.5582 46.8143 34.4286 46.7777 34.2956 46.7672C34.1626 46.7568 34.0289 46.7728 33.9021 46.8143L24.2896 49.9217C24.1625 49.9622 24.0447 50.0275 23.9429 50.1138C23.8412 50.2001 23.7576 50.3056 23.6968 50.4243C23.6361 50.5431 23.5994 50.6727 23.589 50.8057C23.5786 50.9387 23.5946 51.0725 23.6361 51.1992L26.1215 58.8879C26.162 59.015 26.2273 59.1328 26.3136 59.2345C26.3999 59.3362 26.5055 59.4199 26.6242 59.4806C26.743 59.5413 26.8726 59.578 27.0056 59.5884C27.1386 59.5988 27.2723 59.5828 27.3991 59.5413L37.0117 56.434C37.1388 56.3935 37.2566 56.3282 37.3583 56.2419C37.46 56.1556 37.5437 56.0501 37.6044 55.9313C37.6652 55.8126 37.7018 55.683 37.7122 55.55C37.7226 55.417 37.7066 55.2832 37.6651 55.1564L35.1798 47.4678Z" fill="#10307D"/>
<path d="M36.4952 51.3702L35.18 47.4671C35.0094 46.9324 34.4358 46.639 33.9024 46.8137L24.2898 49.921C23.7551 50.0917 23.4617 50.6651 23.6364 51.1986L24.9993 55.4147" fill="#173A8D"/>
<path d="M68.1806 33.6531C68.0895 33.6558 67.9991 33.6709 67.912 33.6979L33.2851 44.8895C33.1586 44.9305 33.0415 44.996 32.9403 45.0823C32.8392 45.1687 32.7561 45.2742 32.6958 45.3927C32.6355 45.5112 32.5992 45.6405 32.589 45.7731C32.5787 45.9057 32.5947 46.039 32.636 46.1654L36.3666 57.7077C36.4076 57.8342 36.4731 57.9513 36.5595 58.0524C36.6458 58.1535 36.7513 58.2367 36.8698 58.297C36.9883 58.3573 37.1176 58.3936 37.2502 58.4039C37.3827 58.4141 37.516 58.3981 37.6424 58.3568L47.7373 55.0888C47.9907 55.0074 48.2017 54.8293 48.3247 54.5932C48.4476 54.3572 48.4724 54.0822 48.3938 53.8279C48.2564 53.3895 48.1869 52.9294 48.1849 52.47C48.1895 49.925 50.2275 47.8809 52.7735 47.8814C54.7458 47.8838 56.4928 49.1388 57.1233 51.0076C57.2077 51.26 57.3882 51.4689 57.6257 51.589C57.8631 51.7091 58.1384 51.7308 58.3917 51.6493L72.2618 47.1652C72.3883 47.1242 72.5055 47.0586 72.6066 46.9722C72.7077 46.8859 72.7908 46.7804 72.8511 46.6619C72.9114 46.5434 72.9478 46.4142 72.958 46.2816C72.9683 46.149 72.9523 46.0157 72.911 45.8893L69.1804 34.347C69.1117 34.1384 68.977 33.958 68.7966 33.8328C68.6163 33.7076 68.4 33.6445 68.1806 33.6531Z" fill="#163788"/>
<path d="M71.0289 40.0655L69.1807 34.347C69.0396 33.9185 68.6317 33.6354 68.1809 33.6531C68.0898 33.6558 67.9994 33.6723 67.9123 33.6979L33.2854 44.8895C32.7533 45.0618 32.4624 45.6337 32.6363 46.1654L34.5361 52.0567" fill="#2C4A93"/>
<path d="M74.3319 30.5624C74.2913 30.4353 74.226 30.3175 74.1397 30.2158C74.0535 30.1141 73.9479 30.0304 73.8291 29.9697C73.7104 29.909 73.5808 29.8724 73.4478 29.862C73.3148 29.8516 73.181 29.8676 73.0543 29.9091L67.2825 31.7747C67.1563 31.816 67.0395 31.8818 66.9387 31.9682C66.8379 32.0547 66.7551 32.1601 66.6951 32.2785C66.6351 32.397 66.599 32.5261 66.5889 32.6585C66.5788 32.7909 66.5948 32.9239 66.6361 33.0501L71.6091 48.4345C71.6494 48.561 71.7143 48.6783 71.8 48.7797C71.8857 48.8811 71.9905 48.9646 72.1085 49.0255C72.2265 49.0864 72.3553 49.1234 72.4876 49.1345C72.6199 49.1456 72.7531 49.1306 72.8796 49.0902L78.6514 47.2245C78.7785 47.184 78.8963 47.1187 78.9981 47.0324C79.0998 46.9461 79.1834 46.8405 79.2442 46.7217C79.3049 46.6029 79.3416 46.4734 79.352 46.3404C79.3624 46.2074 79.3464 46.0736 79.3048 45.9468L74.3319 30.5624Z" fill="#EA9C02"/>
<path d="M24.9071 48.5535C24.8065 48.3236 24.624 48.1393 24.3952 48.0365C24.1663 47.9337 23.9073 47.9197 23.6687 47.9972L19.8208 49.241C19.6937 49.2815 19.5759 49.3468 19.4742 49.4331C19.3724 49.5194 19.2888 49.6249 19.2281 49.7437C19.1673 49.8625 19.1307 49.9921 19.1203 50.1251C19.1099 50.2581 19.1259 50.3918 19.1674 50.5186L22.8965 62.0551C22.9371 62.1821 23.0024 62.3 23.0886 62.4018C23.1749 62.5035 23.2805 62.5871 23.3993 62.6479C23.518 62.7086 23.6477 62.7453 23.7806 62.7557C23.9136 62.7661 24.0474 62.75 24.1742 62.7085L28.022 61.4647C28.1482 61.4234 28.265 61.3577 28.3658 61.2713C28.4666 61.1849 28.5494 61.0794 28.6094 60.961C28.6694 60.8425 28.7055 60.7134 28.7156 60.581C28.7257 60.4486 28.7097 60.3155 28.6683 60.1893L24.9392 48.6529C24.9302 48.6192 24.9195 48.5861 24.9071 48.5535H24.9071Z" fill="#EA9C02"/>
<path d="M51.4141 58.002H54.1888L53.9906 63.3533L51.6123 63.1551L51.4141 58.002Z" fill="#E3E6EF"/>
<path d="M52.7746 45.8594C49.1337 45.8594 46.1641 48.8365 46.1641 52.4774C46.1641 56.1182 49.1337 59.0879 52.7746 59.0879C56.4154 59.0879 59.3926 56.1182 59.3926 52.4774C59.3926 48.8365 56.4154 45.8594 52.7746 45.8594Z" fill="#FFAA00"/>
<path d="M52.7746 45.8594C49.1337 45.8594 46.1641 48.8365 46.1641 52.4774C46.1641 56.1182 49.1337 59.0879 52.7746 59.0879" fill="#FFAA00"/>
<path d="M52.7693 49.3955C51.0822 49.3955 49.6953 50.7898 49.6953 52.4769C49.6953 54.164 51.0822 55.5509 52.7693 55.5509C54.4564 55.5509 55.8432 54.164 55.8432 52.4769C55.8432 50.7898 54.4564 49.3955 52.7693 49.3955Z" fill="#2C4A93"/>
<path d="M76.7751 38.1613L74.3322 30.5617C74.1616 30.027 73.588 29.7337 73.0545 29.9084L67.2827 31.774C66.752 31.9475 66.4626 32.5188 66.6364 33.0494L69.1132 40.7276" fill="#FFAA00"/>
<path d="M26.9056 54.7513L24.9395 48.653C24.9307 48.6186 24.9196 48.5862 24.9074 48.5537H24.9073C24.699 48.0774 24.1634 47.8368 23.669 47.9974L19.8211 49.2412C19.2863 49.4119 18.993 49.9853 19.1677 50.5188L21.1508 56.6538" fill="#FFAA00"/>
<path opacity="0.6" d="M79.5745 84.9475C78.648 85.3131 77.3896 85.7375 78.338 87.2441C76.5667 87.0676 77.261 88.4131 77.4684 89.3208L77.4015 89.7955L77.3519 90.2774C77.3203 90.5983 77.2884 90.9206 77.2562 91.2443C77.1947 91.8868 77.1323 92.5381 77.0672 93.207C77.0222 93.7391 76.9639 94.2634 76.9323 94.7972C75.8517 95.3239 75.6998 96.2204 75.5041 96.8985C75.2993 97.5767 75.0068 98.0345 73.5669 97.7428C73.634 98.5043 73.7547 99.2599 73.9281 100.004C74.1544 100.841 74.551 101.622 75.0929 102.298C74.9873 102.473 74.7582 102.621 74.6556 102.795L70.857 101.403C69.5188 100.101 68.9558 100.937 67.6221 100.741C67.1125 100.493 66.59 100.271 66.0568 100.077C65.853 99.817 65.6679 99.5423 65.503 99.2556C65.4578 98.6768 65.3856 98.0884 65.2988 97.4932C65.2126 96.8912 65.127 96.2908 65.0419 95.6921C64.6869 94.8028 65.1485 94.5577 65.6967 94.371C66.245 94.1842 66.8675 94.0483 66.8558 93.3488C66.4563 92.5109 67.0248 91.3231 65.3771 90.7921C65.4121 90.4224 65.4454 90.0706 65.4786 89.7185C65.5239 89.3666 65.5691 89.0148 65.6167 88.6449C65.9911 87.6489 66.3146 86.6347 66.5862 85.6063C67.402 86.2626 68.2183 86.9118 69.0493 87.4815C69.8512 87.4005 70.0378 86.7261 70.3739 86.2922C70.7177 85.8619 71.1781 85.6676 72.4607 86.5314C72.7893 85.7796 73.0274 84.9917 73.1701 84.1842C73.2601 83.7665 73.3472 83.3439 73.4478 82.9307L73.5264 82.6226L73.6226 82.326C73.6894 82.1303 73.7616 81.9385 73.8412 81.7529C74.4801 80.2715 75.5788 79.1511 78.1419 79.4586C78.3405 80.5369 78.4971 81.5058 78.6261 82.5195C81.0124 84.1828 80.4888 84.5665 79.5745 84.9475Z" fill="#A8B5D3" fill-opacity="0.1"/>
<path opacity="0.6" d="M71.5535 81.7018C71.208 81.5655 70.7388 81.4073 71.0924 80.8455C70.4319 80.9113 70.6908 80.4096 70.7681 80.0711L70.7432 79.8941L70.7247 79.7144C70.7129 79.5948 70.701 79.4746 70.689 79.3539C70.6661 79.1143 70.6428 78.8715 70.6185 78.622C70.6018 78.4236 70.58 78.2281 70.5682 78.0291C70.1653 77.8327 70.1087 77.4984 70.0357 77.2456C69.9593 76.9927 69.8503 76.822 69.3134 76.9307C69.3384 76.6468 69.3834 76.365 69.448 76.0875C69.5324 75.7754 69.6803 75.4843 69.8824 75.2323C69.843 75.1668 69.7576 75.1119 69.7193 75.0469L68.3029 75.566C67.8039 76.0513 67.594 75.7397 67.0966 75.8126C66.9066 75.9054 66.7118 75.988 66.513 76.0602C66.437 76.1573 66.368 76.2597 66.3065 76.3666C66.2896 76.5824 66.2627 76.8019 66.2303 77.0238C66.1982 77.2483 66.1663 77.4721 66.1345 77.6954C66.0022 78.027 66.1743 78.1184 66.3787 78.188C66.5831 78.2577 66.8153 78.3083 66.8109 78.5692C66.6619 78.8816 66.8739 79.3245 66.2595 79.5225C66.2726 79.6603 66.285 79.7916 66.2974 79.9228C66.3143 80.054 66.3311 80.1852 66.3489 80.3232C66.4885 80.6945 66.6091 81.0727 66.7104 81.4562C67.0146 81.2115 67.319 80.9694 67.6288 80.757C67.9278 80.7872 67.9974 81.0386 68.1227 81.2004C68.2509 81.3609 68.4226 81.4333 68.9009 81.1112C69.0234 81.3916 69.1122 81.6854 69.1654 81.9865C69.1989 82.1422 69.2314 82.2998 69.2689 82.4539L69.2982 82.5688L69.3341 82.6793C69.359 82.7523 69.3859 82.8238 69.4156 82.893C69.6539 83.4454 70.0635 83.8632 71.0193 83.7485C71.0933 83.3465 71.1517 82.9852 71.1998 82.6072C72.0896 81.987 71.8944 81.8439 71.5535 81.7018Z" fill="#A8B5D3" fill-opacity="0.1"/>
<path opacity="0.6" d="M48.0886 102.958C48.1515 102.983 48.2121 103.013 48.2698 103.049C48.3491 102.935 48.441 102.831 48.5437 102.739L48.8367 102.201C49.0088 101.927 48.9836 101.822 48.9338 101.729C48.9039 101.683 48.8803 101.633 48.8636 101.581C48.8505 101.499 48.8604 101.415 48.8922 101.338C49.005 100.97 49.1285 100.616 49.2514 100.263L49.4218 100.142C49.4694 100.18 49.5234 100.218 49.5774 100.254C49.6314 100.29 49.6846 100.325 49.7386 100.358C49.852 100.43 49.9662 100.502 50.0832 100.59C50.2331 100.68 50.3438 100.836 50.5156 100.887C50.6145 100.914 50.7199 100.901 50.81 100.853C50.9719 100.767 51.1156 100.65 51.2334 100.51C51.1833 100.346 51.1347 100.171 51.0991 99.9967C51.0634 99.8224 51.0323 99.6454 51.0063 99.4727C50.8235 99.5923 50.664 99.7323 50.523 99.8333C50.3866 99.7586 50.271 99.6984 50.1496 99.6285C50.0332 99.5633 49.9214 99.49 49.8151 99.4094C49.8192 99.1117 49.8152 98.8645 49.8278 98.58C49.9249 98.44 50.0167 98.3554 50.0939 98.2547C50.5042 98.2881 50.725 98.4628 50.8353 98.6863C50.8903 98.8049 50.9282 98.9305 50.9478 99.0597C50.9715 99.1935 50.9827 99.332 51.0063 99.4727C51.3711 99.471 51.7624 99.4195 52.1426 99.4221C52.13 99.5944 52.1274 99.7672 52.1348 99.9397L51.311 100.582C51.5042 100.98 51.7178 101.367 51.9508 101.743C51.9707 101.761 52.0105 101.797 52.0301 101.814C52.4249 101.706 52.8424 101.612 53.2349 101.499C53.3669 101.54 53.4904 101.585 53.6114 101.621C53.8667 101.607 54.0853 101.853 54.7199 101.413C54.414 100.987 54.1391 100.575 53.8672 100.113C53.8725 100.033 53.8687 99.9519 53.8556 99.8723C54.6149 98.8838 54.4727 98.3567 54.7127 97.8809C55.2008 97.57 55.6843 97.2562 56.1633 96.9394C56.1587 97.4906 56.274 97.7962 56.4528 97.9667C56.6317 98.1372 56.8769 98.1681 57.1312 98.1775C57.3855 98.1869 57.6536 98.168 57.8827 98.2414C58.1119 98.3147 58.3063 98.4745 58.4211 98.84C58.6266 98.6478 58.8022 98.5808 58.9675 98.5863C59.1418 98.6034 59.3082 98.667 59.4492 98.7704C59.6159 98.8865 59.7894 98.9928 59.9686 99.0885C60.1679 99.1946 60.3927 99.2435 60.6182 99.2299C60.9147 99.1781 61.1378 98.9716 61.2732 99.228C61.4924 99.0368 61.7016 98.8343 61.8998 98.6215C61.633 98.2111 61.3883 97.7867 61.1669 97.3503C60.8905 97.1406 60.6171 96.9287 60.3269 96.7007C60.1785 96.8541 60.0283 97.0069 59.8949 97.1192C59.6695 97.0549 59.4503 96.9701 59.2403 96.8661C59.1613 96.729 59.0971 96.584 59.0485 96.4334C58.7523 96.4115 58.3998 96.4301 58.0081 96.408C57.5738 96.3879 57.1479 96.281 56.7558 96.0939C56.8321 95.8897 56.8978 95.6816 56.9525 95.4707C57.2935 95.0322 57.1342 93.9724 57.821 94.5921C57.9056 94.8383 58.1442 94.534 58.4481 94.3512L59.025 93.2185C59.1136 93.2968 59.2021 93.3751 59.273 93.4376C59.4341 93.523 59.655 92.9259 59.9078 92.9238C60.0475 93.0493 60.1883 93.1712 60.3301 93.2912C60.5034 93.6083 60.6628 93.9113 60.844 94.223L61.099 93.6653C61.3416 93.5382 61.5014 93.7404 61.6529 93.875C61.8037 94.0107 61.9447 94.0831 62.135 93.6944C62.2781 93.8117 62.4222 93.924 62.5672 94.0377C62.7672 94.1964 62.9854 94.3624 63.1887 94.5154C63.3147 94.558 63.4748 94.5759 63.6017 94.6144L63.679 94.4098L64.1257 93.2211C63.8966 93.049 63.6854 92.8825 63.4586 92.7054C63.3592 92.4653 63.2756 92.2191 63.2085 91.9681C63.2203 91.8223 63.2418 91.6774 63.2729 91.5345C63.23 91.3093 63.1259 91.3725 63.0147 91.369C62.9035 91.3655 62.7843 91.2912 62.7243 90.8002C62.585 90.6257 62.4275 90.8228 62.261 90.892C62.0945 90.9611 61.9188 90.9101 61.7638 90.2401C61.506 89.9493 61.1078 91.3433 60.932 90.563C60.8929 90.2451 60.8574 89.9268 60.805 89.6503C60.5957 89.4575 60.0965 90.2544 59.975 89.6819C59.8442 89.5578 59.7133 89.4334 59.582 89.3087C59.5215 89.3455 59.4659 89.3897 59.4164 89.4403C58.991 89.5031 58.9431 90.1546 58.2564 90.0237C58.0547 89.1817 57.6723 89.6956 57.1425 88.9355C57.3863 88.6422 57.5874 88.4226 57.8076 88.1652C57.62 87.9794 57.45 87.7501 57.2194 87.6674C57.0888 87.6229 56.9463 87.6277 56.8189 87.6808C56.6065 87.765 56.4131 87.8909 56.2504 88.0511C56.1752 87.9804 56.1 87.9099 56.025 87.8394L55.9115 87.7333L55.7896 87.6236L56.5582 86.3427C56.3168 86.0112 56.0182 85.692 55.7062 85.3378C55.6099 85.4071 55.4976 85.4509 55.3797 85.4653C55.6572 85.7429 55.7747 85.7468 55.6572 85.7429C55.3373 85.7321 55.3125 86.1381 55.0626 86.3375C55.1394 86.5531 55.0626 86.7339 54.8644 86.7339C54.9237 86.9513 54.4457 86.8492 54.5071 87.0598C54.2934 87.2489 54.0703 87.4272 53.8385 87.5938C53.7095 87.6896 53.5811 87.7719 53.4505 87.8521L53.0453 88.0997C53.3379 88.305 53.6104 88.512 53.8894 88.7364C53.9195 88.9824 53.7804 89.2056 53.6653 89.3918C53.5502 89.578 53.4586 89.7262 53.5687 89.8178C53.3727 90.4425 53.1732 91.0657 52.9479 91.7277L53.0278 91.797C53.1134 91.7816 53.2015 91.7856 53.2853 91.8087C53.3692 91.8317 53.4468 91.8733 53.5124 91.9302C53.5738 91.9901 53.6209 92.0629 53.65 92.1434C53.6792 92.2239 53.6897 92.31 53.6809 92.3951C53.6408 92.7091 53.5752 93.0591 53.5147 93.3555C53.6405 93.4766 53.7485 93.5805 53.8742 93.7014C53.6473 94.135 53.4383 94.5852 53.1887 95.0557L52.7654 95.7751C52.2521 96.1696 52.214 95.479 51.7636 95.9313C51.4336 96.321 51.174 96.6444 50.9644 96.8007C50.7587 96.9614 50.6 96.9499 50.4796 96.6847C50.4785 96.5722 50.464 96.4602 50.4365 96.3511C50.3488 96.3385 50.2594 96.3541 50.1812 96.3957C50.148 96.3347 50.1128 96.2719 50.0775 96.2107C50.0422 96.1496 50.0066 96.0904 49.9696 96.0313C49.8997 95.9177 49.8233 95.8083 49.7408 95.7035C49.6206 95.9032 49.5034 96.1037 49.3889 96.3051C49.2726 96.5077 49.1588 96.7109 49.0475 96.9148C49.1193 97.1939 49.1932 97.4469 49.2709 97.6998C49.3769 97.6141 49.4782 97.5227 49.5741 97.4258L49.6002 97.8935L49.619 98.3596C49.4363 98.5556 49.3303 98.5601 49.2524 98.4768C49.1784 98.3972 49.1386 98.2355 49.094 98.1001C48.9549 98.1315 48.8414 98.1741 48.702 98.209C48.6807 98.1047 48.6682 97.9989 48.6645 97.8925C48.79 97.5664 48.9175 97.2395 49.0475 96.9148C48.9305 96.8065 48.8089 96.7084 48.6862 96.6048C48.5371 97.0175 48.3925 97.4315 48.2653 97.8043C48.1603 97.9293 48.0615 98.0571 47.9667 98.1878C47.8712 98.321 47.7802 98.4559 47.6917 98.5907C47.694 98.8822 47.6884 99.1801 47.6763 99.48C47.6643 99.7799 47.6462 100.08 47.6263 100.367C47.6472 100.402 47.6785 100.43 47.7159 100.446C47.7532 100.462 47.7948 100.466 47.8346 100.458C47.9035 100.449 47.9717 100.417 48.0302 100.421C48.0888 100.424 48.1264 100.465 48.1454 100.597C48.1503 100.636 48.153 100.675 48.1536 100.714C48.1565 100.76 48.1577 100.814 48.1569 100.874C48.1531 101.029 48.1415 101.183 48.1221 101.336C48.1773 101.476 48.375 101.414 48.2812 101.8C48.1471 102.14 47.8809 102.495 47.9225 102.874C47.9468 102.89 47.9723 102.904 47.9987 102.916C48.0278 102.931 48.0582 102.944 48.0886 102.958ZM54.0565 93.5817C54.731 93.2854 55.3032 93.1888 55.0362 93.9906L54.8398 94.334C54.5709 94.0794 54.3223 93.839 54.0565 93.5817ZM54.6614 95.5707C54.9002 95.4458 55.1797 95.2963 55.4182 95.1679C55.5988 94.6975 55.8028 94.1863 55.9672 93.699C56.1634 93.8817 56.3769 94.0858 56.5755 94.2645C56.6417 94.7886 56.311 95.2939 56.299 95.9738C56.1097 95.9786 55.9214 96.0009 55.7362 96.0404C55.4615 96.1368 55.1854 96.2289 54.8859 96.3631C54.6167 96.2901 54.6067 95.8131 54.6614 95.5707Z" fill="#798CBB" fill-opacity="0.2"/>
<path d="M47.056 73.4614H58.9479V75.2452H47.0312L47.056 73.4614Z" fill="#E3E6EF"/>
</g>
<circle cx="53" cy="53" r="50" stroke="white" stroke-width="6"/>
<defs>
<clipPath id="clip0_1421_3228">
<rect width="88" height="88" fill="white" transform="translate(9 14.002)"/>
</clipPath>
</defs>
</svg>
