<svg width="40" height="40" viewBox="0 0 40 40" fill="none" xmlns="http://www.w3.org/2000/svg">
<circle cx="20" cy="20" r="20" fill="#F1F3FA"/>
<path d="M13.2148 16.6885C13.2148 15.471 13.8307 14.472 15.0625 13.6914C16.3014 12.9036 17.6514 12.5098 19.1123 12.5098H20.3477C24.4727 12.5098 26.5352 14.1104 26.5352 17.3115C26.5352 18.0277 26.3597 18.6507 26.0088 19.1807C25.665 19.7035 25.2425 20.1045 24.7412 20.3838C24.2471 20.6631 23.7493 20.9137 23.248 21.1357C22.7539 21.3577 22.3314 21.6012 21.9805 21.8662C21.6367 22.124 21.4648 22.3854 21.4648 22.6504C21.4648 23.166 21.2464 23.4238 20.8096 23.4238H18.3926C18.1992 23.4238 18.0381 23.363 17.9092 23.2412C17.7874 23.1123 17.7266 22.9548 17.7266 22.7686C17.7266 22.1527 17.8447 21.6084 18.0811 21.1357C18.3174 20.6631 18.611 20.2943 18.9619 20.0293C19.3128 19.7572 19.6924 19.5029 20.1006 19.2666C20.516 19.0303 20.8991 18.8333 21.25 18.6758C22.0736 18.2962 22.4854 17.82 22.4854 17.2471C22.4854 16.6742 22.2884 16.248 21.8945 15.9688C21.5078 15.6895 20.8883 15.5498 20.0361 15.5498H19.4883C18.2995 15.5498 17.4867 15.9902 17.0498 16.8711C16.7275 17.5443 16.2441 17.8809 15.5996 17.8809H14.3213C13.9704 17.8809 13.6982 17.7555 13.5049 17.5049C13.3115 17.2542 13.2148 16.9821 13.2148 16.6885ZM17.5117 26.6572V25.9805C17.5117 25.5078 17.6406 25.1462 17.8984 24.8955C18.1562 24.6449 18.5107 24.5195 18.9619 24.5195H20.2832C20.7344 24.5195 21.0889 24.6449 21.3467 24.8955C21.6045 25.1462 21.7334 25.5078 21.7334 25.9805V26.6572C21.7334 27.1156 21.6045 27.4736 21.3467 27.7314C21.0889 27.9821 20.7344 28.1074 20.2832 28.1074H18.9619C18.5107 28.1074 18.1562 27.9821 17.8984 27.7314C17.6406 27.4736 17.5117 27.1156 17.5117 26.6572Z" fill="#183989"/>
</svg>
