<svg width="76" height="51" viewBox="0 0 76 51" fill="none" xmlns="http://www.w3.org/2000/svg">
<path d="M8.37722 42.9349C8.31059 42.3556 8.25229 41.5856 8.20216 40.6253C8.13546 39.6654 8.11047 39.1601 8.12735 39.1104C8.17717 38.9452 8.2186 38.4485 8.25229 37.6203C8.2856 36.8257 8.32717 36.1551 8.37722 35.6089C8.4437 34.9468 8.31059 34.5576 7.97736 34.4418C7.84366 34.3919 7.76855 34.367 7.75212 34.367C7.70207 34.367 7.65217 34.3919 7.60212 34.4418C7.30214 34.7397 7.13527 34.9798 7.10203 35.162C7.01844 35.6584 6.95204 36.4616 6.90192 37.5708C6.88533 38.0344 6.54333 38.7217 5.87681 39.632C5.35976 40.3439 4.95166 40.824 4.65137 41.0722C3.91763 41.652 3.30115 41.9415 2.80098 41.9415C2.63419 41.9415 2.51736 41.9252 2.45088 41.8918C2.38418 41.8588 2.27583 41.7596 2.12584 41.5939C1.20886 40.6004 0.833918 39.3673 1.00079 37.8936C1.05061 37.4633 1.0588 36.9584 1.02563 36.3786C0.992092 35.7992 0.93379 35.46 0.850577 35.3606C0.700437 35.162 0.591865 35.2281 0.525756 35.5592C0.49192 35.7415 0.441876 35.8571 0.375395 35.9068C0.19194 36.0559 0.100471 36.5692 0.100471 37.4466C0.0340641 37.9392 0.000527814 38.4047 7.26831e-06 38.8436C-0.00155437 40.0568 0.248528 41.0646 0.750557 41.8669C1.05061 42.3803 1.31713 42.6865 1.55078 42.7859C1.98395 42.9845 2.31747 43.084 2.55105 43.084C2.63419 43.084 2.7093 43.084 2.776 43.084C3.07606 43.084 3.34257 43.0341 3.57623 42.9349C4.65985 42.4716 5.70994 41.3952 6.72679 39.7066C6.91009 39.3922 7.03532 39.1768 7.10203 39.0609L7.20197 43.7793C7.18532 44.0112 7.27708 44.4832 7.47712 45.1948L7.62718 46.0142C7.64354 46.0807 7.79353 46.2464 8.07716 46.5108C8.39357 46.7927 8.58559 46.9333 8.65229 46.9333C8.71862 46.9333 8.76056 46.8921 8.77722 46.8091C8.81046 46.7263 8.83544 46.5524 8.8524 46.2876C8.8524 46.2379 8.8524 46.18 8.8524 46.1137C8.8524 45.7497 8.80235 45.3027 8.7024 44.7726C8.5687 44.1269 8.46065 43.5146 8.37722 42.9349Z" fill="black"/>
<path d="M18.6794 42.9349C18.6125 42.3556 18.5542 41.5856 18.5044 40.6253C18.4374 39.6654 18.4124 39.1601 18.4293 39.1104C18.4795 39.0609 18.5208 38.5641 18.5542 37.6203C18.6043 36.8257 18.6457 36.1551 18.6794 35.6089C18.7457 34.9468 18.6125 34.5576 18.2792 34.4418C18.1456 34.3919 18.0708 34.367 18.0543 34.367C17.9704 34.4005 17.9206 34.4253 17.904 34.4418C17.6541 34.5247 17.4871 34.7644 17.4041 35.162C17.3203 35.5429 17.2541 36.3458 17.204 37.5708C17.154 38.879 17.0791 39.8225 16.9789 40.4018C16.8953 40.9815 16.729 41.561 16.4788 42.1402C16.262 42.6369 15.9201 43.208 15.4537 43.8537C15.0036 44.5161 14.5949 44.9959 14.2285 45.2942C13.7283 45.741 13.3031 45.9646 12.9532 45.9646C12.7862 45.9646 12.6696 45.9484 12.603 45.915C12.536 45.882 12.428 45.7827 12.2779 45.6171C11.7277 45.021 11.3528 43.7878 11.1527 41.9167C11.0861 41.2214 11.0609 40.7165 11.0778 40.4018C11.0778 40.0707 11.1527 39.2347 11.3027 37.8936C11.3528 37.4633 11.361 36.9584 11.3278 36.3786C11.2941 35.7992 11.236 35.46 11.1527 35.3606C11.019 35.1786 10.9109 35.2449 10.8276 35.5592C10.8108 35.7248 10.7609 35.8409 10.6776 35.9068C10.4938 36.0559 10.4027 36.5692 10.4027 37.4466C10.4027 37.8936 10.3608 38.2827 10.2777 38.6139C10.1605 38.9452 10.1025 39.7399 10.1025 40.9978C10.1025 42.2395 10.1605 43.1174 10.2777 43.6302C10.4775 44.6075 10.7359 45.3687 11.0528 45.915C11.3191 46.3289 11.5859 46.6352 11.8529 46.8338C12.1028 47.0162 12.4362 47.1155 12.853 47.1319C12.9363 47.1319 13.0111 47.1319 13.0782 47.1319C13.3782 47.1319 13.6448 47.0822 13.8783 46.9828C14.9949 46.4699 16.045 45.3934 17.029 43.7544C17.2123 43.4403 17.3372 43.2248 17.4041 43.1087C17.4539 43.4067 17.4871 43.6302 17.5041 43.7793C17.604 44.2926 17.6954 44.7645 17.7791 45.1948L17.9291 46.0142C17.9291 46.064 18.0791 46.2296 18.3791 46.5108C18.6959 46.7926 18.8875 46.9333 18.9544 46.9333C19.0209 46.9333 19.0625 46.8921 19.0793 46.8091C19.1127 46.7263 19.1376 46.5524 19.1545 46.2876C19.1545 46.2379 19.1545 46.18 19.1545 46.1137C19.1545 45.7497 19.1044 45.3026 19.0045 44.7726C18.8709 44.1269 18.7625 43.5146 18.6794 42.9349Z" fill="black"/>
<path d="M60.2022 30.5076C60.2804 30.4864 60.3434 30.4583 60.3901 30.4224C60.4671 30.3628 60.4883 30.3058 60.4556 30.2522C60.4363 30.1477 60.1864 30.0225 59.7073 29.8767C58.9078 29.621 57.5596 29.0923 55.6653 28.2906C54.1407 27.6415 52.9602 27.1616 52.1271 26.8519C49.9158 26.0566 47.3497 25.0589 44.4288 23.8582C42.858 23.2028 41.537 22.632 40.4577 22.1427C41.0318 21.8724 41.4241 21.6375 41.6326 21.438C41.7663 21.3073 41.8396 21.1537 41.8522 20.9785C41.8804 20.9137 41.8914 20.8534 41.8833 20.7982C41.8698 20.7064 41.823 20.6522 41.7443 20.6346C41.6199 20.5723 41.3229 20.642 40.8544 20.8425C40.0593 21.1685 38.6144 21.6485 36.5213 22.2811C35.0879 22.7108 33.9501 23.0691 33.1028 23.3565C33.1152 23.0967 33.1235 22.857 33.1266 22.6427L33.154 21.1846C32.687 20.4336 32.0865 21.1846 32.0865 21.1846L31.9696 22.73C31.9506 22.8677 31.9309 23.0139 31.9107 23.1696C31.8772 23.3944 31.8451 23.6077 31.8141 23.8153C29.705 24.5688 27.251 25.3851 24.451 26.2634C21.2593 27.2458 18.9198 27.8965 17.4321 28.2151C17.0878 28.2803 16.8019 28.3362 16.5694 28.3837C16.4296 28.4334 16.1198 28.482 16.1128 28.4826C16.0625 28.4944 14.0277 28.9256 13.9947 28.9397C13.9932 28.9615 13.2956 29.1621 12.0295 29.4221C8.16115 30.2406 5.84903 30.817 5.09238 31.1518C4.77121 31.3136 4.62032 31.459 4.63928 31.5873C4.6871 31.6513 4.77306 31.7145 4.89725 31.7766C4.98255 31.8306 5.97515 31.672 7.87618 31.3C12.1326 30.5123 16.7864 29.5524 16.9388 29.5499C17.3898 29.4873 18.7043 29.1665 20.8816 28.5877C23.0258 28.037 24.7775 27.5619 26.137 27.1619C28.2817 26.5042 30.0892 25.9317 31.5683 25.4425C31.3558 26.8349 31.241 27.541 31.2247 27.5581C31.2191 27.5581 31.0989 29.143 31.1165 29.161C31.1401 29.1867 31.1283 29.2505 31.0803 29.352C31.0081 29.6572 30.972 30.5603 30.972 32.0613C30.9478 33.5373 30.9595 34.7458 31.0081 35.6866C31.2484 38.9177 31.5137 41.0676 31.8025 42.1363C31.8984 42.4928 31.983 42.9631 32.0551 43.5482C32.2956 45.1765 32.6204 46.1682 33.0301 46.5246C33.1502 46.626 33.3187 46.6897 33.5353 46.7153C33.6076 46.7403 33.6798 46.7536 33.7522 46.7536C33.8723 46.7536 33.9565 46.7277 34.0049 46.6772C34.1251 46.601 34.1369 46.397 34.0409 46.0668C33.8965 45.5075 33.7758 44.5022 33.6798 43.0519C33.6076 41.8822 33.523 40.9911 33.427 40.3807C33.1383 38.7776 32.8975 36.8695 32.705 34.6561C32.5363 32.4432 32.5001 30.8276 32.5967 29.8098C32.6301 29.575 32.6553 29.3799 32.6733 29.2209C32.6576 29.1233 32.7002 28.9131 32.7018 28.9085C32.7038 28.8739 32.705 28.8423 32.705 28.8173C32.7158 28.815 32.7876 27.4512 32.7773 27.4438C32.753 27.4188 32.7891 26.9733 32.8856 26.108C32.9263 25.7001 32.9614 25.3202 32.9919 24.9624C34.0224 24.6069 34.8276 24.3084 35.4043 24.068C35.9107 23.8573 36.5836 23.6112 37.4243 23.3305C38.0278 23.1207 38.5678 22.9233 39.0468 22.7377C39.3494 22.88 39.6782 23.0335 40.0366 23.1995C41.8865 24.0759 43.4215 24.7777 44.6416 25.3046C48.8796 27.0774 51.7666 28.2045 53.3025 28.687C53.8148 28.8479 54.4636 29.0814 55.2494 29.3883C57.4615 30.2224 58.9232 30.6419 59.637 30.647C59.8421 30.6467 60.031 30.6004 60.2022 30.5076Z" fill="black"/>
<path d="M43.0666 42.6099C42.9828 43.14 42.7415 43.6945 42.3414 44.2738C41.9074 44.9195 41.3076 45.2921 40.5411 45.3914C40.274 45.4411 40.024 45.4659 39.7908 45.4659C39.3238 45.4659 38.8988 45.3831 38.5156 45.2175C37.9317 44.9858 37.3984 44.5058 36.9151 43.7771C36.515 43.1483 36.2483 42.4693 36.115 41.7407C36.0814 41.4761 36.0651 41.2028 36.0651 40.9213C36.0651 40.6399 36.0814 40.3419 36.115 40.0271C36.2483 39.2325 36.3902 38.645 36.5401 38.264C36.6902 37.8833 36.9652 37.4779 37.3653 37.0471C37.7986 36.6001 38.1738 36.3021 38.4905 36.1532C38.8071 36.0209 39.2988 35.9544 39.9657 35.9544C40.2489 35.9382 40.4659 35.9296 40.6159 35.9296C40.6992 35.9791 40.7742 36.0209 40.8411 36.0537C40.9241 36.087 41.0243 36.1532 41.1412 36.2524C41.5912 36.8818 42.0413 37.6432 42.4912 38.5371C42.6576 38.9015 42.7747 39.1829 42.8414 39.3816C42.8916 39.5638 42.9415 39.87 42.9914 40.3003C43.0747 40.9131 43.1165 41.4347 43.1165 41.8647C43.1165 42.1631 43.0996 42.4114 43.0666 42.6099ZM42.5915 36.2772C42.3746 36.0288 42.0576 35.7643 41.6412 35.4825C41.2243 35.218 40.8658 35.0274 40.5659 34.9115C40.3659 34.8287 40.0741 34.7872 39.6907 34.7872C39.6407 34.7872 39.5906 34.7872 39.5409 34.7872C39.2408 34.7872 39.0068 34.8119 38.8405 34.8617C38.4737 34.9609 38.2905 35.0523 38.2905 35.135C38.2905 35.2013 38.207 35.2429 38.0403 35.259C37.7736 35.3087 37.4151 35.5158 36.9652 35.8799C36.515 36.2442 36.1812 36.5837 35.9648 36.898C35.2981 37.8916 34.9648 39.2325 34.9648 40.9213C34.9811 41.7159 35.0398 42.2871 35.1399 42.6348C35.7898 44.5221 36.9317 45.7804 38.5655 46.4095C38.9321 46.5586 39.4158 46.6498 40.016 46.6826C40.1658 46.6826 40.3159 46.6826 40.4659 46.6826C40.8658 46.6826 41.2159 46.6498 41.5162 46.5834C42.9997 46.1697 43.9166 45.1677 44.2667 43.5784C44.317 43.2803 44.3419 42.8502 44.3419 42.2871C44.3419 42.138 44.3419 41.9726 44.3419 41.7904C44.325 40.9795 44.25 40.3171 44.1167 39.8037C43.7497 38.1483 43.2414 36.9725 42.5915 36.2772Z" fill="black"/>
<path d="M52.6475 41.3643C52.6476 41.3295 52.6478 41.2974 52.6479 41.2626C52.6479 41.2554 52.6475 41.247 52.6475 41.2402C52.6475 41.2719 52.6475 41.3128 52.6475 41.3643Z" fill="black"/>
<path d="M46.0962 41.2652C46.0963 41.2301 46.0965 41.1977 46.0966 41.163C46.0966 41.1559 46.0962 41.1477 46.0962 41.1409C46.0962 41.1724 46.0962 41.2135 46.0962 41.2652Z" fill="black"/>
<path d="M53.9441 44.4686C53.9273 43.939 53.894 43.4255 53.844 42.929C53.6605 41.1408 53.5602 39.9821 53.5439 39.4522C53.5271 39.3198 53.5189 39.1957 53.5189 39.0797C53.5189 37.1784 53.5031 35.8314 53.4713 35.0358C53.4788 35.0067 53.4865 34.9797 53.4942 34.9573C53.5172 34.8182 53.5015 34.7134 53.4511 34.6393C53.4488 34.6028 53.4465 34.567 53.4439 34.535C53.4439 34.4523 53.319 34.4109 53.0689 34.4109C53.0353 34.4109 53.0103 34.4109 52.994 34.4109C52.9857 34.4109 52.9789 34.4117 52.9709 34.4119C52.6767 34.3513 52.2594 34.3261 51.7187 34.3364C50.9683 34.3201 50.3348 34.2785 49.8182 34.2122C49.3346 34.1295 48.693 34.0799 47.8929 34.063C47.7427 34.063 47.5926 34.063 47.4428 34.063C46.8926 34.063 46.534 34.0879 46.3673 34.1376C46.1174 34.2207 45.9335 34.386 45.8173 34.6342C45.7337 34.7672 45.6924 34.8912 45.6924 35.0068C45.6924 35.0731 45.7087 35.1395 45.7422 35.2056C45.7785 35.2537 45.8555 35.2884 45.9704 35.3101C45.8967 36.3622 45.8542 38.3109 45.8428 41.1629C45.8454 41.4634 45.9033 41.9604 46.0174 42.6557C46.0672 42.8879 46.1174 43.4839 46.1675 44.4438C46.1838 44.8746 46.2338 45.2632 46.3173 45.6111C46.4004 45.9424 46.4838 46.1077 46.5673 46.1077C46.6176 46.1077 46.6759 46.1739 46.7425 46.3064C46.8258 46.4554 46.9509 46.5549 47.1178 46.6045C47.2009 46.6377 47.276 46.654 47.3425 46.654C47.4428 46.654 47.5176 46.6292 47.5677 46.5795C47.6342 46.4969 47.6677 46.3895 47.6677 46.2566C47.6677 46.1411 47.6178 45.8761 47.5176 45.4619C47.4509 45.1807 47.4089 44.8164 47.3926 44.3693C47.3758 43.8396 47.3425 43.3264 47.2927 42.8295C47.109 41.0417 47.0091 39.883 46.9927 39.3529C46.9758 39.2205 46.9676 39.0963 46.9676 38.9805C46.9676 37.2586 46.9545 35.9928 46.9285 35.1779C47.1387 35.1541 47.4253 35.1465 47.7926 35.1558C48.4261 35.1726 48.9511 35.2223 49.3681 35.3049C50.2684 35.4706 50.8433 35.5618 51.0935 35.578C51.1268 35.578 51.1516 35.578 51.1685 35.578C51.4147 35.578 51.8662 35.5426 52.5172 35.4723C52.4464 36.5387 52.4053 38.4679 52.3941 41.2626C52.3967 41.563 52.4546 42.0598 52.5686 42.7552C52.6187 42.9871 52.6688 43.5831 52.7189 44.5432C52.7353 44.9739 52.7851 45.3627 52.8686 45.7104C52.952 46.0417 53.0353 46.2069 53.1189 46.2069C53.1689 46.2069 53.227 46.2734 53.2939 46.4057C53.377 46.5549 53.5022 46.654 53.6688 46.7037C53.7521 46.7372 53.8273 46.7532 53.894 46.7532C53.994 46.7532 54.0692 46.7285 54.1191 46.6788C54.1855 46.5962 54.2193 46.4888 54.2193 46.3561C54.2193 46.2404 54.1689 45.9756 54.0691 45.5614C54.0021 45.28 53.9606 44.9155 53.9441 44.4686Z" fill="black"/>
<path d="M63.5458 36.8027C63.5458 37.0842 63.4708 37.6555 63.3206 38.5162C63.1707 39.3771 63.0707 39.9565 63.0207 40.2545C62.7708 41.5296 62.3536 42.5807 61.7704 43.4086C61.2037 44.2197 60.495 44.7164 59.6449 44.8986C59.0779 45.0146 58.5948 45.0723 58.1944 45.0723C57.711 44.94 57.3358 44.7333 57.0696 44.4516C56.7026 44.0707 56.5194 43.6902 56.5194 43.3091C56.5194 43.094 56.5606 42.7875 56.6443 42.3902C56.7107 41.9929 56.7858 41.7531 56.8695 41.6701C56.9195 41.5377 57.0025 41.3887 57.1194 41.223C57.1859 41.0742 57.2775 40.8591 57.3946 40.5774C57.4445 40.4948 57.5527 40.288 57.7193 39.9565C57.8698 39.6089 57.9779 39.3523 58.0446 39.1867L58.6696 37.8953C58.8029 37.5973 58.9531 37.3326 59.12 37.1006C59.2864 36.869 59.4697 36.6784 59.67 36.5294C60.0533 36.1985 60.5617 35.9668 61.1954 35.8341C61.4786 35.768 61.7454 35.7347 61.9955 35.7347C62.2619 35.7347 62.5121 35.7763 62.7457 35.859C62.9956 35.9419 63.187 36.066 63.3206 36.2313C63.487 36.3803 63.5623 36.5543 63.5458 36.7529C63.5458 36.7697 63.5458 36.7862 63.5458 36.8027ZM65.1212 44.6005C64.9042 43.9713 64.7542 43.1353 64.6711 42.0924C64.5873 41.0493 64.6042 40.0726 64.721 39.1618C64.7874 38.5495 64.8211 37.9945 64.8211 37.4979C64.8376 36.9849 64.8211 36.7117 64.7711 36.6784C64.721 36.6455 64.6959 36.4798 64.6959 36.1817C64.6959 35.9171 64.6124 35.7098 64.446 35.5609C64.279 35.4286 64.021 35.2795 63.6709 35.1138C63.1537 34.8494 62.5707 34.7164 61.9204 34.7164C61.5702 34.7164 61.2037 34.7499 60.8202 34.8159C59.4533 35.0808 58.2778 36.0412 57.2945 37.6964C56.9944 38.2101 56.6277 38.9469 56.1941 39.9068C55.744 40.8506 55.4854 41.4713 55.419 41.7694C55.3192 42.3159 55.269 42.821 55.269 43.2842C55.269 43.6487 55.3023 43.9883 55.3691 44.3025C55.5522 44.8986 55.7191 45.3456 55.8691 45.6436C56.0192 45.9417 56.3107 46.1985 56.7444 46.4135C56.9277 46.5127 57.0859 46.5792 57.2194 46.6121C57.3358 46.6287 57.5695 46.637 57.9196 46.637C58.4528 46.637 58.928 46.5708 59.3448 46.4381C60.3282 46.0906 61.0868 45.685 61.6205 45.2214C62.1538 44.7581 62.6706 44.1206 63.1707 43.3091C63.187 43.2761 63.2041 43.2514 63.2208 43.2345C63.3708 42.9861 63.4457 42.9118 63.4457 43.0111C63.4457 43.0775 63.4708 43.4085 63.5207 44.0045C63.6038 44.783 63.8459 45.4036 64.2458 45.867C64.6292 46.3307 64.9543 46.4879 65.2212 46.3388C65.3046 46.2892 65.3542 46.2314 65.3712 46.1652C65.3712 46.1488 65.3712 46.1239 65.3712 46.0906C65.3712 45.9911 65.3627 45.8588 65.3461 45.6932C65.3127 45.3456 65.2375 44.9816 65.1212 44.6005Z" fill="black"/>
<path d="M74.681 42.7552C74.6472 42.9208 74.5811 43.1525 74.481 43.4503C74.2642 43.9805 74.039 44.3363 73.8057 44.5183C73.5558 44.7008 73.1057 44.8163 72.4555 44.8661C72.3387 44.8825 72.2218 44.8909 72.1055 44.8909C71.5217 44.8909 70.9634 44.7504 70.43 44.4686C70.1464 44.2866 69.855 44.0465 69.5549 43.7485C69.2378 43.4342 68.9962 43.0947 68.8298 42.7302C68.6797 42.4489 68.5379 42.0933 68.4045 41.6623C68.2711 41.2487 68.2047 40.9669 68.2047 40.818C68.2047 40.6858 68.1628 40.5783 68.0798 40.4954C68.0297 40.4623 68.0046 40.3548 68.0046 40.1723C68.0046 40.0235 68.0209 39.8246 68.0547 39.5764C68.1378 39.0467 68.2296 38.6495 68.3297 38.3842C68.5629 37.6727 68.8461 37.1096 69.1798 36.6958C69.2799 36.5632 69.5213 36.3232 69.905 35.9755C70.2883 35.6445 70.5551 35.4457 70.7051 35.3794C71.0052 35.2638 71.3216 35.1892 71.6553 35.1558C71.7054 35.1558 71.7552 35.1558 71.8053 35.1558C72.0553 35.1395 72.2804 35.1893 72.4806 35.3049C72.697 35.421 72.9388 35.6196 73.2057 35.9008C73.5558 36.282 73.7723 36.6047 73.8558 36.8694C74.106 37.3829 74.314 38.1196 74.481 39.0797C74.6309 40.04 74.7061 40.9838 74.7061 41.9107C74.7061 42.3081 74.6973 42.5899 74.681 42.7552ZM76 42.7856V42.0615C75.982 41.5135 75.9256 40.8838 75.8313 40.1723C75.6142 38.4506 75.2976 37.1759 74.8811 36.3479C74.7143 36.0169 74.4308 35.6364 74.0309 35.2056C73.6309 34.7919 73.2972 34.5102 73.0305 34.3611C72.7638 34.2288 72.3885 34.1376 71.9053 34.0879C71.7218 34.0718 71.5554 34.063 71.4054 34.063C71.1552 34.063 70.9466 34.0879 70.78 34.1376C70.6632 34.1709 70.505 34.2455 70.305 34.3611C70.1051 34.4772 69.9714 34.5848 69.905 34.6841C69.8714 34.7007 69.7463 34.7919 69.5298 34.9573C68.9962 35.3215 68.5629 35.8349 68.2296 36.4969C68.1961 36.58 68.171 36.6378 68.1545 36.6707C68.121 36.6707 68.1045 36.2983 68.1045 35.5531C68.1045 34.941 68.1127 34.5268 68.1295 34.3114C67.9795 34.3449 67.8709 34.3611 67.8045 34.3611C67.7045 34.3449 67.6128 34.353 67.5294 34.386C67.4295 34.4193 67.3707 34.4855 67.3544 34.5847C67.2877 34.9324 67.2294 35.2471 67.1792 35.5285C67.0457 36.3068 66.9376 37.5318 66.8542 39.2038C66.7874 40.3958 66.7544 41.4556 66.7544 42.3826C66.7544 42.7636 66.7625 43.1193 66.7795 43.4503C66.8457 45.9338 66.9544 47.5978 67.1044 48.4422C67.1875 48.9388 67.2458 49.4107 67.2795 49.8579C67.3293 50.321 67.4208 50.6188 67.5545 50.7516C67.7377 50.9168 67.9129 51 68.0798 51C68.2629 51 68.4296 50.9255 68.5796 50.7765C68.6961 50.5941 68.738 50.2963 68.7047 49.8824C68.6712 49.485 68.6046 49.0048 68.5046 48.4422C68.3879 47.8791 68.3047 47.0763 68.2545 46.0333C68.2047 44.9404 68.1628 44.3279 68.1295 44.1955C68.0959 44.0631 68.088 44.0052 68.1045 44.0218C68.1378 44.0384 68.2461 44.1624 68.4296 44.3941C68.7627 44.9242 69.288 45.3627 70.0048 45.7104C70.7051 46.0747 71.4217 46.2566 72.1556 46.2566C72.9388 46.2566 73.6222 46.1077 74.2059 45.8098C74.6058 45.6445 74.9473 45.3874 75.2309 45.0399C75.5312 44.692 75.7393 44.3116 75.8561 43.8974C75.9358 43.595 75.9837 43.2243 76 42.7856Z" fill="black"/>
<path d="M31.3286 8.99831C31.2966 7.61495 31.8833 6.49547 32.1368 6.07849C32.3219 5.77436 32.4848 5.60353 32.6423 5.4381C32.7834 5.29024 32.9167 5.15029 33.0398 4.94195C33.2121 4.65045 33.347 4.35547 33.456 4.06124C33.4649 4.08022 33.4722 4.09595 33.481 4.11537C33.8824 4.96898 34.4319 6.13795 34.2826 7.11895C34.1477 8.00483 33.8444 8.49514 33.4935 9.06301C33.1322 9.64763 32.7226 10.3101 32.4233 11.516C32.1502 12.6182 31.7756 14.1278 32.3715 15.7091C32.4636 15.9529 32.5582 16.1464 32.65 16.3335C32.8089 16.6572 32.9458 16.9366 33.021 17.3963C33.1487 18.1796 33.0152 19.0126 32.6257 19.8725C31.8027 18.8557 31.3614 17.8265 31.3169 16.8122C31.2898 16.1977 31.4116 15.8057 31.566 15.3095C31.7203 14.8125 31.8952 14.2492 31.9772 13.3208C32.0477 12.5226 32.1542 11.3159 31.7264 10.007C31.6039 9.63242 31.4644 9.32999 31.315 9.07335C31.3229 9.04942 31.3292 9.02483 31.3286 8.99831ZM25.9123 0.422966C27.1471 1.21165 27.9857 2.17789 28.405 3.29427C28.629 3.89049 28.6413 4.28871 28.6545 4.7102C28.669 5.1709 28.6838 5.64725 28.9441 6.39289C29.2952 7.40003 29.7446 7.88902 30.179 8.36176C30.5966 8.81626 30.9911 9.2455 31.2864 10.1488C31.6852 11.369 31.5877 12.474 31.5166 13.2808C31.4386 14.1606 31.2716 14.6991 31.1237 15.1741C30.9632 15.6914 30.8243 16.1382 30.8547 16.8325C30.9043 17.9565 31.3866 19.0862 32.2884 20.1901C32.3341 20.2461 32.4007 20.2752 32.4682 20.2752C32.5193 20.2752 32.5708 20.2584 32.6139 20.2238C32.6391 20.2035 32.6586 20.1788 32.6726 20.1518C32.6906 20.1684 32.7094 20.1843 32.7328 20.1948C32.7638 20.2088 32.7963 20.2155 32.8283 20.2155C32.9162 20.2155 33.0004 20.1653 33.039 20.0806C33.4737 19.1305 33.6212 18.2027 33.4777 17.3228C33.3917 16.7963 33.2334 16.4737 33.0661 16.1323C32.979 15.9549 32.889 15.7715 32.8049 15.5481C32.2589 14.0999 32.5991 12.728 32.8729 11.6249C33.1545 10.4896 33.5274 9.88648 33.8877 9.30326C34.2494 8.71818 34.591 8.16583 34.7397 7.18748C34.9102 6.06933 34.3264 4.8277 33.9002 3.92107C33.8041 3.71634 33.7207 3.53806 33.6594 3.3885C33.9633 2.09724 33.7838 0.892384 33.6058 0.174892C33.5753 0.0515555 33.4498 -0.0235524 33.3258 0.00680165C33.202 0.0370818 33.126 0.161599 33.1565 0.284714C33.3885 1.21926 33.6296 3.03696 32.6411 4.70916C32.5445 4.87246 32.4341 4.98833 32.3064 5.1223C32.1401 5.29682 31.9517 5.49431 31.741 5.84098C31.444 6.32901 30.9766 7.26968 30.8826 8.46125C30.7626 8.31686 30.6412 8.18318 30.5208 8.05216C30.0993 7.59346 29.7012 7.1603 29.381 6.24237C29.1439 5.56306 29.1304 5.12223 29.117 4.69602C29.103 4.25592 29.0891 3.80083 28.8385 3.13371C28.3835 1.92213 27.4831 0.880196 26.1627 0.0364875C26.1238 0.0118203 26.0805 4.37032e-07 26.0378 4.37032e-07C25.9615 -0.000147271 25.8872 0.0371511 25.8431 0.105466C25.7738 0.212185 25.8048 0.354356 25.9123 0.422966Z" fill="black"/>
<path d="M29.2233 41.815C29.105 41.815 29.0018 41.9326 28.9183 42.1607C28.8665 42.3142 28.7955 42.485 28.7058 42.6719C28.6161 42.8587 28.5074 43.0623 28.38 43.2818C28.1658 43.7643 27.8683 44.2578 27.4632 44.6658C27.3279 44.8018 27.1809 44.9283 27.0204 45.0425C25.9202 45.76 24.6507 46.0122 23.6272 45.2377C23.4989 45.1618 23.3723 45.0772 23.2475 44.9834C23.1225 44.8896 22.9995 44.7868 22.8782 44.6751C22.4177 44.2174 22.0795 43.7517 21.8765 43.2969C21.6322 42.8128 21.5345 42.2444 21.5863 41.6071C21.6375 40.985 21.7825 40.2895 22.0169 39.5425C22.203 38.9036 22.4691 38.2987 22.8084 37.7434C22.977 37.4749 23.1159 37.2769 23.2213 37.1547C23.3348 37.0236 23.5529 36.8745 23.891 36.6978C24.3759 36.4572 24.9528 36.3352 25.6017 36.3352C25.6019 36.3352 25.6937 36.3333 25.7391 36.3333C26.3344 36.3333 26.8573 36.439 27.3077 36.6548C27.583 36.826 27.8522 37.0417 28.1117 37.2992C28.3751 37.5788 28.5547 37.8737 28.6425 38.1689C28.7621 38.5059 28.8608 38.57 28.8715 38.5757C28.9357 38.594 29.0189 38.6033 29.1197 38.6033C29.1598 38.6033 29.2019 38.6018 29.2467 38.5991C29.3053 38.5406 29.345 38.468 29.3682 38.3759C29.3977 38.2731 29.4127 38.1441 29.4127 37.9929C29.4127 37.886 29.351 37.6519 29.0568 37.1455C28.8123 36.7245 28.5732 36.3718 28.353 36.1055C27.8914 35.6317 27.3012 35.3108 26.6045 35.1534C26.3472 35.1054 26.0535 35.0812 25.7309 35.0812C25.4055 35.0812 25.05 35.1059 24.6805 35.1537C24.0359 35.2658 23.5066 35.4511 23.1116 35.7021C22.547 36.0862 22.0389 36.6241 21.6033 37.2971C21.1789 37.9938 20.8476 38.775 20.6206 39.6122C20.5231 40.0643 20.4736 40.6893 20.4736 41.4696V41.7676C20.4736 42.3355 20.5146 42.8099 20.5941 43.1723C20.7078 43.6084 20.8898 44.0931 21.1335 44.6095C21.6301 45.5959 22.4602 46.2904 23.5996 46.6729C24.0989 46.833 24.6056 46.9143 25.1057 46.9143C25.3864 46.9143 25.6681 46.8891 25.9392 46.8332C26.1884 46.7541 26.4229 46.6788 26.6412 46.5999C27.4438 46.2644 27.9517 45.76 28.4108 45.2354C28.5831 44.9959 28.7295 44.7401 28.8646 44.4821C28.905 44.3921 28.9432 44.3016 28.9798 44.2107C29.1148 43.8745 29.2343 43.5318 29.375 43.1976C29.48 42.9477 29.7843 42.5775 29.7893 42.3098C29.7769 42.2246 29.7412 42.1534 29.6801 42.0924C29.4491 41.8633 29.3042 41.815 29.2233 41.815Z" fill="black"/>
</svg>
