<svg width="95" height="64" viewBox="0 0 95 64" fill="none" xmlns="http://www.w3.org/2000/svg">
<path d="M10.4715 53.8791C10.3882 53.1521 10.3154 52.1858 10.2527 50.9808C10.1693 49.7761 10.1381 49.1421 10.1592 49.0796C10.2215 48.8724 10.2733 48.249 10.3154 47.2098C10.357 46.2126 10.409 45.3711 10.4715 44.6857C10.5546 43.8548 10.3882 43.3664 9.9717 43.2211C9.80457 43.1584 9.71069 43.1272 9.69015 43.1272C9.62759 43.1272 9.56521 43.1584 9.50265 43.2211C9.12767 43.5949 8.91908 43.8962 8.87753 44.1248C8.77305 44.7478 8.69005 45.7558 8.6274 47.1476C8.60667 47.7295 8.17917 48.5919 7.34602 49.7342C6.6997 50.6277 6.18957 51.2301 5.81422 51.5416C4.89704 52.2691 4.12644 52.6324 3.50123 52.6324C3.29273 52.6324 3.1467 52.612 3.0636 52.57C2.98022 52.5287 2.84479 52.4041 2.6573 52.1963C1.51107 50.9494 1.0424 49.4021 1.25099 47.5527C1.31327 47.0127 1.32349 46.3791 1.28204 45.6516C1.24011 44.9245 1.16724 44.4988 1.06322 44.374C0.875547 44.1248 0.739831 44.2077 0.657195 44.6232C0.6149 44.8521 0.552345 44.9972 0.469243 45.0595C0.239924 45.2466 0.125588 45.8907 0.125588 46.9918C0.0425801 47.6099 0.000659767 48.1942 9.08539e-06 48.7449C-0.00194296 50.2673 0.31066 51.532 0.938196 52.5388C1.31327 53.1831 1.64642 53.5674 1.93848 53.6921C2.47994 53.9413 2.89684 54.0662 3.18881 54.0662C3.29274 54.0662 3.38662 54.0662 3.47 54.0662C3.84507 54.0662 4.17822 54.0036 4.47028 53.8791C5.82481 53.2977 7.13742 51.9469 8.40848 49.8278C8.63762 49.4333 8.79415 49.163 8.87753 49.0175L9.00247 54.9387C8.98165 55.2298 9.09635 55.822 9.3464 56.715L9.53398 57.7433C9.55443 57.8267 9.74192 58.0347 10.0964 58.3665C10.492 58.7202 10.732 58.8966 10.8154 58.8966C10.8983 58.8966 10.9507 58.845 10.9715 58.7408C11.0131 58.6369 11.0443 58.4187 11.0655 58.0863C11.0655 58.024 11.0655 57.9513 11.0655 57.8682C11.0655 57.4113 11.0029 56.8504 10.878 56.1852C10.7109 55.3749 10.5758 54.6065 10.4715 53.8791V53.8791Z" fill="white"/>
<path d="M23.3494 53.879C23.2657 53.1521 23.1929 52.1858 23.1306 50.9808C23.0469 49.7761 23.0156 49.1421 23.0368 49.0796C23.0994 49.0175 23.1511 48.3941 23.1929 47.2098C23.2555 46.2126 23.3072 45.3711 23.3494 44.6857C23.4322 43.8548 23.2657 43.3664 22.8491 43.2211C22.6822 43.1584 22.5886 43.1272 22.568 43.1272C22.4632 43.1692 22.4009 43.2004 22.3801 43.2211C22.0677 43.3252 21.8591 43.6259 21.7552 44.1248C21.6505 44.6028 21.5677 45.6104 21.5051 47.1476C21.4426 48.7893 21.349 49.9733 21.2238 50.7002C21.1192 51.4278 20.9114 52.1549 20.5986 52.8818C20.3276 53.5051 19.9002 54.2218 19.3173 55.0321C18.7546 55.8633 18.2438 56.4654 17.7858 56.8398C17.1605 57.4005 16.629 57.681 16.1916 57.681C15.9829 57.681 15.8371 57.6607 15.7539 57.6188C15.6701 57.5773 15.5351 57.4528 15.3475 57.245C14.6597 56.4969 14.1911 54.9493 13.941 52.6014C13.8577 51.7288 13.8263 51.0951 13.8474 50.7002C13.8474 50.2848 13.941 49.2357 14.1285 47.5527C14.1911 47.0127 14.2014 46.3791 14.1599 45.6516C14.1177 44.9245 14.0451 44.4988 13.941 44.374C13.7739 44.1456 13.6388 44.2289 13.5346 44.6232C13.5136 44.8311 13.4512 44.9768 13.3471 45.0595C13.1173 45.2466 13.0035 45.8907 13.0035 46.9918C13.0035 47.5527 12.9511 48.041 12.8472 48.4566C12.7008 48.8724 12.6283 49.8696 12.6283 51.4483C12.6283 53.0064 12.7008 54.1081 12.8472 54.7516C13.097 55.978 13.42 56.9332 13.8161 57.6188C14.1489 58.1382 14.4826 58.5226 14.8163 58.7718C15.1287 59.0007 15.5454 59.1253 16.0663 59.1458C16.1705 59.1458 16.264 59.1458 16.3479 59.1458C16.7229 59.1458 17.0561 59.0835 17.348 58.9587C18.7438 58.3152 20.0564 56.9643 21.2864 54.9075C21.5155 54.5133 21.6716 54.2429 21.7552 54.0971C21.8175 54.4712 21.8591 54.7516 21.8802 54.9387C22.0052 55.5829 22.1194 56.175 22.224 56.715L22.4115 57.7433C22.4115 57.8058 22.599 58.0136 22.974 58.3665C23.3699 58.7202 23.6095 58.8966 23.6931 58.8966C23.7762 58.8966 23.8283 58.845 23.8492 58.7407C23.891 58.6369 23.9221 58.4187 23.9433 58.0863C23.9433 58.024 23.9433 57.9513 23.9433 57.8682C23.9433 57.4113 23.8806 56.8504 23.7558 56.1852C23.5887 55.3749 23.4532 54.6065 23.3494 53.879V53.879Z" fill="white"/>
<path d="M75.2525 38.284C75.3502 38.2574 75.4291 38.2221 75.4873 38.1771C75.5836 38.1023 75.6101 38.0308 75.5692 37.9635C75.5451 37.8324 75.2327 37.6753 74.6338 37.4923C73.6346 37.1714 71.9493 36.5079 69.5814 35.5019C67.6756 34.6873 66.2 34.0852 65.1586 33.6965C62.3945 32.6984 59.1869 31.4464 55.5358 29.9397C53.5723 29.1173 51.9209 28.4009 50.5719 27.7868C51.2895 27.4477 51.7798 27.1529 52.0405 26.9026C52.2076 26.7385 52.2993 26.5458 52.3151 26.3259C52.3503 26.2447 52.3641 26.1689 52.3539 26.0997C52.337 25.9845 52.2785 25.9165 52.1801 25.8944C52.0246 25.8162 51.6534 25.9036 51.0678 26.1553C50.0739 26.5644 48.2677 27.1667 45.6513 27.9605C43.8596 28.4998 42.4374 28.9494 41.3782 29.3101C41.3937 28.9841 41.4042 28.6832 41.408 28.4144L41.4423 26.5846C40.8585 25.6421 40.1079 26.5846 40.1079 26.5846L39.9618 28.5238C39.938 28.6967 39.9134 28.8802 39.8882 29.0756C39.8462 29.3577 39.8062 29.6253 39.7674 29.8859C37.131 30.8315 34.0635 31.8558 30.5635 32.958C26.5739 34.1908 23.6495 35.0073 21.7899 35.4072C21.3595 35.489 21.0021 35.5592 20.7115 35.6187C20.5367 35.6811 20.1495 35.7421 20.1408 35.7428C20.0779 35.7577 17.5344 36.2988 17.4931 36.3164C17.4912 36.3439 16.6192 36.5956 15.0367 36.9218C10.2012 37.949 7.31105 38.6723 6.36523 39.0925C5.96376 39.2954 5.77516 39.4779 5.79886 39.639C5.85863 39.7193 5.96608 39.7985 6.12132 39.8765C6.22794 39.9443 7.4687 39.7452 9.84499 39.2784C15.1655 38.29 20.9828 37.0853 21.1733 37.0823C21.737 37.0037 23.3802 36.601 26.1017 35.8747C28.782 35.1836 30.9717 34.5875 32.671 34.0855C35.3519 33.2601 37.6112 32.5417 39.4601 31.9279C39.1944 33.6752 39.051 34.5612 39.0306 34.5827C39.0237 34.5827 38.8734 36.5716 38.8953 36.5942C38.9249 36.6264 38.9101 36.7065 38.8501 36.8339C38.7599 37.2168 38.7147 38.3501 38.7147 40.2338C38.6845 42.086 38.6992 43.6025 38.7599 44.7831C39.0602 48.8378 39.3919 51.5357 39.7528 52.8769C39.8727 53.3243 39.9785 53.9144 40.0687 54.6487C40.3692 56.692 40.7752 57.9366 41.2873 58.3838C41.4374 58.511 41.6482 58.591 41.9189 58.623C42.0093 58.6544 42.0995 58.6711 42.19 58.6711C42.3401 58.6711 42.4453 58.6387 42.5059 58.5753C42.6561 58.4797 42.6709 58.2237 42.5509 57.8093C42.3703 57.1075 42.2195 55.8459 42.0995 54.0258C42.0093 52.558 41.9035 51.4398 41.7835 50.6738C41.4227 48.6621 41.1216 46.2675 40.881 43.49C40.6701 40.7131 40.6249 38.6856 40.7457 37.4083C40.7874 37.1137 40.8189 36.8689 40.8414 36.6694C40.8218 36.5468 40.8751 36.2831 40.877 36.2773C40.8795 36.2339 40.881 36.1943 40.881 36.1629C40.8945 36.16 40.9843 34.4485 40.9714 34.4393C40.941 34.4079 40.9861 33.8488 41.1067 32.763C41.1576 32.251 41.2015 31.7744 41.2396 31.3254C42.5278 30.8792 43.5342 30.5046 44.2552 30.2029C44.8881 29.9386 45.7292 29.6297 46.7801 29.2774C47.5345 29.0142 48.2095 28.7665 48.8083 28.5336C49.1865 28.7121 49.5975 28.9048 50.0455 29.1131C52.3579 30.2128 54.2766 31.0936 55.8017 31.7547C61.0993 33.9795 64.708 35.3939 66.6279 35.9994C67.2682 36.2012 68.0792 36.4943 69.0615 36.8795C71.8267 37.9261 73.6538 38.4525 74.546 38.459C74.8024 38.4586 75.0386 38.4004 75.2525 38.284V38.284Z" fill="white"/>
<path d="M53.8333 53.4713C53.7285 54.1365 53.4269 54.8324 52.9268 55.5593C52.3843 56.3696 51.6345 56.8372 50.6764 56.9618C50.3425 57.0241 50.03 57.0553 49.7385 57.0553C49.1548 57.0553 48.6235 56.9514 48.1445 56.7436C47.4146 56.4529 46.748 55.8504 46.1439 54.9361C45.6438 54.1469 45.3104 53.2949 45.1437 52.3805C45.1018 52.0486 45.0814 51.7055 45.0814 51.3522C45.0814 50.9991 45.1018 50.6252 45.1437 50.2302C45.3104 49.233 45.4877 48.4957 45.6751 48.0176C45.8628 47.5399 46.2065 47.0311 46.7066 46.4905C47.2483 45.9295 47.7172 45.5557 48.1131 45.3688C48.5088 45.2028 49.1234 45.1194 49.9572 45.1194C50.3111 45.099 50.5824 45.0882 50.7699 45.0882C50.8741 45.1503 50.9678 45.2028 51.0513 45.2439C51.1552 45.2857 51.2804 45.3687 51.4265 45.4933C51.9891 46.2831 52.5516 47.2386 53.114 48.3603C53.322 48.8176 53.4683 49.1708 53.5518 49.4202C53.6145 49.6488 53.6768 50.0329 53.7392 50.573C53.8434 51.3419 53.8956 51.9965 53.8956 52.5361C53.8956 52.9106 53.8744 53.2221 53.8333 53.4713V53.4713ZM53.2394 45.5244C52.9682 45.2127 52.572 44.8807 52.0515 44.5271C51.5303 44.1951 51.0823 43.956 50.7074 43.8105C50.4574 43.7066 50.0927 43.6545 49.6134 43.6545C49.5509 43.6545 49.4882 43.6545 49.4261 43.6545C49.0509 43.6545 48.7585 43.6856 48.5507 43.7481C48.0921 43.8726 47.8631 43.9873 47.8631 44.0911C47.8631 44.1742 47.7588 44.2264 47.5504 44.2467C47.217 44.309 46.7689 44.5689 46.2065 45.0257C45.6438 45.4829 45.2265 45.9091 44.956 46.3034C44.1226 47.5502 43.7061 49.233 43.7061 51.3522C43.7264 52.3495 43.7998 53.0663 43.9249 53.5025C44.7372 55.8709 46.1646 57.45 48.2069 58.2395C48.6651 58.4266 49.2698 58.5409 50.02 58.5822C50.2073 58.5822 50.3949 58.5822 50.5824 58.5822C51.0823 58.5822 51.5199 58.5409 51.8953 58.4576C53.7496 57.9385 54.8957 56.6811 55.3334 54.6867C55.3962 54.3126 55.4273 53.7728 55.4273 53.0662C55.4273 52.8791 55.4273 52.6715 55.4273 52.4429C55.4062 51.4253 55.3125 50.594 55.1459 49.9498C54.6871 47.8725 54.0517 46.3969 53.2394 45.5244Z" fill="white"/>
<path d="M65.8092 51.9081C65.8094 51.8644 65.8096 51.8242 65.8098 51.7805C65.8098 51.7715 65.8092 51.7609 65.8092 51.7524C65.8092 51.7921 65.8092 51.8435 65.8092 51.9081Z" fill="white"/>
<path d="M57.6201 51.7837C57.6203 51.7397 57.6205 51.6991 57.6207 51.6555C57.6207 51.6467 57.6201 51.6363 57.6201 51.6277C57.6201 51.6673 57.6201 51.7189 57.6201 51.7837Z" fill="white"/>
<path d="M67.4298 55.8037C67.4089 55.1391 67.3672 54.4948 67.3047 53.8717C67.0753 51.6277 66.95 50.1736 66.9297 49.5086C66.9086 49.3424 66.8984 49.1867 66.8984 49.0412C66.8984 46.6552 66.8786 44.9649 66.8388 43.9666C66.8482 43.9299 66.8579 43.896 66.8675 43.868C66.8962 43.6934 66.8766 43.5619 66.8137 43.4689C66.8108 43.4231 66.8079 43.3782 66.8046 43.338C66.8046 43.2343 66.6485 43.1823 66.3359 43.1823C66.2939 43.1823 66.2626 43.1823 66.2423 43.1823C66.2318 43.1823 66.2234 43.1833 66.2134 43.1835C65.8456 43.1075 65.324 43.0759 64.6482 43.0888C63.7102 43.0683 62.9183 43.0161 62.2724 42.9329C61.668 42.8292 60.866 42.7669 59.8659 42.7458C59.6782 42.7458 59.4905 42.7458 59.3032 42.7458C58.6155 42.7458 58.1673 42.777 57.9589 42.8394C57.6465 42.9437 57.4167 43.1511 57.2714 43.4626C57.1669 43.6294 57.1152 43.785 57.1152 43.9301C57.1152 44.0134 57.1356 44.0967 57.1775 44.1795C57.2229 44.24 57.3191 44.2834 57.4627 44.3107C57.3706 45.631 57.3175 48.0764 57.3033 51.6555C57.3065 52.0326 57.3789 52.6562 57.5214 53.5288C57.5837 53.8202 57.6465 54.568 57.7091 55.7727C57.7295 56.3133 57.792 56.8009 57.8964 57.2374C58.0003 57.6532 58.1045 57.8606 58.2088 57.8606C58.2718 57.8606 58.3447 57.9438 58.4278 58.11C58.532 58.297 58.6884 58.4218 58.897 58.4841C59.0008 58.5258 59.0947 58.5462 59.1779 58.5462C59.3032 58.5462 59.3967 58.515 59.4594 58.4528C59.5425 58.3491 59.5844 58.2143 59.5844 58.0475C59.5844 57.9026 59.522 57.57 59.3967 57.0502C59.3134 56.6973 59.2609 56.2401 59.2406 55.6791C59.2195 55.0144 59.1779 54.3704 59.1156 53.7469C58.886 51.5033 58.7612 50.0492 58.7406 49.3841C58.7195 49.2179 58.7093 49.062 58.7093 48.9167C58.7093 46.7559 58.6929 45.1675 58.6603 44.1449C58.9231 44.1149 59.2814 44.1054 59.7405 44.1171C60.5324 44.1381 61.1887 44.2005 61.7099 44.3042C62.8353 44.5122 63.5539 44.6266 63.8666 44.6469C63.9083 44.6469 63.9392 44.6469 63.9604 44.6469C64.2682 44.6469 64.8325 44.6024 65.6462 44.5143C65.5577 45.8525 65.5064 48.2734 65.4924 51.7805C65.4956 52.1575 65.568 52.7809 65.7106 53.6536C65.7731 53.9445 65.8358 54.6926 65.8983 55.8974C65.9189 56.4378 65.9811 56.9257 66.0855 57.362C66.1897 57.7778 66.2939 57.9852 66.3983 57.9852C66.4609 57.9852 66.5335 58.0686 66.6171 58.2346C66.721 58.4218 66.8775 58.5462 67.0857 58.6086C67.1899 58.6506 67.2839 58.6707 67.3672 58.6707C67.4923 58.6707 67.5862 58.6397 67.6487 58.5773C67.7316 58.4737 67.7739 58.339 67.7739 58.1723C67.7739 58.0272 67.7109 57.6948 67.5862 57.1751C67.5023 56.822 67.4505 56.3646 67.4298 55.8037V55.8037Z" fill="white"/>
<path d="M79.4325 46.1838C79.4325 46.537 79.3387 47.2539 79.151 48.3341C78.9636 49.4145 78.8386 50.1415 78.7761 50.5154C78.4637 52.1156 77.9422 53.4346 77.2132 54.4735C76.5049 55.4914 75.619 56.1148 74.5564 56.3433C73.8477 56.4889 73.2438 56.5613 72.7433 56.5613C72.139 56.3953 71.67 56.1359 71.3373 55.7824C70.8785 55.3044 70.6495 54.827 70.6495 54.3486C70.6495 54.0788 70.701 53.6941 70.8057 53.1956C70.8887 52.697 70.9825 52.3961 71.0871 52.2919C71.1496 52.1257 71.2534 51.9388 71.3995 51.7308C71.4826 51.5441 71.5972 51.2742 71.7435 50.9207C71.8058 50.817 71.9412 50.5575 72.1494 50.1415C72.3374 49.7053 72.4726 49.3832 72.556 49.1755L73.3373 47.5549C73.5039 47.181 73.6916 46.8488 73.9002 46.5576C74.1082 46.267 74.3374 46.0278 74.5877 45.8408C75.0669 45.4256 75.7023 45.1348 76.4945 44.9683C76.8484 44.8854 77.182 44.8436 77.4946 44.8436C77.8276 44.8436 78.1403 44.8958 78.4324 44.9995C78.7448 45.1036 78.984 45.2594 79.151 45.4668C79.359 45.6537 79.4531 45.8721 79.4325 46.1213C79.4325 46.1424 79.4325 46.1631 79.4325 46.1838V46.1838ZM81.4017 55.9693C81.1305 55.1797 80.943 54.1306 80.8392 52.8218C80.7344 51.5128 80.7555 50.2871 80.9014 49.1442C80.9845 48.3758 81.0266 47.6794 81.0266 47.0562C81.0472 46.4125 81.0266 46.0697 80.9642 46.0278C80.9014 45.9865 80.8701 45.7786 80.8701 45.4045C80.8701 45.0724 80.7657 44.8124 80.5577 44.6254C80.349 44.4594 80.0264 44.2723 79.5888 44.0644C78.9424 43.7326 78.2136 43.5657 77.4008 43.5657C76.963 43.5657 76.5049 43.6077 76.0255 43.6906C74.3168 44.0229 72.8475 45.2281 71.6183 47.3054C71.2432 47.9499 70.7849 48.8745 70.2429 50.0792C69.6803 51.2635 69.357 52.0425 69.2739 52.4165C69.1492 53.1023 69.0865 53.7362 69.0865 54.3174C69.0865 54.7749 69.1281 55.201 69.2116 55.5954C69.4405 56.3433 69.6491 56.9043 69.8366 57.2782C70.0243 57.6523 70.3886 57.9746 70.9308 58.2444C71.1598 58.3689 71.3576 58.4523 71.5245 58.4937C71.67 58.5145 71.9621 58.5249 72.3997 58.5249C73.0663 58.5249 73.6602 58.4418 74.1813 58.2753C75.4104 57.8392 76.3587 57.3302 77.0259 56.7484C77.6925 56.167 78.3385 55.367 78.9636 54.3486C78.984 54.3072 79.0053 54.2763 79.0263 54.2551C79.2138 53.9434 79.3074 53.8501 79.3074 53.9747C79.3074 54.0581 79.3387 54.4735 79.4011 55.2213C79.505 56.1983 79.8076 56.977 80.3075 57.5586C80.7867 58.1405 81.1931 58.3378 81.5267 58.1506C81.6309 58.0885 81.693 58.0159 81.7142 57.9328C81.7142 57.9122 81.7142 57.881 81.7142 57.8392C81.7142 57.7143 81.7036 57.5483 81.6829 57.3405C81.6411 56.9043 81.5471 56.4475 81.4017 55.9693V55.9693Z" fill="white"/>
<path d="M93.3512 53.6536C93.3089 53.8614 93.2262 54.1521 93.1011 54.5259C92.8302 55.1912 92.5487 55.6377 92.257 55.8662C91.9446 56.0951 91.382 56.2401 90.5692 56.3025C90.4233 56.3232 90.2772 56.3337 90.1317 56.3337C89.402 56.3337 88.7041 56.1574 88.0374 55.8037C87.6829 55.5753 87.3186 55.274 86.9435 54.9001C86.5472 54.5057 86.2452 54.0796 86.0371 53.6222C85.8495 53.2692 85.6722 52.8229 85.5055 52.2821C85.3388 51.763 85.2558 51.4095 85.2558 51.2226C85.2558 51.0566 85.2034 50.9218 85.0996 50.8178C85.037 50.7762 85.0056 50.6413 85.0056 50.4123C85.0056 50.2256 85.026 49.976 85.0683 49.6645C85.1721 48.9998 85.2869 48.5013 85.412 48.1684C85.7035 47.2755 86.0575 46.5689 86.4747 46.0496C86.5997 45.8832 86.9015 45.5821 87.3811 45.1457C87.8603 44.7303 88.1938 44.4809 88.3813 44.3977C88.7563 44.2526 89.1519 44.1591 89.569 44.1171C89.6316 44.1171 89.6939 44.1171 89.7565 44.1171C90.069 44.0967 90.3504 44.1591 90.6006 44.3042C90.8711 44.4499 91.1733 44.6991 91.507 45.0519C91.9446 45.5303 92.2153 45.9354 92.3197 46.2675C92.6324 46.9119 92.8924 47.8364 93.1011 49.0412C93.2885 50.2463 93.3825 51.4306 93.3825 52.5938C93.3825 53.0925 93.3715 53.4462 93.3512 53.6536V53.6536ZM94.9999 53.6917V52.7831C94.9774 52.0954 94.9069 51.3052 94.789 50.4123C94.5177 48.2518 94.1219 46.6521 93.6013 45.6131C93.3927 45.1976 93.0384 44.7201 92.5385 44.1795C92.0386 43.6604 91.6214 43.307 91.2879 43.1198C90.9546 42.9538 90.4855 42.8394 89.8816 42.777C89.6521 42.7567 89.4441 42.7458 89.2566 42.7458C88.9438 42.7458 88.6831 42.777 88.4749 42.8394C88.3289 42.8812 88.1311 42.9747 87.8812 43.1198C87.6312 43.2655 87.4641 43.4005 87.3811 43.5251C87.3392 43.546 87.1827 43.6604 86.9121 43.868C86.2452 44.325 85.7035 44.9693 85.2869 45.8C85.245 45.9043 85.2137 45.9769 85.193 46.0181C85.1511 46.0181 85.1306 45.5508 85.1306 44.6157C85.1306 43.8475 85.1408 43.3278 85.1617 43.0575C84.9743 43.0995 84.8385 43.1198 84.7555 43.1198C84.6305 43.0995 84.5159 43.1097 84.4116 43.1511C84.2867 43.1929 84.2133 43.2759 84.1929 43.4005C84.1095 43.8368 84.0366 44.2317 83.9739 44.5848C83.807 45.5615 83.6718 47.0988 83.5676 49.1969C83.4841 50.6928 83.4429 52.0227 83.4429 53.1861C83.4429 53.6641 83.453 54.1105 83.4742 54.5259C83.557 57.6424 83.6928 59.7305 83.8804 60.7902C83.9842 61.4134 84.0571 62.0055 84.0992 62.5667C84.1615 63.1479 84.2759 63.5217 84.443 63.6882C84.672 63.8957 84.891 64 85.0996 64C85.3285 64 85.5369 63.9065 85.7244 63.7195C85.87 63.4906 85.9223 63.1169 85.8808 62.5976C85.8389 62.0989 85.7556 61.4963 85.6307 60.7902C85.4847 60.0835 85.3807 59.0761 85.318 57.7673C85.2558 56.3958 85.2034 55.6272 85.1617 55.4611C85.1198 55.2949 85.1098 55.2222 85.1306 55.243C85.1721 55.2638 85.3074 55.4194 85.5369 55.7103C85.9533 56.3755 86.6098 56.9257 87.5058 57.362C88.3813 57.8192 89.2771 58.0475 90.1943 58.0475C91.1733 58.0475 92.0276 57.8606 92.7573 57.4868C93.2572 57.2793 93.684 56.9567 94.0386 56.5207C94.4138 56.0841 94.674 55.6067 94.8199 55.0869C94.9196 54.7074 94.9795 54.2422 94.9999 53.6917V53.6917Z" fill="white"/>
<path d="M39.161 11.292C39.121 9.55602 39.8543 8.15117 40.1712 7.6279C40.4027 7.24625 40.6062 7.03188 40.8031 6.82428C40.9795 6.63874 41.1461 6.46311 41.3 6.20166C41.5153 5.83585 41.684 5.46569 41.8202 5.09646C41.8314 5.12028 41.8405 5.14002 41.8516 5.16439C42.3532 6.23558 43.0401 7.70252 42.8535 8.93358C42.6849 10.0453 42.3057 10.6606 41.8672 11.3732C41.4155 12.1068 40.9035 12.9382 40.5294 14.4514C40.1879 15.8346 39.7197 17.729 40.4646 19.7134C40.5797 20.0194 40.698 20.2621 40.8128 20.4969C41.0113 20.9032 41.1826 21.2538 41.2765 21.8306C41.4361 22.8136 41.2692 23.859 40.7824 24.9381C39.7536 23.662 39.202 22.3705 39.1464 21.0977C39.1125 20.3265 39.2648 19.8346 39.4577 19.2119C39.6507 18.5883 39.8693 17.8813 39.9717 16.7164C40.0598 15.7146 40.1931 14.2003 39.6582 12.5578C39.5051 12.0877 39.3308 11.7082 39.1441 11.3862C39.1538 11.3561 39.1617 11.3253 39.161 11.292ZM32.3906 0.530781C33.9341 1.52051 34.9824 2.73304 35.5065 4.13398C35.7865 4.88219 35.8019 5.38191 35.8183 5.91083C35.8365 6.48897 35.855 7.08675 36.1804 8.02244C36.6192 9.28632 37.181 9.89995 37.724 10.4932C38.2459 11.0635 38.7392 11.6022 39.1083 12.7358C39.6067 14.2669 39.4849 15.6536 39.396 16.6661C39.2985 17.7702 39.0897 18.4459 38.9049 19.042C38.7042 19.6912 38.5306 20.2519 38.5686 21.1231C38.6306 22.5337 39.2335 23.9513 40.3607 25.3366C40.4178 25.4069 40.5011 25.4433 40.5855 25.4433C40.6494 25.4433 40.7138 25.4223 40.7676 25.3789C40.7991 25.3534 40.8235 25.3224 40.841 25.2885C40.8635 25.3093 40.887 25.3293 40.9162 25.3425C40.955 25.3601 40.9956 25.3685 41.0356 25.3685C41.1456 25.3685 41.2508 25.3055 41.299 25.1991C41.8423 24.0069 42.0268 22.8426 41.8474 21.7384C41.7399 21.0778 41.542 20.6728 41.3329 20.2445C41.224 20.0219 41.1115 19.7916 41.0064 19.5114C40.3238 17.6939 40.7491 15.9724 41.0914 14.5881C41.4434 13.1635 41.9095 12.4066 42.3599 11.6747C42.812 10.9405 43.239 10.2473 43.4249 9.01958C43.6379 7.61641 42.9083 6.05829 42.3755 4.92056C42.2553 4.66365 42.1511 4.43992 42.0745 4.25224C42.4544 2.63183 42.23 1.11985 42.0075 0.219472C41.9694 0.0646971 41.8125 -0.0295559 41.6576 0.0085354C41.5027 0.046534 41.4078 0.202791 41.4459 0.357288C41.7358 1.53006 42.0373 3.81109 40.8016 5.90954C40.6809 6.11445 40.5428 6.25986 40.3832 6.42798C40.1754 6.64699 39.9398 6.89482 39.6765 7.32985C39.3052 7.94228 38.721 9.12274 38.6034 10.618C38.4535 10.4368 38.3017 10.2691 38.1512 10.1047C37.6243 9.52904 37.1268 8.98548 36.7265 7.83356C36.4302 6.9811 36.4132 6.42789 36.3965 5.89304C36.379 5.34076 36.3616 4.76967 36.0484 3.93249C35.4796 2.41209 34.3541 1.10456 32.7036 0.0457883C32.655 0.0148333 32.6008 5.48432e-07 32.5475 5.48432e-07C32.4522 -0.000184811 32.3593 0.0466209 32.3041 0.13235C32.2175 0.266272 32.2562 0.444682 32.3906 0.530781V0.530781Z" fill="white"/>
<path d="M36.5292 52.4737C36.3813 52.4737 36.2522 52.6213 36.1479 52.9075C36.0831 53.1002 35.9944 53.3145 35.8823 53.549C35.7702 53.7835 35.6343 54.0389 35.475 54.3144C35.2072 54.9199 34.8354 55.5391 34.329 56.0512C34.1599 56.2218 33.9762 56.3806 33.7755 56.5238C32.4003 57.4243 30.8134 57.7408 29.534 56.7689C29.3736 56.6736 29.2154 56.5674 29.0593 56.4497C28.9032 56.332 28.7493 56.203 28.5978 56.0629C28.0221 55.4885 27.5994 54.9041 27.3456 54.3334C27.0403 53.7259 26.9181 53.0126 26.9829 52.2128C27.0469 51.4321 27.2281 50.5594 27.5211 49.6219C27.7538 48.8201 28.0864 48.0611 28.5105 47.3642C28.7213 47.0273 28.8949 46.7789 29.0266 46.6255C29.1686 46.461 29.4411 46.2739 29.8638 46.0522C30.4699 45.7502 31.191 45.5971 32.0022 45.5971C32.0024 45.5971 32.1172 45.5947 32.1739 45.5947C32.918 45.5947 33.5716 45.7273 34.1346 45.9982C34.4788 46.213 34.8153 46.4837 35.1396 46.8069C35.4689 47.1576 35.6933 47.5278 35.8031 47.8982C35.9526 48.3211 36.076 48.4016 36.0894 48.4087C36.1696 48.4317 36.2736 48.4434 36.3997 48.4434C36.4498 48.4434 36.5024 48.4414 36.5583 48.438C36.6316 48.3646 36.6812 48.2735 36.7102 48.1579C36.7471 48.0289 36.7658 47.8671 36.7658 47.6774C36.7658 47.5432 36.6888 47.2495 36.321 46.614C36.0154 46.0856 35.7165 45.6431 35.4412 45.3089C34.8642 44.7142 34.1265 44.3116 33.2556 44.114C32.934 44.0538 32.5669 44.0235 32.1636 44.0235C31.7569 44.0235 31.3125 44.0545 30.8507 44.1144C30.0448 44.2551 29.3833 44.4876 28.8895 44.8027C28.1837 45.2847 27.5486 45.9597 27.0041 46.8042C26.4736 47.6785 26.0595 48.6589 25.7757 49.7094C25.6539 50.2768 25.592 51.061 25.592 52.0403V52.4142C25.592 53.1269 25.6433 53.7222 25.7426 54.1769C25.8847 54.7242 26.1122 55.3326 26.4169 55.9805C27.0376 57.2184 28.0752 58.0899 29.4996 58.5698C30.1237 58.7709 30.7571 58.8728 31.3821 58.8728C31.733 58.8728 32.0852 58.8412 32.424 58.7711C32.7355 58.6718 33.0287 58.5774 33.3015 58.4783C34.3048 58.0573 34.9396 57.4243 35.5135 56.766C35.7289 56.4655 35.9119 56.1444 36.0807 55.8206C36.1313 55.7077 36.179 55.5942 36.2247 55.4801C36.3935 55.0582 36.5429 54.6282 36.7187 54.2087C36.85 53.8951 37.2303 53.4306 37.2366 53.0946C37.2211 52.9877 37.1765 52.8983 37.1002 52.8219C36.8114 52.5343 36.6302 52.4737 36.5292 52.4737V52.4737Z" fill="white"/>
</svg>
