<svg width="24" height="24" viewBox="0 0 24 24" fill="none" xmlns="http://www.w3.org/2000/svg">
<circle cx="12" cy="12" r="11" stroke="#00164C" stroke-width="2"/>
<path d="M7 9.03906C7 8.15365 7.44792 7.42708 8.34375 6.85938C9.24479 6.28646 10.2266 6 11.2891 6H12.1875C15.1875 6 16.6875 7.16406 16.6875 9.49219C16.6875 10.013 16.5599 10.4661 16.3047 10.8516C16.0547 11.2318 15.7474 11.5234 15.3828 11.7266C15.0234 11.9297 14.6615 12.112 14.2969 12.2734C13.9375 12.4349 13.6302 12.612 13.375 12.8047C13.125 12.9922 13 13.1823 13 13.375C13 13.75 12.8411 13.9375 12.5234 13.9375H10.7656C10.625 13.9375 10.5078 13.8932 10.4141 13.8047C10.3255 13.7109 10.2812 13.5964 10.2812 13.4609C10.2812 13.013 10.3672 12.6172 10.5391 12.2734C10.7109 11.9297 10.9245 11.6615 11.1797 11.4688C11.4349 11.2708 11.7109 11.0859 12.0078 10.9141C12.3099 10.7422 12.5885 10.599 12.8438 10.4844C13.4427 10.2083 13.7422 9.86198 13.7422 9.44531C13.7422 9.02865 13.599 8.71875 13.3125 8.51562C13.0312 8.3125 12.5807 8.21094 11.9609 8.21094H11.5625C10.6979 8.21094 10.1068 8.53125 9.78906 9.17188C9.55469 9.66146 9.20312 9.90625 8.73438 9.90625H7.80469C7.54948 9.90625 7.35156 9.8151 7.21094 9.63281C7.07031 9.45052 7 9.2526 7 9.03906ZM10.125 16.2891V15.7969C10.125 15.4531 10.2188 15.1901 10.4062 15.0078C10.5938 14.8255 10.8516 14.7344 11.1797 14.7344H12.1406C12.4688 14.7344 12.7266 14.8255 12.9141 15.0078C13.1016 15.1901 13.1953 15.4531 13.1953 15.7969V16.2891C13.1953 16.6224 13.1016 16.8828 12.9141 17.0703C12.7266 17.2526 12.4688 17.3438 12.1406 17.3438H11.1797C10.8516 17.3438 10.5938 17.2526 10.4062 17.0703C10.2188 16.8828 10.125 16.6224 10.125 16.2891Z" fill="#00164C"/>
</svg>
