<svg width="100" height="100" viewBox="0 0 100 100" fill="none" xmlns="http://www.w3.org/2000/svg">
<path d="M84.0567 50.0471L91.5853 51.0979C91.7246 51.1173 91.8319 51.177 91.9074 51.2769C91.9873 51.3827 92.0179 51.5027 91.9992 51.6368L90.9106 59.4362C90.8911 59.5755 90.8289 59.6825 90.7238 59.7572C90.6238 59.8327 90.5042 59.8607 90.365 59.8412L82.8364 58.7904C82.6971 58.771 82.5897 58.7113 82.5143 58.6114C82.4388 58.5115 82.4108 58.3919 82.4303 58.2526L82.6711 56.5271C82.6905 56.3878 82.7506 56.2779 82.8512 56.1973C82.9563 56.1226 83.0759 56.0946 83.21 56.1133L89.3459 56.9697L89.8189 53.5806L83.6831 52.7242C83.5438 52.7048 83.4368 52.6425 83.3621 52.5375C83.2866 52.4375 83.2582 52.3205 83.277 52.1864L83.5189 50.4532C83.5383 50.3139 83.598 50.2065 83.6979 50.1311C83.7978 50.0556 83.9174 50.0276 84.0567 50.0471Z" fill="#00164C"/>
<path d="M82.7905 60.4542C83.8077 60.0207 84.9813 60.103 86.3114 60.701C87.6462 61.3012 88.4867 62.1245 88.8328 63.1709C89.1837 64.2195 89.0473 65.4373 88.4237 66.8244C87.7979 68.2163 86.9764 69.1289 85.9592 69.5624C84.9467 69.9981 83.7731 69.9158 82.4382 69.3157C81.1082 68.7177 80.2677 67.8944 79.9168 66.8458C79.566 65.7972 79.7034 64.577 80.3292 63.1851C80.9528 61.798 81.7732 60.8877 82.7905 60.4542ZM86.8538 64.4483C86.6014 63.9807 86.0524 63.5569 85.2069 63.1767C84.3613 62.7966 83.6776 62.6662 83.1556 62.7856C82.6337 62.905 82.2307 63.2806 81.9467 63.9123C81.6605 64.5489 81.6459 65.102 81.903 65.5716C82.158 66.046 82.7083 66.4733 83.5538 66.8535C84.3994 67.2336 85.0818 67.3606 85.6011 67.2343C86.1183 67.1128 86.52 66.7337 86.8062 66.0972C87.0903 65.4654 87.1061 64.9158 86.8538 64.4483Z" fill="#00164C"/>
<path d="M79.2233 67.7186L79.9245 68.3291C80.0306 68.4214 80.0879 68.5301 80.0966 68.655C80.1057 68.7872 80.0641 68.9064 79.9718 69.0125L79.5717 69.4721L82.1155 73.1059C83.0458 74.4407 82.7825 75.9448 81.3256 77.6182L78.9967 80.2933C78.9043 80.3993 78.7937 80.455 78.6649 80.4602C78.5365 80.4728 78.4193 80.4329 78.3133 80.3405L72.5801 75.3491C72.478 75.2602 72.4223 75.1496 72.4132 75.0173C72.4045 74.8924 72.4464 74.7769 72.5387 74.6709L78.5459 67.771C78.6382 67.665 78.7485 67.6056 78.8769 67.5931C79.0057 67.5879 79.1212 67.6297 79.2233 67.7186ZM77.8942 71.3988L75.4215 74.2389L79.0276 77.3784L79.9561 76.3119C80.452 75.7423 80.4779 75.1296 80.0339 74.4736L77.8942 71.3988Z" fill="#00164C"/>
<path d="M67.7146 77.9077C68.9393 77.1158 70.0963 76.8142 71.1859 77.0028C72.2754 77.1915 73.2147 77.8959 74.0037 79.1161C74.7956 80.3408 75.0562 81.4871 74.7855 82.5553C74.5177 83.6278 73.7802 84.5544 72.5731 85.3349C71.3616 86.1183 70.3078 86.5268 69.4116 86.5605C68.511 86.597 67.8176 86.2391 67.3311 85.4869C67.2548 85.3688 67.2319 85.2471 67.2626 85.1219C67.2888 84.9994 67.361 84.9 67.4791 84.8237L68.4566 84.1916C68.754 83.9993 69.1087 83.9963 69.5207 84.1827C70.0446 84.4269 70.6346 84.337 71.2906 83.9127C71.9423 83.4914 72.2905 83.0274 72.3351 82.521C72.3782 82.0217 72.1551 81.3938 71.6659 80.6371C71.1766 79.8805 70.6897 79.4201 70.2052 79.2558C69.7162 79.0944 69.1394 79.2286 68.4746 79.6585C67.8054 80.0912 67.4747 80.5965 67.4825 81.1745C67.4863 81.631 67.3394 81.9555 67.042 82.1478L66.0645 82.7799C65.9464 82.8562 65.8247 82.8791 65.6995 82.8484C65.5727 82.825 65.4725 82.7564 65.399 82.6427C64.9125 81.8904 64.8707 81.1112 65.2735 80.3049C65.672 79.5015 66.4857 78.7024 67.7146 77.9077Z" fill="#00164C"/>
<path d="M55.8833 83.4214C55.8117 83.2037 55.9046 83.0526 56.1619 82.968L57.5646 82.5069C58.0396 82.3508 58.4946 82.4589 58.9295 82.8313L60.3771 84.0578C60.9991 84.5825 61.6961 84.718 62.4679 84.4642L61.5579 81.6959C61.514 81.5623 61.5228 81.4388 61.5842 81.3254C61.6406 81.2137 61.7332 81.1366 61.8618 81.0943L63.5243 80.5479C63.6579 80.5039 63.7806 80.5102 63.8924 80.5667C64.0041 80.6232 64.082 80.7182 64.1259 80.8518L66.4997 88.0732C66.5436 88.2068 66.5373 88.3295 66.4808 88.4412C66.4211 88.5596 66.3268 88.6399 66.1982 88.6822L64.5357 89.2286C64.4021 89.2726 64.2786 89.2638 64.1652 89.2024C64.0535 89.1459 63.9756 89.0509 63.9317 88.9173L63.0242 86.1564C62.1632 86.4394 61.6842 86.9669 61.5871 87.739L61.3723 89.4872C61.3433 89.7325 61.2535 89.9512 61.1028 90.1433C60.9521 90.3354 60.7654 90.468 60.5428 90.5412L59.1401 91.0023C58.8927 91.0836 58.7372 91.0278 58.6738 90.8348C58.638 90.726 58.6321 90.5744 58.6559 90.3802L58.9498 88.0467C59.0025 87.6566 59.13 87.2939 59.3323 86.9588C59.5346 86.6236 59.7877 86.3677 60.0915 86.1911C59.4227 86.2081 58.7494 85.936 58.0715 85.3749L56.1389 83.7486C56.0076 83.6328 55.9224 83.5237 55.8833 83.4214Z" fill="#00164C"/>
<path d="M55.3102 83.6347C56.0191 84.0815 56.3939 84.742 56.4344 85.616C56.4749 86.4901 56.1626 87.1772 55.4975 87.6772C54.8273 88.1775 53.9484 88.4529 52.8611 88.5033L50.2779 88.623C50.3061 89.2317 50.4532 89.6498 50.7193 89.8773C50.9853 90.1049 51.4383 90.2038 52.0782 90.1741C52.7129 90.1447 53.153 89.9653 53.3984 89.6359C53.6389 89.3119 53.9464 89.1412 54.321 89.1239L55.4839 89.07C55.6243 89.0635 55.7434 89.1023 55.8412 89.1864C55.934 89.2759 55.9835 89.3883 55.9898 89.5236C56.059 91.0168 54.6758 91.8291 51.8403 91.9605C50.6021 92.0179 49.5954 91.7856 48.8205 91.2636C48.0457 90.7468 47.6314 89.9083 47.5777 88.7481L47.3538 83.9174C47.3473 83.7769 47.3862 83.6604 47.4706 83.5678C47.5549 83.4753 47.6673 83.4258 47.8078 83.4193L49.314 83.3495C49.4545 83.3429 49.571 83.3819 49.6635 83.4662C49.7563 83.5558 49.8058 83.6682 49.8121 83.8034L49.8233 84.0454C50.6181 83.4194 51.5541 83.084 52.6313 83.0393C53.7031 82.9896 54.596 83.1881 55.3102 83.6347ZM52.5917 86.7404C52.9559 86.7235 53.2405 86.6217 53.4456 86.4349C53.6455 86.2484 53.739 86.0147 53.726 85.7337C53.713 85.4528 53.593 85.2263 53.366 85.0543C53.1391 84.8824 52.8253 84.8057 52.4247 84.8242C51.6234 84.8614 50.8617 85.1313 50.1394 85.634L50.1958 86.8515L52.5917 86.7404Z" fill="#00164C"/>
<path d="M46.2759 85.6233C46.2443 85.7603 46.1754 85.862 46.0693 85.9284C45.958 85.9936 45.8364 86.011 45.7045 85.9806L44.5625 85.7173C44.2174 85.6377 43.9882 85.4031 43.875 85.0135C43.7554 84.6279 43.4191 84.3713 42.8659 84.2437L41.3205 83.8873C40.5846 83.7177 40.147 83.9348 40.0078 84.5387C39.8685 85.1427 40.1674 85.5269 40.9045 85.6916L42.7924 86.1269C42.9295 86.1585 43.0337 86.228 43.1052 86.3353C43.1704 86.4466 43.1872 86.5707 43.1556 86.7077L42.973 87.4995C42.9414 87.6365 42.8725 87.7382 42.7664 87.8046C42.654 87.8749 42.5292 87.8942 42.3922 87.8626L40.6489 87.4606C40.3139 87.3834 40.0457 87.399 39.8443 87.5076C39.6367 87.6201 39.5041 87.8006 39.4468 88.0493C39.3895 88.298 39.4295 88.5184 39.567 88.7104C39.6993 88.9013 39.933 89.0353 40.268 89.1126L41.6687 89.4356C41.8463 89.4765 42.0396 89.473 42.2484 89.4249C42.4561 89.382 42.6249 89.2873 42.7549 89.1408C43.0324 88.8414 43.3431 88.734 43.6871 88.8186L44.8214 89.0802C44.9584 89.1118 45.0626 89.1813 45.1341 89.2886C45.2005 89.3948 45.2179 89.5164 45.1863 89.6534C45.0283 90.3385 44.5683 90.8151 43.8063 91.083C43.0393 91.3498 42.1837 91.3743 41.2398 91.1566L39.7096 90.8038C38.6388 90.5569 37.8368 90.1635 37.3039 89.6237C36.7647 89.0878 36.5875 88.4189 36.7724 87.617C36.9573 86.8152 37.4536 86.3203 38.2613 86.1324C37.4812 85.4821 37.2023 84.6749 37.4247 83.7106C37.6189 82.8681 38.06 82.3231 38.7478 82.0754C39.4293 81.8317 40.3588 81.8456 41.5363 82.1171L43.2339 82.5086C44.254 82.7438 45.0561 83.1479 45.6402 83.7209C46.2244 84.2939 46.4362 84.928 46.2759 85.6233Z" fill="#00164C"/>
<path d="M29.9575 77.6242C30.0637 77.4211 30.2368 77.3824 30.4768 77.5079L31.7852 78.1923C32.2282 78.424 32.4678 78.8256 32.504 79.397L32.6336 81.2899C32.691 82.1016 33.0797 82.6958 33.7996 83.0724L35.1503 80.4902C35.2154 80.3656 35.3101 80.2858 35.4342 80.2508C35.5537 80.2134 35.6734 80.226 35.7934 80.2888L37.3441 81.0999C37.4687 81.1651 37.5497 81.2574 37.5872 81.3769C37.6246 81.4964 37.6107 81.6184 37.5455 81.743L34.0223 88.4788C33.9572 88.6035 33.8648 88.6845 33.7453 88.7219C33.6188 88.7615 33.4955 88.7499 33.3756 88.6872L31.8249 87.8761C31.7003 87.8109 31.6204 87.7163 31.5854 87.5922C31.548 87.4727 31.5619 87.3506 31.6271 87.226L32.9741 84.6507C32.171 84.2307 31.4589 84.255 30.8376 84.7235L29.4344 85.7882C29.2383 85.9383 29.0189 86.0263 28.7761 86.0522C28.5333 86.078 28.3081 86.0366 28.1004 85.928L26.7921 85.2437C26.5613 85.123 26.493 84.9726 26.5871 84.7926C26.6402 84.6911 26.7448 84.5812 26.9007 84.4629L28.7786 83.047C29.095 82.8128 29.4439 82.6515 29.8253 82.5629C30.2066 82.4744 30.5665 82.4775 30.9049 82.5722C30.4266 82.1045 30.1523 81.4321 30.0821 80.5548L29.901 78.0355C29.8926 77.8607 29.9114 77.7235 29.9575 77.6242Z" fill="#00164C"/>
<path d="M29.3983 77.3697C29.5725 78.1894 29.3606 78.9186 28.7624 79.5572C28.1643 80.1958 27.4541 80.4512 26.6319 80.3233C25.8058 80.1919 24.9956 79.7541 24.2011 79.01L22.3138 77.2422C21.8972 77.6869 21.7002 78.084 21.7227 78.4333C21.7451 78.7826 21.9902 79.1762 22.4577 79.6142C22.9215 80.0486 23.357 80.2388 23.7642 80.185C24.1641 80.1314 24.5009 80.2327 24.7746 80.4891L25.6242 81.2848C25.7268 81.381 25.7821 81.4934 25.79 81.6221C25.7905 81.7511 25.7445 81.8649 25.6519 81.9638C24.6301 83.0548 23.0833 82.63 21.0116 80.6896C20.1069 79.8422 19.5713 78.9587 19.4049 78.0393C19.2349 77.1237 19.5469 76.242 20.3409 75.3943L23.6468 71.8648C23.7429 71.7622 23.8536 71.7088 23.9787 71.7047C24.1039 71.7006 24.2178 71.7466 24.3204 71.8428L25.4209 72.8735C25.5235 72.9697 25.5769 73.0803 25.581 73.2054C25.5815 73.3344 25.5355 73.4483 25.4429 73.5471L25.2774 73.7239C26.2803 73.8569 27.1734 74.2938 27.9567 75.0346C28.7398 75.7681 29.2203 76.5464 29.3983 77.3697ZM25.2766 77.5874C25.5427 77.8367 25.8142 77.9697 26.0911 77.9864C26.3642 77.9996 26.5969 77.9035 26.7892 77.6982C26.9814 77.493 27.0601 77.2491 27.025 76.9665C26.99 76.6839 26.8261 76.4055 26.5334 76.1314C25.948 75.583 25.2233 75.2254 24.3593 75.0583L23.5261 75.9478L25.2766 77.5874Z" fill="#00164C"/>
<path d="M15.5503 51.5282L7.97365 50.9131C7.83349 50.9018 7.72286 50.8484 7.64177 50.753C7.55592 50.6519 7.51847 50.5339 7.52942 50.399L8.16659 42.5498C8.17796 42.4096 8.23396 42.2992 8.33456 42.2185C8.42998 42.1374 8.54777 42.1026 8.68793 42.114L16.2646 42.729C16.4047 42.7404 16.5154 42.7938 16.5964 42.8892C16.6775 42.9846 16.7124 43.1024 16.701 43.2426L16.5601 44.979C16.5487 45.1192 16.4951 45.2324 16.3992 45.3187C16.2986 45.3994 16.1808 45.4342 16.0459 45.4233L9.87086 44.922L9.594 48.3327L15.769 48.8339C15.9092 48.8453 16.0196 48.9013 16.1002 49.0019C16.1813 49.0973 16.2164 49.2125 16.2054 49.3475L16.0639 51.0917C16.0525 51.2319 15.9991 51.3425 15.9037 51.4236C15.8082 51.5047 15.6905 51.5396 15.5503 51.5282Z" fill="#00164C"/>
<path d="M16.1772 41.1629C15.1877 41.6564 14.0113 41.6444 12.6478 41.127C11.2795 40.6077 10.3913 39.8361 9.98329 38.8122C9.57038 37.7865 9.63373 36.5627 10.1733 35.1408C10.7148 33.714 11.4803 32.7539 12.4698 32.2604C13.4544 31.765 14.6309 31.777 15.9992 32.2962C17.3626 32.8137 18.2508 33.5853 18.6637 34.611C19.0766 35.6368 19.0124 36.863 18.4709 38.2898C17.9313 39.7117 17.1667 40.6694 16.1772 41.1629ZM11.8825 37.4189C12.1623 37.8705 12.7357 38.2607 13.6024 38.5897C14.4692 38.9186 15.1595 39.0079 15.6734 38.8575C16.1872 38.7072 16.5671 38.3082 16.8129 37.6605C17.0605 37.008 17.0419 36.4551 16.7572 36.0016C16.4744 35.5433 15.8995 35.1497 15.0328 34.8207C14.166 34.4918 13.4772 34.4058 12.9663 34.5629C12.4573 34.7152 12.079 35.1175 11.8314 35.77C11.5856 36.4177 11.6026 36.9673 11.8825 37.4189Z" fill="#00164C"/>
<path d="M19.2607 33.7163L18.5252 33.1477C18.4139 33.0617 18.3504 32.9566 18.3345 32.8324C18.3176 32.7008 18.3522 32.5795 18.4382 32.4682L18.8109 31.9861L16.0598 28.5065C15.0533 27.2282 15.2286 25.7113 16.5856 23.9559L18.7549 21.1497C18.8409 21.0385 18.9481 20.9765 19.0764 20.9638C19.2038 20.9438 19.3231 20.9768 19.4343 21.0628L25.4484 25.7119C25.5556 25.7947 25.6176 25.9019 25.6344 26.0334C25.6503 26.1576 25.6152 26.2753 25.5292 26.3866L19.934 33.6245C19.848 33.7358 19.7413 33.8014 19.6139 33.8214C19.4856 33.8341 19.3679 33.7991 19.2607 33.7163ZM20.3734 29.9649L22.6764 26.9857L18.8937 24.0614L18.0288 25.1802C17.567 25.7777 17.5768 26.3909 18.0583 27.0199L20.3734 29.9649Z" fill="#00164C"/>
<path d="M30.0832 22.8845C28.907 23.7467 27.7695 24.1155 26.6708 23.9909C25.5721 23.8664 24.5932 23.2181 23.7341 22.0462C22.872 20.87 22.5447 19.7408 22.7524 18.6586C22.9571 17.5723 23.6391 16.6042 24.7985 15.7543C25.962 14.9014 26.9902 14.4319 27.8828 14.3458C28.7797 14.2567 29.4929 14.5734 30.0225 15.2959C30.1057 15.4093 30.1356 15.5294 30.1123 15.6563C30.0933 15.78 30.027 15.8835 29.9136 15.9666L28.9748 16.6548C28.6891 16.8642 28.3352 16.8879 27.913 16.726C27.3757 16.5128 26.792 16.6371 26.1619 17.099C25.536 17.5578 25.2156 18.0413 25.2007 18.5495C25.1868 19.0504 25.4463 19.6642 25.979 20.391C26.5117 21.1177 27.0247 21.5488 27.518 21.6845C28.0156 21.817 28.5836 21.6493 29.2221 21.1812C29.8648 20.7101 30.1653 20.1863 30.1237 19.6098C30.0933 19.1542 30.2209 18.8217 30.5065 18.6123L31.4454 17.9241C31.5588 17.841 31.6789 17.8111 31.8058 17.8343C31.9337 17.8503 32.0377 17.9129 32.1178 18.0221C32.6474 18.7447 32.7348 19.5201 32.3798 20.3486C32.0291 21.174 31.2635 22.0193 30.0832 22.8845Z" fill="#00164C"/>
<path d="M41.635 16.6203C41.7187 16.8336 41.6345 16.9898 41.3824 17.0887L40.0079 17.6281C39.5424 17.8108 39.0821 17.7284 38.6269 17.3811L37.1125 16.2382C36.4619 15.7494 35.7584 15.6534 35.0021 15.9502L36.0666 18.6628C36.118 18.7937 36.1162 18.9175 36.0613 19.0342C36.0112 19.149 35.9231 19.2311 35.7971 19.2805L34.168 19.9198C34.0371 19.9712 33.9143 19.9719 33.7995 19.9218C33.6848 19.8717 33.6017 19.7812 33.5503 19.6503L30.7734 12.5741C30.722 12.4432 30.7214 12.3204 30.7715 12.2056C30.8245 12.0841 30.914 11.9986 31.0401 11.9491L32.6691 11.3098C32.8 11.2585 32.9238 11.2602 33.0405 11.3152C33.1553 11.3652 33.2383 11.4557 33.2897 11.5866L34.3514 14.292C35.195 13.961 35.6435 13.4073 35.697 12.631L35.8129 10.8734C35.8281 10.6269 35.9055 10.4035 36.0451 10.2032C36.1847 10.003 36.3636 9.86002 36.5818 9.7744L37.9563 9.235C38.1987 9.13986 38.357 9.18684 38.4312 9.37593C38.4731 9.48259 38.4876 9.63357 38.4747 9.82885L38.3128 12.1752C38.2822 12.5676 38.1753 12.9369 37.9922 13.2829C37.8091 13.6289 37.5708 13.8987 37.2775 14.0921C37.9442 14.0375 38.6318 14.2712 39.3402 14.7933L41.3614 16.308C41.499 16.4163 41.5902 16.5204 41.635 16.6203Z" fill="#00164C"/>
<path d="M42.1195 16.3403C41.3859 15.9352 40.9737 15.2975 40.8828 14.4272C40.7919 13.557 41.0639 12.853 41.699 12.3154C42.3393 11.7772 43.2007 11.4515 44.2834 11.3384L46.8553 11.0697C46.792 10.4637 46.621 10.0547 46.3422 9.84296C46.0635 9.63119 45.6056 9.55859 44.9684 9.62515C44.3365 9.69118 43.9075 9.89571 43.6815 10.2388C43.4601 10.5761 43.163 10.7642 42.79 10.8032L41.6322 10.9241C41.4924 10.9388 41.3712 10.9069 41.2688 10.8286C41.171 10.7445 41.115 10.6352 41.101 10.5005C40.9456 9.0138 42.2796 8.12297 45.1027 7.82803C46.3356 7.69923 47.354 7.87301 48.1578 8.34935C48.9611 8.82052 49.4231 9.63368 49.5438 10.7889L50.0463 15.5986C50.0609 15.7385 50.0288 15.857 49.9499 15.9543C49.871 16.0516 49.7617 16.1075 49.6218 16.1221L48.1222 16.2788C47.9823 16.2934 47.8637 16.2613 47.7665 16.1824C47.6687 16.0984 47.6127 15.989 47.5987 15.8543L47.5735 15.6134C46.8162 16.2843 45.9011 16.6732 44.8283 16.78C43.7612 16.8915 42.8583 16.7449 42.1195 16.3403ZM44.6541 13.0828C44.2915 13.1207 44.0132 13.2388 43.8192 13.4371C43.6304 13.6348 43.5506 13.8736 43.5799 14.1533C43.6091 14.433 43.7419 14.6522 43.9785 14.8108C44.215 14.9693 44.5326 15.0278 44.9315 14.9861C45.7293 14.9028 46.4742 14.5893 47.1662 14.0457L47.0396 12.8336L44.6541 13.0828Z" fill="#00164C"/>
<path d="M51.2306 13.8189C51.2543 13.6803 51.3173 13.5748 51.4195 13.5025C51.5268 13.431 51.6472 13.4067 51.7807 13.4295L52.9358 13.627C53.2849 13.6867 53.5272 13.9078 53.6626 14.2902C53.804 14.6684 54.1545 14.9054 54.7141 15.001L56.2773 15.2683C57.0217 15.3956 57.4461 15.1538 57.5506 14.5429C57.6551 13.9319 57.3347 13.5654 56.5894 13.4432L54.6796 13.1167C54.541 13.093 54.4329 13.0296 54.3554 12.9265C54.284 12.8192 54.2601 12.6962 54.2838 12.5576L54.4207 11.7567C54.4444 11.6181 54.5074 11.5127 54.6096 11.4403C54.7178 11.3637 54.8412 11.3372 54.9798 11.3609L56.7433 11.6625C57.0821 11.7204 57.3489 11.6894 57.5438 11.5695C57.7447 11.4453 57.8666 11.2575 57.9097 11.0059C57.9527 10.7543 57.9001 10.5366 57.7519 10.3528C57.6088 10.1698 57.3678 10.0493 57.029 9.9914L55.612 9.74913C55.4324 9.7184 55.2396 9.73301 55.0339 9.79294C54.829 9.84773 54.6659 9.95194 54.5445 10.1056C54.2846 10.4204 53.9805 10.5454 53.6323 10.4806L52.4849 10.2844C52.3463 10.2607 52.2382 10.1973 52.1608 10.0943C52.0884 9.99207 52.0641 9.87167 52.0878 9.73305C52.2063 9.03998 52.6382 8.53789 53.3836 8.22678C54.1341 7.91654 54.9868 7.84305 55.9417 8.00632L57.4896 8.27098C58.5728 8.45619 59.3959 8.803 59.9589 9.31141C60.5279 9.81556 60.7431 10.4732 60.6044 11.2844C60.4657 12.0955 59.9986 12.618 59.203 12.8518C60.019 13.4564 60.3437 14.2463 60.1769 15.2218C60.0312 16.074 59.6221 16.6434 58.9496 16.93C58.2831 17.2123 57.3543 17.2516 56.1632 17.048L54.446 16.7544C53.4141 16.5779 52.5901 16.2204 51.9742 15.6818C51.3582 15.1432 51.1104 14.5223 51.2306 13.8189Z" fill="#00164C"/>
<path d="M67.8992 20.8377C67.8044 21.0464 67.6338 21.0947 67.3872 20.9827L66.0427 20.3722C65.5875 20.1655 65.3259 19.7779 65.258 19.2094L65.0232 17.3267C64.9207 16.5193 64.4996 15.9477 63.7598 15.6118L62.555 18.2651C62.4968 18.3932 62.4068 18.4781 62.2848 18.52C62.1676 18.564 62.0473 18.558 61.924 18.502L60.3306 17.7784C60.2026 17.7203 60.1165 17.6326 60.0725 17.5154C60.0285 17.3982 60.0356 17.2755 60.0937 17.1475L63.2366 10.2261C63.2948 10.098 63.3825 10.012 63.4997 9.968C63.6238 9.9214 63.7475 9.9261 63.8708 9.98209L65.4642 10.7056C65.5923 10.7638 65.6772 10.8538 65.7191 10.9758C65.7631 11.093 65.756 11.2157 65.6979 11.3437L64.4963 13.9899C65.3214 14.3646 66.0311 14.3008 66.6254 13.7984L67.9672 12.6573C68.1546 12.4965 68.3688 12.3964 68.6098 12.3571C68.8507 12.3177 69.0779 12.3465 69.2913 12.4434L70.6357 13.0539C70.8728 13.1616 70.9494 13.3079 70.8654 13.4929C70.8181 13.5972 70.7198 13.7128 70.5707 13.8395L68.7745 15.3577C68.4716 15.6091 68.1322 15.7897 67.7564 15.8993C67.3805 16.0089 67.021 16.0259 66.6779 15.9501C67.1815 16.3905 67.4928 17.0466 67.6116 17.9186L67.9326 20.4239C67.9508 20.598 67.9397 20.736 67.8992 20.8377Z" fill="#00164C"/>
<path d="M68.4501 21.0083C68.2285 20.2001 68.3977 19.4599 68.9577 18.7875C69.5178 18.1152 70.2119 17.819 71.0401 17.8988C71.8724 17.982 72.7067 18.3719 73.5431 19.0686L75.5301 20.7236C75.9201 20.2554 76.0937 19.8476 76.051 19.5002C76.0082 19.1527 75.7407 18.774 75.2485 18.364C74.7602 17.9573 74.3144 17.7927 73.911 17.8702C73.5149 17.9469 73.1728 17.8653 72.8846 17.6253L71.9902 16.8803C71.8821 16.7903 71.8204 16.6813 71.8051 16.5533C71.797 16.4246 71.8364 16.3082 71.923 16.2041C72.8797 15.0556 74.4486 15.3897 76.6296 17.2064C77.5821 17.9997 78.1681 18.8505 78.3877 19.7587C78.6106 20.6629 78.3504 21.5612 77.6071 22.4537L74.512 26.1694C74.422 26.2775 74.3147 26.3372 74.19 26.3485C74.0653 26.3599 73.9489 26.3206 73.8408 26.2306L72.6823 25.2656C72.5742 25.1756 72.5145 25.0682 72.5032 24.9435C72.4951 24.8148 72.5344 24.6984 72.6211 24.5944L72.7761 24.4083C71.7671 24.3338 70.8501 23.9496 70.0251 23.2556C69.2007 22.5689 68.6757 21.8198 68.4501 21.0083ZM72.5522 20.5512C72.272 20.3179 71.9933 20.2009 71.7159 20.2003C71.4424 20.2031 71.2157 20.3125 71.0357 20.5286C70.8557 20.7447 70.7914 20.9928 70.8428 21.2728C70.8943 21.5529 71.074 21.8213 71.3822 22.0779C71.9985 22.5913 72.7428 22.9062 73.615 23.0227L74.3951 22.0863L72.5522 20.5512Z" fill="#00164C"/>
</svg>
