<svg width="136" height="129" viewBox="0 0 136 129" fill="none" xmlns="http://www.w3.org/2000/svg">
<path d="M0 0H106C122.569 0 136 13.4315 136 30V111V128L0 0Z" fill="#00257D"/>
<path d="M82.2728 16.7377L80.7132 26.5754L70.309 28.5392L72.2944 30.4564L80.3987 28.9741L79.2173 37.1418L81.2545 39.1091L82.9034 28.5569L92.5967 26.7074L90.5768 24.7568L83.1495 26.1255L84.2582 18.6549L82.2728 16.7377ZM83.0246 40.8184L84.6129 42.3522L100.764 39.9657L91.7775 49.271L93.4694 50.9049L105.14 38.82L103.551 37.2862L87.4013 39.7067L96.404 30.3841L94.6949 28.7335L83.0246 40.8184ZM117.212 50.4776L107.25 40.858L105.8 42.36L109.926 46.3445L99.706 56.9274L101.398 58.5613L111.618 47.9783L115.761 51.9796L117.212 50.4776Z" fill="white"/>
<g clip-path="url(#clip0_631_1812)">
<path d="M87.8208 117.988L117.63 93.7787C118.305 93.2306 118.054 92.1459 117.207 91.9499L104.594 89.0306L113.167 75.0717C113.456 74.6011 112.912 74.0624 112.445 74.3557L85.8379 91.0339C85.0629 91.5196 85.2421 92.6963 86.1265 92.9294L99.8785 96.5534L87.0472 117.308C86.7377 117.808 87.3639 118.359 87.8208 117.988Z" fill="#FFAA00"/>
<path d="M92.0115 91.4784C91.6703 91.3792 91.5876 90.9338 91.8705 90.7189L113.172 74.5374C113.034 74.3065 112.727 74.1787 112.445 74.3556L85.838 91.0338C85.063 91.5196 85.2422 92.6961 86.1266 92.9292L99.8786 96.5533L87.0473 117.308C86.8743 117.587 86.9975 117.877 87.2164 118.019L103.562 97.3293C104.328 96.3596 103.868 94.9225 102.681 94.5778L92.0115 91.4784Z" fill="#FFC850"/>
</g>
<defs>
<clipPath id="clip0_631_1812">
<rect width="50" height="50" fill="white" transform="translate(85.7329 64) rotate(20.7723)"/>
</clipPath>
</defs>
</svg>
