<svg width="300" height="301" viewBox="0 0 300 301" fill="none" xmlns="http://www.w3.org/2000/svg">
<g clip-path="url(#clip0_1349_7169)">
<path d="M107.498 255.663L99.8905 261.593L112.01 268.444L158.899 256.783L158.599 252.975L149.041 247.745L107.498 255.663Z" fill="#FF6E85"/>
<path d="M112.036 268.763C111.967 268.769 111.897 268.753 111.838 268.716L102.961 263.133L103.3 262.589L112.061 268.099L158.553 256.537L158.288 253.172L148.882 248.024L149.19 247.463L158.749 252.693C158.796 252.719 158.835 252.756 158.864 252.8C158.893 252.845 158.91 252.896 158.915 252.949L159.214 256.757C159.22 256.832 159.199 256.908 159.155 256.969C159.11 257.031 159.046 257.075 158.972 257.093L112.083 268.754C112.068 268.758 112.052 268.761 112.036 268.763Z" fill="#00257D"/>
<path d="M92.7134 273.417L87.8716 274.955L88.1718 278.763L100.291 285.613L147.18 273.953L146.88 270.145L137.321 264.914L92.7134 273.417Z" fill="#FF6E85"/>
<path d="M161.777 44.3933C132.619 81.0175 75.8401 67.2336 92.129 24.7541C89.1083 25.4785 86.1415 26.411 83.2498 27.5449C81.2889 39.5032 80.2366 65.5508 107.054 69.7457C80.0106 70.0866 76.7532 42.8513 76.6609 30.531C61.781 38.2801 49.9506 51.5671 46.7875 68.376C46.3428 71.0629 45.6409 73.701 44.6913 76.2542C55.4111 93.7827 83.3242 91.2903 83.3242 91.2903C83.3242 91.2903 57.4349 98.5734 41.2078 83.3144C40.1321 85.0204 38.9113 86.6308 37.5591 88.1278C55.1693 101.523 72.4921 95.6946 72.4921 95.6946C72.4921 95.6946 51.8342 102.849 34.0409 91.4945C25.5494 98.4828 13.9167 100.766 1.83568 95.9427C21.6338 123.981 62.7854 129.52 98.4003 106.19C118.914 95.8636 128.039 106.505 151.629 94.6998C166.493 87.2626 181.303 68.3381 161.777 44.3933Z" fill="#00257D"/>
<path d="M58.5728 120.794C35.7735 122.784 14.4108 114.313 1.57039 96.1279C1.53006 96.0715 1.50913 96.0036 1.51074 95.9343C1.51235 95.8651 1.53642 95.7982 1.57934 95.7438C1.62225 95.6893 1.6817 95.6502 1.74875 95.6323C1.8158 95.6145 1.88684 95.6188 1.9512 95.6447C13.3078 100.178 24.929 98.5749 33.8338 91.2465C33.886 91.2034 33.9506 91.1779 34.0183 91.1737C34.0859 91.1696 34.1531 91.1869 34.2103 91.2233C44.2324 97.6169 55.2634 98.0662 62.877 97.2763C62.4661 97.2749 62.0457 97.2672 61.6157 97.2533C52.7993 96.9026 44.316 93.7987 37.3614 88.3791C37.3263 88.352 37.2973 88.318 37.2761 88.2792C37.2548 88.2404 37.2419 88.1976 37.238 88.1536C37.2342 88.1096 37.2395 88.0652 37.2537 88.0233C37.2679 87.9814 37.2906 87.9429 37.3204 87.9102C38.6599 86.4264 39.8696 84.8308 40.9363 83.1408C40.9613 83.1006 40.9949 83.0664 41.0348 83.0407C41.0746 83.015 41.1197 82.9984 41.1667 82.9922C41.2137 82.9851 41.2617 82.9891 41.3069 83.0037C41.3521 83.0184 41.3933 83.0434 41.4271 83.0768C53.8591 94.7673 72.2353 93.056 79.7956 91.7141C71.8754 91.6984 52.8214 90.1592 44.4169 76.4157C44.392 76.3741 44.3768 76.3274 44.3726 76.2792C44.3684 76.2309 44.3752 76.1822 44.3925 76.137C45.3342 73.603 46.031 70.9849 46.4733 68.3186C49.4426 52.5198 60.3917 38.6444 76.5099 30.2474C76.5585 30.2221 76.6128 30.2097 76.6676 30.2113C76.7224 30.2129 76.7758 30.2286 76.8228 30.2567C76.8698 30.2848 76.9088 30.3245 76.9361 30.372C76.9634 30.4194 76.978 30.4731 76.9786 30.5278C77.0412 38.6213 78.4852 53.5193 87.4877 62.3275C91.5938 66.3451 96.8618 68.673 103.182 69.2718C96.5942 67.5541 91.4745 64.2196 87.9271 59.3286C80.6773 49.3287 81.6845 35.0895 82.9302 27.4919C82.9391 27.437 82.9622 27.3854 82.9971 27.3421C83.032 27.2988 83.0777 27.2654 83.1295 27.245C86.0346 26.1074 89.0148 25.1712 92.0489 24.443C92.1058 24.4293 92.1653 24.4313 92.2211 24.449C92.2769 24.4666 92.3267 24.4991 92.3653 24.543C92.4039 24.5869 92.4297 24.6405 92.44 24.698C92.4502 24.7555 92.4445 24.8148 92.4235 24.8693C86.4453 40.4641 90.1072 53.8946 102.222 60.7952C117.805 69.6725 144.249 65.8903 161.522 44.1945C161.552 44.1571 161.59 44.1268 161.633 44.1059C161.676 44.085 161.723 44.074 161.771 44.0737C161.819 44.0734 161.867 44.0838 161.91 44.1042C161.953 44.1245 161.991 44.1543 162.022 44.1914C169.86 53.8044 172.838 63.31 170.873 72.4437C168.913 81.5545 161.772 89.9816 151.77 94.9864C139.516 101.119 131.161 101.226 123.082 101.33C115.527 101.427 108.39 101.52 98.5423 106.476C85.669 114.91 71.8756 119.633 58.5728 120.794ZM2.71866 96.6261C23.069 124.353 63.9045 128.402 98.2217 105.923C108.234 100.881 115.443 100.788 123.074 100.69C131.08 100.587 139.359 100.481 151.483 94.4137C161.312 89.4953 168.327 81.2322 170.246 72.3095C172.148 63.4719 169.298 54.2539 161.774 44.9046C144.283 66.5931 117.649 70.3198 101.904 61.3514C89.6409 54.3646 85.8136 40.883 91.6098 25.2096C88.8663 25.8956 86.1688 26.7536 83.5334 27.7786C82.3176 35.3209 81.389 49.2216 88.4438 58.9569C92.5428 64.6123 98.8198 68.1363 107.098 69.4314C107.177 69.4438 107.249 69.4856 107.299 69.5484C107.349 69.6112 107.374 69.6904 107.368 69.7705C107.362 69.8505 107.326 69.9255 107.268 69.9806C107.21 70.0357 107.132 70.0668 107.052 70.0679C98.8133 70.1719 92.0784 67.7227 87.038 62.7878C78.0629 54.0068 76.4637 39.3588 76.3425 31.0584C60.654 39.3845 50.0079 52.9847 47.099 68.4356C46.6588 71.0885 45.9704 73.6943 45.0429 76.219C55.5783 93.2064 82.9352 91.0029 83.2911 90.9719C83.3705 90.9652 83.4496 90.9882 83.5129 91.0366C83.5762 91.0849 83.6192 91.1551 83.6335 91.2333C83.6478 91.3116 83.6324 91.3924 83.5903 91.46C83.5482 91.5276 83.4824 91.5771 83.4057 91.5989C83.1462 91.6716 57.4552 98.6745 41.2646 83.8115C40.2931 85.3134 39.2096 86.7401 38.0234 88.0796C44.8128 93.2856 53.05 96.266 61.6048 96.6115C65.24 96.7867 68.88 96.3739 72.3836 95.3891C72.4639 95.3623 72.5516 95.3684 72.6275 95.4059C72.7034 95.4435 72.7614 95.5095 72.7887 95.5895C72.816 95.6696 72.8105 95.7572 72.7733 95.8332C72.7362 95.9092 72.6704 95.9674 72.5904 95.9952L72.5917 95.9951C72.2409 96.1151 51.6758 102.976 34.0621 91.8854C25.2578 99.0308 13.9037 100.735 2.71866 96.6261Z" fill="#00257D"/>
<path d="M155.298 158.653L170.779 131.258L192.676 136.413C192.676 136.413 186.806 161.226 193.981 177.139L186.424 175.297L180.222 164.777L175.361 177.692L151.241 165.861L155.298 158.653Z" fill="#FFAA00"/>
<path d="M194.012 177.457C193.977 177.46 193.942 177.457 193.908 177.449L186.351 175.608C186.309 175.597 186.27 175.579 186.235 175.553C186.201 175.528 186.172 175.496 186.15 175.459L180.289 165.516L175.662 177.804C175.646 177.846 175.622 177.884 175.591 177.916C175.559 177.948 175.522 177.973 175.48 177.989C175.438 178.006 175.394 178.014 175.349 178.012C175.304 178.01 175.26 177.999 175.22 177.979L151.103 166.148C151.063 166.129 151.029 166.102 151 166.069C150.972 166.036 150.951 165.998 150.938 165.956C150.925 165.914 150.921 165.871 150.925 165.827C150.93 165.784 150.943 165.742 150.965 165.704L155.021 158.496L170.503 131.1C170.537 131.04 170.59 130.992 170.654 130.964C170.718 130.937 170.788 130.93 170.856 130.946L192.753 136.101C192.835 136.121 192.907 136.172 192.952 136.245C192.996 136.317 193.01 136.404 192.991 136.486C192.933 136.734 187.229 161.378 194.275 177.008C194.296 177.054 194.305 177.105 194.302 177.156C194.3 177.207 194.285 177.257 194.259 177.301C194.233 177.345 194.197 177.383 194.153 177.41C194.11 177.437 194.061 177.454 194.009 177.458L194.012 177.457ZM186.635 175.016L193.431 176.672C187.111 161.803 191.663 139.546 192.296 136.65L170.943 131.622L155.579 158.809L151.689 165.722L175.185 177.248L179.924 164.663C179.945 164.607 179.982 164.557 180.03 164.521C180.078 164.484 180.136 164.462 180.196 164.457C180.256 164.452 180.317 164.464 180.37 164.491C180.424 164.519 180.469 164.561 180.499 164.613L186.635 175.016Z" fill="#00257D"/>
<path d="M183.393 77.7714C183.393 77.7714 172.231 78.4301 161.779 66.9126C156.449 67.6118 156.985 73.4708 156.985 73.4708C156.985 73.4708 169.723 83.4788 178.334 84.4363L183.873 77.7295" fill="#0084CC"/>
<path d="M183.393 77.7714C183.393 77.7714 172.231 78.4301 161.779 66.9126C156.449 67.6118 156.985 73.4708 156.985 73.4708C156.985 73.4708 169.723 83.4788 178.334 84.4363L183.873 77.7295" fill="#CC1D37"/>
<path d="M253.234 152.556L277.87 131.917L264.936 119.708L253.234 152.556Z" fill="#FFAA00"/>
<path d="M277.668 131.678L253.023 152.308L253.435 152.799L278.08 132.168L277.668 131.678Z" fill="#00257D"/>
<path d="M210.295 71.7453C191.389 69.1469 158.8 78.3022 175.6 117.65L175.999 110.738L175.586 100.931L186.379 89.9761C186.379 89.9761 197.867 90.9447 206.062 84.4567C206.277 86.9235 202.689 89.2254 202.689 89.2254C202.689 89.2254 211.787 88.8477 215.118 79.9413C216.326 72.7544 210.295 71.7453 210.295 71.7453Z" fill="#00257D"/>
<path d="M175.584 100.93C172.971 96.6872 168.258 98.2504 167.227 101.813C166.15 105.524 168.367 111.103 175.999 110.737L175.6 117.65L191.587 123.872L192.682 136.412L187.592 136.856L189.144 191.469L229.969 180.367L210.475 135.018L207.503 134.545L206.752 125.939L212.53 126.704L232.849 111.149L230.123 79.9165L214.403 74.6264C214.403 74.6264 197.531 82.3076 186.379 89.9755L175.584 100.93Z" fill="#FFD6B5"/>
<path d="M202.717 89.5438C202.646 89.5498 202.575 89.5324 202.516 89.4941C202.456 89.4558 202.411 89.3989 202.387 89.3322C202.363 89.2655 202.363 89.1929 202.384 89.1256C202.406 89.0583 202.45 89.0002 202.509 88.9603C205.215 87.1172 205.744 85.7488 205.808 85.0683C195.044 93.3997 177.385 89.2667 177.206 89.2233C177.133 89.2055 177.069 89.1629 177.024 89.1028C176.98 89.0428 176.958 88.9691 176.962 88.8945C176.966 88.8199 176.996 88.7491 177.047 88.6943C177.098 88.6396 177.167 88.6044 177.241 88.5948C177.346 88.5811 187.878 87.2074 190.695 83.1524L191.222 83.5171C188.954 86.7818 182.343 88.3538 179.118 88.9445C183.9 89.7541 197.333 91.2253 205.858 84.2104C205.895 84.1795 205.939 84.1575 205.987 84.1462C206.034 84.1348 206.083 84.1344 206.131 84.1449C206.178 84.1553 206.223 84.1764 206.261 84.2066C206.299 84.2368 206.33 84.2752 206.351 84.319C206.389 84.3974 207.162 86.1238 203.912 88.7247C206.348 88.3257 208.636 87.296 210.549 85.7383C212.463 84.1805 213.933 82.1492 214.815 79.847L215.427 80.0346C214.856 81.6321 213.987 83.1076 212.867 84.3833C210.289 87.3554 206.651 89.2064 202.728 89.5428L202.717 89.5438Z" fill="#00257D"/>
<path d="M189.197 153.567C189.112 153.575 189.028 153.548 188.963 153.494C188.897 153.439 188.857 153.361 188.849 153.276L187.272 136.883C187.264 136.799 187.291 136.715 187.346 136.649C187.4 136.584 187.479 136.544 187.563 136.536L192.334 136.12L191.284 124.099L175.483 117.948C175.442 117.932 175.406 117.908 175.375 117.878C175.344 117.847 175.319 117.811 175.303 117.771C174.32 115.416 173.461 113.011 172.73 110.566L173.345 110.384C174.056 112.764 174.89 115.105 175.844 117.399L191.705 123.572C191.761 123.594 191.809 123.631 191.845 123.678C191.881 123.726 191.902 123.783 191.908 123.842L193.002 136.382C193.01 136.466 192.983 136.55 192.928 136.615C192.874 136.68 192.795 136.721 192.711 136.729L187.943 137.145L189.457 152.881L213.092 149.395L210.206 135.293L207.454 134.856C207.383 134.845 207.318 134.81 207.27 134.758C207.221 134.706 207.191 134.639 207.185 134.568L206.403 125.608L207.042 125.553L207.802 134.265L210.526 134.698C210.591 134.708 210.65 134.738 210.697 134.783C210.744 134.827 210.777 134.886 210.79 134.949L213.788 149.6C213.797 149.642 213.797 149.687 213.788 149.729C213.779 149.772 213.762 149.812 213.737 149.848C213.712 149.884 213.68 149.914 213.643 149.937C213.605 149.96 213.564 149.975 213.521 149.981L189.218 153.565L189.197 153.567Z" fill="#00257D"/>
<path d="M171.353 98.2579L170.709 98.2652C170.622 90.1816 173.421 83.6786 179.028 78.9367C187.821 71.5004 202.138 69.9429 211.719 71.6435L211.608 72.2736C202.17 70.5989 188.081 72.1218 179.446 79.4247C173.991 84.0377 171.268 90.374 171.353 98.2579Z" fill="#00257D"/>
<path d="M210.299 71.7459C195.528 69.7159 172.407 74.8605 171.009 95.9696C175.545 97.0893 184.559 91.8263 184.559 91.8263L186.383 89.9753C186.383 89.9753 197.871 90.9439 206.066 84.4559C206.281 86.9227 202.693 89.2246 202.693 89.2246C202.693 89.2246 211.791 88.847 215.122 79.9406C216.33 72.755 210.299 71.7459 210.299 71.7459Z" fill="#00257D"/>
<path d="M212.563 127.023C212.54 127.025 212.516 127.024 212.493 127.021L197.974 125.099L198.058 124.464L212.442 126.369L232.516 111.001L230.627 89.3611L231.266 89.3053L233.17 111.122C233.175 111.175 233.166 111.229 233.144 111.278C233.123 111.328 233.089 111.371 233.046 111.403L212.726 126.959C212.679 126.995 212.622 127.017 212.563 127.023Z" fill="#00257D"/>
<path d="M175.917 117.668L175.277 117.632L175.656 111.069C171.503 111.175 169.299 109.529 168.176 108.109C167.48 107.218 167.003 106.175 166.785 105.066C166.566 103.957 166.611 102.812 166.916 101.723C167.169 100.791 167.687 99.9511 168.407 99.3064C169.128 98.6616 170.021 98.2394 170.977 98.0907C172.753 97.8496 174.441 98.6933 175.636 100.418L186.15 89.7479L186.607 90.1972L175.814 101.151C175.78 101.186 175.739 101.212 175.693 101.228C175.647 101.245 175.598 101.25 175.549 101.245C175.501 101.239 175.455 101.223 175.413 101.197C175.372 101.171 175.338 101.136 175.312 101.095C174.249 99.3671 172.697 98.5037 171.063 98.7247C170.233 98.8635 169.46 99.236 168.835 99.7984C168.21 100.361 167.758 101.09 167.534 101.899C167.256 102.891 167.215 103.933 167.415 104.943C167.614 105.952 168.048 106.901 168.682 107.713C169.744 109.055 171.872 110.614 175.983 110.418C176.028 110.416 176.073 110.423 176.115 110.439C176.157 110.455 176.195 110.48 176.227 110.512C176.258 110.544 176.283 110.582 176.299 110.624C176.315 110.666 176.322 110.711 176.319 110.756L175.917 117.668Z" fill="#00257D"/>
<path d="M202.732 99.714C202.732 99.714 196.846 92.1892 185.405 95.2756C188.913 103.12 202.732 99.714 202.732 99.714Z" fill="white"/>
<path d="M220.486 99.171C220.486 99.171 224.453 92.7622 230.314 94.2933C230.367 100.568 220.486 99.171 220.486 99.171Z" fill="white"/>
<path d="M186.369 90.2956C183.286 90.2287 180.217 89.8696 177.203 89.2232C177.13 89.2055 177.066 89.1629 177.022 89.1028C176.977 89.0428 176.955 88.9691 176.959 88.8944C176.964 88.8198 176.994 88.749 177.045 88.6943C177.096 88.6396 177.164 88.6043 177.238 88.5947C177.344 88.581 187.875 87.2073 190.693 83.1523L191.22 83.5171C188.948 86.7852 182.325 88.3571 179.105 88.9454C181.511 89.3554 183.944 89.5926 186.384 89.6553L186.369 90.2956Z" fill="white"/>
<path d="M198.692 100.658C197.59 100.757 196.483 100.791 195.377 100.758C190.151 100.585 186.603 98.735 185.115 95.4081C185.097 95.3658 185.087 95.3199 185.088 95.2736C185.088 95.2273 185.099 95.1817 185.119 95.1399C185.139 95.0981 185.167 95.0611 185.203 95.0314C185.239 95.0017 185.28 94.9802 185.325 94.9681C191.333 93.3471 195.812 94.664 198.51 96.0541C200.218 96.9006 201.741 98.0788 202.988 99.5198C203.021 99.5619 203.043 99.6115 203.051 99.6642C203.06 99.7168 203.056 99.7708 203.038 99.8213C203.021 99.8718 202.991 99.9171 202.951 99.9531C202.912 99.9891 202.864 100.015 202.812 100.027C201.455 100.332 200.078 100.543 198.692 100.658ZM185.865 95.4892C189.057 101.74 199.638 100.022 202.13 99.5188C200.732 98.0551 195.2 93.1381 185.865 95.4892Z" fill="#00257D"/>
<path d="M224.25 99.5644C222.983 99.6702 221.707 99.6445 220.445 99.4878C220.392 99.4804 220.342 99.46 220.299 99.4284C220.256 99.3969 220.222 99.3551 220.199 99.3069C220.177 99.2587 220.166 99.2056 220.169 99.1525C220.172 99.0993 220.189 99.0478 220.217 99.0025C220.258 98.9346 224.378 92.4101 230.401 93.983C230.469 94.0008 230.53 94.0406 230.573 94.096C230.616 94.1515 230.64 94.2196 230.641 94.2899C230.672 94.9576 230.553 95.624 230.292 96.2396C230.031 96.8552 229.635 97.4043 229.132 97.8463C227.841 98.9746 225.944 99.4166 224.25 99.5644ZM221.058 98.9091C222.508 99.0358 226.604 99.204 228.708 97.364C229.109 97.0111 229.431 96.5774 229.653 96.0913C229.875 95.6052 229.991 95.0778 229.993 94.5438C225.426 93.5213 222.047 97.5521 221.058 98.9091Z" fill="#00257D"/>
<path d="M214.733 109.96L216.624 109.172L218.336 112.772L213.725 115.738L208.822 111.417L213.264 108.488L214.733 109.96Z" fill="#CC1D37"/>
<path d="M199.401 96.9918C199.453 97.5852 199.353 98.1821 199.11 98.7265C198.868 99.2709 198.491 99.745 198.015 100.104C197.539 100.464 196.98 100.696 196.389 100.781C195.799 100.865 195.196 100.799 194.639 100.587C194.081 100.376 193.586 100.026 193.201 99.5715C192.815 99.1169 192.552 98.5719 192.435 97.9878C192.318 97.4037 192.352 96.7995 192.533 96.2318C192.714 95.6641 193.037 95.1516 193.47 94.7423C193.47 94.7423 197.156 95.3893 199.401 96.9918Z" fill="#00257D"/>
<path d="M228.208 93.7656C228.574 94.0513 228.862 94.4251 229.043 94.852C229.225 95.279 229.295 95.745 229.247 96.2065C229.199 96.668 229.035 97.1098 228.769 97.4904C228.503 97.8711 228.145 98.1783 227.728 98.383C227.311 98.5878 226.849 98.6836 226.385 98.6613C225.921 98.639 225.47 98.4993 225.075 98.2555C224.679 98.0117 224.353 97.6717 224.125 97.2673C223.897 96.8629 223.776 96.4074 223.773 95.9434C223.773 95.9434 226.101 94.1912 228.208 93.7656Z" fill="#00257D"/>
<path d="M209.362 101.703L209.102 102.289L212.955 103.997L213.216 103.412L209.362 101.703Z" fill="#00257D"/>
<path d="M218.213 102.433L216.008 103.782L216.343 104.328L218.548 102.979L218.213 102.433Z" fill="#00257D"/>
<path d="M220.197 112.93C209.208 113.889 203.555 109.165 203.312 108.958L203.73 108.471C203.789 108.522 209.789 113.513 221.156 112.188L221.23 112.825C220.881 112.865 220.537 112.901 220.197 112.93Z" fill="#00257D"/>
<path d="M213.757 116.057C213.713 116.06 213.67 116.055 213.629 116.042C213.587 116.028 213.549 116.007 213.517 115.978L208.613 111.658C208.576 111.625 208.547 111.585 208.529 111.539C208.51 111.494 208.502 111.445 208.505 111.396C208.509 111.347 208.524 111.299 208.548 111.257C208.573 111.214 208.608 111.178 208.649 111.151L213.093 108.22C213.154 108.18 213.228 108.161 213.302 108.169C213.375 108.177 213.444 108.209 213.496 108.261L214.814 109.581L216.507 108.877C216.583 108.845 216.668 108.844 216.744 108.873C216.821 108.902 216.884 108.959 216.92 109.033L218.631 112.633C218.664 112.703 218.671 112.783 218.65 112.858C218.628 112.933 218.58 112.997 218.515 113.039L213.902 116.005C213.859 116.034 213.809 116.051 213.757 116.057ZM209.352 111.455L213.759 115.337L217.929 112.655L216.47 109.585L214.86 110.255C214.802 110.279 214.737 110.286 214.675 110.273C214.613 110.261 214.555 110.23 214.511 110.185L213.226 108.899L209.352 111.455Z" fill="#00257D"/>
<path d="M203.824 95.4502L189.102 88.635L193.745 86.0578L204.198 94.2741L203.824 95.4502Z" fill="#00257D"/>
<path d="M218.563 93.02L219.059 94.1202L228.653 88.8098L224.615 87.8876L218.563 93.02Z" fill="#00257D"/>
<path d="M184.782 92.0504L184.324 91.6018L186.148 89.7508C186.181 89.7172 186.221 89.6913 186.265 89.675C186.309 89.6587 186.356 89.6524 186.403 89.6566C186.518 89.6658 197.863 90.5364 205.86 84.2051C205.905 84.1691 205.959 84.146 206.017 84.1383C206.074 84.1307 206.133 84.1387 206.186 84.1615C206.239 84.1844 206.285 84.2212 206.319 84.2681C206.353 84.315 206.374 84.3702 206.379 84.4278C206.533 86.2 204.951 87.8396 203.859 88.7506C206.394 88.2947 212.313 86.5279 214.818 79.8281C215.281 77.0238 214.661 74.8411 212.953 73.3923C212.171 72.7353 211.24 72.2785 210.242 72.0612L210.348 71.429C211.461 71.6633 212.498 72.169 213.367 72.901C214.669 74.0041 216.084 76.1297 215.435 79.9903C212.052 89.0517 202.798 89.5368 202.703 89.5405C202.633 89.5432 202.564 89.5228 202.507 89.4825C202.449 89.4421 202.407 89.3841 202.385 89.3173C202.364 89.2504 202.366 89.1785 202.389 89.1125C202.413 89.0465 202.458 88.9901 202.517 88.952C202.547 88.9319 205.314 87.1304 205.705 85.1287C198.069 90.7704 187.871 90.3814 186.505 90.3007L184.782 92.0504Z" fill="#00257D"/>
<path d="M204.356 77.9932L204.556 80.2859L215.361 82.7532L215.63 85.8369L244.321 92.3885L264.934 119.709L257.144 120.389L250.168 140.596L286.363 135.983L289.589 116.614L253.055 75.6296L210.039 68.8403L210.166 70.2967L204.77 69.6827L204.896 71.1288L201.064 70.6278L201.653 77.3762L204.356 77.9932Z" fill="#FFD6B5"/>
<path d="M250.204 140.915C250.151 140.919 250.097 140.911 250.049 140.889C250 140.868 249.957 140.835 249.924 140.793C249.892 140.752 249.87 140.702 249.861 140.65C249.852 140.598 249.856 140.544 249.873 140.494L256.85 120.284C256.87 120.225 256.906 120.173 256.955 120.135C257.004 120.096 257.063 120.073 257.125 120.067L264.339 119.438L244.144 92.6742L215.569 86.1484C215.502 86.1334 215.443 86.0977 215.398 86.0467C215.353 85.9956 215.326 85.9317 215.32 85.8641L215.071 83.0127L204.495 80.5934C204.429 80.5783 204.369 80.5427 204.325 80.4917C204.281 80.4408 204.253 80.3771 204.247 80.3097L204.068 78.2493L201.592 77.6837C201.526 77.6687 201.467 77.6332 201.422 77.5822C201.377 77.5313 201.35 77.4675 201.344 77.4001L200.755 70.6548C200.751 70.6071 200.758 70.559 200.775 70.5142C200.792 70.4694 200.818 70.4289 200.853 70.3958C200.888 70.3626 200.93 70.3377 200.975 70.3228C201.021 70.3079 201.069 70.3034 201.117 70.3096L204.553 70.7591L204.462 69.7097C204.458 69.6624 204.464 69.6148 204.481 69.5703C204.497 69.5258 204.523 69.4855 204.558 69.4524C204.592 69.4193 204.633 69.3941 204.678 69.3788C204.723 69.3634 204.771 69.3583 204.818 69.3637L209.825 69.9332L209.732 68.8679C209.728 68.8195 209.735 68.7708 209.752 68.7255C209.769 68.6802 209.797 68.6394 209.833 68.6062C209.868 68.5731 209.911 68.5485 209.957 68.5342C210.004 68.52 210.053 68.5165 210.101 68.524L253.12 75.3104C253.194 75.322 253.261 75.3587 253.31 75.414L289.843 116.398C289.875 116.434 289.898 116.476 289.912 116.522C289.925 116.568 289.928 116.617 289.92 116.664L286.695 136.033C286.684 136.101 286.651 136.163 286.601 136.211C286.551 136.259 286.487 136.289 286.419 136.298L250.216 140.914L250.204 140.915ZM257.387 120.69L250.647 140.213L286.094 135.695L289.255 116.714L252.9 75.93L210.402 69.2227L210.494 70.2708C210.498 70.3181 210.491 70.3657 210.475 70.4103C210.458 70.4548 210.432 70.495 210.398 70.5282C210.364 70.5613 210.323 70.5864 210.278 70.6018C210.233 70.6171 210.185 70.6223 210.138 70.6168L205.13 70.0473L205.223 71.1031C205.227 71.1508 205.22 71.1988 205.203 71.2437C205.186 71.2885 205.159 71.329 205.125 71.3621C205.09 71.3952 205.048 71.4202 205.003 71.4351C204.957 71.45 204.909 71.4545 204.861 71.4483L201.425 70.9988L201.959 77.1182L204.434 77.6832C204.5 77.6982 204.56 77.7338 204.605 77.7849C204.649 77.836 204.676 77.8999 204.682 77.9674L204.862 80.0279L215.438 82.4433C215.504 82.4583 215.564 82.494 215.609 82.5451C215.653 82.5961 215.681 82.6601 215.686 82.7276L215.935 85.579L244.399 92.0785C244.473 92.0953 244.538 92.1376 244.584 92.198L265.196 119.516C265.23 119.562 265.252 119.616 265.258 119.673C265.265 119.73 265.256 119.787 265.233 119.839C265.209 119.891 265.173 119.937 265.126 119.97C265.079 120.003 265.025 120.023 264.968 120.028L257.387 120.69Z" fill="#00257D"/>
<path d="M201.729 77.0779L201.586 77.7021L225.187 83.0917L225.33 82.4674L201.729 77.0779Z" fill="#00257D"/>
<path d="M184.836 135.395L184.82 136.035L187.349 136.095L187.365 135.455L184.836 135.395Z" fill="#00257D"/>
<path d="M184.805 136.574L184.789 137.214L187.318 137.274L187.333 136.634L184.805 136.574Z" fill="#00257D"/>
<path d="M184.015 144.263L183.531 144.684L186.814 148.439L187.297 148.018L184.015 144.263Z" fill="#00257D"/>
<path d="M175.423 132.413L175.406 133.095L176.047 133.11L176.064 132.428L175.423 132.413Z" fill="#00257D"/>
<path d="M166.889 143.855L163.445 147.451L163.909 147.893L167.352 144.297L166.889 143.855Z" fill="#00257D"/>
<path d="M162.6 145.953L162.117 146.375L163.434 147.881L163.918 147.46L162.6 145.953Z" fill="#00257D"/>
<path d="M163.356 147.664L163.344 148.159L163.985 148.174L163.997 147.68L163.356 147.664Z" fill="#00257D"/>
<path d="M163.341 148.159L163.312 149.338L163.954 149.353L163.982 148.175L163.341 148.159Z" fill="#00257D"/>
<path d="M163.313 149.337L163.242 152.242L163.883 152.258L163.954 149.352L163.313 149.337Z" fill="#00257D"/>
<path d="M161.265 147.788L161.25 148.428L163.654 148.485L163.669 147.845L161.265 147.788Z" fill="#00257D"/>
<path d="M161.141 147.786L161.125 148.426L161.251 148.429L161.267 147.789L161.141 147.786Z" fill="#00257D"/>
<path d="M163.672 147.845L163.656 148.485L166.354 148.55L166.369 147.91L163.672 147.845Z" fill="#00257D"/>
<path d="M163.648 149.024L163.633 149.664L166.33 149.729L166.346 149.089L163.648 149.024Z" fill="#00257D"/>
<path d="M161.117 148.965L161.102 149.605L163.631 149.666L163.647 149.026L161.117 148.965Z" fill="#00257D"/>
<path d="M172.483 137.51L172 137.932L175.283 141.687L175.766 141.266L172.483 137.51Z" fill="#00257D"/>
<path d="M178.684 137.612L175.242 141.208L175.706 141.65L179.148 138.054L178.684 137.612Z" fill="#00257D"/>
<path d="M175.164 143.144L175.094 146.048L175.735 146.064L175.805 143.159L175.164 143.144Z" fill="#00257D"/>
<path d="M175.199 141.469L175.188 141.963L175.829 141.978L175.841 141.484L175.199 141.469Z" fill="#00257D"/>
<path d="M175.193 141.962L175.164 143.14L175.805 143.156L175.834 141.977L175.193 141.962Z" fill="#00257D"/>
<path d="M172.992 141.59L172.977 142.23L175.506 142.291L175.521 141.651L172.992 141.59Z" fill="#00257D"/>
<path d="M175.516 141.651L175.5 142.291L178.197 142.356L178.213 141.715L175.516 141.651Z" fill="#00257D"/>
<path d="M175.484 142.828L175.469 143.468L178.166 143.533L178.182 142.892L175.484 142.828Z" fill="#00257D"/>
<path d="M172.961 142.768L172.945 143.408L175.474 143.468L175.49 142.828L172.961 142.768Z" fill="#00257D"/>
<path d="M166.576 156.805L163.133 160.401L163.596 160.843L167.04 157.248L166.576 156.805Z" fill="#00257D"/>
<path d="M178.42 150.609L174.977 154.205L175.44 154.648L178.884 151.052L178.42 150.609Z" fill="#00257D"/>
<path d="M172.163 150.459L171.68 150.88L174.962 154.635L175.446 154.214L172.163 150.459Z" fill="#00257D"/>
<path d="M174.887 154.419L174.875 154.913L175.516 154.928L175.528 154.434L174.887 154.419Z" fill="#00257D"/>
<path d="M174.852 156.092L174.781 158.997L175.422 159.012L175.493 156.107L174.852 156.092Z" fill="#00257D"/>
<path d="M174.872 154.912L174.844 156.09L175.485 156.106L175.513 154.928L174.872 154.912Z" fill="#00257D"/>
<path d="M172.68 154.542L172.664 155.182L175.193 155.243L175.209 154.602L172.68 154.542Z" fill="#00257D"/>
<path d="M175.203 154.599L175.188 155.239L177.885 155.304L177.9 154.663L175.203 154.599Z" fill="#00257D"/>
<path d="M172.648 155.719L172.633 156.359L175.162 156.42L175.178 155.78L172.648 155.719Z" fill="#00257D"/>
<path d="M175.172 155.78L175.156 156.42L177.854 156.485L177.869 155.844L175.172 155.78Z" fill="#00257D"/>
<path d="M215.44 82.4412L215.297 83.0654L224.279 85.1166L224.422 84.4923L215.44 82.4412Z" fill="#00257D"/>
<path d="M227.074 80.4885L205.182 75.5076C205.116 75.4924 205.056 75.4567 205.012 75.4057C204.967 75.3546 204.94 75.2907 204.934 75.2233L204.453 69.7104L205.092 69.6547L205.553 74.9353L227.217 79.8641L227.074 80.4885Z" fill="#00257D"/>
<path d="M151.979 213.641C182.093 239.822 201.075 232.554 201.075 232.554L163.583 184.738L151.979 213.641Z" fill="#00257D"/>
<path d="M196.951 233.641C189.694 234.274 173.538 232.811 151.765 213.883L152.187 213.399C160.727 220.824 173.839 230.18 187.813 232.59C196.158 234.03 200.911 232.273 200.958 232.256L201.187 232.853C199.812 233.285 198.39 233.55 196.951 233.641Z" fill="#00257D"/>
<path d="M249.875 86.4467C249.839 86.4499 249.803 86.447 249.768 86.4381L230.338 81.4852C230.274 81.4688 230.216 81.4329 230.173 81.3823C230.13 81.3317 230.104 81.269 230.098 81.2028L229.86 78.4783L210.399 74.0418C210.333 74.0266 210.273 73.9909 210.229 73.9398C210.184 73.8888 210.157 73.8249 210.151 73.7574L209.852 70.3242L210.491 70.2684L210.77 73.4695L230.231 77.9066C230.297 77.9218 230.357 77.9575 230.401 78.0086C230.446 78.0596 230.473 78.1235 230.479 78.191L230.717 80.9212L249.639 85.7449L251.009 81.7192L251.616 81.9233L250.15 86.2292C250.131 86.2882 250.094 86.3402 250.045 86.3789C249.996 86.4175 249.937 86.4411 249.875 86.4467Z" fill="#00257D"/>
<path d="M187.593 173.655L221.132 167L213.477 149.666L189.174 153.249L187.593 173.655Z" fill="#6EB60D"/>
<path d="M187.617 173.972C187.571 173.977 187.524 173.971 187.48 173.955C187.437 173.939 187.397 173.914 187.364 173.881C187.33 173.849 187.305 173.809 187.289 173.765C187.272 173.722 187.266 173.675 187.269 173.629L188.85 153.224C188.856 153.152 188.886 153.084 188.935 153.03C188.985 152.977 189.051 152.942 189.123 152.932L213.427 149.347C213.496 149.338 213.566 149.351 213.628 149.385C213.689 149.418 213.737 149.471 213.765 149.535L221.42 166.87C221.439 166.914 221.448 166.962 221.447 167.01C221.445 167.058 221.433 167.105 221.41 167.147C221.388 167.19 221.357 167.227 221.318 167.256C221.28 167.284 221.236 167.304 221.188 167.313L187.647 173.969C187.637 173.971 187.627 173.972 187.617 173.972ZM189.47 153.528L187.942 173.257L220.673 166.763L213.279 150.017L189.47 153.528Z" fill="#00257D"/>
<path d="M187.535 175.566C178.437 157.259 187.126 135.107 187.126 135.107L192.682 136.416C192.682 136.416 186.813 161.228 193.988 177.141L187.535 175.566Z" fill="#FFE68C"/>
<path d="M194.014 177.457C193.979 177.459 193.944 177.457 193.91 177.448L187.457 175.876C187.411 175.865 187.369 175.844 187.333 175.815C187.296 175.786 187.266 175.749 187.246 175.708C178.187 157.485 186.737 135.21 186.826 134.987C186.854 134.916 186.907 134.857 186.975 134.821C187.042 134.785 187.121 134.775 187.195 134.792L192.752 136.1C192.834 136.12 192.906 136.171 192.951 136.243C192.995 136.316 193.009 136.402 192.99 136.485C191.967 141.215 191.288 146.012 190.959 150.84C190.443 158.277 190.6 168.85 194.274 177.006C194.295 177.053 194.304 177.104 194.301 177.155C194.299 177.206 194.284 177.256 194.258 177.3C194.232 177.344 194.196 177.381 194.152 177.409C194.109 177.436 194.059 177.453 194.008 177.457L194.014 177.457ZM187.754 175.289L193.433 176.673C187.113 161.803 191.664 139.547 192.298 136.65L187.326 135.477C186.405 138.008 179.453 158.406 187.754 175.289Z" fill="#00257D"/>
<path d="M206.144 178.998C199.84 174.736 193.285 170.856 186.516 167.378L169.676 212.096C185.652 224.473 199.948 235.212 215.183 235.855C239.442 236.878 248.104 221.528 251.313 209.44C256.494 189.922 239.844 174.853 226.32 171.316L219.106 176.3L206.144 178.998Z" fill="#00257D"/>
<path d="M125.852 225.426C111.765 179.741 114.606 158.292 114.606 158.292C114.606 158.292 125.192 157.367 132.715 160.102L125.852 225.426Z" fill="#FFD6B5"/>
<path d="M125.876 225.744C125.802 225.751 125.729 225.731 125.668 225.69C125.607 225.648 125.562 225.587 125.541 225.516C118.256 201.891 115.582 184.871 114.623 174.753C113.58 163.771 114.276 158.3 114.283 158.246C114.293 158.174 114.327 158.107 114.38 158.057C114.432 158.006 114.501 157.976 114.573 157.969C114.68 157.96 125.318 157.07 132.824 159.797C132.891 159.822 132.948 159.868 132.986 159.928C133.024 159.989 133.04 160.06 133.033 160.131L126.17 225.457C126.162 225.531 126.129 225.599 126.077 225.651C126.024 225.703 125.955 225.735 125.882 225.743L125.876 225.744ZM114.891 158.59C114.771 159.785 114.352 165.138 115.265 174.734C116.204 184.6 118.778 201.054 125.694 223.825L132.366 160.315C125.669 157.973 116.545 158.475 114.891 158.59Z" fill="#00257D"/>
<path d="M171.38 101.632L170.914 102.073L174.583 105.943L175.049 105.503L171.38 101.632Z" fill="#00257D"/>
<path d="M172.424 100.559L168.766 103.659L169.18 104.147L172.839 101.048L172.424 100.559Z" fill="#00257D"/>
<path d="M173.843 104.581L171.305 106.731L171.72 107.22L174.258 105.069L173.843 104.581Z" fill="#00257D"/>
<path d="M126.922 260.736L152.15 215.514L155.433 253.128" fill="#CC1D37"/>
<path d="M126.945 261.055C126.887 261.06 126.829 261.049 126.777 261.024C126.725 260.998 126.68 260.959 126.649 260.91C126.617 260.862 126.599 260.805 126.597 260.747C126.595 260.689 126.609 260.631 126.638 260.581L151.866 215.358C151.899 215.298 151.951 215.251 152.013 215.222C152.076 215.194 152.146 215.186 152.213 215.201C152.28 215.215 152.341 215.25 152.386 215.302C152.431 215.353 152.459 215.417 152.465 215.486L155.749 253.1C155.755 253.175 155.735 253.25 155.692 253.311C155.648 253.373 155.585 253.417 155.512 253.437L127.001 261.046C126.983 261.05 126.964 261.054 126.945 261.055ZM151.917 216.581L127.566 260.23L155.086 252.886L151.917 216.581Z" fill="#00257D"/>
<path d="M207.503 134.544L228.87 122.858L246.109 121.353L251.861 116.638L254.483 118.167L260.626 113.995L264.937 119.71L253.235 152.559L248.979 150.879L231.876 157.293L226.324 171.316C229.384 171.914 257.289 182.12 251.316 209.44C215.357 191.189 206.976 146.866 207.503 134.544Z" fill="#FFAA00"/>
<path d="M251.345 209.759C251.285 209.764 251.225 209.753 251.172 209.726C215.919 191.832 206.593 148.346 207.185 134.53C207.187 134.475 207.204 134.421 207.234 134.374C207.264 134.327 207.305 134.289 207.355 134.263L228.719 122.577C228.758 122.556 228.801 122.543 228.845 122.539L245.984 121.043L251.659 116.39C251.709 116.348 251.771 116.323 251.836 116.317C251.901 116.311 251.967 116.326 252.024 116.358L254.472 117.786L260.448 113.729C260.516 113.682 260.599 113.664 260.68 113.678C260.761 113.691 260.834 113.735 260.884 113.801L265.195 119.515C265.227 119.557 265.248 119.607 265.256 119.659C265.264 119.712 265.259 119.765 265.241 119.815L253.539 152.664C253.524 152.705 253.502 152.742 253.473 152.773C253.444 152.805 253.408 152.83 253.369 152.848C253.33 152.866 253.288 152.876 253.245 152.877C253.202 152.878 253.159 152.87 253.119 152.854L248.978 151.22L232.123 157.545L226.759 171.093C229.623 171.856 241.259 176.421 247.817 186.383C252.235 193.095 253.518 200.876 251.631 209.511C251.616 209.578 251.581 209.638 251.529 209.683C251.478 209.728 251.414 209.756 251.345 209.762L251.345 209.759ZM207.818 134.738C207.321 148.588 216.574 191.175 251.091 208.965C252.813 200.668 251.532 193.19 247.283 186.732C240.508 176.438 228.241 172.016 226.265 171.631C226.218 171.622 226.175 171.603 226.137 171.575C226.099 171.547 226.067 171.511 226.045 171.47C226.022 171.429 226.009 171.383 226.006 171.336C226.003 171.289 226.011 171.243 226.028 171.199L231.581 157.175C231.597 157.133 231.622 157.096 231.654 157.064C231.686 157.033 231.724 157.009 231.766 156.993L248.869 150.579C248.944 150.551 249.026 150.552 249.1 150.581L253.047 152.139L264.578 119.765L260.554 114.432L254.663 118.432C254.613 118.466 254.555 118.485 254.494 118.487C254.433 118.489 254.374 118.474 254.321 118.443L251.891 117.027L246.312 121.6C246.262 121.642 246.201 121.667 246.136 121.672L228.964 123.171L207.818 134.738Z" fill="#00257D"/>
<path d="M261.029 120.196L257.586 123.792L258.049 124.234L261.493 120.639L261.029 120.196Z" fill="#00257D"/>
<path d="M254.78 120.048L254.297 120.469L257.58 124.225L258.063 123.803L254.78 120.048Z" fill="#00257D"/>
<path d="M257.482 124.499L257.453 125.677L258.094 125.693L258.123 124.514L257.482 124.499Z" fill="#00257D"/>
<path d="M257.497 124.004L257.484 124.498L258.126 124.514L258.138 124.019L257.497 124.004Z" fill="#00257D"/>
<path d="M257.453 125.675L257.383 128.58L258.024 128.595L258.094 125.69L257.453 125.675Z" fill="#00257D"/>
<path d="M257.812 124.185L257.797 124.825L260.494 124.889L260.51 124.249L257.812 124.185Z" fill="#00257D"/>
<path d="M255.281 124.124L255.266 124.764L257.794 124.825L257.81 124.184L255.281 124.124Z" fill="#00257D"/>
<path d="M255.258 125.303L255.242 125.943L257.771 126.003L257.787 125.363L255.258 125.303Z" fill="#00257D"/>
<path d="M257.781 125.363L257.766 126.003L260.463 126.068L260.479 125.428L257.781 125.363Z" fill="#00257D"/>
<path d="M254.46 132.997L253.977 133.418L257.26 137.174L257.743 136.753L254.46 132.997Z" fill="#00257D"/>
<path d="M259.321 134.602L257.273 136.74L257.737 137.183L259.785 135.044L259.321 134.602Z" fill="#00257D"/>
<path d="M257.184 136.954L257.172 137.448L257.813 137.464L257.825 136.97L257.184 136.954Z" fill="#00257D"/>
<path d="M257.169 137.448L257.141 138.627L257.782 138.642L257.81 137.464L257.169 137.448Z" fill="#00257D"/>
<path d="M257.139 138.626L257.086 140.83L257.727 140.845L257.781 138.641L257.139 138.626Z" fill="#00257D"/>
<path d="M257.5 137.136L257.484 137.776L258.598 137.803L258.614 137.163L257.5 137.136Z" fill="#00257D"/>
<path d="M254.969 137.074L254.953 137.714L257.482 137.774L257.497 137.134L254.969 137.074Z" fill="#00257D"/>
<path d="M254.937 138.252L254.922 138.893L257.451 138.953L257.466 138.313L254.937 138.252Z" fill="#00257D"/>
<path d="M254.147 145.944L253.664 146.365L254.807 147.673L255.291 147.252L254.147 145.944Z" fill="#00257D"/>
<path d="M235.341 122.05L234.211 123.23L234.674 123.672L235.805 122.492L235.341 122.05Z" fill="#00257D"/>
<path d="M233.804 122.237L233.32 122.658L234.198 123.663L234.681 123.242L233.804 122.237Z" fill="#00257D"/>
<path d="M234.121 123.444L234.109 123.938L234.751 123.953L234.762 123.459L234.121 123.444Z" fill="#00257D"/>
<path d="M234.107 123.937L234.078 125.115L234.719 125.131L234.748 123.952L234.107 123.937Z" fill="#00257D"/>
<path d="M234.078 125.116L234.008 128.021L234.649 128.037L234.719 125.132L234.078 125.116Z" fill="#00257D"/>
<path d="M231.906 123.565L231.891 124.206L234.42 124.266L234.436 123.626L231.906 123.565Z" fill="#00257D"/>
<path d="M234.437 123.624L234.422 124.265L237.119 124.329L237.135 123.689L234.437 123.624Z" fill="#00257D"/>
<path d="M231.875 124.743L231.859 125.383L234.388 125.443L234.404 124.803L231.875 124.743Z" fill="#00257D"/>
<path d="M234.406 124.803L234.391 125.443L237.088 125.508L237.104 124.868L234.406 124.803Z" fill="#00257D"/>
<path d="M245.865 121.278L245.852 121.826L246.493 121.841L246.506 121.293L245.865 121.278Z" fill="#00257D"/>
<path d="M231.085 132.434L230.602 132.855L233.884 136.61L234.368 136.189L231.085 132.434Z" fill="#00257D"/>
<path d="M237.334 132.582L233.891 136.178L234.354 136.621L237.798 133.025L237.334 132.582Z" fill="#00257D"/>
<path d="M233.794 136.888L233.766 138.067L234.407 138.082L234.435 136.904L233.794 136.888Z" fill="#00257D"/>
<path d="M233.801 136.394L233.789 136.888L234.43 136.903L234.442 136.409L233.801 136.394Z" fill="#00257D"/>
<path d="M233.766 138.067L233.695 140.972L234.337 140.987L234.407 138.082L233.766 138.067Z" fill="#00257D"/>
<path d="M231.594 136.515L231.578 137.155L234.108 137.216L234.123 136.576L231.594 136.515Z" fill="#00257D"/>
<path d="M234.117 136.576L234.102 137.216L236.799 137.28L236.815 136.64L234.117 136.576Z" fill="#00257D"/>
<path d="M234.094 137.755L234.078 138.395L236.775 138.46L236.79 137.82L234.094 137.755Z" fill="#00257D"/>
<path d="M231.562 137.694L231.547 138.334L234.076 138.395L234.092 137.755L231.562 137.694Z" fill="#00257D"/>
<path d="M249.186 126.39L245.742 129.986L246.206 130.428L249.649 126.833L249.186 126.39Z" fill="#00257D"/>
<path d="M242.929 126.241L242.445 126.663L245.729 130.418L246.212 129.997L242.929 126.241Z" fill="#00257D"/>
<path d="M245.652 130.2L245.641 130.694L246.282 130.709L246.294 130.215L245.652 130.2Z" fill="#00257D"/>
<path d="M245.61 131.873L245.539 134.777L246.18 134.793L246.251 131.888L245.61 131.873Z" fill="#00257D"/>
<path d="M245.638 130.691L245.609 131.87L246.251 131.885L246.279 130.707L245.638 130.691Z" fill="#00257D"/>
<path d="M243.437 130.321L243.422 130.961L245.951 131.022L245.967 130.382L243.437 130.321Z" fill="#00257D"/>
<path d="M245.969 130.38L245.953 131.02L248.65 131.085L248.665 130.445L245.969 130.38Z" fill="#00257D"/>
<path d="M245.937 131.557L245.922 132.197L248.619 132.262L248.635 131.621L245.937 131.557Z" fill="#00257D"/>
<path d="M243.406 131.497L243.391 132.137L245.919 132.197L245.935 131.557L243.406 131.497Z" fill="#00257D"/>
<path d="M237.022 145.534L233.578 149.13L234.042 149.572L237.485 145.977L237.022 145.534Z" fill="#00257D"/>
<path d="M230.772 145.384L230.289 145.805L233.572 149.56L234.055 149.139L230.772 145.384Z" fill="#00257D"/>
<path d="M233.474 149.839L233.445 151.017L234.086 151.032L234.115 149.854L233.474 149.839Z" fill="#00257D"/>
<path d="M233.453 151.017L233.383 153.921L234.024 153.937L234.094 151.032L233.453 151.017Z" fill="#00257D"/>
<path d="M233.488 149.342L233.477 149.836L234.118 149.852L234.13 149.357L233.488 149.342Z" fill="#00257D"/>
<path d="M233.805 149.526L233.789 150.166L236.486 150.231L236.502 149.59L233.805 149.526Z" fill="#00257D"/>
<path d="M231.281 149.465L231.266 150.105L233.795 150.166L233.811 149.526L231.281 149.465Z" fill="#00257D"/>
<path d="M233.773 150.703L233.758 151.343L236.455 151.408L236.471 150.767L233.773 150.703Z" fill="#00257D"/>
<path d="M231.25 150.644L231.234 151.284L233.764 151.345L233.779 150.705L231.25 150.644Z" fill="#00257D"/>
<path d="M248.865 139.338L245.422 142.934L245.885 143.377L249.329 139.781L248.865 139.338Z" fill="#00257D"/>
<path d="M242.616 139.188L242.133 139.609L245.415 143.365L245.899 142.944L242.616 139.188Z" fill="#00257D"/>
<path d="M245.297 144.821L245.227 147.726L245.868 147.741L245.938 144.836L245.297 144.821Z" fill="#00257D"/>
<path d="M245.326 143.641L245.297 144.819L245.938 144.835L245.967 143.656L245.326 143.641Z" fill="#00257D"/>
<path d="M245.332 143.148L245.32 143.642L245.962 143.657L245.973 143.163L245.332 143.148Z" fill="#00257D"/>
<path d="M243.125 143.269L243.109 143.91L245.639 143.97L245.654 143.33L243.125 143.269Z" fill="#00257D"/>
<path d="M245.648 143.328L245.633 143.968L248.33 144.033L248.346 143.392L245.648 143.328Z" fill="#00257D"/>
<path d="M243.094 144.447L243.078 145.087L245.607 145.147L245.622 144.507L243.094 144.447Z" fill="#00257D"/>
<path d="M245.625 144.509L245.609 145.149L248.307 145.214L248.322 144.573L245.625 144.509Z" fill="#00257D"/>
<path d="M230.577 158.266L230.094 158.688L230.896 159.605L231.379 159.184L230.577 158.266Z" fill="#00257D"/>
<path d="M242.304 152.139L241.82 152.561L242.559 153.406L243.042 152.985L242.304 152.139Z" fill="#00257D"/>
<path d="M233.68 174.269L232.953 175.028L233.417 175.47L234.143 174.712L233.68 174.269Z" fill="#00257D"/>
<path d="M231.655 173.019L231.172 173.44L232.941 175.463L233.424 175.042L231.655 173.019Z" fill="#00257D"/>
<path d="M232.821 176.916L232.75 179.821L233.391 179.837L233.462 176.931L232.821 176.916Z" fill="#00257D"/>
<path d="M232.849 175.737L232.82 176.915L233.461 176.93L233.49 175.752L232.849 175.737Z" fill="#00257D"/>
<path d="M232.864 175.244L232.852 175.738L233.493 175.753L233.505 175.259L232.864 175.244Z" fill="#00257D"/>
<path d="M230.648 175.362L230.633 176.002L233.162 176.062L233.177 175.422L230.648 175.362Z" fill="#00257D"/>
<path d="M233.18 175.424L233.164 176.064L235.862 176.129L235.877 175.488L233.18 175.424Z" fill="#00257D"/>
<path d="M230.617 176.544L230.602 177.184L233.131 177.245L233.147 176.604L230.617 176.544Z" fill="#00257D"/>
<path d="M233.148 176.603L233.133 177.243L235.83 177.308L235.846 176.668L233.148 176.603Z" fill="#00257D"/>
<path d="M236.076 184.382L232.633 187.978L233.096 188.42L236.54 184.825L236.076 184.382Z" fill="#00257D"/>
<path d="M244.371 182.857L244.352 183.669L244.993 183.684L245.012 182.872L244.371 182.857Z" fill="#00257D"/>
<path d="M244.352 183.67L244.281 186.575L244.922 186.591L244.993 183.685L244.352 183.67Z" fill="#00257D"/>
<path d="M242.18 182.119L242.164 182.759L244.342 182.811L244.358 182.171L242.18 182.119Z" fill="#00257D"/>
<path d="M242.156 183.298L242.141 183.938L244.67 183.998L244.686 183.358L242.156 183.298Z" fill="#00257D"/>
<path d="M244.68 183.357L244.664 183.997L245.401 184.015L245.416 183.375L244.68 183.357Z" fill="#00257D"/>
<path d="M247.608 191.136L244.164 194.732L244.628 195.174L248.071 191.579L247.608 191.136Z" fill="#00257D"/>
<path d="M213.959 132.024L210.516 135.62L210.979 136.063L214.423 132.467L213.959 132.024Z" fill="#00257D"/>
<path d="M225.803 125.83L222.359 129.426L222.823 129.868L226.266 126.272L225.803 125.83Z" fill="#00257D"/>
<path d="M220.952 127.077L220.469 127.499L222.456 129.771L222.94 129.35L220.952 127.077Z" fill="#00257D"/>
<path d="M222.278 129.64L222.266 130.134L222.907 130.149L222.919 129.655L222.278 129.64Z" fill="#00257D"/>
<path d="M222.234 131.313L222.164 134.217L222.805 134.233L222.876 131.328L222.234 131.313Z" fill="#00257D"/>
<path d="M222.263 130.134L222.234 131.313L222.876 131.328L222.904 130.15L222.263 130.134Z" fill="#00257D"/>
<path d="M222.586 129.822L222.57 130.462L225.268 130.527L225.283 129.886L222.586 129.822Z" fill="#00257D"/>
<path d="M220.062 129.761L220.047 130.401L222.576 130.462L222.592 129.822L220.062 129.761Z" fill="#00257D"/>
<path d="M222.555 130.999L222.539 131.639L225.237 131.703L225.252 131.063L222.555 130.999Z" fill="#00257D"/>
<path d="M220.031 130.94L220.016 131.58L222.545 131.641L222.561 131L220.031 130.94Z" fill="#00257D"/>
<path d="M219.233 138.628L218.75 139.049L222.033 142.805L222.516 142.383L219.233 138.628Z" fill="#00257D"/>
<path d="M225.49 138.778L222.047 142.374L222.51 142.816L225.954 139.221L225.49 138.778Z" fill="#00257D"/>
<path d="M221.922 144.262L221.852 147.167L222.493 147.183L222.563 144.278L221.922 144.262Z" fill="#00257D"/>
<path d="M221.943 143.083L221.914 144.261L222.555 144.277L222.584 143.099L221.943 143.083Z" fill="#00257D"/>
<path d="M221.957 142.588L221.945 143.082L222.586 143.097L222.598 142.603L221.957 142.588Z" fill="#00257D"/>
<path d="M219.75 142.711L219.734 143.351L222.264 143.412L222.279 142.771L219.75 142.711Z" fill="#00257D"/>
<path d="M222.273 142.77L222.258 143.41L224.955 143.475L224.971 142.835L222.273 142.77Z" fill="#00257D"/>
<path d="M222.242 143.949L222.227 144.589L224.924 144.653L224.94 144.013L222.242 143.949Z" fill="#00257D"/>
<path d="M219.719 143.888L219.703 144.528L222.233 144.589L222.248 143.949L219.719 143.888Z" fill="#00257D"/>
<path d="M225.178 151.728L221.734 155.324L222.198 155.767L225.641 152.171L225.178 151.728Z" fill="#00257D"/>
<path d="M218.921 151.578L218.438 151.999L221.72 155.754L222.203 155.333L218.921 151.578Z" fill="#00257D"/>
<path d="M221.63 156.032L221.602 157.211L222.243 157.226L222.271 156.048L221.63 156.032Z" fill="#00257D"/>
<path d="M221.602 157.21L221.531 160.115L222.172 160.131L222.243 157.226L221.602 157.21Z" fill="#00257D"/>
<path d="M221.645 155.538L221.633 156.032L222.274 156.047L222.286 155.553L221.645 155.538Z" fill="#00257D"/>
<path d="M219.43 155.658L219.414 156.298L221.943 156.358L221.958 155.718L219.43 155.658Z" fill="#00257D"/>
<path d="M221.961 155.72L221.945 156.36L224.643 156.424L224.658 155.784L221.961 155.72Z" fill="#00257D"/>
<path d="M221.93 156.899L221.914 157.539L224.612 157.604L224.627 156.964L221.93 156.899Z" fill="#00257D"/>
<path d="M219.406 156.84L219.391 157.48L221.92 157.54L221.936 156.9L219.406 156.84Z" fill="#00257D"/>
<path d="M224.865 164.678L221.422 168.274L221.885 168.716L225.329 165.121L224.865 164.678Z" fill="#00257D"/>
<path d="M218.608 164.533L218.125 164.954L221.408 168.71L221.892 168.289L218.608 164.533Z" fill="#00257D"/>
<path d="M221.332 168.488L221.32 168.982L221.961 168.998L221.974 168.503L221.332 168.488Z" fill="#00257D"/>
<path d="M221.289 170.162L221.219 173.067L221.86 173.082L221.93 170.178L221.289 170.162Z" fill="#00257D"/>
<path d="M221.318 168.982L221.289 170.161L221.93 170.176L221.959 168.997L221.318 168.982Z" fill="#00257D"/>
<path d="M219.117 168.607L219.102 169.248L221.63 169.308L221.646 168.668L219.117 168.607Z" fill="#00257D"/>
<path d="M221.648 168.67L221.633 169.31L224.33 169.375L224.346 168.735L221.648 168.67Z" fill="#00257D"/>
<path d="M221.617 169.847L221.602 170.487L224.299 170.552L224.315 169.912L221.617 169.847Z" fill="#00257D"/>
<path d="M219.086 169.787L219.07 170.427L221.599 170.487L221.615 169.847L219.086 169.787Z" fill="#00257D"/>
<path d="M100.321 285.933C100.256 285.939 100.191 285.925 100.134 285.893L88.0123 279.045C87.9667 279.019 87.9282 278.982 87.9001 278.938C87.872 278.894 87.8552 278.844 87.8511 278.792L87.5509 274.983C87.5453 274.911 87.5643 274.839 87.6048 274.779C87.6452 274.719 87.7048 274.675 87.7738 274.653L92.615 273.116L92.8092 273.726L88.2105 275.186L88.4768 278.57L100.336 285.274L146.84 273.709L146.575 270.344L137.169 265.197L137.477 264.635L147.035 269.866C147.082 269.891 147.122 269.928 147.151 269.973C147.18 270.017 147.197 270.068 147.201 270.121L147.501 273.929C147.507 274.005 147.486 274.08 147.441 274.142C147.397 274.203 147.332 274.247 147.258 274.266L100.37 285.925C100.354 285.929 100.337 285.932 100.321 285.933Z" fill="#00257D"/>
<path d="M221.616 236.047C219.472 236.228 217.319 236.271 215.17 236.175C199.374 235.508 184.176 223.735 169.479 212.348L169.872 211.842C184.49 223.165 199.605 234.877 215.197 235.535C238.783 236.53 247.687 221.848 251.002 209.357C251.96 205.825 252.195 202.137 251.693 198.513C251.191 194.889 249.963 191.404 248.082 188.264C243.51 180.431 234.935 173.9 226.239 171.625L226.401 171.005C235.255 173.321 243.983 179.969 248.637 187.941C250.561 191.153 251.817 194.72 252.33 198.427C252.843 202.135 252.602 205.908 251.622 209.521C248.567 221.031 240.854 234.367 221.616 236.047Z" fill="#00257D"/>
<path d="M169.679 212.095L169.497 211.955C165.903 209.169 162.215 206.298 158.401 203.434L134.169 254.982L116.164 249.455C121.761 179.751 135.881 152.405 135.881 152.405C154.475 153.271 172.545 160.221 186.519 167.378L169.679 212.095Z" fill="#FFD6B5"/>
<path d="M134.197 255.302C134.156 255.305 134.115 255.301 134.075 255.289L116.071 249.762C116.001 249.74 115.942 249.695 115.901 249.634C115.861 249.574 115.842 249.502 115.849 249.429C118.742 213.398 123.953 188.908 127.816 174.707C132.008 159.3 135.564 152.327 135.6 152.258C135.628 152.204 135.671 152.159 135.724 152.128C135.777 152.097 135.838 152.082 135.899 152.085C151.569 152.815 168.65 157.864 186.669 167.093C186.739 167.129 186.793 167.189 186.822 167.262C186.85 167.336 186.851 167.417 186.823 167.491L169.983 212.208C169.965 212.255 169.937 212.297 169.9 212.331C169.863 212.365 169.818 212.39 169.77 212.404C169.721 212.417 169.67 212.419 169.621 212.41C169.571 212.4 169.525 212.379 169.485 212.348L168.096 211.276C165 208.875 161.801 206.395 158.524 203.929L134.46 255.118C134.436 255.169 134.399 255.213 134.353 255.245C134.307 255.277 134.253 255.297 134.197 255.302ZM116.505 249.225L133.998 254.595L158.111 203.298C158.131 203.255 158.16 203.217 158.197 203.187C158.234 203.157 158.277 203.135 158.324 203.123C158.37 203.112 158.418 203.111 158.465 203.12C158.512 203.13 158.556 203.15 158.594 203.178C161.985 205.725 165.292 208.289 168.49 210.768L169.533 211.576L186.119 167.534C168.355 158.47 151.523 153.492 136.076 152.736C134.858 155.247 121.811 183.494 116.505 249.225Z" fill="#00257D"/>
<path d="M212.844 184.204C204.523 177.928 195.666 172.393 186.375 167.662L186.668 167.092C195.996 171.842 204.888 177.4 213.243 183.702L212.844 184.204Z" fill="#00257D"/>
<path d="M115.366 224.818L147.982 233.954L140.241 250.792L143.015 269.777L99.8525 280.511L90.4574 275.201L89.8057 267.734L114.443 249.421L115.366 224.818Z" fill="#CC1D37"/>
<path d="M99.8762 280.83C99.8114 280.835 99.7464 280.821 99.6898 280.789L90.2947 275.479C90.2496 275.454 90.2113 275.417 90.1833 275.374C90.1552 275.33 90.1383 275.28 90.1338 275.229L89.4819 267.76C89.477 267.705 89.4862 267.651 89.5086 267.601C89.5309 267.551 89.5657 267.508 89.6096 267.475L114.124 249.254L115.041 224.804C115.043 224.756 115.056 224.709 115.079 224.666C115.102 224.623 115.134 224.586 115.173 224.558C115.212 224.53 115.257 224.51 115.305 224.502C115.352 224.493 115.401 224.495 115.448 224.508L148.064 233.643C148.109 233.656 148.15 233.678 148.186 233.708C148.221 233.738 148.249 233.775 148.269 233.817C148.288 233.859 148.298 233.905 148.298 233.951C148.298 233.997 148.288 234.043 148.269 234.085L140.568 250.837L143.328 269.729C143.339 269.807 143.321 269.887 143.277 269.953C143.232 270.019 143.165 270.067 143.088 270.086L99.9236 280.82C99.9081 280.824 99.8922 280.827 99.8762 280.83ZM90.7581 275.005L99.8945 280.169L142.651 269.536L139.92 250.838C139.911 250.777 139.92 250.714 139.946 250.658L147.53 234.161L115.667 225.237L114.762 249.433C114.76 249.48 114.747 249.527 114.725 249.57C114.703 249.612 114.671 249.649 114.633 249.677L90.1385 267.884L90.7581 275.005Z" fill="#00257D"/>
<path d="M94.2336 264.442L103.157 269.559L128.969 254.397L135.39 230.428L115.365 224.819L114.442 249.422L94.2336 264.442Z" fill="#FF6E85"/>
<path d="M103.18 269.876C103.115 269.882 103.05 269.867 102.993 269.835L94.0693 264.718C94.0232 264.692 93.9845 264.654 93.9566 264.609C93.9287 264.564 93.9124 264.513 93.9092 264.46C93.9061 264.407 93.9162 264.354 93.9385 264.306C93.9609 264.258 93.9949 264.216 94.0375 264.184L114.122 249.254L115.039 224.805C115.041 224.756 115.054 224.709 115.077 224.667C115.1 224.624 115.132 224.587 115.171 224.558C115.21 224.53 115.255 224.511 115.303 224.502C115.35 224.494 115.399 224.496 115.446 224.509L135.472 230.117C135.553 230.14 135.622 230.194 135.664 230.267C135.706 230.34 135.717 230.427 135.695 230.509L129.273 254.478C129.251 254.559 129.198 254.629 129.126 254.671L103.315 269.832C103.274 269.857 103.228 269.872 103.18 269.876ZM94.812 264.406L103.148 269.187L128.686 254.187L134.992 230.649L115.665 225.236L114.76 249.432C114.758 249.48 114.745 249.526 114.723 249.569C114.701 249.611 114.669 249.648 114.63 249.676L94.812 264.406Z" fill="#00257D"/>
<path d="M186.214 167.264L169.383 211.984L169.983 212.209L186.814 167.489L186.214 167.264Z" fill="#00257D"/>
<path d="M219.047 175.987L206.086 178.686L206.217 179.313L219.178 176.614L219.047 175.987Z" fill="#00257D"/>
<path d="M251.317 209.439C252.177 205.776 252.396 201.992 251.963 198.255L251.858 198.146C216.456 176.967 215.497 152.578 213.139 131.464L207.506 134.545C206.977 146.864 215.359 191.187 251.317 209.439Z" fill="#FFE68C"/>
<path d="M251.347 209.759C251.287 209.764 251.227 209.752 251.174 209.725C215.921 191.832 206.595 148.345 207.187 134.529C207.189 134.474 207.206 134.42 207.236 134.373C207.266 134.326 207.307 134.288 207.356 134.262L212.989 131.181C213.035 131.156 213.087 131.143 213.14 131.142C213.192 131.142 213.244 131.154 213.291 131.178C213.337 131.202 213.377 131.238 213.407 131.281C213.437 131.324 213.455 131.374 213.461 131.426C213.575 132.445 213.686 133.469 213.794 134.499C215.983 154.793 218.465 177.795 252.025 197.873C252.049 197.887 252.071 197.905 252.09 197.925L252.196 198.034C252.244 198.083 252.275 198.147 252.284 198.215C252.716 201.989 252.496 205.808 251.632 209.508C251.618 209.574 251.582 209.635 251.531 209.68C251.48 209.725 251.415 209.753 251.347 209.759ZM207.82 134.737C207.323 148.587 216.576 191.175 251.093 208.964C251.862 205.498 252.054 201.93 251.661 198.402C217.862 178.166 215.361 155.005 213.158 134.57C213.065 133.7 212.971 132.835 212.876 131.975L207.82 134.737Z" fill="#00257D"/>
<path d="M178.366 84.7548C178.345 84.7568 178.323 84.7565 178.302 84.754C169.699 83.7944 157.314 74.1329 156.79 73.7222C156.756 73.6953 156.728 73.6616 156.707 73.6233C156.686 73.585 156.673 73.5429 156.669 73.4995C156.664 73.4357 156.17 67.3255 161.741 66.595C161.793 66.5891 161.845 66.5955 161.893 66.6136C161.942 66.6317 161.985 66.661 162.02 66.6991C172.235 77.9559 183.265 77.4597 183.376 77.4533L183.397 77.8089L183.63 77.5276L184.125 77.9343L178.585 84.6405C178.558 84.6731 178.525 84.7 178.487 84.7196C178.45 84.7392 178.408 84.7511 178.366 84.7548ZM157.299 73.3056C158.566 74.2807 170.209 83.0988 178.199 84.0976L183.156 78.096C181.422 78.1021 171.187 77.6701 161.657 67.2534C157.244 67.9407 157.256 72.4417 157.299 73.3056Z" fill="#00257D"/>
<path d="M178.366 84.7548C178.345 84.7568 178.323 84.7565 178.302 84.754C169.699 83.7944 157.314 74.1329 156.79 73.7222C156.756 73.6953 156.728 73.6616 156.707 73.6233C156.686 73.585 156.673 73.5429 156.669 73.4995C156.664 73.4357 156.17 67.3255 161.741 66.595C161.793 66.5891 161.845 66.5955 161.893 66.6136C161.942 66.6317 161.985 66.661 162.02 66.6991C172.235 77.9559 183.265 77.4597 183.376 77.4533L183.397 77.8089L183.63 77.5276L184.125 77.9343L178.585 84.6405C178.558 84.6731 178.525 84.7 178.487 84.7196C178.45 84.7392 178.408 84.7511 178.366 84.7548ZM157.299 73.3056C158.566 74.2807 170.209 83.0988 178.199 84.0976L183.156 78.096C181.422 78.1021 171.187 77.6701 161.657 67.2534C157.244 67.9407 157.256 72.4417 157.299 73.3056Z" fill="#00257D"/>
<path d="M115.237 232.594L115.047 233.205L133.341 238.876L133.531 238.265L115.237 232.594Z" fill="#00257D"/>
<path d="M114.683 240.998L114.492 241.609L131.009 246.73L131.2 246.118L114.683 240.998Z" fill="#00257D"/>
<path d="M114.544 249.116L114.336 249.722L128.862 254.698L129.071 254.092L114.544 249.116Z" fill="#00257D"/>
<path d="M101.175 259.09L100.906 259.672L111.802 264.691L112.071 264.109L101.175 259.09Z" fill="#00257D"/>
<path d="M108.053 253.977L107.789 254.561L119.818 259.987L120.082 259.404L108.053 253.977Z" fill="#00257D"/>
<path d="M200.818 233.076C190.891 228.993 181.106 221.696 169.346 212.584L169.739 212.078C181.46 221.16 191.21 228.429 201.063 232.484L200.818 233.076Z" fill="white"/>
</g>
<defs>
<clipPath id="clip0_1349_7169">
<rect width="300" height="300" fill="white" transform="translate(0 0.995117)"/>
</clipPath>
</defs>
</svg>
