<svg width="353" height="52" viewBox="0 0 353 52" fill="none" xmlns="http://www.w3.org/2000/svg">
<path d="M0 15C0 6.71573 6.71573 0 15 0H338C346.284 0 353 6.71573 353 15V24C353 32.2843 346.284 39 338 39H0V15Z" fill="#9214A7"/>
<path d="M0 52V35H13L0 52Z" fill="#9214A7"/>
<path d="M29.726 13.4V26H28.412V14.552H20.438V26H19.124V13.4H29.726ZM37.5775 26.09C36.6655 26.09 35.8435 25.886 35.1115 25.478C34.3795 25.058 33.8035 24.482 33.3835 23.75C32.9635 23.018 32.7535 22.19 32.7535 21.266C32.7535 20.342 32.9635 19.514 33.3835 18.782C33.8035 18.05 34.3795 17.48 35.1115 17.072C35.8435 16.664 36.6655 16.46 37.5775 16.46C38.4895 16.46 39.3115 16.664 40.0435 17.072C40.7755 17.48 41.3455 18.05 41.7535 18.782C42.1735 19.514 42.3835 20.342 42.3835 21.266C42.3835 22.19 42.1735 23.018 41.7535 23.75C41.3455 24.482 40.7755 25.058 40.0435 25.478C39.3115 25.886 38.4895 26.09 37.5775 26.09ZM37.5775 24.956C38.2495 24.956 38.8495 24.806 39.3775 24.506C39.9175 24.194 40.3375 23.756 40.6375 23.192C40.9375 22.628 41.0875 21.986 41.0875 21.266C41.0875 20.546 40.9375 19.904 40.6375 19.34C40.3375 18.776 39.9175 18.344 39.3775 18.044C38.8495 17.732 38.2495 17.576 37.5775 17.576C36.9055 17.576 36.2995 17.732 35.7595 18.044C35.2315 18.344 34.8115 18.776 34.4995 19.34C34.1995 19.904 34.0495 20.546 34.0495 21.266C34.0495 21.986 34.1995 22.628 34.4995 23.192C34.8115 23.756 35.2315 24.194 35.7595 24.506C36.2995 24.806 36.9055 24.956 37.5775 24.956ZM52.2609 16.532V26H50.9829V22.058C49.8909 22.538 48.8169 22.778 47.7609 22.778C46.6209 22.778 45.7329 22.52 45.0969 22.004C44.4609 21.476 44.1429 20.69 44.1429 19.646V16.532H45.4209V19.574C45.4209 20.282 45.6489 20.822 46.1049 21.194C46.5609 21.554 47.1909 21.734 47.9949 21.734C48.8829 21.734 49.8789 21.5 50.9829 21.032V16.532H52.2609ZM64.1703 21.662H56.2503C56.3223 22.646 56.7003 23.444 57.3843 24.056C58.0683 24.656 58.9323 24.956 59.9763 24.956C60.5643 24.956 61.1043 24.854 61.5963 24.65C62.0883 24.434 62.5143 24.122 62.8743 23.714L63.5943 24.542C63.1743 25.046 62.6463 25.43 62.0103 25.694C61.3863 25.958 60.6963 26.09 59.9403 26.09C58.9683 26.09 58.1043 25.886 57.3483 25.478C56.6043 25.058 56.0223 24.482 55.6023 23.75C55.1823 23.018 54.9723 22.19 54.9723 21.266C54.9723 20.342 55.1703 19.514 55.5663 18.782C55.9743 18.05 56.5263 17.48 57.2223 17.072C57.9303 16.664 58.7223 16.46 59.5983 16.46C60.4743 16.46 61.2603 16.664 61.9563 17.072C62.6523 17.48 63.1983 18.05 63.5943 18.782C63.9903 19.502 64.1883 20.33 64.1883 21.266L64.1703 21.662ZM59.5983 17.558C58.6863 17.558 57.9183 17.852 57.2943 18.44C56.6823 19.016 56.3343 19.772 56.2503 20.708H62.9643C62.8803 19.772 62.5263 19.016 61.9023 18.44C61.2903 17.852 60.5223 17.558 59.5983 17.558ZM77.6012 16.532V26H76.4312V18.512L72.5972 24.848H72.0212L68.1872 18.494V26H67.0172V16.532H68.3132L72.3272 23.354L76.4132 16.532H77.6012ZM89.2839 16.532L84.5499 27.134C84.1659 28.022 83.7219 28.652 83.2179 29.024C82.7139 29.396 82.1079 29.582 81.3999 29.582C80.9439 29.582 80.5179 29.51 80.1219 29.366C79.7259 29.222 79.3839 29.006 79.0959 28.718L79.6899 27.764C80.1699 28.244 80.7459 28.484 81.4179 28.484C81.8499 28.484 82.2159 28.364 82.5159 28.124C82.8279 27.884 83.1159 27.476 83.3799 26.9L83.7939 25.982L79.5639 16.532H80.8959L84.4599 24.578L88.0239 16.532H89.2839ZM103.258 16.532V26H102.088V22.868H99.118H98.758L96.562 26H95.176L97.534 22.688C96.802 22.484 96.238 22.136 95.842 21.644C95.446 21.152 95.248 20.528 95.248 19.772C95.248 18.716 95.608 17.912 96.328 17.36C97.048 16.808 98.032 16.532 99.28 16.532H103.258ZM96.544 19.808C96.544 21.212 97.438 21.914 99.226 21.914H102.088V17.666H99.316C97.468 17.666 96.544 18.38 96.544 19.808ZM111.613 16.532H112.891V20.726H118.849V16.532H120.127V26H118.849V21.824H112.891V26H111.613V16.532ZM132.039 21.662H124.119C124.191 22.646 124.569 23.444 125.253 24.056C125.937 24.656 126.801 24.956 127.845 24.956C128.433 24.956 128.973 24.854 129.465 24.65C129.957 24.434 130.383 24.122 130.743 23.714L131.463 24.542C131.043 25.046 130.515 25.43 129.879 25.694C129.255 25.958 128.565 26.09 127.809 26.09C126.837 26.09 125.973 25.886 125.217 25.478C124.473 25.058 123.891 24.482 123.471 23.75C123.051 23.018 122.841 22.19 122.841 21.266C122.841 20.342 123.039 19.514 123.435 18.782C123.843 18.05 124.395 17.48 125.091 17.072C125.799 16.664 126.591 16.46 127.467 16.46C128.343 16.46 129.129 16.664 129.825 17.072C130.521 17.48 131.067 18.05 131.463 18.782C131.859 19.502 132.057 20.33 132.057 21.266L132.039 21.662ZM127.467 17.558C126.555 17.558 125.787 17.852 125.163 18.44C124.551 19.016 124.203 19.772 124.119 20.708H130.833C130.749 19.772 130.395 19.016 129.771 18.44C129.159 17.852 128.391 17.558 127.467 17.558ZM143.557 26.09C142.621 26.09 141.781 25.886 141.037 25.478C140.305 25.07 139.729 24.5 139.309 23.768C138.889 23.024 138.679 22.19 138.679 21.266C138.679 20.342 138.889 19.514 139.309 18.782C139.729 18.05 140.305 17.48 141.037 17.072C141.781 16.664 142.621 16.46 143.557 16.46C144.373 16.46 145.099 16.622 145.735 16.946C146.383 17.258 146.893 17.72 147.265 18.332L146.311 18.98C145.999 18.512 145.603 18.164 145.123 17.936C144.643 17.696 144.121 17.576 143.557 17.576C142.873 17.576 142.255 17.732 141.703 18.044C141.163 18.344 140.737 18.776 140.425 19.34C140.125 19.904 139.975 20.546 139.975 21.266C139.975 21.998 140.125 22.646 140.425 23.21C140.737 23.762 141.163 24.194 141.703 24.506C142.255 24.806 142.873 24.956 143.557 24.956C144.121 24.956 144.643 24.842 145.123 24.614C145.603 24.386 145.999 24.038 146.311 23.57L147.265 24.218C146.893 24.83 146.383 25.298 145.735 25.622C145.087 25.934 144.361 26.09 143.557 26.09ZM158.657 24.884V28.286H157.451V26H148.973V28.286H147.767V24.884H148.307C148.943 24.848 149.375 24.38 149.603 23.48C149.831 22.58 149.987 21.32 150.071 19.7L150.197 16.532H157.181V24.884H158.657ZM151.241 19.772C151.181 21.116 151.067 22.226 150.899 23.102C150.731 23.966 150.431 24.56 149.999 24.884H155.903V17.666H151.349L151.241 19.772ZM169.428 21.662H161.508C161.58 22.646 161.958 23.444 162.642 24.056C163.326 24.656 164.19 24.956 165.234 24.956C165.822 24.956 166.362 24.854 166.854 24.65C167.346 24.434 167.772 24.122 168.132 23.714L168.852 24.542C168.432 25.046 167.904 25.43 167.268 25.694C166.644 25.958 165.954 26.09 165.198 26.09C164.226 26.09 163.362 25.886 162.606 25.478C161.862 25.058 161.28 24.482 160.86 23.75C160.44 23.018 160.23 22.19 160.23 21.266C160.23 20.342 160.428 19.514 160.824 18.782C161.232 18.05 161.784 17.48 162.48 17.072C163.188 16.664 163.98 16.46 164.856 16.46C165.732 16.46 166.518 16.664 167.214 17.072C167.91 17.48 168.456 18.05 168.852 18.782C169.248 19.502 169.446 20.33 169.446 21.266L169.428 21.662ZM164.856 17.558C163.944 17.558 163.176 17.852 162.552 18.44C161.94 19.016 161.592 19.772 161.508 20.708H168.222C168.138 19.772 167.784 19.016 167.16 18.44C166.548 17.852 165.78 17.558 164.856 17.558ZM179.822 16.532V26H178.544V17.666H174.008L173.882 20.006C173.786 21.974 173.558 23.486 173.198 24.542C172.838 25.598 172.196 26.126 171.272 26.126C171.02 26.126 170.714 26.078 170.354 25.982L170.444 24.884C170.66 24.932 170.81 24.956 170.894 24.956C171.386 24.956 171.758 24.728 172.01 24.272C172.262 23.816 172.43 23.252 172.514 22.58C172.598 21.908 172.67 21.02 172.73 19.916L172.892 16.532H179.822ZM186.713 16.46C187.949 16.46 188.897 16.772 189.557 17.396C190.217 18.008 190.547 18.92 190.547 20.132V26H189.323V24.524C189.035 25.016 188.609 25.4 188.045 25.676C187.493 25.952 186.833 26.09 186.065 26.09C185.009 26.09 184.169 25.838 183.545 25.334C182.921 24.83 182.609 24.164 182.609 23.336C182.609 22.532 182.897 21.884 183.473 21.392C184.061 20.9 184.991 20.654 186.263 20.654H189.269V20.078C189.269 19.262 189.041 18.644 188.585 18.224C188.129 17.792 187.463 17.576 186.587 17.576C185.987 17.576 185.411 17.678 184.859 17.882C184.307 18.074 183.833 18.344 183.437 18.692L182.861 17.738C183.341 17.33 183.917 17.018 184.589 16.802C185.261 16.574 185.969 16.46 186.713 16.46ZM186.263 25.082C186.983 25.082 187.601 24.92 188.117 24.596C188.633 24.26 189.017 23.78 189.269 23.156V21.608H186.299C184.679 21.608 183.869 22.172 183.869 23.3C183.869 23.852 184.079 24.29 184.499 24.614C184.919 24.926 185.507 25.082 186.263 25.082ZM201.689 16.532V26H200.411V17.666H195.875L195.749 20.006C195.653 21.974 195.425 23.486 195.065 24.542C194.705 25.598 194.063 26.126 193.139 26.126C192.887 26.126 192.581 26.078 192.221 25.982L192.311 24.884C192.527 24.932 192.677 24.956 192.761 24.956C193.253 24.956 193.625 24.728 193.877 24.272C194.129 23.816 194.297 23.252 194.381 22.58C194.465 21.908 194.537 21.02 194.597 19.916L194.759 16.532H201.689ZM208.58 16.46C209.816 16.46 210.764 16.772 211.424 17.396C212.084 18.008 212.414 18.92 212.414 20.132V26H211.19V24.524C210.902 25.016 210.476 25.4 209.912 25.676C209.36 25.952 208.7 26.09 207.932 26.09C206.876 26.09 206.036 25.838 205.412 25.334C204.788 24.83 204.476 24.164 204.476 23.336C204.476 22.532 204.764 21.884 205.34 21.392C205.928 20.9 206.858 20.654 208.13 20.654H211.136V20.078C211.136 19.262 210.908 18.644 210.452 18.224C209.996 17.792 209.33 17.576 208.454 17.576C207.854 17.576 207.278 17.678 206.726 17.882C206.174 18.074 205.7 18.344 205.304 18.692L204.728 17.738C205.208 17.33 205.784 17.018 206.456 16.802C207.128 16.574 207.836 16.46 208.58 16.46ZM208.13 25.082C208.85 25.082 209.468 24.92 209.984 24.596C210.5 24.26 210.884 23.78 211.136 23.156V21.608H208.166C206.546 21.608 205.736 22.172 205.736 23.3C205.736 23.852 205.946 24.29 206.366 24.614C206.786 24.926 207.374 25.082 208.13 25.082ZM223.101 16.46C224.049 16.46 224.901 16.67 225.657 17.09C226.425 17.498 227.025 18.068 227.457 18.8C227.901 19.532 228.123 20.354 228.123 21.266C228.123 22.178 227.901 23.006 227.457 23.75C227.025 24.482 226.425 25.058 225.657 25.478C224.901 25.898 224.049 26.108 223.101 26.108C222.309 26.108 221.583 25.988 220.923 25.748C220.263 25.496 219.705 25.136 219.249 24.668L220.005 23.912C220.809 24.668 221.823 25.046 223.047 25.046C223.731 25.046 224.349 24.902 224.901 24.614C225.465 24.326 225.921 23.924 226.269 23.408C226.629 22.892 226.839 22.316 226.899 21.68H221.841V20.708H226.881C226.749 19.76 226.329 18.992 225.621 18.404C224.913 17.804 224.055 17.504 223.047 17.504C221.823 17.504 220.809 17.882 220.005 18.638L219.249 17.9C219.705 17.432 220.263 17.078 220.923 16.838C221.583 16.586 222.309 16.46 223.101 16.46ZM237.119 17.666H233.537V26H232.259V17.666H228.677V16.532H237.119V17.666ZM242.433 26.09C241.521 26.09 240.699 25.886 239.967 25.478C239.235 25.058 238.659 24.482 238.239 23.75C237.819 23.018 237.609 22.19 237.609 21.266C237.609 20.342 237.819 19.514 238.239 18.782C238.659 18.05 239.235 17.48 239.967 17.072C240.699 16.664 241.521 16.46 242.433 16.46C243.345 16.46 244.167 16.664 244.899 17.072C245.631 17.48 246.201 18.05 246.609 18.782C247.029 19.514 247.239 20.342 247.239 21.266C247.239 22.19 247.029 23.018 246.609 23.75C246.201 24.482 245.631 25.058 244.899 25.478C244.167 25.886 243.345 26.09 242.433 26.09ZM242.433 24.956C243.105 24.956 243.705 24.806 244.233 24.506C244.773 24.194 245.193 23.756 245.493 23.192C245.793 22.628 245.943 21.986 245.943 21.266C245.943 20.546 245.793 19.904 245.493 19.34C245.193 18.776 244.773 18.344 244.233 18.044C243.705 17.732 243.105 17.576 242.433 17.576C241.761 17.576 241.155 17.732 240.615 18.044C240.087 18.344 239.667 18.776 239.355 19.34C239.055 19.904 238.905 20.546 238.905 21.266C238.905 21.986 239.055 22.628 239.355 23.192C239.667 23.756 240.087 24.194 240.615 24.506C241.155 24.806 241.761 24.956 242.433 24.956ZM259.559 16.46C260.447 16.46 261.251 16.664 261.971 17.072C262.691 17.468 263.255 18.032 263.663 18.764C264.071 19.496 264.275 20.33 264.275 21.266C264.275 22.214 264.071 23.054 263.663 23.786C263.255 24.518 262.691 25.088 261.971 25.496C261.263 25.892 260.459 26.09 259.559 26.09C258.791 26.09 258.095 25.934 257.471 25.622C256.859 25.298 256.355 24.83 255.959 24.218V29.492H254.681V16.532H255.905V18.404C256.289 17.78 256.793 17.3 257.417 16.964C258.053 16.628 258.767 16.46 259.559 16.46ZM259.469 24.956C260.129 24.956 260.729 24.806 261.269 24.506C261.809 24.194 262.229 23.756 262.529 23.192C262.841 22.628 262.997 21.986 262.997 21.266C262.997 20.546 262.841 19.91 262.529 19.358C262.229 18.794 261.809 18.356 261.269 18.044C260.729 17.732 260.129 17.576 259.469 17.576C258.797 17.576 258.191 17.732 257.651 18.044C257.123 18.356 256.703 18.794 256.391 19.358C256.091 19.91 255.941 20.546 255.941 21.266C255.941 21.986 256.091 22.628 256.391 23.192C256.703 23.756 257.123 24.194 257.651 24.506C258.191 24.806 258.797 24.956 259.469 24.956ZM270.226 16.46C271.462 16.46 272.41 16.772 273.07 17.396C273.73 18.008 274.06 18.92 274.06 20.132V26H272.836V24.524C272.548 25.016 272.122 25.4 271.558 25.676C271.006 25.952 270.346 26.09 269.578 26.09C268.522 26.09 267.682 25.838 267.058 25.334C266.434 24.83 266.122 24.164 266.122 23.336C266.122 22.532 266.41 21.884 266.986 21.392C267.574 20.9 268.504 20.654 269.776 20.654H272.782V20.078C272.782 19.262 272.554 18.644 272.098 18.224C271.642 17.792 270.976 17.576 270.1 17.576C269.5 17.576 268.924 17.678 268.372 17.882C267.82 18.074 267.346 18.344 266.95 18.692L266.374 17.738C266.854 17.33 267.43 17.018 268.102 16.802C268.774 16.574 269.482 16.46 270.226 16.46ZM269.776 25.082C270.496 25.082 271.114 24.92 271.63 24.596C272.146 24.26 272.53 23.78 272.782 23.156V21.608H269.812C268.192 21.608 267.382 22.172 267.382 23.3C267.382 23.852 267.592 24.29 268.012 24.614C268.432 24.926 269.02 25.082 269.776 25.082ZM277.463 16.532H278.741V20.726H284.699V16.532H285.977V26H284.699V21.824H278.741V26H277.463V16.532ZM293.677 19.88C294.865 19.892 295.765 20.156 296.377 20.672C297.001 21.188 297.313 21.932 297.313 22.904C297.313 23.912 296.977 24.686 296.305 25.226C295.645 25.766 294.685 26.03 293.425 26.018L289.609 26V16.532H290.887V19.844L293.677 19.88ZM293.353 25.046C294.229 25.058 294.889 24.884 295.333 24.524C295.789 24.152 296.017 23.612 296.017 22.904C296.017 22.208 295.795 21.692 295.351 21.356C294.907 21.02 294.241 20.846 293.353 20.834L290.887 20.798V25.01L293.353 25.046ZM312.82 16.532V26H299.752V16.532H301.03V24.884H305.674V16.532H306.952V24.884H311.542V16.532H312.82ZM324.748 21.662H316.828C316.9 22.646 317.278 23.444 317.962 24.056C318.646 24.656 319.51 24.956 320.554 24.956C321.142 24.956 321.682 24.854 322.174 24.65C322.666 24.434 323.092 24.122 323.452 23.714L324.172 24.542C323.752 25.046 323.224 25.43 322.588 25.694C321.964 25.958 321.274 26.09 320.518 26.09C319.546 26.09 318.682 25.886 317.926 25.478C317.182 25.058 316.6 24.482 316.18 23.75C315.76 23.018 315.55 22.19 315.55 21.266C315.55 20.342 315.748 19.514 316.144 18.782C316.552 18.05 317.104 17.48 317.8 17.072C318.508 16.664 319.3 16.46 320.176 16.46C321.052 16.46 321.838 16.664 322.534 17.072C323.23 17.48 323.776 18.05 324.172 18.782C324.568 19.502 324.766 20.33 324.766 21.266L324.748 21.662ZM320.176 17.558C319.264 17.558 318.496 17.852 317.872 18.44C317.26 19.016 316.912 19.772 316.828 20.708H323.542C323.458 19.772 323.104 19.016 322.48 18.44C321.868 17.852 321.1 17.558 320.176 17.558ZM329.146 22.22C329.146 21.728 329.224 21.296 329.38 20.924C329.548 20.552 329.752 20.234 329.992 19.97C330.232 19.706 330.544 19.406 330.928 19.07C331.444 18.614 331.822 18.218 332.062 17.882C332.314 17.534 332.44 17.114 332.44 16.622C332.44 15.962 332.182 15.434 331.666 15.038C331.15 14.63 330.442 14.426 329.542 14.426C328.054 14.426 326.908 14.912 326.104 15.884L325.15 15.164C326.17 13.916 327.664 13.292 329.632 13.292C330.892 13.292 331.894 13.574 332.638 14.138C333.394 14.702 333.772 15.464 333.772 16.424C333.772 16.916 333.688 17.354 333.52 17.738C333.364 18.11 333.166 18.428 332.926 18.692C332.698 18.956 332.392 19.262 332.008 19.61C331.492 20.078 331.108 20.498 330.856 20.87C330.604 21.23 330.478 21.68 330.478 22.22H329.146ZM329.812 26.09C329.548 26.09 329.326 26 329.146 25.82C328.966 25.628 328.876 25.406 328.876 25.154C328.876 24.89 328.966 24.674 329.146 24.506C329.326 24.326 329.548 24.236 329.812 24.236C330.088 24.236 330.316 24.326 330.496 24.506C330.676 24.674 330.766 24.89 330.766 25.154C330.766 25.406 330.67 25.628 330.478 25.82C330.298 26 330.076 26.09 329.812 26.09Z" fill="white"/>
</svg>
