<svg width="212" height="43" viewBox="0 0 212 43" fill="none" xmlns="http://www.w3.org/2000/svg">
<path d="M212 15C212 6.71573 205.284 0 197 0H15C6.71571 0 -1.52588e-05 6.71573 -1.52588e-05 15V16C-1.52588e-05 24.2843 6.71571 31 15 31H197C205.284 31 212 24.2843 212 16V15Z" fill="#9214A7"/>
<path d="M21.898 10.2V20H20.876V11.096H14.674V20H13.652V10.2H21.898ZM28.0047 20.07C27.2954 20.07 26.6561 19.9113 26.0867 19.594C25.5174 19.2673 25.0694 18.8193 24.7427 18.25C24.4161 17.6807 24.2527 17.0367 24.2527 16.318C24.2527 15.5993 24.4161 14.9553 24.7427 14.386C25.0694 13.8167 25.5174 13.3733 26.0867 13.056C26.6561 12.7387 27.2954 12.58 28.0047 12.58C28.7141 12.58 29.3534 12.7387 29.9227 13.056C30.4921 13.3733 30.9354 13.8167 31.2527 14.386C31.5794 14.9553 31.7427 15.5993 31.7427 16.318C31.7427 17.0367 31.5794 17.6807 31.2527 18.25C30.9354 18.8193 30.4921 19.2673 29.9227 19.594C29.3534 19.9113 28.7141 20.07 28.0047 20.07ZM28.0047 19.188C28.5274 19.188 28.9941 19.0713 29.4047 18.838C29.8247 18.5953 30.1514 18.2547 30.3847 17.816C30.6181 17.3773 30.7347 16.878 30.7347 16.318C30.7347 15.758 30.6181 15.2587 30.3847 14.82C30.1514 14.3813 29.8247 14.0453 29.4047 13.812C28.9941 13.5693 28.5274 13.448 28.0047 13.448C27.4821 13.448 27.0107 13.5693 26.5907 13.812C26.1801 14.0453 25.8534 14.3813 25.6107 14.82C25.3774 15.2587 25.2607 15.758 25.2607 16.318C25.2607 16.878 25.3774 17.3773 25.6107 17.816C25.8534 18.2547 26.1801 18.5953 26.5907 18.838C27.0107 19.0713 27.4821 19.188 28.0047 19.188ZM42.0991 12.636V20H41.1891V14.176L38.2071 19.104H37.7591L34.7771 14.162V20H33.8671V12.636H34.8751L37.9971 17.942L41.1751 12.636H42.0991ZM47.9657 20.07C47.2563 20.07 46.617 19.9113 46.0477 19.594C45.4783 19.2673 45.0303 18.8193 44.7037 18.25C44.377 17.6807 44.2137 17.0367 44.2137 16.318C44.2137 15.5993 44.377 14.9553 44.7037 14.386C45.0303 13.8167 45.4783 13.3733 46.0477 13.056C46.617 12.7387 47.2563 12.58 47.9657 12.58C48.675 12.58 49.3143 12.7387 49.8837 13.056C50.453 13.3733 50.8963 13.8167 51.2137 14.386C51.5403 14.9553 51.7037 15.5993 51.7037 16.318C51.7037 17.0367 51.5403 17.6807 51.2137 18.25C50.8963 18.8193 50.453 19.2673 49.8837 19.594C49.3143 19.9113 48.675 20.07 47.9657 20.07ZM47.9657 19.188C48.4883 19.188 48.955 19.0713 49.3657 18.838C49.7857 18.5953 50.1123 18.2547 50.3457 17.816C50.579 17.3773 50.6957 16.878 50.6957 16.318C50.6957 15.758 50.579 15.2587 50.3457 14.82C50.1123 14.3813 49.7857 14.0453 49.3657 13.812C48.955 13.5693 48.4883 13.448 47.9657 13.448C47.443 13.448 46.9717 13.5693 46.5517 13.812C46.141 14.0453 45.8143 14.3813 45.5717 14.82C45.3383 15.2587 45.2217 15.758 45.2217 16.318C45.2217 16.878 45.3383 17.3773 45.5717 17.816C45.8143 18.2547 46.141 18.5953 46.5517 18.838C46.9717 19.0713 47.443 19.188 47.9657 19.188ZM59.0361 13.518H54.8221V20H53.8281V12.636H59.0361V13.518ZM66.0414 12.636V20H65.0474V13.518H61.5194L61.4214 15.338C61.3468 16.8687 61.1694 18.0447 60.8894 18.866C60.6094 19.6873 60.1101 20.098 59.3914 20.098C59.1954 20.098 58.9574 20.0607 58.6774 19.986L58.7474 19.132C58.9154 19.1693 59.0321 19.188 59.0974 19.188C59.4801 19.188 59.7694 19.0107 59.9654 18.656C60.1614 18.3013 60.2921 17.8627 60.3574 17.34C60.4228 16.8173 60.4788 16.1267 60.5254 15.268L60.6514 12.636H66.0414ZM68.8671 12.636H69.8611V18.488L74.7751 12.636H75.6571V20H74.6631V14.148L69.7631 20H68.8671V12.636ZM88.7779 12.636V20H87.7839V13.518H83.1639V20H82.1699V12.636H88.7779ZM94.6415 20.07C93.9321 20.07 93.2928 19.9113 92.7235 19.594C92.1541 19.2673 91.7061 18.8193 91.3795 18.25C91.0528 17.6807 90.8895 17.0367 90.8895 16.318C90.8895 15.5993 91.0528 14.9553 91.3795 14.386C91.7061 13.8167 92.1541 13.3733 92.7235 13.056C93.2928 12.7387 93.9321 12.58 94.6415 12.58C95.3508 12.58 95.9901 12.7387 96.5595 13.056C97.1288 13.3733 97.5721 13.8167 97.8895 14.386C98.2161 14.9553 98.3795 15.5993 98.3795 16.318C98.3795 17.0367 98.2161 17.6807 97.8895 18.25C97.5721 18.8193 97.1288 19.2673 96.5595 19.594C95.9901 19.9113 95.3508 20.07 94.6415 20.07ZM94.6415 19.188C95.1641 19.188 95.6308 19.0713 96.0415 18.838C96.4615 18.5953 96.7881 18.2547 97.0215 17.816C97.2548 17.3773 97.3715 16.878 97.3715 16.318C97.3715 15.758 97.2548 15.2587 97.0215 14.82C96.7881 14.3813 96.4615 14.0453 96.0415 13.812C95.6308 13.5693 95.1641 13.448 94.6415 13.448C94.1188 13.448 93.6475 13.5693 93.2275 13.812C92.8168 14.0453 92.4901 14.3813 92.2475 14.82C92.0141 15.2587 91.8975 15.758 91.8975 16.318C91.8975 16.878 92.0141 17.3773 92.2475 17.816C92.4901 18.2547 92.8168 18.5953 93.2275 18.838C93.6475 19.0713 94.1188 19.188 94.6415 19.188ZM105.194 16.192C106.193 16.4253 106.692 17.0273 106.692 17.998C106.692 18.642 106.454 19.1367 105.978 19.482C105.502 19.8273 104.793 20 103.85 20H100.504V12.636H103.752C104.592 12.636 105.25 12.7993 105.726 13.126C106.202 13.4527 106.44 13.9193 106.44 14.526C106.44 14.9273 106.328 15.2727 106.104 15.562C105.889 15.842 105.586 16.052 105.194 16.192ZM101.47 15.912H103.682C104.251 15.912 104.685 15.8047 104.984 15.59C105.292 15.3753 105.446 15.0627 105.446 14.652C105.446 14.2413 105.292 13.9333 104.984 13.728C104.685 13.5227 104.251 13.42 103.682 13.42H101.47V15.912ZM103.808 19.216C104.443 19.216 104.919 19.1133 105.236 18.908C105.553 18.7027 105.712 18.3807 105.712 17.942C105.712 17.5033 105.567 17.1813 105.278 16.976C104.989 16.7613 104.531 16.654 103.906 16.654H101.47V19.216H103.808ZM115.461 16.626H109.301C109.357 17.3913 109.651 18.012 110.183 18.488C110.715 18.9547 111.387 19.188 112.199 19.188C112.657 19.188 113.077 19.1087 113.459 18.95C113.842 18.782 114.173 18.5393 114.453 18.222L115.013 18.866C114.687 19.258 114.276 19.5567 113.781 19.762C113.296 19.9673 112.759 20.07 112.171 20.07C111.415 20.07 110.743 19.9113 110.155 19.594C109.577 19.2673 109.124 18.8193 108.797 18.25C108.471 17.6807 108.307 17.0367 108.307 16.318C108.307 15.5993 108.461 14.9553 108.769 14.386C109.087 13.8167 109.516 13.3733 110.057 13.056C110.608 12.7387 111.224 12.58 111.905 12.58C112.587 12.58 113.198 12.7387 113.739 13.056C114.281 13.3733 114.705 13.8167 115.013 14.386C115.321 14.946 115.475 15.59 115.475 16.318L115.461 16.626ZM111.905 13.434C111.196 13.434 110.599 13.6627 110.113 14.12C109.637 14.568 109.367 15.156 109.301 15.884H114.523C114.458 15.156 114.183 14.568 113.697 14.12C113.221 13.6627 112.624 13.434 111.905 13.434ZM121.47 12.58C122.16 12.58 122.786 12.7387 123.346 13.056C123.906 13.364 124.344 13.8027 124.662 14.372C124.979 14.9413 125.138 15.59 125.138 16.318C125.138 17.0553 124.979 17.7087 124.662 18.278C124.344 18.8473 123.906 19.2907 123.346 19.608C122.795 19.916 122.17 20.07 121.47 20.07C120.872 20.07 120.331 19.9487 119.846 19.706C119.37 19.454 118.978 19.09 118.67 18.614V22.716H117.676V12.636H118.628V14.092C118.926 13.6067 119.318 13.2333 119.804 12.972C120.298 12.7107 120.854 12.58 121.47 12.58ZM121.4 19.188C121.913 19.188 122.38 19.0713 122.8 18.838C123.22 18.5953 123.546 18.2547 123.78 17.816C124.022 17.3773 124.144 16.878 124.144 16.318C124.144 15.758 124.022 15.2633 123.78 14.834C123.546 14.3953 123.22 14.0547 122.8 13.812C122.38 13.5693 121.913 13.448 121.4 13.448C120.877 13.448 120.406 13.5693 119.986 13.812C119.575 14.0547 119.248 14.3953 119.006 14.834C118.772 15.2633 118.656 15.758 118.656 16.318C118.656 16.878 118.772 17.3773 119.006 17.816C119.248 18.2547 119.575 18.5953 119.986 18.838C120.406 19.0713 120.877 19.188 121.4 19.188ZM127.273 12.636H128.267V18.488L133.181 12.636H134.063V20H133.069V14.148L128.169 20H127.273V12.636ZM142.092 13.518H139.306V20H138.312V13.518H135.526V12.636H142.092V13.518ZM146.693 15.24C147.617 15.2493 148.317 15.4547 148.793 15.856C149.279 16.2573 149.521 16.836 149.521 17.592C149.521 18.376 149.26 18.978 148.737 19.398C148.224 19.818 147.477 20.0233 146.497 20.014L143.529 20V12.636H144.523V15.212L146.693 15.24ZM146.441 19.258C147.123 19.2673 147.636 19.132 147.981 18.852C148.336 18.5627 148.513 18.1427 148.513 17.592C148.513 17.0507 148.341 16.6493 147.995 16.388C147.65 16.1267 147.132 15.9913 146.441 15.982L144.523 15.954V19.23L146.441 19.258ZM159.772 16.192C160.771 16.4253 161.27 17.0273 161.27 17.998C161.27 18.642 161.032 19.1367 160.556 19.482C160.08 19.8273 159.371 20 158.428 20H155.082V12.636H158.33C159.17 12.636 159.828 12.7993 160.304 13.126C160.78 13.4527 161.018 13.9193 161.018 14.526C161.018 14.9273 160.906 15.2727 160.682 15.562C160.467 15.842 160.164 16.052 159.772 16.192ZM156.048 15.912H158.26C158.829 15.912 159.263 15.8047 159.562 15.59C159.87 15.3753 160.024 15.0627 160.024 14.652C160.024 14.2413 159.87 13.9333 159.562 13.728C159.263 13.5227 158.829 13.42 158.26 13.42H156.048V15.912ZM158.386 19.216C159.021 19.216 159.497 19.1133 159.814 18.908C160.131 18.7027 160.29 18.3807 160.29 17.942C160.29 17.5033 160.145 17.1813 159.856 16.976C159.567 16.7613 159.109 16.654 158.484 16.654H156.048V19.216H158.386ZM170.344 20.07C169.616 20.07 168.962 19.9113 168.384 19.594C167.814 19.2767 167.366 18.8333 167.04 18.264C166.713 17.6853 166.55 17.0367 166.55 16.318C166.55 15.5993 166.713 14.9553 167.04 14.386C167.366 13.8167 167.814 13.3733 168.384 13.056C168.962 12.7387 169.616 12.58 170.344 12.58C170.978 12.58 171.543 12.706 172.038 12.958C172.542 13.2007 172.938 13.56 173.228 14.036L172.486 14.54C172.243 14.176 171.935 13.9053 171.562 13.728C171.188 13.5413 170.782 13.448 170.344 13.448C169.812 13.448 169.331 13.5693 168.902 13.812C168.482 14.0453 168.15 14.3813 167.908 14.82C167.674 15.2587 167.558 15.758 167.558 16.318C167.558 16.8873 167.674 17.3913 167.908 17.83C168.15 18.2593 168.482 18.5953 168.902 18.838C169.331 19.0713 169.812 19.188 170.344 19.188C170.782 19.188 171.188 19.0993 171.562 18.922C171.935 18.7447 172.243 18.474 172.486 18.11L173.228 18.614C172.938 19.09 172.542 19.454 172.038 19.706C171.534 19.9487 170.969 20.07 170.344 20.07ZM181.469 16.626H175.309C175.365 17.3913 175.659 18.012 176.191 18.488C176.723 18.9547 177.395 19.188 178.207 19.188C178.665 19.188 179.085 19.1087 179.467 18.95C179.85 18.782 180.181 18.5393 180.461 18.222L181.021 18.866C180.695 19.258 180.284 19.5567 179.789 19.762C179.304 19.9673 178.767 20.07 178.179 20.07C177.423 20.07 176.751 19.9113 176.163 19.594C175.585 19.2673 175.132 18.8193 174.805 18.25C174.479 17.6807 174.315 17.0367 174.315 16.318C174.315 15.5993 174.469 14.9553 174.777 14.386C175.095 13.8167 175.524 13.3733 176.065 13.056C176.616 12.7387 177.232 12.58 177.913 12.58C178.595 12.58 179.206 12.7387 179.747 13.056C180.289 13.3733 180.713 13.8167 181.021 14.386C181.329 14.946 181.483 15.59 181.483 16.318L181.469 16.626ZM177.913 13.434C177.204 13.434 176.607 13.6627 176.121 14.12C175.645 14.568 175.375 15.156 175.309 15.884H180.531C180.466 15.156 180.191 14.568 179.705 14.12C179.229 13.6627 178.632 13.434 177.913 13.434ZM187.254 12.818C187.935 12.818 188.542 12.972 189.074 13.28C189.615 13.5787 190.035 14.0033 190.334 14.554C190.632 15.0953 190.782 15.716 190.782 16.416C190.782 17.1347 190.623 17.774 190.306 18.334C189.998 18.8847 189.564 19.314 189.004 19.622C188.444 19.93 187.8 20.084 187.072 20.084C185.849 20.084 184.902 19.6547 184.23 18.796C183.558 17.9373 183.222 16.752 183.222 15.24C183.222 13.6627 183.52 12.454 184.118 11.614C184.724 10.774 185.667 10.2047 186.946 9.906L190.25 9.15L190.418 10.06L187.31 10.774C186.255 11.0073 185.48 11.4227 184.986 12.02C184.491 12.608 184.22 13.4807 184.174 14.638C184.472 14.0687 184.888 13.6253 185.42 13.308C185.952 12.9813 186.563 12.818 187.254 12.818ZM187.1 19.258C187.613 19.258 188.07 19.1413 188.472 18.908C188.882 18.6653 189.2 18.3293 189.424 17.9C189.657 17.4707 189.774 16.9853 189.774 16.444C189.774 15.9027 189.662 15.4267 189.438 15.016C189.214 14.6053 188.896 14.288 188.486 14.064C188.084 13.8307 187.622 13.714 187.1 13.714C186.577 13.714 186.11 13.8307 185.7 14.064C185.298 14.288 184.981 14.6053 184.748 15.016C184.524 15.4267 184.412 15.9027 184.412 16.444C184.412 16.9853 184.524 17.4707 184.748 17.9C184.981 18.3293 185.303 18.6653 185.714 18.908C186.124 19.1413 186.586 19.258 187.1 19.258ZM198.308 12.636V20H197.398V17.564H195.088H194.808L193.1 20H192.022L193.856 17.424C193.287 17.2653 192.848 16.9947 192.54 16.612C192.232 16.2293 192.078 15.744 192.078 15.156C192.078 14.3347 192.358 13.7093 192.918 13.28C193.478 12.8507 194.244 12.636 195.214 12.636H198.308ZM193.086 15.184C193.086 16.276 193.782 16.822 195.172 16.822H197.398V13.518H195.242C193.805 13.518 193.086 14.0733 193.086 15.184Z" fill="white"/>
<path d="M157 43L150.938 29.5H163.062L157 43Z" fill="#9214A7"/>
</svg>
