<svg width="233" height="56" viewBox="0 0 233 56" fill="none" xmlns="http://www.w3.org/2000/svg">
<path d="M233 15C233 6.71573 226.284 0 218 0H15C6.71573 0 0 6.71573 0 15V24C0 32.2843 6.71573 39 15 39H233V15Z" fill="#9214A7"/>
<path d="M233 56V39H220L233 56Z" fill="#9214A7"/>
<path d="M25.632 26.108C24.384 26.108 23.256 25.832 22.248 25.28C21.252 24.728 20.466 23.966 19.89 22.994C19.326 22.01 19.044 20.912 19.044 19.7C19.044 18.488 19.326 17.396 19.89 16.424C20.466 15.44 21.258 14.672 22.266 14.12C23.274 13.568 24.402 13.292 25.65 13.292C26.586 13.292 27.45 13.448 28.242 13.76C29.034 14.072 29.706 14.528 30.258 15.128L29.412 15.974C28.428 14.978 27.186 14.48 25.686 14.48C24.69 14.48 23.784 14.708 22.968 15.164C22.152 15.62 21.51 16.244 21.042 17.036C20.586 17.828 20.358 18.716 20.358 19.7C20.358 20.684 20.586 21.572 21.042 22.364C21.51 23.156 22.152 23.78 22.968 24.236C23.784 24.692 24.69 24.92 25.686 24.92C27.198 24.92 28.44 24.416 29.412 23.408L30.258 24.254C29.706 24.854 29.028 25.316 28.224 25.64C27.432 25.952 26.568 26.108 25.632 26.108ZM41.1988 16.532V26H39.9208V17.666H33.9808V26H32.7028V16.532H41.1988ZM48.0897 16.46C49.3257 16.46 50.2737 16.772 50.9337 17.396C51.5937 18.008 51.9237 18.92 51.9237 20.132V26H50.6997V24.524C50.4117 25.016 49.9857 25.4 49.4217 25.676C48.8697 25.952 48.2097 26.09 47.4417 26.09C46.3857 26.09 45.5457 25.838 44.9217 25.334C44.2977 24.83 43.9857 24.164 43.9857 23.336C43.9857 22.532 44.2737 21.884 44.8497 21.392C45.4377 20.9 46.3677 20.654 47.6397 20.654H50.6457V20.078C50.6457 19.262 50.4177 18.644 49.9617 18.224C49.5057 17.792 48.8397 17.576 47.9637 17.576C47.3637 17.576 46.7877 17.678 46.2357 17.882C45.6837 18.074 45.2097 18.344 44.8137 18.692L44.2377 17.738C44.7177 17.33 45.2937 17.018 45.9657 16.802C46.6377 16.574 47.3457 16.46 48.0897 16.46ZM47.6397 25.082C48.3597 25.082 48.9777 24.92 49.4937 24.596C50.0097 24.26 50.3937 23.78 50.6457 23.156V21.608H47.6757C46.0557 21.608 45.2457 22.172 45.2457 23.3C45.2457 23.852 45.4557 24.29 45.8757 24.614C46.2957 24.926 46.8837 25.082 47.6397 25.082ZM59.2858 26.09C58.3498 26.09 57.5098 25.886 56.7658 25.478C56.0338 25.07 55.4578 24.5 55.0378 23.768C54.6178 23.024 54.4078 22.19 54.4078 21.266C54.4078 20.342 54.6178 19.514 55.0378 18.782C55.4578 18.05 56.0338 17.48 56.7658 17.072C57.5098 16.664 58.3498 16.46 59.2858 16.46C60.1018 16.46 60.8278 16.622 61.4638 16.946C62.1118 17.258 62.6218 17.72 62.9938 18.332L62.0398 18.98C61.7278 18.512 61.3318 18.164 60.8518 17.936C60.3718 17.696 59.8498 17.576 59.2858 17.576C58.6018 17.576 57.9838 17.732 57.4318 18.044C56.8918 18.344 56.4658 18.776 56.1538 19.34C55.8538 19.904 55.7038 20.546 55.7038 21.266C55.7038 21.998 55.8538 22.646 56.1538 23.21C56.4658 23.762 56.8918 24.194 57.4318 24.506C57.9838 24.806 58.6018 24.956 59.2858 24.956C59.8498 24.956 60.3718 24.842 60.8518 24.614C61.3318 24.386 61.7278 24.038 62.0398 23.57L62.9938 24.218C62.6218 24.83 62.1118 25.298 61.4638 25.622C60.8158 25.934 60.0898 26.09 59.2858 26.09ZM72.892 16.532V26H71.614V17.666H67.078L66.952 20.006C66.856 21.974 66.628 23.486 66.268 24.542C65.908 25.598 65.266 26.126 64.342 26.126C64.09 26.126 63.784 26.078 63.424 25.982L63.514 24.884C63.73 24.932 63.88 24.956 63.964 24.956C64.456 24.956 64.828 24.728 65.08 24.272C65.332 23.816 65.5 23.252 65.584 22.58C65.668 21.908 65.74 21.02 65.8 19.916L65.962 16.532H72.892ZM76.525 16.532H77.803V24.056L84.121 16.532H85.255V26H83.977V18.476L77.677 26H76.525V16.532ZM104.213 16.532V26H103.043V18.512L99.2085 24.848H98.6325L94.7985 18.494V26H93.6285V16.532H94.9245L98.9385 23.354L103.025 16.532H104.213ZM111.755 26.09C110.843 26.09 110.021 25.886 109.289 25.478C108.557 25.058 107.981 24.482 107.561 23.75C107.141 23.018 106.931 22.19 106.931 21.266C106.931 20.342 107.141 19.514 107.561 18.782C107.981 18.05 108.557 17.48 109.289 17.072C110.021 16.664 110.843 16.46 111.755 16.46C112.667 16.46 113.489 16.664 114.221 17.072C114.953 17.48 115.523 18.05 115.931 18.782C116.351 19.514 116.561 20.342 116.561 21.266C116.561 22.19 116.351 23.018 115.931 23.75C115.523 24.482 114.953 25.058 114.221 25.478C113.489 25.886 112.667 26.09 111.755 26.09ZM111.755 24.956C112.427 24.956 113.027 24.806 113.555 24.506C114.095 24.194 114.515 23.756 114.815 23.192C115.115 22.628 115.265 21.986 115.265 21.266C115.265 20.546 115.115 19.904 114.815 19.34C114.515 18.776 114.095 18.344 113.555 18.044C113.027 17.732 112.427 17.576 111.755 17.576C111.083 17.576 110.477 17.732 109.937 18.044C109.409 18.344 108.989 18.776 108.677 19.34C108.377 19.904 108.227 20.546 108.227 21.266C108.227 21.986 108.377 22.628 108.677 23.192C108.989 23.756 109.409 24.194 109.937 24.506C110.477 24.806 111.083 24.956 111.755 24.956ZM127.429 16.46C128.317 16.46 129.115 16.664 129.823 17.072C130.543 17.48 131.107 18.05 131.515 18.782C131.923 19.514 132.127 20.342 132.127 21.266C132.127 22.19 131.923 23.018 131.515 23.75C131.107 24.482 130.543 25.058 129.823 25.478C129.115 25.886 128.317 26.09 127.429 26.09C126.589 26.09 125.827 25.91 125.143 25.55C124.459 25.178 123.901 24.668 123.469 24.02C123.049 23.372 122.803 22.628 122.731 21.788H120.571V26H119.293V16.532H120.571V20.618H122.749C122.845 19.802 123.103 19.082 123.523 18.458C123.955 17.822 124.507 17.33 125.179 16.982C125.851 16.634 126.601 16.46 127.429 16.46ZM127.429 24.974C128.077 24.974 128.659 24.818 129.175 24.506C129.703 24.194 130.117 23.756 130.417 23.192C130.717 22.628 130.867 21.986 130.867 21.266C130.867 20.546 130.717 19.904 130.417 19.34C130.117 18.776 129.703 18.344 129.175 18.044C128.659 17.732 128.077 17.576 127.429 17.576C126.781 17.576 126.193 17.732 125.665 18.044C125.149 18.344 124.741 18.776 124.441 19.34C124.141 19.904 123.991 20.546 123.991 21.266C123.991 21.986 124.141 22.628 124.441 23.192C124.741 23.756 125.149 24.194 125.665 24.506C126.193 24.818 126.781 24.974 127.429 24.974ZM148.074 16.532V26H146.796V17.666H140.856V26H139.578V16.532H148.074ZM155.667 26.09C154.731 26.09 153.891 25.886 153.147 25.478C152.415 25.07 151.839 24.5 151.419 23.768C150.999 23.024 150.789 22.19 150.789 21.266C150.789 20.342 150.999 19.514 151.419 18.782C151.839 18.05 152.415 17.48 153.147 17.072C153.891 16.664 154.731 16.46 155.667 16.46C156.483 16.46 157.209 16.622 157.845 16.946C158.493 17.258 159.003 17.72 159.375 18.332L158.421 18.98C158.109 18.512 157.713 18.164 157.233 17.936C156.753 17.696 156.231 17.576 155.667 17.576C154.983 17.576 154.365 17.732 153.813 18.044C153.273 18.344 152.847 18.776 152.535 19.34C152.235 19.904 152.085 20.546 152.085 21.266C152.085 21.998 152.235 22.646 152.535 23.21C152.847 23.762 153.273 24.194 153.813 24.506C154.365 24.806 154.983 24.956 155.667 24.956C156.231 24.956 156.753 24.842 157.233 24.614C157.713 24.386 158.109 24.038 158.421 23.57L159.375 24.218C159.003 24.83 158.493 25.298 157.845 25.622C157.197 25.934 156.471 26.09 155.667 26.09ZM161.849 16.532H163.127V24.056L169.445 16.532H170.579V26H169.301V18.476L163.001 26H161.849V16.532ZM180.164 26L177.158 22.04L174.134 26H172.694L176.438 21.14L172.874 16.532H174.314L177.158 20.24L180.002 16.532H181.406L177.842 21.14L181.622 26H180.164ZM183.716 16.532H184.994V24.056L191.312 16.532H192.446V26H191.168V18.476L184.868 26H183.716V16.532ZM199.547 21.788H197.387V26H196.109V16.532H197.387V20.69H199.565L202.895 16.532H204.281L200.555 21.122L204.551 26H203.039L199.547 21.788ZM214.069 16.532L209.335 27.134C208.951 28.022 208.507 28.652 208.003 29.024C207.499 29.396 206.893 29.582 206.185 29.582C205.729 29.582 205.303 29.51 204.907 29.366C204.511 29.222 204.169 29.006 203.881 28.718L204.475 27.764C204.955 28.244 205.531 28.484 206.203 28.484C206.635 28.484 207.001 28.364 207.301 28.124C207.613 27.884 207.901 27.476 208.165 26.9L208.579 25.982L204.349 16.532H205.681L209.245 24.578L212.809 16.532H214.069Z" fill="white"/>
</svg>
