<svg width="325" height="56" viewBox="0 0 325 56" fill="none" xmlns="http://www.w3.org/2000/svg">
<path d="M325 15C325 6.71573 318.284 0 310 0H15C6.71573 0 0 6.71573 0 15V24C0 32.2843 6.71573 39 15 39H325V15Z" fill="#9214A7"/>
<path d="M325 56V39H312L325 56Z" fill="#9214A7"/>
<path d="M20.25 13.4L23.832 18.386L27.396 13.4H28.962L24.66 19.448L29.304 26H27.738L23.832 20.582L19.926 26H18.396L23.022 19.502L18.72 13.4H20.25ZM34.8861 26.09C33.9741 26.09 33.1521 25.886 32.4201 25.478C31.6881 25.058 31.1121 24.482 30.6921 23.75C30.2721 23.018 30.0621 22.19 30.0621 21.266C30.0621 20.342 30.2721 19.514 30.6921 18.782C31.1121 18.05 31.6881 17.48 32.4201 17.072C33.1521 16.664 33.9741 16.46 34.8861 16.46C35.7981 16.46 36.6201 16.664 37.3521 17.072C38.0841 17.48 38.6541 18.05 39.0621 18.782C39.4821 19.514 39.6921 20.342 39.6921 21.266C39.6921 22.19 39.4821 23.018 39.0621 23.75C38.6541 24.482 38.0841 25.058 37.3521 25.478C36.6201 25.886 35.7981 26.09 34.8861 26.09ZM34.8861 24.956C35.5581 24.956 36.1581 24.806 36.6861 24.506C37.2261 24.194 37.6461 23.756 37.9461 23.192C38.2461 22.628 38.3961 21.986 38.3961 21.266C38.3961 20.546 38.2461 19.904 37.9461 19.34C37.6461 18.776 37.2261 18.344 36.6861 18.044C36.1581 17.732 35.5581 17.576 34.8861 17.576C34.2141 17.576 33.6081 17.732 33.0681 18.044C32.5401 18.344 32.1201 18.776 31.8081 19.34C31.5081 19.904 31.3581 20.546 31.3581 21.266C31.3581 21.986 31.5081 22.628 31.8081 23.192C32.1201 23.756 32.5401 24.194 33.0681 24.506C33.6081 24.806 34.2141 24.956 34.8861 24.956ZM49.5695 16.532V26H48.2915V22.058C47.1995 22.538 46.1255 22.778 45.0695 22.778C43.9295 22.778 43.0415 22.52 42.4055 22.004C41.7695 21.476 41.4515 20.69 41.4515 19.646V16.532H42.7295V19.574C42.7295 20.282 42.9575 20.822 43.4135 21.194C43.8695 21.554 44.4995 21.734 45.3035 21.734C46.1915 21.734 47.1875 21.5 48.2915 21.032V16.532H49.5695ZM61.2449 16.532L56.5109 27.134C56.1269 28.022 55.6829 28.652 55.1789 29.024C54.6749 29.396 54.0689 29.582 53.3609 29.582C52.9049 29.582 52.4789 29.51 52.0829 29.366C51.6869 29.222 51.3449 29.006 51.0569 28.718L51.6509 27.764C52.1309 28.244 52.7069 28.484 53.3789 28.484C53.8109 28.484 54.1769 28.364 54.4769 28.124C54.7889 27.884 55.0769 27.476 55.3409 26.9L55.7549 25.982L51.5249 16.532H52.8569L56.4209 24.578L59.9849 16.532H61.2449ZM76.4429 16.532V26H75.1649V17.666H69.2249V26H67.9469V16.532H76.4429ZM83.9818 26.09C83.0698 26.09 82.2478 25.886 81.5158 25.478C80.7838 25.058 80.2078 24.482 79.7878 23.75C79.3678 23.018 79.1578 22.19 79.1578 21.266C79.1578 20.342 79.3678 19.514 79.7878 18.782C80.2078 18.05 80.7838 17.48 81.5158 17.072C82.2478 16.664 83.0698 16.46 83.9818 16.46C84.8938 16.46 85.7158 16.664 86.4478 17.072C87.1798 17.48 87.7498 18.05 88.1578 18.782C88.5778 19.514 88.7878 20.342 88.7878 21.266C88.7878 22.19 88.5778 23.018 88.1578 23.75C87.7498 24.482 87.1798 25.058 86.4478 25.478C85.7158 25.886 84.8938 26.09 83.9818 26.09ZM83.9818 24.956C84.6538 24.956 85.2538 24.806 85.7818 24.506C86.3218 24.194 86.7418 23.756 87.0418 23.192C87.3418 22.628 87.4918 21.986 87.4918 21.266C87.4918 20.546 87.3418 19.904 87.0418 19.34C86.7418 18.776 86.3218 18.344 85.7818 18.044C85.2538 17.732 84.6538 17.576 83.9818 17.576C83.3098 17.576 82.7038 17.732 82.1638 18.044C81.6358 18.344 81.2158 18.776 80.9038 19.34C80.6038 19.904 80.4538 20.546 80.4538 21.266C80.4538 21.986 80.6038 22.628 80.9038 23.192C81.2158 23.756 81.6358 24.194 82.1638 24.506C82.7038 24.806 83.3098 24.956 83.9818 24.956ZM97.5492 21.104C98.8332 21.404 99.4752 22.178 99.4752 23.426C99.4752 24.254 99.1692 24.89 98.5572 25.334C97.9452 25.778 97.0332 26 95.8212 26H91.5192V16.532H95.6952C96.7752 16.532 97.6212 16.742 98.2332 17.162C98.8452 17.582 99.1512 18.182 99.1512 18.962C99.1512 19.478 99.0072 19.922 98.7192 20.294C98.4432 20.654 98.0532 20.924 97.5492 21.104ZM92.7612 20.744H95.6052C96.3372 20.744 96.8952 20.606 97.2792 20.33C97.6752 20.054 97.8732 19.652 97.8732 19.124C97.8732 18.596 97.6752 18.2 97.2792 17.936C96.8952 17.672 96.3372 17.54 95.6052 17.54H92.7612V20.744ZM95.7672 24.992C96.5832 24.992 97.1952 24.86 97.6032 24.596C98.0112 24.332 98.2152 23.918 98.2152 23.354C98.2152 22.79 98.0292 22.376 97.6572 22.112C97.2852 21.836 96.6972 21.698 95.8932 21.698H92.7612V24.992H95.7672ZM109.13 17.666H105.548V26H104.27V17.666H100.688V16.532H109.13V17.666ZM114.445 26.09C113.533 26.09 112.711 25.886 111.979 25.478C111.247 25.058 110.671 24.482 110.251 23.75C109.831 23.018 109.621 22.19 109.621 21.266C109.621 20.342 109.831 19.514 110.251 18.782C110.671 18.05 111.247 17.48 111.979 17.072C112.711 16.664 113.533 16.46 114.445 16.46C115.357 16.46 116.179 16.664 116.911 17.072C117.643 17.48 118.213 18.05 118.621 18.782C119.041 19.514 119.251 20.342 119.251 21.266C119.251 22.19 119.041 23.018 118.621 23.75C118.213 24.482 117.643 25.058 116.911 25.478C116.179 25.886 115.357 26.09 114.445 26.09ZM114.445 24.956C115.117 24.956 115.717 24.806 116.245 24.506C116.785 24.194 117.205 23.756 117.505 23.192C117.805 22.628 117.955 21.986 117.955 21.266C117.955 20.546 117.805 19.904 117.505 19.34C117.205 18.776 116.785 18.344 116.245 18.044C115.717 17.732 115.117 17.576 114.445 17.576C113.773 17.576 113.167 17.732 112.627 18.044C112.099 18.344 111.679 18.776 111.367 19.34C111.067 19.904 110.917 20.546 110.917 21.266C110.917 21.986 111.067 22.628 111.367 23.192C111.679 23.756 112.099 24.194 112.627 24.506C113.167 24.806 113.773 24.956 114.445 24.956ZM126.86 16.46C127.748 16.46 128.552 16.664 129.272 17.072C129.992 17.468 130.556 18.032 130.964 18.764C131.372 19.496 131.576 20.33 131.576 21.266C131.576 22.214 131.372 23.054 130.964 23.786C130.556 24.518 129.992 25.088 129.272 25.496C128.564 25.892 127.76 26.09 126.86 26.09C126.092 26.09 125.396 25.934 124.772 25.622C124.16 25.298 123.656 24.83 123.26 24.218V29.492H121.982V16.532H123.206V18.404C123.59 17.78 124.094 17.3 124.718 16.964C125.354 16.628 126.068 16.46 126.86 16.46ZM126.77 24.956C127.43 24.956 128.03 24.806 128.57 24.506C129.11 24.194 129.53 23.756 129.83 23.192C130.142 22.628 130.298 21.986 130.298 21.266C130.298 20.546 130.142 19.91 129.83 19.358C129.53 18.794 129.11 18.356 128.57 18.044C128.03 17.732 127.43 17.576 126.77 17.576C126.098 17.576 125.492 17.732 124.952 18.044C124.424 18.356 124.004 18.794 123.692 19.358C123.392 19.91 123.242 20.546 123.242 21.266C123.242 21.986 123.392 22.628 123.692 23.192C124.004 23.756 124.424 24.194 124.952 24.506C125.492 24.806 126.098 24.956 126.77 24.956ZM134.322 16.532H135.6V24.056L141.918 16.532H143.052V26H141.774V18.476L135.474 26H134.322V16.532ZM153.374 17.666H149.792V26H148.514V17.666H144.932V16.532H153.374V17.666ZM159.29 19.88C160.478 19.892 161.378 20.156 161.99 20.672C162.614 21.188 162.926 21.932 162.926 22.904C162.926 23.912 162.59 24.686 161.918 25.226C161.258 25.766 160.298 26.03 159.038 26.018L155.222 26V16.532H156.5V19.844L159.29 19.88ZM158.966 25.046C159.842 25.058 160.502 24.884 160.946 24.524C161.402 24.152 161.63 23.612 161.63 22.904C161.63 22.208 161.408 21.692 160.964 21.356C160.52 21.02 159.854 20.846 158.966 20.834L156.5 20.798V25.01L158.966 25.046ZM177.222 16.532V26H175.944V22.058C174.852 22.538 173.778 22.778 172.722 22.778C171.582 22.778 170.694 22.52 170.058 22.004C169.422 21.476 169.104 20.69 169.104 19.646V16.532H170.382V19.574C170.382 20.282 170.61 20.822 171.066 21.194C171.522 21.554 172.152 21.734 172.956 21.734C173.844 21.734 174.84 21.5 175.944 21.032V16.532H177.222ZM189.131 21.662H181.211C181.283 22.646 181.661 23.444 182.345 24.056C183.029 24.656 183.893 24.956 184.937 24.956C185.525 24.956 186.065 24.854 186.557 24.65C187.049 24.434 187.475 24.122 187.835 23.714L188.555 24.542C188.135 25.046 187.607 25.43 186.971 25.694C186.347 25.958 185.657 26.09 184.901 26.09C183.929 26.09 183.065 25.886 182.309 25.478C181.565 25.058 180.983 24.482 180.563 23.75C180.143 23.018 179.933 22.19 179.933 21.266C179.933 20.342 180.131 19.514 180.527 18.782C180.935 18.05 181.487 17.48 182.183 17.072C182.891 16.664 183.683 16.46 184.559 16.46C185.435 16.46 186.221 16.664 186.917 17.072C187.613 17.48 188.159 18.05 188.555 18.782C188.951 19.502 189.149 20.33 189.149 21.266L189.131 21.662ZM184.559 17.558C183.647 17.558 182.879 17.852 182.255 18.44C181.643 19.016 181.295 19.772 181.211 20.708H187.925C187.841 19.772 187.487 19.016 186.863 18.44C186.251 17.852 185.483 17.558 184.559 17.558ZM196.856 16.46C197.744 16.46 198.548 16.664 199.268 17.072C199.988 17.468 200.552 18.032 200.96 18.764C201.368 19.496 201.572 20.33 201.572 21.266C201.572 22.214 201.368 23.054 200.96 23.786C200.552 24.518 199.988 25.088 199.268 25.496C198.56 25.892 197.756 26.09 196.856 26.09C196.088 26.09 195.392 25.934 194.768 25.622C194.156 25.298 193.652 24.83 193.256 24.218V29.492H191.978V16.532H193.202V18.404C193.586 17.78 194.09 17.3 194.714 16.964C195.35 16.628 196.064 16.46 196.856 16.46ZM196.766 24.956C197.426 24.956 198.026 24.806 198.566 24.506C199.106 24.194 199.526 23.756 199.826 23.192C200.138 22.628 200.294 21.986 200.294 21.266C200.294 20.546 200.138 19.91 199.826 19.358C199.526 18.794 199.106 18.356 198.566 18.044C198.026 17.732 197.426 17.576 196.766 17.576C196.094 17.576 195.488 17.732 194.948 18.044C194.42 18.356 194 18.794 193.688 19.358C193.388 19.91 193.238 20.546 193.238 21.266C193.238 21.986 193.388 22.628 193.688 23.192C194 23.756 194.42 24.194 194.948 24.506C195.488 24.806 196.094 24.956 196.766 24.956ZM212.598 21.662H204.678C204.75 22.646 205.128 23.444 205.812 24.056C206.496 24.656 207.36 24.956 208.404 24.956C208.992 24.956 209.532 24.854 210.024 24.65C210.516 24.434 210.942 24.122 211.302 23.714L212.022 24.542C211.602 25.046 211.074 25.43 210.438 25.694C209.814 25.958 209.124 26.09 208.368 26.09C207.396 26.09 206.532 25.886 205.776 25.478C205.032 25.058 204.45 24.482 204.03 23.75C203.61 23.018 203.4 22.19 203.4 21.266C203.4 20.342 203.598 19.514 203.994 18.782C204.402 18.05 204.954 17.48 205.65 17.072C206.358 16.664 207.15 16.46 208.026 16.46C208.902 16.46 209.688 16.664 210.384 17.072C211.08 17.48 211.626 18.05 212.022 18.782C212.418 19.502 212.616 20.33 212.616 21.266L212.598 21.662ZM208.026 17.558C207.114 17.558 206.346 17.852 205.722 18.44C205.11 19.016 204.762 19.772 204.678 20.708H211.392C211.308 19.772 210.954 19.016 210.33 18.44C209.718 17.852 208.95 17.558 208.026 17.558ZM219.789 21.068C220.461 21.224 220.977 21.494 221.337 21.878C221.709 22.262 221.895 22.73 221.895 23.282C221.895 23.834 221.703 24.326 221.319 24.758C220.947 25.19 220.437 25.526 219.789 25.766C219.141 25.994 218.427 26.108 217.647 26.108C216.963 26.108 216.291 26.012 215.631 25.82C214.971 25.616 214.395 25.322 213.903 24.938L214.335 23.984C214.767 24.308 215.271 24.56 215.847 24.74C216.423 24.92 217.005 25.01 217.593 25.01C218.469 25.01 219.183 24.848 219.735 24.524C220.299 24.188 220.581 23.738 220.581 23.174C220.581 22.67 220.353 22.28 219.897 22.004C219.441 21.716 218.817 21.572 218.025 21.572H216.405V20.636H217.953C218.661 20.636 219.231 20.504 219.663 20.24C220.095 19.964 220.311 19.598 220.311 19.142C220.311 18.638 220.065 18.242 219.573 17.954C219.093 17.666 218.463 17.522 217.683 17.522C216.663 17.522 215.655 17.78 214.659 18.296L214.299 17.306C215.427 16.718 216.597 16.424 217.809 16.424C218.529 16.424 219.177 16.532 219.753 16.748C220.341 16.952 220.797 17.246 221.121 17.63C221.457 18.014 221.625 18.458 221.625 18.962C221.625 19.442 221.457 19.868 221.121 20.24C220.797 20.612 220.353 20.888 219.789 21.068ZM238.003 16.532V26H236.725V17.666H230.785V26H229.507V16.532H238.003ZM244.894 16.46C246.13 16.46 247.078 16.772 247.738 17.396C248.398 18.008 248.728 18.92 248.728 20.132V26H247.504V24.524C247.216 25.016 246.79 25.4 246.226 25.676C245.674 25.952 245.014 26.09 244.246 26.09C243.19 26.09 242.35 25.838 241.726 25.334C241.102 24.83 240.79 24.164 240.79 23.336C240.79 22.532 241.078 21.884 241.654 21.392C242.242 20.9 243.172 20.654 244.444 20.654H247.45V20.078C247.45 19.262 247.222 18.644 246.766 18.224C246.31 17.792 245.644 17.576 244.768 17.576C244.168 17.576 243.592 17.678 243.04 17.882C242.488 18.074 242.014 18.344 241.618 18.692L241.042 17.738C241.522 17.33 242.098 17.018 242.77 16.802C243.442 16.574 244.15 16.46 244.894 16.46ZM244.444 25.082C245.164 25.082 245.782 24.92 246.298 24.596C246.814 24.26 247.198 23.78 247.45 23.156V21.608H244.48C242.86 21.608 242.05 22.172 242.05 23.3C242.05 23.852 242.26 24.29 242.68 24.614C243.1 24.926 243.688 25.082 244.444 25.082ZM257.009 16.46C257.897 16.46 258.701 16.664 259.421 17.072C260.141 17.468 260.705 18.032 261.113 18.764C261.521 19.496 261.725 20.33 261.725 21.266C261.725 22.214 261.521 23.054 261.113 23.786C260.705 24.518 260.141 25.088 259.421 25.496C258.713 25.892 257.909 26.09 257.009 26.09C256.241 26.09 255.545 25.934 254.921 25.622C254.309 25.298 253.805 24.83 253.409 24.218V29.492H252.131V16.532H253.355V18.404C253.739 17.78 254.243 17.3 254.867 16.964C255.503 16.628 256.217 16.46 257.009 16.46ZM256.919 24.956C257.579 24.956 258.179 24.806 258.719 24.506C259.259 24.194 259.679 23.756 259.979 23.192C260.291 22.628 260.447 21.986 260.447 21.266C260.447 20.546 260.291 19.91 259.979 19.358C259.679 18.794 259.259 18.356 258.719 18.044C258.179 17.732 257.579 17.576 256.919 17.576C256.247 17.576 255.641 17.732 255.101 18.044C254.573 18.356 254.153 18.794 253.841 19.358C253.541 19.91 253.391 20.546 253.391 21.266C253.391 21.986 253.541 22.628 253.841 23.192C254.153 23.756 254.573 24.194 255.101 24.506C255.641 24.806 256.247 24.956 256.919 24.956ZM272.253 16.532L267.519 27.134C267.135 28.022 266.691 28.652 266.187 29.024C265.683 29.396 265.077 29.582 264.369 29.582C263.913 29.582 263.487 29.51 263.091 29.366C262.695 29.222 262.353 29.006 262.065 28.718L262.659 27.764C263.139 28.244 263.715 28.484 264.387 28.484C264.819 28.484 265.185 28.364 265.485 28.124C265.797 27.884 266.085 27.476 266.349 26.9L266.763 25.982L262.533 16.532H263.865L267.429 24.578L270.993 16.532H272.253ZM286.695 16.532V26H285.417V17.666H280.881L280.755 20.006C280.659 21.974 280.431 23.486 280.071 24.542C279.711 25.598 279.069 26.126 278.145 26.126C277.893 26.126 277.587 26.078 277.227 25.982L277.317 24.884C277.533 24.932 277.683 24.956 277.767 24.956C278.259 24.956 278.631 24.728 278.883 24.272C279.135 23.816 279.303 23.252 279.387 22.58C279.471 21.908 279.543 21.02 279.603 19.916L279.765 16.532H286.695ZM298.608 21.662H290.688C290.76 22.646 291.138 23.444 291.822 24.056C292.506 24.656 293.37 24.956 294.414 24.956C295.002 24.956 295.542 24.854 296.034 24.65C296.526 24.434 296.952 24.122 297.312 23.714L298.032 24.542C297.612 25.046 297.084 25.43 296.448 25.694C295.824 25.958 295.134 26.09 294.378 26.09C293.406 26.09 292.542 25.886 291.786 25.478C291.042 25.058 290.46 24.482 290.04 23.75C289.62 23.018 289.41 22.19 289.41 21.266C289.41 20.342 289.608 19.514 290.004 18.782C290.412 18.05 290.964 17.48 291.66 17.072C292.368 16.664 293.16 16.46 294.036 16.46C294.912 16.46 295.698 16.664 296.394 17.072C297.09 17.48 297.636 18.05 298.032 18.782C298.428 19.502 298.626 20.33 298.626 21.266L298.608 21.662ZM294.036 17.558C293.124 17.558 292.356 17.852 291.732 18.44C291.12 19.016 290.772 19.772 290.688 20.708H297.402C297.318 19.772 296.964 19.016 296.34 18.44C295.728 17.852 294.96 17.558 294.036 17.558ZM307.693 17.666H304.111V26H302.833V17.666H299.251V16.532H307.693V17.666Z" fill="white"/>
</svg>
