<svg width="193" height="44" viewBox="0 0 193 44" fill="none" xmlns="http://www.w3.org/2000/svg">
<path d="M193 15C193 6.71573 186.284 0 178 0H15C6.71573 0 0 6.71573 0 15V31H178C186.284 31 193 24.2843 193 16V15Z" fill="#9214A7"/>
<path d="M0 44V31H10L0 44Z" fill="#9214A7"/>
<path d="M23.936 20.084C22.9653 20.084 22.088 19.8693 21.304 19.44C20.5293 19.0107 19.918 18.418 19.47 17.662C19.0313 16.8967 18.812 16.0427 18.812 15.1C18.812 14.1573 19.0313 13.308 19.47 12.552C19.918 11.7867 20.534 11.1893 21.318 10.76C22.102 10.3307 22.9793 10.116 23.95 10.116C24.678 10.116 25.35 10.2373 25.966 10.48C26.582 10.7227 27.1047 11.0773 27.534 11.544L26.876 12.202C26.1107 11.4273 25.1447 11.04 23.978 11.04C23.2033 11.04 22.4987 11.2173 21.864 11.572C21.2293 11.9267 20.73 12.412 20.366 13.028C20.0113 13.644 19.834 14.3347 19.834 15.1C19.834 15.8653 20.0113 16.556 20.366 17.172C20.73 17.788 21.2293 18.2733 21.864 18.628C22.4987 18.9827 23.2033 19.16 23.978 19.16C25.154 19.16 26.12 18.768 26.876 17.984L27.534 18.642C27.1047 19.1087 26.5773 19.468 25.952 19.72C25.336 19.9627 24.664 20.084 23.936 20.084ZM36.0435 12.636V20H35.0495V13.518H30.4295V20H29.4355V12.636H36.0435ZM41.4031 12.58C42.3644 12.58 43.1017 12.8227 43.6151 13.308C44.1284 13.784 44.3851 14.4933 44.3851 15.436V20H43.4331V18.852C43.2091 19.2347 42.8777 19.5333 42.4391 19.748C42.0097 19.9627 41.4964 20.07 40.8991 20.07C40.0777 20.07 39.4244 19.874 38.9391 19.482C38.4537 19.09 38.2111 18.572 38.2111 17.928C38.2111 17.3027 38.4351 16.7987 38.8831 16.416C39.3404 16.0333 40.0637 15.842 41.0531 15.842H43.3911V15.394C43.3911 14.7593 43.2137 14.2787 42.8591 13.952C42.5044 13.616 41.9864 13.448 41.3051 13.448C40.8384 13.448 40.3904 13.5273 39.9611 13.686C39.5317 13.8353 39.1631 14.0453 38.8551 14.316L38.4071 13.574C38.7804 13.2567 39.2284 13.014 39.7511 12.846C40.2737 12.6687 40.8244 12.58 41.4031 12.58ZM41.0531 19.286C41.6131 19.286 42.0937 19.16 42.4951 18.908C42.8964 18.6467 43.1951 18.2733 43.3911 17.788V16.584H41.0811C39.8211 16.584 39.1911 17.0227 39.1911 17.9C39.1911 18.3293 39.3544 18.67 39.6811 18.922C40.0077 19.1647 40.4651 19.286 41.0531 19.286ZM50.1112 20.07C49.3832 20.07 48.7299 19.9113 48.1512 19.594C47.5819 19.2767 47.1339 18.8333 46.8072 18.264C46.4805 17.6853 46.3172 17.0367 46.3172 16.318C46.3172 15.5993 46.4805 14.9553 46.8072 14.386C47.1339 13.8167 47.5819 13.3733 48.1512 13.056C48.7299 12.7387 49.3832 12.58 50.1112 12.58C50.7459 12.58 51.3105 12.706 51.8052 12.958C52.3092 13.2007 52.7059 13.56 52.9952 14.036L52.2532 14.54C52.0105 14.176 51.7025 13.9053 51.3292 13.728C50.9559 13.5413 50.5499 13.448 50.1112 13.448C49.5792 13.448 49.0985 13.5693 48.6692 13.812C48.2492 14.0453 47.9179 14.3813 47.6752 14.82C47.4419 15.2587 47.3252 15.758 47.3252 16.318C47.3252 16.8873 47.4419 17.3913 47.6752 17.83C47.9179 18.2593 48.2492 18.5953 48.6692 18.838C49.0985 19.0713 49.5792 19.188 50.1112 19.188C50.5499 19.188 50.9559 19.0993 51.3292 18.922C51.7025 18.7447 52.0105 18.474 52.2532 18.11L52.9952 18.614C52.7059 19.09 52.3092 19.454 51.8052 19.706C51.3012 19.9487 50.7365 20.07 50.1112 20.07ZM60.6938 12.636V20H59.6998V13.518H56.1718L56.0738 15.338C55.9991 16.8687 55.8218 18.0447 55.5418 18.866C55.2618 19.6873 54.7624 20.098 54.0438 20.098C53.8478 20.098 53.6098 20.0607 53.3298 19.986L53.3998 19.132C53.5678 19.1693 53.6844 19.188 53.7498 19.188C54.1324 19.188 54.4218 19.0107 54.6178 18.656C54.8138 18.3013 54.9444 17.8627 55.0098 17.34C55.0751 16.8173 55.1311 16.1267 55.1778 15.268L55.3038 12.636H60.6938ZM63.5195 12.636H64.5135V18.488L69.4275 12.636H70.3095V20H69.3155V14.148L64.4155 20H63.5195V12.636ZM85.0542 12.636V20H84.1442V14.176L81.1622 19.104H80.7142L77.7322 14.162V20H76.8222V12.636H77.8302L80.9522 17.942L84.1302 12.636H85.0542ZM90.9208 20.07C90.2114 20.07 89.5721 19.9113 89.0028 19.594C88.4334 19.2673 87.9854 18.8193 87.6588 18.25C87.3321 17.6807 87.1688 17.0367 87.1688 16.318C87.1688 15.5993 87.3321 14.9553 87.6588 14.386C87.9854 13.8167 88.4334 13.3733 89.0028 13.056C89.5721 12.7387 90.2114 12.58 90.9208 12.58C91.6301 12.58 92.2694 12.7387 92.8388 13.056C93.4081 13.3733 93.8514 13.8167 94.1688 14.386C94.4954 14.9553 94.6588 15.5993 94.6588 16.318C94.6588 17.0367 94.4954 17.6807 94.1688 18.25C93.8514 18.8193 93.4081 19.2673 92.8388 19.594C92.2694 19.9113 91.6301 20.07 90.9208 20.07ZM90.9208 19.188C91.4434 19.188 91.9101 19.0713 92.3208 18.838C92.7408 18.5953 93.0674 18.2547 93.3008 17.816C93.5341 17.3773 93.6508 16.878 93.6508 16.318C93.6508 15.758 93.5341 15.2587 93.3008 14.82C93.0674 14.3813 92.7408 14.0453 92.3208 13.812C91.9101 13.5693 91.4434 13.448 90.9208 13.448C90.3981 13.448 89.9268 13.5693 89.5068 13.812C89.0961 14.0453 88.7694 14.3813 88.5267 14.82C88.2934 15.2587 88.1768 15.758 88.1768 16.318C88.1768 16.878 88.2934 17.3773 88.5267 17.816C88.7694 18.2547 89.0961 18.5953 89.5068 18.838C89.9268 19.0713 90.3981 19.188 90.9208 19.188ZM103.111 12.58C103.802 12.58 104.422 12.7387 104.973 13.056C105.533 13.3733 105.972 13.8167 106.289 14.386C106.606 14.9553 106.765 15.5993 106.765 16.318C106.765 17.0367 106.606 17.6807 106.289 18.25C105.972 18.8193 105.533 19.2673 104.973 19.594C104.422 19.9113 103.802 20.07 103.111 20.07C102.458 20.07 101.865 19.93 101.333 19.65C100.801 19.3607 100.367 18.964 100.031 18.46C99.7045 17.956 99.5131 17.3773 99.4571 16.724H97.7771V20H96.7831V12.636H97.7771V15.814H99.4711C99.5458 15.1793 99.7465 14.6193 100.073 14.134C100.409 13.6393 100.838 13.2567 101.361 12.986C101.884 12.7153 102.467 12.58 103.111 12.58ZM103.111 19.202C103.615 19.202 104.068 19.0807 104.469 18.838C104.88 18.5953 105.202 18.2547 105.435 17.816C105.668 17.3773 105.785 16.878 105.785 16.318C105.785 15.758 105.668 15.2587 105.435 14.82C105.202 14.3813 104.88 14.0453 104.469 13.812C104.068 13.5693 103.615 13.448 103.111 13.448C102.607 13.448 102.15 13.5693 101.739 13.812C101.338 14.0453 101.02 14.3813 100.787 14.82C100.554 15.2587 100.437 15.758 100.437 16.318C100.437 16.878 100.554 17.3773 100.787 17.816C101.02 18.2547 101.338 18.5953 101.739 18.838C102.15 19.0807 102.607 19.202 103.111 19.202ZM119.168 12.636V20H118.174V13.518H113.554V20H112.56V12.636H119.168ZM125.074 20.07C124.346 20.07 123.693 19.9113 123.114 19.594C122.545 19.2767 122.097 18.8333 121.77 18.264C121.443 17.6853 121.28 17.0367 121.28 16.318C121.28 15.5993 121.443 14.9553 121.77 14.386C122.097 13.8167 122.545 13.3733 123.114 13.056C123.693 12.7387 124.346 12.58 125.074 12.58C125.709 12.58 126.273 12.706 126.768 12.958C127.272 13.2007 127.669 13.56 127.958 14.036L127.216 14.54C126.973 14.176 126.665 13.9053 126.292 13.728C125.919 13.5413 125.513 13.448 125.074 13.448C124.542 13.448 124.061 13.5693 123.632 13.812C123.212 14.0453 122.881 14.3813 122.638 14.82C122.405 15.2587 122.288 15.758 122.288 16.318C122.288 16.8873 122.405 17.3913 122.638 17.83C122.881 18.2593 123.212 18.5953 123.632 18.838C124.061 19.0713 124.542 19.188 125.074 19.188C125.513 19.188 125.919 19.0993 126.292 18.922C126.665 18.7447 126.973 18.474 127.216 18.11L127.958 18.614C127.669 19.09 127.272 19.454 126.768 19.706C126.264 19.9487 125.699 20.07 125.074 20.07ZM129.883 12.636H130.877V18.488L135.791 12.636H136.673V20H135.679V14.148L130.779 20H129.883V12.636ZM144.127 20L141.789 16.92L139.437 20H138.317L141.229 16.22L138.457 12.636H139.577L141.789 15.52L144.001 12.636H145.093L142.321 16.22L145.261 20H144.127ZM146.891 12.636H147.885V18.488L152.799 12.636H153.681V20H152.687V14.148L147.787 20H146.891V12.636ZM159.203 16.724H157.523V20H156.529V12.636H157.523V15.87H159.217L161.807 12.636H162.885L159.987 16.206L163.095 20H161.919L159.203 16.724ZM170.498 12.636L166.816 20.882C166.518 21.5727 166.172 22.0627 165.78 22.352C165.388 22.6413 164.917 22.786 164.366 22.786C164.012 22.786 163.68 22.73 163.372 22.618C163.064 22.506 162.798 22.338 162.574 22.114L163.036 21.372C163.41 21.7453 163.858 21.932 164.38 21.932C164.716 21.932 165.001 21.8387 165.234 21.652C165.477 21.4653 165.701 21.148 165.906 20.7L166.228 19.986L162.938 12.636H163.974L166.746 18.894L169.518 12.636H170.498Z" fill="white"/>
</svg>
