<svg width="276" height="52" viewBox="0 0 276 52" fill="none" xmlns="http://www.w3.org/2000/svg">
<path d="M0 15C0 6.71573 6.71573 0 15 0H261C269.284 0 276 6.71573 276 15V24C276 32.2843 269.284 39 261 39H0V15Z" fill="#9214A7"/>
<path d="M0 52V35H13L0 52Z" fill="#9214A7"/>
<path d="M29.726 13.4V26H28.412V14.552H20.438V26H19.124V13.4H29.726ZM37.5775 26.09C36.6655 26.09 35.8435 25.886 35.1115 25.478C34.3795 25.058 33.8035 24.482 33.3835 23.75C32.9635 23.018 32.7535 22.19 32.7535 21.266C32.7535 20.342 32.9635 19.514 33.3835 18.782C33.8035 18.05 34.3795 17.48 35.1115 17.072C35.8435 16.664 36.6655 16.46 37.5775 16.46C38.4895 16.46 39.3115 16.664 40.0435 17.072C40.7755 17.48 41.3455 18.05 41.7535 18.782C42.1735 19.514 42.3835 20.342 42.3835 21.266C42.3835 22.19 42.1735 23.018 41.7535 23.75C41.3455 24.482 40.7755 25.058 40.0435 25.478C39.3115 25.886 38.4895 26.09 37.5775 26.09ZM37.5775 24.956C38.2495 24.956 38.8495 24.806 39.3775 24.506C39.9175 24.194 40.3375 23.756 40.6375 23.192C40.9375 22.628 41.0875 21.986 41.0875 21.266C41.0875 20.546 40.9375 19.904 40.6375 19.34C40.3375 18.776 39.9175 18.344 39.3775 18.044C38.8495 17.732 38.2495 17.576 37.5775 17.576C36.9055 17.576 36.2995 17.732 35.7595 18.044C35.2315 18.344 34.8115 18.776 34.4995 19.34C34.1995 19.904 34.0495 20.546 34.0495 21.266C34.0495 21.986 34.1995 22.628 34.4995 23.192C34.8115 23.756 35.2315 24.194 35.7595 24.506C36.2995 24.806 36.9055 24.956 37.5775 24.956ZM55.6989 16.532V26H54.5289V18.512L50.6949 24.848H50.1189L46.2849 18.494V26H45.1149V16.532H46.4109L50.4249 23.354L54.5109 16.532H55.6989ZM63.2416 26.09C62.3296 26.09 61.5076 25.886 60.7756 25.478C60.0436 25.058 59.4676 24.482 59.0476 23.75C58.6276 23.018 58.4176 22.19 58.4176 21.266C58.4176 20.342 58.6276 19.514 59.0476 18.782C59.4676 18.05 60.0436 17.48 60.7756 17.072C61.5076 16.664 62.3296 16.46 63.2416 16.46C64.1536 16.46 64.9756 16.664 65.7076 17.072C66.4396 17.48 67.0096 18.05 67.4176 18.782C67.8376 19.514 68.0476 20.342 68.0476 21.266C68.0476 22.19 67.8376 23.018 67.4176 23.75C67.0096 24.482 66.4396 25.058 65.7076 25.478C64.9756 25.886 64.1536 26.09 63.2416 26.09ZM63.2416 24.956C63.9136 24.956 64.5136 24.806 65.0416 24.506C65.5816 24.194 66.0016 23.756 66.3016 23.192C66.6016 22.628 66.7516 21.986 66.7516 21.266C66.7516 20.546 66.6016 19.904 66.3016 19.34C66.0016 18.776 65.5816 18.344 65.0416 18.044C64.5136 17.732 63.9136 17.576 63.2416 17.576C62.5696 17.576 61.9636 17.732 61.4236 18.044C60.8956 18.344 60.4756 18.776 60.1636 19.34C59.8636 19.904 59.7136 20.546 59.7136 21.266C59.7136 21.986 59.8636 22.628 60.1636 23.192C60.4756 23.756 60.8956 24.194 61.4236 24.506C61.9636 24.806 62.5696 24.956 63.2416 24.956ZM77.4749 17.666H72.0569V26H70.7789V16.532H77.4749V17.666ZM86.4818 16.532V26H85.2038V17.666H80.6678L80.5418 20.006C80.4458 21.974 80.2178 23.486 79.8578 24.542C79.4978 25.598 78.8558 26.126 77.9318 26.126C77.6798 26.126 77.3738 26.078 77.0138 25.982L77.1038 24.884C77.3198 24.932 77.4698 24.956 77.5538 24.956C78.0458 24.956 78.4178 24.728 78.6698 24.272C78.9218 23.816 79.0898 23.252 79.1738 22.58C79.2578 21.908 79.3298 21.02 79.3898 19.916L79.5518 16.532H86.4818ZM90.1149 16.532H91.3929V24.056L97.7109 16.532H98.8449V26H97.5669V18.476L91.2669 26H90.1149V16.532ZM115.714 16.532V26H114.436V17.666H108.496V26H107.218V16.532H115.714ZM123.253 26.09C122.341 26.09 121.519 25.886 120.787 25.478C120.055 25.058 119.479 24.482 119.059 23.75C118.639 23.018 118.429 22.19 118.429 21.266C118.429 20.342 118.639 19.514 119.059 18.782C119.479 18.05 120.055 17.48 120.787 17.072C121.519 16.664 122.341 16.46 123.253 16.46C124.165 16.46 124.987 16.664 125.719 17.072C126.451 17.48 127.021 18.05 127.429 18.782C127.849 19.514 128.059 20.342 128.059 21.266C128.059 22.19 127.849 23.018 127.429 23.75C127.021 24.482 126.451 25.058 125.719 25.478C124.987 25.886 124.165 26.09 123.253 26.09ZM123.253 24.956C123.925 24.956 124.525 24.806 125.053 24.506C125.593 24.194 126.013 23.756 126.313 23.192C126.613 22.628 126.763 21.986 126.763 21.266C126.763 20.546 126.613 19.904 126.313 19.34C126.013 18.776 125.593 18.344 125.053 18.044C124.525 17.732 123.925 17.576 123.253 17.576C122.581 17.576 121.975 17.732 121.435 18.044C120.907 18.344 120.487 18.776 120.175 19.34C119.875 19.904 119.725 20.546 119.725 21.266C119.725 21.986 119.875 22.628 120.175 23.192C120.487 23.756 120.907 24.194 121.435 24.506C121.975 24.806 122.581 24.956 123.253 24.956ZM136.821 21.104C138.105 21.404 138.747 22.178 138.747 23.426C138.747 24.254 138.441 24.89 137.829 25.334C137.217 25.778 136.305 26 135.093 26H130.791V16.532H134.967C136.047 16.532 136.893 16.742 137.505 17.162C138.117 17.582 138.423 18.182 138.423 18.962C138.423 19.478 138.279 19.922 137.991 20.294C137.715 20.654 137.325 20.924 136.821 21.104ZM132.033 20.744H134.877C135.609 20.744 136.167 20.606 136.551 20.33C136.947 20.054 137.145 19.652 137.145 19.124C137.145 18.596 136.947 18.2 136.551 17.936C136.167 17.672 135.609 17.54 134.877 17.54H132.033V20.744ZM135.039 24.992C135.855 24.992 136.467 24.86 136.875 24.596C137.283 24.332 137.487 23.918 137.487 23.354C137.487 22.79 137.301 22.376 136.929 22.112C136.557 21.836 135.969 21.698 135.165 21.698H132.033V24.992H135.039ZM150.022 21.662H142.102C142.174 22.646 142.552 23.444 143.236 24.056C143.92 24.656 144.784 24.956 145.828 24.956C146.416 24.956 146.956 24.854 147.448 24.65C147.94 24.434 148.366 24.122 148.726 23.714L149.446 24.542C149.026 25.046 148.498 25.43 147.862 25.694C147.238 25.958 146.548 26.09 145.792 26.09C144.82 26.09 143.956 25.886 143.2 25.478C142.456 25.058 141.874 24.482 141.454 23.75C141.034 23.018 140.824 22.19 140.824 21.266C140.824 20.342 141.022 19.514 141.418 18.782C141.826 18.05 142.378 17.48 143.074 17.072C143.782 16.664 144.574 16.46 145.45 16.46C146.326 16.46 147.112 16.664 147.808 17.072C148.504 17.48 149.05 18.05 149.446 18.782C149.842 19.502 150.04 20.33 150.04 21.266L150.022 21.662ZM145.45 17.558C144.538 17.558 143.77 17.852 143.146 18.44C142.534 19.016 142.186 19.772 142.102 20.708H148.816C148.732 19.772 148.378 19.016 147.754 18.44C147.142 17.852 146.374 17.558 145.45 17.558ZM157.747 16.46C158.635 16.46 159.439 16.664 160.159 17.072C160.879 17.468 161.443 18.032 161.851 18.764C162.259 19.496 162.463 20.33 162.463 21.266C162.463 22.214 162.259 23.054 161.851 23.786C161.443 24.518 160.879 25.088 160.159 25.496C159.451 25.892 158.647 26.09 157.747 26.09C156.979 26.09 156.283 25.934 155.659 25.622C155.047 25.298 154.543 24.83 154.147 24.218V29.492H152.869V16.532H154.093V18.404C154.477 17.78 154.981 17.3 155.605 16.964C156.241 16.628 156.955 16.46 157.747 16.46ZM157.657 24.956C158.317 24.956 158.917 24.806 159.457 24.506C159.997 24.194 160.417 23.756 160.717 23.192C161.029 22.628 161.185 21.986 161.185 21.266C161.185 20.546 161.029 19.91 160.717 19.358C160.417 18.794 159.997 18.356 159.457 18.044C158.917 17.732 158.317 17.576 157.657 17.576C156.985 17.576 156.379 17.732 155.839 18.044C155.311 18.356 154.891 18.794 154.579 19.358C154.279 19.91 154.129 20.546 154.129 21.266C154.129 21.986 154.279 22.628 154.579 23.192C154.891 23.756 155.311 24.194 155.839 24.506C156.379 24.806 156.985 24.956 157.657 24.956ZM165.209 16.532H166.487V24.056L172.805 16.532H173.939V26H172.661V18.476L166.361 26H165.209V16.532ZM184.261 17.666H180.679V26H179.401V17.666H175.819V16.532H184.261V17.666ZM190.177 19.88C191.365 19.892 192.265 20.156 192.877 20.672C193.501 21.188 193.813 21.932 193.813 22.904C193.813 23.912 193.477 24.686 192.805 25.226C192.145 25.766 191.185 26.03 189.925 26.018L186.109 26V16.532H187.387V19.844L190.177 19.88ZM189.853 25.046C190.729 25.058 191.389 24.884 191.833 24.524C192.289 24.152 192.517 23.612 192.517 22.904C192.517 22.208 192.295 21.692 191.851 21.356C191.407 21.02 190.741 20.846 189.853 20.834L187.387 20.798V25.01L189.853 25.046ZM206.993 21.104C208.277 21.404 208.919 22.178 208.919 23.426C208.919 24.254 208.613 24.89 208.001 25.334C207.389 25.778 206.477 26 205.265 26H200.963V16.532H205.139C206.219 16.532 207.065 16.742 207.677 17.162C208.289 17.582 208.595 18.182 208.595 18.962C208.595 19.478 208.451 19.922 208.163 20.294C207.887 20.654 207.497 20.924 206.993 21.104ZM202.205 20.744H205.049C205.781 20.744 206.339 20.606 206.723 20.33C207.119 20.054 207.317 19.652 207.317 19.124C207.317 18.596 207.119 18.2 206.723 17.936C206.339 17.672 205.781 17.54 205.049 17.54H202.205V20.744ZM205.211 24.992C206.027 24.992 206.639 24.86 207.047 24.596C207.455 24.332 207.659 23.918 207.659 23.354C207.659 22.79 207.473 22.376 207.101 22.112C206.729 21.836 206.141 21.698 205.337 21.698H202.205V24.992H205.211ZM220.585 26.09C219.649 26.09 218.809 25.886 218.065 25.478C217.333 25.07 216.757 24.5 216.337 23.768C215.917 23.024 215.707 22.19 215.707 21.266C215.707 20.342 215.917 19.514 216.337 18.782C216.757 18.05 217.333 17.48 218.065 17.072C218.809 16.664 219.649 16.46 220.585 16.46C221.401 16.46 222.127 16.622 222.763 16.946C223.411 17.258 223.921 17.72 224.293 18.332L223.339 18.98C223.027 18.512 222.631 18.164 222.151 17.936C221.671 17.696 221.149 17.576 220.585 17.576C219.901 17.576 219.283 17.732 218.731 18.044C218.191 18.344 217.765 18.776 217.453 19.34C217.153 19.904 217.003 20.546 217.003 21.266C217.003 21.998 217.153 22.646 217.453 23.21C217.765 23.762 218.191 24.194 218.731 24.506C219.283 24.806 219.901 24.956 220.585 24.956C221.149 24.956 221.671 24.842 222.151 24.614C222.631 24.386 223.027 24.038 223.339 23.57L224.293 24.218C223.921 24.83 223.411 25.298 222.763 25.622C222.115 25.934 221.389 26.09 220.585 26.09ZM234.889 21.662H226.969C227.041 22.646 227.419 23.444 228.103 24.056C228.787 24.656 229.651 24.956 230.695 24.956C231.283 24.956 231.823 24.854 232.315 24.65C232.807 24.434 233.233 24.122 233.593 23.714L234.313 24.542C233.893 25.046 233.365 25.43 232.729 25.694C232.105 25.958 231.415 26.09 230.659 26.09C229.687 26.09 228.823 25.886 228.067 25.478C227.323 25.058 226.741 24.482 226.321 23.75C225.901 23.018 225.691 22.19 225.691 21.266C225.691 20.342 225.889 19.514 226.285 18.782C226.693 18.05 227.245 17.48 227.941 17.072C228.649 16.664 229.441 16.46 230.317 16.46C231.193 16.46 231.979 16.664 232.675 17.072C233.371 17.48 233.917 18.05 234.313 18.782C234.709 19.502 234.907 20.33 234.907 21.266L234.889 21.662ZM230.317 17.558C229.405 17.558 228.637 17.852 228.013 18.44C227.401 19.016 227.053 19.772 226.969 20.708H233.683C233.599 19.772 233.245 19.016 232.621 18.44C232.009 17.852 231.241 17.558 230.317 17.558ZM242.326 16.766C243.202 16.766 243.982 16.964 244.666 17.36C245.362 17.744 245.902 18.29 246.286 18.998C246.67 19.694 246.862 20.492 246.862 21.392C246.862 22.316 246.658 23.138 246.25 23.858C245.854 24.566 245.296 25.118 244.576 25.514C243.856 25.91 243.028 26.108 242.092 26.108C240.52 26.108 239.302 25.556 238.438 24.452C237.574 23.348 237.142 21.824 237.142 19.88C237.142 17.852 237.526 16.298 238.294 15.218C239.074 14.138 240.286 13.406 241.93 13.022L246.178 12.05L246.394 13.22L242.398 14.138C241.042 14.438 240.046 14.972 239.41 15.74C238.774 16.496 238.426 17.618 238.366 19.106C238.75 18.374 239.284 17.804 239.968 17.396C240.652 16.976 241.438 16.766 242.326 16.766ZM242.128 25.046C242.788 25.046 243.376 24.896 243.892 24.596C244.42 24.284 244.828 23.852 245.116 23.3C245.416 22.748 245.566 22.124 245.566 21.428C245.566 20.732 245.422 20.12 245.134 19.592C244.846 19.064 244.438 18.656 243.91 18.368C243.394 18.068 242.8 17.918 242.128 17.918C241.456 17.918 240.856 18.068 240.328 18.368C239.812 18.656 239.404 19.064 239.104 19.592C238.816 20.12 238.672 20.732 238.672 21.428C238.672 22.124 238.816 22.748 239.104 23.3C239.404 23.852 239.818 24.284 240.346 24.596C240.874 24.896 241.468 25.046 242.128 25.046ZM256.539 16.532V26H255.369V22.868H252.399H252.039L249.843 26H248.457L250.815 22.688C250.083 22.484 249.519 22.136 249.123 21.644C248.727 21.152 248.529 20.528 248.529 19.772C248.529 18.716 248.889 17.912 249.609 17.36C250.329 16.808 251.313 16.532 252.561 16.532H256.539ZM249.825 19.808C249.825 21.212 250.719 21.914 252.507 21.914H255.369V17.666H252.597C250.749 17.666 249.825 18.38 249.825 19.808Z" fill="white"/>
</svg>
