<svg width="376" height="51" viewBox="0 0 376 51" fill="none" xmlns="http://www.w3.org/2000/svg">
<path d="M0 15C0 6.71573 6.71573 0 15 0H361C369.284 0 376 6.71573 376 15V24C376 32.2843 369.284 39 361 39H15C6.71573 39 0 32.2843 0 24V15Z" fill="#9214A7"/>
<path d="M28.052 13.4V26H26.738V22.184H22.976C22.808 22.184 22.568 22.172 22.256 22.148L19.61 26H18.188L21.05 21.914C20.126 21.638 19.418 21.152 18.926 20.456C18.434 19.748 18.188 18.884 18.188 17.864C18.188 16.448 18.632 15.35 19.52 14.57C20.42 13.79 21.632 13.4 23.156 13.4H28.052ZM19.52 17.828C19.52 18.86 19.82 19.658 20.42 20.222C21.032 20.774 21.92 21.05 23.084 21.05H26.738V14.552H23.21C22.034 14.552 21.122 14.834 20.474 15.398C19.838 15.95 19.52 16.76 19.52 17.828ZM40.6185 26.09C39.7065 26.09 38.8845 25.886 38.1525 25.478C37.4205 25.058 36.8445 24.482 36.4245 23.75C36.0045 23.018 35.7945 22.19 35.7945 21.266C35.7945 20.342 36.0045 19.514 36.4245 18.782C36.8445 18.05 37.4205 17.48 38.1525 17.072C38.8845 16.664 39.7065 16.46 40.6185 16.46C41.5305 16.46 42.3525 16.664 43.0845 17.072C43.8165 17.48 44.3865 18.05 44.7945 18.782C45.2145 19.514 45.4245 20.342 45.4245 21.266C45.4245 22.19 45.2145 23.018 44.7945 23.75C44.3865 24.482 43.8165 25.058 43.0845 25.478C42.3525 25.886 41.5305 26.09 40.6185 26.09ZM40.6185 24.956C41.2905 24.956 41.8905 24.806 42.4185 24.506C42.9585 24.194 43.3785 23.756 43.6785 23.192C43.9785 22.628 44.1285 21.986 44.1285 21.266C44.1285 20.546 43.9785 19.904 43.6785 19.34C43.3785 18.776 42.9585 18.344 42.4185 18.044C41.8905 17.732 41.2905 17.576 40.6185 17.576C39.9465 17.576 39.3405 17.732 38.8005 18.044C38.2725 18.344 37.8525 18.776 37.5405 19.34C37.2405 19.904 37.0905 20.546 37.0905 21.266C37.0905 21.986 37.2405 22.628 37.5405 23.192C37.8525 23.756 38.2725 24.194 38.8005 24.506C39.3405 24.806 39.9465 24.956 40.6185 24.956ZM52.1159 26.09C51.1799 26.09 50.3399 25.886 49.5959 25.478C48.8639 25.07 48.2879 24.5 47.8679 23.768C47.4479 23.024 47.2379 22.19 47.2379 21.266C47.2379 20.342 47.4479 19.514 47.8679 18.782C48.2879 18.05 48.8639 17.48 49.5959 17.072C50.3399 16.664 51.1799 16.46 52.1159 16.46C52.9319 16.46 53.6579 16.622 54.2939 16.946C54.9419 17.258 55.4519 17.72 55.8239 18.332L54.8699 18.98C54.5579 18.512 54.1619 18.164 53.6819 17.936C53.2019 17.696 52.6799 17.576 52.1159 17.576C51.4319 17.576 50.8139 17.732 50.2619 18.044C49.7219 18.344 49.2959 18.776 48.9839 19.34C48.6839 19.904 48.5339 20.546 48.5339 21.266C48.5339 21.998 48.6839 22.646 48.9839 23.21C49.2959 23.762 49.7219 24.194 50.2619 24.506C50.8139 24.806 51.4319 24.956 52.1159 24.956C52.6799 24.956 53.2019 24.842 53.6819 24.614C54.1619 24.386 54.5579 24.038 54.8699 23.57L55.8239 24.218C55.4519 24.83 54.9419 25.298 54.2939 25.622C53.6459 25.934 52.9199 26.09 52.1159 26.09ZM62.0463 26.09C61.1343 26.09 60.3123 25.886 59.5803 25.478C58.8483 25.058 58.2723 24.482 57.8523 23.75C57.4323 23.018 57.2223 22.19 57.2223 21.266C57.2223 20.342 57.4323 19.514 57.8523 18.782C58.2723 18.05 58.8483 17.48 59.5803 17.072C60.3123 16.664 61.1343 16.46 62.0463 16.46C62.9583 16.46 63.7803 16.664 64.5123 17.072C65.2443 17.48 65.8143 18.05 66.2223 18.782C66.6423 19.514 66.8523 20.342 66.8523 21.266C66.8523 22.19 66.6423 23.018 66.2223 23.75C65.8143 24.482 65.2443 25.058 64.5123 25.478C63.7803 25.886 62.9583 26.09 62.0463 26.09ZM62.0463 24.956C62.7183 24.956 63.3183 24.806 63.8463 24.506C64.3863 24.194 64.8063 23.756 65.1063 23.192C65.4063 22.628 65.5563 21.986 65.5563 21.266C65.5563 20.546 65.4063 19.904 65.1063 19.34C64.8063 18.776 64.3863 18.344 63.8463 18.044C63.3183 17.732 62.7183 17.576 62.0463 17.576C61.3743 17.576 60.7683 17.732 60.2283 18.044C59.7003 18.344 59.2803 18.776 58.9683 19.34C58.6683 19.904 58.5183 20.546 58.5183 21.266C58.5183 21.986 58.6683 22.628 58.9683 23.192C59.2803 23.756 59.7003 24.194 60.2283 24.506C60.7683 24.806 61.3743 24.956 62.0463 24.956ZM74.1213 21.068C74.7933 21.224 75.3093 21.494 75.6693 21.878C76.0413 22.262 76.2273 22.73 76.2273 23.282C76.2273 23.834 76.0353 24.326 75.6513 24.758C75.2793 25.19 74.7693 25.526 74.1213 25.766C73.4733 25.994 72.7593 26.108 71.9793 26.108C71.2953 26.108 70.6233 26.012 69.9633 25.82C69.3033 25.616 68.7273 25.322 68.2353 24.938L68.6673 23.984C69.0993 24.308 69.6033 24.56 70.1793 24.74C70.7553 24.92 71.3373 25.01 71.9253 25.01C72.8013 25.01 73.5153 24.848 74.0673 24.524C74.6313 24.188 74.9133 23.738 74.9133 23.174C74.9133 22.67 74.6853 22.28 74.2293 22.004C73.7733 21.716 73.1493 21.572 72.3573 21.572H70.7373V20.636H72.2853C72.9933 20.636 73.5633 20.504 73.9953 20.24C74.4273 19.964 74.6433 19.598 74.6433 19.142C74.6433 18.638 74.3973 18.242 73.9053 17.954C73.4253 17.666 72.7953 17.522 72.0153 17.522C70.9953 17.522 69.9873 17.78 68.9913 18.296L68.6313 17.306C69.7593 16.718 70.9293 16.424 72.1413 16.424C72.8613 16.424 73.5093 16.532 74.0853 16.748C74.6733 16.952 75.1293 17.246 75.4533 17.63C75.7893 18.014 75.9573 18.458 75.9573 18.962C75.9573 19.442 75.7893 19.868 75.4533 20.24C75.1293 20.612 74.6853 20.888 74.1213 21.068ZM79.1285 16.532H80.4065V20.726H86.3645V16.532H87.6425V26H86.3645V21.824H80.4065V26H79.1285V16.532ZM94.533 16.46C95.769 16.46 96.717 16.772 97.377 17.396C98.037 18.008 98.367 18.92 98.367 20.132V26H97.143V24.524C96.855 25.016 96.429 25.4 95.865 25.676C95.313 25.952 94.653 26.09 93.885 26.09C92.829 26.09 91.989 25.838 91.365 25.334C90.741 24.83 90.429 24.164 90.429 23.336C90.429 22.532 90.717 21.884 91.293 21.392C91.881 20.9 92.811 20.654 94.083 20.654H97.089V20.078C97.089 19.262 96.861 18.644 96.405 18.224C95.949 17.792 95.283 17.576 94.407 17.576C93.807 17.576 93.231 17.678 92.679 17.882C92.127 18.074 91.653 18.344 91.257 18.692L90.681 17.738C91.161 17.33 91.737 17.018 92.409 16.802C93.081 16.574 93.789 16.46 94.533 16.46ZM94.083 25.082C94.803 25.082 95.421 24.92 95.937 24.596C96.453 24.26 96.837 23.78 97.089 23.156V21.608H94.119C92.499 21.608 91.689 22.172 91.689 23.3C91.689 23.852 91.899 24.29 92.319 24.614C92.739 24.926 93.327 25.082 94.083 25.082ZM109.509 16.532V26H108.231V17.666H103.695L103.569 20.006C103.473 21.974 103.245 23.486 102.885 24.542C102.525 25.598 101.883 26.126 100.959 26.126C100.707 26.126 100.401 26.078 100.041 25.982L100.131 24.884C100.347 24.932 100.497 24.956 100.581 24.956C101.073 24.956 101.445 24.728 101.697 24.272C101.949 23.816 102.117 23.252 102.201 22.58C102.285 21.908 102.357 21.02 102.417 19.916L102.579 16.532H109.509ZM116.4 16.46C117.636 16.46 118.584 16.772 119.244 17.396C119.904 18.008 120.234 18.92 120.234 20.132V26H119.01V24.524C118.722 25.016 118.296 25.4 117.732 25.676C117.18 25.952 116.52 26.09 115.752 26.09C114.696 26.09 113.856 25.838 113.232 25.334C112.608 24.83 112.296 24.164 112.296 23.336C112.296 22.532 112.584 21.884 113.16 21.392C113.748 20.9 114.678 20.654 115.95 20.654H118.956V20.078C118.956 19.262 118.728 18.644 118.272 18.224C117.816 17.792 117.15 17.576 116.274 17.576C115.674 17.576 115.098 17.678 114.546 17.882C113.994 18.074 113.52 18.344 113.124 18.692L112.548 17.738C113.028 17.33 113.604 17.018 114.276 16.802C114.948 16.574 115.656 16.46 116.4 16.46ZM115.95 25.082C116.67 25.082 117.288 24.92 117.804 24.596C118.32 24.26 118.704 23.78 118.956 23.156V21.608H115.986C114.366 21.608 113.556 22.172 113.556 23.3C113.556 23.852 113.766 24.29 114.186 24.614C114.606 24.926 115.194 25.082 115.95 25.082ZM123.744 24.128C124.02 24.128 124.248 24.224 124.428 24.416C124.608 24.596 124.698 24.824 124.698 25.1C124.698 25.244 124.674 25.4 124.626 25.568C124.59 25.736 124.53 25.928 124.446 26.144L123.69 28.628H122.826L123.438 26.018C123.246 25.958 123.09 25.85 122.97 25.694C122.85 25.526 122.79 25.328 122.79 25.1C122.79 24.824 122.88 24.596 123.06 24.416C123.24 24.224 123.468 24.128 123.744 24.128ZM139.308 16.532V26H138.03V22.058C136.938 22.538 135.864 22.778 134.808 22.778C133.668 22.778 132.78 22.52 132.144 22.004C131.508 21.476 131.19 20.69 131.19 19.646V16.532H132.468V19.574C132.468 20.282 132.696 20.822 133.152 21.194C133.608 21.554 134.238 21.734 135.042 21.734C135.93 21.734 136.926 21.5 138.03 21.032V16.532H139.308ZM149.597 17.666H146.015V26H144.737V17.666H141.155V16.532H149.597V17.666ZM154.912 26.09C154 26.09 153.178 25.886 152.446 25.478C151.714 25.058 151.138 24.482 150.718 23.75C150.298 23.018 150.088 22.19 150.088 21.266C150.088 20.342 150.298 19.514 150.718 18.782C151.138 18.05 151.714 17.48 152.446 17.072C153.178 16.664 154 16.46 154.912 16.46C155.824 16.46 156.646 16.664 157.378 17.072C158.11 17.48 158.68 18.05 159.088 18.782C159.508 19.514 159.718 20.342 159.718 21.266C159.718 22.19 159.508 23.018 159.088 23.75C158.68 24.482 158.11 25.058 157.378 25.478C156.646 25.886 155.824 26.09 154.912 26.09ZM154.912 24.956C155.584 24.956 156.184 24.806 156.712 24.506C157.252 24.194 157.672 23.756 157.972 23.192C158.272 22.628 158.422 21.986 158.422 21.266C158.422 20.546 158.272 19.904 157.972 19.34C157.672 18.776 157.252 18.344 156.712 18.044C156.184 17.732 155.584 17.576 154.912 17.576C154.24 17.576 153.634 17.732 153.094 18.044C152.566 18.344 152.146 18.776 151.833 19.34C151.534 19.904 151.384 20.546 151.384 21.266C151.384 21.986 151.534 22.628 151.833 23.192C152.146 23.756 152.566 24.194 153.094 24.506C153.634 24.806 154.24 24.956 154.912 24.956ZM176.394 24.884V28.286H175.188V26H166.71V28.286H165.504V24.884H166.044C166.68 24.848 167.112 24.38 167.34 23.48C167.568 22.58 167.724 21.32 167.808 19.7L167.934 16.532H174.918V24.884H176.394ZM168.978 19.772C168.918 21.116 168.804 22.226 168.636 23.102C168.468 23.966 168.168 24.56 167.736 24.884H173.64V17.666H169.086L168.978 19.772ZM186.624 16.532V26H185.346V17.666H180.81L180.684 20.006C180.588 21.974 180.36 23.486 180 24.542C179.64 25.598 178.998 26.126 178.074 26.126C177.822 26.126 177.516 26.078 177.156 25.982L177.246 24.884C177.462 24.932 177.612 24.956 177.696 24.956C178.188 24.956 178.56 24.728 178.812 24.272C179.064 23.816 179.232 23.252 179.316 22.58C179.4 21.908 179.472 21.02 179.532 19.916L179.694 16.532H186.624ZM197.529 16.532V26H196.359V22.868H193.389H193.029L190.833 26H189.447L191.805 22.688C191.073 22.484 190.509 22.136 190.113 21.644C189.717 21.152 189.519 20.528 189.519 19.772C189.519 18.716 189.879 17.912 190.599 17.36C191.319 16.808 192.303 16.532 193.551 16.532H197.529ZM190.815 19.808C190.815 21.212 191.709 21.914 193.497 21.914H196.359V17.666H193.587C191.739 17.666 190.815 18.38 190.815 19.808ZM216.468 16.532V26H215.298V18.512L211.464 24.848H210.888L207.054 18.494V26H205.884V16.532H207.18L211.194 23.354L215.28 16.532H216.468ZM228.385 21.662H220.465C220.537 22.646 220.915 23.444 221.599 24.056C222.283 24.656 223.147 24.956 224.191 24.956C224.779 24.956 225.319 24.854 225.811 24.65C226.303 24.434 226.729 24.122 227.089 23.714L227.809 24.542C227.389 25.046 226.861 25.43 226.225 25.694C225.601 25.958 224.911 26.09 224.155 26.09C223.183 26.09 222.319 25.886 221.563 25.478C220.819 25.058 220.237 24.482 219.817 23.75C219.397 23.018 219.187 22.19 219.187 21.266C219.187 20.342 219.385 19.514 219.781 18.782C220.189 18.05 220.741 17.48 221.437 17.072C222.145 16.664 222.937 16.46 223.813 16.46C224.689 16.46 225.475 16.664 226.171 17.072C226.867 17.48 227.413 18.05 227.809 18.782C228.205 19.502 228.403 20.33 228.403 21.266L228.385 21.662ZM223.813 17.558C222.901 17.558 222.133 17.852 221.509 18.44C220.897 19.016 220.549 19.772 220.465 20.708H227.179C227.095 19.772 226.741 19.016 226.117 18.44C225.505 17.852 224.737 17.558 223.813 17.558ZM231.232 16.532H232.51V20.726H238.468V16.532H239.746V26H238.468V21.824H232.51V26H231.232V16.532ZM250.651 16.532V26H249.481V22.868H246.511H246.151L243.955 26H242.569L244.927 22.688C244.195 22.484 243.631 22.136 243.235 21.644C242.839 21.152 242.641 20.528 242.641 19.772C242.641 18.716 243.001 17.912 243.721 17.36C244.441 16.808 245.425 16.532 246.673 16.532H250.651ZM243.937 19.808C243.937 21.212 244.831 21.914 246.619 21.914H249.481V17.666H246.709C244.861 17.666 243.937 18.38 243.937 19.808ZM259.006 16.532H260.284V24.056L266.602 16.532H267.736V26H266.458V18.476L260.158 26H259.006V16.532ZM271.398 16.532H272.676V20.726H278.634V16.532H279.912V26H278.634V21.824H272.676V26H271.398V16.532ZM290.205 17.666H286.623V26H285.345V17.666H281.763V16.532H290.205V17.666ZM299.893 21.662H291.973C292.045 22.646 292.423 23.444 293.107 24.056C293.791 24.656 294.655 24.956 295.699 24.956C296.287 24.956 296.827 24.854 297.319 24.65C297.811 24.434 298.237 24.122 298.597 23.714L299.317 24.542C298.897 25.046 298.369 25.43 297.733 25.694C297.109 25.958 296.419 26.09 295.663 26.09C294.691 26.09 293.827 25.886 293.071 25.478C292.327 25.058 291.745 24.482 291.325 23.75C290.905 23.018 290.695 22.19 290.695 21.266C290.695 20.342 290.893 19.514 291.289 18.782C291.697 18.05 292.249 17.48 292.945 17.072C293.653 16.664 294.445 16.46 295.321 16.46C296.197 16.46 296.983 16.664 297.679 17.072C298.375 17.48 298.921 18.05 299.317 18.782C299.713 19.502 299.911 20.33 299.911 21.266L299.893 21.662ZM295.321 17.558C294.409 17.558 293.641 17.852 293.017 18.44C292.405 19.016 292.057 19.772 291.973 20.708H298.687C298.603 19.772 298.249 19.016 297.625 18.44C297.013 17.852 296.245 17.558 295.321 17.558ZM307.618 16.46C308.506 16.46 309.31 16.664 310.03 17.072C310.75 17.468 311.314 18.032 311.722 18.764C312.13 19.496 312.334 20.33 312.334 21.266C312.334 22.214 312.13 23.054 311.722 23.786C311.314 24.518 310.75 25.088 310.03 25.496C309.322 25.892 308.518 26.09 307.618 26.09C306.85 26.09 306.154 25.934 305.53 25.622C304.918 25.298 304.414 24.83 304.018 24.218V29.492H302.74V16.532H303.964V18.404C304.348 17.78 304.852 17.3 305.476 16.964C306.112 16.628 306.826 16.46 307.618 16.46ZM307.528 24.956C308.188 24.956 308.788 24.806 309.328 24.506C309.868 24.194 310.288 23.756 310.588 23.192C310.9 22.628 311.056 21.986 311.056 21.266C311.056 20.546 310.9 19.91 310.588 19.358C310.288 18.794 309.868 18.356 309.328 18.044C308.788 17.732 308.188 17.576 307.528 17.576C306.856 17.576 306.25 17.732 305.71 18.044C305.182 18.356 304.762 18.794 304.45 19.358C304.15 19.91 304 20.546 304 21.266C304 21.986 304.15 22.628 304.45 23.192C304.762 23.756 305.182 24.194 305.71 24.506C306.25 24.806 306.856 24.956 307.528 24.956ZM323.36 21.662H315.44C315.512 22.646 315.89 23.444 316.574 24.056C317.258 24.656 318.122 24.956 319.166 24.956C319.754 24.956 320.294 24.854 320.786 24.65C321.278 24.434 321.704 24.122 322.064 23.714L322.784 24.542C322.364 25.046 321.836 25.43 321.2 25.694C320.576 25.958 319.886 26.09 319.13 26.09C318.158 26.09 317.294 25.886 316.538 25.478C315.794 25.058 315.212 24.482 314.792 23.75C314.372 23.018 314.162 22.19 314.162 21.266C314.162 20.342 314.36 19.514 314.756 18.782C315.164 18.05 315.716 17.48 316.412 17.072C317.12 16.664 317.912 16.46 318.788 16.46C319.664 16.46 320.45 16.664 321.146 17.072C321.842 17.48 322.388 18.05 322.784 18.782C323.18 19.502 323.378 20.33 323.378 21.266L323.36 21.662ZM318.788 17.558C317.876 17.558 317.108 17.852 316.484 18.44C315.872 19.016 315.524 19.772 315.44 20.708H322.154C322.07 19.772 321.716 19.016 321.092 18.44C320.48 17.852 319.712 17.558 318.788 17.558ZM330.167 26.09C329.231 26.09 328.391 25.886 327.647 25.478C326.915 25.07 326.339 24.5 325.919 23.768C325.499 23.024 325.289 22.19 325.289 21.266C325.289 20.342 325.499 19.514 325.919 18.782C326.339 18.05 326.915 17.48 327.647 17.072C328.391 16.664 329.231 16.46 330.167 16.46C330.983 16.46 331.709 16.622 332.345 16.946C332.993 17.258 333.503 17.72 333.875 18.332L332.921 18.98C332.609 18.512 332.213 18.164 331.733 17.936C331.253 17.696 330.731 17.576 330.167 17.576C329.483 17.576 328.865 17.732 328.313 18.044C327.773 18.344 327.347 18.776 327.035 19.34C326.735 19.904 326.585 20.546 326.585 21.266C326.585 21.998 326.735 22.646 327.035 23.21C327.347 23.762 327.773 24.194 328.313 24.506C328.865 24.806 329.483 24.956 330.167 24.956C330.731 24.956 331.253 24.842 331.733 24.614C332.213 24.386 332.609 24.038 332.921 23.57L333.875 24.218C333.503 24.83 332.993 25.298 332.345 25.622C331.697 25.934 330.971 26.09 330.167 26.09ZM336.349 16.532H337.627V20.726H343.585V16.532H344.863V26H343.585V21.824H337.627V26H336.349V16.532ZM352.402 26.09C351.49 26.09 350.668 25.886 349.936 25.478C349.204 25.058 348.628 24.482 348.208 23.75C347.788 23.018 347.578 22.19 347.578 21.266C347.578 20.342 347.788 19.514 348.208 18.782C348.628 18.05 349.204 17.48 349.936 17.072C350.668 16.664 351.49 16.46 352.402 16.46C353.314 16.46 354.136 16.664 354.868 17.072C355.6 17.48 356.17 18.05 356.578 18.782C356.998 19.514 357.208 20.342 357.208 21.266C357.208 22.19 356.998 23.018 356.578 23.75C356.17 24.482 355.6 25.058 354.868 25.478C354.136 25.886 353.314 26.09 352.402 26.09ZM352.402 24.956C353.074 24.956 353.674 24.806 354.202 24.506C354.742 24.194 355.162 23.756 355.462 23.192C355.762 22.628 355.912 21.986 355.912 21.266C355.912 20.546 355.762 19.904 355.462 19.34C355.162 18.776 354.742 18.344 354.202 18.044C353.674 17.732 353.074 17.576 352.402 17.576C351.73 17.576 351.124 17.732 350.584 18.044C350.056 18.344 349.636 18.776 349.324 19.34C349.024 19.904 348.874 20.546 348.874 21.266C348.874 21.986 349.024 22.628 349.324 23.192C349.636 23.756 350.056 24.194 350.584 24.506C351.124 24.806 351.73 24.956 352.402 24.956Z" fill="white"/>
<path d="M144.5 51L137.139 38.25H151.861L144.5 51Z" fill="#9214A7"/>
</svg>
