<svg width="36" height="36" viewBox="0 0 36 36" fill="none" xmlns="http://www.w3.org/2000/svg">
<circle cx="18" cy="18" r="18" fill="#183989"/>
<path d="M22.4806 8H13.5192C10.4759 8 8 10.476 8 13.5193V22.4807C8 25.5241 10.4759 28 13.5192 28H22.4806C25.5241 28 28 25.524 28 22.4807V13.5193C28.0001 10.476 25.5241 8 22.4806 8ZM26.2256 22.4807C26.2256 24.5456 24.5456 26.2255 22.4807 26.2255H13.5192C11.4544 26.2256 9.7745 24.5456 9.7745 22.4807V13.5193C9.7745 11.4545 11.4544 9.7745 13.5192 9.7745H22.4806C24.5455 9.7745 26.2255 11.4545 26.2255 13.5193V22.4807H26.2256Z" fill="white"/>
<path d="M17.9972 12.8472C15.1556 12.8472 12.8438 15.159 12.8438 18.0007C12.8438 20.8422 15.1556 23.1539 17.9972 23.1539C20.8389 23.1539 23.1507 20.8422 23.1507 18.0007C23.1507 15.159 20.8389 12.8472 17.9972 12.8472ZM17.9972 21.3793C16.1341 21.3793 14.6182 19.8636 14.6182 18.0005C14.6182 16.1373 16.134 14.6215 17.9972 14.6215C19.8605 14.6215 21.3762 16.1373 21.3762 18.0005C21.3762 19.8636 19.8603 21.3793 17.9972 21.3793Z" fill="white"/>
<path d="M23.3716 11.3423C23.0297 11.3423 22.6939 11.4807 22.4524 11.7232C22.2098 11.9645 22.0703 12.3005 22.0703 12.6436C22.0703 12.9856 22.2099 13.3214 22.4524 13.564C22.6938 13.8053 23.0297 13.9449 23.3716 13.9449C23.7147 13.9449 24.0495 13.8053 24.292 13.564C24.5345 13.3214 24.6729 12.9855 24.6729 12.6436C24.6729 12.3005 24.5345 11.9645 24.292 11.7232C24.0507 11.4807 23.7147 11.3423 23.3716 11.3423Z" fill="white"/>
</svg>
