<svg width="54" height="55" viewBox="0 0 54 55" fill="none" xmlns="http://www.w3.org/2000/svg">
<circle cx="27" cy="27.4297" r="26" stroke="white" stroke-width="2"/>
<path d="M32.3767 15.4297H21.623C17.9711 15.4297 15 18.4009 15 22.0528V32.8066C15 36.4586 17.9711 39.4297 21.623 39.4297H32.3767C36.0289 39.4297 39 36.4585 39 32.8066V22.0528C39.0001 18.4009 36.0289 15.4297 32.3767 15.4297ZM36.8707 32.8066C36.8707 35.2845 34.8548 37.3003 32.3769 37.3003H21.623C19.1452 37.3004 17.1294 35.2845 17.1294 32.8066V22.0528C17.1294 19.5751 19.1452 17.5591 21.623 17.5591H32.3767C34.8546 17.5591 36.8706 19.5751 36.8706 22.0528V32.8066H36.8707Z" fill="white"/>
<path d="M27.0001 21.2461C23.5901 21.2461 20.8159 24.0203 20.8159 27.4303C20.8159 30.8402 23.5901 33.6142 27.0001 33.6142C30.4101 33.6142 33.1843 30.8402 33.1843 27.4303C33.1843 24.0203 30.4101 21.2461 27.0001 21.2461ZM27.0001 31.4847C24.7644 31.4847 22.9453 29.6659 22.9453 27.4301C22.9453 25.1943 24.7642 23.3753 27.0001 23.3753C29.236 23.3753 31.0549 25.1943 31.0549 27.4301C31.0549 29.6659 29.2358 31.4847 27.0001 31.4847Z" fill="white"/>
<path d="M33.4434 19.4404C33.0331 19.4404 32.6301 19.6065 32.3404 19.8975C32.0492 20.1871 31.8818 20.5903 31.8818 21.002C31.8818 21.4124 32.0493 21.8154 32.3404 22.1064C32.63 22.396 33.0331 22.5635 33.4434 22.5635C33.8551 22.5635 34.2568 22.396 34.5478 22.1064C34.8389 21.8154 35.005 21.4123 35.005 21.002C35.005 20.5903 34.8389 20.1871 34.5478 19.8975C34.2582 19.6065 33.8551 19.4404 33.4434 19.4404Z" fill="white"/>
</svg>
