<svg width="24" height="25" viewBox="0 0 24 25" fill="none" xmlns="http://www.w3.org/2000/svg">
<g clip-path="url(#clip0_1344_61793)">
<path d="M22.7786 7.76208C22.728 6.61439 22.5424 5.82536 22.2766 5.14166C22.0023 4.41592 21.5803 3.76618 21.0275 3.22604C20.4874 2.67749 19.8333 2.25125 19.116 1.98126C18.4283 1.7154 17.6434 1.5298 16.4957 1.4792C15.3395 1.42431 14.9724 1.41162 12.0398 1.41162C9.10719 1.41162 8.74012 1.42431 7.58814 1.47491C6.44044 1.52552 5.65142 1.71128 4.96788 1.97698C4.24198 2.25125 3.59223 2.67321 3.05209 3.22604C2.50354 3.76618 2.07747 4.42021 1.80731 5.13754C1.54145 5.82536 1.35585 6.6101 1.30525 7.75779C1.25036 8.91406 1.23767 9.28113 1.23767 12.2137C1.23767 15.1463 1.25036 15.5134 1.30096 16.6654C1.35157 17.8131 1.53733 18.6021 1.80319 19.2858C2.07747 20.0115 2.50354 20.6613 3.05209 21.2014C3.59223 21.75 4.24626 22.1762 4.96359 22.4462C5.65142 22.7121 6.43616 22.8977 7.58402 22.9483C8.73583 22.999 9.10307 23.0116 12.0357 23.0116C14.9683 23.0116 15.3354 22.999 16.4873 22.9483C17.635 22.8977 18.424 22.7121 19.1076 22.4462C20.5592 21.885 21.7069 20.7373 22.2682 19.2858C22.5339 18.598 22.7196 17.8131 22.7702 16.6654C22.8208 15.5134 22.8335 15.1463 22.8335 12.2137C22.8335 9.28113 22.8292 8.91406 22.7786 7.76208ZM20.8335 16.581C20.787 17.6359 20.6098 18.2055 20.4621 18.5853C20.0992 19.5263 19.3524 20.2731 18.4114 20.6361C18.0316 20.7838 17.4578 20.9609 16.4071 21.0073C15.2678 21.058 14.9261 21.0706 12.0441 21.0706C9.16207 21.0706 8.8161 21.058 7.68093 21.0073C6.62604 20.9609 6.0564 20.7838 5.67663 20.6361C5.20836 20.463 4.78212 20.1887 4.43614 19.8301C4.07748 19.4798 3.80321 19.0578 3.63014 18.5896C3.48245 18.2098 3.30526 17.6359 3.25895 16.5853C3.20818 15.446 3.19565 15.1041 3.19565 12.2221C3.19565 9.34014 3.20818 8.99416 3.25895 7.85916C3.30526 6.80427 3.48245 6.23463 3.63014 5.85487C3.80321 5.38643 4.07748 4.96035 4.44043 4.61421C4.79052 4.25555 5.21248 3.98128 5.68092 3.80837C6.06068 3.66069 6.63461 3.4835 7.68522 3.43702C8.82451 3.38641 9.16636 3.37372 12.0482 3.37372C14.9345 3.37372 15.2762 3.38641 16.4113 3.43702C17.4662 3.4835 18.0359 3.66069 18.4156 3.80837C18.8839 3.98128 19.3102 4.25555 19.6561 4.61421C20.0148 4.96447 20.2891 5.38643 20.4621 5.85487C20.6098 6.23463 20.787 6.80839 20.8335 7.85916C20.8841 8.99845 20.8968 9.34014 20.8968 12.2221C20.8968 15.1041 20.8841 15.4417 20.8335 16.581Z" fill="white"/>
<path d="M12.0399 6.66504C8.97663 6.66504 6.49121 9.1503 6.49121 12.2138C6.49121 15.2773 8.97663 17.7625 12.0399 17.7625C15.1034 17.7625 17.5887 15.2773 17.5887 12.2138C17.5887 9.1503 15.1034 6.66504 12.0399 6.66504ZM12.0399 15.8131C10.0526 15.8131 8.44062 14.2013 8.44062 12.2138C8.44062 10.2263 10.0526 8.61445 12.0399 8.61445C14.0274 8.61445 15.6393 10.2263 15.6393 12.2138C15.6393 14.2013 14.0274 15.8131 12.0399 15.8131Z" fill="white"/>
<path d="M19.1038 6.44577C19.1038 7.16112 18.5237 7.74115 17.8082 7.74115C17.0928 7.74115 16.5128 7.16112 16.5128 6.44577C16.5128 5.73025 17.0928 5.15039 17.8082 5.15039C18.5237 5.15039 19.1038 5.73025 19.1038 6.44577Z" fill="white"/>
</g>
<defs>
<clipPath id="clip0_1344_61793">
<rect width="21.6" height="21.6" fill="white" transform="translate(1.19995 1.41162)"/>
</clipPath>
</defs>
</svg>
