<svg width="137" height="138" viewBox="0 0 137 138" fill="none" xmlns="http://www.w3.org/2000/svg">
<g clip-path="url(#clip0_231_879)">
<path d="M37.2072 89.5583L38.6899 91.6375C38.6899 91.6375 58.492 102.804 73.394 100.268C88.296 97.7326 103.368 80.6312 103.368 80.6312L104 78.1922L104 78.1921C101.477 73.4781 98.2554 66.9649 95.5811 59.9619L92.0921 58.7132L41.5357 67.3164L39.1227 69.5687C38.9152 77.0624 38.0287 84.2748 37.207 89.5584L37.2072 89.5583Z" fill="#163788"/>
<path d="M48.5581 66.9127L49.5948 65.945L41.5357 67.3164L39.1227 69.5687C38.9152 77.0624 38.0287 84.2748 37.207 89.5583L37.2072 89.5583L38.6899 91.6375C38.6899 91.6375 41.7377 93.3559 46.3409 95.2915C47.3914 86.7459 48.2799 76.9566 48.5581 66.9127Z" fill="#042267" fill-opacity="0.33"/>
<path d="M121.469 37.8705L64.2212 28.7871C62.2275 28.4709 60.1847 28.8185 58.4078 29.7764L7.38623 57.284C6.06909 57.9941 6.27393 59.9439 7.70988 60.3646L65.3862 77.2669C68.1056 78.0638 71.0406 77.5643 73.3433 75.9129L122.183 40.8848C123.399 40.0128 122.947 38.105 121.469 37.8705Z" fill="#2C4A93"/>
<path d="M24.0937 57.5747C22.6575 57.154 22.4527 55.2043 23.77 54.4941L69.8099 29.6722L64.2205 28.7854C62.2268 28.4689 60.184 28.8165 58.4071 29.7746L7.38577 57.2822C6.06863 57.9924 6.27347 59.9421 7.70942 60.3628L65.3858 77.2651C68.1051 78.062 71.0401 77.5625 73.3429 75.9111L77.207 73.1397L24.0937 57.5747Z" fill="#1E3F8C"/>
<path d="M66.9474 43.4273L66.9475 43.4274L108.34 47.1313L108.341 47.1313C110.678 47.335 112.59 49.0964 112.984 51.4143L118.509 83.8793C118.65 84.7132 118.09 85.5037 117.256 85.6455C116.423 85.7873 115.633 85.2267 115.491 84.3933L109.966 51.9281C109.805 50.9828 109.026 50.2644 108.071 50.181C108.071 50.181 108.07 50.1809 108.07 50.1809L66.6746 46.4765C66.6746 46.4765 66.6746 46.4765 66.6746 46.4765C65.8326 46.4012 65.2111 45.6575 65.2865 44.8155C65.3619 43.9733 66.1049 43.3515 66.9474 43.4273Z" fill="white" stroke="#00257D" stroke-width="0.5"/>
<path d="M120.737 87.5152L114.59 88.5611L115.794 100.053C115.894 101.005 116.756 101.68 117.674 101.524L122.115 100.768C123.032 100.612 123.623 99.6901 123.402 98.7584L120.737 87.5152Z" fill="#DD9E20"/>
<path d="M119.794 99.3724L118.59 87.8804L114.59 88.5611L115.794 100.053C115.894 101.005 116.756 101.68 117.674 101.524L121.674 100.843C120.756 100.999 119.894 100.325 119.794 99.3724Z" fill="#FFAA00"/>
<path d="M117.696 79.6261L114.851 80.1103C113.433 80.3515 112.471 81.7087 112.712 83.1262L113.583 88.2421C113.662 88.7075 114.103 89.0206 114.569 88.9414L120.883 87.8669C121.348 87.7877 121.662 87.3461 121.582 86.8808L120.712 81.7649C120.47 80.3472 119.113 79.3849 117.696 79.6261Z" fill="#FFAA00"/>
<path d="M118.108 87.4731L117.237 82.3571C117.046 81.2338 117.612 80.1507 118.561 79.6284C118.281 79.5815 117.99 79.577 117.696 79.627L114.851 80.1112C113.433 80.3524 112.471 81.7097 112.712 83.1272L113.583 88.2431C113.662 88.7087 114.103 89.0216 114.569 88.9424L119.094 88.1724C118.628 88.2516 118.187 87.9386 118.108 87.4731Z" fill="#DD9E20"/>
<path d="M63.5912 40.4751C60.1811 40.845 57.8356 43.9983 58.4025 47.3293L58.4075 47.3589C58.6699 48.8555 60.1282 49.8361 61.6264 49.5812L67.7338 48.5419C69.182 48.2955 70.3872 46.9374 69.9756 45.0668C69.3361 42.1575 66.5528 40.1537 63.5912 40.4751Z" fill="#FFAA00"/>
<path d="M104 78.192C98.7526 84.2448 89.7866 91.5456 79.6566 96.8234C75.6414 98.9156 70.9387 99.7517 66.3432 99.0889C55.0632 97.4624 44.1929 93.5504 37.2071 89.5581C36.9189 91.4103 36.6384 93.0265 36.3983 94.3328C35.9856 96.577 37.055 98.8387 39.0601 99.9278C50.1691 105.962 61.2281 108.409 68.0978 109.4C70.3665 109.727 72.6718 109.692 74.9314 109.307C77.1911 108.923 79.3782 108.194 81.411 107.135C87.5664 103.927 97.1933 97.9596 105.681 88.5909C107.213 86.8999 107.474 84.4118 106.343 82.4304C105.684 81.2768 104.885 79.8444 104 78.192Z" fill="#FFAA00"/>
</g>
<defs>
<clipPath id="clip0_231_879">
<rect width="118" height="118" fill="white" transform="translate(0.0205078 20.7886) rotate(-9.65748)"/>
</clipPath>
</defs>
</svg>
