<svg width="121" height="121" viewBox="0 0 121 121" fill="none" xmlns="http://www.w3.org/2000/svg">
<path d="M106.463 60.0658C106.603 60.0794 106.713 60.1344 106.792 60.2311C106.871 60.3329 106.904 60.4512 106.891 60.586L106.779 61.7525C106.745 62.105 106.542 62.3627 106.17 62.5256C105.803 62.6942 105.592 63.061 105.538 63.6261L105.385 65.2047C105.313 65.9564 105.585 66.3621 106.202 66.4217C106.818 66.4814 107.161 66.1351 107.228 65.3829L107.415 63.4544C107.428 63.3144 107.484 63.202 107.581 63.1173C107.683 63.0381 107.803 63.0054 107.943 63.0189L108.752 63.0971C108.892 63.1106 109.002 63.1657 109.082 63.2624C109.166 63.3647 109.201 63.4859 109.188 63.6258L109.015 65.4066C108.982 65.7488 109.033 66.0126 109.167 66.1983C109.305 66.3896 109.501 66.4975 109.755 66.522C110.009 66.5466 110.223 66.4783 110.395 66.3171C110.567 66.161 110.67 65.9119 110.703 65.5698L110.841 64.1389C110.859 63.9575 110.83 63.7664 110.755 63.5655C110.686 63.3652 110.57 63.2101 110.408 63.1002C110.075 62.864 109.928 62.5698 109.967 62.2178L110.079 61.0591C110.093 60.9192 110.148 60.8068 110.245 60.722C110.342 60.6424 110.46 60.6093 110.6 60.6229C111.3 60.6906 111.833 61.0848 112.197 61.8055C112.561 62.5314 112.697 63.3765 112.603 64.3407L112.452 65.9038C112.347 66.9976 112.061 67.8438 111.595 68.4424C111.133 69.0466 110.493 69.3091 109.674 69.2299C108.855 69.1507 108.3 68.7229 108.008 67.9465C107.465 68.8044 106.701 69.1857 105.716 69.0905C104.855 69.0073 104.258 68.6408 103.923 67.9909C103.593 67.3468 103.486 66.4234 103.602 65.2206L103.77 63.4865C103.87 62.4445 104.167 61.5967 104.659 60.9432C105.151 60.2896 105.753 59.9971 106.463 60.0658Z" fill="#183989"/>
<path d="M103.717 69.9019C104.381 69.3908 105.13 69.2672 105.965 69.531C106.799 69.7948 107.336 70.3252 107.575 71.122C107.814 71.9238 107.768 72.8436 107.44 73.8815L106.661 76.3471C107.242 76.5309 107.685 76.5372 107.99 76.3661C108.296 76.195 108.545 75.804 108.738 75.1932C108.93 74.5874 108.913 74.1124 108.689 73.7683C108.468 73.4308 108.414 73.0832 108.527 72.7257L108.878 71.6158C108.92 71.4817 108.998 71.3833 109.11 71.3206C109.227 71.2644 109.349 71.2568 109.478 71.2976C110.903 71.7483 111.188 73.3269 110.332 76.0333C109.959 77.2152 109.393 78.0797 108.636 78.6268C107.883 79.1754 106.953 79.2747 105.846 78.9245L101.235 77.4664C101.101 77.424 101.005 77.3473 100.947 77.2361C100.889 77.125 100.882 77.0024 100.924 76.8684L101.379 75.4307C101.421 75.2966 101.498 75.2007 101.609 75.143C101.725 75.0868 101.848 75.0792 101.977 75.12L102.208 75.193C101.895 74.231 101.903 73.2367 102.233 72.2103C102.557 71.1874 103.051 70.4179 103.717 69.9019ZM105.693 73.5256C105.803 73.178 105.805 72.8757 105.701 72.6187C105.595 72.3667 105.408 72.1982 105.14 72.1134C104.872 72.0287 104.618 72.0631 104.378 72.2167C104.138 72.3703 103.958 72.6383 103.837 73.0207C103.595 73.7854 103.585 74.5935 103.808 75.445L104.97 75.8124L105.693 73.5256Z" fill="#183989"/>
<path d="M101.216 77.9908L102.015 78.4666C102.136 78.5386 102.212 78.6352 102.243 78.7566C102.275 78.8852 102.255 79.0098 102.183 79.1306L101.872 79.6542L105.022 82.7768C106.175 83.9245 106.184 85.4514 105.048 87.3576L103.233 90.4047C103.161 90.5256 103.062 90.6 102.937 90.6281C102.812 90.6633 102.69 90.645 102.569 90.573L96.0386 86.6826C95.9223 86.6133 95.8478 86.5144 95.8153 86.3859C95.7845 86.2645 95.8051 86.1434 95.8771 86.0226L100.559 78.163C100.631 78.0422 100.729 77.9642 100.853 77.929C100.979 77.9009 101.1 77.9215 101.216 77.9908ZM100.564 81.8489L98.6369 85.084L102.745 87.531L103.468 86.3162C103.855 85.6673 103.771 85.0598 103.217 84.4934L100.564 81.8489Z" fill="#183989"/>
<path d="M94.8175 88.3309C95.6396 88.1687 96.3656 88.3912 96.9955 88.9986C97.6253 89.606 97.8704 90.3198 97.7306 91.1401C97.5871 91.9641 97.1376 92.7679 96.382 93.5514L94.587 95.4129C95.0256 95.8359 95.4198 96.0387 95.7694 96.0213C96.119 96.0039 96.5162 95.7646 96.9608 95.3035C97.4019 94.8461 97.5985 94.4134 97.5506 94.0054C97.5028 93.6047 97.609 93.2695 97.8693 92.9995L98.6773 92.1616C98.775 92.0604 98.8882 92.0067 99.017 92.0007C99.1459 92.0021 99.2591 92.0497 99.3566 92.1437C100.433 93.1813 99.9854 94.7218 98.0151 96.765C97.1546 97.6573 96.2635 98.18 95.3418 98.333C94.4237 98.4897 93.5467 98.1649 92.7106 97.3587L89.2296 94.0018C89.1283 93.9042 89.0766 93.7928 89.0743 93.6676C89.072 93.5424 89.1197 93.4292 89.2173 93.328L90.264 92.2426C90.3616 92.1414 90.473 92.0896 90.5982 92.0874C90.7271 92.0887 90.8403 92.1364 90.9378 92.2304L91.1121 92.3985C91.2597 91.3976 91.7096 90.5109 92.4617 89.7385C93.2064 88.9661 93.9917 88.497 94.8175 88.3309ZM94.9753 92.4554C95.2284 92.1929 95.3653 91.9234 95.386 91.6468C95.4032 91.3739 95.3105 91.1398 95.1081 90.9446C94.9056 90.7494 94.6629 90.6672 94.3798 90.6981C94.0967 90.7291 93.816 90.8889 93.5376 91.1776C92.9809 91.7549 92.6127 92.4744 92.4331 93.3359L93.3104 94.1819L94.9753 92.4554Z" fill="#183989"/>
<path d="M92.5446 99.9252L93.072 100.691C93.1518 100.807 93.1804 100.926 93.1577 101.049C93.1337 101.18 93.0638 101.285 92.948 101.364L86.6112 105.73C86.4954 105.81 86.3744 105.837 86.2483 105.81C86.1252 105.787 86.0237 105.718 85.9439 105.602L85.4164 104.836C85.3396 104.725 85.3111 104.605 85.3308 104.478C85.3535 104.355 85.4227 104.253 85.5385 104.174L87.5907 102.76L84.0757 97.658C83.9989 97.5465 83.9725 97.4255 83.9965 97.2952C84.0192 97.172 84.0884 97.0705 84.2042 96.9908L85.6388 96.0023C85.7546 95.9225 85.8762 95.8925 86.0037 95.9122C86.1298 95.9392 86.2313 96.0084 86.3081 96.1199L89.8231 101.222L91.8753 99.8076C91.9911 99.7278 92.1127 99.6977 92.2402 99.7175C92.3663 99.7444 92.4677 99.8137 92.5446 99.9252Z" fill="#183989"/>
<path d="M81.4936 99.3658L84.5589 106.322C84.6156 106.451 84.6213 106.573 84.576 106.69C84.528 106.814 84.4421 106.903 84.3182 106.957L82.7168 107.663C82.5928 107.718 82.4715 107.72 82.3526 107.67C82.2312 107.627 82.1421 107.541 82.0853 107.412L81.1371 105.26L78.9709 106.215C77.9557 106.662 77.0811 106.808 76.347 106.654C75.613 106.499 75.037 105.948 74.619 104.999C74.2032 104.055 74.1858 103.261 74.567 102.614C74.9483 101.968 75.6464 101.422 76.6616 100.974L80.8653 99.1219C80.9892 99.0673 81.1119 99.0616 81.2334 99.1048C81.3523 99.1549 81.439 99.2419 81.4936 99.3658ZM79.543 101.643L77.5984 102.499C77.3029 102.63 77.1119 102.816 77.0255 103.059C76.9343 103.304 76.959 103.587 77.0998 103.906C77.2426 104.23 77.4352 104.441 77.6776 104.539C77.9153 104.639 78.1819 104.624 78.4774 104.494L80.4219 103.637L79.543 101.643Z" fill="#183989"/>
<path d="M69.8947 103.806L70.8297 111.35C70.847 111.489 70.8172 111.608 70.7402 111.707C70.6587 111.812 70.5508 111.872 70.4164 111.889L65.78 112.464C64.7927 112.586 63.9705 112.494 63.3131 112.187C62.6507 111.881 62.2717 111.342 62.1762 110.572C62.0814 109.807 62.3275 109.189 62.9146 108.717C61.9537 108.375 61.4178 107.756 61.307 106.862C61.1962 105.968 61.41 105.301 61.9486 104.862C62.4878 104.427 63.3028 104.143 64.3934 104.008L69.3632 103.392C69.4975 103.375 69.6167 103.405 69.7206 103.481C69.82 103.563 69.8781 103.672 69.8947 103.806ZM67.3678 105.394L64.7937 105.713C64.5095 105.749 64.3023 105.856 64.1723 106.035C64.0371 106.214 63.9858 106.436 64.0185 106.699C64.0511 106.963 64.1549 107.165 64.3299 107.306C64.4996 107.448 64.7266 107.501 65.0109 107.466L67.585 107.147L67.3678 105.394ZM67.7954 108.845L65.5238 109.126C65.2912 109.155 65.1115 109.251 64.9847 109.413C64.8534 109.582 64.8021 109.782 64.8309 110.015C64.8598 110.248 64.9581 110.427 65.1259 110.553C65.2892 110.685 65.4872 110.737 65.7198 110.708L67.9915 110.426L67.7954 108.845Z" fill="#183989"/>
<path d="M59.1847 105.32C59.9181 106.148 60.2118 107.287 60.0658 108.738C59.9193 110.194 59.4046 111.252 58.5217 111.912C57.6382 112.577 56.4399 112.833 54.9267 112.681C53.4083 112.528 52.2824 112.038 51.549 111.211C50.8152 110.388 50.5215 109.249 50.6679 107.793C50.8139 106.342 51.3286 105.284 52.2121 104.619C53.0955 103.954 54.2965 103.698 55.8149 103.851C57.3281 104.003 58.4513 104.493 59.1847 105.32ZM56.6833 110.439C57.0468 110.052 57.2749 109.397 57.3677 108.475C57.4605 107.552 57.3676 106.862 57.089 106.405C56.8105 105.948 56.3266 105.685 55.6374 105.615C54.943 105.545 54.4137 105.707 54.0497 106.099C53.6805 106.492 53.4495 107.149 53.3567 108.071C53.2639 108.994 53.3597 109.681 53.6439 110.134C53.923 110.586 54.4097 110.847 55.1041 110.917C55.7934 110.986 56.3197 110.827 56.6833 110.439Z" fill="#183989"/>
<path d="M50.218 103.83L47.817 111.042C47.7726 111.175 47.6944 111.27 47.5824 111.326C47.4638 111.386 47.3403 111.394 47.2118 111.351L39.74 108.864C39.6065 108.819 39.5126 108.739 39.4582 108.622C39.4022 108.51 39.3964 108.387 39.4408 108.254L41.8418 101.041C41.8862 100.908 41.9644 100.813 42.0764 100.757C42.1883 100.701 42.311 100.695 42.4445 100.739L44.0975 101.29C44.2309 101.334 44.3281 101.413 44.3891 101.527C44.4435 101.644 44.4493 101.766 44.4065 101.895L42.4497 107.773L45.6964 108.854L47.6532 102.976C47.6976 102.842 47.7783 102.748 47.8952 102.694C48.0072 102.638 48.1274 102.631 48.2559 102.674L49.9163 103.227C50.0498 103.271 50.1445 103.349 50.2005 103.461C50.2566 103.573 50.2624 103.696 50.218 103.83Z" fill="#183989"/>
<path d="M42.307 98.3816L37.0368 107.155C36.9644 107.275 36.8675 107.351 36.746 107.381C36.6173 107.413 36.495 107.394 36.3789 107.325L35.0864 106.548C34.9703 106.478 34.8984 106.381 34.8708 106.255C34.836 106.13 34.8549 106.008 34.9273 105.888L35.048 105.687C34.0422 105.763 33.0727 105.521 32.1396 104.96C31.2064 104.4 30.6258 103.601 30.3977 102.565C30.1669 101.533 30.4203 100.403 31.1578 99.1757C31.8927 97.9523 32.7796 97.2092 33.8186 96.9463C34.8575 96.6833 35.9261 96.8817 37.0245 97.5415C37.5915 97.8821 38.1682 98.3835 38.7547 99.0457L39.9898 96.9897C40.0622 96.8691 40.1614 96.795 40.2874 96.7674C40.4115 96.7327 40.5317 96.7501 40.6477 96.8199L42.1479 97.721C42.264 97.7907 42.3381 97.8899 42.3701 98.0186C42.4004 98.1401 42.3794 98.2611 42.307 98.3816ZM37.8254 100.593C37.3594 100.064 36.93 99.6811 36.5371 99.4451C35.9254 99.0777 35.3878 98.9917 34.9241 99.187C34.4559 99.3797 33.9925 99.8578 33.5339 100.621C33.0753 101.385 32.8655 102.012 32.9046 102.503C32.9365 102.996 33.1957 103.389 33.6824 103.682C34.1646 103.971 34.8456 104.107 35.7254 104.089L37.8254 100.593Z" fill="#183989"/>
<path d="M31.7355 95.354C31.8078 96.4574 31.3416 97.5376 30.3369 98.5947C29.3287 99.6556 28.2736 100.176 27.1715 100.156C26.0659 100.14 24.9619 99.6083 23.8595 98.5606C22.7534 97.5093 22.1641 96.4319 22.0919 95.3286C22.016 94.229 22.4822 93.1487 23.4904 92.0879C24.495 91.0308 25.5502 90.5103 26.6558 90.5264C27.7614 90.5425 28.8673 91.0761 29.9735 92.1274C31.0759 93.1751 31.6632 94.2507 31.7355 95.354ZM26.6215 97.8659C27.1462 97.7825 27.7278 97.4048 28.3665 96.7328C29.0052 96.0608 29.3546 95.4588 29.4147 94.9268C29.4749 94.3947 29.2539 93.8901 28.7518 93.4129C28.2459 92.9321 27.7288 92.7353 27.2005 92.8224C26.6684 92.9059 26.0831 93.2837 25.4444 93.9557C24.8057 94.6277 24.46 95.2297 24.4072 95.7615C24.3507 96.2898 24.5753 96.7943 25.0812 97.2751C25.5834 97.7523 26.0968 97.9492 26.6215 97.8659Z" fill="#183989"/>
<path d="M23.7398 84.8138C24.5628 86.0177 24.894 87.1667 24.7334 88.2607C24.5727 89.3547 23.8926 90.3117 22.693 91.1318C21.4891 91.9548 20.3498 92.2447 19.275 92.0015C18.196 91.7613 17.2508 91.0478 16.4396 89.8611C15.6254 88.6701 15.19 87.6271 15.1333 86.732C15.0737 85.8327 15.4137 85.1303 16.1533 84.6247C16.2694 84.5454 16.3904 84.5194 16.5164 84.5468C16.6395 84.57 16.7407 84.6396 16.82 84.7557L17.477 85.7166C17.6768 86.009 17.6889 86.3635 17.5132 86.7802C17.2824 87.3102 17.3875 87.8976 17.8284 88.5426C18.2664 89.1832 18.7391 89.5194 19.2465 89.551C19.7467 89.5813 20.3687 89.3422 21.1126 88.8337C21.8564 88.3252 22.3042 87.8267 22.456 87.3381C22.6048 86.8451 22.4559 86.2719 22.0091 85.6184C21.5594 84.9605 21.0457 84.6429 20.4681 84.6655C20.0118 84.6809 19.6837 84.5425 19.4838 84.2501L18.8269 83.2891C18.7475 83.173 18.7216 83.052 18.749 82.926C18.7692 82.7986 18.8352 82.6967 18.947 82.6203C19.6865 82.1147 20.4644 82.0529 21.2808 82.4349C22.0942 82.8126 22.9138 83.6056 23.7398 84.8138Z" fill="#183989"/>
<path d="M13.684 57.351C13.5452 57.3284 13.4393 57.2662 13.3661 57.1646C13.2938 57.0578 13.2686 56.9376 13.2904 56.8039L13.479 55.6473C13.5361 55.2978 13.7553 55.0539 14.1367 54.9155C14.5138 54.7712 14.748 54.4189 14.8394 53.8586L15.0947 52.2934C15.2163 51.548 14.9712 51.1254 14.3595 51.0257C13.7478 50.9259 13.3837 51.2491 13.2673 51.9953L12.9554 53.9075C12.9328 54.0463 12.8702 54.1549 12.7677 54.2331C12.661 54.3054 12.5382 54.3303 12.3994 54.3076L11.5975 54.1768C11.4587 54.1542 11.3527 54.092 11.2796 53.9904C11.2022 53.8828 11.1748 53.7596 11.1974 53.6208L11.4854 51.8551C11.5407 51.5158 11.5077 51.2492 11.3863 51.0552C11.2606 50.8553 11.0718 50.7348 10.8199 50.6937C10.568 50.6526 10.3507 50.7069 10.168 50.8565C9.98614 51.001 9.86753 51.2429 9.81219 51.5821L9.58078 53.0009C9.55144 53.1808 9.56752 53.3734 9.62902 53.5787C9.68539 53.7831 9.79084 53.9455 9.94538 54.0657C10.2622 54.3232 10.3896 54.6263 10.3274 54.975L10.14 56.1238C10.1174 56.2626 10.0548 56.3712 9.95235 56.4494C9.85071 56.5226 9.7305 56.5478 9.59171 56.5252C8.89775 56.412 8.39237 55.9839 8.07555 55.2409C7.75957 54.4928 7.67956 53.6407 7.83551 52.6846L8.0883 51.1347C8.26521 50.0501 8.60571 49.2244 9.10979 48.6575C9.60956 48.0846 10.2655 47.8644 11.0777 47.9969C11.8899 48.1294 12.416 48.5925 12.6559 49.3863C13.2541 48.5656 14.0416 48.235 15.0183 48.3943C15.8716 48.5335 16.4441 48.9382 16.7358 49.6085C17.0233 50.2728 17.0697 51.2012 16.8752 52.3938L16.5948 54.1133C16.4262 55.1465 16.075 55.9731 15.5412 56.5932C15.0073 57.2133 14.3883 57.4659 13.684 57.351Z" fill="#183989"/>
<path d="M17.062 47.6865C16.3648 48.1515 15.6089 48.2241 14.7944 47.9045C13.9799 47.5848 13.48 47.0194 13.2948 46.2082C13.1115 45.3921 13.2187 44.4774 13.6164 43.4641L14.561 41.0569C13.9938 40.8343 13.552 40.798 13.2357 40.948C12.9195 41.0981 12.6443 41.4713 12.4103 42.0676C12.1782 42.6591 12.1624 43.1341 12.3631 43.4926C12.5607 43.8443 12.5911 44.1947 12.4541 44.5438L12.0288 45.6274C11.9775 45.7583 11.8935 45.8513 11.7768 45.9062C11.6572 45.9544 11.5343 45.9537 11.4083 45.9042C10.0168 45.3582 9.83952 43.764 10.8765 41.1216C11.3293 39.9677 11.9521 39.1435 12.7448 38.6489C13.5328 38.1524 14.4673 38.1163 15.5485 38.5406L20.0502 40.3072C20.1811 40.3586 20.2716 40.4416 20.3217 40.5564C20.3717 40.6712 20.3711 40.794 20.3197 40.9249L19.7689 42.3285C19.7175 42.4594 19.6345 42.5499 19.5197 42.6C19.4001 42.6482 19.2773 42.6475 19.1512 42.598L18.9257 42.5096C19.173 43.4906 19.0973 44.482 18.6986 45.4837C18.3066 46.4825 17.7611 47.2167 17.062 47.6865ZM15.3357 43.9374C15.2025 44.2768 15.1794 44.5782 15.2662 44.8417C15.3549 45.1003 15.5302 45.281 15.792 45.3837C16.0538 45.4865 16.3095 45.4693 16.5591 45.3323C16.8087 45.1953 17.0068 44.9401 17.1533 44.5668C17.4463 43.8201 17.5107 43.0145 17.3464 42.15L16.2119 41.7047L15.3357 43.9374Z" fill="#183989"/>
<path d="M20.0045 39.8961L19.2389 39.3686C19.1231 39.2888 19.0539 39.1874 19.0312 39.0642C19.0072 38.9338 19.0351 38.8107 19.1149 38.6949L19.4606 38.1931L16.5231 34.8694C15.4482 33.6481 15.5401 32.1239 16.7989 30.2968L18.8113 27.3761C18.8911 27.2603 18.9947 27.1925 19.1222 27.1728C19.2483 27.1459 19.3692 27.1723 19.485 27.2521L25.7446 31.5649C25.8561 31.6418 25.9239 31.7454 25.9479 31.8758C25.9706 31.9989 25.942 32.1184 25.8622 32.2342L20.6717 39.7676C20.592 39.8834 20.489 39.9548 20.3629 39.9817C20.2355 40.0015 20.116 39.9729 20.0045 39.8961ZM20.9101 36.0894L23.0465 32.9886L19.1093 30.2758L18.3071 31.4403C17.8786 32.0622 17.9219 32.6739 18.4372 33.2756L20.9101 36.0894Z" fill="#183989"/>
<path d="M27.0271 29.9896C26.1961 30.0978 25.4862 29.8282 24.8974 29.181C24.3086 28.5337 24.1107 27.8054 24.3038 26.9961C24.5008 26.1832 25.0019 25.4105 25.8071 24.678L27.7199 22.9378C27.3099 22.4871 26.9298 22.2589 26.5798 22.2535C26.2298 22.248 25.8179 22.4608 25.344 22.8919C24.874 23.3195 24.6496 23.7384 24.6707 24.1486C24.6922 24.5515 24.5643 24.8792 24.2869 25.1315L23.4258 25.9148C23.3218 26.0095 23.2053 26.0556 23.0764 26.0532C22.9478 26.0434 22.838 25.9884 22.7469 25.8883C21.741 24.7826 22.2879 23.2746 24.3876 21.3645C25.3045 20.5303 26.2279 20.067 27.1577 19.9746C28.084 19.8783 28.9379 20.2597 29.7195 21.1188L32.9737 24.696C33.0683 24.8 33.1127 24.9146 33.1068 25.0397C33.1009 25.1647 33.0459 25.2746 32.9419 25.3692L31.8265 26.3839C31.7225 26.4785 31.608 26.5229 31.4829 26.5169C31.3543 26.5072 31.2444 26.4522 31.1533 26.352L30.9903 26.1729C30.7777 27.162 30.2708 28.0174 29.4698 28.739C28.6762 29.461 27.8619 29.8779 27.0271 29.9896ZM27.1392 25.8636C26.8695 26.109 26.7153 26.369 26.6765 26.6437C26.6415 26.9149 26.7187 27.1545 26.9079 27.3625C27.0972 27.5706 27.3341 27.6684 27.6186 27.656C27.903 27.6437 28.1936 27.5026 28.4903 27.2327C29.0836 26.6929 29.498 25.9991 29.7335 25.1512L28.9133 24.2497L27.1392 25.8636Z" fill="#183989"/>
<path d="M30.1097 18.484L29.6339 17.6853C29.5619 17.5645 29.5413 17.4434 29.572 17.322C29.6046 17.1935 29.6813 17.0932 29.8021 17.0213L36.4132 13.0829C36.534 13.0109 36.6565 12.9925 36.7805 13.0278C36.9019 13.0585 36.9986 13.1343 37.0706 13.2551L37.5464 14.0538C37.6157 14.1702 37.6363 14.2913 37.6082 14.4171C37.5774 14.5385 37.5016 14.6352 37.3808 14.7071L35.2398 15.9826L38.4105 21.3051C38.4798 21.4214 38.4981 21.5439 38.4656 21.6724C38.4348 21.7938 38.359 21.8904 38.2382 21.9624L36.7415 22.854C36.6207 22.926 36.4973 22.9479 36.3715 22.9199C36.2474 22.8846 36.1508 22.8088 36.0815 22.6925L32.9108 17.37L30.7697 18.6455C30.6489 18.7175 30.5256 18.7394 30.3997 18.7113C30.2757 18.6761 30.179 18.6003 30.1097 18.484Z" fill="#183989"/>
<path d="M40.9663 19.7939L38.3762 12.6472C38.3282 12.515 38.3308 12.3922 38.3839 12.2788C38.4401 12.1587 38.5318 12.0756 38.6592 12.0295L40.3044 11.4332C40.4317 11.387 40.553 11.393 40.6682 11.4509C40.7865 11.5022 40.8696 11.594 40.9175 11.7262L41.7188 13.937L43.9443 13.1304C44.9873 12.7524 45.8698 12.6653 46.5918 12.869C47.3138 13.0726 47.8513 13.6617 48.2045 14.6361C48.5559 15.6057 48.5196 16.3999 48.0958 17.0189C47.672 17.6378 46.9386 18.1363 45.8956 18.5143L41.5767 20.0796C41.4494 20.1257 41.3266 20.1231 41.2083 20.0718C41.0931 20.0139 41.0124 19.9212 40.9663 19.7939ZM43.0658 17.6536L45.0636 16.9295C45.3672 16.8195 45.5703 16.6462 45.6729 16.4096C45.7804 16.1712 45.7747 15.8879 45.6558 15.5599C45.5351 15.2269 45.3571 15.0033 45.1218 14.8891C44.8915 14.7732 44.6245 14.7702 44.3209 14.8803L42.3231 15.6043L43.0658 17.6536Z" fill="#183989"/>
<path d="M52.701 16.0781L52.2613 8.48926C52.2532 8.34887 52.2907 8.23191 52.374 8.1384C52.4622 8.03938 52.5739 7.98596 52.7091 7.97813L57.3731 7.70788C58.3662 7.65034 59.1807 7.79618 59.8166 8.1454C60.4576 8.49432 60.8006 9.05615 60.8455 9.8309C60.8901 10.6004 60.604 11.2013 59.9874 11.6335C60.9238 12.0384 61.4181 12.6906 61.4702 13.5901C61.5223 14.4896 61.2653 15.141 60.6992 15.5442C60.1327 15.9423 59.3009 16.173 58.2038 16.2366L53.2044 16.5263C53.0692 16.5341 52.9522 16.4966 52.8535 16.4136C52.7597 16.3251 52.7089 16.2133 52.701 16.0781ZM55.3264 14.6582L57.9158 14.5082C58.2018 14.4916 58.4155 14.3984 58.557 14.2284C58.7036 14.0582 58.7693 13.8405 58.7539 13.5753C58.7385 13.3102 58.6482 13.1015 58.4828 12.9493C58.3227 12.7969 58.0997 12.729 57.8137 12.7455L55.2243 12.8956L55.3264 14.6582ZM55.1253 11.1875L57.4105 11.0551C57.6445 11.0415 57.8301 10.9577 57.9672 10.8037C58.1093 10.6442 58.1735 10.4474 58.16 10.2134C58.1464 9.97946 58.06 9.79404 57.9008 9.65719C57.7465 9.51483 57.5523 9.45044 57.3184 9.46399L55.0331 9.5964L55.1253 11.1875Z" fill="#183989"/>
<path d="M63.6487 15.2106C62.9709 14.337 62.7521 13.181 62.9924 11.7426C63.2335 10.299 63.8161 9.2769 64.7402 8.67616C65.6652 8.07027 66.8777 7.89262 68.3778 8.14319C69.883 8.39463 70.9745 8.95715 71.6523 9.83077C72.331 10.6993 72.5497 11.8553 72.3086 13.2988C72.0683 14.7372 71.4857 15.7593 70.5607 16.3652C69.6358 16.9711 68.4207 17.1483 66.9155 16.8969C65.4155 16.6463 64.3265 16.0842 63.6487 15.2106ZM66.4787 10.2656C66.0907 10.6285 65.8203 11.2671 65.6676 12.1815C65.5148 13.0959 65.5625 13.7904 65.8106 14.2648C66.0588 14.7393 66.5245 15.0336 67.2077 15.1477C67.8961 15.2627 68.4347 15.1362 68.8236 14.7681C69.2176 14.4009 69.491 13.7601 69.6437 12.8457C69.7965 11.9313 69.7458 11.239 69.4916 10.7688C69.2426 10.2995 68.774 10.0074 68.0856 9.8924C67.4023 9.77826 66.8667 9.90265 66.4787 10.2656Z" fill="#183989"/>
<path d="M72.6745 17.3085L75.557 10.2747C75.6104 10.1446 75.6948 10.0553 75.8103 10.007C75.9326 9.95578 76.0564 9.95585 76.1817 10.0072L83.4685 12.9934C83.5987 13.0467 83.6869 13.1336 83.7333 13.2539C83.7816 13.3694 83.7792 13.4922 83.7258 13.6223L80.8433 20.6562C80.79 20.7863 80.7056 20.8755 80.5901 20.9239C80.4746 20.9722 80.3517 20.9697 80.2216 20.9164L78.6095 20.2558C78.4794 20.2025 78.3878 20.1171 78.3346 19.9996C78.2882 19.8792 78.2907 19.7564 78.3421 19.6311L80.6913 13.8985L77.525 12.6009L75.1758 18.3335C75.1224 18.4637 75.0356 18.5519 74.9153 18.5983C74.7998 18.6467 74.6794 18.6452 74.5541 18.5938L72.9348 17.9302C72.8046 17.8769 72.7154 17.7925 72.6671 17.677C72.6187 17.5615 72.6212 17.4386 72.6745 17.3085Z" fill="#183989"/>
<path d="M80.0506 23.1581L85.8881 14.7518C85.9683 14.6363 86.07 14.5674 86.1932 14.5452C86.3237 14.5216 86.4445 14.5485 86.5558 14.6257L87.7943 15.4858C87.9055 15.563 87.9707 15.6654 87.99 15.7929C88.0165 15.9191 87.9896 16.0399 87.9094 16.1554L87.7757 16.3479C88.7844 16.3382 89.7358 16.6437 90.6299 17.2646C91.524 17.8855 92.0507 18.7204 92.21 19.7695C92.3722 20.8143 92.0448 21.9249 91.2279 23.1013C90.4139 24.2735 89.4799 24.9565 88.4259 25.1504C87.3718 25.3442 86.3186 25.0758 85.2662 24.345C84.7229 23.9677 84.1805 23.4293 83.6389 22.7299L82.2709 24.6999C82.1907 24.8154 82.0869 24.8828 81.9594 24.9021C81.8332 24.9286 81.7144 24.9032 81.6032 24.826L80.1658 23.8278C80.0546 23.7506 79.9872 23.6467 79.9637 23.5162C79.9414 23.393 79.9704 23.2736 80.0506 23.1581ZM84.6683 21.2476C85.0984 21.8062 85.5016 22.2162 85.8781 22.4776C86.4642 22.8846 86.995 23.0059 87.4706 22.8416C87.9504 22.6802 88.4443 22.2337 88.9523 21.5022C89.4603 20.7706 89.711 20.1584 89.7045 19.6656C89.7052 19.1715 89.4724 18.7626 89.0061 18.4388C88.544 18.1179 87.8735 17.9376 86.9943 17.8978L84.6683 21.2476Z" fill="#183989"/>
<path d="M90.4331 26.8421C90.4331 25.7363 90.9689 24.6889 92.0405 23.6997C93.1159 22.707 94.2028 22.2566 95.3011 22.3484C96.4033 22.4367 97.4702 23.0397 98.5018 24.1572C99.5369 25.2785 100.054 26.392 100.054 27.4978C100.058 28.6 99.5225 29.6474 98.4471 30.6401C97.3755 31.6293 96.2886 32.0797 95.1864 31.9914C94.0842 31.9031 93.0156 31.2983 91.9805 30.1769C90.9489 29.0594 90.4331 27.9478 90.4331 26.8421ZM95.7004 24.6699C95.1713 24.7187 94.5662 25.0576 93.885 25.6864C93.2038 26.3152 92.8158 26.8931 92.721 27.4201C92.6262 27.9471 92.8137 28.465 93.2836 28.974C93.757 29.4869 94.2601 29.7171 94.7929 29.6647C95.3293 29.6161 95.9381 29.2774 96.6193 28.6486C97.3006 28.0197 97.6849 27.4417 97.7723 26.9144C97.8633 26.391 97.6721 25.8729 97.1987 25.3601C96.7288 24.8511 96.2294 24.621 95.7004 24.6699Z" fill="#183989"/>
<path d="M97.8563 38.0195C97.1145 36.7639 96.8599 35.5956 97.0924 34.5145C97.3249 33.4335 98.0667 32.5235 99.3178 31.7844C100.573 31.0426 101.729 30.8286 102.786 31.1422C103.847 31.4531 104.743 32.2274 105.474 33.4651C106.208 34.7073 106.573 35.7767 106.571 36.6735C106.571 37.5748 106.185 38.2533 105.414 38.7089C105.293 38.7805 105.17 38.7984 105.046 38.7627C104.925 38.7315 104.829 38.6554 104.757 38.5343L104.165 37.532C103.985 37.2271 103.996 36.8726 104.199 36.4684C104.464 35.9548 104.398 35.3617 104.001 34.6891C103.606 34.0209 103.157 33.6543 102.652 33.5892C102.155 33.5259 101.519 33.7235 100.743 34.1818C99.9673 34.64 99.4876 35.108 99.3039 35.5855C99.1228 36.0675 99.2336 36.6493 99.6363 37.3309C100.042 38.017 100.533 38.3678 101.111 38.3834C101.567 38.3981 101.886 38.558 102.066 38.8629L102.658 39.8652C102.729 39.9862 102.747 40.1087 102.712 40.2326C102.683 40.3584 102.61 40.4557 102.494 40.5246C101.723 40.9802 100.942 40.9905 100.153 40.5555C99.3662 40.1249 98.6007 39.2796 97.8563 38.0195Z" fill="#183989"/>
</svg>
