<svg width="138" height="138" viewBox="0 0 138 138" fill="none" xmlns="http://www.w3.org/2000/svg">
<path d="M123.418 68.5445C123.558 68.5558 123.669 68.6092 123.75 68.7047C123.83 68.8053 123.865 68.9231 123.854 69.058L123.759 70.2261C123.731 70.5791 123.532 70.8399 123.163 71.0085C122.799 71.1827 122.594 71.5527 122.548 72.1186L122.419 73.6993C122.358 74.4521 122.637 74.8535 123.254 74.9037C123.872 74.9538 124.209 74.6023 124.265 73.8491L124.422 71.918C124.433 71.7778 124.487 71.6646 124.582 71.5783C124.683 71.4977 124.803 71.463 124.944 71.4744L125.753 71.5401C125.894 71.5515 126.004 71.6049 126.085 71.7003C126.171 71.8014 126.208 71.922 126.197 72.0621L126.052 73.8453C126.024 74.1879 126.079 74.451 126.215 74.6345C126.357 74.8237 126.555 74.9286 126.809 74.9492C127.064 74.9699 127.276 74.8983 127.446 74.7344C127.615 74.5757 127.714 74.3251 127.742 73.9825L127.858 72.5497C127.873 72.368 127.841 72.1773 127.764 71.9777C127.691 71.7784 127.573 71.6251 127.409 71.5178C127.072 71.2867 126.921 70.9948 126.955 70.6422L127.049 69.482C127.061 69.3418 127.114 69.2286 127.21 69.1423C127.305 69.0612 127.423 69.0264 127.563 69.0378C128.264 69.0946 128.802 69.4806 129.178 70.1956C129.553 70.9159 129.702 71.7588 129.623 72.7243L129.496 74.2895C129.407 75.3848 129.135 76.2354 128.678 76.841C128.226 77.4523 127.59 77.7246 126.77 77.658C125.949 77.5915 125.388 77.1722 125.085 76.4004C124.554 77.2666 123.796 77.6597 122.81 77.5796C121.948 77.5096 121.345 77.1524 121 76.5078C120.66 75.8688 120.539 74.9471 120.637 73.7427L120.777 72.0063C120.862 70.9628 121.146 70.1106 121.628 69.4495C122.11 68.7884 122.707 68.4867 123.418 68.5445Z" fill="#183989"/>
<path d="M120.813 78.6194C121.453 78.0788 122.196 77.9213 123.042 78.1469C123.887 78.3726 124.447 78.878 124.723 79.6631C124.997 80.4533 124.994 81.3742 124.713 82.4259L124.046 84.9244C124.635 85.0816 125.078 85.0677 125.375 84.8829C125.673 84.6982 125.904 84.2963 126.069 83.6773C126.233 83.0634 126.195 82.5897 125.955 82.2561C125.719 81.929 125.65 81.5842 125.746 81.2219L126.046 80.0972C126.083 79.9614 126.156 79.8596 126.265 79.7918C126.379 79.7304 126.501 79.7172 126.632 79.7521C128.076 80.1376 128.432 81.7017 127.7 84.4442C127.38 85.6418 126.855 86.5311 126.123 87.112C125.396 87.6943 124.471 87.8356 123.349 87.5361L118.677 86.2889C118.541 86.2526 118.442 86.1803 118.379 86.0719C118.316 85.9636 118.303 85.8414 118.339 85.7056L118.728 84.2488C118.765 84.1129 118.837 84.0136 118.945 83.9509C119.059 83.8895 119.181 83.8763 119.312 83.9112L119.546 83.9737C119.189 83.0268 119.153 82.0332 119.436 80.9929C119.712 79.9563 120.171 79.1651 120.813 78.6194ZM122.951 82.1497C123.046 81.7975 123.035 81.4954 122.918 81.2434C122.801 80.9964 122.607 80.8367 122.335 80.7641C122.063 80.6916 121.811 80.7375 121.578 80.9018C121.346 81.0662 121.178 81.3421 121.074 81.7296C120.868 82.5045 120.895 83.3122 121.155 84.1527L122.333 84.467L122.951 82.1497Z" fill="#183989"/>
<path d="M118.597 86.9943L119.43 87.4067C119.556 87.4691 119.639 87.5596 119.679 87.6783C119.722 87.8039 119.712 87.9297 119.649 88.0557L119.379 88.6019L122.762 91.4709C124 92.5258 124.128 94.0475 123.143 96.0359L121.57 99.2146C121.507 99.3406 121.414 99.4225 121.291 99.4603C121.17 99.505 121.047 99.4962 120.921 99.4338L114.108 96.0612C113.987 96.0011 113.905 95.9083 113.862 95.7826C113.822 95.664 113.834 95.5417 113.896 95.4157L117.955 87.2169C118.017 87.0909 118.109 87.0055 118.23 86.9608C118.353 86.923 118.476 86.9342 118.597 86.9943ZM118.245 90.8913L116.575 94.266L120.86 96.3874L121.487 95.1201C121.822 94.4433 121.692 93.844 121.096 93.3223L118.245 90.8913Z" fill="#183989"/>
<path d="M112.966 97.9839C113.765 97.7331 114.511 97.8752 115.204 98.4104C115.896 98.9455 116.217 99.6284 116.168 100.459C116.115 101.294 115.755 102.142 115.09 103.003L113.508 105.049C113.99 105.422 114.404 105.58 114.75 105.525C115.095 105.469 115.464 105.188 115.856 104.682C116.245 104.179 116.393 103.727 116.301 103.327C116.21 102.934 116.279 102.589 116.508 102.292L117.22 101.371C117.306 101.26 117.413 101.194 117.54 101.174C117.668 101.162 117.786 101.197 117.893 101.28C119.076 102.194 118.799 103.774 117.063 106.02C116.305 107 115.476 107.617 114.576 107.869C113.681 108.125 112.774 107.898 111.855 107.187L108.029 104.23C107.918 104.144 107.854 104.039 107.838 103.914C107.822 103.79 107.857 103.673 107.943 103.561L108.865 102.368C108.952 102.257 109.057 102.194 109.181 102.178C109.309 102.165 109.427 102.2 109.534 102.283L109.726 102.431C109.763 101.42 110.114 100.489 110.777 99.6397C111.434 98.7908 112.163 98.2389 112.966 97.9839ZM113.572 102.067C113.795 101.778 113.902 101.495 113.892 101.218C113.879 100.945 113.762 100.722 113.539 100.55C113.317 100.378 113.067 100.323 112.789 100.385C112.511 100.446 112.249 100.636 112.004 100.953C111.513 101.588 111.225 102.343 111.141 103.219L112.105 103.964L113.572 102.067Z" fill="#183989"/>
<path d="M112.061 109.693L112.692 110.376C112.787 110.48 112.832 110.594 112.827 110.719C112.822 110.851 112.768 110.965 112.664 111.061L107.01 116.28C106.906 116.376 106.79 116.419 106.662 116.41C106.537 116.405 106.426 116.351 106.331 116.248L105.7 115.564C105.609 115.465 105.563 115.351 105.565 115.222C105.57 115.097 105.624 114.986 105.727 114.891L107.559 113.201L103.356 108.648C103.265 108.549 103.221 108.433 103.227 108.3C103.232 108.175 103.286 108.065 103.389 107.97L104.669 106.788C104.773 106.693 104.889 106.646 105.018 106.647C105.146 106.656 105.257 106.71 105.348 106.81L109.551 111.362L111.382 109.671C111.485 109.576 111.601 109.529 111.73 109.531C111.859 109.539 111.969 109.594 112.061 109.693Z" fill="#183989"/>
<path d="M100.915 110.819L105.089 117.172C105.166 117.29 105.192 117.41 105.167 117.532C105.14 117.662 105.07 117.764 104.957 117.839L103.494 118.8C103.381 118.874 103.262 118.896 103.136 118.867C103.009 118.844 102.907 118.774 102.83 118.656L101.538 116.691L99.5602 117.991C98.633 118.6 97.7947 118.889 97.0452 118.858C96.2956 118.827 95.6363 118.379 95.0671 117.513C94.5008 116.651 94.3522 115.87 94.6212 115.169C94.8903 114.469 95.4883 113.814 96.4155 113.205L100.255 110.683C100.368 110.608 100.488 110.582 100.615 110.605C100.74 110.635 100.84 110.706 100.915 110.819ZM99.3677 113.387L97.5918 114.554C97.3219 114.732 97.1644 114.947 97.1194 115.201C97.07 115.458 97.1411 115.732 97.3328 116.024C97.5272 116.32 97.7521 116.496 98.0075 116.553C98.2584 116.612 98.5188 116.553 98.7887 116.376L100.565 115.209L99.3677 113.387Z" fill="#183989"/>
<path d="M90.0693 117.325L92.5517 124.51C92.5976 124.643 92.5932 124.766 92.5384 124.878C92.4804 124.998 92.3874 125.079 92.2594 125.124L87.8437 126.649C86.9034 126.974 86.0799 127.055 85.3732 126.891C84.6615 126.729 84.1789 126.282 83.9255 125.548C83.6738 124.819 83.7861 124.164 84.2623 123.58C83.2511 123.445 82.5984 122.951 82.3042 122.099C82.01 121.248 82.0806 120.551 82.5161 120.009C82.9533 119.473 83.6913 119.025 84.73 118.666L89.4633 117.031C89.5913 116.986 89.714 116.991 89.8316 117.044C89.9459 117.103 90.0251 117.197 90.0693 117.325ZM87.9277 119.404L85.4762 120.251C85.2054 120.345 85.025 120.493 84.935 120.695C84.84 120.898 84.8359 121.125 84.9226 121.377C85.0094 121.628 85.153 121.804 85.3534 121.906C85.5489 122.009 85.782 122.014 86.0527 121.92L88.5043 121.073L87.9277 119.404ZM89.063 122.69L86.8994 123.438C86.6779 123.514 86.522 123.645 86.4318 123.831C86.3384 124.023 86.3299 124.23 86.4065 124.451C86.483 124.673 86.6165 124.828 86.8068 124.916C86.994 125.011 87.1984 125.021 87.4199 124.944L89.5834 124.197L89.063 122.69Z" fill="#183989"/>
<path d="M79.9604 121.087C80.8712 121.714 81.4301 122.749 81.6372 124.193C81.8451 125.641 81.5998 126.792 80.9013 127.645C80.2036 128.502 79.102 129.039 77.5966 129.255C76.086 129.472 74.8754 129.267 73.9646 128.64C73.0545 128.018 72.4956 126.983 72.2877 125.534C72.0806 124.09 72.3259 122.94 73.0236 122.082C73.7213 121.224 74.8255 120.687 76.3361 120.47C77.8415 120.254 79.0496 120.46 79.9604 121.087ZM78.7628 126.657C79.0226 126.194 79.0866 125.503 78.9549 124.585C78.8232 123.668 78.5672 123.02 78.1869 122.643C77.8066 122.267 77.2736 122.127 76.5879 122.226C75.8971 122.325 75.4222 122.609 75.1632 123.077C74.8991 123.547 74.8328 124.24 74.9645 125.158C75.0962 126.076 75.3544 126.72 75.7391 127.091C76.1187 127.463 76.6539 127.599 77.3447 127.5C78.0304 127.401 78.5031 127.12 78.7628 126.657Z" fill="#183989"/>
<path d="M70.4931 121.828L70.1412 129.421C70.1347 129.562 70.0851 129.674 69.9926 129.759C69.8946 129.848 69.778 129.889 69.6427 129.883L61.7762 129.519C61.6357 129.512 61.5234 129.46 61.4393 129.362C61.3549 129.27 61.316 129.153 61.3225 129.013L61.6744 121.419C61.6809 121.279 61.7304 121.166 61.823 121.082C61.9155 120.998 62.032 120.959 62.1725 120.965L63.9128 121.046C64.0533 121.052 64.1683 121.102 64.2579 121.195C64.342 121.293 64.3809 121.409 64.3746 121.544L64.0878 127.733L67.5061 127.892L67.7928 121.703C67.7994 121.562 67.8515 121.45 67.9492 121.366C68.0418 121.282 68.1557 121.243 68.291 121.249L70.0391 121.33C70.1796 121.336 70.292 121.386 70.3763 121.478C70.4607 121.571 70.4996 121.687 70.4931 121.828Z" fill="#183989"/>
<path d="M61.1388 118.71L58.7634 128.665C58.7307 128.801 58.6611 128.903 58.5544 128.968C58.4414 129.038 58.3191 129.057 58.1874 129.025L56.7208 128.675C56.589 128.644 56.491 128.572 56.4266 128.46C56.356 128.353 56.337 128.23 56.3696 128.093L56.424 127.865C55.4882 128.242 54.4909 128.304 53.4321 128.051C52.3732 127.798 51.5787 127.213 51.0483 126.294C50.5168 125.38 50.4172 124.226 50.7497 122.833C51.0809 121.445 51.702 120.469 52.6131 119.904C53.5242 119.34 54.6029 119.206 55.8491 119.504C56.4925 119.657 57.1937 119.961 57.9528 120.415L58.5095 118.082C58.5421 117.946 58.6143 117.845 58.726 117.781C58.8339 117.71 58.9537 117.69 59.0855 117.722L60.7877 118.128C60.9194 118.159 61.02 118.232 61.0894 118.345C61.155 118.451 61.1714 118.573 61.1388 118.71ZM57.5339 122.171C56.93 121.807 56.4051 121.572 55.9593 121.466C55.2652 121.3 54.7266 121.38 54.3436 121.707C53.9555 122.032 53.658 122.627 53.4513 123.494C53.2446 124.36 53.234 125.021 53.4196 125.478C53.5989 125.938 53.9646 126.234 54.5168 126.366C55.0639 126.497 55.7541 126.421 56.5874 126.137L57.5339 122.171Z" fill="#183989"/>
<path d="M49.9847 119.004C50.4182 120.021 50.3359 121.195 49.7379 122.525C49.1378 123.86 48.3145 124.7 47.268 125.047C46.2195 125.397 45.0016 125.261 43.6145 124.637C42.2227 124.012 41.31 123.19 40.8765 122.173C40.4409 121.16 40.5231 119.987 41.1233 118.652C41.7213 117.322 42.5446 116.481 43.5932 116.13C44.6418 115.78 45.862 115.917 47.2538 116.543C48.6409 117.166 49.5512 117.987 49.9847 119.004ZM45.9907 123.067C46.4582 122.815 46.882 122.266 47.2622 121.421C47.6424 120.575 47.7728 119.891 47.6534 119.369C47.534 118.847 47.1584 118.444 46.5266 118.16C45.8901 117.874 45.337 117.86 44.8673 118.117C44.3929 118.372 43.9656 118.922 43.5855 119.767C43.2053 120.613 43.0784 121.295 43.2046 121.815C43.3262 122.332 43.7052 122.734 44.3417 123.02C44.9735 123.304 45.5232 123.32 45.9907 123.067Z" fill="#183989"/>
<path d="M38.7312 111.745C39.9321 112.573 40.6543 113.526 40.8978 114.604C41.1413 115.683 40.8509 116.82 40.0264 118.017C39.199 119.218 38.2402 119.898 37.1499 120.058C36.0566 120.221 34.9181 119.896 33.7344 119.08C32.5464 118.261 31.765 117.445 31.3903 116.63C31.0113 115.812 31.0759 115.035 31.5842 114.297C31.664 114.181 31.7676 114.113 31.895 114.094C32.0182 114.071 32.1376 114.1 32.2534 114.179L33.212 114.84C33.5036 115.041 33.6424 115.367 33.6283 115.819C33.6035 116.397 33.9128 116.907 34.5562 117.35C35.1952 117.791 35.7572 117.934 36.242 117.781C36.7197 117.63 37.2141 117.183 37.7253 116.441C38.2365 115.699 38.4751 115.073 38.441 114.562C38.4026 114.049 38.0575 113.567 37.4056 113.118C36.7494 112.666 36.1559 112.554 35.6251 112.783C35.2048 112.962 34.8489 112.951 34.5572 112.75L33.5987 112.089C33.4829 112.009 33.4151 111.906 33.3954 111.778C33.3684 111.652 33.3933 111.533 33.4702 111.422C33.9784 110.684 34.6821 110.347 35.5812 110.41C36.476 110.47 37.526 110.915 38.7312 111.745Z" fill="#183989"/>
<path d="M13.7934 64.4639C13.6546 64.4413 13.5486 64.3791 13.4755 64.2775C13.4032 64.1707 13.378 64.0505 13.3998 63.9168L13.5884 62.7602C13.6454 62.4107 13.8647 62.1668 14.2461 62.0284C14.6232 61.8841 14.8574 61.5318 14.9488 60.9715L15.2041 59.4063C15.3257 58.6609 15.0806 58.2384 14.4689 58.1386C13.8572 58.0388 13.4932 58.362 13.3767 59.1082L13.0648 61.0205C13.0422 61.1592 12.9796 61.2678 12.8771 61.3461C12.7703 61.4183 12.6476 61.4432 12.5088 61.4205L11.7069 61.2897C11.5681 61.2671 11.4621 61.205 11.389 61.1033C11.3115 60.9957 11.2841 60.8725 11.3068 60.7337L11.5948 58.968C11.6501 58.6287 11.6171 58.3621 11.4957 58.1682C11.37 57.9682 11.1812 57.8477 10.9293 57.8067C10.6774 57.7656 10.4601 57.8198 10.2774 57.9695C10.0955 58.1139 9.97694 58.3558 9.9216 58.6951L9.69018 60.1138C9.66084 60.2937 9.67691 60.4863 9.73842 60.6916C9.79478 60.8961 9.90023 61.0584 10.0548 61.1786C10.3716 61.4361 10.499 61.7392 10.4368 62.0879L10.2494 63.2368C10.2268 63.3756 10.1642 63.4841 10.0617 63.5624C9.9601 63.6355 9.83988 63.6608 9.70109 63.6381C9.00714 63.5249 8.50175 63.0968 8.18494 62.3539C7.86896 61.6057 7.78895 60.7536 7.9449 59.7975L8.1977 58.2477C8.37462 57.1631 8.71512 56.3373 9.2192 55.7704C9.71898 55.1976 10.375 54.9774 11.1872 55.1099C11.9993 55.2423 12.5254 55.7055 12.7653 56.4992C13.3636 55.6786 14.151 55.3479 15.1277 55.5072C15.981 55.6464 16.5535 56.0511 16.8453 56.7214C17.1327 57.3857 17.1791 58.3141 16.9846 59.5067L16.7042 61.2262C16.5356 62.2594 16.1844 63.086 15.6506 63.7061C15.1167 64.3262 14.4976 64.5788 13.7934 64.4639Z" fill="#183989"/>
<path d="M17.2059 54.5743C16.523 55.0599 15.7696 55.1552 14.9459 54.8602C14.1221 54.5651 13.6055 54.015 13.396 53.2097C13.1883 52.3995 13.268 51.482 13.635 50.4572L14.507 48.0227C13.9333 47.8172 13.4907 47.7942 13.1791 47.9537C12.8675 48.1132 12.6037 48.4945 12.3876 49.0976C12.1734 49.6958 12.1719 50.171 12.3832 50.5233C12.5913 50.8689 12.6322 51.2183 12.5057 51.5713L12.1132 52.6672C12.0658 52.7996 11.9846 52.895 11.8696 52.9534C11.7515 53.0051 11.6287 53.0082 11.5012 52.9625C10.094 52.4585 9.86891 50.8703 10.8261 48.198C11.2441 47.031 11.8418 46.1885 12.6194 45.6703C13.3921 45.1504 14.3251 45.0863 15.4185 45.4779L19.9713 47.1086C20.1036 47.156 20.1966 47.2363 20.2501 47.3495C20.3036 47.4627 20.3066 47.5855 20.2592 47.7179L19.7508 49.1374C19.7033 49.2698 19.623 49.3628 19.5098 49.4163C19.3917 49.468 19.2689 49.471 19.1414 49.4254L18.9134 49.3437C19.19 50.3169 19.1441 51.3101 18.7756 52.3233C18.4138 53.3334 17.8906 54.0837 17.2059 54.5743ZM15.3678 50.8787C15.2449 51.2219 15.2308 51.5239 15.3255 51.7846C15.422 52.0405 15.6026 52.2158 15.8673 52.3107C16.1321 52.4055 16.3872 52.3807 16.6326 52.2362C16.878 52.0917 17.0683 51.8307 17.2035 51.4532C17.474 50.6981 17.5141 49.8909 17.324 49.0317L16.1766 48.6207L15.3678 50.8787Z" fill="#183989"/>
<path d="M20.0594 46.4999L19.2625 46.0211C19.1419 45.9487 19.0665 45.8518 19.0362 45.7303C19.0041 45.6016 19.0243 45.477 19.0967 45.3565L19.4105 44.8341L16.2715 41.7C15.1226 40.548 15.1193 39.021 16.2619 37.1191L18.0883 34.0786C18.1608 33.9581 18.2599 33.884 18.3859 33.8564C18.5101 33.8216 18.6324 33.8404 18.753 33.9128L25.2692 37.8272C25.3853 37.8969 25.4594 37.9961 25.4915 38.1247C25.5218 38.2462 25.5008 38.3673 25.4283 38.4878L20.7174 46.33C20.645 46.4506 20.5467 46.5282 20.4225 46.563C20.2965 46.5906 20.1755 46.5696 20.0594 46.4999ZM20.726 42.6442L22.6651 39.4162L18.5665 36.9541L17.8383 38.1663C17.4494 38.8137 17.5308 39.4216 18.0826 39.9899L20.726 42.6442Z" fill="#183989"/>
<path d="M26.3738 36.2114C25.5574 36.4005 24.8245 36.2018 24.1751 35.6154C23.5257 35.0289 23.2575 34.3235 23.3704 33.4991C23.4868 32.6708 23.9098 31.8528 24.6393 31.0449L26.3725 29.1257C25.9203 28.7173 25.5197 28.5275 25.1709 28.5564C24.822 28.5852 24.4329 28.8373 24.0035 29.3128C23.5777 29.7843 23.3953 30.2232 23.4566 30.6294C23.5175 31.0283 23.4222 31.3669 23.1709 31.6452L22.3907 32.5091C22.2964 32.6134 22.1851 32.6707 22.0565 32.681C21.9276 32.6838 21.8129 32.6399 21.7124 32.5491C20.603 31.5473 20.9996 29.993 22.9021 27.8864C23.7329 26.9665 24.6064 26.4149 25.5227 26.2318C26.4351 26.0452 27.3223 26.3412 28.1843 27.1196L31.7732 30.3608C31.8776 30.4551 31.933 30.5647 31.9393 30.6898C31.9457 30.8148 31.9018 30.9296 31.8075 31.0339L30.7969 32.1529C30.7027 32.2573 30.593 32.3127 30.468 32.319C30.3391 32.3219 30.2243 32.278 30.1238 32.1872L29.9441 32.0249C29.8293 33.0301 29.4087 33.931 28.6823 34.7276C27.9632 35.5239 27.1937 36.0185 26.3738 36.2114ZM26.0812 32.0944C25.8368 32.3649 25.7088 32.6388 25.6971 32.916C25.6889 33.1893 25.7891 33.4202 25.9979 33.6087C26.2066 33.7972 26.4519 33.8714 26.7338 33.8312C27.0157 33.791 27.2911 33.6221 27.5599 33.3245C28.0974 32.7292 28.4419 31.9981 28.5932 31.1312L27.6887 30.3144L26.0812 32.0944Z" fill="#183989"/>
<path d="M28.2282 24.5001L27.6542 23.7688C27.5674 23.6581 27.5315 23.5407 27.5465 23.4164C27.5623 23.2847 27.6256 23.1755 27.7362 23.0887L33.79 18.338C33.9007 18.2512 34.0197 18.2173 34.1473 18.2364C34.2716 18.2514 34.3772 18.3142 34.464 18.4248L35.0379 19.1562C35.1215 19.2627 35.1574 19.3802 35.1457 19.5086C35.1307 19.6329 35.0679 19.7385 34.9572 19.8253L32.9967 21.3639L36.8214 26.2376C36.905 26.3441 36.9389 26.4632 36.923 26.5948C36.908 26.7192 36.8452 26.8247 36.7346 26.9115L35.364 27.9871C35.2534 28.0739 35.1338 28.1114 35.0054 28.0996C34.8779 28.0805 34.7723 28.0177 34.6887 27.9112L30.864 23.0375L28.9034 24.576C28.7928 24.6628 28.6733 24.7004 28.5449 24.6886C28.4173 24.6695 28.3118 24.6067 28.2282 24.5001Z" fill="#183989"/>
<path d="M39.3004 24.3115L35.6287 17.6555C35.5608 17.5324 35.5442 17.4106 35.579 17.2904C35.6158 17.163 35.6935 17.0666 35.8121 17.0012L37.3444 16.1559C37.463 16.0905 37.5836 16.0775 37.7065 16.1168C37.8313 16.149 37.9277 16.2267 37.9956 16.3498L39.1315 18.4089L41.2042 17.2655C42.1756 16.7297 43.0337 16.5061 43.7786 16.5949C44.5235 16.6836 45.1463 17.1817 45.6469 18.0893C46.145 18.9923 46.2329 19.7825 45.9107 20.4599C45.5884 21.1373 44.9416 21.7439 43.9702 22.2798L39.9479 24.4986C39.8293 24.564 39.7076 24.5806 39.5827 24.5484C39.4599 24.509 39.3658 24.4301 39.3004 24.3115ZM41.0409 21.8703L42.9016 20.8439C43.1843 20.6879 43.3579 20.4851 43.4224 20.2354C43.4915 19.9831 43.4417 19.7043 43.2732 19.3987C43.1021 19.0886 42.8915 18.8955 42.6413 18.8193C42.3957 18.7407 42.1315 18.7794 41.8487 18.9353L39.9881 19.9617L41.0409 21.8703Z" fill="#183989"/>
<path d="M50.7182 18.5751L48.8136 11.216C48.7783 11.0798 48.7925 10.9578 48.856 10.8499C48.9233 10.7357 49.0225 10.6616 49.1536 10.6277L53.6764 9.45711C54.6395 9.20786 55.4668 9.1928 56.1583 9.41194C56.8549 9.62977 57.3004 10.1143 57.4949 10.8656C57.688 11.6119 57.5241 12.2569 57.0031 12.8006C58.0003 13.0159 58.6118 13.5597 58.8375 14.432C59.0633 15.3043 58.9376 15.9932 58.4605 16.4987C57.9821 16.9991 57.2109 17.387 56.147 17.6623L51.2989 18.917C51.1678 18.951 51.0458 18.9368 50.9329 18.8746C50.8237 18.806 50.7521 18.7062 50.7182 18.5751ZM53.018 16.6726L55.529 16.0227C55.8063 15.9509 55.9978 15.8179 56.1036 15.6238C56.2144 15.4283 56.2366 15.202 56.17 14.9449C56.1034 14.6877 55.9743 14.5006 55.7826 14.3834C55.5959 14.2649 55.3639 14.2416 55.0866 14.3134L52.5756 14.9632L53.018 16.6726ZM52.1469 13.3069L54.3629 12.7333C54.5898 12.6746 54.7556 12.5564 54.8603 12.3787C54.9686 12.1946 54.9935 11.9891 54.9347 11.7622C54.876 11.5353 54.7553 11.3702 54.5725 11.2669C54.3935 11.1572 54.1905 11.1317 53.9636 11.1904L51.7476 11.764L52.1469 13.3069Z" fill="#183989"/>
<path d="M61.0284 15.6088C60.1685 14.9136 59.6907 13.8385 59.5951 12.3833C59.4992 10.9229 59.8322 9.79444 60.5942 8.998C61.3558 8.19636 62.4953 7.7457 64.0129 7.64603C65.5357 7.54601 66.727 7.84357 67.5869 8.53871C68.4465 9.22865 68.9242 10.3038 69.0201 11.7642C69.1157 13.2194 68.7827 14.3478 68.0211 15.1495C67.2595 15.9511 66.1173 16.4019 64.5946 16.5019C63.077 16.6016 61.8883 16.3039 61.0284 15.6088ZM62.6505 10.147C62.3559 10.5891 62.239 11.2727 62.2997 12.1978C62.3605 13.1229 62.566 13.7879 62.9162 14.1929C63.2664 14.5979 63.7871 14.7777 64.4783 14.7323C65.1748 14.6866 65.6701 14.44 65.9643 13.9927C66.2637 13.545 66.3831 12.8587 66.3223 11.9336C66.2616 11.0085 66.0536 10.3462 65.6986 9.94675C65.3487 9.54695 64.8256 9.36991 64.1291 9.41565C63.4379 9.46105 62.945 9.70482 62.6505 10.147Z" fill="#183989"/>
<path d="M70.427 15.5491L71.362 8.00531C71.3793 7.86575 71.4374 7.75748 71.5361 7.6805C71.6407 7.599 71.7602 7.56657 71.8946 7.58323L79.7098 8.55189C79.8493 8.56919 79.9573 8.6298 80.0336 8.73373C80.1106 8.83249 80.1404 8.95165 80.1231 9.0912L79.1881 16.635C79.1708 16.7746 79.1128 16.8829 79.014 16.9598C78.9152 17.0368 78.7961 17.0667 78.6565 17.0494L76.9276 16.8351C76.788 16.8178 76.6772 16.7594 76.595 16.66C76.5187 16.5561 76.4888 16.4369 76.5055 16.3025L77.2675 10.1543L73.8717 9.73337L73.1096 15.8816C73.0923 16.0212 73.0317 16.1291 72.9278 16.2055C72.829 16.2825 72.7124 16.3126 72.578 16.296L70.8413 16.0807C70.7018 16.0634 70.5935 16.0054 70.5165 15.9066C70.4395 15.8079 70.4097 15.6887 70.427 15.5491Z" fill="#183989"/>
<path d="M79.6687 19.3728L82.828 9.63826C82.8714 9.50451 82.9489 9.40919 83.0604 9.3523C83.1785 9.29207 83.302 9.28285 83.4308 9.32465L84.865 9.7901C84.9938 9.8319 85.0858 9.91106 85.1411 10.0276C85.2029 10.1407 85.2121 10.2642 85.1687 10.3979L85.0964 10.6209C86.0592 10.32 87.0583 10.3376 88.0936 10.6737C89.129 11.0097 89.8745 11.6568 90.3301 12.6151C90.7873 13.5684 90.7949 14.7263 90.3527 16.0886C89.9122 17.446 89.2154 18.3698 88.2624 18.8599C87.3093 19.3501 86.2234 19.3974 85.0048 19.0019C84.3756 18.7977 83.7008 18.4391 82.9802 17.9259L82.2398 20.2072C82.1964 20.341 82.1165 20.4355 82 20.4908C81.8868 20.5526 81.7658 20.5627 81.637 20.5209L79.9725 19.9806C79.8437 19.9388 79.7492 19.8589 79.6889 19.7408C79.632 19.6292 79.6253 19.5066 79.6687 19.3728ZM83.5373 16.2094C84.1104 16.6199 84.615 16.8959 85.0509 17.0374C85.7296 17.2577 86.2729 17.2204 86.6806 16.9256C87.0934 16.6325 87.4372 16.0623 87.7121 15.2152C87.9871 14.3681 88.0502 13.7096 87.9015 13.2397C87.7594 12.7665 87.4184 12.4422 86.8784 12.267C86.3434 12.0933 85.6493 12.1145 84.7962 12.3304L83.5373 16.2094Z" fill="#183989"/>
<path d="M90.9585 19.996C90.6093 18.9469 90.7869 17.7838 91.4913 16.5069C92.1982 15.2254 93.0873 14.4548 94.1585 14.1951C95.2322 13.9308 96.4348 14.166 97.7665 14.9006C99.1027 15.6377 99.9454 16.5308 100.295 17.58C100.646 18.6246 100.469 19.7876 99.7618 21.0691C99.0574 22.3461 98.1683 23.1166 97.0946 23.3809C96.0209 23.6452 94.816 23.4087 93.4797 22.6716C92.1481 21.9371 91.3077 21.0452 90.9585 19.996ZM95.2703 16.2717C94.7838 16.4851 94.3166 16.9977 93.8688 17.8095C93.421 18.6212 93.2354 19.2921 93.3118 19.822C93.3883 20.352 93.7298 20.7842 94.3363 21.1188C94.9474 21.4559 95.4975 21.5155 95.9865 21.2975C96.4801 21.082 96.9508 20.5684 97.3986 19.7566C97.8464 18.9449 98.0286 18.275 97.945 17.7471C97.866 17.2218 97.521 16.7905 96.9099 16.4534C96.3034 16.1188 95.7568 16.0583 95.2703 16.2717Z" fill="#183989"/>
<path d="M101.634 28.1515C100.503 27.2304 99.86 26.2226 99.7038 25.1279C99.5475 24.0333 99.9283 22.9226 100.846 21.796C101.767 20.6654 102.777 20.0642 103.877 19.9926C104.98 19.917 106.089 20.3331 107.203 21.241C108.322 22.1522 109.035 23.0289 109.343 23.8711C109.655 24.7165 109.529 25.4866 108.963 26.1811C108.874 26.2901 108.765 26.3494 108.637 26.3588C108.512 26.3715 108.395 26.3335 108.286 26.2447L107.384 25.5095C107.109 25.2858 106.997 24.9493 107.047 24.4999C107.118 23.9262 106.851 23.3927 106.245 22.8992C105.644 22.4091 105.095 22.2208 104.599 22.3344C104.111 22.4472 103.582 22.8529 103.013 23.5515C102.444 24.2501 102.156 24.8552 102.149 25.3668C102.146 25.8816 102.452 26.3891 103.066 26.8891C103.683 27.3924 104.266 27.5513 104.813 27.3658C105.247 27.2216 105.601 27.2613 105.875 27.485L106.778 28.2202C106.887 28.309 106.946 28.4177 106.955 28.5463C106.972 28.6742 106.938 28.7906 106.852 28.8956C106.286 29.5901 105.558 29.87 104.667 29.7352C103.78 29.6037 102.769 29.0758 101.634 28.1515Z" fill="#183989"/>
</svg>
