<svg width="32" height="32" viewBox="0 0 32 32" fill="none" xmlns="http://www.w3.org/2000/svg">
<g clip-path="url(#clip0_741_1644)">
<path d="M7.76351 31.9999C5.71927 31.9999 3.78878 31.1899 2.29934 29.7005C0.739784 28.1409 -0.0748388 26.0975 0.00541103 23.9465C0.0883483 21.7251 1.09191 19.5912 2.90765 17.7754L6.17689 14.4929C6.66402 14.0037 7.45545 14.0021 7.94464 14.4892C8.43376 14.9764 8.43545 15.7679 7.94826 16.257L4.67727 19.5414C2.02659 22.1921 1.77647 25.642 4.06721 27.9328C6.35802 30.2237 9.80795 29.9735 12.4567 27.3245L16.9496 22.8316C18.3114 21.4698 19.0624 19.9149 19.1214 18.335C19.1754 16.8869 18.6202 15.5044 17.5579 14.4421C17.202 14.0862 16.8082 13.7842 16.3874 13.5446C15.7875 13.2029 15.5782 12.4396 15.9199 11.8397C16.2616 11.2399 17.0249 11.0306 17.6247 11.3722C18.2395 11.7225 18.8119 12.1606 19.3257 12.6744C20.8853 14.234 21.6999 16.2774 21.6197 18.4284C21.5367 20.6498 20.5332 22.7838 18.7174 24.5995L14.2245 29.0924C12.4087 30.9081 10.2748 31.9116 8.05339 31.9946C7.95664 31.9981 7.85983 31.9999 7.76351 31.9999ZM16.0802 20.1602C16.4219 19.5603 16.2126 18.797 15.6127 18.4554C15.1919 18.2157 14.7981 17.9137 14.4422 17.5579C12.1514 15.267 12.4016 11.8171 15.0504 9.16825L19.5434 4.67538C22.1923 2.02658 25.6422 1.77639 27.9328 4.06714C30.2236 6.35788 29.9735 9.80781 27.3228 12.4585L24.0518 15.7429C23.5646 16.232 23.5662 17.0235 24.0554 17.5107C24.5445 17.9979 25.336 17.9961 25.8232 17.507L29.0924 14.2244C30.9081 12.4087 31.9116 10.2747 31.9946 8.05338C32.0749 5.90245 31.2603 3.85895 29.7007 2.29939C28.1411 0.739769 26.0966 -0.0747292 23.9467 0.00539565C21.7253 0.088333 19.5914 1.09189 17.7757 2.90764L13.2827 7.4005C11.4669 9.21625 10.4634 11.3502 10.3804 13.5716C10.3002 15.7225 11.1148 17.766 12.6744 19.3256C13.1882 19.8393 13.7605 20.2774 14.3754 20.6277C14.5707 20.7389 14.7832 20.7918 14.9929 20.7918C15.4275 20.7917 15.8497 20.5647 16.0802 20.1602Z" fill="#9214A7"/>
</g>
<defs>
<clipPath id="clip0_741_1644">
<rect width="32" height="32" fill="white"/>
</clipPath>
</defs>
</svg>
