<svg width="142" height="121" viewBox="0 0 142 121" fill="none" xmlns="http://www.w3.org/2000/svg">
<g clip-path="url(#clip0_42_1009)">
<path d="M0 0.0175781L0.386324 0.00130695L2.17412 42.3346L1.7878 42.3509L0 0.0175781Z" fill="#00257D"/>
<path d="M7.69727 22.3784H8.08355V46.9302H7.69727V22.3784Z" fill="#00257D"/>
<path d="M71.0488 62.646L84.2369 42.7766L84.5593 42.99L71.3713 62.8594L71.0488 62.646Z" fill="#00257D"/>
<path d="M73.9204 67.6533L82.6325 58.8086L82.908 59.0792L74.1959 67.9239L73.9204 67.6533Z" fill="#00257D"/>
<path d="M101.597 117.413L132.303 114.588L132.338 114.972L101.633 117.797L101.597 117.413Z" fill="#00257D"/>
<path d="M115.064 120.622L141.973 118.729L142 119.114L115.092 121.007L115.064 120.622Z" fill="#00257D"/>
</g>
<defs>
<clipPath id="clip0_42_1009">
<rect width="142" height="121" fill="white"/>
</clipPath>
</defs>
</svg>
