<svg width="25" height="40" viewBox="0 0 25 40" fill="none" xmlns="http://www.w3.org/2000/svg">
<path d="M12.3077 0C5.52113 0 0 5.27802 0 11.7657V28.2343C0 34.722 5.52113 40 12.3077 40C19.0943 40 24.6154 34.722 24.6154 28.2343V11.7657C24.6154 5.27802 19.0943 0 12.3077 0ZM22.1049 28.2343C22.1049 33.3984 17.7097 37.6001 12.3077 37.6001C6.90564 37.6001 2.51045 33.3984 2.51045 28.2343V11.7657C2.51045 6.60156 6.90564 2.3999 12.3077 2.3999C17.7097 2.3999 22.1049 6.60156 22.1049 11.7657V28.2343Z" fill="#5E76AD" fill-opacity="0.28"/>
<path d="M12.3084 7.95703C11.6151 7.95703 11.0532 8.49414 11.0532 9.15698V14.6801C11.0532 15.3426 11.6151 15.88 12.3084 15.88C13.0015 15.88 13.5637 15.3426 13.5637 14.6801V9.15698C13.5637 8.49414 13.0018 7.95703 12.3084 7.95703Z" fill="#5E76AD" fill-opacity="0.28"/>
</svg>
