<svg width="269" height="270" viewBox="0 0 269 270" fill="none" xmlns="http://www.w3.org/2000/svg">
<circle cx="133.5" cy="135.495" r="124.5" fill="#F1F3FA"/>
<g clip-path="url(#clip0_1335_6759)">
<path d="M138.527 76.6208L136.764 88.7893L138.527 100.201C143.21 99.3012 147.919 98.8522 152.629 98.8518L154.392 87.1137L152.629 75.3893C147.609 75.313 142.928 75.7235 138.527 76.6208V76.6208Z" fill="#EA9C02"/>
<path d="M172 101.3L163.566 87.2725L171.693 77.6175C169.865 77.3374 161.985 75.5331 152.627 75.3906V98.8531C162.679 98.8522 169.521 100.873 172 101.3V101.3Z" fill="#FFAA00"/>
<path d="M136.763 114.853L135 114.208V73.7119H138.526V114.209L136.763 114.853Z" fill="#2C4A93"/>
<path d="M142.601 117.341C140.277 112.491 133.033 112.481 130.693 117.325L100.832 179.15C99.0695 183.057 96.0895 186.358 92.2931 188.606L65.1111 204.702C62.3004 206.366 60.004 208.708 58.4552 211.49L45 235.645H179.375V194.063L142.601 117.341Z" fill="#2C4A93"/>
<path d="M181.66 172.074C179.132 168.47 173.526 168.566 171.138 172.255L155.279 196.748C152.672 200.776 148.695 203.839 144.008 205.43L114.572 215.421C109.897 217.009 105.566 219.396 101.797 222.468L85.6245 235.644L161.125 263.089L225.625 235.644L181.66 172.074Z" fill="#2C4A93"/>
<path d="M68.0469 207.428L105.812 134.929C106.685 133.253 108.954 132.751 110.517 133.892L123.516 143.384L94.6094 203.159L68.0469 207.428Z" fill="#2C4A93"/>
<path opacity="0.6" d="M141.256 221.725C142.174 221.522 143.083 221.295 142.843 219.739C143.234 218.947 143.783 218.56 144.437 218.422C145.184 218.311 145.947 218.359 146.671 218.565C147.08 218.661 147.503 218.779 147.932 218.903C148.361 219.02 148.798 219.137 149.232 219.243C150.099 219.449 150.958 219.619 151.726 219.549C152.783 216.946 154.455 217.095 156.516 217.659C157.545 217.957 158.67 218.343 159.823 218.576C160.951 218.857 162.14 218.824 163.25 218.482C163.888 217.3 165.33 216.27 167.025 216.667C167.601 215.483 170.323 215.619 169.499 213.404C169.99 212.59 170.813 212.814 171.536 212.649C171.931 213.025 172.494 213.257 172.169 213.935C172.578 214.231 173.076 214.398 173.591 214.411C174.168 214.437 174.744 214.342 175.278 214.133C176.325 213.714 177.012 212.841 176.37 211.583C177.154 210.9 178.102 210.729 179.067 210.731C180.024 210.712 180.997 210.859 181.792 210.867C181.529 208.701 182.856 208.69 184.286 208.773C185.002 208.822 185.733 208.867 186.273 208.698C186.814 208.529 187.16 208.149 187.088 207.318C188.383 207.002 189.644 206.574 190.856 206.038C191.94 205.512 192.989 204.926 193.999 204.281C194.497 203.968 194.988 203.648 195.481 203.322L196.224 202.83L196.966 202.312C197.965 201.615 199.011 200.907 200.184 200.202C200.56 199.961 200.925 199.704 201.277 199.431C201.63 199.161 201.96 198.857 202.286 198.553C202.936 197.94 203.548 197.285 204.136 196.607C204.725 195.93 205.291 195.231 205.849 194.527C206.395 193.805 206.622 193.195 207.179 192.484C205.349 191.262 203.723 190.442 201.902 189.329C200.595 190.586 199.212 191.805 197.864 193.005C196.487 194.16 195.08 195.303 193.623 196.477C192.883 197.211 192.026 197.829 191.084 198.311C190.113 198.819 189.111 199.273 188.085 199.672C187.034 200.063 185.962 200.452 184.912 200.914C183.839 201.385 182.809 201.939 181.832 202.571C180.822 203.135 179.805 203.696 178.784 204.382C177.839 204.261 176.884 204.233 175.933 204.298C175.247 204.357 174.575 204.517 173.94 204.77C172.817 205.218 172.027 205.896 171.15 206.321L169.967 206.375L167.488 206.461C167.194 206.9 166.842 207.401 166.438 207.901C166.024 208.404 165.57 208.877 165.081 209.315C164.092 210.193 162.94 210.864 161.787 210.893C160.681 210.21 159.471 209.442 158.305 208.693C157.27 208.614 156.364 208.51 155.214 208.387L152.052 208.905C150.979 209.049 149.893 209.197 148.821 209.292C147.749 209.371 146.687 209.443 145.669 209.426C144.696 209.421 143.724 209.346 142.764 209.2C141.326 210.029 141.238 209.451 141.058 208.813C141.003 208.475 140.811 208.172 140.523 207.967C140.196 207.769 139.662 207.717 138.718 207.96C137.659 208.314 136.592 208.61 135.516 208.897C134.438 209.193 133.363 209.414 132.291 209.613C132.783 211.179 132.841 212.771 132.786 214.297C132.731 215.824 132.568 217.273 132.662 218.577C132.756 219.882 133.119 221.033 134.15 221.939C135.187 222.807 136.898 223.47 139.664 223.58C139.425 222.072 140.343 221.922 141.256 221.725Z" fill="#D8DEEB" fill-opacity="0.13"/>
<path d="M120.5 169.707C118.262 169.848 112.096 156.032 111 158.301L100.832 179.148C99.0695 183.055 96.0895 186.356 92.2931 188.604L65.1111 204.701C62.3004 206.364 60.004 208.706 58.4552 211.488L46.625 233.624L76.625 252.633L101.537 235.644L120.5 169.707Z" fill="#10307D"/>
<path d="M142.376 117.449L142.376 117.449L161.353 157.042L157.188 160.788L157.187 160.788L157.183 160.792C154.754 163.099 150.754 162.894 148.604 160.357L148.604 160.357C145.626 156.846 139.78 157.628 137.946 161.803C137.946 161.803 137.946 161.803 137.946 161.803L133.089 172.851L133.089 172.851C131.356 176.794 125.729 177.421 123.087 173.947L123.087 173.947L111.158 158.347L130.918 117.434L130.918 117.434C133.166 112.778 140.142 112.788 142.376 117.449Z" fill="white" stroke="#00164C" stroke-width="0.5"/>
<path opacity="0.6" d="M170.043 182.991C167.706 183.868 164.531 184.885 166.924 188.497C162.456 188.074 164.207 191.301 164.73 193.477L164.562 194.615L164.436 195.771C164.357 196.54 164.276 197.313 164.195 198.089C164.04 199.63 163.882 201.191 163.718 202.795C163.605 204.071 163.458 205.328 163.378 206.608C160.652 207.871 160.269 210.02 159.775 211.646C159.258 213.272 158.52 214.37 154.888 213.671C155.057 215.496 155.362 217.308 155.799 219.093C156.37 221.1 157.37 222.972 158.738 224.592C158.471 225.013 157.893 225.366 157.634 225.784L148.052 222.446C144.676 219.325 143.255 221.329 139.891 220.861C138.605 220.264 137.287 219.732 135.942 219.268C135.428 218.644 134.961 217.985 134.545 217.298C134.431 215.91 134.249 214.499 134.03 213.072C133.812 211.629 133.596 210.189 133.382 208.754C132.486 206.621 133.651 206.034 135.034 205.586C136.417 205.138 137.987 204.812 137.958 203.135C136.95 201.126 138.384 198.278 134.227 197.005C134.316 196.118 134.399 195.275 134.483 194.43C134.598 193.587 134.712 192.743 134.832 191.856C135.776 189.468 136.592 187.036 137.278 184.57C139.335 186.144 141.395 187.701 143.491 189.067C145.514 188.872 145.985 187.256 146.833 186.215C147.7 185.183 148.862 184.718 152.097 186.789C152.926 184.986 153.527 183.097 153.887 181.161C154.114 180.159 154.334 179.146 154.587 178.155L154.786 177.416L155.028 176.705C155.197 176.236 155.379 175.776 155.58 175.331C157.192 171.779 159.963 169.093 166.429 169.83C166.93 172.416 167.325 174.739 167.651 177.169C173.671 181.157 172.35 182.077 170.043 182.991Z" fill="#A8B5D3" fill-opacity="0.1"/>
<path d="M137 118C131.5 137.333 120.5 175.7 120.5 176.5L111.5 164L132 120.001C132 120.001 133.897 118.281 135 118C135.947 117.76 137 118 137 118Z" fill="#F1F3FA"/>
<path d="M175.172 169.555C173.584 169.871 172.096 170.775 171.136 172.256L155.279 196.748C152.672 200.777 148.695 203.84 144.008 205.431L114.572 215.421C109.897 217.01 105.566 219.397 101.797 222.468L85.6245 235.644L75.6245 250.258L120.625 264.515H157.125L175.172 169.555Z" fill="#163788"/>
<path opacity="0.6" d="M182.594 235.39C183.814 235.411 184.383 235.157 184.789 234.845C185.195 234.533 185.449 234.168 186.04 233.909C186.369 234.179 186.784 234.337 187.219 234.357L187.794 234.285C188.107 234.18 188.439 234.139 188.77 234.163C189.578 234.207 190.382 234.299 191.178 234.44C191.957 233.565 192.88 232.815 193.913 232.221L197.654 227.225C197.513 227.12 197.371 227.014 197.223 226.909C196.269 228.07 194.904 228.677 193.442 228.876C191.949 229.004 190.444 228.853 189.013 228.431C188.733 228.828 188.492 229.272 188.235 229.678C187.981 230.089 187.732 230.5 187.468 230.885C186.76 231.314 186.086 231.791 185.45 232.312C184.879 231.897 184.32 231.493 183.757 231.065C183.193 230.638 182.635 230.208 182.084 229.775C181.026 229.408 179.946 229.104 178.848 228.866C178.451 228.778 178.104 228.704 177.782 228.62C177.462 228.533 177.151 228.419 176.852 228.28C176.204 228.861 175.616 229.453 175.02 230.045L173.991 229.88C173.648 229.824 173.31 229.779 172.963 229.71C172.272 229.585 171.583 229.472 170.89 229.388C170.821 229.382 170.686 229.376 170.618 229.377C170.548 229.761 170.526 230.152 170.554 230.541C170.418 230.535 170.281 230.527 170.213 230.529C169.878 230.691 169.526 230.854 169.173 231.017C168.821 231.18 168.458 231.313 168.117 231.463C166.304 231.547 164.508 231.561 162.715 231.527L160.776 231.275C161.218 230.625 161.633 229.86 162.052 229.211L161.963 228.614C162.449 228.446 162.956 228.402 163.442 228.239C164.199 228.558 164.94 228.738 165.782 229.049C166.854 229.848 166.816 227.977 167.043 227.537C167.318 227.681 167.602 227.83 167.891 227.982C168.182 228.136 168.477 228.279 168.779 228.435C169.393 228.749 170.016 229.068 170.619 229.377C170.686 229.377 170.821 229.383 170.89 229.388L169.904 225.389L171.481 225.473C173.093 226.85 173.765 226.86 174.162 226.545C174.562 226.225 174.693 225.559 175.308 225.504C175.612 225.922 175.959 226.309 176.344 226.66L176.731 226.4C176.86 226.306 176.989 226.208 177.117 226.107C177.379 225.905 177.623 225.684 177.846 225.445C178.651 225.819 179.44 226.161 180.231 226.499C180.631 226.669 181.028 226.839 181.423 227.007C181.623 227.093 181.824 227.179 182.024 227.265L182.623 227.512C182.434 225.876 182.665 225.182 183.024 224.869C183.383 224.557 183.868 224.629 184.152 224.542C184.943 225.519 185.36 225.302 185.713 224.846C186.063 224.38 186.33 223.653 186.897 223.636C186.934 222.922 187.845 222.563 188.019 221.718C187.27 221.349 186.478 220.868 185.702 220.385L183.874 220.612C184.053 221.483 183.778 222.102 183.365 222.229C182.949 222.352 182.396 221.963 181.973 220.779C181.526 222.322 180.437 221.832 179.665 221.539C179.296 221.706 178.949 221.917 178.634 222.165C178.989 224.23 177.637 223.478 177.494 224.408C176.634 224.444 175.852 224.486 174.987 224.467C174.444 223.998 173.881 223.65 173.383 223.289C173.59 225.262 172.131 225.257 171.846 224.435C171.603 224.058 171.39 223.665 171.209 223.258C170.673 223.236 170.211 223.174 169.914 223.254C169.56 223.347 169.427 223.628 169.638 224.335C168.82 224.631 168.006 224.934 167.126 225.233C166.515 225.054 165.824 224.754 165.163 224.563L165.494 226.221C164.916 226.163 164.276 226.099 163.698 226.041C163.448 225.957 163.205 225.88 162.965 225.807C162.725 225.726 162.485 225.646 162.246 225.567C161.77 225.408 161.299 225.248 160.811 225.056L161.075 226.844C159.986 226.679 158.858 226.54 157.789 226.305C157.515 228.364 156.416 227.449 155.818 227.568C155.517 226.915 155.271 226.125 154.956 225.764C154.905 225.677 154.819 225.613 154.719 225.586C154.618 225.558 154.51 225.569 154.417 225.616C154.208 225.71 153.964 225.98 153.662 226.497C153.121 226.602 152.513 226.565 151.973 226.671C151.363 226.513 150.773 226.378 150.194 226.212C149.618 226.037 149.05 225.863 148.481 225.69C148.442 225.964 148.325 226.223 148.143 226.439C147.961 226.655 147.72 226.821 147.447 226.918C147 227.112 146.516 227.289 146.16 227.893C145.372 227.258 144.621 226.582 143.913 225.867C143.349 225.772 142.771 225.765 142.204 225.846C141.69 225.906 141.183 226.016 140.691 226.174C140.2 226.329 139.701 226.481 139.174 226.628C138.91 226.7 138.638 226.767 138.354 226.824C138.058 226.879 137.759 226.917 137.458 226.939C137.097 226.529 136.667 226.179 136.185 225.902C135.898 225.707 135.783 225.559 135.944 225.121C135.716 225.015 135.543 224.934 135.373 224.855L135.098 226.531L134.512 229.991L134.41 230.586C134.026 230.551 133.561 230.59 133.178 230.544C132.54 231.153 131.916 232.305 130.642 231.964L131.136 229.59C130.658 229.361 130.184 229.137 129.709 228.897C129.391 230.052 128.948 229.933 128.441 229.648C127.933 229.367 127.363 228.907 126.745 229.383L126.339 231.03C126.192 231.355 125.982 231.646 125.743 232.053L125.89 231.463C125.376 230.545 124.871 229.606 124.343 228.79C123.871 228.543 123.4 228.29 122.931 228.027C122.213 228.169 121.927 229.905 121.42 229.762C121.181 229.631 120.884 229.467 120.588 229.305L119.596 232.682C118.837 233.341 118.332 234.294 117.95 233.675C115.641 232.373 116.702 235.152 115.983 236.524C115.948 237.124 115.88 237.722 115.78 238.316C117.003 238.609 118.276 238.665 119.523 238.483C120.65 238.33 121.642 238.087 122.498 237.985C122.722 238.366 122.988 238.723 123.291 239.051C123.949 239.218 124.621 239.328 125.299 239.379C125.614 239.002 125.953 238.507 126.288 238.012C127.244 238.471 128.144 238.894 129.05 239.311C129.93 240.37 130.87 241.385 131.864 242.349C131.422 243.033 130.943 243.694 130.429 244.331C129.897 243.711 129.381 244.391 128.566 244.692C127.933 244.852 127.265 244.842 126.637 244.664C126.072 244.503 125.518 244.31 124.977 244.087C124.517 243.884 124.007 243.802 123.501 243.851C123.028 243.926 122.566 244.203 122.092 244.835C121.556 243.909 120.912 243.584 120.217 243.509C119.523 243.435 118.771 243.636 118.042 243.746C117.314 243.856 116.599 243.907 115.991 243.545C115.384 243.184 114.882 242.418 114.579 240.925C113.4 242.042 112.204 243.154 110.991 244.261C111.077 245.129 111.101 245.964 111.154 246.95L109.866 250.759C110.904 251.86 111.923 252.825 113.037 253.81C114.198 254.15 115.346 254.582 116.524 254.908C117.675 256.137 118.848 257.368 120.139 258.615L120.468 257.446C120.639 257.13 120.881 256.844 121.082 256.406C121.442 256.573 121.804 256.737 122.166 256.898C122.605 257.574 123.087 258.224 123.609 258.845C123.986 258.358 124.362 257.857 124.7 257.485C125.261 257.854 125.799 258.337 126.365 258.704C127.272 260.105 127.667 257.412 128.262 257.652C129.456 257.455 130.66 257.319 131.87 257.245C132.866 257.603 133.788 257.939 134.801 258.285L132.679 253.195C132.452 252.918 132.245 252.626 132.061 252.321C132.086 251.719 132.076 251.116 132.033 250.514C132.392 249.123 133.496 248.904 132.711 247.065L132.871 242.769C133.094 242.739 133.344 242.571 133.57 242.538C134.042 243.342 134.683 244.045 135.455 244.603C136.152 245.072 136.884 245.493 137.644 245.864C137.949 244.33 138.546 244.225 139.335 244.295C140.12 244.374 141.112 244.584 142.113 243.731C142.679 243.914 143.247 244.066 143.817 244.235C144.536 244.44 145.237 244.64 145.929 244.835C146.278 244.933 146.626 245.031 146.971 245.128L147.491 245.273L148.01 245.395C148.863 245.963 149.964 247.185 150.527 245.371C151.688 246.908 152.658 245.839 153.427 245.074C154.207 244.327 154.825 243.965 155.543 246.98C156.537 247.513 157.476 248.054 158.509 248.682C159.506 245.683 160.37 245.687 161.277 245.568C162.077 245.194 161.443 243.213 162.507 243.47C163.565 243.693 164.722 244.038 165.825 244.37C166.61 244.314 167.4 244.289 168.179 244.224C168.959 244.16 169.74 244.091 170.519 244.024C171.305 243.962 172.091 243.9 172.879 243.838C173.666 243.763 174.449 243.66 175.245 243.571C174.856 242.151 175.909 241.672 176.676 240.144L177.808 241.903C178.268 241.891 178.805 241.862 179.268 241.842C179.298 240.771 179.303 239.94 179.271 238.993C179.496 238.984 179.726 238.976 180.029 238.965C180.36 239.306 180.685 239.643 181.016 239.985C181.247 239.973 181.477 239.961 181.785 239.945C182.351 240.275 182.998 240.598 183.605 241.015C183.737 240.753 183.94 240.528 184.192 240.363C183.592 239.465 183.072 238.554 182.552 237.642C182.56 236.933 182.524 236.106 182.594 235.39ZM160.114 231.186C160.006 231.172 159.9 231.157 159.795 231.143C159.688 231.124 159.583 231.105 159.477 231.086C159.267 231.048 159.06 231.011 158.853 230.973C158.441 230.899 158.03 230.825 157.603 230.748C158.067 230.182 158.596 229.603 159.057 229.512C159.52 229.43 159.914 229.793 160.114 231.186Z" fill="#92A2C7" fill-opacity="0.15"/>
<path opacity="0.6" d="M118.813 199.921C117.941 199.594 116.757 199.215 117.65 197.868C115.983 198.026 116.637 196.823 116.832 196.011L116.769 195.587L116.722 195.156C116.692 194.869 116.662 194.581 116.632 194.291C116.574 193.717 116.515 193.135 116.454 192.537C116.412 192.061 116.357 191.592 116.327 191.115C115.311 190.644 115.168 189.842 114.984 189.236C114.791 188.63 114.516 188.221 113.162 188.481C113.225 187.8 113.338 187.125 113.501 186.46C113.714 185.711 114.087 185.013 114.597 184.409C114.498 184.252 114.282 184.12 114.186 183.964L110.612 185.209C109.354 186.373 108.824 185.626 107.569 185.8C107.09 186.023 106.599 186.221 106.097 186.394C105.905 186.627 105.731 186.872 105.576 187.129C105.534 187.646 105.466 188.172 105.384 188.704C105.303 189.243 105.222 189.779 105.142 190.315C104.808 191.11 105.243 191.329 105.758 191.496C106.274 191.663 106.86 191.784 106.849 192.41C106.473 193.159 107.008 194.221 105.458 194.696C105.491 195.026 105.522 195.341 105.553 195.656C105.596 195.97 105.638 196.285 105.683 196.615C106.035 197.506 106.34 198.413 106.595 199.332C107.362 198.745 108.13 198.165 108.912 197.656C109.666 197.728 109.842 198.331 110.158 198.719C110.481 199.104 110.915 199.277 112.121 198.505C112.43 199.177 112.654 199.882 112.788 200.604C112.873 200.977 112.955 201.355 113.05 201.724L113.123 202L113.214 202.265C113.277 202.44 113.345 202.611 113.42 202.777C114.021 204.102 115.054 205.104 117.465 204.829C117.652 203.865 117.799 202.998 117.921 202.092C120.165 200.605 119.673 200.262 118.813 199.921Z" fill="#A8B5D3" fill-opacity="0.1"/>
<path opacity="0.6" d="M54.4066 239.972C54.5653 240.032 54.7182 240.105 54.8638 240.191C55.0637 239.919 55.2955 239.669 55.5548 239.447L56.2939 238.157C56.7279 237.501 56.6644 237.249 56.5389 237.027C56.4633 236.916 56.4037 236.796 56.3618 236.671C56.3287 236.474 56.3536 236.272 56.4338 236.088C56.7184 235.205 57.0301 234.357 57.34 233.51L57.7699 233.221C57.89 233.311 58.0263 233.404 58.1625 233.49C58.2986 233.576 58.4329 233.659 58.5691 233.74C58.8552 233.912 59.1431 234.085 59.4383 234.296C59.8167 234.51 60.0957 234.886 60.5292 235.008C60.7788 235.071 61.0447 235.041 61.272 234.925C61.6803 234.719 62.043 234.44 62.3401 234.104C62.2136 233.71 62.0912 233.291 62.0012 232.873C61.9113 232.455 61.8328 232.03 61.7671 231.616C61.306 231.903 60.9036 232.239 60.5479 232.481C60.2038 232.302 59.9122 232.157 59.6059 231.99C59.3122 231.833 59.0302 231.658 58.7621 231.464C58.7724 230.751 58.7623 230.158 58.794 229.476C59.039 229.14 59.2705 228.937 59.4653 228.696C60.5005 228.776 61.0574 229.195 61.3359 229.731C61.4746 230.015 61.5701 230.316 61.6197 230.626C61.6794 230.947 61.7075 231.279 61.7671 231.616C62.6875 231.612 63.6747 231.489 64.6336 231.495C64.6021 231.908 64.5955 232.322 64.6139 232.736L62.5358 234.276C63.0232 235.229 63.562 236.158 64.1499 237.059C64.2001 237.102 64.3004 237.188 64.35 237.231C65.3459 236.972 66.3992 236.745 67.3893 236.474C67.7223 236.573 68.0338 236.68 68.3391 236.768C68.9832 236.734 69.5346 237.323 71.1355 236.269C70.3638 235.248 69.6703 234.26 68.9843 233.152C68.9979 232.959 68.9881 232.765 68.9552 232.574C70.8708 230.204 70.512 228.94 71.1173 227.799C72.3487 227.054 73.5685 226.302 74.7767 225.542C74.7652 226.864 75.056 227.596 75.5072 228.005C75.9584 228.414 76.577 228.488 77.2185 228.511C77.8601 228.533 78.5364 228.488 79.1145 228.664C79.6927 228.84 80.183 229.223 80.4727 230.099C80.991 229.638 81.4342 229.478 81.8512 229.491C82.2908 229.532 82.7107 229.684 83.0664 229.932C83.4869 230.211 83.9245 230.465 84.3767 230.695C84.8793 230.949 85.4465 231.067 86.0154 231.034C86.7633 230.91 87.3262 230.415 87.6677 231.03C88.2208 230.571 88.7484 230.085 89.2484 229.575C88.5754 228.591 87.9582 227.574 87.3995 226.527C86.7022 226.024 86.0125 225.516 85.2805 224.97C84.906 225.337 84.5273 225.704 84.1908 225.973C83.6219 225.819 83.0692 225.616 82.5394 225.366C82.3401 225.037 82.1779 224.69 82.0555 224.329C81.3081 224.276 80.4189 224.321 79.4309 224.268C78.3351 224.22 77.2608 223.963 76.2716 223.515C76.4641 223.025 76.6297 222.526 76.7679 222.02C77.6281 220.969 77.2262 218.428 78.9587 219.914C79.1723 220.504 79.774 219.775 80.5407 219.336L81.9962 216.62C82.2197 216.808 82.4429 216.996 82.6218 217.146C83.0283 217.35 83.5855 215.919 84.2232 215.914C84.5757 216.215 84.931 216.507 85.2886 216.795C85.7258 217.555 86.1279 218.282 86.5849 219.029L87.2283 217.692C87.8404 217.387 88.2434 217.872 88.6256 218.194C89.0061 218.52 89.3617 218.693 89.8419 217.761C90.2029 218.043 90.5664 218.312 90.9322 218.584C91.4367 218.965 91.987 219.363 92.5 219.73C92.818 219.832 93.2217 219.875 93.5419 219.967L93.7369 219.477L94.8639 216.627C94.2858 216.214 93.7531 215.815 93.181 215.39C92.9302 214.814 92.7194 214.224 92.55 213.622C92.5797 213.273 92.6339 212.925 92.7123 212.582C92.6041 212.043 92.3416 212.194 92.061 212.186C91.7804 212.177 91.4797 211.999 91.3286 210.822C90.9772 210.404 90.5797 210.876 90.1596 211.042C89.7396 211.208 89.2964 211.085 88.9055 209.479C88.255 208.782 87.2504 212.124 86.807 210.253C86.7084 209.491 86.6188 208.728 86.4866 208.065C85.9586 207.602 84.6992 209.513 84.3926 208.141C84.0629 207.843 83.7324 207.545 83.4013 207.246C83.2487 207.334 83.1083 207.44 82.9836 207.561C81.9103 207.712 81.7896 209.274 80.0572 208.96C79.5484 206.941 78.5837 208.173 77.2472 206.351C77.8622 205.648 78.3695 205.121 78.9249 204.504C78.4517 204.058 78.0229 203.508 77.4412 203.31C77.1117 203.204 76.7522 203.215 76.4308 203.343C75.8948 203.544 75.4071 203.846 74.9967 204.23C74.8068 204.061 74.6172 203.892 74.428 203.723L74.1416 203.468L73.8341 203.205L75.773 200.134C75.1641 199.339 74.4108 198.574 73.6238 197.725C73.3808 197.891 73.0974 197.996 72.8 198.03C73.5 198.696 73.7966 198.705 73.5 198.696C72.693 198.67 72.6306 199.643 72 200.122C72.1938 200.638 72 201.072 71.5 201.072C71.6496 201.593 70.4439 201.348 70.5987 201.853C70.0597 202.307 69.4967 202.734 68.9119 203.134C68.5865 203.364 68.2626 203.561 67.9333 203.753L66.911 204.347C67.649 204.839 68.3365 205.335 69.0404 205.874C69.1164 206.463 68.7655 206.998 68.4751 207.445C68.1846 207.891 67.9536 208.247 68.2315 208.466C67.737 209.964 67.2337 211.459 66.6654 213.046L66.8667 213.212C67.0829 213.175 67.3049 213.185 67.5165 213.24C67.7281 213.295 67.9239 213.395 68.0894 213.531C68.2443 213.675 68.363 213.85 68.4365 214.043C68.5101 214.236 68.5367 214.442 68.5144 214.646C68.4133 215.399 68.2478 216.238 68.0953 216.949C68.4125 217.239 68.685 217.488 69.002 217.778C68.4296 218.818 67.9024 219.897 67.2727 221.025L66.2048 222.75C64.91 223.696 64.8138 222.04 63.6775 223.125C62.845 224.059 62.1902 224.835 61.6614 225.209C61.1425 225.595 60.742 225.567 60.4383 224.931C60.4355 224.661 60.3991 224.393 60.3298 224.131C60.1086 224.101 59.8829 224.139 59.6857 224.238C59.6018 224.092 59.5132 223.941 59.4241 223.795C59.335 223.648 59.2452 223.506 59.1518 223.365C58.9754 223.092 58.7827 222.83 58.5746 222.579C58.2715 223.057 57.9756 223.538 57.687 224.021C57.3936 224.507 57.1065 224.994 56.8256 225.483C57.0068 226.152 57.1932 226.759 57.3891 227.365C57.6567 227.16 57.9121 226.94 58.1541 226.708L58.2199 227.83L58.2674 228.947C57.8066 229.417 57.539 229.428 57.3424 229.228C57.1559 229.037 57.0554 228.65 56.943 228.325C56.592 228.4 56.3057 228.503 55.9541 228.586C55.9004 228.336 55.8687 228.082 55.8594 227.827C56.1761 227.045 56.4977 226.262 56.8256 225.483C56.5304 225.223 56.2236 224.988 55.9142 224.74C55.538 225.729 55.1733 226.722 54.8523 227.616C54.5875 227.915 54.3382 228.222 54.099 228.535C53.8583 228.855 53.6286 229.178 53.4054 229.501C53.411 230.2 53.397 230.914 53.3666 231.634C53.3362 232.353 53.2905 233.073 53.2403 233.761C53.293 233.845 53.3721 233.911 53.4663 233.949C53.5606 233.988 53.6653 233.998 53.7659 233.978C53.9396 233.957 54.1116 233.881 54.2593 233.889C54.4071 233.898 54.502 233.996 54.55 234.312C54.5622 234.404 54.5691 234.498 54.5705 234.591C54.578 234.704 54.5808 234.832 54.5789 234.977C54.5693 235.347 54.54 235.716 54.4912 236.083C54.6302 236.42 55.1291 236.272 54.8925 237.197C54.554 238.011 53.8826 238.863 53.9875 239.772C54.0489 239.81 54.1131 239.843 54.1797 239.873C54.2532 239.909 54.3299 239.94 54.4066 239.972ZM69.462 217.491C71.1635 216.781 72.6071 216.549 71.9336 218.472L71.438 219.295C70.7597 218.684 70.1325 218.108 69.462 217.491ZM70.9879 222.26C71.5905 221.961 72.2954 221.602 72.8971 221.295C73.3529 220.167 73.8675 218.941 74.2822 217.773C74.7772 218.211 75.3157 218.7 75.8168 219.128C75.9836 220.385 75.1494 221.596 75.1191 223.227C74.6417 223.238 74.1665 223.292 73.6995 223.387C73.0064 223.618 72.3099 223.838 71.5542 224.16C70.8751 223.985 70.85 222.842 70.9879 222.26Z" fill="#798CBB" fill-opacity="0.1"/>
</g>
<circle cx="134.5" cy="135.495" r="129.5" stroke="white" stroke-width="10"/>
<defs>
<clipPath id="clip0_1335_6759">
<rect width="222" height="211" fill="white" transform="translate(24 49)"/>
</clipPath>
</defs>
</svg>
