<svg width="106" height="106" viewBox="0 0 106 106" fill="none" xmlns="http://www.w3.org/2000/svg">
<circle cx="52.6064" cy="53.0009" r="49.0595" fill="#F1F3FA"/>
<g clip-path="url(#clip0_1256_12385)">
<path d="M68.6104 67.1168C68.2042 67.1168 67.875 66.7876 67.875 66.3814V64.4327C67.875 64.0265 68.2042 63.6973 68.6104 63.6973C69.0166 63.6973 69.3458 64.0265 69.3458 64.4327V66.3814C69.3458 66.7876 69.0165 67.1168 68.6104 67.1168Z" fill="#F9C941"/>
<path d="M68.6104 72.3634C68.2042 72.3634 67.875 72.0341 67.875 71.628V69.6793C67.875 69.2731 68.2042 68.9438 68.6104 68.9438C69.0166 68.9438 69.3458 69.2731 69.3458 69.6793V71.628C69.3458 72.0341 69.0165 72.3634 68.6104 72.3634Z" fill="#F9C941"/>
<path d="M72.2154 68.7657H70.2667C69.8604 68.7657 69.5312 68.4365 69.5312 68.0303C69.5312 67.6242 69.8604 67.2949 70.2667 67.2949H72.2154C72.6216 67.2949 72.9508 67.6242 72.9508 68.0303C72.9507 68.4365 72.6216 68.7657 72.2154 68.7657Z" fill="#F9C941"/>
<path d="M66.9653 68.7657H65.0167C64.6104 68.7657 64.2812 68.4365 64.2812 68.0303C64.2812 67.6242 64.6104 67.2949 65.0167 67.2949H66.9653C67.3715 67.2949 67.7007 67.6242 67.7007 68.0303C67.7007 68.4365 67.3715 68.7657 66.9653 68.7657Z" fill="#F9C941"/>
<path d="M55.8828 52.1446C55.8916 52.1436 55.9004 52.1426 55.9083 52.1406C55.9004 52.1416 55.8916 52.1435 55.8838 52.1455L55.8828 52.1446Z" fill="#9F74E2"/>
<path d="M68.7475 75.0605V100.226C68.7475 103.133 61.2016 105.488 51.8933 105.488C49.22 105.488 46.6915 105.294 44.4464 104.948C38.8724 104.091 35.0391 102.299 35.0391 100.226V77.2597L44.4464 77.2085L68.7475 75.0605Z" fill="#2C4A93"/>
<path d="M44.4464 77.208V104.947C38.8724 104.09 35.0391 102.298 35.0391 100.226V73.3828L44.4464 77.208Z" fill="#163788"/>
<path d="M68.7475 77.0747V80.604C64.066 81.714 58.2267 82.3731 51.8933 82.3731C45.5598 82.3731 39.7205 81.7139 35.0391 80.604V77.2591L44.4464 77.2079L68.7475 77.0747Z" fill="#163788"/>
<path d="M51.8933 78.7872C67.2984 78.7872 79.7867 74.888 79.7867 70.0782C79.7867 65.2683 67.2984 61.3691 51.8933 61.3691C36.4883 61.3691 24 65.2683 24 70.0782C24 74.888 36.4883 78.7872 51.8933 78.7872Z" fill="#2C4A93"/>
<path d="M51.8964 72.411C46.3507 72.411 40.9114 71.8495 36.5804 70.8298C36.5699 70.8273 36.5595 70.825 36.549 70.8225C35.7649 70.6373 35.7649 69.5179 36.549 69.3326C36.5595 69.3301 36.5699 69.3277 36.5804 69.3252C40.9115 68.3056 46.3507 67.7441 51.8964 67.7441C57.4421 67.7441 62.8813 68.3056 67.2124 69.3252C67.2229 69.3277 67.2333 69.3301 67.2438 69.3326C68.0279 69.5178 68.0279 70.6372 67.2438 70.8225C67.2333 70.825 67.2229 70.8273 67.2124 70.8298C62.8813 71.8495 57.442 72.411 51.8964 72.411Z" fill="#10307D"/>
<path d="M50.8709 74.7751C51.0958 74.1048 51.2473 73.4538 51.3274 72.8261C51.3404 72.7333 51.3509 72.6423 51.3595 72.5516L51.3599 72.5506L51.3619 72.5298L51.3621 72.5298V72.5272L51.3624 72.5241C51.5612 70.4021 50.935 68.5755 49.587 67.281C48.2413 65.9886 46.1934 65.2427 43.5771 65.2427C39.6835 65.2427 37.3999 63.0424 36.9331 60.5137C36.4658 57.9821 37.8099 55.0733 41.2812 53.6371L41.2813 53.6371C43.3449 52.7826 45.6988 52.5762 48.0409 52.5409C48.8602 52.5285 49.6806 52.5372 50.4859 52.5458C51.9697 52.5616 53.4019 52.5768 54.6811 52.4585M50.8709 74.7751L54.6811 52.4585M50.8709 74.7751C50.9039 74.7659 50.9397 74.7557 50.978 74.7446C51.2175 74.6749 51.5578 74.5676 51.9598 74.4175C52.7646 74.1168 53.8124 73.6459 54.7914 72.9642C55.7709 72.2821 56.6741 71.3942 57.2016 70.262C57.7272 69.1338 57.8855 67.751 57.3568 66.0631C56.8562 64.4651 56.7778 63.214 57.0576 62.2354C57.3664 61.1517 58.1092 60.4287 59.1398 59.9503C60.1887 59.4618 61.5442 59.2217 63.0711 59.102C64.5987 58.9823 66.313 58.9823 68.0852 58.9823H68.0892C74.877 58.9823 79.607 54.2429 79.607 48.2813C79.607 45.3018 78.4278 42.586 75.4337 40.6077C72.4297 38.6229 67.5863 37.3724 60.2453 37.3724C58.1663 37.3724 56.0401 37.5308 54.0544 37.6787C53.5279 37.7179 53.0112 37.7564 52.508 37.791C50.1184 37.9552 48.0143 38.0338 46.6225 37.6685C45.983 37.5007 45.4713 37.2339 45.1556 36.8178C44.836 36.3967 44.736 35.8481 44.8681 35.1606L44.8682 35.1598C44.8856 35.0717 44.907 34.9815 44.931 34.8892L44.9312 34.8887C45.3283 33.3899 46.4179 32.2913 47.8035 31.4871C49.1886 30.6832 50.8829 30.1652 52.5194 29.8305C54.1573 29.4956 55.7457 29.3427 56.9238 29.2736C57.3701 29.2473 57.7578 29.2331 58.0675 29.2256C57.8288 29.1403 57.537 29.0398 57.1983 28.9298C56.1728 28.5967 54.7172 28.1764 52.9981 27.8281C49.5572 27.1309 45.0736 26.7249 40.8722 27.8721L40.8721 27.8721C39.8442 28.1522 38.8328 28.5254 37.8589 29.0098L37.8589 29.0098C33.4099 31.2225 31.1649 35.9817 32.5645 39.7069C33.9577 43.4151 39.0209 46.227 49.4567 44.4087L49.4579 44.4085C49.5151 44.399 49.57 44.3895 49.6255 44.3792L49.6329 44.3775L49.658 44.3722C49.6706 44.369 49.6903 44.3641 49.713 44.3604L49.7148 44.3601L49.7163 44.3596L49.7241 44.3579C49.8233 44.3363 49.9932 44.3001 50.2196 44.2581C50.2285 44.2557 50.2401 44.2531 50.2537 44.2513C51.4581 44.0262 54.1968 43.6102 56.4945 43.9751C57.644 44.1577 58.7069 44.5392 59.4068 45.2611C60.1154 45.9919 60.4294 47.0475 60.1266 48.5203L60.1266 48.5203C59.9064 49.5905 59.4595 50.3879 58.8285 50.9764C58.1992 51.5634 57.3963 51.9338 56.478 52.1672C56.3021 52.212 56.1218 52.2516 55.937 52.2872C55.9234 52.2903 55.9106 52.292 55.9021 52.293M50.8709 74.7751L55.9021 52.293M54.6811 52.4585C54.681 52.4585 54.6809 52.4585 54.6809 52.4585L54.6673 52.3092L54.6811 52.4585ZM55.9021 52.293C55.8997 52.2932 55.8977 52.2935 55.896 52.2936L55.8802 52.1445L55.9079 52.2919C55.9059 52.2922 55.904 52.2926 55.9021 52.293ZM51.3621 72.516C51.3621 72.5152 51.3622 72.5156 51.3621 72.517V72.516Z" fill="white" stroke="#00164C" stroke-width="0.3"/>
<path d="M46.1549 37.7533C41.7261 37.2561 40.6484 34.905 40.6484 32.5527C40.6484 32.5527 41.6799 35.0618 44.5096 35.4187C44.2567 36.7355 44.9067 37.4258 46.1549 37.7533Z" fill="#E3E6EF"/>
<path d="M58.8344 59.9043V59.9052C57.8334 60.3699 57.1274 61.0632 56.8333 62.0956C55.0302 62.7133 53.3359 64.4978 53.3359 64.4978C54.1203 62.0467 56.9186 60.5299 58.8344 59.9043Z" fill="#E3E6EF"/>
<path d="M71.1719 54.9651C75.388 54.4749 78.2313 50.2587 78.2313 47.2192C78.2313 47.2192 79.7511 50.7 76.9567 53.4944C74.1623 56.2888 71.1719 54.9651 71.1719 54.9651Z" fill="#E3E6EF"/>
<path d="M66.6433 45.9993C65.6373 49.1183 62.4748 51.0977 57.6939 52.1732C59.499 51.7143 60.625 50.135 61.0545 48.0475C62.235 42.3058 53.7518 43.5079 51.3516 43.9569C54.4381 43.349 67.9473 40.9586 66.6433 45.9993Z" fill="#E3E6EF"/>
<path d="M51.9508 72.1912C52.329 68.1037 49.5679 65.2081 44.5483 65.2081C36.8768 65.2081 35.4235 56.404 42.2671 53.5382C46.321 51.8394 51.486 53.3232 55.2994 52.9662C39.1408 54.7661 46.857 62.9686 49.0907 64.4597C51.2768 65.919 52.4155 67.7929 51.9508 72.1912Z" fill="#E3E6EF"/>
<path d="M49.3674 43.9117C29.4586 47.3142 29.6678 33.4432 38.2346 29.2639C39.1711 28.8069 40.1432 28.4552 41.1301 28.1914C31.2028 34.925 42.6474 44.9576 49.3674 43.9117Z" fill="#E3E6EF"/>
<path d="M50.502 76.5002L48.3237 72.3751L56.305 72.3658L50.502 76.5002Z" fill="#2C4A93"/>
<path d="M50.4391 86.002C49.8261 89.3312 49.3293 89.8281 46 90.441C49.3293 91.0539 49.8261 91.5508 50.4391 94.8801C51.052 91.5508 51.5488 91.0539 54.8781 90.441C51.5488 89.8281 51.0519 89.3312 50.4391 86.002Z" fill="#FFAA00"/>
<path d="M55.2606 92.2476C54.8708 94.3649 54.5548 94.6809 52.4375 95.0706C54.5548 95.4604 54.8708 95.7764 55.2606 97.8937C55.6503 95.7764 55.9664 95.4604 58.0836 95.0706C55.9663 94.6809 55.6503 94.3649 55.2606 92.2476Z" fill="#FFAA00"/>
</g>
<circle cx="53" cy="53" r="50" stroke="white" stroke-width="6"/>
<defs>
<clipPath id="clip0_1256_12385">
<rect width="88" height="88" fill="white" transform="translate(10 14.002)"/>
</clipPath>
</defs>
</svg>
