<svg width="106" height="106" viewBox="0 0 106 106" fill="none" xmlns="http://www.w3.org/2000/svg">
<circle cx="52.6064" cy="53.0009" r="49.0595" fill="#F1F3FA"/>
<g clip-path="url(#clip0_1256_12326)">
<path d="M54.4019 25.5212L53.7031 30.5962L54.4019 35.3555C56.2581 34.9804 58.125 34.7931 59.992 34.793L60.6907 29.8974L59.992 25.0076C58.0021 24.9758 56.1466 25.147 54.4019 25.5212Z" fill="#EA9C02"/>
<path d="M67.6637 35.8142L64.3205 29.9638L67.5419 25.937C66.8176 25.8202 63.6937 25.0677 59.9844 25.0083V34.7936C63.9691 34.7932 66.6809 35.636 67.6637 35.8142Z" fill="#FFAA00"/>
<path d="M53.6988 41.4666L53 41.1977V24.3081H54.3975V41.1979L53.6988 41.4666Z" fill="#2C4A93"/>
<path d="M56.0169 42.5043C55.0957 40.4816 52.2239 40.4774 51.2967 42.4976L39.4597 68.2825C38.7611 69.912 37.5798 71.2886 36.0749 72.2261L25.3001 78.9394C24.1859 79.6332 23.2756 80.61 22.6617 81.7701L17.3281 91.8445H70.5939V74.5022L56.0169 42.5043Z" fill="#2C4A93"/>
<path d="M71.4979 65.3313C70.4957 63.8283 68.2734 63.8682 67.3269 65.4069L61.0406 75.6217C60.0069 77.302 58.4307 78.5794 56.5726 79.2429L44.9044 83.4098C43.0511 84.0721 41.3345 85.0677 39.8405 86.3487L33.4297 91.8438L63.3576 103.29L88.9252 91.8438L71.4979 65.3313Z" fill="#2C4A93"/>
<path d="M26.4609 80.0763L41.431 49.8397C41.777 49.1405 42.6764 48.9312 43.2958 49.4072L48.4485 53.366L36.9902 78.2956L26.4609 80.0763Z" fill="#2C4A93"/>
<path opacity="0.6" d="M55.4859 86.0386C55.8499 85.9543 56.2104 85.8594 56.1152 85.2105C56.2701 84.8803 56.4879 84.7188 56.747 84.6614C57.043 84.6148 57.3457 84.6351 57.6325 84.721C57.7946 84.7607 57.9622 84.8103 58.1324 84.8618C58.3026 84.9107 58.4756 84.9595 58.6476 85.0036C58.9915 85.0894 59.3317 85.1603 59.6362 85.1312C60.0555 84.0457 60.7179 84.1078 61.5351 84.3431C61.9428 84.4675 62.3887 84.6284 62.8461 84.7256C63.293 84.8425 63.7644 84.8289 64.2043 84.6862C64.4572 84.1934 65.0287 83.7635 65.7009 83.9293C65.9292 83.4356 67.0082 83.4923 66.6817 82.5683C66.876 82.2291 67.2022 82.3225 67.4889 82.2537C67.6457 82.4104 67.8686 82.5071 67.7399 82.7899C67.9021 82.9134 68.0992 82.983 68.3034 82.9886C68.5321 82.9993 68.7606 82.9597 68.9724 82.8726C69.3874 82.6975 69.6596 82.3338 69.405 81.8088C69.7158 81.524 70.0917 81.4526 70.4741 81.4538C70.8535 81.4458 71.2391 81.5072 71.5544 81.5104C71.4502 80.607 71.976 80.6023 72.5431 80.6368C72.8269 80.6576 73.1167 80.6763 73.3308 80.6059C73.5449 80.5354 73.6821 80.3766 73.6537 80.0302C74.1669 79.8985 74.667 79.7197 75.1474 79.4963C75.5769 79.2771 75.9929 79.0324 76.3931 78.7637C76.5905 78.6332 76.7852 78.4994 76.9807 78.3636L77.275 78.1585L77.5693 77.9422C77.9655 77.6516 78.3798 77.3564 78.8447 77.0623C78.9941 76.9616 79.1386 76.8545 79.2781 76.7408C79.4181 76.6282 79.5487 76.5013 79.6782 76.3747C79.9359 76.1191 80.1784 75.8456 80.4116 75.5631C80.6448 75.2805 80.8694 74.989 81.0905 74.6955C81.3071 74.3943 81.3969 74.14 81.6178 73.8434C80.8922 73.3337 80.2476 72.9919 79.5258 72.5277C79.008 73.0517 78.4595 73.5604 77.9251 74.0607C77.3796 74.5423 76.8217 75.0192 76.2443 75.509C75.9509 75.8147 75.6112 76.0728 75.2377 76.2736C74.8526 76.4854 74.4557 76.6749 74.0488 76.8413C73.6322 77.0045 73.2074 77.1665 72.791 77.3592C72.3658 77.5558 71.9575 77.787 71.5703 78.0504C71.1699 78.2854 70.7669 78.5196 70.3618 78.8056C69.9874 78.7553 69.6087 78.7436 69.2318 78.7708C68.9599 78.7954 68.6934 78.8618 68.4417 78.9675C67.9968 79.1544 67.6836 79.4369 67.3361 79.6142L66.8668 79.6368L65.8845 79.6729C65.7678 79.8557 65.6282 80.0646 65.4682 80.2733C65.3039 80.4831 65.124 80.6803 64.9301 80.8632C64.538 81.2291 64.0815 81.509 63.6246 81.5213C63.186 81.2365 62.7066 80.9159 62.2441 80.6038C61.8338 80.5707 61.4749 80.5274 61.0189 80.4759L59.7655 80.6921C59.3402 80.7522 58.9097 80.8139 58.4846 80.8535C58.0597 80.8864 57.639 80.9166 57.2353 80.9092C56.8495 80.9073 56.4645 80.8759 56.0837 80.8152C55.5137 81.1609 55.4788 80.9196 55.4076 80.6535C55.3856 80.5128 55.3095 80.3863 55.1954 80.3008C55.0657 80.2184 54.8541 80.1964 54.4799 80.2979C54.0604 80.4457 53.6374 80.5692 53.2107 80.6888C52.7833 80.8123 52.3572 80.9044 51.9325 80.9875C52.1272 81.6404 52.1504 82.3043 52.1285 82.941C52.1067 83.5777 52.0421 84.1818 52.0794 84.7259C52.1167 85.2699 52.2605 85.7503 52.6694 86.128C53.0803 86.4901 53.7584 86.7666 54.8549 86.8125C54.7603 86.1836 55.1241 86.121 55.4859 86.0386Z" fill="#D8DEEB" fill-opacity="0.13"/>
<path d="M47.2525 64.344C46.3652 64.4027 43.9211 58.6404 43.4868 59.587L39.4562 68.2815C38.7576 69.911 37.5763 71.2876 36.0714 72.2251L25.2966 78.9384C24.1824 79.6322 23.2721 80.609 22.6582 81.7691L17.9688 91.0014L29.8606 98.9293L39.7356 91.8435L47.2525 64.344Z" fill="#10307D"/>
<path d="M55.8807 42.5664L55.8807 42.5664L63.3909 59.0522L61.7625 60.5929L61.7624 60.5928L61.7595 60.5957C60.8191 61.5356 59.2717 61.4528 58.4379 60.4178L58.4379 60.4178C57.2319 58.9218 54.8648 59.2586 54.1241 61.0317C54.1241 61.0317 54.1241 61.0317 54.1241 61.0317L52.1989 65.6395L52.1989 65.6395C51.5261 67.251 49.3478 67.5032 48.3247 66.0879L48.3245 66.0876L43.6104 59.6014L51.4333 42.5602L51.4333 42.5602C52.3069 40.6567 55.0128 40.6607 55.8807 42.5664Z" fill="white" stroke="#00164C" stroke-width="0.3"/>
<path opacity="0.6" d="M66.8948 69.884C65.9683 70.2497 64.7099 70.6741 65.6583 72.1806C63.887 72.0042 64.5813 73.3496 64.7887 74.2574L64.7218 74.732L64.6722 75.2139C64.6406 75.5348 64.6087 75.8571 64.5765 76.1808C64.515 76.8233 64.4526 77.4746 64.3875 78.1435C64.3425 78.6757 64.2842 79.1999 64.2526 79.7337C63.172 80.2604 63.0201 81.157 62.8244 81.835C62.6196 82.5132 62.3271 82.971 60.8872 82.6793C60.9543 83.4408 61.075 84.1965 61.2484 84.9406C61.4747 85.7777 61.8713 86.5584 62.4132 87.2341C62.3076 87.4098 62.0785 87.557 61.9759 87.7314L58.1773 86.3394C56.8391 85.0376 56.2761 85.8735 54.9424 85.678C54.4328 85.4291 53.9103 85.2074 53.3771 85.0139C53.1733 84.7535 52.9882 84.4789 52.8233 84.1921C52.7781 83.6134 52.7059 83.0249 52.6191 82.4297C52.533 81.8277 52.4473 81.2273 52.3622 80.6287C52.0073 79.7394 52.4688 79.4943 53.0171 79.3075C53.5653 79.1207 54.1878 78.9848 54.1761 78.2853C53.7766 77.4475 54.3451 76.2596 52.6974 75.7286C52.7325 75.359 52.7657 75.0071 52.7989 74.655C52.8442 74.3031 52.8894 73.9513 52.937 73.5814C53.3114 72.5854 53.635 71.5713 53.9066 70.5428C54.7223 71.1991 55.5386 71.8484 56.3696 72.418C57.1715 72.337 57.3581 71.6626 57.6942 71.2287C58.038 70.7984 58.4984 70.6042 59.781 71.4679C60.1096 70.7161 60.3477 69.9282 60.4904 69.1207C60.5804 68.703 60.6675 68.2805 60.7681 67.8672L60.8467 67.5591L60.9429 67.2626C61.0098 67.0669 61.0819 66.875 61.1615 66.6895C61.8004 65.2081 62.8991 64.0876 65.4622 64.3951C65.6608 65.4734 65.8174 66.4423 65.9464 67.456C68.3327 69.1193 67.8091 69.503 66.8948 69.884Z" fill="#A8B5D3" fill-opacity="0.1"/>
<path d="M122.008 83.0016C116.508 102.335 105.508 140.702 105.508 141.502L96.5078 129.002L117.008 85.0024C117.008 85.0024 118.904 83.2825 120.008 83.0019C120.954 82.7614 122.008 83.0016 122.008 83.0016Z" fill="#F1F3FA"/>
<path d="M68.9291 64.2808C68.2994 64.4126 67.7097 64.7894 67.3293 65.407L61.0436 75.6218C60.0099 77.302 58.4337 78.5795 56.5756 79.243L44.9074 83.4098C43.0541 84.0722 41.3375 85.0677 39.8435 86.3488L33.4327 91.8439L29.4688 97.9388L47.3066 103.885H61.775L68.9291 64.2808Z" fill="#163788"/>
<path opacity="0.6" d="M71.8713 91.738C72.3549 91.7468 72.5805 91.6406 72.7415 91.5105C72.9026 91.3804 73.003 91.2283 73.2373 91.1202C73.3677 91.2329 73.5322 91.2987 73.7047 91.3073L73.9327 91.2773C74.0567 91.2335 74.1885 91.2162 74.3196 91.2263C74.6399 91.2446 74.9587 91.2831 75.2741 91.3416C75.5828 90.9767 75.9489 90.6641 76.3582 90.4163L77.8413 88.3327C77.7855 88.2889 77.7289 88.2447 77.6705 88.2007C77.2922 88.6849 76.751 88.9381 76.1716 89.021C75.5796 89.0745 74.983 89.0115 74.4159 88.8355C74.3051 89.0012 74.2094 89.1863 74.1074 89.3555C74.0066 89.5271 73.9079 89.6987 73.8035 89.8591C73.5229 90.0381 73.2556 90.237 73.0036 90.4543C72.7773 90.2811 72.5557 90.1126 72.3323 89.9343C72.109 89.756 71.8878 89.5766 71.6692 89.3963C71.2501 89.2432 70.8217 89.1165 70.3865 89.0171C70.229 88.9802 70.0918 88.9496 69.964 88.9146C69.8372 88.8781 69.7138 88.8305 69.5954 88.7725C69.3383 89.015 69.1054 89.2619 68.8693 89.5088L68.4611 89.44C68.3252 89.4167 68.1914 89.3978 68.0537 89.3691C67.78 89.3169 67.5068 89.2697 67.232 89.2347C67.2047 89.2322 67.1511 89.2297 67.1243 89.23C67.0963 89.3903 67.0877 89.5533 67.0986 89.7156C67.0448 89.7132 66.9907 89.7099 66.9638 89.7106C66.831 89.7784 66.6912 89.8462 66.5514 89.9142C66.4117 89.9822 66.2678 90.0375 66.1329 90.1003C65.4142 90.1352 64.7023 90.141 63.9916 90.1268L63.2227 90.0216C63.398 89.7507 63.5628 89.4314 63.7286 89.1608L63.6936 88.912C63.8861 88.8421 64.087 88.8234 64.2798 88.7555C64.5798 88.8888 64.8736 88.9636 65.2073 89.0932C65.6321 89.4264 65.6172 88.6461 65.7071 88.4627C65.816 88.5229 65.9287 88.5851 66.0431 88.6484C66.1587 88.7127 66.2755 88.7723 66.3954 88.8372C66.6388 88.9684 66.8855 89.1014 67.1244 89.2302C67.1512 89.23 67.2048 89.2326 67.2321 89.2349L66.8411 87.5667L67.4665 87.6019C68.1052 88.1762 68.3716 88.1804 68.5289 88.0492C68.6876 87.9157 68.7395 87.638 68.9833 87.615C69.1037 87.789 69.2413 87.9506 69.394 88.0972L69.5474 87.9884C69.5984 87.9493 69.6496 87.9084 69.7004 87.8663C69.8042 87.7823 69.9008 87.6899 69.9894 87.5901C70.3084 87.7461 70.6214 87.8888 70.9349 88.0298C71.0933 88.1009 71.2508 88.1715 71.4071 88.2416C71.4867 88.2775 71.5662 88.3134 71.6455 88.3492L71.8831 88.4525C71.8082 87.7701 71.8994 87.4804 72.0419 87.3502C72.1844 87.2199 72.3765 87.2498 72.4889 87.2137C72.8027 87.6211 72.968 87.5305 73.1079 87.3404C73.2464 87.1459 73.3523 86.8428 73.5771 86.8358C73.5917 86.5379 73.953 86.3884 74.0219 86.0359C73.725 85.8821 73.411 85.6816 73.1035 85.4798L72.3788 85.5747C72.4498 85.9377 72.3408 86.1961 72.1769 86.2488C72.012 86.3004 71.7928 86.1379 71.6254 85.6441C71.448 86.2877 71.0165 86.0836 70.7105 85.9613C70.564 86.0311 70.4267 86.1187 70.3019 86.2223C70.4424 87.0835 69.9067 86.7701 69.8498 87.1576C69.5089 87.173 69.1989 87.1905 68.856 87.1824C68.6407 86.9869 68.4178 86.8414 68.2203 86.6911C68.3023 87.5139 67.7239 87.5119 67.611 87.1689C67.5147 87.0119 67.4303 86.8479 67.3586 86.6783C67.1459 86.6692 66.963 86.643 66.8451 86.6766C66.7047 86.7155 66.6522 86.8326 66.7357 87.1272C66.4114 87.2509 66.0887 87.3772 65.74 87.5017C65.4978 87.4271 65.224 87.3019 64.9618 87.2226L65.0931 87.9139C64.8641 87.8898 64.6103 87.8631 64.3812 87.8389C64.2822 87.8038 64.1856 87.7718 64.0906 87.7412C63.9953 87.7077 63.9005 87.6743 63.8057 87.641C63.6171 87.5747 63.43 87.5079 63.2369 87.4279L63.3414 88.1738C62.9099 88.1049 62.4624 88.0471 62.0387 87.9488C61.9304 88.8078 61.4946 88.4261 61.2574 88.4756C61.1382 88.2035 61.0406 87.8737 60.9159 87.7232C60.8955 87.6871 60.8617 87.6605 60.8217 87.649C60.7818 87.6374 60.7389 87.642 60.7022 87.6616C60.6192 87.7008 60.5226 87.8134 60.4028 88.0289C60.1884 88.0728 59.9474 88.0575 59.7335 88.1015C59.4914 88.0357 59.2579 87.9794 59.028 87.9101C58.7998 87.837 58.5746 87.7648 58.3493 87.6926C58.3337 87.8068 58.2873 87.9147 58.2151 88.0049C58.1429 88.095 58.0476 88.164 57.9393 88.2045C57.7619 88.2854 57.5701 88.3594 57.4292 88.6114C57.1166 88.3466 56.8192 88.0645 56.5383 87.7665C56.3147 87.7266 56.0859 87.7235 55.8612 87.7574C55.6571 87.7826 55.4561 87.8284 55.2613 87.8942C55.0667 87.959 54.8689 88.0224 54.66 88.0836C54.5553 88.1135 54.4475 88.1416 54.3349 88.1655C54.2175 88.1881 54.099 88.2041 53.9798 88.2133C53.8367 88.0424 53.6662 87.8962 53.4752 87.7807C53.3613 87.6994 53.3159 87.6377 53.3795 87.455C53.2892 87.4108 53.2205 87.3772 53.1531 87.3444L53.0443 88.0431L52.812 89.4863L52.7713 89.7345C52.6194 89.72 52.4349 89.7362 52.283 89.7168C52.0301 89.971 51.783 90.4512 51.2779 90.3091L51.4736 89.3191C51.2844 89.2236 51.0962 89.13 50.9082 89.0302C50.7818 89.5118 50.6064 89.4621 50.4055 89.3434C50.2042 89.226 49.9781 89.0344 49.7332 89.2327L49.5722 89.9196C49.5138 90.0549 49.4305 90.1763 49.3358 90.3462L49.3944 90.1C49.1906 89.7172 48.9902 89.3255 48.7811 88.9855C48.5939 88.8823 48.4073 88.7769 48.2213 88.667C47.9368 88.7265 47.8232 89.4504 47.6221 89.3908C47.5275 89.3359 47.4098 89.2676 47.2926 89.2L46.8993 90.6085C46.5983 90.8832 46.3983 91.2808 46.2468 91.0227C45.3314 90.4799 45.7519 91.6388 45.4669 92.2108C45.4531 92.4611 45.4263 92.7106 45.3867 92.9583C45.8714 93.0803 46.3759 93.104 46.8704 93.0281C47.3171 92.9641 47.7104 92.8629 48.0495 92.8204C48.1384 92.9791 48.2439 93.1281 48.3641 93.2647C48.6246 93.3344 48.891 93.3802 49.1599 93.4015C49.2848 93.2446 49.4191 93.038 49.552 92.8314C49.9309 93.0228 50.2875 93.1995 50.6468 93.3733C50.9958 93.8151 51.3681 94.2381 51.7622 94.6404C51.587 94.9254 51.3971 95.2012 51.1933 95.4667C50.9824 95.2083 50.7778 95.4919 50.4551 95.6177C50.2038 95.6842 49.9391 95.6801 49.6904 95.6058C49.4664 95.5385 49.2467 95.4581 49.0323 95.365C48.8498 95.2804 48.6477 95.2465 48.4472 95.2668C48.2596 95.2981 48.0767 95.4136 47.8886 95.6771C47.6761 95.2909 47.4207 95.1554 47.1455 95.1242C46.8702 95.093 46.5722 95.177 46.2833 95.2229C45.9945 95.2689 45.7112 95.2902 45.4704 95.1393C45.2296 94.9884 45.0305 94.6691 44.9105 94.0465C44.4431 94.5121 43.9691 94.9759 43.4884 95.4378C43.5222 95.7997 43.5318 96.1479 43.5529 96.5593L43.0423 98.1476C43.4539 98.607 43.8576 99.0093 44.2993 99.4201C44.7596 99.5619 45.2145 99.7423 45.6817 99.878C46.1377 100.391 46.6026 100.904 47.1144 101.424L47.2449 100.937C47.3125 100.805 47.4086 100.686 47.4885 100.503C47.6309 100.572 47.7745 100.641 47.9181 100.708C48.0919 100.99 48.2829 101.261 48.49 101.52C48.6393 101.317 48.7885 101.108 48.9225 100.953C49.1449 101.107 49.3581 101.308 49.5824 101.462C49.9422 102.045 50.0987 100.922 50.3343 101.023C50.8077 100.94 51.2852 100.884 51.7646 100.853C52.1594 101.002 52.5248 101.142 52.9265 101.287L52.0853 99.1639C51.9951 99.0483 51.9133 98.9264 51.8404 98.7992C51.8501 98.548 51.8463 98.2965 51.8293 98.0457C51.9715 97.4655 52.409 97.374 52.0981 96.6072L52.1614 94.8155C52.25 94.8028 52.3488 94.733 52.4386 94.719C52.6254 95.0543 52.8797 95.3476 53.1856 95.5803C53.4621 95.7758 53.7521 95.9515 54.0536 96.1063C54.1743 95.4664 54.4111 95.4228 54.7238 95.4521C55.0348 95.485 55.4281 95.5723 55.8249 95.2167C56.0494 95.2929 56.2743 95.3566 56.5003 95.427C56.7855 95.5123 57.0633 95.5958 57.3376 95.6772C57.4761 95.7182 57.6137 95.7589 57.7505 95.7995L57.9567 95.8596L58.1625 95.9109C58.5006 96.1474 58.9369 96.6574 59.1603 95.9008C59.6202 96.5417 60.0049 96.0959 60.3097 95.7767C60.6188 95.4651 60.8638 95.3142 61.1484 96.5716C61.5427 96.7938 61.9147 97.0198 62.3241 97.2817C62.7192 96.0309 63.0621 96.0323 63.4215 95.9828C63.7387 95.8266 63.4873 95.0005 63.909 95.108C64.3283 95.2006 64.7872 95.3445 65.2242 95.483C65.5353 95.46 65.8486 95.4492 66.1576 95.4224C66.4665 95.3956 66.7762 95.3668 67.0848 95.3389C67.3964 95.313 67.7083 95.2871 68.0203 95.2612C68.3323 95.2301 68.6428 95.187 68.9583 95.1498C68.804 94.5577 69.2217 94.3579 69.5257 93.7207L69.9744 94.4541C70.1566 94.4492 70.3696 94.4373 70.5532 94.4288C70.5649 93.9822 70.567 93.6356 70.5541 93.2405C70.6436 93.237 70.7345 93.2334 70.8546 93.2288C70.9858 93.3713 71.1148 93.5117 71.2461 93.6543C71.3375 93.6494 71.4288 93.6444 71.551 93.6378C71.7749 93.7753 72.0315 93.9098 72.272 94.084C72.3246 93.9746 72.4049 93.8809 72.505 93.812C72.2672 93.4375 72.0611 93.0574 71.8549 92.6772C71.8579 92.3813 71.8438 92.0365 71.8713 91.738ZM62.9605 89.9847C62.9177 89.9786 62.8755 89.9726 62.8338 89.9668C62.7917 89.9589 62.7498 89.951 62.7078 89.943C62.6248 89.9272 62.5426 89.9115 62.4605 89.8959C62.2975 89.865 62.1344 89.8341 61.9649 89.802C62.1489 89.5661 62.3589 89.3246 62.5416 89.2866C62.7249 89.2521 62.8813 89.4036 62.9605 89.9847Z" fill="#92A2C7" fill-opacity="0.15"/>
<path opacity="0.6" d="M46.5847 76.945C46.2392 76.8087 45.77 76.6504 46.1236 76.0887C45.4632 76.1545 45.7221 75.6527 45.7994 75.3143L45.7745 75.1373L45.7559 74.9576C45.7442 74.838 45.7323 74.7178 45.7203 74.5971C45.6973 74.3575 45.674 74.1146 45.6498 73.8652C45.633 73.6668 45.6113 73.4713 45.5995 73.2723C45.1965 73.0759 45.1399 72.7415 45.0669 72.4887C44.9906 72.2358 44.8815 72.0651 44.3446 72.1739C44.3696 71.8899 44.4146 71.6082 44.4793 71.3307C44.5637 71.0186 44.7115 70.7274 44.9136 70.4755C44.8742 70.41 44.7888 70.3551 44.7505 70.29L43.3341 70.8091C42.8351 71.2945 42.6252 70.9828 42.1279 71.0557C41.9379 71.1485 41.743 71.2312 41.5442 71.3033C41.4682 71.4005 41.3992 71.5029 41.3377 71.6098C41.3209 71.8256 41.2939 72.045 41.2616 72.267C41.2295 72.4914 41.1975 72.7153 41.1658 72.9385C41.0334 73.2701 41.2055 73.3615 41.41 73.4312C41.6144 73.5008 41.8465 73.5515 41.8421 73.8123C41.6932 74.1247 41.9052 74.5677 41.2908 74.7657C41.3038 74.9035 41.3162 75.0347 41.3286 75.166C41.3455 75.2972 41.3624 75.4284 41.3801 75.5663C41.5197 75.9377 41.6404 76.3159 41.7416 76.6994C42.0458 76.4546 42.3502 76.2125 42.6601 76.0001C42.9591 76.0304 43.0287 76.2818 43.154 76.4436C43.2822 76.604 43.4539 76.6765 43.9321 76.3544C44.0546 76.6347 44.1434 76.9285 44.1966 77.2296C44.2302 77.3854 44.2627 77.5429 44.3002 77.697L44.3295 77.8119L44.3654 77.9225C44.3903 77.9955 44.4172 78.067 44.4469 78.1362C44.6851 78.6886 45.0948 79.1064 46.0505 78.9917C46.1246 78.5896 46.183 78.2284 46.2311 77.8504C47.1209 77.2302 46.9256 77.0871 46.5847 76.945Z" fill="#A8B5D3" fill-opacity="0.1"/>
<path opacity="0.6" d="M21.0495 93.649C21.1125 93.6742 21.1731 93.7047 21.2308 93.7401C21.31 93.6268 21.4019 93.5228 21.5047 93.4301L21.7977 92.8921C21.9697 92.6184 21.9445 92.5133 21.8948 92.4206C21.8648 92.3745 21.8412 92.3246 21.8246 92.2722C21.8115 92.1901 21.8213 92.106 21.8531 92.0291C21.9659 91.661 22.0895 91.3072 22.2123 90.9539L22.3827 90.8334C22.4304 90.8712 22.4844 90.9096 22.5384 90.9455C22.5923 90.9815 22.6456 91.016 22.6995 91.0498C22.813 91.1215 22.9271 91.1937 23.0441 91.2818C23.1941 91.3711 23.3047 91.5278 23.4765 91.5786C23.5755 91.6051 23.6809 91.5927 23.771 91.544C23.9328 91.458 24.0766 91.3418 24.1944 91.2017C24.1442 91.0372 24.0957 90.8625 24.06 90.6881C24.0244 90.5138 23.9933 90.3368 23.9672 90.1641C23.7844 90.2837 23.6249 90.4237 23.484 90.5247C23.3475 90.45 23.2319 90.3898 23.1105 90.3199C22.9941 90.2547 22.8823 90.1814 22.776 90.1008C22.7801 89.8031 22.7761 89.5559 22.7887 89.2714C22.8858 89.1314 22.9776 89.0469 23.0548 88.9461C23.4651 88.9795 23.6859 89.1542 23.7963 89.3778C23.8513 89.4963 23.8891 89.6219 23.9088 89.7511C23.9325 89.8849 23.9436 90.0235 23.9672 90.1641C24.3321 90.1624 24.7234 90.1109 25.1035 90.1135C25.091 90.2858 25.0884 90.4586 25.0957 90.6311L24.2719 91.2733C24.4652 91.6709 24.6787 92.0584 24.9118 92.4343C24.9317 92.4521 24.9714 92.488 24.9911 92.5057C25.3859 92.3978 25.8034 92.3033 26.1958 92.1903C26.3278 92.2313 26.4513 92.2761 26.5723 92.3125C26.8277 92.2986 27.0462 92.544 27.6808 92.1047C27.3749 91.6788 27.1 91.2667 26.8281 90.8046C26.8335 90.7241 26.8296 90.6433 26.8165 90.5637C27.5759 89.5752 27.4337 89.0481 27.6736 88.5723C28.1617 88.2614 28.6453 87.9476 29.1242 87.6308C29.1196 88.182 29.2349 88.4877 29.4138 88.6581C29.5926 88.8286 29.8378 88.8595 30.0921 88.8689C30.3464 88.8783 30.6145 88.8594 30.8437 88.9328C31.0729 89.0061 31.2672 89.1659 31.3821 89.5314C31.5875 89.3392 31.7632 89.2722 31.9285 89.2778C32.1028 89.2948 32.2692 89.3584 32.4102 89.4618C32.5769 89.5779 32.7503 89.6842 32.9296 89.7799C33.1288 89.886 33.3536 89.9349 33.5792 89.9213C33.8756 89.8695 34.0987 89.663 34.2341 89.9194C34.4534 89.7282 34.6625 89.5257 34.8607 89.3129C34.5939 88.9025 34.3493 88.4782 34.1278 88.0418C33.8514 87.832 33.578 87.6201 33.2879 87.3921C33.1394 87.5455 32.9893 87.6983 32.8559 87.8106C32.6304 87.7463 32.4113 87.6615 32.2013 87.5575C32.1223 87.4204 32.058 87.2754 32.0095 87.1248C31.7132 87.1029 31.3607 87.1216 30.9691 87.0994C30.5347 87.0793 30.1089 86.9725 29.7168 86.7853C29.793 86.5811 29.8587 86.373 29.9135 86.1621C30.2545 85.7236 30.0951 84.6638 30.7819 85.2836C30.8666 85.5297 31.1051 85.2254 31.409 85.0426L31.986 83.91C32.0745 83.9882 32.163 84.0666 32.234 84.1291C32.3951 84.2144 32.6159 83.6173 32.8687 83.6152C33.0085 83.7407 33.1493 83.8626 33.2911 83.9826C33.4644 84.2997 33.6238 84.6027 33.8049 84.9144L34.06 84.3567C34.3026 84.2297 34.4623 84.4318 34.6138 84.5664C34.7647 84.7021 34.9056 84.7745 35.096 84.3858C35.2391 84.5031 35.3832 84.6154 35.5281 84.7291C35.7281 84.8879 35.9463 85.0538 36.1496 85.2069C36.2757 85.2494 36.4357 85.2673 36.5626 85.3058L36.6399 85.1013L37.0867 83.9126C36.8575 83.7404 36.6464 83.5739 36.4196 83.3968C36.3201 83.1568 36.2366 82.9105 36.1694 82.6596C36.1812 82.5137 36.2027 82.3689 36.2338 82.2259C36.1909 82.0007 36.0869 82.0639 35.9756 82.0604C35.8644 82.0569 35.7452 81.9826 35.6853 81.4916C35.546 81.3171 35.3884 81.5143 35.2219 81.5834C35.0554 81.6526 34.8797 81.6015 34.7248 80.9316C34.4669 80.6407 34.0687 82.0347 33.8929 81.2544C33.8538 80.9365 33.8183 80.6182 33.7659 80.3417C33.5566 80.1489 33.0574 80.9458 32.9359 80.3733C32.8052 80.2492 32.6742 80.1248 32.5429 80.0001C32.4824 80.0369 32.4268 80.0811 32.3774 80.1318C31.9519 80.1945 31.9041 80.846 31.2173 80.7151C31.0156 79.8731 30.6333 80.387 30.1035 79.6269C30.3473 79.3336 30.5484 79.1141 30.7685 78.8567C30.5809 78.6709 30.411 78.4415 30.1804 78.3588C30.0498 78.3144 29.9073 78.3191 29.7799 78.3723C29.5674 78.4565 29.3741 78.5824 29.2114 78.7425C29.1361 78.6718 29.061 78.6013 28.986 78.5308L28.8724 78.4247L28.7505 78.315L29.5191 77.0341C29.2777 76.7027 28.9792 76.3834 28.6672 76.0293C28.5708 76.0985 28.4585 76.1424 28.3406 76.1567C28.6181 76.4344 28.7357 76.4382 28.6181 76.4344C28.2982 76.4235 28.2735 76.8295 28.0235 77.029C28.1003 77.2445 28.0235 77.4254 27.8253 77.4254C27.8846 77.6427 27.4067 77.5406 27.468 77.7512C27.2544 77.9404 27.0312 78.1186 26.7994 78.2853C26.6704 78.381 26.542 78.4633 26.4115 78.5435L26.0062 78.7911C26.2988 78.9964 26.5713 79.2034 26.8503 79.4278C26.8805 79.6738 26.7414 79.897 26.6262 80.0832C26.5111 80.2694 26.4195 80.4176 26.5297 80.5092C26.3337 81.1339 26.1341 81.7572 25.9089 82.4191L25.9887 82.4884C26.0744 82.473 26.1624 82.477 26.2463 82.5001C26.3302 82.5231 26.4078 82.5647 26.4734 82.6216C26.5348 82.6815 26.5818 82.7544 26.611 82.8349C26.6401 82.9154 26.6507 83.0014 26.6418 83.0865C26.6017 83.4005 26.5362 83.7505 26.4757 84.0469C26.6014 84.168 26.7094 84.2719 26.8351 84.3928C26.6082 84.8265 26.3992 85.2766 26.1496 85.7471L25.7263 86.4665C25.213 86.861 25.1749 86.1705 24.7245 86.6227C24.3945 87.0124 24.135 87.3358 23.9253 87.4921C23.7196 87.6528 23.5609 87.6413 23.4405 87.3761C23.4394 87.2636 23.4249 87.1516 23.3975 87.0425C23.3098 87.0299 23.2204 87.0455 23.1422 87.0871C23.1089 87.0261 23.0738 86.9633 23.0385 86.9021C23.0031 86.841 22.9676 86.7818 22.9305 86.7227C22.8606 86.6092 22.7842 86.4997 22.7017 86.3949C22.5816 86.5946 22.4643 86.7951 22.3499 86.9966C22.2336 87.1991 22.1198 87.4023 22.0084 87.6062C22.0803 87.8853 22.1542 88.1383 22.2318 88.3912C22.3379 88.3055 22.4391 88.2141 22.535 88.1172L22.5611 88.5849L22.58 89.051C22.3973 89.247 22.2912 89.2515 22.2133 89.1682C22.1394 89.0886 22.0995 88.9269 22.055 88.7915C21.9158 88.823 21.8023 88.8655 21.663 88.9004C21.6417 88.7961 21.6291 88.6903 21.6254 88.5839C21.751 88.2578 21.8785 87.9309 22.0084 87.6062C21.8914 87.498 21.7698 87.3998 21.6471 87.2962C21.498 87.7089 21.3535 88.1229 21.2262 88.4957C21.1213 88.6207 21.0224 88.7485 20.9276 88.8792C20.8322 89.0124 20.7412 89.1473 20.6527 89.2821C20.6549 89.5736 20.6493 89.8715 20.6373 90.1714C20.6252 90.4713 20.6071 90.7717 20.5872 91.0587C20.6081 91.0936 20.6395 91.121 20.6768 91.1372C20.7142 91.1534 20.7557 91.1576 20.7956 91.1491C20.8644 91.1402 20.9326 91.1085 20.9912 91.1122C21.0497 91.1158 21.0874 91.1567 21.1064 91.2882C21.1112 91.327 21.1139 91.3659 21.1145 91.405C21.1175 91.4518 21.1186 91.5052 21.1178 91.5658C21.114 91.72 21.1024 91.8739 21.0831 92.027C21.1382 92.1675 21.336 92.1058 21.2421 92.4917C21.108 92.831 20.8418 93.1865 20.8834 93.5654C20.9077 93.5813 20.9332 93.5954 20.9596 93.6076C20.9887 93.6226 21.0191 93.6358 21.0495 93.649ZM27.0175 84.2731C27.6919 83.9768 28.2642 83.8802 27.9972 84.682L27.8007 85.0254C27.5318 84.7708 27.2832 84.5304 27.0175 84.2731ZM27.6223 86.2622C27.8612 86.1372 28.1406 85.9877 28.3791 85.8593C28.5598 85.3889 28.7638 84.8777 28.9282 84.3905C29.1244 84.5732 29.3378 84.7772 29.5365 84.956C29.6026 85.48 29.2719 85.9853 29.2599 86.6652C29.0707 86.67 28.8823 86.6923 28.6972 86.7319C28.4224 86.8282 28.1464 86.9203 27.8468 87.0545C27.5776 86.9815 27.5677 86.5046 27.6223 86.2622Z" fill="#798CBB" fill-opacity="0.1"/>
</g>
<circle cx="53" cy="53" r="50" stroke="white" stroke-width="6"/>
<defs>
<clipPath id="clip0_1256_12326">
<rect width="88" height="88" fill="white" transform="translate(9 14.002)"/>
</clipPath>
</defs>
</svg>
