<svg width="521" height="722" viewBox="0 0 521 722" fill="none" xmlns="http://www.w3.org/2000/svg">
<g filter="url(#filter0_d_1384_3227)">
<rect x="444.606" y="288.618" width="336" height="86" rx="10" transform="rotate(-172 444.606 288.618)" fill="white"/>
</g>
<circle cx="164.062" cy="206.051" r="25" transform="rotate(8 164.062 206.051)" fill="#F1F3FA"/>
<rect x="105.245" y="298.695" width="333" height="83" rx="8.5" transform="rotate(8 105.245 298.695)" stroke="#D8DFF0" stroke-width="3" stroke-linejoin="round" stroke-dasharray="15 15"/>
<g clip-path="url(#clip0_1384_3227)">
<path d="M274.293 363.623L266.191 362.484L267.33 354.382C267.455 353.488 266.831 352.66 265.937 352.534L264.857 352.382C263.962 352.256 263.134 352.88 263.009 353.775L261.87 361.877L253.768 360.738C252.873 360.612 252.045 361.236 251.92 362.131L251.768 363.211C251.642 364.106 252.266 364.934 253.16 365.059L261.263 366.198L260.124 374.3C259.998 375.195 260.622 376.023 261.517 376.148L262.597 376.3C263.491 376.426 264.319 375.802 264.445 374.907L265.584 366.805L273.686 367.944C274.58 368.07 275.408 367.446 275.534 366.551L275.686 365.471C275.812 364.577 275.188 363.749 274.293 363.623Z" fill="#D8DFF0"/>
</g>
<circle cx="147.774" cy="444.095" r="19" transform="rotate(8 147.774 444.095)" fill="#F1F3FA"/>
<path d="M146.071 436.451L152.312 444.733L144.029 450.975" stroke="#C0C9DF" stroke-width="2" stroke-linecap="round" stroke-linejoin="round"/>
<path d="M96.9939 444.363L90.7525 436.081L99.0351 429.839" stroke="#DCE2F2" stroke-width="2" stroke-linecap="round" stroke-linejoin="round"/>
<g filter="url(#filter1_d_1384_3227)">
<rect x="460.333" y="176.718" width="336" height="86" rx="10" transform="rotate(-172 460.333 176.718)" fill="white"/>
</g>
<circle cx="179.788" cy="94.1508" r="25" transform="rotate(8 179.788 94.1508)" fill="#F1F3FA"/>
<g clip-path="url(#clip1_1384_3227)">
<path d="M181.242 80.218L177.485 106.955C184.868 107.993 191.694 102.849 192.732 95.4655C193.77 88.0822 188.625 81.2557 181.242 80.218Z" fill="#10307D"/>
<path d="M191.118 95.2386C192.156 87.8553 187.734 81.1303 181.242 80.2179C173.859 79.1803 167.032 84.3244 165.995 91.7077C165.539 94.9537 167.8 97.9549 171.046 98.4111C171.937 98.5364 172.558 99.3605 172.433 100.252C171.977 103.498 174.239 106.499 177.484 106.955C183.976 107.868 190.08 102.622 191.118 95.2386ZM171.386 95.9902C169.477 95.7219 168.147 93.9569 168.416 92.048C168.684 90.139 170.449 88.809 172.358 89.0773C174.267 89.3455 175.597 91.1106 175.329 93.0195C175.06 94.9285 173.295 96.2585 171.386 95.9902Z" fill="#2C4A93"/>
<path d="M182.627 82.7821C182.221 82.243 181.635 81.9196 181.015 81.8325L180.824 86.3011C181.232 86.5243 181.75 86.5041 182.146 86.2058C183.224 85.3932 183.44 83.8604 182.627 82.7821Z" fill="#DD9E20"/>
<path d="M181.485 82.6217C181.394 82.1268 181.221 81.8614 181.014 81.8324C180.395 81.7453 179.742 81.8946 179.203 82.3009C178.124 83.1135 177.909 84.6462 178.722 85.7245C179.128 86.2637 179.894 86.3714 180.433 85.9651C180.541 86.1084 180.675 86.2203 180.823 86.3011C180.883 86.2495 180.945 86.1646 181.004 86.0453C181.452 85.1442 181.667 83.6114 181.485 82.6217Z" fill="#FFAA00"/>
<path d="M179.523 104.872C178.984 105.278 178.331 105.428 177.711 105.34L178.759 100.992C179.213 100.89 179.706 101.053 180.004 101.448C180.816 102.527 180.601 104.059 179.523 104.872Z" fill="white"/>
<path d="M178.381 104.712C178.157 105.163 177.917 105.37 177.711 105.341C177.091 105.254 176.505 104.931 176.098 104.392C175.286 103.313 175.501 101.78 176.58 100.968C177.119 100.562 177.885 100.669 178.291 101.208C178.435 101.1 178.594 101.03 178.759 100.993C178.802 101.059 178.838 101.158 178.862 101.289C179.044 102.278 178.829 103.811 178.381 104.712Z" fill="white"/>
<path d="M184.695 103.536L185.375 98.6938C186.713 98.8818 187.644 100.118 187.456 101.455C187.268 102.792 186.032 103.724 184.695 103.536Z" fill="white"/>
<path d="M185.841 101.228C185.653 102.565 185.14 103.598 184.694 103.536C183.357 103.348 182.425 102.111 182.613 100.774C182.707 100.106 183.325 99.6401 183.994 99.7341C184.088 99.0656 184.706 98.5998 185.374 98.6937C185.82 98.7564 186.029 99.891 185.841 101.228Z" fill="white"/>
<path d="M190.65 93.4284C190.244 92.8892 189.658 92.5658 189.038 92.4788L188.358 97.3205C188.977 97.4076 189.63 97.2583 190.169 96.852C191.247 96.0395 191.463 94.5067 190.65 93.4284Z" fill="#DD9E20"/>
<path d="M189.506 95.0134C189.694 93.6764 189.485 92.5418 189.04 92.4791C188.42 92.3921 187.767 92.5413 187.228 92.9476C186.689 93.3539 186.581 94.1203 186.987 94.6594C186.448 95.0657 186.341 95.8321 186.747 96.3712C187.153 96.9104 187.739 97.2338 188.359 97.3209C188.805 97.3835 189.318 96.3504 189.506 95.0134Z" fill="#FFAA00"/>
<path d="M187.23 85.4929L186.55 90.3347C187.887 90.5226 189.123 89.5911 189.311 88.254C189.499 86.917 188.567 85.6808 187.23 85.4929Z" fill="#AA172D"/>
<path d="M187.697 88.0271C187.885 86.6901 187.676 85.5555 187.23 85.4928C185.893 85.3049 184.657 86.2364 184.469 87.5735C184.375 88.2419 184.841 88.8601 185.509 88.954C185.415 89.6225 185.881 90.2406 186.549 90.3346C186.995 90.3972 187.509 89.3641 187.697 88.0271Z" fill="#CC1D37"/>
</g>
<rect x="221.331" y="78.7766" width="58" height="8" rx="4" transform="rotate(8 221.331 78.7766)" fill="#183989" fill-opacity="0.18"/>
<rect x="286.688" y="87.9622" width="85" height="8" rx="4" transform="rotate(8 286.688 87.9622)" fill="#183989" fill-opacity="0.18"/>
<rect x="219.104" y="94.6223" width="216" height="4" rx="2" transform="rotate(8 219.104 94.6223)" fill="#183989" fill-opacity="0.1"/>
<rect x="217.573" y="105.515" width="183" height="4" rx="2" transform="rotate(8 217.573 105.515)" fill="#183989" fill-opacity="0.1"/>
<rect x="215.052" y="116.269" width="202" height="4" rx="2" transform="rotate(8.00002 215.052 116.269)" fill="#183989" fill-opacity="0.1"/>
<g filter="url(#filter2_d_1384_3227)">
<rect x="462.932" y="323.507" width="336" height="86" rx="10" transform="rotate(-172 462.932 323.507)" fill="white"/>
</g>
<circle cx="184.367" cy="241.217" r="25" transform="rotate(8 184.367 241.217)" fill="#F1F3FA"/>
<g clip-path="url(#clip2_1384_3227)">
<path d="M196.947 230.22L198.402 232.151L194.111 235.385L192.656 233.454L196.947 230.22Z" fill="#183989"/>
<path d="M193.373 234.413L197.664 231.179L198.401 232.156L194.11 235.39L193.373 234.413Z" fill="#122F76"/>
<path d="M167.868 254.046C167.755 254.03 167.648 253.971 167.574 253.873C167.425 253.676 167.465 253.397 167.661 253.248L172.567 249.552C172.764 249.404 173.043 249.443 173.192 249.64C173.34 249.836 173.301 250.116 173.104 250.264L168.198 253.961C168.1 254.035 167.981 254.062 167.868 254.046Z" fill="#183989"/>
<path d="M193.546 239.048L187.146 243.871L186.105 243.123L183.958 241.582L182.768 238.061L182.927 237.557L184.281 236.537L184.8 236.425L184.993 236L186.286 235.026L186.759 234.942L186.998 234.489L188.984 232.993L191.729 235.368L192.995 237.931L193.546 239.048Z" fill="#D8ECFE"/>
<path d="M193.546 239.048L187.146 243.871L186.105 243.123L192.995 237.931L193.546 239.048Z" fill="#CDE2FF"/>
<path d="M187.146 243.871L178.453 250.422L175.292 248.277L173.89 244.367L180.324 239.519L180.865 239.465L181.037 238.982L182.215 238.094L182.768 238.061L187.146 243.871Z" fill="#FFAA00"/>
<path d="M186.409 242.893L177.715 249.444L177.731 249.933L178.452 250.422L187.146 243.871L186.409 242.893Z" fill="#FA982F"/>
<path d="M178.453 250.422L177.078 251.458C176.728 251.718 176.234 251.683 175.916 251.441C175.769 251.329 175.602 251.246 175.42 251.215L173.868 250.947C173.103 250.815 172.5 250.286 172.244 249.603C172.131 249.302 172.085 248.97 172.122 248.63L172.289 247.087C172.31 246.901 172.291 246.711 172.219 246.539C172.055 246.138 172.184 245.644 172.515 245.403L173.89 244.367L177.716 249.445L178.453 250.422Z" fill="#122F76"/>
<path d="M178.452 250.422L177.078 251.458C176.728 251.718 176.234 251.683 175.916 251.441C175.769 251.329 175.602 251.246 175.42 251.215L173.868 250.947C173.103 250.815 172.5 250.286 172.244 249.603C172.243 249.599 172.241 249.595 172.24 249.591C172.496 249.779 172.798 249.912 173.131 249.969L174.729 250.245C174.881 250.271 175.027 250.333 175.143 250.435C175.474 250.727 175.975 250.756 176.341 250.48L177.716 249.444L178.452 250.422Z" fill="#00164C"/>
<path d="M196.351 237.566L191.181 230.705C190.989 230.45 190.627 230.399 190.372 230.591L188.794 231.78C188.539 231.972 188.488 232.335 188.68 232.59L193.85 239.451C194.042 239.706 194.405 239.757 194.66 239.565L196.238 238.376C196.493 238.183 196.544 237.821 196.351 237.566Z" fill="#183989"/>
<path d="M196.351 237.566L195.615 236.588C195.807 236.843 195.756 237.206 195.501 237.398L193.923 238.587C193.668 238.779 193.306 238.728 193.114 238.473L193.85 239.451C194.042 239.706 194.405 239.757 194.66 239.564L196.238 238.375C196.493 238.183 196.543 237.821 196.351 237.566Z" fill="#183989"/>
<path d="M200.423 232.554L197.122 228.173C196.774 227.71 196.117 227.618 195.654 227.966L195.547 228.048C195.085 228.396 194.992 229.053 195.341 229.515L198.642 233.896C198.99 234.358 199.647 234.451 200.109 234.102L200.217 234.021C200.679 233.673 200.771 233.016 200.423 232.554Z" fill="#183989"/>
<path d="M200.423 232.554L199.686 231.576C200.035 232.038 199.942 232.695 199.48 233.044L199.372 233.125C198.91 233.473 198.253 233.381 197.905 232.918L198.642 233.896C198.99 234.358 199.647 234.45 200.109 234.102L200.217 234.021C200.679 233.673 200.771 233.016 200.423 232.554Z" fill="#122F76"/>
<path d="M188.383 237.067C188.285 237.141 188.165 237.168 188.052 237.152C187.939 237.137 187.832 237.078 187.759 236.979L186.286 235.026L186.999 234.489L188.471 236.443C188.619 236.639 188.58 236.918 188.383 237.067Z" fill="#183989"/>
<path d="M186.378 238.578C186.279 238.652 186.16 238.68 186.048 238.664C185.934 238.648 185.828 238.589 185.753 238.49L184.281 236.537L184.993 236L186.466 237.953C186.614 238.15 186.575 238.43 186.378 238.578Z" fill="#183989"/>
<path d="M182.42 241.56C182.322 241.634 182.203 241.661 182.09 241.645C181.977 241.629 181.87 241.57 181.796 241.472L180.324 239.519L181.036 238.982L182.508 240.935C182.656 241.132 182.617 241.412 182.42 241.56Z" fill="#183989"/>
<path d="M183.981 240.22C183.868 240.204 183.761 240.145 183.687 240.047L182.215 238.094L182.927 237.557L184.399 239.51C184.548 239.707 184.508 239.987 184.312 240.135C184.213 240.209 184.094 240.236 183.981 240.22Z" fill="#183989"/>
<path d="M179.519 233.652C179.406 233.636 179.299 233.577 179.225 233.479L178.346 232.312C178.197 232.115 178.237 231.836 178.433 231.688C178.63 231.539 178.91 231.579 179.058 231.775L179.937 232.942C180.085 233.139 180.046 233.418 179.849 233.567C179.751 233.641 179.632 233.668 179.519 233.652Z" fill="#183989"/>
<path d="M181.875 232.891C181.631 232.857 181.461 232.631 181.495 232.388L181.726 230.749C181.76 230.505 181.985 230.335 182.229 230.37C182.473 230.404 182.643 230.629 182.609 230.873L182.379 232.512C182.344 232.756 182.119 232.926 181.875 232.891Z" fill="#183989"/>
<path d="M178.156 235.694L176.518 235.464C176.274 235.429 176.104 235.204 176.138 234.96C176.172 234.716 176.398 234.546 176.642 234.58L178.28 234.811C178.524 234.845 178.694 235.07 178.66 235.314C178.625 235.558 178.4 235.728 178.156 235.694Z" fill="#183989"/>
</g>
<rect x="226.9" y="225.984" width="88" height="8" rx="4" transform="rotate(8 226.9 225.984)" fill="#183989" fill-opacity="0.18"/>
<rect x="224.674" y="241.83" width="161" height="4" rx="2" transform="rotate(8 224.674 241.83)" fill="#183989" fill-opacity="0.1"/>
<rect x="223.143" y="252.722" width="183" height="4" rx="2" transform="rotate(8 223.143 252.722)" fill="#183989" fill-opacity="0.1"/>
<rect x="220.621" y="263.476" width="148" height="4" rx="2" transform="rotate(8 220.621 263.476)" fill="#183989" fill-opacity="0.1"/>
<g clip-path="url(#clip3_1384_3227)">
<path d="M471.475 407.171L475.263 413.189L491.916 398.001L507.124 424.865L474.841 453.938L446.33 493.594L429.459 500.827L409.079 496.839L415.794 472.416L426.098 471.949L456.402 440.427L458.34 426.515L471.475 407.171Z" fill="#FFD6B5"/>
<path d="M409.033 497.069C409.001 497.063 408.971 497.05 408.945 497.032C408.919 497.014 408.896 496.99 408.879 496.963C408.862 496.936 408.851 496.905 408.847 496.873C408.842 496.842 408.844 496.809 408.853 496.778L415.567 472.355C415.58 472.307 415.608 472.265 415.647 472.234C415.685 472.203 415.733 472.186 415.782 472.183L425.993 471.72L456.18 440.32L458.109 426.482C458.114 426.447 458.126 426.413 458.146 426.383L471.281 407.041C471.302 407.009 471.332 406.982 471.367 406.964C471.401 406.946 471.44 406.937 471.479 406.938C471.518 406.938 471.556 406.948 471.59 406.967C471.623 406.986 471.652 407.014 471.672 407.047L475.311 412.827L491.758 397.83C491.784 397.807 491.815 397.79 491.848 397.78C491.882 397.77 491.917 397.768 491.952 397.774C491.987 397.779 492.02 397.792 492.049 397.812C492.078 397.832 492.102 397.859 492.119 397.89L507.327 424.753C507.353 424.799 507.363 424.853 507.355 424.906C507.346 424.959 507.32 425.007 507.28 425.042L475.015 454.095L446.519 493.731C446.494 493.765 446.46 493.791 446.422 493.807L429.55 501.043C429.507 501.062 429.46 501.067 429.414 501.058L409.034 497.07L409.033 497.069ZM415.973 472.643L409.371 496.659L429.433 500.585L446.177 493.406L474.651 453.802C474.661 453.788 474.672 453.776 474.684 453.765L506.827 424.819L491.856 398.374L475.417 413.362C475.392 413.385 475.362 413.402 475.33 413.412C475.297 413.422 475.263 413.425 475.229 413.42C475.195 413.415 475.163 413.403 475.135 413.384C475.106 413.366 475.082 413.342 475.063 413.313L471.469 407.599L458.565 426.603L456.635 440.46C456.628 440.509 456.606 440.555 456.571 440.591L426.267 472.112C426.226 472.155 426.17 472.181 426.11 472.184L415.973 472.643Z" fill="#00257D"/>
<path d="M470.875 433.685L469.787 426.218C469.78 426.177 469.785 426.135 469.801 426.096L475.045 413.101L475.478 413.276L470.258 426.213L471.337 433.618L470.875 433.685Z" fill="#00257D"/>
<path d="M363.15 431.447L370.869 444.857L379.751 432.875L380.378 421.825L373.383 414.024L363.957 416.778L363.246 430.966" fill="#FFD6B5"/>
<path d="M412.838 448.287L422.71 461.385L428.97 461.175L431.135 465.807L414.021 542.356L378.293 508.137L412.838 448.287Z" fill="#CC1D37"/>
<path d="M413.975 542.585C413.931 542.576 413.891 542.556 413.859 542.525L378.131 508.306L378.454 507.968L413.883 541.901L430.89 465.834L428.823 461.414L422.717 461.619C422.68 461.621 422.643 461.613 422.609 461.597C422.575 461.581 422.545 461.557 422.523 461.527L412.652 448.429L413.026 448.147L422.823 461.15L428.961 460.946C429.006 460.944 429.052 460.956 429.091 460.98C429.13 461.004 429.161 461.039 429.18 461.08L431.346 465.712C431.368 465.759 431.374 465.811 431.364 465.862L414.249 542.411C414.236 542.47 414.2 542.523 414.148 542.556C414.097 542.589 414.035 542.601 413.975 542.589L413.975 542.585Z" fill="#00257D"/>
<path d="M304.665 467.569L305.589 527.82L327.057 472.772L316.03 458.186L304.665 467.569Z" fill="#CC1D37"/>
<path d="M305.543 528.049C305.49 528.038 305.443 528.01 305.409 527.969C305.375 527.928 305.356 527.877 305.355 527.823L304.43 467.572C304.429 467.537 304.437 467.502 304.451 467.47C304.466 467.438 304.487 467.41 304.514 467.388L315.88 458.005C315.904 457.985 315.932 457.97 315.962 457.961C315.992 457.952 316.024 457.95 316.055 457.953C316.118 457.961 316.176 457.994 316.214 458.044L327.242 472.63C327.266 472.662 327.282 472.699 327.288 472.739C327.293 472.778 327.288 472.819 327.274 472.856L305.806 527.904C305.786 527.955 305.75 527.997 305.703 528.023C305.656 528.05 305.601 528.059 305.547 528.05L305.543 528.049ZM304.898 467.678L305.802 526.625L326.789 472.808L315.989 458.521L304.898 467.678Z" fill="#00257D"/>
<path d="M288.954 467.346L296.012 436.396L274.554 425.915L261.447 403.07L266.829 401.911L276.963 416.351L273.835 401.641L277.502 392.163L294.725 397.897L292.829 404.26L296.294 411.159L311.328 420.136L315.885 432.751L317.931 485.965L306.308 485.088L288.954 467.346Z" fill="#FFD6B5"/>
<path d="M318.04 486.05C318.037 486.056 318.033 486.061 318.028 486.066C318.014 486.079 317.998 486.089 317.98 486.096C317.962 486.102 317.942 486.105 317.923 486.104L306.298 485.225C306.265 485.223 306.235 485.208 306.211 485.185L288.857 467.443C288.841 467.426 288.83 467.406 288.823 467.384C288.817 467.362 288.817 467.339 288.822 467.317L295.856 436.472L274.495 426.038C274.471 426.026 274.45 426.007 274.437 425.983L261.33 403.139C261.319 403.12 261.313 403.1 261.311 403.078C261.31 403.057 261.314 403.035 261.323 403.015C261.332 402.996 261.345 402.979 261.362 402.965C261.378 402.951 261.398 402.942 261.419 402.937L266.802 401.778C266.828 401.772 266.855 401.774 266.88 401.784C266.905 401.794 266.927 401.811 266.943 401.833L276.692 415.725L273.703 401.67C273.697 401.644 273.7 401.617 273.709 401.593L277.376 392.115C277.389 392.082 277.414 392.055 277.445 392.04C277.477 392.025 277.514 392.023 277.547 392.034L294.769 397.768C294.803 397.78 294.831 397.803 294.847 397.835C294.863 397.866 294.867 397.903 294.857 397.937L292.975 404.248L296.399 411.063L311.398 420.019C311.425 420.035 311.446 420.06 311.456 420.09L316.014 432.706C316.019 432.719 316.022 432.733 316.022 432.747L318.069 485.961C318.07 485.993 318.06 486.025 318.04 486.05ZM306.371 484.957L317.79 485.818L315.751 432.778L311.217 420.229L296.225 411.276C296.202 411.263 296.184 411.244 296.173 411.22L292.709 404.323C292.693 404.292 292.69 404.256 292.7 404.223L294.558 397.987L277.585 392.336L273.978 401.653L277.098 416.323C277.105 416.354 277.1 416.386 277.086 416.414C277.072 416.442 277.048 416.464 277.019 416.477C276.99 416.489 276.958 416.491 276.928 416.483C276.897 416.474 276.871 416.456 276.853 416.43L266.771 402.064L261.659 403.165L274.653 425.811L296.073 436.274C296.1 436.288 296.123 436.31 296.136 436.338C296.149 436.366 296.153 436.397 296.146 436.427L289.105 467.305L306.371 484.957Z" fill="#00257D"/>
<path d="M282.24 414.281L281.974 414.34L279.552 403.524C279.547 403.5 279.548 403.475 279.556 403.451L282.725 393.904L282.984 393.99L279.827 403.502L282.24 414.281Z" fill="#00257D"/>
<path d="M287.991 413.633L287.723 413.685L285.906 404.426C285.902 404.402 285.903 404.378 285.91 404.356L288.718 395.898L288.978 395.984L286.181 404.408L287.991 413.633Z" fill="#00257D"/>
<path d="M333.345 441.277L316.714 453.87L317.056 464.172L305.588 527.815L333.806 517.384L341.994 452.198L333.345 441.277Z" fill="#CC1D37"/>
<path d="M305.539 528.046C305.479 528.034 305.426 527.999 305.392 527.948C305.357 527.898 305.344 527.836 305.355 527.775L316.819 464.156L316.478 453.879C316.477 453.842 316.485 453.805 316.501 453.771C316.517 453.737 316.541 453.708 316.571 453.685L333.201 441.092L333.483 441.465L316.949 453.985L317.288 464.166C317.289 464.181 317.287 464.197 317.285 464.213L305.886 527.455L333.724 517.167L333.886 517.606L305.668 528.035C305.627 528.051 305.582 528.055 305.539 528.046Z" fill="#00257D"/>
<path d="M420.718 469.995C420.16 469.158 419.944 468.138 420.116 467.146C420.287 466.155 420.833 465.266 421.64 464.665C420.815 464.69 420.011 464.935 419.313 465.375C418.615 465.815 418.047 466.434 417.669 467.168C417.29 467.902 417.115 468.723 417.161 469.547C417.207 470.372 417.473 471.169 417.931 471.855C418.389 472.542 419.022 473.094 419.765 473.453C420.508 473.812 421.334 473.966 422.156 473.898C422.979 473.831 423.768 473.544 424.443 473.068C425.117 472.592 425.652 471.945 425.992 471.192C425.127 471.707 424.097 471.869 423.116 471.647C422.134 471.424 421.276 470.832 420.718 469.995Z" fill="white"/>
<path d="M411.705 503.031C411.11 503.429 410.614 503.959 410.258 504.581C409.902 505.202 409.695 505.898 409.654 506.613C409.613 507.328 409.738 508.043 410.02 508.701C410.302 509.36 410.733 509.943 411.279 510.407C411.825 510.87 412.471 511.2 413.167 511.371C413.862 511.542 414.588 511.549 415.286 511.391C415.985 511.234 416.637 510.916 417.192 510.464C417.747 510.011 418.19 509.436 418.484 508.783C417.619 509.305 416.587 509.473 415.601 509.252C414.615 509.032 413.752 508.44 413.192 507.599C412.631 506.759 412.416 505.735 412.591 504.739C412.767 503.744 413.318 502.855 414.132 502.256C413.267 502.281 412.425 502.55 411.705 503.031Z" fill="white"/>
<path d="M416.964 488.791C416.406 487.954 416.19 486.934 416.362 485.943C416.533 484.951 417.079 484.063 417.886 483.462C417.061 483.487 416.258 483.732 415.559 484.172C414.861 484.612 414.293 485.231 413.915 485.964C413.536 486.698 413.361 487.52 413.407 488.344C413.453 489.168 413.719 489.965 414.177 490.652C414.635 491.338 415.268 491.89 416.011 492.249C416.754 492.609 417.58 492.762 418.402 492.695C419.225 492.627 420.014 492.34 420.689 491.865C421.363 491.389 421.898 490.741 422.238 489.989C421.373 490.503 420.343 490.666 419.362 490.443C418.381 490.22 417.522 489.629 416.964 488.791Z" fill="white"/>
<path d="M413.08 529.523C413.801 529.043 414.372 528.369 414.727 527.579C413.862 528.101 412.829 528.269 411.844 528.048C410.858 527.828 409.995 527.236 409.434 526.395C408.874 525.555 408.659 524.531 408.834 523.535C409.009 522.54 409.561 521.651 410.375 521.052C409.66 521.074 408.958 521.261 408.327 521.6C407.696 521.939 407.153 522.419 406.739 523.004C406.325 523.589 406.053 524.261 405.943 524.969C405.834 525.677 405.89 526.401 406.108 527.083C406.326 527.765 406.699 528.388 407.199 528.901C407.698 529.415 408.31 529.805 408.986 530.041C409.662 530.278 410.383 530.354 411.094 530.264C411.804 530.174 412.484 529.92 413.08 529.523Z" fill="white"/>
<path d="M391.035 508.677C390.439 509.074 389.944 509.605 389.588 510.226C389.232 510.848 389.025 511.544 388.984 512.259C388.942 512.974 389.068 513.689 389.35 514.347C389.632 515.005 390.063 515.589 390.609 516.052C391.155 516.516 391.801 516.846 392.496 517.017C393.192 517.188 393.917 517.195 394.616 517.037C395.314 516.88 395.967 516.562 396.522 516.11C397.077 515.657 397.519 515.081 397.814 514.429C396.949 514.95 395.916 515.119 394.93 514.898C393.945 514.678 393.082 514.086 392.521 513.245C391.961 512.405 391.746 511.38 391.921 510.385C392.096 509.39 392.648 508.501 393.462 507.902C392.596 507.927 391.755 508.195 391.035 508.677Z" fill="white"/>
<path d="M311.965 562.185L308.745 561.664L306.567 575.137L309.787 575.657L311.965 562.185Z" fill="#0084CC"/>
<path d="M306.522 575.366C306.462 575.354 306.41 575.32 306.375 575.27C306.341 575.22 306.327 575.159 306.337 575.099L308.514 561.627C308.519 561.596 308.53 561.567 308.546 561.541C308.562 561.515 308.583 561.492 308.608 561.475C308.633 561.457 308.661 561.444 308.691 561.437C308.721 561.43 308.752 561.429 308.782 561.433L312.002 561.954L312.011 561.956C312.07 561.968 312.123 562.002 312.157 562.052C312.192 562.101 312.206 562.162 312.196 562.222L310.018 575.694C310.013 575.725 310.002 575.754 309.986 575.78C309.97 575.806 309.949 575.829 309.924 575.847C309.899 575.865 309.871 575.878 309.841 575.885C309.811 575.892 309.78 575.893 309.75 575.888L306.53 575.368L306.522 575.366ZM308.939 561.932L306.836 574.943L309.593 575.389L311.697 562.378L308.939 561.932Z" fill="#00257D"/>
<path d="M321.886 563.822L311.955 562.185L309.735 575.65L319.667 577.287L321.886 563.822Z" fill="#FFD6B5"/>
<path d="M309.687 575.88C309.628 575.868 309.575 575.834 309.541 575.784C309.506 575.734 309.493 575.672 309.503 575.612L311.722 562.147C311.727 562.117 311.738 562.088 311.754 562.062C311.77 562.036 311.792 562.013 311.817 561.995C311.842 561.977 311.87 561.965 311.9 561.958C311.93 561.951 311.961 561.95 311.991 561.955L321.923 563.591C321.984 563.603 322.038 563.637 322.075 563.686C322.111 563.737 322.126 563.799 322.116 563.861L319.896 577.326C319.886 577.387 319.852 577.442 319.801 577.478C319.751 577.514 319.688 577.528 319.627 577.518L309.695 575.882L309.687 575.88ZM312.146 562.454L310.001 575.458L319.473 577.019L321.617 564.015L312.146 562.454Z" fill="#00257D"/>
<path d="M316.525 580.6L325.344 578.226L329.662 582.765L334.193 579.684L360.685 584.051L362.906 570.586L336.412 566.219L333.159 561.552L327.564 564.76L320.022 559.387L316.525 580.6Z" fill="white"/>
<path d="M316.478 580.828C316.419 580.816 316.366 580.782 316.332 580.732C316.297 580.682 316.283 580.621 316.293 580.561L319.79 559.348C319.796 559.308 319.813 559.272 319.837 559.24C319.862 559.209 319.894 559.185 319.931 559.17C319.968 559.154 320.008 559.149 320.047 559.153C320.086 559.158 320.124 559.172 320.156 559.195L327.577 564.482L333.042 561.348C333.093 561.319 333.153 561.31 333.21 561.323C333.267 561.336 333.317 561.37 333.35 561.418L336.547 566.003L362.944 570.356C363.005 570.367 363.059 570.401 363.095 570.451C363.13 570.501 363.145 570.563 363.136 570.624L360.917 584.09C360.907 584.151 360.873 584.205 360.822 584.242C360.772 584.278 360.709 584.292 360.648 584.282L334.247 579.931L329.794 582.959C329.748 582.99 329.693 583.004 329.638 582.998C329.583 582.992 329.532 582.966 329.493 582.926L325.271 578.488L316.586 580.826C316.551 580.835 316.514 580.836 316.478 580.828ZM320.19 559.793L316.814 580.279L325.282 577.999C325.323 577.988 325.366 577.988 325.406 577.999C325.447 578.011 325.484 578.033 325.513 578.063L329.694 582.459L334.06 579.49C334.11 579.456 334.17 579.443 334.23 579.453L360.492 583.782L362.636 570.778L336.373 566.448C336.312 566.436 336.257 566.401 336.22 566.351L333.089 561.86L327.679 564.962C327.641 564.984 327.596 564.994 327.551 564.992C327.507 564.99 327.464 564.975 327.427 564.949L320.19 559.793Z" fill="#00257D"/>
<path d="M353.215 566.154L350.253 584.12C350.253 584.12 345.979 610.053 366.985 621.643L375.526 569.833L353.215 566.154Z" fill="#6EB60D"/>
<path d="M366.938 621.873C366.914 621.868 366.891 621.86 366.87 621.848C345.985 610.167 349.979 584.341 350.021 584.081L352.983 566.115C352.988 566.085 352.999 566.056 353.015 566.03C353.031 566.004 353.052 565.981 353.077 565.963C353.102 565.945 353.13 565.932 353.16 565.925C353.19 565.918 353.221 565.917 353.252 565.922L375.564 569.6C375.624 569.613 375.677 569.646 375.715 569.695C375.733 569.72 375.746 569.748 375.753 569.778C375.76 569.808 375.761 569.839 375.756 569.869L367.214 621.682C367.208 621.719 367.193 621.754 367.171 621.784C367.148 621.814 367.119 621.838 367.085 621.854C367.039 621.877 366.988 621.883 366.938 621.873ZM353.406 566.422L350.483 584.158C350.441 584.413 346.539 609.681 366.809 621.276L375.258 570.024L353.406 566.422Z" fill="#00257D"/>
<path d="M360.447 616.907C347.02 603.718 350.248 584.121 350.248 584.121L355.175 584.933C353.179 599.115 361.527 610.355 361.527 610.355L360.447 616.907Z" fill="#A9E37D"/>
<path d="M373.411 626.121L383.049 567.653L376.069 566.502L366.431 624.971L373.411 626.121Z" fill="white"/>
<path d="M366.383 625.198C366.324 625.187 366.271 625.152 366.237 625.102C366.202 625.052 366.189 624.991 366.198 624.931L375.839 566.462C375.844 566.432 375.855 566.403 375.871 566.377C375.888 566.35 375.909 566.328 375.934 566.31C375.959 566.292 375.987 566.279 376.017 566.272C376.047 566.265 376.078 566.264 376.108 566.269L383.088 567.42C383.119 567.425 383.148 567.435 383.174 567.451C383.201 567.467 383.224 567.489 383.242 567.514C383.26 567.539 383.272 567.567 383.279 567.597C383.286 567.628 383.286 567.659 383.28 567.689L373.642 626.158C373.632 626.219 373.598 626.273 373.547 626.309C373.497 626.345 373.434 626.36 373.373 626.35L366.393 625.199L366.383 625.198ZM376.26 566.771L366.698 624.778L373.216 625.853L382.779 567.845L376.26 566.771Z" fill="#00257D"/>
<path d="M360.402 617.136C360.358 617.127 360.317 617.106 360.284 617.074C346.923 603.951 349.987 584.278 350.019 584.081C350.024 584.05 350.035 584.021 350.051 583.995C350.067 583.969 350.089 583.946 350.114 583.929C350.139 583.911 350.167 583.898 350.197 583.891C350.227 583.884 350.258 583.883 350.288 583.888L355.215 584.7C355.274 584.713 355.326 584.747 355.361 584.795C355.397 584.844 355.413 584.903 355.408 584.963C353.449 598.882 361.634 610.103 361.716 610.214C361.734 610.239 361.748 610.268 361.755 610.298C361.763 610.329 361.764 610.36 361.759 610.391L360.679 616.945C360.673 616.976 360.662 617.006 360.645 617.032C360.629 617.059 360.607 617.082 360.581 617.099C360.555 617.117 360.526 617.13 360.495 617.136C360.465 617.142 360.433 617.142 360.402 617.136ZM350.447 584.388C350.15 586.611 348.241 604.247 360.291 616.421L361.282 610.411C360.538 609.364 353.132 598.503 354.914 585.125L350.447 584.388Z" fill="#00257D"/>
<path d="M355.091 593.867L350.374 596.546L350.604 596.953L355.322 594.273L355.091 593.867Z" fill="#00257D"/>
<path d="M357.721 603.362L353.195 606.327L353.451 606.718L357.977 603.753L357.721 603.362Z" fill="#00257D"/>
<path d="M290.516 572.494L306.567 575.139L308.746 561.667L292.608 560.765L290.516 572.494Z" fill="#0084CC"/>
<path d="M290.469 572.722C290.411 572.71 290.359 572.677 290.324 572.628C290.306 572.603 290.294 572.574 290.287 572.544C290.28 572.514 290.279 572.483 290.285 572.452L292.377 560.723C292.387 560.667 292.417 560.616 292.462 560.581C292.507 560.545 292.563 560.527 292.621 560.531L308.757 561.432C308.79 561.435 308.822 561.443 308.851 561.458C308.88 561.473 308.905 561.494 308.926 561.519C308.947 561.545 308.962 561.574 308.97 561.606C308.978 561.637 308.98 561.67 308.975 561.703L306.797 575.175C306.792 575.206 306.782 575.235 306.765 575.261C306.749 575.287 306.728 575.31 306.703 575.328C306.678 575.346 306.65 575.359 306.62 575.366C306.59 575.373 306.559 575.374 306.528 575.369L290.477 572.724L290.469 572.722ZM292.8 561.009L290.785 572.301L306.372 574.869L308.471 561.884L292.8 561.009Z" fill="#00257D"/>
<path d="M332.268 444.97C332.989 444.49 333.56 443.817 333.916 443.026C333.456 443.299 332.946 443.475 332.416 443.543C331.886 443.611 331.348 443.57 330.834 443.422L328.133 445.468C328.813 445.715 329.542 445.799 330.26 445.712C330.978 445.626 331.666 445.371 332.268 444.97Z" fill="white"/>
<path d="M321.137 479.422C320.578 478.585 320.363 477.566 320.534 476.574C320.706 475.582 321.251 474.694 322.058 474.093C321.233 474.118 320.43 474.363 319.732 474.803C319.033 475.243 318.465 475.862 318.087 476.596C317.709 477.329 317.533 478.151 317.579 478.975C317.625 479.799 317.891 480.596 318.349 481.283C318.807 481.97 319.44 482.521 320.183 482.881C320.926 483.24 321.752 483.394 322.575 483.326C323.397 483.258 324.187 482.972 324.861 482.496C325.536 482.02 326.07 481.372 326.41 480.62C325.545 481.135 324.516 481.297 323.534 481.074C322.553 480.851 321.695 480.26 321.137 479.422Z" fill="white"/>
<path d="M324.891 460.624C324.332 459.787 324.117 458.767 324.288 457.776C324.459 456.784 325.005 455.896 325.812 455.295C324.987 455.32 324.184 455.565 323.486 456.005C322.787 456.445 322.219 457.064 321.841 457.797C321.462 458.531 321.287 459.353 321.333 460.177C321.379 461.001 321.645 461.798 322.103 462.485C322.561 463.171 323.194 463.723 323.937 464.082C324.68 464.442 325.506 464.595 326.328 464.528C327.151 464.46 327.94 464.173 328.615 463.698C329.289 463.222 329.824 462.574 330.164 461.822C329.299 462.336 328.27 462.499 327.288 462.276C326.307 462.053 325.449 461.462 324.891 460.624Z" fill="white"/>
<path d="M317.254 520.154C317.975 519.675 318.546 519.001 318.902 518.211C318.037 518.732 317.004 518.9 316.018 518.68C315.032 518.46 314.169 517.868 313.609 517.027C313.048 516.186 312.833 515.162 313.009 514.167C313.184 513.172 313.736 512.283 314.55 511.684C313.834 511.705 313.133 511.893 312.502 512.231C311.871 512.57 311.327 513.051 310.913 513.635C310.499 514.22 310.227 514.893 310.118 515.601C310.008 516.309 310.065 517.032 310.282 517.715C310.5 518.397 310.874 519.019 311.373 519.533C311.872 520.046 312.484 520.436 313.16 520.673C313.836 520.91 314.557 520.986 315.268 520.896C315.978 520.806 316.658 520.552 317.254 520.154Z" fill="white"/>
<path d="M315.876 493.662C315.28 494.06 314.785 494.59 314.429 495.212C314.073 495.833 313.866 496.529 313.825 497.244C313.783 497.959 313.909 498.674 314.191 499.332C314.473 499.991 314.904 500.574 315.45 501.038C315.996 501.501 316.642 501.831 317.337 502.002C318.033 502.173 318.758 502.18 319.457 502.023C320.155 501.865 320.808 501.548 321.363 501.095C321.918 500.642 322.36 500.067 322.655 499.414C321.79 499.936 320.757 500.104 319.771 499.884C318.785 499.663 317.922 499.071 317.362 498.231C316.801 497.39 316.586 496.366 316.762 495.371C316.937 494.375 317.489 493.486 318.303 492.888C317.437 492.912 316.596 493.181 315.876 493.662Z" fill="white"/>
<path d="M326.145 517.626L285.373 560.681L290.516 572.493L300.45 564.604L337.957 524.996L326.145 517.626Z" fill="#0084CC"/>
<path d="M290.47 572.724C290.433 572.716 290.399 572.7 290.369 572.677C290.34 572.653 290.317 572.623 290.302 572.588L285.159 560.776C285.141 560.734 285.135 560.687 285.143 560.642C285.151 560.597 285.172 560.555 285.203 560.522L325.975 517.466C326.012 517.427 326.062 517.402 326.115 517.395C326.169 517.388 326.223 517.4 326.269 517.429L338.081 524.799C338.111 524.817 338.136 524.842 338.155 524.871C338.173 524.9 338.186 524.933 338.19 524.968C338.194 525.002 338.191 525.037 338.18 525.07C338.169 525.102 338.152 525.132 338.128 525.157L300.621 564.766L300.282 564.445L337.593 525.044L326.185 517.927L285.649 560.731L290.669 572.262L291.252 572.263L291.251 572.73L290.516 572.729C290.501 572.729 290.485 572.727 290.47 572.724Z" fill="#00257D"/>
<path d="M388.321 552.193L374.941 549.521L359.892 624.87L373.271 627.542L388.321 552.193Z" fill="#0084CC"/>
<path d="M372.631 630.742L359.252 628.07L353.91 654.814L367.29 657.486L372.631 630.742Z" fill="#FFD6B5"/>
<path d="M373.272 627.542L359.893 624.869L359.254 628.069L372.633 630.741L373.272 627.542Z" fill="#0084CC"/>
<path d="M372.587 630.971L359.208 628.299C359.147 628.287 359.094 628.251 359.059 628.2C359.025 628.148 359.013 628.085 359.025 628.024L359.664 624.825C359.676 624.764 359.712 624.711 359.763 624.676C359.815 624.642 359.878 624.629 359.939 624.641L373.317 627.314C373.378 627.326 373.432 627.362 373.466 627.413C373.5 627.465 373.513 627.528 373.501 627.589L372.862 630.788C372.85 630.849 372.814 630.902 372.762 630.937C372.711 630.971 372.648 630.984 372.587 630.971ZM359.529 627.887L372.449 630.467L372.997 627.726L360.076 625.146L359.529 627.887Z" fill="#00257D"/>
<path d="M373.225 627.773L359.847 625.101C359.786 625.088 359.732 625.053 359.698 625.001C359.664 624.949 359.651 624.886 359.663 624.826L374.713 549.476C374.725 549.415 374.761 549.362 374.813 549.327C374.864 549.293 374.927 549.28 374.988 549.293L388.367 551.965C388.427 551.977 388.481 552.013 388.515 552.064C388.55 552.116 388.562 552.179 388.55 552.24L373.5 627.589C373.488 627.65 373.452 627.704 373.401 627.738C373.349 627.772 373.286 627.785 373.225 627.773ZM360.167 624.688L373.088 627.269L388.046 552.377L375.126 549.797L360.167 624.688Z" fill="#00257D"/>
<path d="M367.097 658.45L353.718 655.778C353.658 655.765 353.604 655.73 353.57 655.678C353.535 655.626 353.523 655.563 353.535 655.503L359.023 628.025C359.035 627.964 359.071 627.911 359.123 627.876C359.174 627.842 359.237 627.83 359.298 627.842L372.677 630.514C372.737 630.526 372.791 630.562 372.825 630.613C372.86 630.665 372.872 630.728 372.86 630.789L367.372 658.266C367.36 658.327 367.324 658.38 367.272 658.415C367.221 658.449 367.158 658.462 367.097 658.45ZM354.039 655.365L366.959 657.945L372.356 630.926L359.436 628.346L354.039 655.365Z" fill="#00257D"/>
<path d="M350.564 652.296L352.638 661.192L347.956 665.357L350.88 669.989L349.136 678.723L362.515 681.395L364.26 672.661L369.033 669.566L366.017 663.865L371.641 656.506L350.564 652.296Z" fill="white"/>
<path d="M362.468 681.624L349.089 678.952C349.029 678.939 348.975 678.904 348.941 678.852C348.906 678.8 348.894 678.737 348.906 678.677L350.632 670.034L347.76 665.481C347.73 665.434 347.718 665.379 347.726 665.324C347.733 665.269 347.76 665.218 347.802 665.181L352.38 661.109L350.335 652.348C350.326 652.31 350.327 652.27 350.338 652.233C350.348 652.195 350.368 652.161 350.395 652.132C350.422 652.104 350.456 652.084 350.493 652.072C350.53 652.06 350.57 652.058 350.608 652.066L371.686 656.276C371.725 656.283 371.761 656.301 371.791 656.327C371.821 656.352 371.844 656.385 371.858 656.422C371.872 656.459 371.877 656.499 371.871 656.538C371.865 656.578 371.85 656.615 371.826 656.646L366.292 663.886L369.238 669.457C369.265 669.508 369.272 669.568 369.257 669.624C369.243 669.681 369.207 669.73 369.159 669.762L364.468 672.802L362.743 681.44C362.737 681.47 362.725 681.499 362.708 681.524C362.691 681.55 362.669 681.572 362.644 681.589C362.618 681.606 362.589 681.618 362.559 681.624C362.529 681.63 362.498 681.63 362.468 681.624ZM349.41 678.539L362.33 681.119L364.029 672.614C364.035 672.584 364.048 672.555 364.065 672.529C364.083 672.503 364.105 672.481 364.132 672.464L368.725 669.486L365.809 663.973C365.788 663.933 365.779 663.889 365.783 663.844C365.786 663.8 365.803 663.757 365.83 663.722L371.227 656.661L350.873 652.595L352.865 661.138C352.874 661.179 352.872 661.222 352.86 661.262C352.847 661.302 352.824 661.338 352.792 661.366L348.258 665.399L351.077 669.863C351.109 669.914 351.121 669.975 351.109 670.034L349.41 678.539Z" fill="#00257D"/>
<path d="M366.393 676.687L347.513 672.916C347.513 672.916 337.582 680.642 334.761 694.766L369.776 701.759C371.389 693.255 370.202 684.458 366.393 676.687Z" fill="#6EB60D"/>
<path d="M369.726 701.988L334.715 694.995C334.654 694.983 334.6 694.947 334.566 694.895C334.532 694.844 334.519 694.781 334.531 694.72C336.31 686.191 340.816 678.474 347.368 672.733C347.395 672.712 347.425 672.697 347.458 672.69C347.491 672.682 347.525 672.681 347.558 672.688L366.44 676.459C366.474 676.466 366.505 676.48 366.533 676.5C366.561 676.521 366.583 676.547 366.6 676.577C366.662 676.692 372.728 688.163 370.003 701.808C369.99 701.869 369.953 701.921 369.901 701.955C369.849 701.989 369.786 702.001 369.726 701.988ZM335.032 694.582L369.585 701.483C372.037 688.764 366.808 678.019 366.234 676.894L347.572 673.166C341.216 678.784 336.823 686.289 335.035 694.582L335.032 694.582Z" fill="#00257D"/>
<path d="M329.626 701.37L371.803 709.794L373.269 702.454L331.092 694.03L329.626 701.37Z" fill="white"/>
<path d="M371.758 710.024L329.583 701.6C329.522 701.588 329.468 701.553 329.434 701.501C329.4 701.449 329.387 701.386 329.399 701.326L330.865 693.986C330.877 693.925 330.913 693.871 330.965 693.837C331.016 693.803 331.08 693.79 331.14 693.802L373.317 702.226C373.378 702.238 373.431 702.274 373.466 702.326C373.5 702.377 373.513 702.44 373.501 702.501L372.035 709.841C372.029 709.871 372.017 709.9 371.999 709.926C371.982 709.951 371.96 709.973 371.934 709.99C371.909 710.007 371.88 710.019 371.849 710.025C371.819 710.031 371.788 710.03 371.758 710.024ZM329.902 701.187L371.62 709.52L372.995 702.638L331.278 694.306L329.902 701.187Z" fill="#00257D"/>
<path d="M361.907 675.79L351.991 673.81C351.991 673.81 346.401 682.027 345.439 689.111L362.079 692.435C363.191 686.936 363.133 681.265 361.907 675.79Z" fill="#A9E37D"/>
<path d="M362.034 692.664L345.395 689.34C345.334 689.328 345.28 689.292 345.246 689.241C345.212 689.189 345.199 689.126 345.211 689.065C346.922 680.498 351.754 673.74 351.802 673.672C351.829 673.636 351.865 673.608 351.906 673.591C351.948 673.575 351.994 673.571 352.038 673.58L361.954 675.561C361.998 675.569 362.038 675.59 362.071 675.621C362.103 675.652 362.125 675.692 362.136 675.735C363.27 681.254 363.329 686.939 362.309 692.48C362.303 692.51 362.291 692.539 362.274 692.564C362.257 692.59 362.235 692.612 362.209 692.629C362.184 692.646 362.155 692.658 362.125 692.664C362.095 692.67 362.064 692.67 362.034 692.664ZM345.718 688.928L361.896 692.159C362.847 686.805 362.786 681.321 361.715 675.99L352.095 674.068C351.448 675.005 347.316 681.199 345.716 688.928L345.718 688.928Z" fill="#00257D"/>
<path d="M362.561 681.166L349.182 678.494L349.091 678.953L362.469 681.625L362.561 681.166Z" fill="#00257D"/>
<path d="M362.812 686.558L347.038 683.407L346.947 683.866L362.721 687.017L362.812 686.558Z" fill="#00257D"/>
<path d="M340.099 502.459L323.339 520.593C344.919 528.555 350.372 554.824 386.322 562.004L398.573 505.73L340.099 502.459Z" fill="#00257D"/>
<path d="M351.534 502.701L335.147 527.648L335.538 527.905L351.925 502.958L351.534 502.701Z" fill="white"/>
<path d="M362.614 503.629L346.462 538.698L346.886 538.893L363.039 503.824L362.614 503.629Z" fill="white"/>
<path d="M373.131 504.244L358.533 549.725L358.979 549.868L373.576 504.387L373.131 504.244Z" fill="white"/>
<path d="M385.888 504.975L373.005 558.052L373.46 558.162L386.343 505.086L385.888 504.975Z" fill="white"/>
<path d="M386.274 562.232C364.948 557.973 354.209 546.905 344.734 537.141C338.199 530.407 332.028 524.047 323.256 520.811C323.22 520.798 323.188 520.776 323.163 520.747C323.137 520.718 323.119 520.684 323.11 520.646C323.101 520.609 323.102 520.57 323.112 520.533C323.121 520.496 323.14 520.461 323.166 520.433L339.926 502.3C339.95 502.275 339.978 502.255 340.01 502.242C340.042 502.229 340.077 502.223 340.111 502.225L398.585 505.496C398.618 505.498 398.651 505.507 398.681 505.523C398.71 505.538 398.736 505.56 398.757 505.587C398.777 505.614 398.792 505.645 398.799 505.677C398.807 505.71 398.807 505.744 398.8 505.777L386.549 562.051C386.536 562.111 386.5 562.164 386.449 562.198C386.397 562.232 386.334 562.244 386.274 562.232ZM323.746 520.495C332.442 523.805 338.578 530.126 345.069 536.815C354.463 546.496 365.108 557.465 386.141 561.728L398.285 505.947L340.195 502.698L323.746 520.495Z" fill="#00257D"/>
<path d="M366.198 418.24C354.166 411.907 347.24 397.808 350.137 383.307C353.635 365.791 370.135 354.321 386.994 357.688C403.411 360.967 414.111 377.111 411.424 394.133C411.352 394.588 411.271 395.043 411.18 395.499C419.032 413.646 404.393 422.518 397.316 416.443C393.984 418.705 390.236 420.284 386.289 421.086C382.342 421.889 378.276 421.899 374.325 421.118" fill="#FFD6B5"/>
<path d="M373.127 389.625L368.933 389.392L368.907 389.858L373.101 390.092L373.127 389.625Z" fill="#00257D"/>
<path d="M366.578 385.519L366.116 385.591L366.529 388.261L366.991 388.19L366.578 385.519Z" fill="#00257D"/>
<path d="M359.769 400.362L361.311 404.475L364.944 404.247L359.769 400.362Z" fill="#CC1D37"/>
<path d="M361.265 404.704C361.226 404.696 361.189 404.678 361.159 404.652C361.129 404.627 361.105 404.594 361.091 404.556L359.549 400.444C359.53 400.393 359.529 400.338 359.546 400.287C359.563 400.236 359.597 400.193 359.642 400.164C359.688 400.135 359.741 400.123 359.795 400.129C359.848 400.136 359.898 400.16 359.935 400.199C361.438 401.729 363.163 403.024 365.053 404.04C365.098 404.063 365.134 404.101 365.156 404.147C365.177 404.194 365.183 404.246 365.172 404.296C365.162 404.345 365.135 404.39 365.096 404.424C365.057 404.457 365.009 404.477 364.958 404.48L361.325 404.707C361.305 404.709 361.284 404.707 361.265 404.704ZM360.354 401.257L361.469 404.23L364.133 404.063C362.778 403.265 361.511 402.324 360.355 401.258L360.354 401.257Z" fill="#00257D"/>
<path d="M362.51 392.674L365.138 391.748L366.129 393.58L369.062 394.092L369.349 397.424C366.959 396.006 364.673 394.419 362.51 392.674Z" fill="#CC1D37"/>
<path d="M369.301 397.652C369.275 397.646 369.251 397.637 369.228 397.624C366.828 396.2 364.533 394.606 362.361 392.854C362.329 392.828 362.304 392.793 362.29 392.755C362.275 392.716 362.271 392.674 362.278 392.633C362.286 392.592 362.303 392.554 362.33 392.522C362.357 392.491 362.392 392.467 362.431 392.453L365.059 391.526C365.112 391.508 365.169 391.509 365.221 391.529C365.272 391.548 365.315 391.586 365.342 391.635L366.279 393.368L369.101 393.86C369.15 393.871 369.195 393.898 369.229 393.935C369.264 393.973 369.286 394.02 369.293 394.07L369.581 397.403C369.584 397.439 369.578 397.475 369.565 397.509C369.551 397.543 369.53 397.573 369.503 397.597C369.476 397.621 369.444 397.639 369.409 397.648C369.374 397.658 369.337 397.659 369.302 397.652L369.301 397.652ZM362.981 392.752C364.921 394.291 366.957 395.705 369.075 396.987L368.843 394.288L366.088 393.807C366.053 393.801 366.019 393.787 365.99 393.767C365.962 393.746 365.938 393.719 365.921 393.688L365.025 392.031L362.981 392.752Z" fill="#00257D"/>
<path d="M359.889 390.506C364.477 394.472 369.546 397.846 374.975 400.548L367.249 405.166C364.048 403.997 361.211 402.004 359.026 399.389L359.889 390.506Z" fill="#CC1D37"/>
<path d="M359.574 393.743L372.159 402.231L374.973 400.548C369.545 397.843 364.477 394.469 359.887 390.506L359.574 393.743Z" fill="white"/>
<path d="M359.195 398.543C361.831 398.5 368.157 400.615 370.889 402.989L367.248 405.164C364.047 403.996 361.21 402.004 359.025 399.388L359.195 398.543Z" fill="#FF6E85"/>
<path d="M367.203 405.394C367.19 405.392 367.178 405.388 367.166 405.384C363.929 404.197 361.06 402.181 358.846 399.538C358.826 399.514 358.812 399.487 358.802 399.457C358.793 399.428 358.79 399.397 358.793 399.366L359.657 390.481C359.662 390.438 359.678 390.397 359.704 390.362C359.73 390.328 359.765 390.302 359.805 390.286C359.845 390.27 359.889 390.266 359.931 390.273C359.974 390.281 360.013 390.3 360.046 390.329C364.179 394.027 368.676 397.02 375.083 400.34C375.12 400.359 375.152 400.388 375.174 400.423C375.196 400.458 375.209 400.499 375.21 400.541C375.212 400.582 375.202 400.624 375.182 400.66C375.162 400.697 375.133 400.727 375.097 400.749L367.37 405.366C367.32 405.396 367.26 405.406 367.203 405.394ZM359.267 399.313C361.396 401.829 364.137 403.755 367.225 404.907L374.496 400.563C368.422 397.395 364.066 394.5 360.076 390.986L359.267 399.313Z" fill="#00257D"/>
<path d="M359.704 393.55L359.443 393.938L372.028 402.426L372.289 402.038L359.704 393.55Z" fill="#00257D"/>
<path d="M370.749 403.178C367.371 400.679 363.371 399.156 359.186 398.777L359.2 398.309C363.48 398.693 367.572 400.247 371.028 402.801L370.749 403.178Z" fill="#00257D"/>
<path d="M364.162 417.185L363.696 417.162L362.987 431.297L363.454 431.32L364.162 417.185Z" fill="#00257D"/>
<path d="M380.627 421.709L380.161 421.679L379.427 433.181L379.893 433.211L380.627 421.709Z" fill="#00257D"/>
<path d="M365.66 381.65C365.66 381.65 365.983 373.06 358.521 369.861C356.087 378.915 365.66 381.65 365.66 381.65Z" fill="white"/>
<path d="M365.614 381.878L365.595 381.875C365.497 381.846 355.828 378.97 358.294 369.8C358.303 369.767 358.318 369.737 358.339 369.712C358.361 369.686 358.387 369.665 358.417 369.65C358.447 369.636 358.48 369.628 358.513 369.627C358.547 369.626 358.58 369.632 358.611 369.645C366.134 372.869 365.896 381.571 365.893 381.658C365.891 381.692 365.883 381.725 365.868 381.755C365.852 381.785 365.831 381.811 365.804 381.832C365.778 381.853 365.747 381.868 365.714 381.876C365.681 381.884 365.647 381.885 365.614 381.878ZM358.677 370.185C356.773 377.92 363.835 380.788 365.425 381.329C365.388 379.793 364.87 373.011 358.677 370.185Z" fill="#00257D"/>
<path d="M360.076 372.768C359.649 372.967 359.284 373.276 359.018 373.665C358.751 374.053 358.594 374.506 358.563 374.976C358.531 375.445 358.626 375.915 358.838 376.335C359.05 376.756 359.37 377.112 359.766 377.366C360.163 377.62 360.62 377.763 361.09 377.78C361.561 377.797 362.027 377.687 362.441 377.462C362.854 377.238 363.2 376.906 363.442 376.502C363.683 376.098 363.812 375.636 363.814 375.165C363.816 374.789 362.328 372.755 361.967 372.642C361.343 372.446 360.669 372.491 360.076 372.768Z" fill="#00257D"/>
<path d="M381.4 392.12C381.4 392.12 389.61 388.282 399.786 397.692C392.976 401.138 383.754 395.468 381.4 392.12Z" fill="white"/>
<path d="M392.265 398.709C387.293 397.716 382.707 394.386 381.208 392.253C381.188 392.225 381.175 392.193 381.169 392.159C381.163 392.126 381.164 392.091 381.173 392.058C381.182 392.025 381.198 391.994 381.22 391.968C381.242 391.942 381.269 391.921 381.3 391.906C381.384 391.867 389.77 388.111 399.943 397.518C399.971 397.544 399.992 397.576 400.005 397.612C400.017 397.648 400.021 397.686 400.016 397.723C400.01 397.761 399.996 397.796 399.974 397.827C399.952 397.857 399.923 397.882 399.89 397.899C397.492 399.112 394.827 399.221 392.265 398.709ZM381.768 392.224C384.208 395.357 392.766 400.679 399.372 397.63C390.57 389.658 383.245 391.692 381.768 392.224Z" fill="#00257D"/>
<path d="M385.198 392.906C385.014 393.392 384.963 393.919 385.052 394.432C385.14 394.944 385.365 395.423 385.702 395.819C386.039 396.215 386.476 396.513 386.967 396.683C387.459 396.852 387.987 396.886 388.496 396.782C389.005 396.677 389.477 396.438 389.863 396.089C390.248 395.74 390.533 395.294 390.687 394.797C390.841 394.301 390.859 393.772 390.739 393.266C390.619 392.76 390.366 392.295 390.005 391.921C389.717 391.622 386.972 391.159 386.599 391.349C385.954 391.675 385.454 392.23 385.198 392.906Z" fill="#00257D"/>
<path d="M374.278 421.346L374.37 420.888C378.29 421.667 382.327 421.657 386.244 420.861C390.161 420.064 393.88 418.496 397.186 416.248C397.228 416.219 397.279 416.206 397.33 416.209C397.381 416.212 397.429 416.232 397.468 416.265C400.404 418.785 404.734 418.741 408.244 416.154C412.502 413.015 415.454 405.965 410.965 395.591C410.946 395.548 410.941 395.499 410.95 395.452C411.04 395 411.121 394.547 411.193 394.096C413.88 377.061 403.233 361.17 386.947 357.917C370.245 354.581 353.835 365.991 350.368 383.352C347.57 397.359 354.125 411.62 366.308 418.033L366.09 418.447C353.725 411.939 347.07 397.47 349.908 383.261C353.426 365.647 370.083 354.072 387.038 357.458C403.569 360.76 414.381 376.887 411.654 394.169C411.585 394.603 411.508 395.037 411.422 395.472C415.979 406.06 412.914 413.292 408.52 416.53C404.943 419.168 400.355 419.242 397.299 416.733C393.954 418.981 390.199 420.545 386.248 421.337C382.298 422.128 378.23 422.132 374.278 421.346Z" fill="#00257D"/>
<path d="M346.544 434.041L333.344 441.281L335.657 464.995L323.798 511.43L411.271 510.747L407.723 468.799L412.838 448.288L397.804 435.873L372.372 457.722L346.544 434.041Z" fill="#CC1D37"/>
<path d="M403.807 456.842C403.248 456.005 403.033 454.985 403.204 453.994C403.375 453.002 403.921 452.114 404.728 451.513C403.903 451.538 403.1 451.783 402.402 452.223C401.703 452.663 401.135 453.282 400.757 454.015C400.378 454.749 400.203 455.571 400.249 456.395C400.295 457.219 400.561 458.016 401.019 458.703C401.477 459.389 402.11 459.941 402.853 460.3C403.596 460.66 404.422 460.813 405.245 460.746C406.067 460.678 406.857 460.391 407.531 459.916C408.205 459.44 408.74 458.792 409.08 458.04C408.215 458.554 407.186 458.717 406.204 458.494C405.223 458.271 404.365 457.68 403.807 456.842Z" fill="white"/>
<path d="M410.424 509.446C410.67 509.813 410.967 510.143 411.306 510.427L410.755 503.881C410.102 504.646 409.716 505.604 409.657 506.608C409.597 507.612 409.866 508.608 410.424 509.446Z" fill="white"/>
<path d="M399.923 497.574C400.644 497.095 401.216 496.421 401.571 495.631C400.706 496.153 399.672 496.322 398.686 496.102C397.699 495.882 396.836 495.29 396.275 494.449C395.714 493.608 395.499 492.582 395.675 491.587C395.851 490.591 396.404 489.702 397.219 489.104C396.503 489.125 395.802 489.313 395.171 489.651C394.54 489.99 393.997 490.471 393.583 491.055C393.169 491.64 392.897 492.313 392.788 493.02C392.678 493.728 392.735 494.452 392.952 495.134C393.17 495.816 393.543 496.439 394.043 496.952C394.542 497.465 395.154 497.856 395.829 498.092C396.505 498.329 397.227 498.405 397.937 498.315C398.648 498.226 399.327 497.972 399.923 497.574Z" fill="white"/>
<path d="M398.546 471.084C397.95 471.482 397.454 472.012 397.098 472.633C396.743 473.255 396.536 473.951 396.494 474.666C396.453 475.381 396.578 476.096 396.86 476.754C397.142 477.412 397.573 477.996 398.119 478.46C398.665 478.923 399.312 479.253 400.007 479.424C400.702 479.595 401.428 479.602 402.127 479.444C402.825 479.287 403.478 478.969 404.033 478.517C404.588 478.064 405.03 477.489 405.325 476.836C404.46 477.359 403.426 477.528 402.44 477.308C401.453 477.087 400.59 476.495 400.029 475.654C399.468 474.813 399.253 473.788 399.429 472.792C399.605 471.797 400.158 470.907 400.973 470.309C400.107 470.334 399.266 470.603 398.546 471.084Z" fill="white"/>
<path d="M393.467 507.9C392.513 507.928 391.591 508.251 390.828 508.825C390.066 509.399 389.5 510.195 389.208 511.104L391.887 511.083C391.882 510.465 392.022 509.855 392.296 509.302C392.571 508.749 392.972 508.269 393.467 507.9Z" fill="white"/>
<path d="M383.14 462.49C382.581 461.653 382.366 460.634 382.537 459.642C382.709 458.65 383.254 457.762 384.061 457.161C383.236 457.186 382.433 457.431 381.735 457.871C381.036 458.311 380.468 458.93 380.09 459.664C379.711 460.398 379.536 461.219 379.582 462.043C379.628 462.868 379.894 463.664 380.352 464.351C380.81 465.038 381.443 465.589 382.186 465.949C382.929 466.308 383.755 466.462 384.577 466.394C385.4 466.327 386.19 466.04 386.864 465.564C387.538 465.088 388.073 464.441 388.413 463.688C387.548 464.203 386.519 464.365 385.537 464.142C384.556 463.92 383.698 463.328 383.14 462.49Z" fill="white"/>
<path d="M379.257 503.222C379.978 502.742 380.549 502.069 380.905 501.278C380.04 501.8 379.007 501.968 378.021 501.748C377.035 501.527 376.172 500.935 375.612 500.095C375.051 499.254 374.836 498.23 375.011 497.235C375.187 496.24 375.739 495.35 376.553 494.752C375.837 494.773 375.136 494.961 374.505 495.299C373.874 495.638 373.33 496.119 372.916 496.703C372.502 497.288 372.23 497.961 372.121 498.669C372.011 499.377 372.068 500.1 372.285 500.783C372.503 501.465 372.877 502.087 373.376 502.601C373.875 503.114 374.487 503.504 375.163 503.741C375.839 503.977 376.56 504.054 377.271 503.964C377.981 503.874 378.661 503.62 379.257 503.222Z" fill="white"/>
<path d="M377.879 476.727C377.283 477.124 376.788 477.655 376.432 478.276C376.076 478.898 375.869 479.594 375.828 480.309C375.787 481.024 375.912 481.739 376.194 482.397C376.476 483.055 376.907 483.639 377.453 484.102C377.999 484.566 378.645 484.896 379.34 485.067C380.036 485.238 380.761 485.245 381.46 485.087C382.159 484.93 382.811 484.612 383.366 484.16C383.921 483.707 384.363 483.132 384.658 482.479C383.793 483.002 382.76 483.171 381.773 482.95C380.787 482.73 379.923 482.138 379.362 481.297C378.801 480.456 378.587 479.431 378.762 478.435C378.938 477.439 379.491 476.55 380.306 475.952C379.44 475.977 378.599 476.245 377.879 476.727Z" fill="white"/>
<path d="M358.72 486.929C358.161 486.092 357.946 485.073 358.117 484.081C358.289 483.089 358.834 482.201 359.641 481.6C358.816 481.625 358.013 481.87 357.315 482.31C356.616 482.75 356.048 483.369 355.67 484.103C355.292 484.836 355.116 485.658 355.162 486.482C355.208 487.307 355.474 488.103 355.932 488.79C356.39 489.477 357.023 490.028 357.766 490.388C358.509 490.747 359.335 490.901 360.158 490.833C360.98 490.765 361.77 490.479 362.444 490.003C363.119 489.527 363.653 488.88 363.993 488.127C363.128 488.642 362.099 488.804 361.117 488.581C360.136 488.359 359.278 487.767 358.72 486.929Z" fill="white"/>
<path d="M362.474 468.131C361.915 467.294 361.7 466.274 361.871 465.283C362.042 464.291 362.588 463.403 363.395 462.802C362.57 462.827 361.767 463.072 361.069 463.512C360.37 463.952 359.802 464.571 359.424 465.305C359.045 466.038 358.87 466.86 358.916 467.684C358.962 468.508 359.228 469.305 359.686 469.992C360.144 470.678 360.777 471.23 361.52 471.589C362.263 471.949 363.089 472.102 363.911 472.035C364.734 471.967 365.524 471.681 366.198 471.205C366.872 470.729 367.407 470.081 367.747 469.329C366.882 469.843 365.853 470.006 364.871 469.783C363.89 469.56 363.032 468.969 362.474 468.131Z" fill="white"/>
<path d="M353.459 501.167C352.863 501.565 352.368 502.095 352.012 502.717C351.656 503.338 351.449 504.034 351.408 504.749C351.366 505.464 351.492 506.179 351.774 506.837C352.056 507.496 352.487 508.08 353.033 508.543C353.579 509.006 354.225 509.336 354.92 509.507C355.616 509.678 356.341 509.685 357.04 509.528C357.738 509.37 358.391 509.053 358.946 508.6C359.501 508.147 359.943 507.572 360.238 506.919C359.373 507.441 358.34 507.609 357.354 507.389C356.368 507.168 355.505 506.576 354.945 505.736C354.384 504.895 354.169 503.871 354.345 502.876C354.52 501.881 355.072 500.991 355.886 500.393C355.02 500.417 354.179 500.686 353.459 501.167Z" fill="white"/>
<path d="M345.56 454.983C345.002 454.146 344.786 453.126 344.957 452.134C345.129 451.143 345.674 450.255 346.482 449.654C345.657 449.678 344.853 449.924 344.155 450.364C343.457 450.804 342.889 451.423 342.51 452.156C342.132 452.89 341.957 453.712 342.003 454.536C342.049 455.36 342.315 456.157 342.773 456.844C343.23 457.53 343.864 458.082 344.607 458.441C345.35 458.8 346.175 458.954 346.998 458.887C347.82 458.819 348.61 458.532 349.284 458.057C349.959 457.581 350.494 456.933 350.834 456.181C349.968 456.695 348.939 456.858 347.958 456.635C346.976 456.412 346.118 455.821 345.56 454.983Z" fill="white"/>
<path d="M333.592 443.201L333.628 443.57C333.737 443.396 333.834 443.215 333.919 443.027C333.812 443.091 333.703 443.148 333.592 443.201Z" fill="white"/>
<path d="M336.546 488.019C335.95 488.417 335.454 488.947 335.099 489.569C334.743 490.19 334.536 490.886 334.494 491.601C334.453 492.316 334.578 493.031 334.86 493.689C335.142 494.348 335.573 494.931 336.119 495.395C336.666 495.858 337.312 496.188 338.007 496.359C338.702 496.53 339.428 496.537 340.127 496.379C340.825 496.222 341.478 495.904 342.033 495.452C342.588 494.999 343.03 494.424 343.325 493.771C342.46 494.293 341.427 494.461 340.441 494.241C339.455 494.02 338.592 493.428 338.032 492.587C337.471 491.747 337.256 490.723 337.432 489.727C337.607 488.732 338.159 487.843 338.973 487.245C338.107 487.269 337.266 487.538 336.546 488.019Z" fill="white"/>
<path d="M341.807 473.778C341.248 472.94 341.033 471.921 341.204 470.929C341.376 469.937 341.921 469.049 342.728 468.448C341.903 468.473 341.1 468.718 340.402 469.158C339.703 469.598 339.135 470.217 338.757 470.951C338.378 471.685 338.203 472.506 338.249 473.33C338.295 474.155 338.561 474.951 339.019 475.638C339.477 476.325 340.11 476.877 340.853 477.236C341.596 477.595 342.422 477.749 343.245 477.681C344.067 477.614 344.857 477.327 345.531 476.851C346.205 476.375 346.74 475.728 347.08 474.975C346.215 475.49 345.186 475.652 344.204 475.43C343.223 475.207 342.365 474.615 341.807 473.778Z" fill="white"/>
<path d="M335.217 506.041C334.545 506.061 333.886 506.227 333.286 506.527C332.685 506.828 332.157 507.256 331.738 507.782C331.32 508.307 331.021 508.917 330.862 509.57C330.703 510.223 330.689 510.903 330.819 511.562L334.418 511.534C334.378 511.478 334.334 511.427 334.297 511.37C333.738 510.533 333.522 509.513 333.693 508.522C333.865 507.53 334.41 506.642 335.217 506.041Z" fill="white"/>
<path d="M407.266 409.241L401.411 411.286L401.565 411.728L407.42 409.683L407.266 409.241Z" fill="#00257D"/>
<path d="M407.387 408.068L406.934 408.185L408.079 412.634L408.532 412.518L407.387 408.068Z" fill="#00257D"/>
<path d="M403.372 410.888L402.919 411.004L403.74 414.189L404.192 414.073L403.372 410.888Z" fill="#00257D"/>
<path d="M378.448 451.289L361.304 428.358L350.475 435.641L362.526 457.858L378.448 451.289Z" fill="#0084CC"/>
<path d="M362.481 458.087C362.447 458.08 362.415 458.066 362.388 458.045C362.36 458.025 362.337 457.999 362.321 457.969L350.269 435.752C350.241 435.7 350.233 435.641 350.247 435.584C350.261 435.528 350.295 435.479 350.344 435.446L361.173 428.163C361.223 428.13 361.283 428.117 361.342 428.127C361.401 428.137 361.454 428.169 361.49 428.217L378.634 451.148C378.655 451.177 378.67 451.21 378.676 451.245C378.683 451.28 378.681 451.316 378.672 451.35C378.663 451.385 378.645 451.416 378.622 451.443C378.598 451.47 378.569 451.491 378.536 451.504L362.613 458.073C362.571 458.09 362.525 458.095 362.481 458.087ZM350.782 435.716L362.632 457.561L378.081 451.187L361.251 428.675L350.782 435.716Z" fill="#00257D"/>
<path d="M360.524 446.857L383.565 429.363L393.905 436.841L371.181 460.044L360.524 446.857Z" fill="#0084CC"/>
<path d="M370.525 459.694C370.471 459.683 370.423 459.654 370.388 459.611L360.34 447.001C360.32 446.977 360.306 446.949 360.297 446.919C360.289 446.889 360.287 446.857 360.291 446.826C360.295 446.795 360.305 446.765 360.32 446.738C360.336 446.711 360.357 446.688 360.382 446.669L383.423 429.176C383.463 429.145 383.512 429.129 383.562 429.128C383.612 429.128 383.661 429.143 383.701 429.173L394.041 436.651C394.068 436.672 394.091 436.697 394.108 436.727C394.124 436.757 394.134 436.79 394.136 436.824C394.138 436.858 394.133 436.892 394.121 436.924C394.109 436.956 394.09 436.984 394.065 437.008L370.733 459.632C370.709 459.655 370.681 459.673 370.651 459.684C370.62 459.695 370.588 459.7 370.555 459.698C370.545 459.697 370.535 459.696 370.525 459.694ZM360.854 446.897L370.593 459.118L393.541 436.867L383.566 429.652L360.854 446.897Z" fill="#00257D"/>
<path d="M372.011 459.1L351.319 431.423L340.579 437.314L362.303 467.428L372.011 459.1Z" fill="#FF6E85"/>
<path d="M323.752 511.66C323.721 511.654 323.691 511.642 323.665 511.624C323.639 511.606 323.616 511.583 323.599 511.556C323.583 511.529 323.571 511.499 323.566 511.468C323.561 511.436 323.563 511.404 323.571 511.373L335.43 464.938L335.883 465.054L324.101 511.195L411.016 510.517L408.002 474.479L408.468 474.44L411.504 510.729C411.507 510.762 411.503 510.794 411.492 510.825C411.482 510.856 411.465 510.884 411.443 510.908C411.422 510.932 411.395 510.951 411.366 510.964C411.337 510.977 411.305 510.984 411.273 510.984L323.799 511.665C323.783 511.665 323.767 511.664 323.752 511.66Z" fill="#00257D"/>
<path d="M362.256 467.656C362.198 467.645 362.147 467.612 362.113 467.564L340.39 437.45C340.371 437.423 340.357 437.393 340.351 437.36C340.344 437.328 340.345 437.294 340.352 437.262C340.359 437.23 340.373 437.199 340.393 437.173C340.413 437.146 340.438 437.125 340.467 437.109L351.208 431.217C351.257 431.19 351.315 431.182 351.369 431.194C351.424 431.206 351.473 431.237 351.507 431.282L372.199 458.96C372.235 459.007 372.251 459.066 372.244 459.125C372.238 459.184 372.209 459.238 372.164 459.277L362.456 467.605C362.432 467.626 362.403 467.642 362.372 467.651C362.341 467.66 362.308 467.663 362.276 467.659L362.256 467.656ZM340.922 437.391L362.343 467.084L371.692 459.064L351.253 431.724L340.922 437.391Z" fill="#00257D"/>
<path d="M332.384 477.819L393.115 431.999L402.617 439.846L327.244 497.942L332.384 477.819Z" fill="#FF6E85"/>
<path d="M327.198 498.17C327.168 498.164 327.14 498.152 327.115 498.136C327.074 498.109 327.043 498.071 327.026 498.025C327.008 497.98 327.005 497.93 327.017 497.883L332.156 477.76C332.169 477.708 332.199 477.663 332.242 477.631L392.973 431.811C393.015 431.779 393.066 431.763 393.119 431.764C393.171 431.765 393.222 431.784 393.262 431.817L402.765 439.665C402.792 439.687 402.814 439.715 402.828 439.747C402.843 439.779 402.85 439.814 402.85 439.849C402.849 439.884 402.841 439.918 402.825 439.95C402.809 439.981 402.786 440.009 402.759 440.03L327.386 498.126C327.36 498.146 327.329 498.161 327.297 498.168C327.264 498.176 327.231 498.176 327.198 498.17ZM332.589 477.955L327.638 497.342L402.241 439.838L393.108 432.294L332.589 477.955Z" fill="#00257D"/>
<path d="M332.353 442.574L332.027 442.239L333.182 441.112C333.197 441.097 333.214 441.084 333.233 441.074L340.466 437.107L340.69 437.517L333.485 441.468L332.353 442.574Z" fill="#00257D"/>
<path d="M413.699 449.816L412.669 448.449L402.468 440.023L402.765 439.663L412.988 448.105C413.002 448.117 413.016 448.13 413.028 448.145L414.074 449.534L413.699 449.816Z" fill="#00257D"/>
<path d="M388.857 355.636C383.225 354.523 377.405 354.807 371.908 356.466C366.41 358.124 361.403 361.105 357.325 365.148L367.441 370.883C370.284 368.983 374.085 367.321 378.012 365.691C375.246 367.788 372.681 370.14 370.352 372.714C370.947 373.095 371.537 373.485 372.127 373.873C373.43 372.661 374.976 371.741 376.662 371.173C375 373.076 374.39 373.738 373.659 374.893C377.43 377.43 381.109 380.107 384.697 382.923C386.923 380.971 389.428 379.365 392.13 378.156L388.619 386.071C391.384 388.347 394.099 390.699 396.763 393.128C398.433 391.171 399.878 389.034 401.073 386.756C400.629 389.639 399.964 392.485 399.085 395.267C401.692 397.7 404.636 400.038 407.158 402.6L405.735 404.91C410.06 404.321 412.201 407.713 410.564 411.955C409 416.007 402.947 418.748 398.389 415.695C393.382 419.277 387.718 421.877 380.404 421.708L380.247 424.188L397.13 424.366L398.763 418.946L399.89 424.395L411.128 424.513L416.461 397.814C420.348 378.341 407.99 359.458 388.857 355.636Z" fill="#00257D"/>
<path d="M380.198 424.417C380.15 424.407 380.106 424.382 380.073 424.346C380.051 424.323 380.035 424.296 380.024 424.266C380.014 424.236 380.01 424.204 380.012 424.173L380.17 421.692C380.173 421.632 380.2 421.575 380.245 421.535C380.289 421.494 380.348 421.472 380.408 421.473C386.686 421.619 392.356 419.723 398.252 415.505C398.291 415.477 398.338 415.462 398.386 415.461C398.434 415.461 398.482 415.476 398.521 415.503C399.382 416.141 400.374 416.578 401.425 416.783C402.477 416.987 403.56 416.953 404.597 416.683C405.839 416.322 406.992 415.706 407.983 414.875C408.974 414.043 409.781 413.014 410.352 411.853C411.198 410.082 411.101 407.977 410.111 406.617C409.487 405.76 408.225 404.81 405.767 405.142C405.724 405.148 405.679 405.142 405.639 405.123C405.598 405.105 405.564 405.075 405.54 405.038C405.516 405.001 405.503 404.958 405.502 404.914C405.502 404.869 405.514 404.826 405.537 404.788L406.864 402.633C405.382 401.14 403.738 399.704 402.146 398.313C401.073 397.375 399.963 396.404 398.926 395.437C398.894 395.406 398.871 395.367 398.86 395.324C398.849 395.281 398.85 395.236 398.864 395.193C399.602 392.873 400.183 390.506 400.604 388.108C399.537 389.936 398.312 391.666 396.942 393.279C396.922 393.303 396.897 393.322 396.869 393.336C396.841 393.35 396.81 393.359 396.779 393.361C396.748 393.363 396.716 393.358 396.687 393.348C396.657 393.338 396.63 393.322 396.607 393.3C393.867 390.811 391.13 388.44 388.471 386.25C388.432 386.218 388.404 386.173 388.392 386.124C388.381 386.074 388.385 386.022 388.406 385.975L391.674 378.611C389.208 379.796 386.913 381.306 384.85 383.101C384.809 383.136 384.757 383.155 384.704 383.156C384.65 383.157 384.598 383.139 384.556 383.106C380.92 380.261 377.211 377.562 373.53 375.088C373.48 375.054 373.444 375.002 373.432 374.942C373.419 374.882 373.431 374.82 373.463 374.769C374.179 373.686 374.986 372.666 375.875 371.72C374.554 372.289 373.338 373.078 372.28 374.053C372.241 374.085 372.193 374.104 372.143 374.107C372.093 374.11 372.044 374.096 372.002 374.069L371.885 373.993C371.334 373.63 370.783 373.268 370.228 372.912C370.2 372.894 370.176 372.869 370.158 372.841C370.14 372.813 370.128 372.781 370.123 372.747C370.119 372.714 370.121 372.68 370.131 372.648C370.14 372.616 370.157 372.586 370.179 372.561C372.133 370.386 374.264 368.377 376.55 366.555C373.312 367.925 370.075 369.402 367.569 371.076C367.533 371.1 367.491 371.114 367.448 371.116C367.405 371.117 367.362 371.107 367.324 371.086L357.208 365.35C357.177 365.332 357.15 365.307 357.13 365.277C357.109 365.247 357.097 365.213 357.092 365.177C357.087 365.141 357.091 365.105 357.103 365.07C357.115 365.036 357.134 365.005 357.16 364.98C361.269 360.916 366.31 357.919 371.843 356.25C377.375 354.581 383.232 354.291 388.902 355.406C408.131 359.247 420.595 378.291 416.687 397.859L411.355 424.556C411.344 424.61 411.315 424.658 411.273 424.692C411.231 424.727 411.178 424.745 411.123 424.745L399.886 424.626C399.832 424.626 399.78 424.608 399.739 424.574C399.698 424.54 399.67 424.493 399.659 424.441L398.719 419.894L397.351 424.432C397.336 424.48 397.306 424.523 397.265 424.553C397.224 424.583 397.175 424.599 397.124 424.598L380.241 424.42C380.227 424.42 380.212 424.419 380.198 424.417ZM380.621 421.945L380.492 423.956L396.954 424.129L398.538 418.877C398.553 418.827 398.584 418.784 398.626 418.754C398.668 418.723 398.72 418.708 398.772 418.711C398.824 418.713 398.873 418.732 398.913 418.766C398.952 418.8 398.98 418.846 398.99 418.897L400.079 424.161L410.934 424.275L416.229 397.767C420.087 378.452 407.787 359.655 388.81 355.864C383.267 354.775 377.541 355.045 372.125 356.654C366.708 358.262 361.762 361.16 357.71 365.098L367.43 370.609C370.357 368.677 374.216 367.014 377.921 365.476C377.974 365.454 378.032 365.452 378.086 365.47C378.139 365.488 378.185 365.525 378.213 365.574C378.242 365.623 378.251 365.68 378.241 365.736C378.23 365.791 378.199 365.841 378.155 365.876C375.475 367.913 372.983 370.185 370.707 372.664C371.176 372.967 371.643 373.274 372.11 373.582C373.402 372.403 374.926 371.506 376.584 370.95C376.633 370.933 376.686 370.933 376.735 370.949C376.783 370.965 376.826 370.997 376.854 371.04C376.883 371.083 376.897 371.134 376.894 371.185C376.891 371.237 376.871 371.286 376.837 371.325L376.367 371.862C375.498 372.789 374.7 373.78 373.978 374.826C377.555 377.239 381.156 379.86 384.691 382.621C386.897 380.708 389.372 379.13 392.037 377.938C392.081 377.92 392.128 377.916 392.174 377.925C392.22 377.934 392.262 377.957 392.295 377.99C392.328 378.024 392.35 378.066 392.358 378.113C392.366 378.159 392.36 378.206 392.341 378.249L388.903 386.002C391.466 388.116 394.101 390.398 396.739 392.791C398.331 390.899 399.714 388.839 400.863 386.648C400.888 386.598 400.93 386.558 400.981 386.537C401.033 386.516 401.091 386.514 401.144 386.532C401.197 386.549 401.242 386.585 401.271 386.632C401.299 386.68 401.31 386.736 401.302 386.791C400.861 389.637 400.209 392.446 399.35 395.195C400.351 396.125 401.418 397.057 402.451 397.96C404.095 399.396 405.795 400.882 407.324 402.435C407.36 402.472 407.383 402.521 407.389 402.573C407.395 402.625 407.383 402.677 407.356 402.722L406.181 404.627C408.557 404.445 409.831 405.44 410.485 406.341C411.575 407.836 411.691 410.133 410.774 412.055C410.172 413.276 409.323 414.359 408.28 415.233C407.238 416.108 406.024 416.756 404.717 417.135C403.642 417.417 402.519 417.459 401.426 417.26C400.333 417.06 399.297 416.623 398.391 415.98C392.524 420.143 386.868 422.043 380.621 421.945Z" fill="#00257D"/>
</g>
<rect width="426" height="656" rx="30" transform="matrix(-0.990268 -0.139173 -0.139173 0.990268 520.96 59.2878)" fill="url(#paint0_linear_1384_3227)"/>
<g clip-path="url(#clip4_1384_3227)">
<path d="M111.662 144.97C37.7358 177.424 2.50041 126.474 8.02752 86.342C2.25385 95.8203 1.13895 106.242 3.46426 116.312C0.135801 114.566 -1.36993 122.599 3.27054 125.717C-2.08046 127.507 5.39943 135.009 7.63873 136.417C19.205 143.689 17.6112 161.747 31.2455 167.153C39.0458 170.243 58.4882 178.493 59.5293 169.805C65.5448 171.008 82.6578 171.842 75.3114 163.51C89.3615 162.272 103.007 153.886 111.662 144.97Z" fill="white"/>
<path d="M53.6976 174C47.4742 174 38.0124 170.22 32.3789 167.969L31.1218 167.468C23.6656 164.513 20.6541 157.772 17.7429 151.251C15.2747 145.726 12.7231 140.013 7.4595 136.704C5.84065 135.689 0.677266 130.876 1.06132 127.649C1.11469 127.206 1.28359 126.786 1.55069 126.431C1.81778 126.077 2.17347 125.8 2.58128 125.63C-0.306236 123.269 -0.510794 119.023 0.694199 116.958C0.890974 116.528 1.22507 116.178 1.64276 115.963C2.06046 115.748 2.53749 115.682 2.99717 115.774C0.713842 105.237 2.34827 95.0118 7.73856 86.163C7.77933 86.0961 7.84162 86.0454 7.91499 86.0195C7.98836 85.9935 8.06834 85.9938 8.14149 86.0204C8.21465 86.047 8.27654 86.0981 8.31676 86.1653C8.35699 86.2326 8.3731 86.3117 8.3624 86.3895C5.37938 108.05 14.2045 130.297 30.8468 143.067C50.6327 158.247 79.2856 158.812 111.526 144.658C111.599 144.626 111.679 144.621 111.755 144.643C111.83 144.665 111.896 144.712 111.941 144.778C111.985 144.843 112.006 144.922 111.999 145.002C111.992 145.081 111.958 145.155 111.903 145.212C104.106 153.245 90.6345 162.274 75.9917 163.79C77.4189 165.578 77.8022 167.084 77.1303 168.272C75.0935 171.871 64.0799 170.989 59.81 170.206C59.7162 170.803 59.4922 171.372 59.1543 171.871C58.8163 172.37 58.3728 172.787 57.8558 173.092C56.5733 173.76 55.1387 174.073 53.6976 174ZM2.55757 116.408C2.28479 116.43 2.02268 116.525 1.79792 116.682C1.57316 116.84 1.39379 117.055 1.27807 117.306C0.165872 119.21 0.467967 123.423 3.45776 125.432C3.51064 125.468 3.55258 125.518 3.5788 125.576C3.60503 125.634 3.61447 125.699 3.60607 125.763C3.59767 125.826 3.57175 125.886 3.53127 125.936C3.4908 125.985 3.4374 126.022 3.37715 126.042C2.3652 126.384 1.82739 126.932 1.73392 127.729C1.41015 130.477 6.17797 135.095 7.81714 136.127C13.2555 139.548 15.8504 145.355 18.36 150.975C21.3477 157.663 24.1695 163.979 31.369 166.833L32.6282 167.335C39.6577 170.14 52.7412 175.371 57.5097 172.504C57.9897 172.22 58.3937 171.822 58.6869 171.344C58.9801 170.866 59.1535 170.323 59.1922 169.763C59.1979 169.716 59.213 169.671 59.2367 169.63C59.2603 169.59 59.2921 169.554 59.3298 169.527C59.3676 169.499 59.4106 169.48 59.4562 169.47C59.5017 169.46 59.5488 169.459 59.5946 169.468C64.7783 170.504 74.8754 170.878 76.5424 167.932C77.1168 166.917 76.6182 165.507 75.0603 163.739C75.0187 163.692 74.9909 163.634 74.98 163.571C74.9692 163.509 74.9757 163.444 74.9989 163.386C75.0221 163.327 75.061 163.275 75.1113 163.238C75.1616 163.2 75.2214 163.177 75.2839 163.171C89.2263 161.939 102.178 153.718 110.155 145.996C78.3488 159.519 50.0887 158.691 30.437 143.613C14.0263 131.019 5.12944 109.321 7.48659 87.9468C2.7601 96.4795 1.48195 106.223 3.79304 116.233C3.80783 116.297 3.80422 116.364 3.78265 116.425C3.76107 116.487 3.72243 116.541 3.67132 116.581C3.6202 116.622 3.55874 116.646 3.49424 116.652C3.42974 116.658 3.36489 116.645 3.30739 116.615C3.07766 116.486 2.82041 116.415 2.55757 116.408Z" fill="#00257D"/>
<path d="M18.4955 118.58L58.4919 150.025L25.7871 171.839L4.86328 140.133L18.4955 118.58Z" fill="#FFAA00"/>
<path d="M25.7872 172.182C25.7314 172.182 25.6765 172.168 25.6274 172.141C25.5782 172.114 25.5363 172.076 25.5054 172.029L4.58163 140.323C4.54503 140.268 4.52516 140.203 4.52443 140.137C4.52371 140.07 4.54217 140.005 4.57756 139.949L18.2098 118.395C18.2352 118.355 18.2686 118.321 18.3079 118.294C18.3471 118.268 18.3915 118.25 18.4379 118.242C18.4844 118.234 18.5321 118.236 18.5778 118.247C18.6235 118.259 18.6664 118.28 18.7035 118.309L58.7 149.755C58.7425 149.788 58.7765 149.832 58.7992 149.881C58.8219 149.93 58.8327 149.984 58.8307 150.038C58.8286 150.093 58.8138 150.146 58.7874 150.193C58.761 150.24 58.7238 150.281 58.679 150.311L25.9735 172.125C25.9182 172.162 25.8535 172.181 25.7872 172.182ZM5.26778 140.13L25.882 171.367L57.9129 150.002L18.5809 119.081L5.26778 140.13Z" fill="#00257D"/>
<path d="M58.4644 150.366L20.3699 147.2C20.2891 147.193 20.2133 147.158 20.1563 147.099C20.0994 147.041 20.0651 146.964 20.0597 146.882L18.1577 118.604L18.8351 118.557L20.7174 146.543L58.5226 149.684L58.4644 150.366Z" fill="#00257D"/>
</g>
<defs>
<filter id="filter0_d_1384_3227" x="103.169" y="139.986" width="382.113" height="169.339" filterUnits="userSpaceOnUse" color-interpolation-filters="sRGB">
<feFlood flood-opacity="0" result="BackgroundImageFix"/>
<feColorMatrix in="SourceAlpha" type="matrix" values="0 0 0 0 0 0 0 0 0 0 0 0 0 0 0 0 0 0 127 0" result="hardAlpha"/>
<feOffset dx="10" dy="2"/>
<feGaussianBlur stdDeviation="10"/>
<feComposite in2="hardAlpha" operator="out"/>
<feColorMatrix type="matrix" values="0 0 0 0 0 0 0 0 0 0 0 0 0 0 0 0 0 0 0.06 0"/>
<feBlend mode="normal" in2="BackgroundImageFix" result="effect1_dropShadow_1384_3227"/>
<feBlend mode="normal" in="SourceGraphic" in2="effect1_dropShadow_1384_3227" result="shape"/>
</filter>
<filter id="filter1_d_1384_3227" x="118.896" y="28.0854" width="382.113" height="169.339" filterUnits="userSpaceOnUse" color-interpolation-filters="sRGB">
<feFlood flood-opacity="0" result="BackgroundImageFix"/>
<feColorMatrix in="SourceAlpha" type="matrix" values="0 0 0 0 0 0 0 0 0 0 0 0 0 0 0 0 0 0 127 0" result="hardAlpha"/>
<feOffset dx="10" dy="2"/>
<feGaussianBlur stdDeviation="10"/>
<feComposite in2="hardAlpha" operator="out"/>
<feColorMatrix type="matrix" values="0 0 0 0 0 0 0 0 0 0 0 0 0 0 0 0 0 0 0.06 0"/>
<feBlend mode="normal" in2="BackgroundImageFix" result="effect1_dropShadow_1384_3227"/>
<feBlend mode="normal" in="SourceGraphic" in2="effect1_dropShadow_1384_3227" result="shape"/>
</filter>
<filter id="filter2_d_1384_3227" x="126.495" y="174.875" width="382.113" height="169.339" filterUnits="userSpaceOnUse" color-interpolation-filters="sRGB">
<feFlood flood-opacity="0" result="BackgroundImageFix"/>
<feColorMatrix in="SourceAlpha" type="matrix" values="0 0 0 0 0 0 0 0 0 0 0 0 0 0 0 0 0 0 127 0" result="hardAlpha"/>
<feOffset dx="15" dy="2"/>
<feGaussianBlur stdDeviation="10"/>
<feComposite in2="hardAlpha" operator="out"/>
<feColorMatrix type="matrix" values="0 0 0 0 0 0 0 0 0 0 0 0 0 0 0 0 0 0 0.06 0"/>
<feBlend mode="normal" in2="BackgroundImageFix" result="effect1_dropShadow_1384_3227"/>
<feBlend mode="normal" in="SourceGraphic" in2="effect1_dropShadow_1384_3227" result="shape"/>
</filter>
<linearGradient id="paint0_linear_1384_3227" x1="224.614" y1="76.6698" x2="227.736" y2="711.611" gradientUnits="userSpaceOnUse">
<stop stop-color="#F1F3FA"/>
<stop offset="1" stop-color="#F1F3FA" stop-opacity="0"/>
</linearGradient>
<clipPath id="clip0_1384_3227">
<rect width="24" height="24" fill="white" transform="translate(253.514 350.788) rotate(8)"/>
</clipPath>
<clipPath id="clip1_1384_3227">
<rect width="30" height="30" fill="white" transform="translate(167.022 77.2097) rotate(8)"/>
</clipPath>
<clipPath id="clip2_1384_3227">
<rect width="30" height="30" fill="white" transform="translate(171.602 224.276) rotate(8)"/>
</clipPath>
<clipPath id="clip3_1384_3227">
<rect width="282" height="365" fill="white" transform="translate(198.406 320.944) rotate(8)"/>
</clipPath>
<clipPath id="clip4_1384_3227">
<rect width="112" height="88" fill="white" transform="translate(0 86.0002)"/>
</clipPath>
</defs>
</svg>
