<svg width="1170" height="400" viewBox="0 0 1170 400" fill="none" xmlns="http://www.w3.org/2000/svg">
<path d="M807.777 360.372C731.114 356.406 734.238 287.115 745.382 252.965C774.657 211.812 846.344 138.477 898.897 174.358C964.588 219.209 903.606 365.329 807.777 360.372Z" stroke="#D19965" stroke-width="2"/>
<path d="M783.579 -19.7451C721.25 -123.425 871.281 -118.738 877.624 -118.738C1011.66 -98.0569 970.29 -3.7518 954.294 15.2746C938.299 34.3011 845.908 83.9352 783.579 -19.7451Z" stroke="#D19965" stroke-width="2"/>
<path d="M258.057 463.048C160.637 300.855 395.134 308.188 405.049 308.188C614.544 340.541 549.886 488.067 524.884 517.832C499.883 547.596 355.477 625.241 258.057 463.048Z" stroke="#D19965" stroke-width="2"/>
<path d="M914.218 160.918C800.267 52.7431 1020.44 18.1821 1029.7 16.4822C1230.04 5.47107 1190.46 130.144 1171.3 157.347C1152.14 184.551 1028.17 269.093 914.218 160.918Z" stroke="#D19965" stroke-width="2"/>
<path d="M1180.91 282.966C1066.96 174.791 1287.13 140.23 1296.39 138.53C1496.73 127.519 1457.15 252.192 1437.99 279.395C1418.83 306.598 1294.86 391.141 1180.91 282.966Z" stroke="#D19965" stroke-width="2"/>
<path d="M827.523 63.6686C771.078 -18.7471 711.767 29.3287 689.167 63.6686C650.398 100.487 582.562 183.821 621.367 222.605C669.874 271.085 898.079 166.688 827.523 63.6686Z" stroke="#D19965" stroke-width="2"/>
<path d="M218.751 222.062C162.306 139.646 102.995 187.722 80.3954 222.062C41.6264 258.881 -26.2101 342.215 12.5956 380.999C61.1028 429.478 289.307 325.082 218.751 222.062Z" stroke="#D19965" stroke-width="2"/>
<path d="M612.373 -64.6406C750.27 -31.6402 664.837 77.1827 604.884 127.469C573.693 145.083 499.767 168.904 453.591 123.272C395.872 66.2326 440.003 -105.891 612.373 -64.6406Z" stroke="#D19965" stroke-width="2"/>
<path d="M1171.65 -67.7909C1090.72 70.3219 1001.23 -57.695 966.598 -138.967C957.815 -178.443 956.362 -266.117 1020.81 -301.009C1101.38 -344.624 1272.81 -240.432 1171.65 -67.7909Z" stroke="#D19965" stroke-width="2"/>
<path d="M895.845 542.482C740.65 509.058 874.011 347.218 960.092 270.477C1002.42 242.622 1097.56 201.92 1139.58 261.947C1192.09 336.98 1089.84 584.263 895.845 542.482Z" stroke="#D19965" stroke-width="2"/>
<path d="M411.086 118.448C349.287 64.806 275.89 148.523 246.916 197.087C201.373 254.764 430.122 325.403 521.342 294.026C612.562 262.649 488.335 185.5 411.086 118.448Z" stroke="#D19965" stroke-width="2"/>
<path d="M550.18 340.585C551.692 247.729 593.858 239.865 614.752 247.54C762.796 293.274 794.925 416.599 760.906 466.118C726.888 515.637 548.29 456.655 550.18 340.585Z" stroke="#D19965" stroke-width="2"/>
</svg>
