<svg width="976" height="220" viewBox="0 0 976 220" fill="none" xmlns="http://www.w3.org/2000/svg">
<path d="M835.565 325.068L763.85 283.663L774.211 183.18L910.081 67.8507L1027.65 135.727C1003.93 182.961 955.213 278.887 950.088 284.722C944.964 290.557 871.604 314.05 835.565 325.068Z" stroke="#D19965" stroke-width="2"/>
<path d="M427.344 -11.6785C427.344 -19.3389 483.174 -72.3229 511.089 -97.8574C529.896 -75.7512 571.484 -27.5666 587.381 -11.6785C603.278 4.20961 657.878 83.3665 683.19 120.959L464.249 128.407C451.947 84.9033 427.344 -4.01817 427.344 -11.6785Z" stroke="#D19965" stroke-width="2"/>
<path d="M595.243 -60.3862C595.243 -70.2918 736.247 -169.347 743.668 -184.206C773 -122.06 820.708 -18.2169 820.708 -6.61322C820.708 4.99042 791.258 93.0319 776.534 135.602L686.065 91.7347C655.791 44.3296 595.243 -52.4618 595.243 -60.3862Z" stroke="#D19965" stroke-width="2"/>
<path d="M264.842 71.9871C233.731 128.564 168.469 242.64 156.307 246.325L219.236 289.909L486.509 217.977L421.458 37.2612L264.842 71.9871Z" stroke="#D19965" stroke-width="2"/>
<path d="M840.513 -87.5049C841.483 -40.4329 841.838 55.4017 835.498 62.1646L891.144 66.731L1033.78 -76.1775L926.799 -166.558L840.513 -87.5049Z" stroke="#D19965" stroke-width="2"/>
<path d="M469.719 296.434L530.651 145.996H759.145L750.643 322.69L469.719 296.434Z" stroke="#D19965" stroke-width="2"/>
</svg>
