<svg width="612" height="480" viewBox="0 0 612 480" fill="none" xmlns="http://www.w3.org/2000/svg">
<path d="M-78.2858 485.513L-176.627 465.125L-221 628.227H24.0527L12.8594 546.676L-78.2858 485.513Z" stroke="#4B4B4B" stroke-width="2"/>
<path d="M18.8559 288.032L-125.457 53.7727H-203.411V441.14L-83.4826 465.125L18.8559 288.032Z" stroke="#4B4B4B" stroke-width="2"/>
<path d="M525.11 -252.705L622.176 -300.287L723.337 -216.317L749.079 14.1502L589.955 92.154C556.14 32.2981 487.865 -89.8555 485.287 -99.6233C482.709 -109.391 510.762 -205.747 525.11 -252.705Z" stroke="#4B4B4B" stroke-width="2"/>
<path d="M612.565 545.856L540.85 504.452L551.211 403.968L687.081 288.639L804.646 356.515C780.929 403.749 732.213 499.676 727.088 505.511C721.964 511.346 648.604 534.839 612.565 545.856Z" stroke="#4B4B4B" stroke-width="2"/>
<path d="M204.344 209.11C204.344 201.45 260.174 148.466 288.089 122.931C306.896 145.037 348.484 193.222 364.381 209.11C380.278 224.998 434.878 304.155 460.19 341.748L241.249 349.195C228.947 305.692 204.344 216.77 204.344 209.11Z" stroke="#4B4B4B" stroke-width="2"/>
<path d="M372.243 160.402C372.243 150.497 513.247 51.4413 520.668 36.583C550 98.7285 597.708 202.572 597.708 214.175C597.708 225.779 568.258 313.82 553.534 356.391L463.065 312.523C432.791 265.118 372.243 168.327 372.243 160.402Z" stroke="#4B4B4B" stroke-width="2"/>
<path d="M41.8424 292.776C10.7314 349.353 -54.5312 463.429 -66.6927 467.114L-3.76356 510.698L263.509 438.766L198.458 258.05L41.8424 292.776Z" stroke="#4B4B4B" stroke-width="2"/>
<path d="M617.513 133.283C618.483 180.355 618.838 276.19 612.498 282.953L668.144 287.519L810.777 144.611L703.799 54.2303L617.513 133.283Z" stroke="#4B4B4B" stroke-width="2"/>
<path d="M246.719 517.223L307.651 366.785H536.145L527.643 543.478L246.719 517.223Z" stroke="#4B4B4B" stroke-width="2"/>
<path d="M29.0068 743.844L6.67404 583.303L204.55 469.059L285.393 626.088L29.0068 743.844Z" stroke="#4B4B4B" stroke-width="2"/>
</svg>
