<svg width="612" height="480" viewBox="0 0 612 480" fill="none" xmlns="http://www.w3.org/2000/svg">
<path d="M396.786 447.881C335.115 444.691 337.628 388.951 346.593 361.48C370.143 328.375 427.81 269.382 470.085 298.245C522.929 334.325 473.874 451.869 396.786 447.881Z" stroke="#ECECEC" stroke-width="2"/>
<path d="M377.319 142.103C327.18 58.6991 447.87 62.47 452.972 62.47C560.794 79.1063 527.516 154.968 514.649 170.274C501.781 185.579 427.459 225.507 377.319 142.103Z" stroke="#ECECEC" stroke-width="2"/>
<path d="M-45.427 530.477C-123.795 400.004 64.8425 405.903 72.8179 405.903C241.343 431.928 189.329 550.603 169.217 574.546C149.105 598.489 32.9406 660.95 -45.427 530.477Z" stroke="#ECECEC" stroke-width="2"/>
<path d="M482.41 287.434C390.744 200.415 567.856 172.613 575.309 171.245C736.469 162.387 704.629 262.678 689.217 284.562C673.805 306.445 574.075 374.453 482.41 287.434Z" stroke="#ECECEC" stroke-width="2"/>
<path d="M412.669 209.204C367.263 142.906 319.552 181.58 301.372 209.204C270.185 238.822 215.615 305.858 246.831 337.057C285.852 376.056 469.427 292.076 412.669 209.204Z" stroke="#ECECEC" stroke-width="2"/>
<path d="M239.597 105.987C350.525 132.534 281.8 220.074 233.572 260.526C208.481 274.696 149.012 293.857 111.867 257.15C65.436 211.266 100.936 72.804 239.597 105.987Z" stroke="#ECECEC" stroke-width="2"/>
<path d="M689.494 103.454C624.392 214.556 552.403 111.575 524.546 46.197C517.481 14.4415 516.312 -56.0863 568.16 -84.1543C632.969 -119.239 770.872 -35.4242 689.494 103.454Z" stroke="#ECECEC" stroke-width="2"/>
<path d="M467.63 594.377C342.786 567.489 450.067 437.3 519.312 375.567C553.358 353.16 629.9 320.417 663.697 368.705C705.943 429.064 623.685 627.987 467.63 594.377Z" stroke="#ECECEC" stroke-width="2"/>
<path d="M77.6748 253.27C27.9613 210.119 -31.0816 277.463 -54.3888 316.53C-91.0247 362.926 92.9877 419.751 166.368 394.51C239.748 369.269 139.817 307.209 77.6748 253.27Z" stroke="#ECECEC" stroke-width="2"/>
<path d="M189.566 431.964C190.782 357.268 224.702 350.942 241.51 357.115C360.602 393.905 386.447 493.112 359.081 532.946C331.716 572.781 188.046 525.334 189.566 431.964Z" stroke="#ECECEC" stroke-width="2"/>
</svg>
