<svg width="20" height="24" viewBox="0 0 20 24" fill="none" xmlns="http://www.w3.org/2000/svg">
<path d="M0 6.42975C0 4.55647 0.924731 3.01928 2.77419 1.81818C4.63441 0.606061 6.66129 0 8.85484 0H10.7097C16.9032 0 20 2.46281 20 7.38843C20 8.49036 19.7366 9.44904 19.2097 10.2645C18.6935 11.0689 18.0591 11.686 17.3065 12.1157C16.5645 12.5455 15.8172 12.9311 15.0645 13.2727C14.3226 13.6143 13.6882 13.989 13.1613 14.3967C12.6452 14.7934 12.3871 15.1956 12.3871 15.6033C12.3871 16.3967 12.0591 16.7934 11.4032 16.7934H7.77419C7.48387 16.7934 7.24194 16.6997 7.04839 16.5124C6.86559 16.314 6.77419 16.0716 6.77419 15.7851C6.77419 14.8375 6.95161 14 7.30645 13.2727C7.66129 12.5455 8.10215 11.978 8.62903 11.5702C9.15591 11.1515 9.72581 10.7603 10.3387 10.3967C10.9624 10.0331 11.5376 9.73003 12.0645 9.4876C13.3011 8.90358 13.9194 8.1708 13.9194 7.28926C13.9194 6.40771 13.6237 5.75207 13.0323 5.32231C12.4516 4.89256 11.5215 4.67769 10.2419 4.67769H9.41935C7.63441 4.67769 6.41398 5.35537 5.75806 6.71074C5.27419 7.74656 4.54839 8.26446 3.58065 8.26446H1.66129C1.13441 8.26446 0.725806 8.07162 0.435484 7.68595C0.145161 7.30028 0 6.88154 0 6.42975ZM6.45161 21.7686V20.7273C6.45161 20 6.64516 19.4435 7.03226 19.0578C7.41935 18.6722 7.95161 18.4793 8.62903 18.4793H10.6129C11.2903 18.4793 11.8226 18.6722 12.2097 19.0578C12.5968 19.4435 12.7903 20 12.7903 20.7273V21.7686C12.7903 22.4738 12.5968 23.0248 12.2097 23.4215C11.8226 23.8072 11.2903 24 10.6129 24H8.62903C7.95161 24 7.41935 23.8072 7.03226 23.4215C6.64516 23.0248 6.45161 22.4738 6.45161 21.7686Z" fill="#00164C"/>
</svg>
