<svg width="158" height="158" viewBox="0 0 158 158" fill="none" xmlns="http://www.w3.org/2000/svg">
<circle cx="79" cy="79" r="79" fill="#F1F3FA"/>
<path d="M79.0958 57C79.0845 57 79.062 57 79.0283 57C67.6402 57 58.3789 66.2613 58.3789 77.6493C58.3789 82.2968 59.9656 86.8093 62.8689 90.444L59.8643 97.4322C59.6167 98.0061 59.8868 98.67 60.4495 98.9063C60.652 98.9963 60.8771 99.0189 61.0909 98.9851L72.1076 97.0496C74.3132 97.8485 76.6314 98.2537 78.972 98.2424C90.3601 98.2424 99.6214 88.9811 99.6214 77.5931C99.6439 66.2387 90.4501 57.0113 79.0958 57ZM72.0289 73.497H78.1055C78.7244 73.497 79.2308 74.0033 79.2308 74.6223C79.2308 75.2412 78.7244 75.7476 78.1055 75.7476H72.0289C71.4099 75.7476 70.9036 75.2412 70.9036 74.6223C70.9036 74.0033 71.4099 73.497 72.0289 73.497ZM85.9827 81.3741H72.0289C71.4099 81.3741 70.9036 80.8677 70.9036 80.2488C70.9036 79.6299 71.4099 79.1235 72.0289 79.1235H85.9827C86.6016 79.1235 87.108 79.6299 87.108 80.2488C87.108 80.8677 86.6016 81.3741 85.9827 81.3741Z" fill="#183989"/>
<path d="M133.42 78.5445C133.56 78.5558 133.671 78.6092 133.752 78.7047C133.832 78.8053 133.867 78.923 133.856 79.058L133.761 80.2261C133.733 80.5791 133.534 80.8399 133.165 81.0085C132.801 81.1827 132.596 81.5527 132.55 82.1186L132.421 83.6993C132.36 84.4521 132.638 84.8535 133.256 84.9036C133.874 84.9538 134.211 84.6023 134.267 83.8491L134.424 81.918C134.435 81.7778 134.488 81.6646 134.584 81.5783C134.685 81.4977 134.805 81.463 134.945 81.4744L135.755 81.5401C135.895 81.5515 136.006 81.6049 136.087 81.7003C136.173 81.8013 136.21 81.9219 136.199 82.0621L136.054 83.8453C136.026 84.1879 136.081 84.451 136.217 84.6345C136.359 84.8237 136.557 84.9286 136.811 84.9492C137.065 84.9699 137.278 84.8983 137.448 84.7344C137.617 84.5757 137.716 84.3251 137.744 83.9825L137.86 82.5497C137.875 82.368 137.843 82.1773 137.766 81.9777C137.693 81.7784 137.575 81.6251 137.411 81.5178C137.074 81.2867 136.923 80.9948 136.957 80.6422L137.051 79.482C137.062 79.3418 137.116 79.2286 137.212 79.1423C137.307 79.0612 137.425 79.0264 137.565 79.0377C138.266 79.0946 138.804 79.4806 139.18 80.1956C139.555 80.9158 139.704 81.7587 139.625 82.7243L139.498 84.2895C139.409 85.3848 139.137 86.2353 138.68 86.841C138.228 87.4523 137.592 87.7246 136.771 87.658C135.951 87.5914 135.39 87.1722 135.086 86.4004C134.556 87.2666 133.798 87.6596 132.812 87.5796C131.95 87.5096 131.347 87.1524 131.002 86.5078C130.662 85.8688 130.541 84.9471 130.638 83.7427L130.779 82.0062C130.864 80.9628 131.148 80.1105 131.63 79.4495C132.112 78.7884 132.709 78.4867 133.42 78.5445Z" fill="#183989"/>
<path d="M130.817 88.6194C131.457 88.0788 132.2 87.9213 133.045 88.1469C133.891 88.3726 134.451 88.878 134.727 89.6631C135.001 90.4533 134.998 91.3742 134.717 92.4259L134.05 94.9244C134.639 95.0815 135.082 95.0677 135.379 94.8829C135.677 94.6982 135.908 94.2963 136.073 93.6773C136.237 93.0634 136.199 92.5897 135.959 92.2561C135.723 91.929 135.653 91.5842 135.75 91.2219L136.05 90.0972C136.087 89.9614 136.16 89.8595 136.269 89.7918C136.383 89.7304 136.505 89.7172 136.636 89.7521C138.08 90.1376 138.436 91.7016 137.704 94.4442C137.384 95.6418 136.859 96.5311 136.127 97.112C135.4 97.6943 134.475 97.8356 133.353 97.5361L128.681 96.2889C128.545 96.2526 128.446 96.1803 128.383 96.0719C128.32 95.9636 128.307 95.8414 128.343 95.7056L128.732 94.2488C128.768 94.1129 128.841 94.0136 128.949 93.9509C129.063 93.8895 129.185 93.8763 129.315 93.9112L129.549 93.9737C129.193 93.0268 129.156 92.0332 129.439 90.9929C129.716 89.9563 130.175 89.1651 130.817 88.6194ZM132.955 92.1497C133.049 91.7975 133.038 91.4954 132.922 91.2434C132.805 90.9964 132.61 90.8367 132.339 90.7641C132.067 90.6916 131.815 90.7375 131.582 90.9018C131.35 91.0662 131.182 91.3421 131.078 91.7296C130.872 92.5045 130.899 93.3122 131.159 94.1527L132.337 94.467L132.955 92.1497Z" fill="#183989"/>
<path d="M128.601 96.9943L129.434 97.4067C129.56 97.4691 129.643 97.5596 129.683 97.6783C129.726 97.8039 129.716 97.9297 129.653 98.0557L129.383 98.6018L132.766 101.471C134.004 102.526 134.132 104.047 133.147 106.036L131.573 109.215C131.511 109.341 131.418 109.423 131.295 109.46C131.174 109.505 131.051 109.496 130.924 109.434L124.112 106.061C123.991 106.001 123.909 105.908 123.866 105.783C123.826 105.664 123.837 105.542 123.9 105.416L127.959 97.2169C128.021 97.0909 128.113 97.0055 128.234 96.9608C128.357 96.923 128.479 96.9342 128.601 96.9943ZM128.249 100.891L126.579 104.266L130.864 106.387L131.491 105.12C131.826 104.443 131.695 103.844 131.099 103.322L128.249 100.891Z" fill="#183989"/>
<path d="M122.965 107.984C123.765 107.733 124.511 107.875 125.203 108.41C125.895 108.946 126.217 109.628 126.167 110.459C126.114 111.294 125.755 112.142 125.089 113.003L123.508 115.049C123.99 115.422 124.404 115.58 124.749 115.525C125.095 115.469 125.464 115.188 125.855 114.682C126.244 114.179 126.392 113.727 126.3 113.327C126.209 112.934 126.278 112.589 126.508 112.292L127.219 111.371C127.305 111.26 127.412 111.194 127.54 111.174C127.668 111.162 127.786 111.197 127.893 111.28C129.075 112.194 128.799 113.774 127.063 116.02C126.304 117 125.476 117.617 124.576 117.869C123.681 118.125 122.773 117.898 121.854 117.187L118.028 114.23C117.917 114.144 117.854 114.039 117.838 113.914C117.822 113.79 117.857 113.673 117.943 113.561L118.865 112.368C118.951 112.257 119.056 112.194 119.18 112.178C119.309 112.165 119.426 112.2 119.534 112.283L119.725 112.431C119.763 111.42 120.113 110.489 120.777 109.64C121.433 108.791 122.163 108.239 122.965 107.984ZM123.571 112.067C123.794 111.778 123.901 111.495 123.892 111.218C123.879 110.945 123.761 110.722 123.539 110.55C123.316 110.378 123.066 110.323 122.788 110.385C122.51 110.446 122.248 110.636 122.003 110.953C121.513 111.588 121.225 112.343 121.14 113.219L122.105 113.964L123.571 112.067Z" fill="#183989"/>
<path d="M122.063 119.693L122.694 120.376C122.789 120.479 122.835 120.594 122.83 120.719C122.824 120.851 122.77 120.965 122.667 121.061L117.012 126.28C116.909 126.376 116.793 126.419 116.664 126.41C116.539 126.405 116.429 126.351 116.333 126.248L115.703 125.564C115.611 125.465 115.566 125.351 115.567 125.222C115.572 125.097 115.626 124.986 115.73 124.891L117.561 123.201L113.359 118.648C113.267 118.549 113.224 118.433 113.229 118.3C113.234 118.175 113.288 118.065 113.391 117.97L114.672 116.788C114.775 116.692 114.891 116.646 115.02 116.647C115.149 116.656 115.259 116.71 115.351 116.81L119.553 121.362L121.384 119.671C121.488 119.576 121.604 119.529 121.733 119.531C121.861 119.539 121.972 119.594 122.063 119.693Z" fill="#183989"/>
<path d="M110.916 120.819L115.09 127.172C115.167 127.29 115.193 127.41 115.168 127.532C115.141 127.662 115.071 127.764 114.958 127.839L113.495 128.8C113.382 128.874 113.263 128.896 113.137 128.867C113.01 128.844 112.908 128.774 112.831 128.656L111.539 126.691L109.561 127.991C108.634 128.6 107.796 128.889 107.046 128.858C106.297 128.827 105.637 128.379 105.068 127.513C104.502 126.651 104.353 125.87 104.622 125.169C104.891 124.469 105.489 123.814 106.416 123.205L110.256 120.683C110.369 120.608 110.489 120.582 110.616 120.605C110.741 120.635 110.841 120.706 110.916 120.819ZM109.369 123.387L107.593 124.554C107.323 124.732 107.165 124.947 107.12 125.201C107.071 125.458 107.142 125.732 107.334 126.024C107.528 126.32 107.753 126.496 108.008 126.553C108.259 126.612 108.52 126.553 108.79 126.376L110.566 125.209L109.369 123.387Z" fill="#183989"/>
<path d="M100.071 127.325L102.554 134.51C102.6 134.643 102.595 134.766 102.54 134.878C102.482 134.998 102.389 135.079 102.261 135.124L97.8456 136.649C96.9054 136.974 96.0819 137.055 95.3751 136.891C94.6634 136.729 94.1809 136.282 93.9275 135.548C93.6757 134.819 93.788 134.164 94.2643 133.58C93.2531 133.445 92.6004 132.951 92.3061 132.099C92.0119 131.248 92.0825 130.551 92.5181 130.009C92.9553 129.473 93.6933 129.025 94.732 128.666L99.4652 127.031C99.5932 126.986 99.716 126.991 99.8335 127.044C99.9478 127.103 100.027 127.197 100.071 127.325ZM97.9297 129.404L95.4781 130.251C95.2074 130.345 95.027 130.493 94.9369 130.695C94.842 130.898 94.8379 131.125 94.9246 131.377C95.0113 131.628 95.1549 131.804 95.3553 131.906C95.5508 132.009 95.7839 132.014 96.0547 131.92L98.5062 131.073L97.9297 129.404ZM99.065 132.69L96.9014 133.438C96.6799 133.514 96.524 133.645 96.4338 133.831C96.3403 134.023 96.3319 134.23 96.4084 134.451C96.485 134.673 96.6184 134.828 96.8088 134.916C96.996 135.011 97.2003 135.021 97.4218 134.944L99.5854 134.197L99.065 132.69Z" fill="#183989"/>
<path d="M89.9565 131.087C90.8672 131.714 91.4262 132.749 91.6333 134.193C91.8412 135.641 91.5959 136.792 90.8974 137.645C90.1997 138.502 89.0981 139.039 87.5927 139.255C86.0821 139.472 84.8715 139.267 83.9607 138.64C83.0506 138.018 82.4917 136.983 82.2838 135.534C82.0766 134.09 82.322 132.94 83.0197 132.082C83.7174 131.224 84.8216 130.687 86.3322 130.47C87.8376 130.254 89.0457 130.46 89.9565 131.087ZM88.7589 136.657C89.0186 136.194 89.0827 135.503 88.951 134.585C88.8193 133.668 88.5633 133.02 88.183 132.643C87.8027 132.267 87.2697 132.127 86.584 132.226C85.8932 132.325 85.4183 132.609 85.1593 133.077C84.8952 133.547 84.8289 134.24 84.9606 135.158C85.0923 136.076 85.3505 136.72 85.7352 137.091C86.1148 137.463 86.65 137.599 87.3408 137.5C88.0265 137.401 88.4992 137.12 88.7589 136.657Z" fill="#183989"/>
<path d="M80.4936 131.828L80.1417 139.421C80.1352 139.562 80.0856 139.674 79.9931 139.759C79.8951 139.848 79.7785 139.889 79.6432 139.883L71.7766 139.519C71.6362 139.512 71.5239 139.46 71.4398 139.362C71.3554 139.27 71.3165 139.153 71.323 139.013L71.6749 131.419C71.6814 131.279 71.7309 131.166 71.8235 131.082C71.916 130.998 72.0325 130.959 72.173 130.965L73.9133 131.046C74.0538 131.052 74.1688 131.102 74.2584 131.195C74.3425 131.293 74.3814 131.409 74.3751 131.544L74.0883 137.733L77.5065 137.892L77.7933 131.703C77.7998 131.562 77.852 131.45 77.9497 131.366C78.0423 131.282 78.1562 131.243 78.2914 131.249L80.0396 131.33C80.18 131.336 80.2925 131.386 80.3768 131.478C80.4611 131.571 80.5001 131.687 80.4936 131.828Z" fill="#183989"/>
<path d="M71.1393 128.71L68.7639 138.665C68.7312 138.801 68.6616 138.903 68.5549 138.968C68.4419 139.038 68.3196 139.057 68.1879 139.025L66.7212 138.675C66.5895 138.644 66.4915 138.572 66.4271 138.46C66.3565 138.353 66.3375 138.23 66.3701 138.093L66.4245 137.865C65.4887 138.242 64.4914 138.304 63.4325 138.051C62.3737 137.798 61.5792 137.213 61.0488 136.294C60.5173 135.38 60.4177 134.226 60.7502 132.833C61.0814 131.445 61.7025 130.469 62.6136 129.904C63.5247 129.34 64.6034 129.206 65.8496 129.504C66.493 129.657 67.1942 129.961 67.9533 130.415L68.51 128.082C68.5426 127.946 68.6148 127.845 68.7265 127.781C68.8344 127.71 68.9542 127.69 69.0859 127.722L70.7881 128.128C70.9199 128.159 71.0204 128.232 71.0899 128.345C71.1554 128.451 71.1719 128.573 71.1393 128.71ZM67.5344 132.171C66.9305 131.807 66.4056 131.572 65.9597 131.466C65.2657 131.3 64.7271 131.38 64.3441 131.707C63.956 132.032 63.6585 132.627 63.4518 133.494C63.2451 134.36 63.2345 135.021 63.4201 135.478C63.5993 135.938 63.9651 136.234 64.5173 136.366C65.0644 136.497 65.7546 136.421 66.5879 136.137L67.5344 132.171Z" fill="#183989"/>
<path d="M59.9832 129.004C60.4167 130.021 60.3345 131.195 59.7365 132.525C59.1363 133.86 58.313 134.7 57.2666 135.047C56.218 135.397 55.0001 135.261 53.6131 134.637C52.2212 134.012 51.3086 133.19 50.8751 132.173C50.4394 131.16 50.5217 129.987 51.1218 128.652C51.7198 127.322 52.5431 126.481 53.5917 126.13C54.6403 125.78 55.8605 125.917 57.2524 126.543C58.6394 127.166 59.5497 127.987 59.9832 129.004ZM55.9892 133.067C56.4567 132.815 56.8806 132.266 57.2607 131.421C57.6409 130.575 57.7713 129.891 57.6519 129.369C57.5325 128.847 57.1569 128.444 56.5251 128.16C55.8886 127.874 55.3355 127.86 54.8659 128.117C54.3915 128.372 53.9642 128.922 53.584 129.767C53.2039 130.613 53.0769 131.295 53.2032 131.815C53.3247 132.332 53.7037 132.734 54.3403 133.02C54.9721 133.304 55.5217 133.32 55.9892 133.067Z" fill="#183989"/>
<path d="M48.7336 121.745C49.9345 122.573 50.6567 123.526 50.9002 124.604C51.1438 125.683 50.8533 126.82 50.0289 128.017C49.2015 129.218 48.2426 129.898 47.1523 130.058C46.0591 130.221 44.9206 129.896 43.7368 129.08C42.5488 128.261 41.7674 127.445 41.3927 126.63C41.0137 125.812 41.0784 125.035 41.5866 124.297C41.6664 124.181 41.77 124.113 41.8975 124.094C42.0206 124.071 42.1401 124.099 42.2559 124.179L43.2144 124.84C43.5061 125.041 43.6448 125.367 43.6307 125.819C43.606 126.397 43.9153 126.907 44.5586 127.35C45.1977 127.791 45.7596 127.934 46.2445 127.781C46.7221 127.63 47.2165 127.183 47.7278 126.441C48.239 125.699 48.4775 125.073 48.4435 124.562C48.4051 124.049 48.0599 123.567 47.408 123.118C46.7518 122.666 46.1583 122.554 45.6275 122.783C45.2073 122.962 44.8513 122.951 44.5597 122.75L43.6011 122.089C43.4853 122.009 43.4175 121.906 43.3978 121.778C43.3709 121.652 43.3958 121.533 43.4726 121.422C43.9809 120.684 44.6846 120.347 45.5836 120.41C46.4784 120.47 47.5284 120.915 48.7336 121.745Z" fill="#183989"/>
<path d="M23.7929 74.4639C23.6541 74.4413 23.5482 74.3791 23.475 74.2775C23.4027 74.1707 23.3775 74.0505 23.3993 73.9168L23.5879 72.7603C23.645 72.4107 23.8642 72.1668 24.2456 72.0284C24.6227 71.8841 24.8569 71.5318 24.9483 70.9715L25.2036 69.4063C25.3252 68.6609 25.0802 68.2384 24.4684 68.1386C23.8567 68.0388 23.4927 68.362 23.3762 69.1082L23.0643 71.0205C23.0417 71.1593 22.9791 71.2678 22.8766 71.3461C22.7699 71.4184 22.6471 71.4432 22.5083 71.4205L21.7064 71.2897C21.5676 71.2671 21.4616 71.205 21.3885 71.1033C21.3111 70.9957 21.2837 70.8725 21.3063 70.7337L21.5943 68.968C21.6497 68.6287 21.6166 68.3621 21.4952 68.1682C21.3695 67.9682 21.1807 67.8477 20.9288 67.8067C20.677 67.7656 20.4597 67.8198 20.2769 67.9695C20.0951 68.1139 19.9764 68.3558 19.9211 68.6951L19.6897 70.1138C19.6603 70.2937 19.6764 70.4863 19.7379 70.6916C19.7943 70.8961 19.8997 71.0584 20.0543 71.1786C20.3711 71.4361 20.4985 71.7392 20.4363 72.0879L20.2489 73.2368C20.2263 73.3756 20.1637 73.4841 20.0612 73.5624C19.9596 73.6355 19.8394 73.6608 19.7006 73.6381C19.0066 73.5249 18.5013 73.0968 18.1844 72.3539C17.8685 71.6057 17.7885 70.7536 17.9444 69.7975L18.1972 68.2477C18.3741 67.1631 18.7146 66.3373 19.2187 65.7704C19.7185 65.1976 20.3745 64.9774 21.1867 65.1099C21.9988 65.2423 22.5249 65.7055 22.7648 66.4992C23.3631 65.6786 24.1505 65.3479 25.1272 65.5072C25.9805 65.6464 26.553 66.0511 26.8448 66.7214C27.1322 67.3857 27.1787 68.3141 26.9841 69.5067L26.7037 71.2262C26.5351 72.2594 26.1839 73.086 25.6501 73.7061C25.1162 74.3262 24.4971 74.5788 23.7929 74.4639Z" fill="#183989"/>
<path d="M27.2088 64.5743C26.5259 65.0599 25.7725 65.1552 24.9488 64.8602C24.125 64.5651 23.6084 64.015 23.3989 63.2097C23.1912 62.3995 23.2709 61.482 23.638 60.4572L24.51 58.0227C23.9363 57.8172 23.4936 57.7942 23.182 57.9537C22.8704 58.1132 22.6066 58.4945 22.3906 59.0976C22.1763 59.6958 22.1748 60.171 22.3861 60.5233C22.5942 60.8689 22.6351 61.2183 22.5086 61.5713L22.1161 62.6672C22.0687 62.7996 21.9875 62.895 21.8725 62.9534C21.7544 63.0051 21.6316 63.0082 21.5041 62.9625C20.0969 62.4585 19.8718 60.8703 20.829 58.198C21.247 57.031 21.8448 56.1885 22.6223 55.6703C23.395 55.1504 24.328 55.0863 25.4215 55.4779L29.9742 57.1086C30.1066 57.156 30.1995 57.2363 30.253 57.3495C30.3065 57.4627 30.3096 57.5855 30.2621 57.7179L29.7537 59.1374C29.7063 59.2698 29.626 59.3628 29.5127 59.4163C29.3946 59.468 29.2718 59.471 29.1443 59.4254L28.9163 59.3437C29.1929 60.3169 29.147 61.3101 28.7785 62.3233C28.4167 63.3334 27.8935 64.0837 27.2088 64.5743ZM25.3708 60.8787C25.2478 61.2219 25.2337 61.5239 25.3284 61.7846C25.4249 62.0405 25.6055 62.2158 25.8703 62.3107C26.1351 62.4055 26.3901 62.3807 26.6355 62.2362C26.8809 62.0917 27.0712 61.8307 27.2064 61.4532C27.4769 60.6981 27.5171 59.8909 27.3269 59.0317L26.1795 58.6207L25.3708 60.8787Z" fill="#183989"/>
<path d="M30.0555 56.4999L29.2586 56.0211C29.138 55.9487 29.0626 55.8518 29.0323 55.7303C29.0002 55.6016 29.0204 55.477 29.0928 55.3565L29.4066 54.8341L26.2676 51.7C25.1187 50.548 25.1154 49.021 26.258 47.1191L28.0844 44.0786C28.1569 43.9581 28.256 43.884 28.382 43.8564C28.5062 43.8216 28.6285 43.8404 28.7491 43.9128L35.2653 47.8272C35.3814 47.8969 35.4555 47.9961 35.4876 48.1248C35.5179 48.2462 35.4968 48.3673 35.4244 48.4878L30.7135 56.33C30.641 56.4506 30.5428 56.5283 30.4186 56.563C30.2926 56.5906 30.1716 56.5696 30.0555 56.4999ZM30.7221 52.6442L32.6612 49.4162L28.5626 46.9541L27.8344 48.1663C27.4455 48.8137 27.5269 49.4216 28.0787 49.9899L30.7221 52.6442Z" fill="#183989"/>
<path d="M36.3723 46.2114C35.5559 46.4005 34.823 46.2018 34.1736 45.6154C33.5243 45.0289 33.256 44.3235 33.3689 43.4991C33.4853 42.6708 33.9083 41.8528 34.6379 41.0449L36.3711 39.1257C35.9188 38.7173 35.5183 38.5275 35.1694 38.5563C34.8206 38.5852 34.4314 38.8373 34.0021 39.3127C33.5762 39.7843 33.3939 40.2232 33.4551 40.6294C33.516 41.0283 33.4208 41.3669 33.1694 41.6452L32.3892 42.5091C32.295 42.6134 32.1836 42.6707 32.055 42.681C31.9261 42.6838 31.8114 42.6399 31.7109 42.5491C30.6016 41.5473 30.9981 39.993 32.9006 37.8864C33.7314 36.9665 34.6049 36.4149 35.5212 36.2318C36.4336 36.0452 37.3208 36.3412 38.1828 37.1196L41.7718 40.3608C41.8761 40.4551 41.9315 40.5647 41.9379 40.6898C41.9442 40.8148 41.9003 40.9296 41.8061 41.0339L40.7955 42.1529C40.7012 42.2573 40.5916 42.3127 40.4665 42.319C40.3376 42.3219 40.2229 42.278 40.1224 42.1872L39.9426 42.0249C39.8279 43.0301 39.4073 43.931 38.6808 44.7276C37.9617 45.5239 37.1922 46.0185 36.3723 46.2114ZM36.0797 42.0944C35.8354 42.3649 35.7073 42.6388 35.6956 42.916C35.6874 43.1893 35.7877 43.4202 35.9964 43.6087C36.2051 43.7972 36.4504 43.8714 36.7324 43.8312C37.0143 43.791 37.2896 43.6221 37.5584 43.3245C38.096 42.7292 38.4404 41.9981 38.5917 41.1312L37.6872 40.3144L36.0797 42.0944Z" fill="#183989"/>
<path d="M38.2311 34.5001L37.6571 33.7688C37.5703 33.6581 37.5344 33.5407 37.5494 33.4163C37.5653 33.2847 37.6285 33.1755 37.7391 33.0887L43.793 28.338C43.9036 28.2512 44.0227 28.2173 44.1502 28.2364C44.2745 28.2514 44.3801 28.3142 44.4669 28.4248L45.0409 29.1562C45.1245 29.2627 45.1604 29.3802 45.1486 29.5086C45.1336 29.6329 45.0708 29.7385 44.9602 29.8253L42.9996 31.3639L46.8243 36.2376C46.9079 36.3441 46.9418 36.4632 46.9259 36.5948C46.9109 36.7191 46.8481 36.8247 46.7375 36.9115L45.3669 37.9871C45.2563 38.0739 45.1368 38.1114 45.0084 38.0996C44.8808 38.0805 44.7753 38.0177 44.6917 37.9112L40.8669 33.0375L38.9063 34.576C38.7957 34.6628 38.6762 34.7003 38.5478 34.6886C38.4202 34.6695 38.3147 34.6067 38.2311 34.5001Z" fill="#183989"/>
<path d="M49.2985 34.3115L45.6268 27.6555C45.5589 27.5324 45.5423 27.4107 45.577 27.2904C45.6138 27.163 45.6915 27.0666 45.8101 27.0012L47.3424 26.1559C47.461 26.0905 47.5817 26.0775 47.7045 26.1168C47.8294 26.149 47.9258 26.2267 47.9937 26.3499L49.1295 28.4089L51.2023 27.2655C52.1736 26.7297 53.0318 26.5061 53.7767 26.5949C54.5216 26.6836 55.1443 27.1818 55.645 28.0893C56.1431 28.9923 56.231 29.7825 55.9087 30.4599C55.5865 31.1373 54.9397 31.7439 53.9683 32.2798L49.9459 34.4986C49.8274 34.564 49.7056 34.5806 49.5808 34.5484C49.458 34.509 49.3639 34.4301 49.2985 34.3115ZM51.0389 31.8703L52.8996 30.8439C53.1824 30.6879 53.356 30.4851 53.4205 30.2354C53.4895 29.9832 53.4398 29.7043 53.2712 29.3987C53.1002 29.0886 52.8895 28.8955 52.6394 28.8194C52.3937 28.7407 52.1295 28.7794 51.8468 28.9353L49.9861 29.9618L51.0389 31.8703Z" fill="#183989"/>
<path d="M60.7191 28.5751L58.8145 21.216C58.7793 21.0798 58.7935 20.9578 58.857 20.8499C58.9243 20.7357 59.0234 20.6616 59.1545 20.6276L63.6774 19.4571C64.6405 19.2079 65.4678 19.1928 66.1593 19.4119C66.8559 19.6298 67.3014 20.1143 67.4959 20.8656C67.689 21.6119 67.5251 22.2568 67.004 22.8006C68.0013 23.0159 68.6128 23.5597 68.8385 24.432C69.0643 25.3043 68.9386 25.9932 68.4615 26.4987C67.9831 26.9991 67.2119 27.387 66.148 27.6623L61.2999 28.917C61.1688 28.951 61.0468 28.9368 60.9338 28.8746C60.8246 28.806 60.7531 28.7062 60.7191 28.5751ZM63.0189 26.6725L65.53 26.0227C65.8073 25.9509 65.9988 25.8179 66.1046 25.6238C66.2154 25.4283 66.2375 25.202 66.171 24.9449C66.1044 24.6877 65.9753 24.5006 65.7836 24.3834C65.5969 24.2649 65.3649 24.2416 65.0876 24.3134L62.5766 24.9632L63.0189 26.6725ZM62.1479 23.3069L64.3639 22.7333C64.5908 22.6746 64.7566 22.5564 64.8612 22.3787C64.9696 22.1946 64.9944 21.9891 64.9357 21.7622C64.877 21.5353 64.7563 21.3702 64.5735 21.2669C64.3945 21.1572 64.1915 21.1317 63.9646 21.1904L61.7486 21.764L62.1479 23.3069Z" fill="#183989"/>
<path d="M71.0284 25.6088C70.1685 24.9136 69.6907 23.8385 69.5951 22.3833C69.4992 20.9229 69.8322 19.7944 70.5942 18.998C71.3558 18.1964 72.4953 17.7457 74.0129 17.646C75.5357 17.546 76.727 17.8436 77.5869 18.5387C78.4465 19.2287 78.9242 20.3038 79.0201 21.7642C79.1157 23.2194 78.7827 24.3478 78.0211 25.1495C77.2595 25.9511 76.1173 26.4019 74.5946 26.5019C73.077 26.6016 71.8883 26.3039 71.0284 25.6088ZM72.6505 20.147C72.3559 20.5891 72.239 21.2727 72.2997 22.1978C72.3605 23.1229 72.566 23.7879 72.9162 24.1929C73.2664 24.5979 73.7871 24.7777 74.4783 24.7323C75.1748 24.6866 75.6701 24.44 75.9643 23.9927C76.2637 23.545 76.3831 22.8587 76.3223 21.9336C76.2616 21.0085 76.0536 20.3462 75.6986 19.9467C75.3487 19.5469 74.8256 19.3699 74.1291 19.4157C73.4379 19.4611 72.945 19.7048 72.6505 20.147Z" fill="#183989"/>
<path d="M80.426 25.5491L81.3611 18.0053C81.3783 17.8658 81.4364 17.7575 81.5351 17.6805C81.6397 17.599 81.7592 17.5666 81.8936 17.5832L89.7088 18.5519C89.8483 18.5692 89.9563 18.6298 90.0326 18.7337C90.1096 18.8325 90.1394 18.9516 90.1221 19.0912L89.1871 26.635C89.1698 26.7746 89.1118 26.8829 89.013 26.9598C88.9143 27.0368 88.7951 27.0667 88.6556 27.0494L86.9266 26.8351C86.787 26.8178 86.6762 26.7594 86.594 26.66C86.5177 26.5561 86.4879 26.4369 86.5045 26.3025L87.2666 20.1543L83.8707 19.7334L83.1086 25.8816C83.0913 26.0212 83.0307 26.1291 82.9268 26.2055C82.828 26.2825 82.7115 26.3126 82.5771 26.296L80.8404 26.0807C80.7008 26.0634 80.5925 26.0054 80.5155 25.9066C80.4386 25.8079 80.4087 25.6887 80.426 25.5491Z" fill="#183989"/>
<path d="M89.6726 29.3728L92.8319 19.6383C92.8753 19.5045 92.9528 19.4092 93.0643 19.3523C93.1824 19.2921 93.3059 19.2829 93.4347 19.3247L94.8689 19.7901C94.9977 19.8319 95.0897 19.9111 95.145 20.0276C95.2068 20.1407 95.216 20.2642 95.1726 20.3979L95.1003 20.6209C96.0631 20.32 97.0622 20.3376 98.0975 20.6737C99.1329 21.0097 99.8784 21.6568 100.334 22.6151C100.791 23.5684 100.799 24.7263 100.357 26.0886C99.9161 27.446 99.2193 28.3698 98.2663 28.8599C97.3132 29.3501 96.2273 29.3974 95.0087 29.0019C94.3795 28.7977 93.7047 28.4391 92.9841 27.9259L92.2437 30.2072C92.2003 30.341 92.1204 30.4355 92.0039 30.4908C91.8907 30.5526 91.7697 30.5627 91.6409 30.5209L89.9764 29.9806C89.8476 29.9388 89.7531 29.8589 89.6928 29.7408C89.636 29.6292 89.6292 29.5066 89.6726 29.3728ZM93.5412 26.2094C94.1143 26.6199 94.6189 26.8959 95.0548 27.0374C95.7335 27.2577 96.2768 27.2204 96.6846 26.9256C97.0973 26.6325 97.4411 26.0623 97.716 25.2152C97.991 24.3681 98.0541 23.7096 97.9054 23.2397C97.7633 22.7665 97.4223 22.4422 96.8823 22.267C96.3473 22.0933 95.6532 22.1145 94.8001 22.3304L93.5412 26.2094Z" fill="#183989"/>
<path d="M100.955 29.996C100.605 28.9469 100.783 27.7838 101.487 26.5069C102.194 25.2254 103.083 24.4548 104.155 24.1951C105.228 23.9308 106.431 24.166 107.763 24.9006C109.099 25.6377 109.942 26.5308 110.291 27.58C110.642 28.6246 110.465 29.7876 109.758 31.0691C109.053 32.3461 108.164 33.1166 107.091 33.3809C106.017 33.6452 104.812 33.4087 103.476 32.6716C102.144 31.9371 101.304 31.0452 100.955 29.996ZM105.266 26.2717C104.78 26.4851 104.313 26.9977 103.865 27.8095C103.417 28.6212 103.231 29.2921 103.308 29.822C103.384 30.352 103.726 30.7842 104.332 31.1188C104.944 31.4559 105.494 31.5155 105.983 31.2975C106.476 31.082 106.947 30.5684 107.395 29.7566C107.843 28.9449 108.025 28.275 107.941 27.7471C107.862 27.2218 107.517 26.7905 106.906 26.4534C106.299 26.1188 105.753 26.0583 105.266 26.2717Z" fill="#183989"/>
<path d="M111.631 38.1515C110.501 37.2304 109.857 36.2226 109.701 35.1279C109.545 34.0333 109.925 32.9226 110.843 31.796C111.764 30.6654 112.774 30.0642 113.874 29.9926C114.977 29.917 116.086 30.3331 117.2 31.241C118.319 32.1522 119.032 33.0289 119.34 33.8711C119.652 34.7165 119.526 35.4866 118.96 36.1811C118.871 36.2901 118.762 36.3494 118.634 36.3588C118.509 36.3715 118.392 36.3335 118.283 36.2447L117.381 35.5095C117.106 35.2858 116.994 34.9493 117.044 34.4999C117.115 33.9262 116.848 33.3927 116.242 32.8992C115.641 32.4091 115.092 32.2208 114.596 32.3344C114.108 32.4472 113.579 32.8529 113.01 33.5515C112.441 34.2501 112.153 34.8552 112.146 35.3668C112.143 35.8816 112.449 36.3891 113.063 36.8891C113.68 37.3924 114.263 37.5513 114.811 37.3658C115.244 37.2216 115.598 37.2613 115.872 37.485L116.775 38.2202C116.884 38.309 116.943 38.4177 116.952 38.5463C116.969 38.6742 116.935 38.7906 116.849 38.8956C116.284 39.5901 115.555 39.87 114.664 39.7352C113.777 39.6037 112.766 39.0758 111.631 38.1515Z" fill="#183989"/>
</svg>
