<svg width="136" height="136" viewBox="0 0 136 136" fill="none" xmlns="http://www.w3.org/2000/svg">
<g clip-path="url(#clip0_675_1722)">
<path d="M26.8241 83.8754L26.3661 84.076L26.8241 83.8753C21.1843 71.0051 21.4216 55.7322 28.8343 42.4985C41.3204 20.2071 69.2817 12.1949 91.6844 24.4807C114.143 36.7973 122.385 64.9659 110.127 87.4414C97.8881 109.881 70.0579 118.219 47.5045 106.191C44.5204 104.599 41.7836 102.73 39.3063 100.633C37.9726 99.5034 36.1783 99.1208 34.4966 99.549C26.1314 101.679 19.7987 98.3041 16.7786 96.116C16.2473 95.7308 16.3781 94.9024 17.0082 94.7002C20.5452 93.5652 23.2903 91.8661 25.3986 90.0435C27.1617 88.5194 27.7641 86.0206 26.8241 83.8754Z" fill="white" stroke="#00164C"/>
<path d="M110.567 87.6802C98.1951 110.362 70.0649 118.788 47.2698 106.631C44.2546 105.024 41.4879 103.135 38.9839 101.014C37.7763 99.9933 36.1508 99.6434 34.6194 100.034C26.0545 102.214 19.5688 98.754 16.4857 96.5216C16.4796 96.5161 16.4707 96.5112 16.4647 96.5055C20.5066 97.9144 27.326 98.2095 34.037 94.5049C35.4212 93.7424 37.1956 94.4655 38.4006 95.4865C40.9055 97.606 43.6712 99.4968 46.6864 101.104C69.4815 113.261 95.221 107.558 107.59 84.8773C117.683 66.373 114.028 44.0515 100.054 29.6805C116.446 43.8173 121.342 67.9249 110.567 87.6802Z" fill="#00257D"/>
<path d="M56.9072 47.2008C58.1767 44.5202 60.5557 42.9538 64.044 42.5016C67.5554 42.041 70.8971 42.5618 74.069 44.064L76.7512 45.3343C85.7073 49.5758 88.5163 55.2208 85.1782 62.2692C84.4314 63.846 83.4008 65.0374 82.0863 65.8435C80.7948 66.6411 79.4592 67.0897 78.0796 67.1892C76.7155 67.296 75.3735 67.3361 74.0536 67.3095C72.7492 67.2902 71.5779 67.3919 70.5397 67.6145C69.5246 67.8287 68.8788 68.2275 68.6025 68.8109C68.0648 69.9462 67.3218 70.2893 66.3733 69.8401L61.1256 67.3548C60.7058 67.156 60.4194 66.8563 60.2665 66.4557C60.1366 66.0467 60.1687 65.6372 60.3628 65.2272C61.0051 63.8711 61.8292 62.7942 62.8352 61.9965C63.8411 61.1988 64.8632 60.6887 65.9014 60.4661C66.9471 60.2277 68.0363 60.0582 69.169 59.9576C70.3172 59.8643 71.3544 59.8247 72.2806 59.8386C74.4645 59.8497 75.8552 59.2245 76.4526 57.9631C77.05 56.7016 77.0667 55.5609 76.5028 54.5409C75.9544 53.5283 74.7551 52.5839 72.9048 51.7076L71.7153 51.1443C69.1342 49.9219 66.9102 50.0559 65.0432 51.5462C63.6415 52.697 62.241 52.9411 60.8416 52.2783L58.0661 50.9639C57.3043 50.6031 56.8441 50.0473 56.6856 49.2966C56.5272 48.5459 56.6011 47.8473 56.9072 47.2008ZM55.8414 73.5684L56.5471 72.0783C57.04 71.0376 57.697 70.3739 58.5181 70.0871C59.3392 69.8003 60.2396 69.8889 61.2192 70.3528L64.0879 71.7114C65.0675 72.1753 65.7064 72.8158 66.0048 73.6327C66.3032 74.4497 66.206 75.3786 65.7131 76.4193L65.0074 77.9094C64.5295 78.9185 63.8762 79.5744 63.0476 79.877C62.2265 80.1638 61.3261 80.0752 60.3466 79.6113L57.4778 78.2527C56.4983 77.7888 55.8593 77.1483 55.5609 76.3313C55.27 75.4986 55.3635 74.5776 55.8414 73.5684Z" fill="#183989"/>
</g>
<defs>
<clipPath id="clip0_675_1722">
<rect width="100" height="100" fill="white" transform="translate(48.0847) rotate(28.7407)"/>
</clipPath>
</defs>
</svg>
