<svg width="32" height="32" viewBox="0 0 32 32" fill="none" xmlns="http://www.w3.org/2000/svg">
<path d="M16 0C7.17825 0 0 7.17694 0 16C0 24.8218 7.17825 32 16 32C24.8231 32 32 24.8218 32 16C32 7.17694 24.8231 0 16 0ZM16 7.68C17.0586 7.68 17.92 8.54019 17.92 9.6C17.92 10.6586 17.0586 11.52 16 11.52C14.9414 11.52 14.08 10.6586 14.08 9.6C14.08 8.54019 14.9414 7.68 16 7.68ZM18.5114 23.9245C18.4128 24.1639 18.1786 24.32 17.92 24.32H16.64H15.36H14.08C13.8214 24.32 13.5872 24.1638 13.4886 23.9245C13.3901 23.6852 13.4451 23.4099 13.6281 23.2269L14.7199 22.1351V14.9849L13.6281 13.8918C13.4451 13.7087 13.3901 13.4336 13.4886 13.1942C13.5872 12.9548 13.8214 12.7999 14.08 12.7999H15.36H16H16.64C16.9932 12.7999 17.28 13.0854 17.28 13.4399V22.135L18.3731 23.2268C18.5549 23.4099 18.6099 23.6851 18.5114 23.9245Z" fill="#FFAA00"/>
</svg>
