<svg width="182" height="182" viewBox="0 0 182 182" fill="none" xmlns="http://www.w3.org/2000/svg">
<circle cx="91" cy="91" r="91" fill="white"/>
<circle cx="91" cy="91" r="77" fill="#8FD2FF"/>
<g clip-path="url(#clip0_720_2033)">
<path d="M33.0645 154.226L38.0165 167.888H47.6452L56.757 148.675L33.0645 154.226Z" fill="#E9E5EA"/>
<path d="M47.645 168H38.0163C37.9934 168 37.971 167.993 37.9523 167.979C37.9335 167.966 37.9193 167.948 37.9114 167.926L32.9599 154.264C32.9545 154.249 32.9523 154.233 32.9534 154.218C32.9546 154.202 32.9591 154.187 32.9666 154.173C32.9741 154.159 32.9844 154.147 32.997 154.137C33.0095 154.127 33.0239 154.121 33.0393 154.117L56.7316 148.565C56.752 148.561 56.7732 148.562 56.793 148.569C56.8127 148.576 56.8302 148.588 56.8433 148.604C56.8564 148.621 56.8647 148.64 56.8672 148.661C56.8697 148.682 56.8663 148.703 56.8574 148.722L47.7461 167.935C47.737 167.955 47.7228 167.971 47.7049 167.982C47.687 167.994 47.6662 168 47.645 168ZM38.0943 167.776H47.5737L56.5563 148.835L33.2119 154.306L38.0943 167.776Z" fill="#00257D"/>
<path d="M131.129 152.844H137.421L143.601 135.195L133.692 114.805L116.777 119.688L131.129 152.844Z" fill="#E9E5EA"/>
<path d="M137.421 152.956H131.129C131.108 152.956 131.086 152.95 131.068 152.938C131.05 152.926 131.036 152.909 131.027 152.889L116.675 119.733C116.669 119.719 116.666 119.703 116.666 119.687C116.666 119.671 116.67 119.655 116.677 119.641C116.683 119.627 116.693 119.614 116.705 119.604C116.717 119.593 116.731 119.586 116.747 119.581L133.661 114.698C133.686 114.69 133.713 114.692 133.737 114.703C133.761 114.714 133.781 114.732 133.792 114.756L143.701 135.147C143.708 135.16 143.711 135.175 143.712 135.189C143.713 135.204 143.711 135.219 143.706 135.233L137.526 152.882C137.519 152.904 137.504 152.923 137.485 152.936C137.467 152.949 137.444 152.956 137.421 152.956ZM131.203 152.733H137.342L143.48 135.203L133.634 114.939L116.931 119.761L131.203 152.733Z" fill="#00257D"/>
<path d="M67.5327 73.2806L69.117 86.9461L61.8105 87.1935L81.8198 107.983L91.9368 82.117L84.9531 84.9328L83.7237 72.71L67.5327 73.2806Z" fill="#FFD6B5"/>
<path d="M38.0439 135.709L34.8642 159.194L28.1113 141.021L48.3275 87.6504L64.2602 107.983L65.2978 133.825L38.0439 135.709Z" fill="white"/>
<path d="M34.8644 159.305C34.8416 159.305 34.8194 159.298 34.8007 159.285C34.782 159.272 34.7677 159.254 34.7598 159.232L28.0071 141.06C27.9976 141.035 27.9976 141.007 28.0071 140.981L48.2233 87.6104L48.4321 87.6898L28.2308 141.021L34.8135 158.737L37.9337 135.694L38.1545 135.724L34.9748 159.209C34.9715 159.234 34.96 159.257 34.9422 159.274C34.9244 159.291 34.9014 159.302 34.8766 159.305C34.8726 159.305 34.8685 159.305 34.8644 159.305Z" fill="#00257D"/>
<path d="M133.692 114.804L144.184 74.5738L158.77 67.3893L158.692 71.8931L151.288 76.8318L162.45 73.583L176.915 62.374L181.888 80.7872L169.773 90.7412L155.958 95.5564L152.313 131.661L131.579 146.161L119.512 127.142L133.692 114.804Z" fill="#FFD6B5"/>
<path d="M131.579 146.273C131.572 146.273 131.564 146.273 131.557 146.271C131.542 146.268 131.528 146.262 131.516 146.254C131.503 146.245 131.493 146.234 131.484 146.222L119.418 127.202C119.403 127.179 119.398 127.152 119.402 127.126C119.405 127.099 119.419 127.075 119.439 127.058L133.592 114.743L144.075 74.5457C144.079 74.5302 144.087 74.5157 144.097 74.5033C144.107 74.4908 144.12 74.4807 144.134 74.4737L158.721 67.2892C158.738 67.2807 158.757 67.2768 158.776 67.2778C158.795 67.2788 158.814 67.2848 158.83 67.2951C158.846 67.3054 158.859 67.3196 158.869 67.3366C158.878 67.3535 158.882 67.3724 158.882 67.3916L158.803 71.8955C158.802 71.9135 158.798 71.9313 158.789 71.9471C158.78 71.963 158.768 71.9765 158.753 71.9865L151.955 76.5215L162.398 73.4815L176.846 62.286C176.861 62.2748 176.878 62.2674 176.896 62.2643C176.914 62.2612 176.932 62.2626 176.95 62.2683C176.967 62.2742 176.983 62.2843 176.995 62.2976C177.008 62.311 177.017 62.3273 177.022 62.345L181.996 80.7584C182.001 80.7792 182.001 80.8012 181.994 80.8217C181.988 80.8423 181.975 80.8604 181.959 80.8741L169.843 90.829C169.833 90.8375 169.822 90.844 169.809 90.8482L156.062 95.6386L152.424 131.673C152.422 131.689 152.417 131.705 152.409 131.718C152.401 131.732 152.39 131.744 152.377 131.754L131.643 146.253C131.624 146.266 131.602 146.273 131.579 146.273ZM119.657 127.163L131.611 146.003L152.207 131.599L155.848 95.5453C155.85 95.5242 155.858 95.5041 155.872 95.4874C155.885 95.4707 155.902 95.4581 155.922 95.4512L169.718 90.6415L181.763 80.7461L176.851 62.5645L162.517 73.6708C162.506 73.6793 162.493 73.6857 162.48 73.6898L151.32 76.9398C151.295 76.948 151.267 76.9465 151.242 76.9355C151.217 76.9245 151.197 76.9049 151.186 76.8802C151.174 76.8555 151.172 76.8275 151.18 76.8014C151.187 76.7753 151.204 76.7529 151.227 76.7385L158.582 71.8319L158.657 67.5701L144.28 74.6513L133.799 114.833C133.794 114.854 133.782 114.874 133.765 114.889L119.657 127.163Z" fill="#00257D"/>
<path d="M166.463 75.6221L178.027 66.6583L178.164 66.8353L166.599 75.7991L166.463 75.6221Z" fill="#00257D"/>
<path d="M167.354 80.7168L179.299 71.4578L179.435 71.6348L167.49 80.8938L167.354 80.7168Z" fill="#00257D"/>
<path d="M168.338 85.6885L180.637 76.1549L180.774 76.3319L168.474 85.8655L168.338 85.6885Z" fill="#00257D"/>
<path d="M133.692 114.805L104.254 77.1514L99.8633 112.406L110.97 134.377L131.129 152.845L133.692 114.805Z" fill="white"/>
<path d="M106.904 81.7929C106.787 82.172 106.504 83.3566 107.271 83.9975C107.483 84.1744 107.751 84.269 108.026 84.2639C108.526 84.2252 109.005 84.0443 109.407 83.7424L106.054 79.4531C105.99 79.5548 105.94 79.6651 105.908 79.7809C105.617 80.7967 106.576 81.5649 106.904 81.7929Z" fill="#FFAA00"/>
<path d="M126.259 115.759C126.122 115.383 125.612 114.186 124.661 114.186C123.714 114.186 123.205 115.371 123.065 115.753C123.033 115.753 122.996 115.751 122.955 115.751C122.479 115.751 121.345 115.853 121.073 116.804C120.783 117.82 121.743 118.588 122.07 118.816C121.953 119.195 121.67 120.38 122.437 121.021C122.648 121.198 122.916 121.292 123.192 121.287C123.816 121.287 124.441 120.868 124.669 120.696C124.91 120.848 125.564 121.219 126.192 121.219C126.432 121.225 126.668 121.159 126.871 121.032C127.65 120.525 127.355 119.202 127.247 118.812C127.553 118.573 128.505 117.743 128.249 116.806C127.994 115.868 126.722 115.765 126.259 115.759ZM125.314 118.1C125.314 118.1 126.144 118.894 125.666 119.28C125.188 119.667 124.656 118.575 124.656 118.575C124.656 118.575 124.079 119.656 123.645 119.28C123.211 118.905 123.987 118.061 123.987 118.061C123.987 118.061 122.805 117.927 123.021 117.352C123.236 116.778 124.262 117.308 124.262 117.308C124.262 117.308 124.051 116.162 124.656 116.162C125.261 116.162 125.063 117.317 125.063 117.317C125.063 117.317 126.067 116.78 126.29 117.353C126.513 117.926 125.314 118.1 125.314 118.1Z" fill="#FFAA00"/>
<path d="M124.656 103.766C124.656 103.766 124.079 104.846 123.645 104.471C123.211 104.096 123.987 103.252 123.987 103.252C123.987 103.252 122.805 103.118 123.021 102.543C123.162 102.164 123.655 102.265 123.976 102.378L122.854 100.943C122.336 100.959 121.327 101.106 121.073 101.995C120.783 103.011 121.743 103.779 122.07 104.007C121.953 104.386 121.67 105.57 122.437 106.211C122.648 106.388 122.916 106.483 123.192 106.478C123.816 106.478 124.441 106.059 124.669 105.887C124.91 106.039 125.564 106.41 126.192 106.41C126.432 106.415 126.668 106.35 126.871 106.223C126.896 106.206 126.917 106.187 126.94 106.169L125.63 104.494C125.161 104.8 124.656 103.766 124.656 103.766Z" fill="#FFAA00"/>
<path d="M106.904 111.412C106.787 111.791 106.504 112.975 107.271 113.616C107.483 113.793 107.751 113.888 108.026 113.883C108.65 113.883 109.275 113.464 109.503 113.292C109.745 113.444 110.398 113.815 111.027 113.815C111.266 113.82 111.502 113.755 111.705 113.627C112.484 113.121 112.189 111.797 112.081 111.407C112.387 111.169 113.339 110.338 113.083 109.401C112.828 108.464 111.556 108.361 111.093 108.354C110.957 107.979 110.446 106.781 109.495 106.781C108.549 106.781 108.039 107.967 107.899 108.349C107.867 108.349 107.83 108.347 107.789 108.347C107.314 108.347 106.179 108.449 105.908 109.4C105.617 110.416 106.576 111.184 106.904 111.412ZM107.855 109.948C108.069 109.373 109.096 109.903 109.096 109.903C109.096 109.903 108.885 108.757 109.49 108.757C110.095 108.757 109.897 109.913 109.897 109.913C109.897 109.913 110.901 109.376 111.124 109.949C111.347 110.522 110.147 110.697 110.147 110.697C110.147 110.697 110.978 111.49 110.5 111.877C110.022 112.264 109.49 111.172 109.49 111.172C109.49 111.172 108.913 112.252 108.479 111.877C108.044 111.502 108.821 110.658 108.821 110.658C108.821 110.658 107.64 110.523 107.855 109.948Z" fill="#FFAA00"/>
<path d="M113.083 94.5917C112.828 93.6568 111.556 93.5515 111.093 93.545C110.956 93.1692 110.446 91.9717 109.495 91.9717C108.548 91.9717 108.039 93.1573 107.899 93.5389C107.867 93.5389 107.83 93.5372 107.789 93.5372C107.313 93.5372 106.179 93.6396 105.907 94.5901C105.617 95.606 106.577 96.3742 106.904 96.6021C106.787 96.9824 106.504 98.1656 107.271 98.8067C107.482 98.9836 107.75 99.0782 108.026 99.0732C108.65 99.0732 109.275 98.654 109.503 98.4824C109.744 98.6343 110.398 99.0052 111.026 99.0052C111.266 99.0106 111.502 98.9454 111.705 98.8177C112.484 98.3112 112.189 96.988 112.081 96.5979C112.387 96.3594 113.339 95.5288 113.083 94.5917ZM110.148 95.8863C110.148 95.8863 110.978 96.6795 110.5 97.0666C110.022 97.4536 109.49 96.3614 109.49 96.3614C109.49 96.3614 108.913 97.4417 108.479 97.0666C108.045 96.6914 108.821 95.8471 108.821 95.8471C108.821 95.8471 107.639 95.7129 107.855 95.1384C108.07 94.564 109.096 95.0937 109.096 95.0937C109.096 95.0937 108.885 93.9479 109.49 93.9479C110.095 93.9479 109.897 95.1033 109.897 95.1033C109.897 95.1033 110.901 94.5664 111.124 95.1393C111.347 95.7122 110.148 95.8863 110.148 95.8863Z" fill="#FFAA00"/>
<path d="M127.247 148.431C127.554 148.192 128.505 147.362 128.25 146.424C127.994 145.487 126.722 145.384 126.259 145.378C126.123 145.002 125.613 143.805 124.661 143.805C123.715 143.805 123.205 144.99 123.065 145.371C123.038 145.371 123.005 145.369 122.971 145.369L124.227 146.52C124.225 146.19 124.294 145.779 124.656 145.779C125.261 145.779 125.064 146.934 125.064 146.934C125.064 146.934 126.067 146.397 126.29 146.97C126.459 147.401 125.822 147.607 125.495 147.682L127.391 149.419C127.385 149.085 127.337 148.753 127.247 148.431Z" fill="#FFAA00"/>
<path d="M128.249 131.615C127.994 130.68 126.722 130.575 126.259 130.568C126.122 130.193 125.612 128.995 124.661 128.995C123.714 128.995 123.205 130.181 123.065 130.562C123.033 130.561 122.996 130.56 122.955 130.56C122.479 130.56 121.345 130.663 121.073 131.614C120.783 132.629 121.743 133.398 122.07 133.626C121.953 134.005 121.67 135.189 122.437 135.83C122.648 136.007 122.916 136.102 123.192 136.096C123.816 136.096 124.441 135.677 124.669 135.506C124.91 135.657 125.564 136.028 126.192 136.028C126.432 136.034 126.668 135.969 126.871 135.841C127.65 135.335 127.355 134.011 127.247 133.621C127.553 133.383 128.505 132.552 128.249 131.615ZM125.314 132.91C125.314 132.91 126.144 133.703 125.666 134.09C125.188 134.477 124.656 133.385 124.656 133.385C124.656 133.385 124.079 134.465 123.645 134.09C123.211 133.715 123.987 132.871 123.987 132.871C123.987 132.871 122.805 132.736 123.021 132.162C123.236 131.587 124.262 132.117 124.262 132.117C124.262 132.117 124.051 130.971 124.656 130.971C125.261 130.971 125.063 132.127 125.063 132.127C125.063 132.127 126.067 131.59 126.29 132.163C126.513 132.736 125.314 132.91 125.314 132.91Z" fill="#FFAA00"/>
<path d="M131.128 152.956C131.1 152.956 131.074 152.946 131.053 152.927L110.894 134.459C110.884 134.45 110.875 134.439 110.869 134.427L99.7617 112.457L99.9609 112.355L111.059 134.308L131.032 152.605L133.577 114.84L104.165 77.2201L104.34 77.082L133.779 114.736C133.796 114.758 133.804 114.785 133.802 114.812L131.239 152.852C131.238 152.873 131.231 152.893 131.218 152.91C131.206 152.927 131.189 152.94 131.17 152.948C131.157 152.953 131.142 152.956 131.128 152.956Z" fill="#00257D"/>
<path d="M104.254 77.1514L106.202 112.007L110.353 127.723L65.754 138.166L59.2166 106.523L48.3281 87.6507L63.3577 87.1418L80.6458 101.697L91.9373 82.1176L104.254 77.1514Z" fill="white"/>
<path d="M65.7246 138.034L110.334 127.633L110.384 127.851L65.7752 138.252L65.7246 138.034Z" fill="#00257D"/>
<path d="M64.8953 31.3409C71.8414 31.3409 77.4723 25.6933 77.4723 18.7266C77.4723 11.7599 71.8414 6.1123 64.8953 6.1123C57.9493 6.1123 52.3184 11.7599 52.3184 18.7266C52.3184 25.6933 57.9493 31.3409 64.8953 31.3409Z" fill="#00257D"/>
<path d="M68.9614 30.778C68.9461 30.778 68.9309 30.7748 68.9168 30.7686C66.1788 29.4495 63.6619 27.7115 61.4562 25.6169C58.1753 22.4691 54.5087 17.2076 55.6712 10.015L55.8911 10.051C54.7444 17.1472 58.3682 22.3447 61.6101 25.4551C63.6864 27.4194 66.0353 29.072 68.5836 30.3614C61.1591 20.5479 65.5825 6.25163 65.6271 6.10645L65.8397 6.17356C65.7933 6.31941 61.2939 20.871 69.0475 30.5952C69.0607 30.6117 69.0689 30.6315 69.0713 30.6524C69.0737 30.6734 69.0702 30.6946 69.0611 30.7136C69.052 30.7326 69.0377 30.7487 69.0199 30.7599C69.0021 30.7711 68.9816 30.7771 68.9605 30.7771L68.9614 30.778Z" fill="white"/>
<path d="M68.8637 30.7192C63.5586 20.6748 68.6353 6.80892 68.6873 6.6709L68.896 6.74964C68.8445 6.88744 63.8033 20.661 69.0606 30.6156L68.8637 30.7192Z" fill="white"/>
<path d="M64.8947 31.4527C62.385 31.4529 59.9317 30.7066 57.8449 29.3084C55.7582 27.9101 54.1317 25.9225 53.1712 23.5971C52.2107 21.2717 51.9593 18.7128 52.4488 16.244C52.9383 13.7753 54.1467 11.5076 55.9213 9.72771C57.6958 7.94781 59.9567 6.73567 62.4182 6.24458C64.8796 5.75348 67.4309 6.00548 69.7495 6.96872C72.0681 7.93196 74.0498 9.56316 75.4441 11.656C76.8384 13.7489 77.5825 16.2095 77.5825 18.7266C77.5787 22.1005 76.2407 25.3351 73.8621 27.7208C71.4836 30.1066 68.2586 31.4487 64.8947 31.4527ZM64.8947 6.22393C62.4292 6.22376 60.019 6.95687 57.9689 8.33058C55.9188 9.70428 54.3209 11.6569 53.3773 13.9414C52.4336 16.2259 52.1867 18.7398 52.6675 21.1652C53.1484 23.5905 54.3356 25.8184 56.0789 27.567C57.8222 29.3156 60.0434 30.5064 62.4615 30.9889C64.8797 31.4714 67.3861 31.2239 69.664 30.2776C71.9418 29.3313 73.8888 27.7288 75.2586 25.6728C76.6283 23.6167 77.3595 21.1994 77.3595 18.7266C77.3558 15.412 76.0414 12.2341 73.7046 9.89025C71.3678 7.54637 68.1995 6.22784 64.8947 6.22393Z" fill="#00257D"/>
<path d="M110.471 43.4414C117.418 43.4414 123.048 37.7938 123.048 30.8272C123.048 23.8605 117.418 18.2129 110.471 18.2129C103.525 18.2129 97.8945 23.8605 97.8945 30.8272C97.8945 37.7938 103.525 43.4414 110.471 43.4414Z" fill="#00257D"/>
<path d="M102.96 39.374C101.781 39.374 101.057 39.3022 101.04 39.3006C101.015 39.2981 100.992 39.2873 100.974 39.27C100.956 39.2526 100.944 39.2297 100.941 39.2049C100.937 39.1801 100.942 39.1548 100.955 39.1332C100.967 39.1115 100.987 39.0947 101.01 39.0854C112.546 34.4751 115.804 19.5969 115.836 19.4473L116.054 19.4936C116.023 19.6426 112.82 34.2626 101.53 39.1125C104.383 39.2552 107.241 38.9827 110.016 38.3034C114.366 37.2072 120.074 34.4852 122.574 27.7505L122.783 27.8286C120.248 34.6567 114.467 37.4123 110.064 38.5217C107.739 39.0912 105.354 39.3774 102.96 39.374Z" fill="white"/>
<path d="M101.112 39.2833L100.992 39.0947C110.469 33.0484 112.876 18.5761 112.899 18.4307L113.119 18.466C113.096 18.6123 110.674 33.1827 101.112 39.2833Z" fill="white"/>
<path d="M110.45 43.5509C108.232 43.5475 106.053 42.9608 104.132 41.8492C102.21 40.7377 100.612 39.1401 99.4986 37.216C98.3846 35.2919 97.7932 33.1085 97.7833 30.8835C97.7734 28.6586 98.3454 26.47 99.4422 24.5359L99.5392 24.5912L99.4422 24.5359C100.545 22.5899 102.14 20.97 104.067 19.8398C105.993 18.7096 108.183 18.1091 110.415 18.0988C112.647 18.0885 114.842 18.6688 116.778 19.7812C118.715 20.8936 120.325 22.4987 121.446 24.4345C122.567 26.3703 123.158 28.5684 123.162 30.8069C123.165 33.0454 122.579 35.2451 121.464 37.1841C120.349 39.123 118.743 40.7327 116.809 41.8505C114.876 42.9683 112.682 43.5549 110.45 43.5509ZM110.493 18.3259C108.288 18.3228 106.121 18.906 104.214 20.0161C102.307 21.1262 100.727 22.7236 99.636 24.6453C98.2795 27.0347 97.7458 29.8059 98.1174 32.5301C98.489 35.2543 99.7452 37.7798 101.692 39.716C103.638 41.6522 106.166 42.8912 108.886 43.2414C111.605 43.5916 114.363 43.0334 116.734 41.6533C119.105 40.2731 120.957 38.1479 122.003 35.6062C123.048 33.0645 123.23 30.2481 122.519 27.5925C121.809 24.9369 120.246 22.59 118.072 20.915C115.898 19.2399 113.234 18.33 110.493 18.3259Z" fill="#00257D"/>
<path d="M97.1282 23.5045L106.474 22.1349L112.525 37.0708C108.611 60.1308 101.462 69.6832 90.3698 73.4723C74.0506 76.5776 61.1734 65.7277 61.1734 65.7277C53.7867 57.037 51.722 44.7638 59.9188 23.1168L89.5867 10.7812L97.1282 23.5045Z" fill="#00257D"/>
<path d="M83.954 74.2347C77.9829 74.2347 72.8748 72.5545 69.3141 70.9181C64.2443 68.5875 61.1309 65.8384 61.1001 65.8109C57.3688 61.6929 55.2753 56.8126 54.6907 50.8822C53.9547 43.4104 55.6784 34.054 59.8149 23.0768C59.8203 23.0625 59.8286 23.0495 59.8391 23.0385C59.8497 23.0275 59.8624 23.0189 59.8765 23.013L89.5455 10.6775C89.5702 10.6672 89.5979 10.6662 89.6233 10.6746C89.6487 10.6831 89.6703 10.7005 89.684 10.7236L97.1874 23.3819L106.459 22.0231C106.484 22.0195 106.509 22.0243 106.531 22.0368C106.552 22.0492 106.569 22.0686 106.578 22.0918L112.629 37.0279C112.637 37.0472 112.64 37.0684 112.636 37.089C108.822 59.4275 102.425 69.6875 89.82 73.6826C87.8863 74.0507 85.9223 74.2355 83.954 74.2347ZM60.0074 23.2011C52.556 42.9968 52.9539 56.4855 61.2565 65.6521C61.2788 65.6709 64.3724 68.4016 69.4138 70.7176C74.0627 72.8538 81.3676 75.064 89.7656 73.4663C102.258 69.5067 108.613 59.3022 112.411 37.0829L106.405 22.258L97.1457 23.6148C97.1239 23.6179 97.1017 23.6145 97.0819 23.605C97.062 23.5954 97.0454 23.5803 97.0342 23.5613L89.5415 10.9215L60.0074 23.2011Z" fill="#00257D"/>
<path d="M100.319 55.8945C104.453 40.2186 99.0448 25.1873 88.24 22.3212C77.4352 19.4552 65.3252 29.8396 61.1916 45.5156C57.058 61.1915 62.4661 76.2228 73.2709 79.0889C84.0757 81.9549 96.1857 71.5705 100.319 55.8945Z" fill="#FFD6B5"/>
<path d="M76.953 79.6795C75.7 79.6805 74.4521 79.5183 73.2407 79.1969C62.3937 76.3199 56.9393 61.1974 61.0822 45.487C65.225 29.7767 77.4212 19.3359 88.2667 22.2132C93.5289 23.6089 97.6902 27.8895 99.9847 34.2662C102.274 40.6286 102.43 48.3198 100.425 55.9231L100.317 55.8945L100.425 55.9231C98.4205 63.5266 94.4922 70.1346 89.3676 74.53C85.4182 77.9167 81.1201 79.6795 76.953 79.6795ZM84.5853 21.9593C74.8888 21.9593 64.9499 31.6905 61.2967 45.5443C57.1856 61.1354 62.5681 76.1351 73.2964 78.9808C78.4847 80.3575 84.1408 78.716 89.2217 74.3598C94.3134 69.9937 98.2153 63.4257 100.209 55.8658C102.202 48.306 102.05 40.6622 99.7746 34.3423C97.5058 28.0365 93.3987 23.8058 88.2096 22.4295C87.0269 22.1162 85.8086 21.9581 84.5853 21.9593Z" fill="#00257D"/>
<path d="M59.8459 54.9278C54.5542 54.9081 54.0439 49.0493 54.5557 46.2183C55.2628 42.3084 59.9654 40.9042 61.4295 44.7235L64.2595 45.2488L62.3747 55.643L59.8459 54.9278Z" fill="#FFD6B5"/>
<path d="M59.9392 55.2459L59.7162 55.2322L59.7278 55.0381C58.098 55.0054 56.7985 54.4177 55.8635 53.2907C54.114 51.1812 54.1497 47.8399 54.4465 46.1993C54.8221 44.121 56.3647 42.5488 58.1966 42.3759C59.5777 42.2464 60.7538 42.9851 61.3999 44.3669L61.4084 44.332L61.6252 44.3834L61.5387 44.7492C61.5332 44.7725 61.5204 44.7935 61.5022 44.809C61.484 44.8244 61.4614 44.8337 61.4375 44.8353C61.4137 44.8369 61.39 44.8308 61.3699 44.8179C61.3498 44.8049 61.3344 44.7859 61.3259 44.7635C60.7564 43.2777 59.5953 42.4683 58.2175 42.5978C56.7996 42.7321 55.0838 43.9278 54.666 46.238C54.3761 47.8417 54.3381 51.1015 56.0351 53.1475C56.948 54.2484 58.2305 54.8099 59.8469 54.8157C59.8621 54.8157 59.8772 54.8188 59.8911 54.8248C59.9051 54.8309 59.9177 54.8397 59.9282 54.8508C59.9386 54.8619 59.9467 54.8751 59.9519 54.8894C59.9571 54.9038 59.9593 54.919 59.9584 54.9343L59.9392 55.2459Z" fill="#00257D"/>
<path d="M96.8565 64.7449C101.466 67.3515 104.797 62.5121 105.748 59.7972C107.061 56.0479 103.665 52.4954 100.51 55.0895L97.79 54.1426L94.3047 64.1124L96.8565 64.7449Z" fill="#FFD6B5"/>
<path d="M99.4716 65.6045C98.5707 65.5897 97.688 65.3472 96.9053 64.8994L96.8199 65.0741L96.6191 64.9754L96.7561 64.6953C96.7628 64.6817 96.7722 64.6696 96.7837 64.6597C96.7953 64.6498 96.8087 64.6424 96.8232 64.6379C96.8376 64.6334 96.8529 64.6319 96.868 64.6335C96.8831 64.6351 96.8977 64.6398 96.9109 64.6472C98.3185 65.4434 99.7096 65.5915 101.047 65.0873C103.53 64.1502 105.104 61.2979 105.643 59.7602C106.418 57.5455 105.516 55.6541 104.349 54.8349C103.216 54.0387 101.806 54.1667 100.579 55.176C100.562 55.191 100.539 55.2 100.516 55.2015C100.493 55.203 100.47 55.1971 100.45 55.1845C100.43 55.1722 100.415 55.1541 100.406 55.1326C100.397 55.1111 100.395 55.0873 100.4 55.0646L100.486 54.683L100.704 54.7329L100.686 54.812C101.935 53.9134 103.333 53.8483 104.478 54.6517C105.985 55.7102 106.551 57.8415 105.853 59.8345C105.302 61.4087 103.686 64.3309 101.124 65.2967C100.597 65.4988 100.037 65.6031 99.4716 65.6045Z" fill="#00257D"/>
<path d="M73.8536 54.3884C73.1816 47.867 69.1108 45.0823 63.3574 44.2061C63.6017 49.7826 67.3865 52.9849 73.8536 54.3884Z" fill="white"/>
<path d="M69.2328 52.2691C69.8907 52.6341 70.6583 52.7478 71.3934 52.589C72.1284 52.4302 72.7813 52.0097 73.2311 51.4054C72.6212 49.4651 71.4048 47.7732 69.7618 46.5801C69.1874 46.7701 68.6808 47.124 68.304 47.5985C67.9272 48.073 67.6965 48.6475 67.6404 49.2515C67.5842 49.8555 67.705 50.4628 67.9878 50.999C68.2707 51.5352 68.7033 51.977 69.2328 52.2702V52.2691Z" fill="#00257D"/>
<path d="M73.8528 54.5007C73.8453 54.5007 73.8378 54.4998 73.8305 54.4981C67.0417 53.025 63.4813 49.5642 63.2462 44.2114C63.2455 44.1949 63.2484 44.1785 63.2548 44.1632C63.2612 44.148 63.2709 44.1344 63.2831 44.1233C63.2954 44.1123 63.3099 44.1041 63.3257 44.0994C63.3415 44.0947 63.3582 44.0935 63.3745 44.096C69.89 45.0877 73.3543 48.4506 73.965 54.3773C73.9666 54.3929 73.965 54.4087 73.9601 54.4236C73.9552 54.4386 73.9473 54.4523 73.9367 54.464C73.9262 54.4756 73.9134 54.4849 73.899 54.4913C73.8847 54.4976 73.8692 54.5008 73.8535 54.5007H73.8528ZM63.4746 44.3381C63.7576 49.5307 67.1124 52.7737 73.7254 54.2464C73.0873 48.5714 69.7325 45.3288 63.4746 44.3381Z" fill="#00257D"/>
<path d="M84.9531 56.9464C88.5116 51.4466 93.4002 50.8254 98.9203 52.6723C96.1718 57.5262 91.3484 58.6494 84.9531 56.9464Z" fill="white"/>
<path d="M90.5099 52.2656C90.1886 52.7558 90.0114 53.3268 89.9988 53.9133C89.9861 54.4998 90.1385 55.078 90.4383 55.5817C90.7382 56.0853 91.1736 56.494 91.6944 56.761C92.2152 57.0279 92.8005 57.1423 93.3831 57.091C93.9658 57.0396 94.5222 56.8247 94.9887 56.4708C95.4552 56.1169 95.8128 55.6384 96.0206 55.09C96.2284 54.5416 96.2779 53.9456 96.1635 53.3703C96.0491 52.795 95.7755 52.2637 95.3738 51.8372C93.7412 51.604 92.077 51.7506 90.5099 52.2656Z" fill="#00257D"/>
<path d="M90.0307 57.7944C88.304 57.7697 86.5878 57.5212 84.9247 57.0548C84.9077 57.0503 84.892 57.0418 84.8788 57.03C84.8657 57.0182 84.8556 57.0034 84.8492 56.9869C84.8429 56.9704 84.8406 56.9526 84.8424 56.935C84.8443 56.9174 84.8502 56.9005 84.8598 56.8857C88.094 51.8873 92.7047 50.4741 98.9562 52.5662C98.9719 52.5716 98.9862 52.5804 98.9981 52.592C99.01 52.6036 99.0192 52.6177 99.0251 52.6333C99.031 52.6487 99.0334 52.6653 99.0322 52.6818C99.031 52.6982 99.0261 52.7142 99.018 52.7286C97.1076 56.1003 94.0949 57.7944 90.0307 57.7944ZM85.1315 56.8772C91.689 58.585 96.1474 57.2289 98.7557 52.7347C92.7342 50.7607 88.2753 52.1163 85.1315 56.8781V56.8772Z" fill="#00257D"/>
<path d="M74.7637 59.1299L74.9484 59.0049L76.3841 61.1383L76.1994 61.2633L74.7637 59.1299Z" fill="#00257D"/>
<path d="M79.4219 61.9922L81.7713 60.8574L81.8679 61.0588L79.5186 62.1935L79.4219 61.9922Z" fill="#00257D"/>
<path d="M72.8066 66.8432L74.9697 65.1533L76.4786 66.8615L78.7197 66.1479L79.7908 68.6557L75.3886 70.9956L72.8066 66.8432Z" fill="#CC1D37"/>
<path d="M80.0644 68.7649C76.1141 68.7649 72.6125 67.3866 69.4375 64.5979L69.5843 64.4297C73.7137 68.0564 78.2013 69.2465 83.7029 68.1736L83.7455 68.3933C82.5332 68.6352 81.3005 68.7596 80.0644 68.7649Z" fill="#00257D"/>
<path d="M75.3885 71.1071C75.3696 71.107 75.3511 71.1022 75.3346 71.093C75.3181 71.0838 75.3042 71.0705 75.2941 71.0545L72.7122 66.9019C72.6976 66.8784 72.6922 66.8503 72.697 66.8231C72.7018 66.7959 72.7166 66.7714 72.7383 66.7544L74.9018 65.0646C74.9242 65.0471 74.9523 65.0389 74.9805 65.0415C75.0087 65.0441 75.0349 65.0574 75.0537 65.0787L76.5144 66.7325L78.6866 66.041C78.713 66.0326 78.7416 66.0343 78.7668 66.0459C78.792 66.0574 78.812 66.0779 78.8229 66.1034L79.8935 68.6112C79.9045 68.637 79.9055 68.666 79.8961 68.6925C79.8868 68.719 79.8679 68.741 79.8431 68.7541L75.442 71.0941C75.4255 71.1028 75.4071 71.1073 75.3885 71.1071ZM72.9547 66.8696L75.4282 70.8482L79.6479 68.6054L78.6572 66.2858L76.5124 66.9683C76.4919 66.9748 76.4699 66.9753 76.4491 66.9696C76.4283 66.9639 76.4096 66.9522 76.3953 66.9361L74.9558 65.3064L72.9547 66.8696Z" fill="#00257D"/>
<path d="M90.2117 41.6396L87.7344 45.0668L97.9279 51.0069L98.7536 48.5794L90.2117 41.6396Z" fill="#00257D"/>
<path d="M97.928 51.1182C97.9083 51.1181 97.889 51.1129 97.872 51.103L87.6789 45.1632C87.6654 45.1553 87.6536 45.1447 87.6444 45.1321C87.6352 45.1194 87.6288 45.1049 87.6255 45.0896C87.6222 45.0742 87.6222 45.0584 87.6255 45.043C87.6287 45.0277 87.6351 45.0132 87.6443 45.0005L90.1217 41.5736C90.1306 41.5613 90.1419 41.5509 90.1549 41.5431C90.1679 41.5353 90.1824 41.5303 90.1974 41.5283C90.2124 41.5263 90.2277 41.5274 90.2423 41.5316C90.2569 41.5357 90.2705 41.5428 90.2823 41.5523L98.8248 48.4921C98.8426 48.5065 98.8555 48.5259 98.8619 48.5479C98.8683 48.5699 98.8678 48.5932 98.8605 48.6149L98.0348 51.0423C98.0294 51.0581 98.0206 51.0724 98.009 51.0843C97.9975 51.0962 97.9834 51.1054 97.9679 51.1112C97.9551 51.1159 97.9416 51.1182 97.928 51.1182ZM87.897 45.0318L97.8671 50.841L98.6237 48.6167L90.2334 41.8004L87.897 45.0318Z" fill="#00257D"/>
<path d="M100.51 55.2014C100.501 55.2014 100.491 55.2002 100.482 55.1978C100.456 55.1911 100.433 55.1749 100.418 55.1522C100.402 55.1296 100.396 55.1021 100.399 55.075C101.848 43.9812 93.6424 36.9242 93.5594 36.8542C93.5432 36.8406 93.5311 36.8226 93.5247 36.8023C93.5183 36.7821 93.5178 36.7604 93.5232 36.7399L96.7438 24.5256C96.7489 24.5063 96.7591 24.4886 96.7733 24.4746C96.7875 24.4605 96.8052 24.4506 96.8246 24.4457C96.844 24.4409 96.8643 24.4413 96.8834 24.447C96.9025 24.4527 96.9198 24.4635 96.9334 24.4782L107.825 36.2571C107.839 36.2725 107.848 36.2916 107.852 36.3122C107.856 36.3328 107.854 36.3541 107.847 36.3737L100.614 55.1294C100.606 55.1505 100.592 55.1687 100.573 55.1816C100.554 55.1944 100.532 55.2013 100.51 55.2014ZM93.7566 36.7298C94.4551 37.3499 101.624 43.9931 100.714 54.2497L107.614 36.3585L96.9077 24.7795L93.7566 36.7298Z" fill="#00257D"/>
<path d="M85.8553 15.1162L72.4477 22.9092C63.8202 27.7927 58.9512 40.6439 58.9512 40.6439L62.5103 41.2011C64.8732 39.4298 66.1169 38.5911 68.3727 36.5928C67.231 39.2996 66.8291 40.2976 65.9284 41.738L72.0329 42.6937C74.3834 40.7782 76.6337 38.7422 78.7748 36.5939C77.6119 39.1079 76.4748 41.3532 75.3736 43.2147L77.5595 43.5569C82.5964 41.0291 85.2785 36.8527 89.3219 32.384L93.6299 36.7686L97.0088 23.953L85.8553 15.1162Z" fill="#00257D"/>
<path d="M77.5602 43.6695C77.5544 43.6695 77.5486 43.669 77.5428 43.6681L75.357 43.3259C75.339 43.3231 75.322 43.3159 75.3074 43.3049C75.2928 43.294 75.2811 43.2796 75.2733 43.263C75.2656 43.2465 75.262 43.2283 75.2628 43.2101C75.2637 43.1918 75.269 43.174 75.2783 43.1583C76.2505 41.5141 77.2783 39.5303 78.4125 37.1073C76.168 39.3126 74.0997 41.1718 72.103 42.7794C72.0909 42.7891 72.0769 42.7962 72.0619 42.8002C72.0469 42.8043 72.0312 42.8052 72.0158 42.8029L65.9114 41.8472C65.8931 41.8443 65.8759 41.837 65.8612 41.8258C65.8465 41.8147 65.8348 41.8 65.8271 41.7832C65.8195 41.7663 65.8161 41.7479 65.8173 41.7294C65.8185 41.711 65.8242 41.6931 65.834 41.6774C66.6762 40.3316 67.0852 39.3609 68.0731 37.0163L68.0809 36.9984C66.4797 38.3963 65.3749 39.2146 63.8859 40.3175C63.4833 40.6159 63.0531 40.9345 62.5773 41.2913C62.5654 41.3002 62.5518 41.3067 62.5374 41.3103C62.5229 41.3139 62.5079 41.3146 62.4932 41.3123L58.9343 40.7553C58.9179 40.7527 58.9023 40.7465 58.8885 40.7371C58.8748 40.7278 58.8633 40.7154 58.855 40.701C58.8466 40.6866 58.8416 40.6705 58.8402 40.6539C58.8389 40.6372 58.8412 40.6205 58.8471 40.605C58.8962 40.4761 63.8297 27.6596 72.3932 22.8126L85.8004 15.02C85.8203 15.0084 85.8434 15.0033 85.8664 15.0053C85.8895 15.0074 85.9113 15.0166 85.9288 15.0317L96.9249 24.47C96.9408 24.4837 96.9526 24.5016 96.9588 24.5217C96.965 24.5418 96.9655 24.5633 96.9601 24.5837L93.7396 36.7979C93.7346 36.817 93.7246 36.8345 93.7107 36.8484C93.6968 36.8624 93.6794 36.8724 93.6604 36.8775C93.6413 36.8826 93.6213 36.8825 93.6023 36.8773C93.5833 36.8721 93.566 36.8619 93.5522 36.8478L89.3271 32.548C88.4332 33.5395 87.6041 34.5166 86.8016 35.4638C83.9649 38.8097 81.5155 41.6993 77.6109 43.6581C77.5951 43.6658 77.5778 43.6697 77.5602 43.6695ZM75.5529 43.1304L77.5408 43.4415C81.3863 41.5036 83.8166 38.6368 86.6299 35.3186C87.4571 34.3428 88.3123 33.3339 89.2395 32.3097C89.2496 32.2984 89.2619 32.2893 89.2757 32.283C89.2895 32.2767 89.3044 32.2733 89.3195 32.2731C89.3348 32.2718 89.3502 32.2741 89.3644 32.2799C89.3787 32.2857 89.3913 32.2948 89.4014 32.3064L93.5748 36.5507L96.7272 24.5942L85.845 15.2534L72.5047 23.0068C64.4712 27.554 59.6472 39.1985 59.1068 40.5557L62.4825 41.0839C62.9438 40.7383 63.3624 40.4282 63.7539 40.1379C65.3292 39.0057 66.8464 37.7943 68.2997 36.5085C68.3186 36.4917 68.3427 36.4818 68.368 36.4805C68.3932 36.4792 68.4182 36.4866 68.4387 36.5014C68.4592 36.5162 68.4742 36.5375 68.481 36.562C68.4878 36.5864 68.4862 36.6124 68.4764 36.6358L68.2792 37.1033C67.3217 39.3761 66.9052 40.364 66.113 41.6521L72.0025 42.574C74.3366 40.6707 76.5714 38.6478 78.6978 36.5136C78.7163 36.4951 78.7408 36.4838 78.7669 36.4815C78.7929 36.4793 78.8189 36.4863 78.8404 36.5014C78.8618 36.5164 78.8773 36.5386 78.8841 36.5639C78.8908 36.5893 78.8885 36.6162 78.8775 36.64C77.6682 39.2553 76.5802 41.3808 75.5544 43.1304H75.5529Z" fill="#00257D"/>
<path d="M62.4932 41.3118L58.9343 40.7548C58.9178 40.7522 58.9022 40.746 58.8884 40.7366C58.8747 40.7272 58.8632 40.7148 58.8548 40.7003C58.8465 40.6858 58.8415 40.6697 58.8402 40.653C58.8389 40.6364 58.8413 40.6196 58.8473 40.604C62.2376 31.7692 68.0483 26.1527 68.1067 26.0977L68.2604 26.2598C68.2026 26.3149 62.4836 31.8442 59.1054 40.5546L62.5275 41.0915L62.4932 41.3118Z" fill="white"/>
<path d="M93.6309 36.7681C93.6309 36.7681 101.983 43.802 100.51 55.0895L107.743 36.3339L96.8516 24.5547L93.6309 36.769" fill="#00257D"/>
<path d="M94.0938 34.5732L96.9035 23.9244L97.1191 23.9816L94.3094 34.6305L94.0938 34.5732Z" fill="white"/>
<path d="M106.269 49.6301L106.135 49.4512C106.172 49.4237 109.848 46.6728 110.671 45.6963L110.841 45.8406C110.002 46.8361 106.42 49.5167 106.269 49.6301Z" fill="white"/>
<path d="M57.9869 29.0315L57.7734 28.9673C58.4524 26.7039 59.8 23.1125 59.8134 23.0765C59.8188 23.0622 59.827 23.0492 59.8376 23.0382C59.8482 23.0273 59.8609 23.0186 59.8749 23.0127L77.1211 15.8428L77.2065 16.0495L60.0059 23.2009C59.8466 23.6248 58.623 26.9135 57.9869 29.0315Z" fill="white"/>
<path d="M104.203 45.9352L104.08 45.7482C104.137 45.7108 109.78 41.9636 112.403 37.0642L106.983 23.6839L107.19 23.5996L112.629 37.0282C112.636 37.0434 112.638 37.0597 112.638 37.0761C112.637 37.0925 112.632 37.1085 112.625 37.123C109.985 42.0964 104.259 45.8974 104.203 45.9352Z" fill="white"/>
<path d="M59.1174 49.6984L56.6621 45.0473L56.8591 44.9424L59.3143 49.5934L59.1174 49.6984Z" fill="#00257D"/>
<path d="M57.8438 51.5898L59.8201 48.4944L60.0079 48.6151L58.0316 51.7105L57.8438 51.5898Z" fill="#00257D"/>
<path d="M56.041 48.5508L57.4291 46.3768L57.6169 46.4974L56.2288 48.6714L56.041 48.5508Z" fill="#00257D"/>
<path d="M99.8691 60.3516L104.296 57.5254L104.415 57.7141L99.9889 60.5403L99.8691 60.3516Z" fill="#00257D"/>
<path d="M99.752 59.1562L99.9745 59.1447L100.164 62.8155L99.9417 62.827L99.752 59.1562Z" fill="#00257D"/>
<path d="M102.873 58.501L103.096 58.4894L103.229 61.0675L103.006 61.0791L102.873 58.501Z" fill="#00257D"/>
<path d="M89.2736 83.191L79.1481 96.5641L65.2315 87.0779L58.3516 87.311L80.4319 103.845L95.5748 80.6504L89.2736 83.191Z" fill="#FFAA00"/>
<path d="M106.125 110.625L106.04 109.095C105.983 109.19 105.938 109.292 105.908 109.399C105.852 109.607 105.842 109.824 105.88 110.036C105.918 110.248 106.001 110.449 106.125 110.625Z" fill="#FFAA00"/>
<path d="M97.9152 87.1862C97.66 86.2514 96.3876 86.1462 95.925 86.1395C95.7885 85.7639 95.2781 84.5664 94.3269 84.5664C93.3805 84.5664 92.8708 85.7521 92.731 86.1337C92.6993 86.1337 92.6623 86.1317 92.6208 86.1317C92.1455 86.1317 91.0109 86.2344 90.7394 87.1849C90.4495 88.2007 91.4086 88.9687 91.7358 89.1969C91.6194 89.5761 91.3361 90.7604 92.1029 91.4013C92.3144 91.5783 92.5825 91.6729 92.8579 91.6677C93.4824 91.6677 94.1069 91.2487 94.3351 91.0771C94.5765 91.2288 95.2297 91.5997 95.8585 91.5997C96.098 91.6052 96.3338 91.5401 96.5368 91.4125C97.3156 90.906 97.0206 89.5826 96.9128 89.1926C97.2191 88.9539 98.1708 88.1233 97.9152 87.1862ZM94.9797 88.481C94.9797 88.481 95.8103 89.2743 95.3324 89.6611C94.8544 90.0479 94.3224 88.9562 94.3224 88.9562C94.3224 88.9562 93.7454 90.0362 93.3111 89.6611C92.8769 89.2859 93.6535 88.4419 93.6535 88.4419C93.6535 88.4419 92.4714 88.3077 92.6866 87.7332C92.9018 87.1587 93.9278 87.6884 93.9278 87.6884C93.9278 87.6884 93.7168 86.5424 94.3217 86.5424C94.9266 86.5424 94.7292 87.6978 94.7292 87.6978C94.7292 87.6978 95.7329 87.1609 95.956 87.7341C96.179 88.3072 94.9797 88.481 94.9797 88.481Z" fill="#FFAA00"/>
<path d="M97.9152 116.805C97.66 115.87 96.3876 115.764 95.925 115.758C95.7885 115.382 95.2781 114.185 94.3269 114.185C93.3805 114.185 92.8708 115.37 92.731 115.752C92.6993 115.752 92.6623 115.75 92.6208 115.75C92.1455 115.75 91.0109 115.853 90.7394 116.803C90.4495 117.819 91.4086 118.587 91.7358 118.815C91.6194 119.194 91.3361 120.379 92.1029 121.02C92.3145 121.197 92.5825 121.291 92.8579 121.286C93.4824 121.286 94.1069 120.867 94.3351 120.695C94.5765 120.847 95.2297 121.218 95.8585 121.218C96.098 121.224 96.3339 121.158 96.5368 121.031C97.3156 120.524 97.0206 119.201 96.9128 118.811C97.2191 118.572 98.1708 117.742 97.9152 116.805ZM94.9797 118.099C94.9797 118.099 95.8103 118.893 95.3324 119.279C94.8544 119.666 94.3224 118.574 94.3224 118.574C94.3224 118.574 93.7454 119.655 93.3111 119.279C92.8769 118.904 93.6535 118.06 93.6535 118.06C93.6535 118.06 92.4714 117.926 92.6866 117.351C92.9018 116.777 93.9278 117.307 93.9278 117.307C93.9278 117.307 93.7168 116.161 94.3217 116.161C94.9266 116.161 94.7292 117.316 94.7292 117.316C94.7292 117.316 95.7329 116.779 95.956 117.352C96.179 117.925 94.9797 118.099 94.9797 118.099Z" fill="#FFAA00"/>
<path d="M97.9152 101.996C97.66 101.061 96.3876 100.956 95.925 100.949C95.7885 100.573 95.2781 99.376 94.3269 99.376C93.3805 99.376 92.8708 100.562 92.731 100.943C92.6993 100.943 92.6623 100.941 92.6208 100.941C92.1455 100.941 91.0109 101.044 90.7394 101.994C90.4495 103.01 91.4086 103.779 91.7358 104.006C91.6194 104.386 91.3361 105.57 92.1029 106.211C92.3145 106.388 92.5825 106.483 92.8579 106.478C93.4824 106.478 94.1069 106.058 94.3351 105.887C94.5765 106.039 95.2297 106.41 95.8585 106.41C96.098 106.415 96.3338 106.35 96.5368 106.222C97.3156 105.716 97.0206 104.392 96.9128 104.002C97.2191 103.764 98.1708 102.933 97.9152 101.996ZM94.9797 103.291C94.9797 103.291 95.8103 104.084 95.3324 104.471C94.8544 104.858 94.3224 103.766 94.3224 103.766C94.3224 103.766 93.7454 104.846 93.3111 104.471C92.8769 104.096 93.6535 103.252 93.6535 103.252C93.6535 103.252 92.4714 103.117 92.6866 102.543C92.9018 101.968 93.9278 102.498 93.9278 102.498C93.9278 102.498 93.7168 101.352 94.3217 101.352C94.9266 101.352 94.7292 102.508 94.7292 102.508C94.7292 102.508 95.7329 101.971 95.956 102.544C96.179 103.117 94.9797 103.291 94.9797 103.291Z" fill="#FFAA00"/>
<path d="M82.7492 109.4C82.494 108.465 81.2216 108.36 80.759 108.353C80.6225 107.978 80.1121 106.78 79.1609 106.78C78.2145 106.78 77.7048 107.966 77.565 108.348C77.5333 108.348 77.4963 108.346 77.4548 108.346C76.9795 108.346 75.8449 108.448 75.5734 109.399C75.2835 110.415 76.2426 111.183 76.5698 111.411C76.4533 111.79 76.1701 112.974 76.9369 113.615C77.1484 113.792 77.4165 113.887 77.6919 113.882C78.3164 113.882 78.9398 113.463 79.1691 113.291C79.4104 113.443 80.0637 113.814 80.6925 113.814C80.932 113.819 81.1678 113.754 81.3708 113.626C82.1496 113.12 81.8546 111.796 81.7468 111.406C82.0531 111.168 83.0048 110.337 82.7492 109.4ZM79.8137 110.695C79.8137 110.695 80.6443 111.488 80.1663 111.875C79.6884 112.262 79.1564 111.17 79.1564 111.17C79.1564 111.17 78.5794 112.25 78.1451 111.875C77.7109 111.5 78.4875 110.656 78.4875 110.656C78.4875 110.656 77.3054 110.522 77.5206 109.947C77.7358 109.373 78.7618 109.902 78.7618 109.902C78.7618 109.902 78.5508 108.756 79.1557 108.756C79.7606 108.756 79.5632 109.912 79.5632 109.912C79.5632 109.912 80.5669 109.375 80.79 109.948C81.013 110.521 79.8137 110.695 79.8137 110.695Z" fill="#FFAA00"/>
<path d="M82.7492 124.21C82.494 123.275 81.2216 123.17 80.759 123.163C80.6225 122.787 80.1121 121.59 79.1609 121.59C78.2145 121.59 77.7048 122.775 77.565 123.157C77.5333 123.156 77.4963 123.155 77.4548 123.155C76.9795 123.155 75.8449 123.258 75.5734 124.208C75.2835 125.224 76.2426 125.992 76.5698 126.22C76.4533 126.601 76.1701 127.784 76.9369 128.425C77.1485 128.602 77.4165 128.696 77.6919 128.691C78.3164 128.691 78.9398 128.272 79.1691 128.101C79.4104 128.252 80.0637 128.623 80.6925 128.623C80.932 128.629 81.1678 128.564 81.3708 128.436C82.1496 127.93 81.8546 126.606 81.7468 126.216C82.0531 125.978 83.0048 125.147 82.7492 124.21ZM79.8137 125.505C79.8137 125.505 80.6443 126.298 80.1663 126.685C79.6884 127.072 79.1564 125.98 79.1564 125.98C79.1564 125.98 78.5794 127.06 78.1451 126.685C77.7109 126.31 78.4875 125.466 78.4875 125.466C78.4875 125.466 77.3054 125.331 77.5206 124.757C77.7358 124.182 78.7618 124.712 78.7618 124.712C78.7618 124.712 78.5508 123.566 79.1557 123.566C79.7606 123.566 79.5632 124.721 79.5632 124.721C79.5632 124.721 80.5669 124.185 80.79 124.758C81.013 125.33 79.8137 125.505 79.8137 125.505Z" fill="#FFAA00"/>
<path d="M61.4028 89.1975C61.2864 89.5767 61.0031 90.761 61.77 91.4019C61.9815 91.5789 62.2495 91.6735 62.525 91.6683C63.1495 91.6683 63.7729 91.2494 64.0022 91.0778C64.2435 91.2294 64.8968 91.6003 65.5256 91.6003C65.7651 91.6059 66.0009 91.5408 66.2038 91.4131C66.68 91.1035 66.7541 90.489 66.7157 89.9686L64.8892 88.4309C64.75 88.4662 64.6468 88.4817 64.6468 88.4817C64.6468 88.4817 65.4774 89.2749 64.9994 89.6617C64.5214 90.0485 63.9895 88.9568 63.9895 88.9568C63.9895 88.9568 63.4125 90.0369 62.9782 89.6617C62.5439 89.2866 63.3206 88.4425 63.3206 88.4425C63.3206 88.4425 62.1384 88.3083 62.3537 87.7338C62.5689 87.1594 63.5949 87.6891 63.5949 87.6891C63.5744 87.5647 63.5628 87.4389 63.5601 87.3128L63.358 87.1426L60.3945 87.243C60.1554 88.2296 61.0812 88.9738 61.4028 89.1975Z" fill="#FFAA00"/>
<path d="M62.5252 121.286C63.1497 121.286 63.7731 120.867 64.0024 120.695C64.2437 120.847 64.897 121.218 65.5258 121.218C65.7653 121.224 66.0011 121.158 66.2041 121.031C66.9829 120.524 66.6878 119.201 66.5801 118.811C66.8864 118.572 67.8381 117.742 67.5825 116.805C67.3269 115.868 66.0548 115.764 65.5923 115.758C65.4558 115.382 64.9454 114.185 63.9942 114.185C63.0478 114.185 62.5381 115.37 62.3983 115.752C62.3666 115.752 62.3296 115.75 62.2881 115.75C61.9042 115.745 61.5232 115.818 61.168 115.964L62.2609 121.256C62.3477 121.275 62.4363 121.285 62.5252 121.286ZM62.3539 117.351C62.5682 116.776 63.5951 117.307 63.5951 117.307C63.5951 117.307 63.3841 116.161 63.989 116.161C64.5939 116.161 64.3965 117.316 64.3965 117.316C64.3965 117.316 65.4002 116.779 65.6233 117.352C65.8463 117.925 64.6463 118.1 64.6463 118.1C64.6463 118.1 65.4769 118.894 64.999 119.28C64.521 119.667 63.989 118.575 63.989 118.575C63.989 118.575 63.412 119.656 62.9777 119.28C62.5435 118.905 63.3201 118.061 63.3201 118.061C63.3201 118.061 62.1393 117.926 62.3539 117.351Z" fill="#FFAA00"/>
<path d="M67.5817 131.615C67.3265 130.68 66.0541 130.575 65.5915 130.568C65.455 130.193 64.9446 128.995 63.9934 128.995C63.9492 128.996 63.9051 128.999 63.8613 129.005L64.3036 131.146C64.3961 131.33 64.4384 131.534 64.4261 131.739L64.4961 132.077C64.7553 131.959 65.4429 131.699 65.6231 132.162C65.8301 132.692 64.8202 132.881 64.6672 132.906L64.6736 132.937C64.8108 133.077 65.4255 133.745 64.9988 134.09C64.9751 134.109 64.9492 134.125 64.9217 134.137L65.3093 136.014C65.3809 136.023 65.4529 136.028 65.525 136.028C65.7645 136.034 66.0003 135.969 66.2033 135.841C66.9821 135.335 66.6871 134.011 66.5793 133.621C66.8856 133.383 67.8373 132.552 67.5817 131.615Z" fill="#FFAA00"/>
<path d="M80.4312 103.957C80.407 103.957 80.3835 103.949 80.3643 103.934L58.283 87.3999C58.2645 87.3861 58.2508 87.3668 58.2437 87.3448C58.2366 87.3227 58.2365 87.299 58.2434 87.2769C58.2503 87.2548 58.2638 87.2354 58.2822 87.2214C58.3006 87.2074 58.3228 87.1994 58.3459 87.1986L65.2261 86.9657C65.2499 86.9649 65.2734 86.9717 65.293 86.9852L79.1217 96.4112L89.183 83.1231C89.1952 83.1071 89.2115 83.0946 89.2302 83.0871L95.5314 80.5465C95.5534 80.538 95.5774 80.5368 95.6001 80.5428C95.6229 80.5489 95.6431 80.562 95.6579 80.5803C95.6728 80.5986 95.6815 80.6211 95.6828 80.6446C95.6841 80.6682 95.678 80.6915 95.6653 80.7114L80.5244 103.906C80.5161 103.919 80.5053 103.93 80.4925 103.938C80.4798 103.947 80.4654 103.952 80.4504 103.955C80.444 103.956 80.4376 103.957 80.4312 103.957ZM58.672 87.4113L80.4029 103.684L95.2861 80.8863L89.3429 83.2826L79.2363 96.6311C79.219 96.6539 79.1936 96.6692 79.1654 96.6738C79.1372 96.6784 79.1083 96.6719 79.0847 96.6557L65.1982 87.1905L58.672 87.4113Z" fill="#00257D"/>
<path d="M65.2359 87.1894L65.2285 86.9657L68.9928 86.8382L67.7781 76.3617L67.9998 76.3359L69.2284 86.9329C69.2302 86.9482 69.2288 86.9638 69.2242 86.9786C69.2197 86.9934 69.2122 87.0071 69.2021 87.0188C69.1921 87.0306 69.1797 87.0401 69.1658 87.0468C69.1519 87.0534 69.1367 87.0572 69.1213 87.0577L65.2359 87.1894Z" fill="#00257D"/>
<path d="M84.9525 85.0443C84.9251 85.0445 84.8985 85.0345 84.8779 85.0163C84.8573 84.998 84.8442 84.9728 84.841 84.9454L84.0195 77.8609L84.2426 77.835L85.0469 84.7741L90.7811 82.4619L90.8643 82.6695L84.9942 85.0363C84.981 85.0416 84.9668 85.0443 84.9525 85.0443Z" fill="#00257D"/>
<path d="M57.3164 134.376L109.5 121.5L112 134.376L65.2318 145.247L57.3164 134.376Z" fill="#CC1D37"/>
<path d="M64.67 118.122V118.097L64.6484 118.1L64.67 118.122Z" fill="#FFAA00"/>
<path d="M52.4152 109.401C52.16 108.466 50.8876 108.361 50.425 108.354C50.2885 107.979 49.7782 106.781 48.8269 106.781C47.8805 106.781 47.3708 107.967 47.231 108.349C47.1993 108.349 47.1623 108.347 47.1208 108.347C46.6455 108.347 45.5109 108.449 45.2394 109.4C44.9495 110.416 45.9086 111.184 46.2358 111.412C46.1193 111.791 45.8361 112.975 46.6029 113.616C46.8144 113.793 47.0825 113.888 47.3579 113.883C47.9824 113.883 48.6058 113.464 48.8351 113.292C49.0765 113.444 49.7297 113.815 50.3585 113.815C50.598 113.82 50.8338 113.755 51.0368 113.627C51.8157 113.121 51.5206 111.797 51.4128 111.407C51.7191 111.169 52.6708 110.338 52.4152 109.401ZM49.4797 110.696C49.4797 110.696 50.3103 111.489 49.8323 111.876C49.3544 112.263 48.8224 111.171 48.8224 111.171C48.8224 111.171 48.2454 112.251 47.8111 111.876C47.3769 111.501 48.1535 110.657 48.1535 110.657C48.1535 110.657 46.9714 110.522 47.1866 109.948C47.4018 109.374 48.4278 109.903 48.4278 109.903C48.4278 109.903 48.2168 108.757 48.8217 108.757C49.4266 108.757 49.2292 109.913 49.2292 109.913C49.2292 109.913 50.2329 109.376 50.456 109.949C50.679 110.522 49.4797 110.696 49.4797 110.696Z" fill="#FFAA00"/>
<path d="M46.2342 96.6021C46.1178 96.9824 45.8345 98.1656 46.6014 98.8067C46.8129 98.9836 47.081 99.0782 47.3564 99.0732C47.9809 99.0732 48.6043 98.654 48.8336 98.4824C49.0749 98.6343 49.7282 99.0052 50.357 99.0052C50.5965 99.0106 50.8323 98.9454 51.0352 98.8177C51.8141 98.3112 51.519 96.988 51.4113 96.5979C51.7175 96.3594 52.6693 95.5288 52.4136 94.5917C52.158 93.6546 50.886 93.5515 50.4234 93.545C50.2869 93.1692 49.7766 91.9717 48.8253 91.9717C47.879 91.9717 47.3693 93.1573 47.2295 93.5389C47.1978 93.5389 47.1608 93.5372 47.1193 93.5372C46.7427 93.5327 46.3689 93.6025 46.0192 93.7427L45.3242 95.5771C45.5369 95.9901 45.8498 96.3426 46.2342 96.6021ZM47.1851 95.1384C47.3994 94.5633 48.4263 95.0937 48.4263 95.0937C48.4263 95.0937 48.2153 93.9479 48.8202 93.9479C49.4251 93.9479 49.2277 95.1033 49.2277 95.1033C49.2277 95.1033 50.2314 94.5664 50.4544 95.1393C50.6775 95.7122 49.4775 95.8872 49.4775 95.8872C49.4775 95.8872 50.3081 96.6804 49.8301 97.0674C49.3522 97.4545 48.8202 96.3623 48.8202 96.3623C48.8202 96.3623 48.2432 97.4426 47.8089 97.0674C47.3747 96.6923 48.1513 95.848 48.1513 95.848C48.1513 95.848 46.9705 95.7136 47.1851 95.1384Z" fill="#FFAA00"/>
<path d="M46.2359 126.22C46.1194 126.601 45.8362 127.784 46.603 128.425C46.8146 128.602 47.0826 128.696 47.358 128.691C47.9825 128.691 48.6059 128.272 48.8352 128.101C49.0765 128.252 49.7298 128.623 50.3586 128.623C50.5981 128.629 50.8339 128.564 51.0369 128.436C51.8157 127.93 51.5207 126.606 51.4129 126.216C51.7192 125.978 52.6709 125.147 52.4153 124.21C52.1597 123.273 50.8877 123.17 50.4251 123.163C50.2886 122.787 49.7782 121.59 48.827 121.59C47.8806 121.59 47.3709 122.775 47.2311 123.157C47.1994 123.156 47.1624 123.155 47.1209 123.155C46.6456 123.155 45.511 123.258 45.2395 124.208C44.9494 125.224 45.908 125.992 46.2359 126.22ZM47.1867 124.757C47.401 124.181 48.4279 124.712 48.4279 124.712C48.4279 124.712 48.2169 123.566 48.8218 123.566C49.4267 123.566 49.2293 124.721 49.2293 124.721C49.2293 124.721 50.233 124.185 50.4561 124.758C50.6791 125.33 49.4791 125.506 49.4791 125.506C49.4791 125.506 50.3098 126.299 49.8318 126.686C49.3538 127.072 48.8218 125.981 48.8218 125.981C48.8218 125.981 48.2448 127.061 47.8106 126.686C47.3763 126.31 48.1529 125.466 48.1529 125.466C48.1529 125.466 46.9721 125.332 47.1867 124.757Z" fill="#FFAA00"/>
<path d="M33.6599 143.805C32.7136 143.805 32.2039 144.99 32.0641 145.371C32.0324 145.371 31.9954 145.369 31.9539 145.369C31.4899 145.369 30.3997 145.469 30.0957 146.358L30.7838 148.21C30.8747 148.29 30.9698 148.364 31.0688 148.434C31.045 148.511 31.0144 148.624 30.9872 148.757L31.7554 150.825C31.8944 150.878 32.0421 150.905 32.191 150.905C32.8155 150.905 33.44 150.485 33.6682 150.314C33.9095 150.466 34.5628 150.837 35.1916 150.837C35.4311 150.842 35.6669 150.777 35.8698 150.649C35.9324 150.608 35.9899 150.559 36.0414 150.504L36.2952 148.629C36.2776 148.549 36.2602 148.481 36.2459 148.43C36.2704 148.411 36.2999 148.386 36.3318 148.36L36.6886 145.72C36.2466 145.491 35.7554 145.373 35.2576 145.377C35.1215 145.002 34.6117 143.805 33.6599 143.805ZM34.3128 147.72C34.3128 147.72 35.1434 148.513 34.6654 148.9C34.1874 149.286 33.6555 148.195 33.6555 148.195C33.6555 148.195 33.0785 149.275 32.6442 148.9C32.2099 148.524 32.9866 147.68 32.9866 147.68C32.9866 147.68 31.8044 147.546 32.0197 146.971C32.2349 146.397 33.2609 146.927 33.2609 146.927C33.2609 146.927 33.0499 145.781 33.6548 145.781C34.2597 145.781 34.0623 146.934 34.0623 146.934C34.0623 146.934 35.066 146.397 35.289 146.97C35.5121 147.543 34.3128 147.719 34.3128 147.719V147.72Z" fill="#FFAA00"/>
<path d="M31.4351 135.83C31.6467 136.007 31.9147 136.102 32.1901 136.096C32.8147 136.096 33.4392 135.677 33.6674 135.506C33.9087 135.657 34.562 136.028 35.1907 136.028C35.4302 136.034 35.6661 135.969 35.869 135.841C36.6479 135.335 36.3528 134.011 36.2451 133.621C36.5513 133.383 37.503 132.552 37.2474 131.615C36.9918 130.678 35.7198 130.575 35.2572 130.568C35.1207 130.193 34.6104 128.995 33.6591 128.995C32.8921 128.995 32.4118 129.773 32.183 130.272L30.9467 133.536C30.9913 133.571 31.0339 133.602 31.068 133.626C30.952 134.004 30.6688 135.19 31.4351 135.83ZM32.0188 132.161C32.2332 131.586 33.2601 132.116 33.2601 132.116C33.2601 132.116 33.0491 130.971 33.654 130.971C34.2589 130.971 34.0615 132.126 34.0615 132.126C34.0615 132.126 35.0652 131.589 35.2882 132.162C35.5113 132.735 34.3113 132.91 34.3113 132.91C34.3113 132.91 35.1419 133.703 34.6639 134.09C34.1859 134.477 33.654 133.385 33.654 133.385C33.654 133.385 33.077 134.465 32.6427 134.09C32.2084 133.715 32.9851 132.871 32.9851 132.871C32.9851 132.871 31.8047 132.737 32.0193 132.162L32.0188 132.161Z" fill="#FFAA00"/>
<path d="M34.8644 159.305C34.8416 159.305 34.8194 159.298 34.8007 159.285C34.782 159.272 34.7677 159.254 34.7598 159.232L28.0071 141.06C27.9976 141.035 27.9976 141.007 28.0071 140.981L48.2233 87.6104L48.4321 87.6898L28.2308 141.021L34.8135 158.737L37.9337 135.694L38.1545 135.724L34.9748 159.209C34.9715 159.234 34.96 159.257 34.9422 159.274C34.9244 159.291 34.9014 159.302 34.8766 159.305C34.8726 159.305 34.8685 159.305 34.8644 159.305Z" fill="#00257D"/>
<path d="M38.0525 135.821L38.0371 135.597L65.1821 133.72L64.1497 107.987L64.3727 107.978L65.4103 133.819C65.4115 133.848 65.4014 133.876 65.382 133.898C65.3625 133.92 65.3354 133.933 65.3064 133.935L38.0525 135.821Z" fill="#00257D"/>
<path d="M84.9953 85.0366L84.9121 84.829L104.212 77.0472C104.235 77.0381 104.259 77.0366 104.283 77.0429C104.306 77.0491 104.327 77.0628 104.342 77.0818L104.887 77.7791L104.711 77.9174L104.218 77.2859L84.9953 85.0366Z" fill="#00257D"/>
<path d="M48.3025 88.0332L48.0938 87.9538L48.2238 87.6106C48.2316 87.59 48.2453 87.5721 48.2632 87.5592C48.2811 87.5464 48.3024 87.5391 48.3244 87.5384L58.3484 87.1992L58.3557 87.4229L48.4062 87.7585L48.3025 88.0332Z" fill="#00257D"/>
<path d="M64.2953 143.892L111.518 131.942L122 161.5C122 161.5 115 165 109 166.25C103 167.5 97.4999 167.5 92.4999 168.5C89.9429 169.011 89.9999 168.444 79.9999 167.5C74.6552 166.518 67.9999 164.499 67.9999 164.499L64.2953 143.892Z" fill="#FFAA00"/>
<path d="M106.094 112.034L106.309 111.977L108.935 121.915L108.719 121.972L106.094 112.034Z" fill="#00257D"/>
<path d="M166.086 73.9297L166.305 73.8886L168.758 87.0568L168.539 87.0978L166.086 73.9297Z" fill="#00257D"/>
<path d="M155.064 87.5957L160.157 78.1155L160.354 78.2217L155.261 87.7019L155.064 87.5957Z" fill="#00257D"/>
<path d="M38.0442 135.709L61.5331 124.697L57.5222 105.552L65.6693 85.583L69.1173 88.4791L64.8948 102.296L72.8062 92.872L80.7546 90.473L85.6999 104.491L80.6475 106.468L77.94 112.18L79.6971 126.415L73.8536 135.709L40.5831 163.81L35.3164 155.855L38.0442 135.709Z" fill="#FFD6B5"/>
<path d="M40.583 163.923C40.5777 163.923 40.5724 163.923 40.5672 163.923C40.5516 163.921 40.5367 163.915 40.5234 163.907C40.5102 163.898 40.4988 163.887 40.49 163.874L35.2235 155.918C35.2086 155.895 35.2024 155.868 35.2061 155.841L37.9339 135.695C37.9364 135.676 37.9435 135.659 37.9545 135.643C37.9655 135.628 37.9802 135.616 37.997 135.608L61.4059 124.634L57.4134 105.575C57.4089 105.553 57.411 105.531 57.4194 105.51L65.5663 85.5414C65.5729 85.5251 65.5833 85.5105 65.5966 85.499C65.6098 85.4875 65.6256 85.4792 65.6427 85.475C65.6597 85.4707 65.6775 85.4706 65.6946 85.4745C65.7118 85.4785 65.7277 85.4865 65.7412 85.4978L69.1892 88.3938C69.206 88.4079 69.2184 88.4267 69.2246 88.4478C69.2309 88.4689 69.2308 88.4914 69.2244 88.5124L65.1621 101.805L72.7211 92.8006C72.7351 92.784 72.7536 92.7719 72.7744 92.7657L80.7225 90.3667C80.75 90.3583 80.7797 90.3609 80.8053 90.3739C80.831 90.3869 80.8506 90.4093 80.8602 90.4365L85.8055 104.455C85.8151 104.482 85.8137 104.512 85.8016 104.539C85.7896 104.565 85.7678 104.586 85.7408 104.596L80.7295 106.556L78.0547 112.198L79.8078 126.401C79.811 126.427 79.8053 126.453 79.7916 126.474L73.9472 135.769C73.9411 135.779 73.9336 135.788 73.9248 135.795L40.6551 163.896C40.6349 163.914 40.6094 163.923 40.583 163.923ZM35.4327 155.829L40.6073 163.645L73.7687 135.635L79.5814 126.389L77.8297 112.193C77.8271 112.172 77.8306 112.151 77.8397 112.131L80.547 106.422C80.5592 106.396 80.5808 106.376 80.6072 106.365L85.5588 104.428L80.6846 90.6128L72.8701 92.9702L64.9808 102.369C64.9643 102.388 64.9414 102.402 64.9162 102.407C64.8909 102.411 64.8647 102.407 64.8421 102.395C64.8195 102.383 64.8019 102.363 64.7922 102.339C64.7824 102.315 64.7812 102.289 64.7888 102.264L68.9896 88.5178L65.7146 85.7675L57.6385 105.563L61.6423 124.674C61.6475 124.699 61.6442 124.725 61.633 124.747C61.6218 124.77 61.6033 124.788 61.5805 124.799L38.1467 135.785L35.4327 155.829Z" fill="#00257D"/>
<path d="M68.8773 104.663L68.7051 104.521L74.4609 97.5127C74.4739 97.4972 74.4908 97.4854 74.5098 97.4785L82.2534 94.7227L82.3279 94.9336L74.6135 97.6789L68.8773 104.663Z" fill="#00257D"/>
<path d="M72.1799 108.056L72.0117 107.909L77.0679 102.075C77.0805 102.061 77.0966 102.05 77.1147 102.043L83.9751 99.6016L84.0496 99.8127L77.2169 102.244L72.1799 108.056Z" fill="#00257D"/>
</g>
<defs>
<clipPath id="clip0_720_2033">
<rect width="154" height="162" fill="white" transform="translate(28 6)"/>
</clipPath>
</defs>
</svg>
