<svg width="105" height="105" viewBox="0 0 105 105" fill="none" xmlns="http://www.w3.org/2000/svg">
<g clip-path="url(#clip0_631_1959)">
<path d="M32.8869 103.775L26.6939 91.981L13.3908 92.6697C12.6902 92.7062 12.226 91.954 12.5736 91.3446L37.6214 47.3696L59.4915 59.8269L34.4444 103.801C34.0969 104.411 33.213 104.396 32.8869 103.775Z" fill="#2C4A93"/>
<path d="M32.8868 103.775L26.6938 91.9809L48.556 53.5981L59.4914 59.8268L34.4443 103.801C34.0968 104.411 33.2129 104.396 32.8868 103.775Z" fill="#10307D"/>
<path d="M72.9413 103.775L79.1342 91.981L92.4373 92.6697C93.138 92.7062 93.6013 91.954 93.2546 91.3446L68.2068 47.3696L46.3359 59.8269L71.3838 103.801C71.7313 104.411 72.6152 104.396 72.9413 103.775Z" fill="#10307D"/>
<path d="M72.9413 103.775L79.1343 91.9809L57.2714 53.5981L46.3359 59.8268L71.3838 103.801C71.7313 104.411 72.6152 104.396 72.9413 103.775Z" fill="#2C4A93"/>
<path d="M58.709 0.956433L58.7091 0.956392C60.9411 -0.0269378 63.5553 0.617494 65.0746 2.52502L65.0747 2.52507L67.4097 5.45521C67.4097 5.45524 67.4098 5.45527 67.4098 5.4553C68.4359 6.74404 69.9566 7.5412 71.599 7.65473L71.5991 7.65474L75.337 7.91102C75.337 7.91102 75.337 7.91102 75.3371 7.91102C77.77 8.07861 79.7852 9.86411 80.2447 12.2592L80.9501 15.9384C81.26 17.5561 82.2355 18.9691 83.6385 19.8327L86.8281 21.7972L86.8282 21.7972C88.9048 23.0755 89.8593 25.5934 89.1535 27.927L88.068 31.5134C87.5907 33.0897 87.7979 34.7944 88.6382 36.2107L88.8532 36.0831L88.6382 36.2107L90.5504 39.4329C91.7946 41.53 91.4701 44.2026 89.7597 45.941L89.9379 46.1164L89.7596 45.9411L87.1325 48.6118C85.9773 49.7861 85.3681 51.3914 85.4543 53.0365L85.6503 56.7784C85.7777 59.2135 84.2477 61.4289 81.9254 62.1735L82.0017 62.4115L81.9254 62.1735L78.358 63.3176C76.7892 63.8207 75.5047 64.9594 74.8161 66.4552L74.816 66.4553L73.2505 69.8592C72.2315 72.0746 69.8478 73.3263 67.4452 72.9063L63.7549 72.2612C62.1323 71.9778 60.4649 72.3879 59.1604 73.3932C59.1604 73.3932 59.1603 73.3933 59.1603 73.3933L56.1921 75.6792L56.3446 75.8773L56.192 75.6792C54.2602 77.1675 51.568 77.1675 49.6362 75.6792L49.4836 75.8773L49.6361 75.6792L46.6679 73.3933C46.6679 73.3933 46.6679 73.3932 46.6678 73.3932C45.3634 72.388 43.696 71.977 42.0733 72.2612C42.0733 72.2612 42.0733 72.2612 42.0732 72.2612L38.383 72.9063L38.426 73.1525L38.383 72.9063C35.9804 73.3263 33.5967 72.0746 32.5777 69.8592L31.0122 66.4553L31.0122 66.4552C30.3235 64.9594 29.039 63.8207 27.4702 63.3176L23.9028 62.1735L23.9028 62.1735C21.5805 61.4289 20.0505 59.2136 20.1779 56.7776L20.3739 53.0365L20.3739 53.0363C20.4592 51.3914 19.851 49.7862 18.6957 48.6118L16.0686 45.9411L15.8903 46.1164L16.0686 45.941C14.3581 44.2026 14.0336 41.53 15.2778 39.4329L17.19 36.2107L16.975 36.0831L17.19 36.2107C18.0303 34.7944 18.2375 33.0897 17.7602 31.5134C17.7602 31.5134 17.7602 31.5134 17.7602 31.5134L16.6747 27.927L16.436 27.9993L16.6747 27.927C15.9681 25.5926 16.9234 23.0755 19 21.7972L19.0001 21.7972L22.1897 19.8327C22.1897 19.8327 22.1897 19.8326 22.1898 19.8326C23.5928 18.9691 24.5682 17.5561 24.8782 15.9384L25.5835 12.2592C26.043 9.86409 28.0582 8.07857 30.4912 7.91102L34.2291 7.65394C35.8717 7.54123 37.3924 6.74316 38.4184 5.45527L40.7535 2.52507L40.7536 2.52502C42.2729 0.617494 44.8871 -0.02696 47.1192 0.955628L50.5484 2.46556C52.0559 3.12938 53.7723 3.12938 55.2798 2.46556L58.709 0.956433Z" fill="#FFAA00" stroke="#00257D" stroke-width="0.5"/>
<path d="M79.3499 38.6468C79.3499 53.248 67.5139 65.084 52.9135 65.084C38.3131 65.084 26.4771 53.248 26.4771 38.6468C26.4771 24.0464 38.3131 12.2104 52.9135 12.2104C67.5139 12.2104 79.3499 24.0464 79.3499 38.6468Z" fill="#2C4A93"/>
<path d="M52.9138 12.2114C51.0619 12.2114 49.2536 12.4026 47.5088 12.7653C59.517 15.2599 68.5402 25.8994 68.5402 38.6478C68.5402 51.3955 59.517 62.035 47.5088 64.5304C49.2536 64.893 51.0619 65.0842 52.9138 65.0842C67.5142 65.0842 79.3502 53.2482 79.3502 38.6478C79.3502 24.0466 67.5142 12.2114 52.9138 12.2114Z" fill="#1E3F8C"/>
<path d="M53.5192 20.346L57.3429 32.1138C57.4278 32.3756 57.6722 32.5526 57.9475 32.5526H70.3207C70.9364 32.5526 71.1927 33.3413 70.6944 33.7031L60.6841 40.9759C60.4612 41.1386 60.3684 41.425 60.4533 41.6868L64.2769 53.4546C64.4673 54.041 63.7969 54.5281 63.2986 54.1655L53.2883 46.8927C53.0654 46.7308 52.7631 46.7308 52.5409 46.8927L42.5307 54.1655C42.0316 54.5281 41.3611 54.041 41.5515 53.4546L45.3752 41.6868C45.4601 41.425 45.3673 41.1386 45.1443 40.9759L35.1341 33.7031C34.6358 33.3413 34.8913 32.5526 35.5078 32.5526H47.8809C48.1563 32.5526 48.4007 32.3756 48.4856 32.1138L52.3092 20.346C52.4996 19.7597 53.3288 19.7597 53.5192 20.346Z" fill="#F2F2F2"/>
</g>
<defs>
<clipPath id="clip0_631_1959">
<rect width="104" height="104" fill="white" transform="translate(0.877441 0.25)"/>
</clipPath>
</defs>
</svg>
