<svg width="44" height="44" viewBox="0 0 44 44" fill="none" xmlns="http://www.w3.org/2000/svg">
<path d="M14.9512 32.8304C14.7933 32.6158 14.7422 32.3222 14.8769 32.0569C17.9989 26.4354 16.0301 19.2755 10.4193 16.1333C10.0755 15.8904 10.0245 15.5968 10.1871 15.1452C10.2939 15.0662 10.2939 15.0662 10.4008 14.9872C10.6145 14.8293 10.9071 14.7786 11.1719 14.9142C16.7827 18.0564 23.9177 16.0956 27.0396 10.474C27.1465 10.3951 27.1465 10.3951 27.2533 10.3161C27.5739 10.0791 27.9455 10.1358 28.1823 10.4577C28.3402 10.6724 28.3913 10.966 28.2566 11.2313C25.1346 16.8528 27.1034 24.0127 32.7143 27.1548C33.058 27.3978 33.109 27.6914 32.9464 28.143C32.8396 28.222 32.8396 28.222 32.7327 28.301C32.519 28.4589 32.2264 28.5096 31.9616 28.3739C26.3508 25.2318 19.2158 27.1926 16.0939 32.8141C15.987 32.8931 15.987 32.8931 15.8802 32.9721C15.6665 33.1301 15.3738 33.1807 15.1091 33.0451C15.1091 33.0451 15.0301 32.9377 14.9512 32.8304ZM15.1569 18.7612C17.2887 21.6587 18.1663 25.3176 17.5295 28.9362C20.498 26.2448 24.6786 24.9768 28.6314 25.8654C25.9422 22.8829 24.6699 18.6874 25.5482 14.7245C22.394 17.3876 18.3202 18.5766 14.3674 17.6881C14.6042 18.01 14.92 18.4393 15.1569 18.7612Z" fill="white"/>
</svg>
