<svg width="211" height="102" viewBox="0 0 211 102" fill="none" xmlns="http://www.w3.org/2000/svg">
<path d="M0.289062 51.0156C0.289062 41.5938 1.57812 33.5078 4.15625 26.7578C6.78125 20.0078 10.4844 14.7344 15.2656 10.9375C24.3594 3.67188 36.2188 0.0390625 50.8438 0.0390625H55.7656C70.3906 0.0390625 82.25 3.67188 91.3438 10.9375C101.328 18.9062 106.32 32.2656 106.32 51.0156C106.32 69.8594 101.328 83.2422 91.3438 91.1641C82.25 98.3828 70.3906 101.992 55.7656 101.992H50.8438C36.2188 101.992 24.3594 98.3828 15.2656 91.1641C5.28125 83.2422 0.289062 69.8594 0.289062 51.0156ZM53.3047 19.9375C35.6328 19.9375 26.7969 30.3203 26.7969 51.0859C26.7969 71.8047 35.6328 82.1641 53.3047 82.1641C70.9766 82.1641 79.8125 71.8047 79.8125 51.0859C79.8125 30.3203 70.9766 19.9375 53.3047 19.9375ZM114.195 73.9375C114.195 71.125 115.016 69.1328 116.656 67.9609C118.297 66.7422 119.891 66.1328 121.438 66.1328H129.734C134.094 66.1328 137.516 68.8047 140 74.1484C142.484 79.4922 148.203 82.1641 157.156 82.1641H167.211C172.977 82.1641 177.195 81.3438 179.867 79.7031C182.539 78.0625 183.875 75.2734 183.875 71.3359C183.875 67.3984 182.539 64.6094 179.867 62.9688C177.195 61.3281 172.977 60.5078 167.211 60.5078H154.555C152.727 60.5078 151.156 59.875 149.844 58.6094C148.531 57.2969 147.875 55.7266 147.875 53.8984V48.1328C147.875 46.3984 148.508 44.875 149.773 43.5625C151.039 42.2031 152.539 41.5234 154.273 41.5234H164.609C170.844 41.5234 175.367 40.7031 178.18 39.0625C181.039 37.4219 182.469 34.6328 182.469 30.6953C182.469 26.7578 181.039 23.9922 178.18 22.3984C175.367 20.7578 170.844 19.9375 164.609 19.9375H159.406C150.406 19.9375 144.453 22.8203 141.547 28.5859C139.438 32.9922 136.273 35.1953 132.055 35.1953H123.688C121.438 35.1953 119.68 34.375 118.414 32.7344C117.148 31.0938 116.516 29.3125 116.516 27.3906C116.516 22.0469 118.555 17.2422 122.633 12.9766C126.711 8.66406 131.797 5.42969 137.891 3.27344C143.984 1.11719 150.336 0.0390625 156.945 0.0390625H166.648C194.867 0.0390625 208.977 10.3047 208.977 30.8359C208.977 39.4141 205.766 46.1406 199.344 51.0156C206.703 55.6562 210.383 62.4297 210.383 71.3359C210.383 82.1641 206.914 89.9922 199.977 94.8203C193.086 99.6016 182.984 101.992 169.672 101.992H154.695C144.195 101.992 134.82 99.4141 126.57 94.2578C118.32 89.0547 114.195 82.2812 114.195 73.9375Z" fill="#D8DEEB" fill-opacity="0.5"/>
</svg>
