<svg width="158" height="102" viewBox="0 0 158 102" fill="none" xmlns="http://www.w3.org/2000/svg">
<path d="M0.289062 51.0156C0.289062 41.5938 1.57812 33.5078 4.15625 26.7578C6.78125 20.0078 10.4844 14.7344 15.2656 10.9375C24.3594 3.67188 36.2188 0.0390625 50.8438 0.0390625H55.7656C70.3906 0.0390625 82.25 3.67188 91.3438 10.9375C101.328 18.9062 106.32 32.2656 106.32 51.0156C106.32 69.8594 101.328 83.2422 91.3438 91.1641C82.25 98.3828 70.3906 101.992 55.7656 101.992H50.8438C36.2188 101.992 24.3594 98.3828 15.2656 91.1641C5.28125 83.2422 0.289062 69.8594 0.289062 51.0156ZM53.3047 19.9375C35.6328 19.9375 26.7969 30.3203 26.7969 51.0859C26.7969 71.8047 35.6328 82.1641 53.3047 82.1641C70.9766 82.1641 79.8125 71.8047 79.8125 51.0859C79.8125 30.3203 70.9766 19.9375 53.3047 19.9375ZM111.594 25.1406C111.031 24.3438 110.75 23.4062 110.75 22.3281C110.75 21.25 111.523 20.0547 113.07 18.7422L130.227 3.97656C132.711 1.77344 136.156 0.648438 140.562 0.601562H150.898C152.82 0.601562 154.438 1.25781 155.75 2.57031C157.062 3.88281 157.719 5.45312 157.719 7.28125V94.8203C157.719 96.6484 157.039 98.2188 155.68 99.5312C154.32 100.797 152.727 101.43 150.898 101.43H137.82C135.992 101.43 134.422 100.82 133.109 99.6016C131.844 98.3359 131.211 96.7891 131.211 94.9609V26.9688L123.125 32.875C122.188 33.5312 121.109 33.7422 119.891 33.5078C118.672 33.2734 117.688 32.7344 116.938 31.8906L111.594 25.1406Z" fill="#D8DEEB" fill-opacity="0.5"/>
</svg>
