<svg width="208" height="102" viewBox="0 0 208 102" fill="none" xmlns="http://www.w3.org/2000/svg">
<path d="M0.289062 51.0156C0.289062 41.5938 1.57812 33.5078 4.15625 26.7578C6.78125 20.0078 10.4844 14.7344 15.2656 10.9375C24.3594 3.67188 36.2188 0.0390625 50.8438 0.0390625H55.7656C70.3906 0.0390625 82.25 3.67188 91.3438 10.9375C101.328 18.9062 106.32 32.2656 106.32 51.0156C106.32 69.8594 101.328 83.2422 91.3438 91.1641C82.25 98.3828 70.3906 101.992 55.7656 101.992H50.8438C36.2188 101.992 24.3594 98.3828 15.2656 91.1641C5.28125 83.2422 0.289062 69.8594 0.289062 51.0156ZM53.3047 19.9375C35.6328 19.9375 26.7969 30.3203 26.7969 51.0859C26.7969 71.8047 35.6328 82.1641 53.3047 82.1641C70.9766 82.1641 79.8125 71.8047 79.8125 51.0859C79.8125 30.3203 70.9766 19.9375 53.3047 19.9375ZM114.898 94.8203V84.5547C114.898 78.6016 116.117 73.4453 118.555 69.0859C121.039 64.7266 124.203 61.3047 128.047 58.8203C131.891 56.3359 136.156 54.2031 140.844 52.4219C145.531 50.6406 150.219 49.2109 154.906 48.1328C159.641 47.0078 163.93 45.8828 167.773 44.7578C176.492 42.1328 180.852 38.4062 180.852 33.5781C180.852 28.3281 179.492 24.7422 176.773 22.8203C174.055 20.8984 169.461 19.9375 162.992 19.9375H158C148.953 19.9375 143 22.8203 140.141 28.5859C138.031 32.9922 134.867 35.1953 130.648 35.1953H122.281C119.984 35.1953 118.203 34.375 116.938 32.7344C115.672 31.0938 115.039 29.3125 115.039 27.3906C115.039 22.0469 117.078 17.2422 121.156 12.9766C125.281 8.66406 130.391 5.42969 136.484 3.27344C142.578 1.11719 148.93 0.0390625 155.539 0.0390625H165.031C185.609 0.0390625 198.641 5.75781 204.125 17.1953C206.281 21.6953 207.359 26.9219 207.359 32.875C207.359 38.8281 206.141 43.8906 203.703 48.0625C201.266 52.2344 198.125 55.5625 194.281 58.0469C190.438 60.4844 186.148 62.5938 181.414 64.375C176.727 66.1562 172.039 67.6328 167.352 68.8047C162.664 69.9297 158.398 71.0078 154.555 72.0391C145.789 74.4766 141.406 77.6406 141.406 81.5312H199.766C201.688 81.5312 203.281 82.1875 204.547 83.5C205.859 84.8125 206.516 86.3828 206.516 88.2109V94.8203C206.516 96.6484 205.836 98.2188 204.477 99.5312C203.164 100.797 201.594 101.43 199.766 101.43H121.719C119.891 101.43 118.297 100.797 116.938 99.5312C115.578 98.2188 114.898 96.6484 114.898 94.8203Z" fill="#D8DEEB" fill-opacity="0.5"/>
</svg>
