<svg width="65" height="65" viewBox="0 0 65 65" fill="none" xmlns="http://www.w3.org/2000/svg">
<path d="M22.2194 8.8186C4.46085 17.1347 4.01154 30.3001 6.00671 35.8433C7.55806 41.9502 15.0079 54.689 32.3963 56.7895C54.1319 59.4151 59.1448 43.3962 56.528 23.6404C53.9113 3.88452 44.4175 -1.57656 22.2194 8.8186Z" fill="#3F96E4"/>
<path fill-rule="evenodd" clip-rule="evenodd" d="M22.2125 27.2076C21.6969 25.2831 22.8389 23.305 24.7634 22.7894L36.3785 19.6771C38.3029 19.1614 40.281 20.3035 40.7967 22.2279L42.9752 30.3585C43.4909 32.283 42.3488 34.2611 40.4244 34.7767L35.1976 36.1772C34.9338 36.2479 34.702 36.4062 34.5402 36.6262L31.4601 40.813L30.8628 38.5836C30.6909 37.9421 30.0315 37.5615 29.3901 37.7333L28.8093 37.889C26.8848 38.4046 24.9067 37.2626 24.3911 35.3381L22.2125 27.2076ZM24.1409 20.4663C20.9335 21.3258 19.0301 24.6226 19.8895 27.83L22.0681 35.9606C22.875 38.972 25.8305 40.8339 28.8433 40.3389L29.7847 43.8521C29.9043 44.2986 30.2693 44.637 30.7235 44.7226C31.1778 44.8082 31.6409 44.6258 31.9148 44.2535L36.2275 38.3911L41.0468 37.0997C44.2542 36.2403 46.1577 32.9435 45.2982 29.7361L43.1197 21.6055C42.2602 18.3981 38.9634 16.4947 35.756 17.3541L24.1409 20.4663ZM28.4154 31.7696C29.0569 31.5977 29.4376 30.9383 29.2657 30.2968C29.0938 29.6553 28.4344 29.2747 27.7929 29.4465C27.1515 29.6184 26.7708 30.2778 26.9427 30.9193C27.1145 31.5608 27.7739 31.9414 28.4154 31.7696ZM33.9109 29.0521C34.0828 29.6936 33.7021 30.353 33.0606 30.5249C32.4191 30.6968 31.7598 30.3161 31.5879 29.6746C31.416 29.0331 31.7967 28.3738 32.4381 28.2019C33.0796 28.03 33.739 28.4107 33.9109 29.0521ZM37.7058 29.2802C38.3473 29.1083 38.728 28.449 38.5561 27.8075C38.3842 27.166 37.7248 26.7853 37.0834 26.9572C36.4419 27.1291 36.0612 27.7884 36.2331 28.4299C36.405 29.0714 37.0643 29.4521 37.7058 29.2802Z" fill="white"/>
</svg>
