<svg width="65" height="65" viewBox="0 0 65 65" fill="none" xmlns="http://www.w3.org/2000/svg">
<path d="M35.1937 6.5906C15.2262 5.36211 8.39148 16.9335 7.47007 22.8728C5.87579 29.1 6.32395 44.1487 20.8708 54.5254C39.0543 67.4964 51.3702 55.599 58.6789 36.6273C65.9876 17.6555 60.1532 8.1262 35.1937 6.5906Z" fill="#3F96E4"/>
<g clip-path="url(#clip0_1331_61668)">
<path d="M27.0413 15.8011L28.342 16.1161L28.972 13.5147L31.5734 14.1447L30.9434 16.7461L41.349 19.2661L41.979 16.6647L44.5803 17.2947L43.9503 19.8961L45.251 20.2111C46.6948 20.5608 47.5689 22.0118 47.2224 23.4425L42.8124 41.6522C42.4659 43.083 41.0248 43.9732 39.581 43.6236L21.3713 39.2136C19.9406 38.8671 19.0534 37.4129 19.3999 35.9822L23.81 17.7725C24.1565 16.3417 25.6106 15.4546 27.0413 15.8011ZM22.0013 36.6122L40.211 41.0222L43.361 28.0153L25.1513 23.6053L22.0013 36.6122ZM25.7813 21.0039L43.991 25.4139L44.621 22.8125L26.4113 18.4025L25.7813 21.0039ZM40.1296 29.9867L33.6262 28.4116L32.0512 34.9151L38.5546 36.4901L40.1296 29.9867Z" fill="white"/>
</g>
<defs>
<clipPath id="clip0_1331_61668">
<rect width="32.119" height="32.119" fill="white" transform="matrix(-0.971904 -0.235376 -0.235376 0.971904 52.6995 17.8843)"/>
</clipPath>
</defs>
</svg>
