<svg width="72" height="72" viewBox="0 0 72 72" fill="none" xmlns="http://www.w3.org/2000/svg">
<circle cx="36" cy="36" r="36" fill="#F1F3FA"/>
<path d="M31.527 31.535L31.5729 21.0993L41.1379 21.1413L41.0921 31.5771L41.0918 31.6491L41.1298 31.7102L49.6426 45.4023C50.0334 46.0941 50.0309 46.9393 49.6308 47.6255L47.1922 51.8065C47.1922 51.8066 47.1921 51.8066 47.1921 51.8066C46.7751 52.5206 46.025 52.9206 45.2541 52.9172L27.1777 52.8378C26.2921 52.8339 25.528 52.3181 25.1682 51.5704L25.1643 51.5624L25.16 51.5547L22.8477 47.5077L22.8474 47.5072C22.4097 46.7451 22.4738 45.835 22.9342 45.1511L22.9343 45.1511L22.9379 45.1454L31.4881 31.6678L31.5267 31.607L31.527 31.535Z" fill="white" stroke="#00257D" stroke-width="0.5"/>
<path fill-rule="evenodd" clip-rule="evenodd" d="M31.1096 37.5807L25.8233 45.9107C25.6386 46.1976 25.5891 46.5669 25.7991 46.9345L27.252 49.4741C27.4424 49.8079 27.7376 49.9925 28.1438 49.9943L44.9085 50.068C45.3147 50.0697 45.6118 49.8877 45.805 49.5556L47.2803 47.0289C47.4935 46.6631 47.447 46.2934 47.265 46.0049L42.052 37.6288C41.8503 37.3035 41.5324 37.1218 41.1403 37.1201L32.0259 37.08C31.6337 37.0783 31.3142 37.2572 31.1096 37.5807Z" fill="#2C4A93"/>
<path fill-rule="evenodd" clip-rule="evenodd" d="M41.9217 50.0548L44.909 50.0679C45.3152 50.0697 45.6123 49.8877 45.8055 49.5556L47.2808 47.0289C47.494 46.6631 47.4475 46.2934 47.2655 46.0049L42.0525 37.6288C41.8508 37.3035 41.5329 37.1218 41.1408 37.12L38.1562 37.1069C38.5454 37.1086 38.8664 37.2904 39.068 37.6157L44.281 45.9918C44.4603 46.2803 44.5094 46.65 44.2963 47.0158L42.8211 49.5425C42.6277 49.8746 42.3307 50.0566 41.9217 50.0548Z" fill="#163788"/>
<path fill-rule="evenodd" clip-rule="evenodd" d="M31.3214 21.347L41.3866 21.3912C42.2807 21.3951 43.0146 20.6648 43.0185 19.7734C43.0224 18.8792 42.295 18.1427 41.4009 18.1388L31.3357 18.0945C30.4416 18.0906 29.7077 18.8207 29.7038 19.715C29.6999 20.6063 30.4272 21.343 31.3214 21.347Z" fill="#FFAA00"/>
<path fill-rule="evenodd" clip-rule="evenodd" d="M38.3998 21.3784L41.3873 21.3915C42.2814 21.3955 43.0153 20.6651 43.0192 19.7738C43.0231 18.8796 42.2957 18.143 41.4016 18.1391L38.4141 18.126C39.3083 18.1299 40.0386 18.8664 40.0347 19.7607C40.0308 20.652 39.294 21.3823 38.3998 21.3784Z" fill="#DD9E20"/>
<path d="M33.0056 41.3103C32.5936 41.3084 32.2594 40.9742 32.2612 40.5624C32.263 40.1505 32.6001 39.8163 33.0121 39.8181L40.1294 39.8494C40.5413 39.8512 40.8755 40.1883 40.8737 40.6002C40.8719 41.0121 40.5347 41.3433 40.1228 41.3415L33.0056 41.3103ZM29.3291 47.266C28.9172 47.2642 28.5859 46.9299 28.5877 46.5151C28.5895 46.1033 28.9238 45.772 29.3356 45.7738L43.7533 45.8372C44.1652 45.839 44.4966 46.1732 44.4947 46.585C44.4929 46.9998 44.1586 47.3311 43.7468 47.3293L29.3291 47.266ZM31.1165 44.2893C30.7046 44.2875 30.3704 43.9504 30.3722 43.5385C30.3741 43.1266 30.7112 42.7924 31.1231 42.7942L41.9921 42.842C42.404 42.8438 42.7354 43.1809 42.7336 43.5928C42.7318 44.0047 42.3974 44.3389 41.9856 44.3371L31.1165 44.2893Z" fill="#FFAA00"/>
</svg>
