<svg width="64" height="64" viewBox="0 0 64 64" fill="none" xmlns="http://www.w3.org/2000/svg">
<path d="M27.6809 1.40341C4.13367 5.59492 -0.551752 20.9638 0.048944 28.1243C-0.0511713 35.8087 4.70434 53.1686 24.5273 61.1325C49.306 71.0873 60.2687 53.7973 63.4223 29.6961C66.576 5.59492 57.115 -3.83598 27.6809 1.40341Z" fill="#37A77F"/>
<path fill-rule="evenodd" clip-rule="evenodd" d="M50.2287 20.1037C51.4969 21.3346 51.5272 23.3605 50.2963 24.6287L31.6612 43.8287C31.0643 44.4437 30.2457 44.7935 29.3888 44.7999C28.5318 44.8063 27.7081 44.4687 27.1022 43.8628L16.9373 33.6981C15.6876 32.4484 15.6876 30.4223 16.9372 29.1726C18.1869 27.9229 20.213 27.9229 21.4627 29.1725L29.3308 37.0405L45.7037 20.1713C46.9346 18.9031 48.9605 18.8728 50.2287 20.1037Z" fill="white"/>
</svg>
