<svg width="54" height="55" viewBox="0 0 54 55" fill="none" xmlns="http://www.w3.org/2000/svg">
<circle cx="27" cy="27.4297" r="26" stroke="white" stroke-width="2"/>
<path d="M36.0979 30.6033C37.0267 31.519 38.007 32.3804 38.8401 33.3884C39.208 33.8364 39.5564 34.2986 39.823 34.8184C40.2006 35.5574 39.8585 36.3706 39.2024 36.4147L35.1232 36.4128C34.0712 36.5009 33.2319 36.0733 32.5262 35.3469C31.9614 34.7661 31.4384 34.1479 30.8953 33.5474C30.6727 33.302 30.4397 33.071 30.1613 32.8885C29.6045 32.5235 29.1211 32.6352 28.8029 33.2217C28.4788 33.8182 28.4053 34.4786 28.3734 35.1434C28.3297 36.1133 28.0394 36.3683 27.0746 36.4127C25.0126 36.5109 23.0556 36.1959 21.2377 35.1455C19.6349 34.2196 18.3921 32.9123 17.3102 31.4325C15.2041 28.5509 13.5911 25.3844 12.1414 22.1292C11.8151 21.3958 12.0537 21.0022 12.8551 20.9882C14.1858 20.9621 15.5164 20.964 16.8487 20.9863C17.3895 20.9943 17.7476 21.3075 17.9564 21.8235C18.6764 23.611 19.5573 25.3117 20.6631 26.8881C20.9576 27.3078 21.2579 27.7275 21.6854 28.0229C22.1585 28.35 22.5187 28.2416 22.7412 27.7095C22.8824 27.3721 22.9442 27.0087 22.9761 26.6474C23.0815 25.4042 23.0954 24.1631 22.9105 22.9242C22.797 22.1511 22.3657 21.6506 21.6017 21.5043C21.2118 21.4297 21.2698 21.2832 21.4586 21.0585C21.7865 20.6709 22.0948 20.4297 22.7096 20.4297H27.3196C28.0454 20.5743 28.2065 20.9035 28.3059 21.6409L28.3098 26.8116C28.3019 27.0971 28.451 27.9442 28.9602 28.1331C29.3678 28.2676 29.6364 27.9384 29.881 27.6775C30.9847 26.4946 31.7725 25.0966 32.4762 23.6491C32.7886 23.0125 33.0571 22.3515 33.3174 21.691C33.5102 21.201 33.8128 20.9598 34.3595 20.9705L38.7964 20.9744C38.928 20.9744 39.0611 20.9764 39.1885 20.9984C39.9362 21.1271 40.1411 21.4518 39.9101 22.189C39.5463 23.3456 38.8384 24.3095 38.1462 25.2778C37.4063 26.3116 36.6149 27.3101 35.8811 28.35C35.207 29.2998 35.2605 29.7784 36.0979 30.6033Z" fill="white"/>
</svg>
