<svg width="36" height="36" viewBox="0 0 36 36" fill="none" xmlns="http://www.w3.org/2000/svg">
<circle cx="18" cy="18" r="18" fill="#183989"/>
<path d="M25.0734 20.6302C25.77 21.3169 26.5052 21.963 27.13 22.719C27.406 23.055 27.6673 23.4017 27.8672 23.7915C28.1505 24.3458 27.8939 24.9557 27.4018 24.9887L24.3424 24.9873C23.5534 25.0534 22.9239 24.7327 22.3946 24.1879C21.9711 23.7523 21.5788 23.2886 21.1715 22.8383C21.0045 22.6542 20.8298 22.481 20.621 22.3441C20.2034 22.0704 19.8408 22.1542 19.6022 22.594C19.3591 23.0414 19.304 23.5367 19.2801 24.0353C19.2473 24.7627 19.0296 24.954 18.3059 24.9873C16.7594 25.0609 15.2917 24.8247 13.9283 24.0369C12.7262 23.3424 11.794 22.362 10.9827 21.2521C9.40305 19.0909 8.1933 16.716 7.10606 14.2747C6.86132 13.7246 7.04031 13.4294 7.64135 13.4189C8.63938 13.3993 9.63729 13.4007 10.6365 13.4175C11.0422 13.4235 11.3107 13.6584 11.4673 14.0453C12.0073 15.386 12.668 16.6615 13.4973 17.8438C13.7182 18.1586 13.9434 18.4734 14.2641 18.6949C14.6189 18.9402 14.889 18.8589 15.0559 18.4598C15.1618 18.2068 15.2082 17.9342 15.2321 17.6632C15.3111 16.7309 15.3215 15.8 15.1829 14.8709C15.0977 14.2911 14.7743 13.9157 14.2013 13.806C13.9089 13.75 13.9524 13.6401 14.094 13.4716C14.3398 13.1809 14.5711 13 15.0322 13H18.4897C19.034 13.1085 19.1549 13.3554 19.2294 13.9084L19.2324 17.7865C19.2264 18.0005 19.3383 18.6359 19.7202 18.7776C20.0258 18.8785 20.2273 18.6316 20.4107 18.4359C21.2385 17.5487 21.8294 16.5002 22.3572 15.4145C22.5914 14.9371 22.7929 14.4414 22.988 13.946C23.1327 13.5785 23.3596 13.3976 23.7696 13.4056L27.0973 13.4086C27.196 13.4086 27.2958 13.41 27.3914 13.4265C27.9521 13.523 28.1058 13.7666 27.9326 14.3195C27.6597 15.187 27.1288 15.9099 26.6096 16.6361C26.0547 17.4114 25.4612 18.1603 24.9109 18.9402C24.4052 19.6526 24.4454 20.0116 25.0734 20.6302Z" fill="white"/>
</svg>
