<svg width="118" height="142" viewBox="0 0 118 142" fill="none" xmlns="http://www.w3.org/2000/svg">
<circle cx="60" cy="68" r="53" fill="white"/>
<path d="M105.781 141.764L97.0781 123.761L107.512 121.762L105.781 141.764Z" fill="#0084CC"/>
<path d="M97.4248 124.225L97.2305 124.319L105.686 141.81L105.881 141.716L97.4248 124.225Z" fill="#00257D"/>
<path d="M11.0117 141.765L20.5599 121.939L11.0117 125.123" fill="#0084CC"/>
<path d="M19.0229 124.872L10.9219 141.721L11.1162 141.815L19.2172 124.966L19.0229 124.872Z" fill="#00257D"/>
<path d="M65.1648 63.5938H51.6055V84.2996H65.1648V63.5938Z" fill="#FFD6B5"/>
<path d="M80.0874 67.4902L65.1581 75.6849C62.7501 79.308 54.7437 79.3446 51.6049 75.6849L36.6756 67.4902C22.5567 83.1111 10.077 98.7319 0.109375 114.353L6.54612 130.53L37.391 103.986L41.0248 118.487C41.0248 118.487 46.3032 120.159 49.7826 120.792C53.166 121.408 55.1061 121.534 58.5404 121.714C61.9559 121.893 63.9029 122.125 67.2982 121.714C70.4191 121.336 75.1342 119.87 75.1342 119.87L78.3799 103.986L110.139 130.782L116.654 114.353C106.687 98.7319 94.2065 83.1111 80.0874 67.4902Z" fill="#00257D"/>
<path d="M1.72175 111.86L0.109375 114.353L11.0171 141.765V107.373L7.3971 109.375L1.72175 111.86Z" fill="#00257D"/>
<path d="M65.1636 84.4077H51.604C51.5754 84.4077 51.548 84.3963 51.5277 84.376C51.5075 84.3557 51.4961 84.3282 51.4961 84.2996V63.5939C51.4961 63.5653 51.5075 63.5378 51.5277 63.5175C51.548 63.4972 51.5754 63.4858 51.604 63.4858H65.1636C65.1922 63.4858 65.2196 63.4972 65.2399 63.5175C65.2601 63.5378 65.2715 63.5653 65.2715 63.5939V84.2996C65.2715 84.3282 65.2601 84.3557 65.2399 84.376C65.2196 84.3963 65.1922 84.4077 65.1636 84.4077ZM51.712 84.1915H65.0556V63.7021H51.712V84.1915Z" fill="#00257D"/>
<path d="M80.9125 72.219C80.914 70.617 80.5921 69.0313 79.9661 67.5571L65.1571 75.6869C62.749 79.3101 54.7426 79.3466 51.6038 75.6869L36.8008 67.5608C36.1755 69.0342 35.854 70.6189 35.8555 72.2199C35.8555 78.8921 41.3406 84.301 48.1073 84.301C50.1413 84.3068 52.1449 83.8067 53.9384 82.8457C55.7318 81.8846 57.259 80.4926 58.3829 78.7946C59.5068 80.4926 61.034 81.8846 62.8275 82.8457C64.6209 83.8067 66.6246 84.3068 68.6586 84.301C75.428 84.3002 80.9125 78.8913 80.9125 72.219Z" fill="white"/>
<path d="M68.661 84.408C66.6363 84.4152 64.6407 83.9248 62.8492 82.9799C61.0577 82.0349 59.5249 80.6642 58.3854 78.9879C57.2458 80.6642 55.7131 82.0349 53.9216 82.9799C52.1301 83.9248 50.1345 84.4152 48.1097 84.408C41.2946 84.408 35.75 78.9401 35.75 72.219C35.7474 70.6035 36.072 69.0042 36.704 67.5178C36.7099 67.5038 36.7188 67.4913 36.73 67.4809C36.7411 67.4706 36.7543 67.4628 36.7687 67.4579C36.7828 67.453 36.7978 67.4511 36.8127 67.4524C36.8276 67.4536 36.842 67.458 36.8551 67.4653L51.6581 75.5911C51.6694 75.5974 51.6795 75.6056 51.6881 75.6153C53.2424 77.4288 56.2495 78.475 59.3553 78.2871C61.9311 78.1289 64.0674 77.1343 65.0695 75.6259C65.0792 75.6114 65.0922 75.5995 65.1075 75.5911L79.9165 67.4614C79.9297 67.4542 79.9441 67.4499 79.959 67.4486C79.9738 67.4474 79.9888 67.4492 80.0029 67.454C80.0173 67.4589 80.0305 67.4668 80.0417 67.4771C80.0529 67.4875 80.0617 67.5001 80.0677 67.5141C80.7004 69.0013 81.0254 70.6016 81.0229 72.2181C81.021 78.9408 75.4762 84.408 68.661 84.408ZM58.3854 78.6856C58.4032 78.6856 58.4208 78.69 58.4365 78.6985C58.4522 78.7069 58.4656 78.7192 58.4754 78.7341C59.5884 80.4183 61.1021 81.799 62.8802 82.7517C64.6584 83.7044 66.6451 84.1993 68.6617 84.1918C75.3579 84.1918 80.8057 78.821 80.8057 72.219C80.808 70.6717 80.5049 69.1392 79.914 67.7096L65.2344 75.7682C64.189 77.3196 61.9989 78.3412 59.3685 78.5029C56.207 78.6975 53.1385 77.6249 51.5374 75.7712L36.8551 67.7126C36.2649 69.1414 35.9623 70.6728 35.9646 72.219C35.9646 78.821 41.4122 84.1918 48.1084 84.1918C50.125 84.1993 52.1118 83.7044 53.8899 82.7517C55.668 81.799 57.1817 80.4183 58.2947 78.7341C58.3046 78.7192 58.3179 78.7069 58.3336 78.6985C58.3493 78.69 58.3669 78.6856 58.3847 78.6856H58.3854Z" fill="#00257D"/>
<path d="M115.489 112.545L116.654 114.353L105.785 141.764L105.895 107.176L108.135 109.914L115.489 112.545Z" fill="#00257D"/>
<path d="M110.138 130.891C110.112 130.891 110.088 130.882 110.068 130.866L78.4426 104.183L76.4427 112.57C76.4371 112.594 76.4236 112.615 76.4046 112.63C76.3855 112.645 76.3619 112.653 76.3376 112.653H39.5063C39.4822 112.653 39.4588 112.645 39.4398 112.63C39.4208 112.615 39.4074 112.594 39.4016 112.571L37.327 104.183L6.61514 130.611C6.60212 130.622 6.58661 130.63 6.56989 130.634C6.55317 130.638 6.53573 130.638 6.51903 130.634C6.50232 130.63 6.48683 130.622 6.47385 130.611C6.46086 130.6 6.45076 130.585 6.44438 130.569L0.00763401 114.393C0.0012945 114.377 -0.00115072 114.36 0.0005012 114.343C0.00215312 114.326 0.00785456 114.309 0.0171325 114.295C9.37639 99.6276 21.3411 84.2941 36.5944 67.419C36.6107 67.4011 36.6326 67.3892 36.6566 67.3853C36.6805 67.3814 36.705 67.3856 36.7262 67.3974L51.6553 75.592C51.6666 75.5983 51.6768 75.6065 51.6853 75.6162C53.2407 77.4297 56.2504 78.4772 59.3525 78.288C61.9284 78.1298 64.0647 77.1352 65.0668 75.6268C65.0764 75.6123 65.0895 75.6004 65.1048 75.592L80.034 67.3974C80.0553 67.3856 80.0798 67.3813 80.1038 67.3852C80.1278 67.3891 80.1498 67.401 80.1661 67.419C95.4188 84.2941 107.383 99.6276 116.743 114.295C116.752 114.309 116.758 114.326 116.76 114.343C116.761 114.36 116.759 114.377 116.753 114.393L110.238 130.823C110.23 130.843 110.216 130.86 110.198 130.872C110.18 130.885 110.159 130.891 110.138 130.891ZM78.3783 103.879C78.4037 103.879 78.4284 103.888 78.448 103.904L110.093 130.604L116.532 114.365C107.194 99.7387 95.2657 84.4509 80.0632 67.6266L65.2326 75.7682C64.1871 77.3196 61.997 78.3412 59.3666 78.503C56.2051 78.6976 53.1369 77.6249 51.5355 75.7715L36.698 67.6266C21.4945 84.4517 9.56593 99.7394 0.228906 114.365L6.58902 130.348L37.3193 103.905C37.3333 103.893 37.3501 103.885 37.3682 103.881C37.3863 103.877 37.405 103.878 37.4227 103.883C37.4402 103.889 37.456 103.899 37.4686 103.913C37.4812 103.926 37.4901 103.942 37.4945 103.96L39.5909 112.436H76.2525L78.2733 103.96C78.2776 103.942 78.2864 103.926 78.2989 103.912C78.3114 103.899 78.3271 103.889 78.3446 103.883C78.3555 103.88 78.3669 103.878 78.3783 103.879Z" fill="#00257D"/>
<path d="M11.0156 129.16L25.8795 123.265L35.9686 106.056L45.318 104.765L55.5096 100.825L56.3451 96.3474L50.5622 97.3234L38.5552 91.9172L61.0175 87.2546L62.4029 82.731L47.6239 83.6066L34.0311 87.793L22.8793 101.141L11.0156 107.373V129.16Z" fill="#FFD6B5"/>
<path d="M11.0142 129.269C10.9856 129.269 10.9581 129.257 10.9379 129.237C10.9176 129.217 10.9062 129.189 10.9062 129.16V107.373C10.9063 107.353 10.9116 107.334 10.9218 107.317C10.932 107.3 10.9465 107.287 10.9639 107.278L22.8085 101.056L33.9477 87.7237C33.9611 87.7078 33.9788 87.6961 33.9986 87.69L47.591 83.5027C47.5992 83.5001 47.6077 83.4985 47.6163 83.498L62.3953 82.6227C62.4127 82.6218 62.43 82.625 62.4459 82.6322C62.4618 82.6393 62.4757 82.6502 62.4866 82.6638C62.4973 82.6775 62.5046 82.6936 62.5077 82.7108C62.5109 82.7279 62.5098 82.7455 62.5047 82.7622L61.119 87.2865C61.1134 87.305 61.1029 87.3217 61.0886 87.3347C61.0743 87.3478 61.0568 87.3567 61.0379 87.3607L38.9018 91.9568L50.575 97.2109L56.3257 96.2405C56.3429 96.2375 56.3604 96.2388 56.377 96.2442C56.3935 96.2496 56.4084 96.2589 56.4205 96.2714C56.4327 96.2838 56.4417 96.299 56.4468 96.3156C56.4518 96.3323 56.4528 96.3499 56.4496 96.367L55.6142 100.845C55.6109 100.863 55.6029 100.88 55.5912 100.894C55.5794 100.909 55.5642 100.919 55.5471 100.926L45.3554 104.866C45.3476 104.869 45.3395 104.871 45.3312 104.872L36.0339 106.155L25.9711 123.32C25.959 123.34 25.9403 123.356 25.918 123.365L11.0537 129.261C11.0411 129.266 11.0277 129.269 11.0142 129.269ZM11.1221 107.439V129.002L25.8038 123.179L35.8744 106.002C35.8826 105.988 35.8939 105.975 35.9074 105.966C35.921 105.957 35.9364 105.951 35.9525 105.949L45.2893 104.66L55.4139 100.747L56.21 96.4801L50.5781 97.4304C50.557 97.4342 50.5353 97.4314 50.5159 97.4224L38.5089 92.0169C38.4882 92.0076 38.4709 91.9919 38.4595 91.9722C38.4482 91.9524 38.4434 91.9296 38.4458 91.9069C38.4482 91.8843 38.4577 91.863 38.4729 91.846C38.4881 91.8291 38.5083 91.8174 38.5305 91.8126L60.9301 87.1639L62.2515 82.8504L47.6406 83.7153L34.0908 87.8883L22.9605 101.211C22.9515 101.222 22.9404 101.231 22.9279 101.237L11.1221 107.439Z" fill="#00257D"/>
<path d="M62.3145 95.2566H56.7326C56.024 92.8514 54.4738 90.7824 52.3661 89.4288C50.2584 88.0751 47.7343 87.5274 45.2563 87.886C42.7782 88.2446 40.5121 89.4854 38.8731 91.3812C37.2342 93.277 36.332 95.7008 36.332 98.2085C36.332 100.716 37.2342 103.14 38.8731 105.036C40.5121 106.932 42.7782 108.172 45.2563 108.531C47.7343 108.89 50.2584 108.342 52.3661 106.988C54.4738 105.635 56.024 103.566 56.7326 101.16H62.3147L62.3145 95.2566Z" fill="#8FD2FF"/>
<path d="M46.7438 108.748C44.7947 108.748 42.884 108.206 41.2246 107.182C39.5653 106.158 38.2225 104.692 37.3462 102.948C36.4698 101.205 36.0943 99.2514 36.2614 97.3064C36.4286 95.3615 37.1319 93.5012 38.2928 91.9332C39.4538 90.3652 41.0269 89.151 42.8365 88.426C44.6462 87.701 46.6214 87.4938 48.5417 87.8274C50.4621 88.161 52.2523 89.0223 53.7125 90.3153C55.1727 91.6084 56.2456 93.2822 56.8116 95.1502H62.3134C62.342 95.1502 62.3694 95.1616 62.3897 95.1819C62.4099 95.2022 62.4213 95.2297 62.4213 95.2584V101.162C62.4213 101.191 62.4099 101.218 62.3897 101.239C62.3694 101.259 62.342 101.27 62.3134 101.27H56.8116C56.1482 103.429 54.8136 105.318 53.0025 106.663C51.1914 108.009 48.9985 108.739 46.7438 108.748ZM46.7438 87.8886C44.8314 87.8886 42.9567 88.4217 41.3295 89.4281C39.7023 90.4344 38.3869 91.8745 37.5303 93.5871C36.6737 95.2996 36.3098 97.2171 36.4793 99.125C36.6488 101.033 37.3451 102.856 38.4901 104.39C39.6352 105.924 41.1838 107.109 42.9629 107.812C44.7419 108.515 46.6811 108.708 48.5635 108.37C50.4458 108.031 52.1971 107.175 53.6214 105.897C55.0456 104.619 56.0866 102.969 56.6279 101.131C56.6345 101.109 56.6481 101.09 56.6667 101.076C56.6854 101.062 56.708 101.054 56.7313 101.054H62.2054V95.3665H56.7315C56.7082 95.3664 56.6856 95.3589 56.6669 95.3449C56.6483 95.331 56.6347 95.3114 56.6281 95.2891C55.9905 93.1571 54.6856 91.2868 52.9058 89.9543C51.1261 88.6218 48.9658 87.8976 46.7438 87.8886Z" fill="#00257D"/>
<path d="M63.4655 94.4253H61.1641V101.994H63.4655V94.4253Z" fill="#8FD2FF"/>
<path d="M63.4638 102.102H61.1626C61.134 102.102 61.1065 102.091 61.0863 102.071C61.0661 102.05 61.0547 102.023 61.0547 101.994V94.4265C61.0547 94.3978 61.0661 94.3703 61.0863 94.35C61.1065 94.3298 61.134 94.3184 61.1626 94.3184H63.4638C63.4925 94.3184 63.5199 94.3298 63.5402 94.35C63.5604 94.3703 63.5718 94.3978 63.5718 94.4265V101.994C63.5718 102.023 63.5604 102.05 63.5402 102.071C63.5199 102.091 63.4925 102.102 63.4638 102.102ZM61.2706 101.886H63.3559V94.5346H61.2706V101.886Z" fill="#00257D"/>
<path d="M32.4531 91.3593L38.4203 97.0644L41.8469 102.223L55.4345 97.6019L53.7149 90.2226L45.6394 84.4565L32.4531 91.3593Z" fill="#FFD6B5"/>
<path d="M41.8462 102.331C41.8285 102.331 41.811 102.327 41.7953 102.318C41.7796 102.31 41.7663 102.298 41.7564 102.283L38.3363 97.1338L34.668 93.6263L34.8171 93.4702L38.4944 96.9857C38.4999 96.9913 38.505 96.9974 38.5095 97.0039L41.8901 102.094L55.3065 97.5306L53.6184 90.286L47.4443 85.7887L47.5713 85.6138L53.7779 90.1342C53.7989 90.1495 53.8137 90.1718 53.8195 90.1971L55.539 97.5764C55.5451 97.6025 55.5412 97.63 55.5282 97.6535C55.5152 97.6769 55.494 97.6947 55.4686 97.7033L41.8808 102.326C41.8696 102.329 41.858 102.331 41.8462 102.331Z" fill="#00257D"/>
<path d="M50.8106 99.1758L48.445 92.6245L43.3242 87.9174L43.4699 87.7583L48.6106 92.4833C48.6234 92.4952 48.6331 92.5101 48.6391 92.5265L51.0137 99.1023L50.8106 99.1758Z" fill="#00257D"/>
<path d="M46.407 100.686L43.5682 94.7866L38.8516 90.3062L39.0001 90.1494L43.731 94.6435C43.7405 94.6525 43.7483 94.6632 43.7539 94.675L46.6013 100.592L46.407 100.686Z" fill="#00257D"/>
<path d="M10.9649 107.349L7.34375 109.349L7.44788 109.538L11.069 107.539L10.9649 107.349Z" fill="white"/>
<path d="M97.6953 68.1301L98.7263 54.3591L102.54 51.9917L102.765 74.5373L97.6953 68.1301Z" fill="#FFD6B5"/>
<path d="M102.656 74.54L102.433 52.1862L98.8287 54.4238L97.8018 68.1398L97.5859 68.1238L98.617 54.3529C98.6182 54.3359 98.6235 54.3194 98.6324 54.3048C98.6412 54.2902 98.6534 54.278 98.6679 54.269L102.482 51.9014C102.498 51.8913 102.516 51.8858 102.536 51.8853C102.555 51.8848 102.574 51.8894 102.59 51.8987C102.607 51.9079 102.621 51.9214 102.631 51.9379C102.641 51.9543 102.646 51.9731 102.646 51.9922L102.871 74.5379L102.656 74.54Z" fill="#00257D"/>
<path d="M90.8867 123.266L105.824 129.184L105.894 107.176L91.2673 87.5659L102.764 74.5388L97.6943 68.1316L92.1591 59.7744L81.6898 69.8238L81.7153 74.2951L82.889 76.5243L77.8047 85.2171L90.8867 123.266Z" fill="#FFD6B5"/>
<path d="M77.8972 85.272L77.7109 85.1626L82.7661 76.5217L81.6204 74.3456C81.6123 74.3303 81.608 74.3133 81.6079 74.2959L81.5822 69.8243C81.5822 69.8096 81.5851 69.795 81.5909 69.7815C81.5966 69.768 81.6051 69.7558 81.6157 69.7456L92.0856 59.6963C92.0971 59.6855 92.1108 59.6773 92.1257 59.6723C92.1405 59.6673 92.1563 59.6655 92.172 59.6671C92.1877 59.6688 92.2028 59.6739 92.2163 59.6822C92.2298 59.6904 92.2414 59.7015 92.2501 59.7146L97.8616 68.1865L97.6816 68.306L92.1415 59.9419L81.799 69.8695L81.8242 74.2682L82.9856 76.4737C82.9942 76.4899 82.9985 76.5081 82.9982 76.5265C82.9978 76.5449 82.9927 76.5629 82.9835 76.5787L77.8972 85.272Z" fill="#00257D"/>
<path d="M105.822 129.292C105.809 129.293 105.795 129.29 105.783 129.285L90.8457 123.366C90.8312 123.36 90.8182 123.351 90.8074 123.34C90.7966 123.329 90.7884 123.316 90.7833 123.301L77.7012 85.2527C77.6961 85.2379 77.6943 85.2223 77.6958 85.2067C77.6974 85.1912 77.7022 85.1762 77.7101 85.1627L84.7081 73.1992L84.8944 73.3073L77.9217 85.2276L90.9713 123.182L105.716 129.025L105.785 107.211L91.1805 87.6293C91.1657 87.6094 91.1581 87.585 91.1591 87.5602C91.1602 87.5354 91.1697 87.5117 91.1861 87.4931L102.655 74.497L102.649 73.8816L102.865 73.8794L102.872 74.5365C102.872 74.5632 102.862 74.5891 102.845 74.6092L91.4059 87.5703L105.98 107.11C105.994 107.129 106.001 107.152 106.001 107.175L105.931 129.183C105.931 129.201 105.927 129.218 105.918 129.234C105.91 129.249 105.898 129.263 105.884 129.273C105.866 129.285 105.844 129.292 105.822 129.292Z" fill="#00257D"/>
<path d="M88.9262 63.0415L88.7461 63.1611L93.8589 70.8804L94.039 70.7607L88.9262 63.0415Z" fill="#00257D"/>
<path d="M85.6059 66.1479L85.4258 66.2676L89.709 72.7345L89.889 72.6148L85.6059 66.1479Z" fill="#00257D"/>
<path d="M83.7933 71.5342L83.6133 71.6538L85.7453 74.8726L85.9254 74.7529L83.7933 71.5342Z" fill="#00257D"/>
<path d="M94.6684 16.3236C96.7934 15.9751 98.438 16.3885 99.0787 17.8306C100.919 21.9746 95.5701 38.7704 81.0531 44.4857C66.5362 50.2009 19.0508 50.1166 19.0508 50.1166C19.0508 50.1166 77.312 18.8918 94.6684 16.3236Z" fill="#0084CC"/>
<path d="M19.1108 50.2267H19.0533C19.0293 50.2267 19.0059 50.2187 18.9869 50.2039C18.9679 50.189 18.9544 50.1683 18.9486 50.1449C18.9427 50.1215 18.9448 50.0968 18.9546 50.0748C18.9643 50.0527 18.9812 50.0346 19.0024 50.0232C19.5852 49.7108 77.4788 18.761 94.6551 16.2196C96.9879 15.8373 98.5536 16.3798 99.1799 17.7898C99.9786 19.5878 99.4076 23.5018 97.7601 27.5297C96.2207 31.2919 91.5157 40.487 81.0958 44.5893C66.9549 50.1556 21.018 50.2267 19.1108 50.2267ZM96.0037 16.3169C95.5629 16.3199 95.123 16.3585 94.6884 16.4324H94.6867C78.2817 18.8594 24.5704 47.3017 19.4868 50.0085C24.2939 49.9966 67.4231 49.7385 81.017 44.3869C91.3592 40.3151 96.0316 31.1836 97.5602 27.4467C99.187 23.47 99.7584 19.624 98.9826 17.8765C98.4446 16.6655 97.2269 16.3169 96.0037 16.3169Z" fill="#00257D"/>
<path d="M82.4162 47.4949L82.4777 47.1993L78.345 31.4922H38.3701L34.2383 47.1995L34.3071 47.5307C30.9742 43.6211 26.5287 46.4817 28.0252 51.2183C29.3705 55.4743 33.8838 56.4795 35.8398 54.8988L37.5435 63.0861L58.3576 71.3642L79.1716 63.0861L80.872 54.9152C82.8386 56.472 87.3254 55.4594 88.6651 51.2179C90.1585 46.4964 85.7461 43.6397 82.4162 47.4949Z" fill="#FFD6B5"/>
<path d="M58.3838 33.0304C58.8428 37.1016 61.7118 39.1691 64.5335 40.9369C64.3005 39.8782 64.2781 38.7839 64.4674 37.7165C66.0122 41.9658 78.0602 46.2787 82.4163 47.4952C82.8392 45.1527 83.072 42.7798 83.1125 40.3998C83.2816 30.7565 75.9746 19.1597 58.3836 19.1597C40.7926 19.1597 33.4932 31.3986 33.6752 40.4C33.7118 42.6766 33.9 44.9483 34.2384 47.1998C38.3852 44.5754 42.5386 41.3777 45.7895 37.7537C45.131 40.1848 43.8988 42.4218 42.1966 44.2761C47.3776 42.9405 51.3066 39.984 54.0581 35.5046C53.9301 38.374 53.4163 39.8845 52.7948 41.0149C56.0418 39.2582 57.5458 36.3617 58.3838 33.0304Z" fill="#00257D"/>
<path d="M65.6367 52.2058C68.7252 46.4049 73.5002 45.2207 79.1606 46.4609C77.0487 51.0006 72.3053 52.6577 65.6367 52.2058Z" fill="white"/>
<path d="M73.9433 46.1006C73.5252 46.1474 73.1101 46.2183 72.7001 46.3129C72.1643 46.537 71.7119 46.9231 71.406 47.4174C71.1002 47.9117 70.9562 48.4893 70.9943 49.0696C71.0323 49.6499 71.2505 50.2037 71.6183 50.6537C71.9861 51.1036 72.4851 51.4272 73.0455 51.5791C74.2488 51.2315 75.381 50.673 76.3896 49.9296C76.5566 49.5169 76.6223 49.0702 76.5814 48.6269C76.5404 48.1835 76.394 47.7565 76.1543 47.3815C75.9147 47.0065 75.5887 46.6945 75.2039 46.4716C74.8191 46.2488 74.3865 46.1215 73.9425 46.1006H73.9433Z" fill="#00257D"/>
<path d="M67.714 52.3887C67.047 52.3887 66.3529 52.3643 65.6319 52.3154C65.6139 52.3142 65.5965 52.3085 65.5813 52.2988C65.5661 52.2891 65.5535 52.2757 65.5448 52.2599C65.536 52.2441 65.5314 52.2264 65.5313 52.2083C65.5311 52.1902 65.5355 52.1724 65.544 52.1565C68.3638 46.8607 72.8261 44.9636 79.1873 46.3571C79.2031 46.3606 79.2179 46.3676 79.2307 46.3776C79.2434 46.3876 79.2538 46.4003 79.2609 46.4148C79.268 46.4294 79.2717 46.4454 79.2717 46.4615C79.2717 46.4777 79.268 46.4937 79.2609 46.5082C77.4251 50.4547 73.6374 52.3887 67.714 52.3887ZM65.8143 52.1104C72.6774 52.5429 76.9966 50.7182 79.0077 46.5396C72.8853 45.2382 68.5665 47.0602 65.8141 52.1104H65.8143Z" fill="#00257D"/>
<path d="M50.8442 52.2058C47.7557 46.4049 42.9808 45.2207 37.3203 46.4609C39.4322 51.0006 44.1756 52.6577 50.8442 52.2058Z" fill="white"/>
<path d="M45.6552 46.9512C45.1299 47.0222 44.6358 47.2421 44.2312 47.585C43.8265 47.9278 43.5281 48.3794 43.371 48.8864C43.2139 49.3934 43.2048 49.9349 43.3447 50.4469C43.4845 50.959 43.7676 51.4204 44.1604 51.7767C45.1781 52.0185 46.215 52.1704 47.2591 52.2308C47.8038 51.9755 48.2501 51.5487 48.5299 51.0155C48.8097 50.4823 48.9075 49.872 48.8084 49.2779C47.923 48.2992 46.8508 47.508 45.6552 46.9512Z" fill="#00257D"/>
<path d="M48.7728 52.3886C42.8485 52.3886 39.0616 50.455 37.2256 46.5075C37.2185 46.493 37.2148 46.477 37.2148 46.4608C37.2148 46.4446 37.2185 46.4287 37.2256 46.4141C37.2328 46.3996 37.2431 46.3868 37.2558 46.3769C37.2686 46.3669 37.2834 46.3599 37.2992 46.3564C43.6595 44.9622 48.1219 46.86 50.9425 52.1558C50.951 52.1717 50.9554 52.1895 50.9553 52.2076C50.9552 52.2257 50.9505 52.2435 50.9417 52.2593C50.933 52.2751 50.9204 52.2885 50.9051 52.2981C50.8899 52.3078 50.8725 52.3135 50.8544 52.3147C50.1339 52.364 49.44 52.3886 48.7728 52.3886ZM37.479 46.5395C39.4897 50.7184 43.8087 52.5415 50.6727 52.1104C47.9205 47.0604 43.6021 45.2385 37.479 46.5395Z" fill="#00257D"/>
<path d="M62.6987 54.6616L59.793 56.2134L59.8945 56.4042L62.8003 54.8524L62.6987 54.6616Z" fill="#00257D"/>
<path d="M54.1094 54.6618L54.0078 54.8525L56.9135 56.4047L57.0151 56.214L54.1094 54.6618Z" fill="#00257D"/>
<path d="M56.3438 62.3294L57.1442 59.665C57.1442 59.665 58.8611 60.0085 58.9621 60.0691C59.0631 60.1296 60.4437 58.7173 60.4437 58.7173L63.1637 60.7374L60.3573 64.2765L56.3438 62.3294Z" fill="#CC1D37"/>
<path d="M54.3768 62.5152C53.8427 62.5203 53.3088 62.4962 52.7773 62.443L52.8043 62.2285C52.8751 62.2376 59.9729 63.0739 66.8315 58.7617L66.9461 58.9451C61.9803 62.0675 56.8876 62.5152 54.3768 62.5152Z" fill="#00257D"/>
<path d="M60.3555 64.3852C60.3392 64.3851 60.3231 64.3814 60.3084 64.3744L56.2953 62.4271C56.2722 62.4159 56.2538 62.3968 56.2435 62.3733C56.2332 62.3498 56.2316 62.3233 56.2389 62.2987L57.0394 59.6342C57.0472 59.6085 57.0643 59.5866 57.0873 59.5728C57.1103 59.559 57.1377 59.5543 57.164 59.5596C57.755 59.6777 58.7243 59.8768 58.9672 59.957C59.4613 59.5496 59.9285 59.1104 60.3658 58.6422C60.3841 58.6236 60.4085 58.6122 60.4345 58.6102C60.4604 58.6082 60.4863 58.6156 60.5072 58.6312L63.2272 60.6513C63.2389 60.66 63.2486 60.6709 63.256 60.6834C63.2633 60.6959 63.2681 60.7097 63.2699 60.7241C63.2718 60.7385 63.2708 60.7531 63.2669 60.7671C63.263 60.7811 63.2563 60.7941 63.2473 60.8055L60.4399 64.3443C60.4298 64.357 60.4169 64.3673 60.4023 64.3744C60.3877 64.3815 60.3717 64.3851 60.3555 64.3852ZM56.4723 62.2727L60.3246 64.1419L63.0086 60.7586L60.4537 58.8608C59.0766 60.2643 58.9857 60.2104 58.9046 60.1624C58.812 60.1207 57.8587 59.9203 57.2175 59.791L56.4723 62.2727ZM59.0006 59.9694C59.0071 59.9722 59.0123 59.9748 59.0162 59.9769C59.0111 59.974 59.0057 59.9715 59.0002 59.9694H59.0006Z" fill="#00257D"/>
<path d="M82.415 47.6031C82.4051 47.6031 82.3953 47.6018 82.3858 47.599C78.3347 46.4673 66.6485 42.3676 64.5261 38.1274C64.4074 39.0557 64.4451 39.9973 64.6375 40.9132C64.6421 40.934 64.6406 40.9557 64.6329 40.9757C64.6252 40.9956 64.6119 41.0128 64.5945 41.0252C64.577 41.0375 64.5564 41.0444 64.5351 41.045C64.5137 41.0455 64.4927 41.0398 64.4747 41.0284C61.7177 39.3008 58.988 37.301 58.3503 33.5734C57.3325 37.2308 55.5739 39.6331 52.844 41.1097C52.8235 41.1208 52.7999 41.1249 52.7768 41.1215C52.7537 41.118 52.7324 41.1072 52.716 41.0906C52.6996 41.074 52.689 41.0525 52.6858 41.0294C52.6826 41.0062 52.687 40.9827 52.6983 40.9622C53.2146 40.0234 53.7586 38.6891 53.9266 35.914C51.1539 40.2448 47.2178 43.0924 42.2216 44.3802C42.1991 44.386 42.1752 44.3843 42.1537 44.3754C42.1321 44.3665 42.1141 44.3509 42.1021 44.3308C42.0902 44.3108 42.0851 44.2874 42.0875 44.2642C42.0899 44.241 42.0998 44.2192 42.1156 44.202C43.698 42.4776 44.8716 40.4178 45.5489 38.1761C42.6417 41.3376 38.8581 44.402 34.2936 47.2905C34.2786 47.2999 34.2615 47.3055 34.2438 47.3068C34.2261 47.3081 34.2084 47.305 34.1922 47.2977C34.176 47.2905 34.1619 47.2794 34.151 47.2654C34.1401 47.2514 34.1328 47.2349 34.1298 47.2174C33.7923 44.9604 33.6039 42.6836 33.5659 40.4018C33.4638 35.3536 35.6653 30.027 39.4552 26.1531C42.6249 22.9129 48.4818 19.0508 58.3823 19.0508C66.3629 19.0508 72.9538 21.4698 77.444 26.0465C79.3045 27.9392 80.7726 30.1821 81.7637 32.6457C82.7548 35.1093 83.2493 37.745 83.2187 40.4009C83.1761 42.7874 82.9425 45.1667 82.5201 47.5158C82.5151 47.5402 82.5019 47.5621 82.4826 47.5779C82.4633 47.5937 82.4392 47.6023 82.4143 47.6023L82.415 47.6031ZM64.4658 37.6081C64.488 37.608 64.5096 37.6149 64.5278 37.6276C64.5459 37.6403 64.5597 37.6583 64.5673 37.6792C65.9994 41.6176 77.0734 45.8738 82.3308 47.359C82.7349 45.0593 82.9598 42.7315 83.0035 40.3968C83.0336 37.7696 82.5443 35.1624 81.5638 32.7254C80.5834 30.2885 79.1311 28.0699 77.2908 26.1976C72.8424 21.6633 66.304 19.2666 58.3825 19.2666C48.5571 19.2666 42.7503 23.0936 39.6095 26.304C35.8594 30.1369 33.681 35.4052 33.7809 40.3968C33.8211 42.6132 33.9999 44.8249 34.3163 47.0189C38.9695 44.0602 42.8002 40.9186 45.7061 37.6801C45.7224 37.6619 45.7443 37.6497 45.7684 37.6457C45.7925 37.6416 45.8172 37.6458 45.8386 37.6576C45.86 37.6694 45.8767 37.6882 45.8861 37.7107C45.8954 37.7333 45.8969 37.7584 45.8902 37.7819C45.2555 40.1081 44.1029 42.26 42.5189 44.0762C47.4253 42.7244 51.2746 39.8226 53.9633 35.4467C53.9759 35.4265 53.9948 35.411 54.0171 35.4026C54.0394 35.3943 54.0639 35.3936 54.0866 35.4006C54.1094 35.4076 54.1292 35.4219 54.143 35.4414C54.1567 35.4608 54.1637 35.4843 54.1628 35.5082C54.0384 38.293 53.5553 39.7443 53.0573 40.7406C55.6732 39.2107 57.3363 36.7406 58.2767 33.0035C58.2823 32.9786 58.2967 32.9567 58.3173 32.9417C58.3379 32.9267 58.3632 32.9197 58.3885 32.922C58.4138 32.9237 58.4377 32.9342 58.456 32.9517C58.4743 32.9693 58.4859 32.9927 58.4887 33.018C58.9256 36.895 61.6083 38.9601 64.3747 40.7103C64.2059 39.7152 64.2002 38.6991 64.3577 37.7021C64.3608 37.6781 64.3718 37.6558 64.3891 37.6388C64.4064 37.6218 64.4288 37.6111 64.4529 37.6085L64.4658 37.6081Z" fill="#00257D"/>
<path d="M11.0158 141.873C10.9942 141.873 10.973 141.866 10.9551 141.854C10.9372 141.842 10.9234 141.825 10.9154 141.805L0.00765796 114.393C0.00127718 114.377 -0.00117065 114.36 0.000519529 114.343C0.00220971 114.325 0.00798868 114.309 0.0173723 114.294L1.62974 111.801L1.81108 111.918L0.229146 114.365L10.9078 141.201V107.373C10.9078 107.354 10.913 107.335 10.9227 107.318C10.9325 107.302 10.9465 107.288 10.9633 107.279L13.0333 106.133L13.1378 106.322L11.1237 107.436V141.765C11.1237 141.79 11.115 141.814 11.099 141.834C11.083 141.853 11.0607 141.866 11.0361 141.871C11.0294 141.872 11.0226 141.873 11.0158 141.873Z" fill="#00257D"/>
<path d="M82.8324 50.6018L82.6406 50.7007L84 53.346L84.1917 53.2472L82.8324 50.6018Z" fill="#00257D"/>
<path d="M85.93 48.7332L85.7383 48.832L86.698 50.6995L86.8897 50.6007L85.93 48.7332Z" fill="#00257D"/>
<path d="M86.4336 47.9306L83.1992 51.6411L83.362 51.7835L86.5964 48.073L86.4336 47.9306Z" fill="#00257D"/>
<path d="M51.0278 42.2388L50.7716 46.012L39.6016 43.3257L39.7639 40.9346L51.0278 42.2388Z" fill="#00257D"/>
<path d="M50.7741 46.1219C50.7656 46.1219 50.7571 46.1209 50.7489 46.1189L39.5788 43.4329C39.554 43.4269 39.5321 43.4123 39.517 43.3917C39.5019 43.371 39.4946 43.3457 39.4964 43.3202L39.6587 40.9293C39.6597 40.9146 39.6637 40.9004 39.6703 40.8873C39.677 40.8743 39.6863 40.8627 39.6976 40.8534C39.7205 40.8349 39.7497 40.8263 39.7789 40.8292L51.0427 42.1332C51.0703 42.1363 51.0956 42.15 51.1134 42.1714C51.1311 42.1928 51.14 42.2202 51.1381 42.248L50.881 46.0212C50.8791 46.0486 50.8669 46.0742 50.8469 46.0929C50.8268 46.1116 50.8004 46.122 50.773 46.1219H50.7741ZM39.7178 43.2439L50.675 45.8789L50.9157 42.3362L39.8664 41.0568L39.7178 43.2439Z" fill="#00257D"/>
<path d="M58.3566 71.4723C58.343 71.4724 58.3295 71.4698 58.3169 71.4647L55.3931 70.3017L55.4728 70.1008L58.3573 71.2479L79.0776 63.0072L80.7662 54.8934C80.7699 54.8753 80.7782 54.8585 80.7902 54.8446C80.8023 54.8306 80.8177 54.82 80.835 54.8137C80.8523 54.8074 80.871 54.8056 80.8891 54.8085C80.9073 54.8115 80.9245 54.819 80.9389 54.8305C81.8141 55.5241 83.2185 55.6899 84.6045 55.2647C86.4826 54.6876 87.9257 53.2009 88.5627 51.1857C89.3503 48.6947 88.4395 46.8717 87.1874 46.1708C86.0517 45.534 84.2237 45.5673 82.4975 47.566C82.4819 47.5842 82.4607 47.5966 82.4372 47.6014C82.4138 47.6061 82.3894 47.6029 82.368 47.5923C82.3465 47.5817 82.3292 47.5642 82.3187 47.5427C82.3083 47.5211 82.3052 47.4967 82.3101 47.4733L82.3665 47.2023L78.2607 31.6005H38.4534L34.3485 47.2023L34.412 47.5087C34.4168 47.5322 34.4136 47.5565 34.4031 47.578C34.3926 47.5995 34.3752 47.6169 34.3537 47.6274C34.3323 47.6379 34.3079 47.6411 34.2845 47.6362C34.2611 47.6314 34.24 47.619 34.2244 47.6008C32.4952 45.5725 30.6564 45.5297 29.5118 46.1654C28.2541 46.8646 27.3386 48.688 28.1281 51.1857C28.7688 53.2123 30.2221 54.7021 32.1129 55.2722C33.5021 55.6912 34.9042 55.5159 35.7718 54.8143C35.7862 54.8028 35.8032 54.7952 35.8214 54.7922C35.8395 54.7893 35.8581 54.7909 35.8754 54.7972C35.8927 54.8034 35.9081 54.8139 35.9202 54.8278C35.9323 54.8416 35.9406 54.8583 35.9445 54.8763L37.6365 63.0061L51.6429 68.5767C51.663 68.5847 51.6802 68.5985 51.6923 68.6164C51.7044 68.6343 51.7109 68.6554 51.7109 68.677V69.8809H51.495V68.751L37.5029 63.186C37.4863 63.1794 37.4716 63.1688 37.4601 63.1551C37.4486 63.1414 37.4407 63.125 37.437 63.1075L35.7681 55.0874C34.8398 55.7451 33.4351 55.8971 32.0499 55.4789C30.0886 54.8874 28.584 53.3462 27.9215 51.2506C27.0951 48.6363 28.0726 46.7176 29.4063 45.9749C30.1385 45.5732 30.9989 45.4753 31.8025 45.7022C32.7006 45.9664 33.5074 46.476 34.1324 47.1738V47.1706L38.2651 31.4635C38.2712 31.4404 38.2847 31.4199 38.3036 31.4054C38.3224 31.3908 38.3456 31.3828 38.3694 31.3828H78.3441C78.3679 31.3828 78.3911 31.3907 78.4101 31.4053C78.429 31.4199 78.4425 31.4403 78.4486 31.4635L82.577 47.1565C84.3163 45.3282 86.1365 45.3357 87.2919 45.9829C88.6206 46.7267 89.5922 48.6445 88.7678 51.2521C88.1092 53.336 86.6145 54.8742 84.6662 55.4722C83.2835 55.8964 81.8762 55.7533 80.9415 55.1034L79.2756 63.109C79.2719 63.1265 79.264 63.1429 79.2525 63.1566C79.241 63.1703 79.2263 63.1809 79.2097 63.1875L58.3957 71.4656C58.3832 71.4702 58.37 71.4725 58.3566 71.4723Z" fill="#00257D"/>
<path d="M33.8584 50.6005L32.5 53.2461L32.6918 53.3449L34.0502 50.6993L33.8584 50.6005Z" fill="#00257D"/>
<path d="M30.7588 48.7334L29.7344 50.7285L29.9262 50.8273L30.9506 48.8322L30.7588 48.7334Z" fill="#00257D"/>
<path d="M105.952 107.125L105.785 107.262L108.025 110L108.191 109.863L105.952 107.125Z" fill="white"/>
<path d="M30.2566 47.93L30.0938 48.0723L33.3273 51.7835L33.4901 51.6412L30.2566 47.93Z" fill="#00257D"/>
<path d="M36.044 27.6334L44.7792 0.105957L74.6628 19.8842L75.5436 19.5759L94.6729 16.324C78.7551 19.1564 68.3439 37.5526 46.3601 46.3868C36.2549 50.0973 23.1904 52.8476 15.5547 50.738L33.0017 34.4687L36.044 27.6334Z" fill="#00257D"/>
<path d="M21.8905 51.5766C19.4371 51.5766 17.2924 51.3325 15.5248 50.8441C15.5062 50.839 15.4893 50.829 15.4759 50.8152C15.4625 50.8014 15.453 50.7842 15.4484 50.7655C15.4438 50.7468 15.4443 50.7272 15.4499 50.7087C15.4554 50.6903 15.4658 50.6736 15.4799 50.6605L32.9109 34.4062L35.9451 27.591L44.6766 0.0747498C44.6817 0.0589707 44.6903 0.0445812 44.7019 0.0326953C44.7134 0.0208093 44.7276 0.0117457 44.7432 0.00620608C44.7588 0.000666488 44.7755 -0.00120049 44.7919 0.000749677C44.8084 0.00269984 44.8241 0.00841484 44.838 0.0174523L74.6782 19.7661L75.5085 19.4755L94.6542 16.2193C94.6825 16.2143 94.7115 16.2208 94.7349 16.2373C94.7584 16.2538 94.7743 16.279 94.7792 16.3073C94.7841 16.3355 94.7777 16.3646 94.7612 16.3881C94.7447 16.4116 94.7196 16.4275 94.6914 16.4325C86.5591 17.8796 79.9516 23.3348 72.301 29.6511C65.1897 35.5225 57.1293 42.1772 46.3997 46.4886C41.0954 48.4462 35.6214 49.9075 30.048 50.8538C27.3522 51.3104 24.6245 51.5521 21.8905 51.5766ZM15.7696 50.6862C23.7526 52.7835 37.1876 49.641 46.3215 46.2869C57.0171 41.9891 65.0638 35.3463 72.1631 29.4842C78.8748 23.9428 84.7866 19.0625 91.6413 16.9507L75.5622 19.6841L74.6987 19.9868C74.683 19.9923 74.6663 19.9941 74.6497 19.9921C74.6332 19.99 74.6174 19.9842 74.6035 19.975L44.8391 0.276697L36.1473 27.668L33.0998 34.5145C33.0938 34.5277 33.0853 34.5396 33.0748 34.5495L15.7696 50.6862Z" fill="#00257D"/>
<path d="M75.5427 19.5773L33 34.4702L35.0102 27.3413L69.1621 15.3857L75.5427 19.5773Z" fill="#FFAA00"/>
<path d="M32.9985 34.5784C32.9819 34.5784 32.9654 34.5745 32.9505 34.567C32.9355 34.5596 32.9225 34.5488 32.9125 34.5355C32.9024 34.5221 32.8956 34.5067 32.8925 34.4902C32.8894 34.4738 32.8902 34.4569 32.8947 34.4408L34.9051 27.3119C34.9099 27.2952 34.9186 27.2799 34.9305 27.2672C34.9424 27.2546 34.9572 27.245 34.9736 27.2393L69.125 15.2838C69.1406 15.278 69.1573 15.2761 69.1738 15.2781C69.1903 15.2802 69.206 15.2861 69.2198 15.2954L75.6006 19.487C75.6174 19.4981 75.6307 19.5137 75.6392 19.5319C75.6476 19.5502 75.6508 19.5705 75.6483 19.5904C75.6459 19.6104 75.6379 19.6293 75.6253 19.645C75.6127 19.6607 75.596 19.6726 75.5771 19.6792L33.0342 34.5725C33.0227 34.5766 33.0107 34.5786 32.9985 34.5784ZM35.0973 27.4248L33.1589 34.3005L75.2994 19.5476L69.147 15.5056L35.0973 27.4248Z" fill="#00257D"/>
<path d="M65.6367 42.2388L65.8927 46.012L77.063 43.3257L76.9004 40.9346L65.6367 42.2388Z" fill="#00257D"/>
<path d="M65.8953 46.122C65.8679 46.122 65.8415 46.1117 65.8214 46.093C65.8014 46.0742 65.7892 46.0486 65.7873 46.0212L65.5315 42.248C65.5296 42.2203 65.5384 42.1929 65.5562 42.1715C65.5739 42.1501 65.5991 42.1364 65.6267 42.1332L76.8906 40.8292C76.9199 40.8262 76.9491 40.8349 76.972 40.8534C76.9832 40.8628 76.9925 40.8743 76.9991 40.8874C77.0057 40.9004 77.0097 40.9147 77.0106 40.9293L77.173 43.3202C77.1748 43.3457 77.1675 43.371 77.1524 43.3916C77.1374 43.4123 77.1155 43.4269 77.0907 43.4329L65.9205 46.1183C65.9123 46.1205 65.9038 46.1217 65.8953 46.122ZM65.7539 42.3362L65.9943 45.8789L76.9515 43.2439L76.803 41.0569L65.7539 42.3362Z" fill="#00257D"/>
<path d="M105.782 141.873C105.774 141.873 105.767 141.872 105.76 141.871C105.736 141.866 105.714 141.852 105.698 141.833C105.682 141.813 105.674 141.789 105.674 141.764L105.784 107.213L104.59 105.589L104.764 105.461L105.979 107.113C105.993 107.132 106 107.155 106 107.178L105.892 141.196L116.53 114.365L115.395 112.603L115.576 112.486L116.742 114.294C116.751 114.309 116.757 114.325 116.759 114.342C116.76 114.359 116.758 114.377 116.752 114.393L105.882 141.804C105.874 141.824 105.86 141.842 105.842 141.854C105.824 141.866 105.803 141.873 105.782 141.873Z" fill="#00257D"/>
<path d="M61.0812 38.3997L60.957 38.2228C66.5481 34.3189 71.9039 30.0875 76.9965 25.5508L77.1403 25.7121C72.0415 30.2545 66.6791 34.4911 61.0812 38.3997Z" fill="white"/>
<path d="M80.9343 43.7321C79.2811 39.8642 76.7795 36.1889 73.4991 32.8084C73.2163 32.5169 73.1796 32.4771 73.1641 32.4311L73.2666 32.3969L73.3618 32.3472C73.3812 32.3768 73.5077 32.5067 73.6541 32.6577C76.9529 36.0572 79.4691 39.7548 81.1329 43.6471L80.9343 43.7321Z" fill="white"/>
<path d="M77.6469 35.5044C76.1969 33.1295 72.5831 29.4581 72.5469 29.4214L72.7004 29.27C72.7368 29.307 76.3678 32.9961 77.831 35.3922L77.6469 35.5044Z" fill="white"/>
</svg>
