<svg width="24" height="25" viewBox="0 0 24 25" fill="none" xmlns="http://www.w3.org/2000/svg">
<g clip-path="url(#clip0_1344_61780)">
<path fill-rule="evenodd" clip-rule="evenodd" d="M20.4512 5.12273C21.3764 5.3719 22.1059 6.10128 22.3549 7.0266C22.8177 8.71673 22.7999 12.2397 22.7999 12.2397C22.7999 12.2397 22.7999 15.7447 22.3551 17.435C22.1059 18.3602 21.3765 19.0897 20.4512 19.3387C18.7609 19.7837 11.9999 19.7837 11.9999 19.7837C11.9999 19.7837 5.25653 19.7837 3.5486 19.3211C2.62328 19.0719 1.8939 18.3424 1.64473 17.4172C1.19995 15.7447 1.19995 12.2219 1.19995 12.2219C1.19995 12.2219 1.19995 8.71673 1.64473 7.0266C1.89373 6.10145 2.64108 5.3541 3.54843 5.1051C5.23873 4.66016 11.9997 4.66016 11.9997 4.66016C11.9997 4.66016 18.7609 4.66016 20.4512 5.12273ZM15.4684 12.222L9.84604 15.4602V8.98379L15.4684 12.222Z" fill="white"/>
</g>
<defs>
<clipPath id="clip0_1344_61780">
<rect width="21.6" height="21.6" fill="white" transform="translate(1.19995 1.41162)"/>
</clipPath>
</defs>
</svg>
