<svg width="59" height="54" viewBox="0 0 59 54" fill="none" xmlns="http://www.w3.org/2000/svg">
<path d="M11.3297 0C4.91667 0 0 4.77109 0 11.7108C0 17.3494 3.20652 21.253 7.90942 22.7711L0.427536 54H10.6884L19.8804 24.0723C21.8043 18 22.6594 15.3976 22.6594 11.7108C22.6594 5.20482 17.9565 0 11.3297 0ZM47.6703 0C41.2572 0 36.3406 4.77109 36.3406 11.7108C36.3406 17.3494 39.5471 21.253 44.25 22.7711L36.7681 54H47.029L56.221 24.0723C58.1449 18 59 15.3976 59 11.7108C59 5.20482 54.2971 0 47.6703 0Z" fill="#00164C"/>
</svg>
